%TF.GenerationSoftware,KiCad,Pcbnew,8.99.0-unknown-7a4b3602b9~181~ubuntu24.04.1*%
%TF.CreationDate,2024-12-15T13:41:47-05:00*%
%TF.ProjectId,nRF54L_ePaper,6e524635-344c-45f6-9550-617065722e6b,rev?*%
%TF.SameCoordinates,Original*%
%TF.FileFunction,Copper,L2,Inr*%
%TF.FilePolarity,Positive*%
%FSLAX46Y46*%
G04 Gerber Fmt 4.6, Leading zero omitted, Abs format (unit mm)*
G04 Created by KiCad (PCBNEW 8.99.0-unknown-7a4b3602b9~181~ubuntu24.04.1) date 2024-12-15 13:41:47*
%MOMM*%
%LPD*%
G01*
G04 APERTURE LIST*
%TA.AperFunction,ComponentPad*%
%ADD10R,1.700000X1.700000*%
%TD*%
%TA.AperFunction,ComponentPad*%
%ADD11O,1.700000X1.700000*%
%TD*%
%TA.AperFunction,ViaPad*%
%ADD12C,0.600000*%
%TD*%
G04 APERTURE END LIST*
D10*
%TO.N,Net-(BT1-+)*%
%TO.C,JP2*%
X118300000Y-56775000D03*
D11*
%TO.N,Net-(JP1-B)*%
X118300000Y-54235000D03*
%TD*%
D10*
%TO.N,VDD*%
%TO.C,J1*%
X101600000Y-50500000D03*
D11*
%TO.N,/UART_TX*%
X101600000Y-53040000D03*
%TO.N,/UART_RX*%
X101600000Y-55580000D03*
%TO.N,GND*%
X101600000Y-58120000D03*
%TD*%
D12*
%TO.N,VDD*%
X112130000Y-72320000D03*
X151460000Y-67300000D03*
X113600000Y-53500000D03*
X147540000Y-67830000D03*
X142200000Y-53840000D03*
X153040000Y-68600000D03*
X101190000Y-66090000D03*
X145230000Y-52040000D03*
X155620000Y-67300000D03*
%TO.N,GND*%
X142790000Y-48500000D03*
X112130000Y-68430000D03*
X105820000Y-68230000D03*
X109560000Y-48190000D03*
X106850000Y-53360000D03*
X142780000Y-56070000D03*
X142790000Y-46700000D03*
X106930000Y-57220000D03*
X144700000Y-60280000D03*
X108720000Y-52220000D03*
X104010000Y-62260000D03*
X108670000Y-48190000D03*
X108650000Y-50770000D03*
X152110000Y-71150000D03*
X142790000Y-45800000D03*
X103550000Y-60700000D03*
X142870000Y-56808000D03*
X113890000Y-47600000D03*
X142790000Y-47600000D03*
X113630000Y-69320000D03*
X113180000Y-55660000D03*
X112260000Y-55650000D03*
X142780000Y-49410000D03*
X114690000Y-55060000D03*
X147460000Y-50750000D03*
X104290000Y-49610000D03*
X108330000Y-70500000D03*
X147580000Y-55250000D03*
X143400000Y-60430000D03*
X108270000Y-69650000D03*
X110450000Y-48190000D03*
X116910000Y-73020000D03*
X112880000Y-53000000D03*
%TO.N,/PREVGL*%
X145185000Y-46905000D03*
X134880000Y-46200000D03*
%TO.N,/SCL*%
X109670000Y-59340000D03*
X154860000Y-70350000D03*
X106850000Y-47930000D03*
%TO.N,/SDA*%
X155570000Y-71150000D03*
X105950000Y-47940000D03*
X110370000Y-59730000D03*
%TO.N,/PREVGH*%
X145230466Y-48707047D03*
X140680000Y-49000000D03*
%TO.N,/GDR*%
X140340000Y-54140000D03*
X145370000Y-58490000D03*
%TO.N,/RESE*%
X142600000Y-57970000D03*
X138440000Y-54140000D03*
%TO.N,/EPD_DC*%
X130050000Y-49640000D03*
X147700000Y-53340000D03*
%TO.N,Net-(Q2-G)*%
X103060000Y-48500000D03*
X103760000Y-59620000D03*
%TO.N,Net-(J4-SWDIO)*%
X106560000Y-49400000D03*
%TO.N,Net-(J4-~{RESET})*%
X107750000Y-49070000D03*
%TO.N,Net-(J4-SWCLK)*%
X107200000Y-50280000D03*
%TO.N,/SW1*%
X111220000Y-71830000D03*
%TO.N,/SW2*%
X119330000Y-71830000D03*
%TO.N,/SW3*%
X129410000Y-71820000D03*
%TO.N,/SW4*%
X147750000Y-71820000D03*
%TO.N,/UART_TX*%
X111200000Y-59800000D03*
X106920000Y-59020000D03*
%TO.N,/UART_RX*%
X107100000Y-60100000D03*
X111800000Y-59300000D03*
%TO.N,Net-(BT1-+)*%
X116030000Y-60820000D03*
X141960000Y-60800000D03*
%TO.N,Net-(JP1-B)*%
X138050000Y-65860000D03*
X145870000Y-67430000D03*
%TD*%
%TA.AperFunction,Conductor*%
%TO.N,VDD*%
G36*
X157854194Y-45118306D02*
G01*
X157872500Y-45162500D01*
X157872500Y-72996930D01*
X157872199Y-73003056D01*
X157856338Y-73164088D01*
X157853948Y-73176105D01*
X157807871Y-73328002D01*
X157803182Y-73339321D01*
X157728358Y-73479307D01*
X157721551Y-73489494D01*
X157620856Y-73612192D01*
X157612192Y-73620856D01*
X157489494Y-73721551D01*
X157479307Y-73728358D01*
X157339321Y-73803182D01*
X157328002Y-73807871D01*
X157176105Y-73853948D01*
X157164088Y-73856338D01*
X157003056Y-73872199D01*
X156996930Y-73872500D01*
X140320727Y-73872500D01*
X140304551Y-73870370D01*
X140292425Y-73867121D01*
X140264408Y-73850945D01*
X140261554Y-73848091D01*
X140256726Y-73839728D01*
X140254475Y-73838001D01*
X140254104Y-73835187D01*
X140245378Y-73820072D01*
X140242128Y-73807945D01*
X140240000Y-73791773D01*
X140240000Y-73678042D01*
X140240000Y-73678036D01*
X140203645Y-73436832D01*
X140197949Y-73418367D01*
X140131748Y-73203748D01*
X140131747Y-73203744D01*
X140131746Y-73203740D01*
X140025909Y-72983968D01*
X139893813Y-72790219D01*
X139888505Y-72782433D01*
X139888502Y-72782430D01*
X139888499Y-72782425D01*
X139722585Y-72603612D01*
X139722580Y-72603608D01*
X139722577Y-72603605D01*
X139531883Y-72451531D01*
X139531877Y-72451527D01*
X139531874Y-72451525D01*
X139320626Y-72329561D01*
X139093559Y-72240444D01*
X139093555Y-72240443D01*
X139093552Y-72240442D01*
X138855747Y-72186165D01*
X138612503Y-72167936D01*
X138612497Y-72167936D01*
X138369253Y-72186165D01*
X138369251Y-72186165D01*
X138131447Y-72240442D01*
X138131444Y-72240443D01*
X138131442Y-72240443D01*
X138131441Y-72240444D01*
X138087988Y-72257498D01*
X137904371Y-72329562D01*
X137693116Y-72451531D01*
X137502422Y-72603605D01*
X137502417Y-72603610D01*
X137502415Y-72603611D01*
X137502415Y-72603612D01*
X137354157Y-72763397D01*
X137336494Y-72782433D01*
X137199091Y-72983967D01*
X137093252Y-73203744D01*
X137093251Y-73203748D01*
X137021356Y-73436824D01*
X136985000Y-73678036D01*
X136985000Y-73791773D01*
X136982870Y-73807951D01*
X136979621Y-73820075D01*
X136963445Y-73848091D01*
X136960591Y-73850945D01*
X136952225Y-73855775D01*
X136950499Y-73858025D01*
X136947688Y-73858394D01*
X136932574Y-73867121D01*
X136920447Y-73870370D01*
X136904273Y-73872500D01*
X116045727Y-73872500D01*
X116029551Y-73870370D01*
X116017425Y-73867121D01*
X115989408Y-73850945D01*
X115986554Y-73848091D01*
X115981726Y-73839728D01*
X115979475Y-73838001D01*
X115979104Y-73835187D01*
X115970378Y-73820072D01*
X115967128Y-73807945D01*
X115965000Y-73791773D01*
X115965000Y-73678042D01*
X115965000Y-73678036D01*
X115928645Y-73436832D01*
X115922949Y-73418367D01*
X115856748Y-73203748D01*
X115856747Y-73203744D01*
X115856746Y-73203740D01*
X115750909Y-72983968D01*
X115737104Y-72963720D01*
X116482500Y-72963720D01*
X116482500Y-73076279D01*
X116482501Y-73076287D01*
X116511632Y-73185008D01*
X116511633Y-73185011D01*
X116567914Y-73282490D01*
X116567919Y-73282496D01*
X116647503Y-73362080D01*
X116647509Y-73362085D01*
X116744988Y-73418366D01*
X116744991Y-73418367D01*
X116853719Y-73447500D01*
X116853720Y-73447500D01*
X116966280Y-73447500D01*
X116966281Y-73447500D01*
X117075009Y-73418367D01*
X117172491Y-73362085D01*
X117252085Y-73282491D01*
X117308367Y-73185009D01*
X117337500Y-73076281D01*
X117337500Y-72963719D01*
X117308367Y-72854991D01*
X117308366Y-72854988D01*
X117252085Y-72757509D01*
X117252080Y-72757503D01*
X117172496Y-72677919D01*
X117172490Y-72677914D01*
X117075011Y-72621633D01*
X117075008Y-72621632D01*
X116966287Y-72592501D01*
X116966282Y-72592500D01*
X116966281Y-72592500D01*
X116853719Y-72592500D01*
X116853718Y-72592500D01*
X116853712Y-72592501D01*
X116744991Y-72621632D01*
X116744988Y-72621633D01*
X116647509Y-72677914D01*
X116647503Y-72677919D01*
X116567919Y-72757503D01*
X116567914Y-72757509D01*
X116511633Y-72854988D01*
X116511632Y-72854991D01*
X116482501Y-72963712D01*
X116482500Y-72963720D01*
X115737104Y-72963720D01*
X115618813Y-72790219D01*
X115613505Y-72782433D01*
X115613502Y-72782430D01*
X115613499Y-72782425D01*
X115447585Y-72603612D01*
X115447580Y-72603608D01*
X115447577Y-72603605D01*
X115256883Y-72451531D01*
X115256877Y-72451527D01*
X115256874Y-72451525D01*
X115045626Y-72329561D01*
X114818559Y-72240444D01*
X114818555Y-72240443D01*
X114818552Y-72240442D01*
X114580747Y-72186165D01*
X114337503Y-72167936D01*
X114337497Y-72167936D01*
X114094253Y-72186165D01*
X114094251Y-72186165D01*
X113856447Y-72240442D01*
X113856444Y-72240443D01*
X113856442Y-72240443D01*
X113856441Y-72240444D01*
X113812988Y-72257498D01*
X113629371Y-72329562D01*
X113418116Y-72451531D01*
X113227422Y-72603605D01*
X113227417Y-72603610D01*
X113227415Y-72603611D01*
X113227415Y-72603612D01*
X113079157Y-72763397D01*
X113061494Y-72782433D01*
X112924091Y-72983967D01*
X112818252Y-73203744D01*
X112818251Y-73203748D01*
X112746356Y-73436824D01*
X112710000Y-73678036D01*
X112710000Y-73791773D01*
X112707870Y-73807951D01*
X112704621Y-73820075D01*
X112688445Y-73848091D01*
X112685591Y-73850945D01*
X112677225Y-73855775D01*
X112675499Y-73858025D01*
X112672688Y-73858394D01*
X112657574Y-73867121D01*
X112645447Y-73870370D01*
X112629273Y-73872500D01*
X101003070Y-73872500D01*
X100996944Y-73872199D01*
X100835911Y-73856338D01*
X100823894Y-73853948D01*
X100671997Y-73807871D01*
X100660678Y-73803182D01*
X100520692Y-73728358D01*
X100510505Y-73721551D01*
X100457481Y-73678036D01*
X100387805Y-73620854D01*
X100379143Y-73612192D01*
X100347877Y-73574094D01*
X100278445Y-73489490D01*
X100271644Y-73479311D01*
X100196815Y-73339317D01*
X100192130Y-73328007D01*
X100146050Y-73176101D01*
X100143661Y-73164088D01*
X100140057Y-73127500D01*
X100127801Y-73003056D01*
X100127500Y-72996930D01*
X100127500Y-70648799D01*
X100872500Y-70648799D01*
X100872500Y-70851200D01*
X100911985Y-71049709D01*
X100911985Y-71049710D01*
X100989441Y-71236704D01*
X100989442Y-71236706D01*
X101080377Y-71372800D01*
X101101888Y-71404993D01*
X101245007Y-71548112D01*
X101413296Y-71660559D01*
X101600289Y-71738014D01*
X101798800Y-71777500D01*
X102601200Y-71777500D01*
X102620203Y-71773720D01*
X110792500Y-71773720D01*
X110792500Y-71886279D01*
X110792501Y-71886287D01*
X110821632Y-71995008D01*
X110821633Y-71995011D01*
X110877914Y-72092490D01*
X110877919Y-72092496D01*
X110957503Y-72172080D01*
X110957509Y-72172085D01*
X111054988Y-72228366D01*
X111054991Y-72228367D01*
X111163719Y-72257500D01*
X111163720Y-72257500D01*
X111276280Y-72257500D01*
X111276281Y-72257500D01*
X111385009Y-72228367D01*
X111482491Y-72172085D01*
X111562085Y-72092491D01*
X111618367Y-71995009D01*
X111647500Y-71886281D01*
X111647500Y-71773719D01*
X111628996Y-71704659D01*
X116254700Y-71704659D01*
X116254700Y-71827340D01*
X116278633Y-71947662D01*
X116325582Y-72061006D01*
X116325583Y-72061008D01*
X116393739Y-72163011D01*
X116393740Y-72163012D01*
X116480488Y-72249760D01*
X116582494Y-72317918D01*
X116695836Y-72364866D01*
X116816160Y-72388800D01*
X116938840Y-72388800D01*
X117059164Y-72364866D01*
X117172506Y-72317918D01*
X117274512Y-72249760D01*
X117361260Y-72163012D01*
X117429418Y-72061006D01*
X117476366Y-71947664D01*
X117500300Y-71827340D01*
X117500300Y-71773720D01*
X118902500Y-71773720D01*
X118902500Y-71886279D01*
X118902501Y-71886287D01*
X118931632Y-71995008D01*
X118931633Y-71995011D01*
X118987914Y-72092490D01*
X118987919Y-72092496D01*
X119067503Y-72172080D01*
X119067509Y-72172085D01*
X119164988Y-72228366D01*
X119164991Y-72228367D01*
X119273719Y-72257500D01*
X119273720Y-72257500D01*
X119386280Y-72257500D01*
X119386281Y-72257500D01*
X119495009Y-72228367D01*
X119592491Y-72172085D01*
X119672085Y-72092491D01*
X119728367Y-71995009D01*
X119757500Y-71886281D01*
X119757500Y-71773719D01*
X119757499Y-71773718D01*
X119757499Y-71773712D01*
X119754822Y-71763720D01*
X128982500Y-71763720D01*
X128982500Y-71876279D01*
X128982501Y-71876287D01*
X129011632Y-71985008D01*
X129011633Y-71985011D01*
X129067914Y-72082490D01*
X129067919Y-72082496D01*
X129147503Y-72162080D01*
X129147509Y-72162085D01*
X129244988Y-72218366D01*
X129244991Y-72218367D01*
X129353719Y-72247500D01*
X129353720Y-72247500D01*
X129466280Y-72247500D01*
X129466281Y-72247500D01*
X129575009Y-72218367D01*
X129672491Y-72162085D01*
X129752085Y-72082491D01*
X129802592Y-71995011D01*
X129808366Y-71985011D01*
X129808367Y-71985008D01*
X129818374Y-71947662D01*
X129837500Y-71876281D01*
X129837500Y-71763720D01*
X147322500Y-71763720D01*
X147322500Y-71876279D01*
X147322501Y-71876287D01*
X147351632Y-71985008D01*
X147351633Y-71985011D01*
X147407914Y-72082490D01*
X147407919Y-72082496D01*
X147487503Y-72162080D01*
X147487509Y-72162085D01*
X147584988Y-72218366D01*
X147584991Y-72218367D01*
X147693719Y-72247500D01*
X147693720Y-72247500D01*
X147806280Y-72247500D01*
X147806281Y-72247500D01*
X147915009Y-72218367D01*
X148012491Y-72162085D01*
X148092085Y-72082491D01*
X148142592Y-71995011D01*
X148148366Y-71985011D01*
X148148367Y-71985008D01*
X148158374Y-71947662D01*
X148177500Y-71876281D01*
X148177500Y-71763719D01*
X148148367Y-71654991D01*
X148148366Y-71654988D01*
X148092085Y-71557509D01*
X148092080Y-71557503D01*
X148012496Y-71477919D01*
X148012490Y-71477914D01*
X147915011Y-71421633D01*
X147915008Y-71421632D01*
X147806287Y-71392501D01*
X147806282Y-71392500D01*
X147806281Y-71392500D01*
X147693719Y-71392500D01*
X147693718Y-71392500D01*
X147693712Y-71392501D01*
X147584991Y-71421632D01*
X147584988Y-71421633D01*
X147487509Y-71477914D01*
X147487503Y-71477919D01*
X147407919Y-71557503D01*
X147407914Y-71557509D01*
X147351633Y-71654988D01*
X147351632Y-71654991D01*
X147322501Y-71763712D01*
X147322500Y-71763720D01*
X129837500Y-71763720D01*
X129837500Y-71763719D01*
X129808367Y-71654991D01*
X129808366Y-71654988D01*
X129752085Y-71557509D01*
X129752080Y-71557503D01*
X129672496Y-71477919D01*
X129672490Y-71477914D01*
X129575011Y-71421633D01*
X129575008Y-71421632D01*
X129466287Y-71392501D01*
X129466282Y-71392500D01*
X129466281Y-71392500D01*
X129353719Y-71392500D01*
X129353718Y-71392500D01*
X129353712Y-71392501D01*
X129244991Y-71421632D01*
X129244988Y-71421633D01*
X129147509Y-71477914D01*
X129147503Y-71477919D01*
X129067919Y-71557503D01*
X129067914Y-71557509D01*
X129011633Y-71654988D01*
X129011632Y-71654991D01*
X128982501Y-71763712D01*
X128982500Y-71763720D01*
X119754822Y-71763720D01*
X119728367Y-71664991D01*
X119728366Y-71664988D01*
X119672085Y-71567509D01*
X119672080Y-71567503D01*
X119592496Y-71487919D01*
X119592490Y-71487914D01*
X119495011Y-71431633D01*
X119495008Y-71431632D01*
X119386287Y-71402501D01*
X119386282Y-71402500D01*
X119386281Y-71402500D01*
X119273719Y-71402500D01*
X119273718Y-71402500D01*
X119273712Y-71402501D01*
X119164991Y-71431632D01*
X119164988Y-71431633D01*
X119067509Y-71487914D01*
X119067503Y-71487919D01*
X118987919Y-71567503D01*
X118987914Y-71567509D01*
X118931633Y-71664988D01*
X118931632Y-71664991D01*
X118902501Y-71773712D01*
X118902500Y-71773720D01*
X117500300Y-71773720D01*
X117500300Y-71704660D01*
X117476366Y-71584336D01*
X117429418Y-71470994D01*
X117361260Y-71368988D01*
X117274512Y-71282240D01*
X117274511Y-71282239D01*
X117172508Y-71214083D01*
X117172506Y-71214082D01*
X117059162Y-71167133D01*
X116938840Y-71143200D01*
X116816160Y-71143200D01*
X116695837Y-71167133D01*
X116582493Y-71214082D01*
X116582491Y-71214083D01*
X116480488Y-71282239D01*
X116393739Y-71368988D01*
X116325583Y-71470991D01*
X116325582Y-71470993D01*
X116278633Y-71584337D01*
X116254700Y-71704659D01*
X111628996Y-71704659D01*
X111618367Y-71664991D01*
X111618366Y-71664988D01*
X111562085Y-71567509D01*
X111562080Y-71567503D01*
X111482496Y-71487919D01*
X111482490Y-71487914D01*
X111385011Y-71431633D01*
X111385008Y-71431632D01*
X111276287Y-71402501D01*
X111276282Y-71402500D01*
X111276281Y-71402500D01*
X111163719Y-71402500D01*
X111163718Y-71402500D01*
X111163712Y-71402501D01*
X111054991Y-71431632D01*
X111054988Y-71431633D01*
X110957509Y-71487914D01*
X110957503Y-71487919D01*
X110877919Y-71567503D01*
X110877914Y-71567509D01*
X110821633Y-71664988D01*
X110821632Y-71664991D01*
X110792501Y-71773712D01*
X110792500Y-71773720D01*
X102620203Y-71773720D01*
X102799711Y-71738014D01*
X102986704Y-71660559D01*
X103154993Y-71548112D01*
X103298112Y-71404993D01*
X103410559Y-71236704D01*
X103488014Y-71049711D01*
X103527500Y-70851200D01*
X103527500Y-70648800D01*
X103488014Y-70450289D01*
X103410559Y-70263296D01*
X103298112Y-70095007D01*
X103154993Y-69951888D01*
X103154992Y-69951887D01*
X102986706Y-69839442D01*
X102986704Y-69839441D01*
X102799709Y-69761985D01*
X102601200Y-69722500D01*
X101798800Y-69722500D01*
X101600290Y-69761985D01*
X101600289Y-69761985D01*
X101413295Y-69839441D01*
X101413293Y-69839442D01*
X101245007Y-69951887D01*
X101101887Y-70095007D01*
X100989442Y-70263293D01*
X100989441Y-70263295D01*
X100911985Y-70450289D01*
X100911985Y-70450290D01*
X100872500Y-70648799D01*
X100127500Y-70648799D01*
X100127500Y-69593720D01*
X107842500Y-69593720D01*
X107842500Y-69706279D01*
X107842501Y-69706287D01*
X107871632Y-69815008D01*
X107871633Y-69815011D01*
X107927914Y-69912490D01*
X107927919Y-69912496D01*
X108007503Y-69992080D01*
X108007512Y-69992087D01*
X108087370Y-70038194D01*
X108116490Y-70076144D01*
X108110246Y-70123570D01*
X108087373Y-70146445D01*
X108067509Y-70157914D01*
X108067503Y-70157919D01*
X107987919Y-70237503D01*
X107987914Y-70237509D01*
X107931633Y-70334988D01*
X107931632Y-70334991D01*
X107902501Y-70443712D01*
X107902500Y-70443720D01*
X107902500Y-70556279D01*
X107902501Y-70556287D01*
X107931632Y-70665008D01*
X107931633Y-70665011D01*
X107987914Y-70762490D01*
X107987919Y-70762496D01*
X108067503Y-70842080D01*
X108067509Y-70842085D01*
X108164988Y-70898366D01*
X108164991Y-70898367D01*
X108273719Y-70927500D01*
X108273720Y-70927500D01*
X108386280Y-70927500D01*
X108386281Y-70927500D01*
X108495009Y-70898367D01*
X108592491Y-70842085D01*
X108672085Y-70762491D01*
X108714712Y-70688659D01*
X111174700Y-70688659D01*
X111174700Y-70811340D01*
X111198633Y-70931662D01*
X111245582Y-71045006D01*
X111245583Y-71045008D01*
X111311193Y-71143200D01*
X111313740Y-71147012D01*
X111400488Y-71233760D01*
X111502494Y-71301918D01*
X111615836Y-71348866D01*
X111736160Y-71372800D01*
X111858840Y-71372800D01*
X111979164Y-71348866D01*
X112092506Y-71301918D01*
X112194512Y-71233760D01*
X112281260Y-71147012D01*
X112349418Y-71045006D01*
X112396366Y-70931664D01*
X112420300Y-70811340D01*
X112420300Y-70688660D01*
X112419093Y-70682592D01*
X112415011Y-70662067D01*
X112413401Y-70653972D01*
X143222500Y-70653972D01*
X143222500Y-70806027D01*
X143222501Y-70806035D01*
X143261854Y-70952903D01*
X143261855Y-70952906D01*
X143261856Y-70952907D01*
X143315029Y-71045006D01*
X143337886Y-71084594D01*
X143337889Y-71084598D01*
X143445401Y-71192110D01*
X143445405Y-71192113D01*
X143445407Y-71192115D01*
X143522641Y-71236706D01*
X143577093Y-71268144D01*
X143577096Y-71268145D01*
X143666981Y-71292229D01*
X143723971Y-71307500D01*
X143723972Y-71307500D01*
X143876028Y-71307500D01*
X143876029Y-71307500D01*
X144022907Y-71268144D01*
X144154593Y-71192115D01*
X144262115Y-71084593D01*
X144338144Y-70952907D01*
X144377500Y-70806029D01*
X144377500Y-70653972D01*
X146222500Y-70653972D01*
X146222500Y-70806027D01*
X146222501Y-70806035D01*
X146261854Y-70952903D01*
X146261855Y-70952906D01*
X146261856Y-70952907D01*
X146315029Y-71045006D01*
X146337886Y-71084594D01*
X146337889Y-71084598D01*
X146445401Y-71192110D01*
X146445405Y-71192113D01*
X146445407Y-71192115D01*
X146522641Y-71236706D01*
X146577093Y-71268144D01*
X146577096Y-71268145D01*
X146666981Y-71292229D01*
X146723971Y-71307500D01*
X146723972Y-71307500D01*
X146876028Y-71307500D01*
X146876029Y-71307500D01*
X147022907Y-71268144D01*
X147154593Y-71192115D01*
X147262115Y-71084593D01*
X147338144Y-70952907D01*
X147377500Y-70806029D01*
X147377500Y-70653971D01*
X147338144Y-70507093D01*
X147262115Y-70375407D01*
X147262113Y-70375405D01*
X147262110Y-70375401D01*
X147154598Y-70267889D01*
X147154594Y-70267886D01*
X147154593Y-70267885D01*
X147067774Y-70217760D01*
X147022906Y-70191855D01*
X147022903Y-70191854D01*
X146876035Y-70152501D01*
X146876030Y-70152500D01*
X146876029Y-70152500D01*
X146723971Y-70152500D01*
X146723970Y-70152500D01*
X146723964Y-70152501D01*
X146577096Y-70191854D01*
X146577093Y-70191855D01*
X146445405Y-70267886D01*
X146445401Y-70267889D01*
X146337889Y-70375401D01*
X146337886Y-70375405D01*
X146261855Y-70507093D01*
X146261854Y-70507096D01*
X146222501Y-70653964D01*
X146222500Y-70653972D01*
X144377500Y-70653972D01*
X144377500Y-70653971D01*
X144338144Y-70507093D01*
X144262115Y-70375407D01*
X144262113Y-70375405D01*
X144262110Y-70375401D01*
X144154598Y-70267889D01*
X144154594Y-70267886D01*
X144154593Y-70267885D01*
X144067774Y-70217760D01*
X144022906Y-70191855D01*
X144022903Y-70191854D01*
X143876035Y-70152501D01*
X143876030Y-70152500D01*
X143876029Y-70152500D01*
X143723971Y-70152500D01*
X143723970Y-70152500D01*
X143723964Y-70152501D01*
X143577096Y-70191854D01*
X143577093Y-70191855D01*
X143445405Y-70267886D01*
X143445401Y-70267889D01*
X143337889Y-70375401D01*
X143337886Y-70375405D01*
X143261855Y-70507093D01*
X143261854Y-70507096D01*
X143222501Y-70653964D01*
X143222500Y-70653972D01*
X112413401Y-70653972D01*
X112396366Y-70568337D01*
X112391375Y-70556287D01*
X112349418Y-70454994D01*
X112281260Y-70352988D01*
X112194512Y-70266240D01*
X112190106Y-70263296D01*
X112092508Y-70198083D01*
X112092506Y-70198082D01*
X111979162Y-70151133D01*
X111858840Y-70127200D01*
X111736160Y-70127200D01*
X111615837Y-70151133D01*
X111502493Y-70198082D01*
X111502491Y-70198083D01*
X111400488Y-70266239D01*
X111313739Y-70352988D01*
X111245583Y-70454991D01*
X111245582Y-70454993D01*
X111198633Y-70568337D01*
X111174700Y-70688659D01*
X108714712Y-70688659D01*
X108728367Y-70665009D01*
X108757500Y-70556281D01*
X108757500Y-70443719D01*
X108728367Y-70334991D01*
X108728366Y-70334988D01*
X108672085Y-70237509D01*
X108672080Y-70237503D01*
X108592496Y-70157919D01*
X108592490Y-70157914D01*
X108512628Y-70111805D01*
X108483508Y-70073855D01*
X108489753Y-70026428D01*
X108512629Y-70003553D01*
X108525060Y-69996375D01*
X108532491Y-69992085D01*
X108612085Y-69912491D01*
X108668367Y-69815009D01*
X108697500Y-69706281D01*
X108697500Y-69593719D01*
X108668367Y-69484991D01*
X108668366Y-69484988D01*
X108612085Y-69387509D01*
X108612080Y-69387503D01*
X108532493Y-69307916D01*
X108532494Y-69307916D01*
X108455946Y-69263720D01*
X113202500Y-69263720D01*
X113202500Y-69376279D01*
X113202501Y-69376287D01*
X113231632Y-69485008D01*
X113231633Y-69485011D01*
X113287914Y-69582490D01*
X113287919Y-69582496D01*
X113367503Y-69662080D01*
X113367509Y-69662085D01*
X113464988Y-69718366D01*
X113464991Y-69718367D01*
X113573719Y-69747500D01*
X113573720Y-69747500D01*
X113686280Y-69747500D01*
X113686281Y-69747500D01*
X113795009Y-69718367D01*
X113874177Y-69672659D01*
X116254700Y-69672659D01*
X116254700Y-69795340D01*
X116278633Y-69915662D01*
X116325582Y-70029006D01*
X116325583Y-70029008D01*
X116380906Y-70111805D01*
X116393740Y-70131012D01*
X116480488Y-70217760D01*
X116582494Y-70285918D01*
X116695836Y-70332866D01*
X116816160Y-70356800D01*
X116938840Y-70356800D01*
X117059164Y-70332866D01*
X117172506Y-70285918D01*
X117274512Y-70217760D01*
X117361260Y-70131012D01*
X117429418Y-70029006D01*
X117476366Y-69915664D01*
X117500300Y-69795340D01*
X117500300Y-69672660D01*
X117476366Y-69552336D01*
X117429418Y-69438994D01*
X117361260Y-69336988D01*
X117274512Y-69250240D01*
X117232998Y-69222501D01*
X117172508Y-69182083D01*
X117172506Y-69182082D01*
X117059162Y-69135133D01*
X116938840Y-69111200D01*
X116816160Y-69111200D01*
X116695837Y-69135133D01*
X116582493Y-69182082D01*
X116582491Y-69182083D01*
X116480488Y-69250239D01*
X116393739Y-69336988D01*
X116325583Y-69438991D01*
X116325582Y-69438993D01*
X116278633Y-69552337D01*
X116254700Y-69672659D01*
X113874177Y-69672659D01*
X113892491Y-69662085D01*
X113908589Y-69645987D01*
X113929181Y-69625396D01*
X113972080Y-69582496D01*
X113972085Y-69582491D01*
X114028367Y-69485009D01*
X114057500Y-69376281D01*
X114057500Y-69263719D01*
X114028367Y-69154991D01*
X114028366Y-69154988D01*
X113972085Y-69057509D01*
X113972080Y-69057503D01*
X113892496Y-68977919D01*
X113892490Y-68977914D01*
X113795011Y-68921633D01*
X113795008Y-68921632D01*
X113686287Y-68892501D01*
X113686282Y-68892500D01*
X113686281Y-68892500D01*
X113573719Y-68892500D01*
X113573718Y-68892500D01*
X113573712Y-68892501D01*
X113464991Y-68921632D01*
X113464988Y-68921633D01*
X113367509Y-68977914D01*
X113367503Y-68977919D01*
X113287919Y-69057503D01*
X113287914Y-69057509D01*
X113231633Y-69154988D01*
X113231632Y-69154991D01*
X113202501Y-69263712D01*
X113202500Y-69263720D01*
X108455946Y-69263720D01*
X108435011Y-69251633D01*
X108435008Y-69251632D01*
X108326287Y-69222501D01*
X108326282Y-69222500D01*
X108326281Y-69222500D01*
X108213719Y-69222500D01*
X108213718Y-69222500D01*
X108213712Y-69222501D01*
X108104991Y-69251632D01*
X108104988Y-69251633D01*
X108007509Y-69307914D01*
X108007503Y-69307919D01*
X107927919Y-69387503D01*
X107927914Y-69387509D01*
X107871633Y-69484988D01*
X107871632Y-69484991D01*
X107842501Y-69593712D01*
X107842500Y-69593720D01*
X100127500Y-69593720D01*
X100127500Y-68173720D01*
X105392500Y-68173720D01*
X105392500Y-68286279D01*
X105392501Y-68286287D01*
X105421632Y-68395008D01*
X105421633Y-68395011D01*
X105477914Y-68492490D01*
X105477919Y-68492496D01*
X105557503Y-68572080D01*
X105557509Y-68572085D01*
X105654988Y-68628366D01*
X105654991Y-68628367D01*
X105763719Y-68657500D01*
X105763720Y-68657500D01*
X105876280Y-68657500D01*
X105876281Y-68657500D01*
X105985009Y-68628367D01*
X106082491Y-68572085D01*
X106162085Y-68492491D01*
X106218367Y-68395009D01*
X106221395Y-68383705D01*
X106224071Y-68373720D01*
X111702500Y-68373720D01*
X111702500Y-68486279D01*
X111702501Y-68486287D01*
X111731632Y-68595008D01*
X111731633Y-68595011D01*
X111787914Y-68692490D01*
X111787919Y-68692496D01*
X111867503Y-68772080D01*
X111867509Y-68772085D01*
X111964988Y-68828366D01*
X111964991Y-68828367D01*
X112073719Y-68857500D01*
X112073720Y-68857500D01*
X112186280Y-68857500D01*
X112186281Y-68857500D01*
X112295009Y-68828367D01*
X112308289Y-68820700D01*
X112315612Y-68816471D01*
X112392491Y-68772085D01*
X112472085Y-68692491D01*
X112479703Y-68679296D01*
X149892500Y-68679296D01*
X149892500Y-72570703D01*
X149923964Y-72708559D01*
X149985316Y-72835960D01*
X149985318Y-72835963D01*
X150073483Y-72946517D01*
X150184037Y-73034682D01*
X150311438Y-73096035D01*
X150449298Y-73127500D01*
X150449299Y-73127500D01*
X156590701Y-73127500D01*
X156590702Y-73127500D01*
X156728562Y-73096035D01*
X156855963Y-73034682D01*
X156966517Y-72946517D01*
X157054682Y-72835963D01*
X157116035Y-72708562D01*
X157147500Y-72570702D01*
X157147500Y-72500000D01*
X157147500Y-72470899D01*
X157147500Y-68724639D01*
X157147500Y-68679298D01*
X157116035Y-68541438D01*
X157054682Y-68414037D01*
X156966517Y-68303483D01*
X156855963Y-68215318D01*
X156855960Y-68215316D01*
X156785217Y-68181248D01*
X156728562Y-68153965D01*
X156728560Y-68153964D01*
X156728559Y-68153964D01*
X156590703Y-68122500D01*
X156590702Y-68122500D01*
X156545361Y-68122500D01*
X155299101Y-68122500D01*
X155270000Y-68122500D01*
X155199298Y-68122500D01*
X155199296Y-68122500D01*
X155061440Y-68153964D01*
X154934039Y-68215316D01*
X154934036Y-68215318D01*
X154823483Y-68303483D01*
X154735318Y-68414036D01*
X154735316Y-68414039D01*
X154673964Y-68541440D01*
X154642500Y-68679296D01*
X154642500Y-68820703D01*
X154668872Y-68936250D01*
X154673965Y-68958562D01*
X154683285Y-68977915D01*
X154735316Y-69085960D01*
X154735318Y-69085963D01*
X154823483Y-69196517D01*
X154934037Y-69284682D01*
X155061438Y-69346035D01*
X155199298Y-69377500D01*
X155244639Y-69377500D01*
X155490899Y-69377500D01*
X155515906Y-69377500D01*
X155524063Y-69378035D01*
X155531569Y-69379023D01*
X155608256Y-69389119D01*
X155624006Y-69393339D01*
X155690931Y-69421060D01*
X155698645Y-69424256D01*
X155712774Y-69432413D01*
X155776868Y-69481593D01*
X155788406Y-69493131D01*
X155837586Y-69557225D01*
X155845743Y-69571354D01*
X155876658Y-69645987D01*
X155880880Y-69661746D01*
X155889161Y-69724639D01*
X155891965Y-69745936D01*
X155892500Y-69754094D01*
X155892500Y-70734307D01*
X155874194Y-70778501D01*
X155830000Y-70796807D01*
X155798750Y-70788433D01*
X155735014Y-70751635D01*
X155735008Y-70751632D01*
X155626287Y-70722501D01*
X155626282Y-70722500D01*
X155626281Y-70722500D01*
X155513719Y-70722500D01*
X155513718Y-70722500D01*
X155513712Y-70722501D01*
X155404991Y-70751632D01*
X155404988Y-70751633D01*
X155307509Y-70807914D01*
X155307503Y-70807919D01*
X155227919Y-70887503D01*
X155227914Y-70887509D01*
X155171633Y-70984988D01*
X155171632Y-70984991D01*
X155142501Y-71093712D01*
X155142500Y-71093720D01*
X155142500Y-71206279D01*
X155142501Y-71206287D01*
X155171632Y-71315008D01*
X155171633Y-71315011D01*
X155227914Y-71412490D01*
X155227919Y-71412496D01*
X155307503Y-71492080D01*
X155307509Y-71492085D01*
X155404988Y-71548366D01*
X155404991Y-71548367D01*
X155513719Y-71577500D01*
X155513720Y-71577500D01*
X155626280Y-71577500D01*
X155626281Y-71577500D01*
X155735009Y-71548367D01*
X155788806Y-71517306D01*
X155808762Y-71514678D01*
X155828212Y-71509467D01*
X155831951Y-71511625D01*
X155836231Y-71511062D01*
X155852202Y-71523317D01*
X155869640Y-71533384D01*
X155870757Y-71537554D01*
X155874182Y-71540182D01*
X155882021Y-71579587D01*
X155880880Y-71588255D01*
X155876658Y-71604012D01*
X155845743Y-71678645D01*
X155837586Y-71692774D01*
X155788406Y-71756868D01*
X155776868Y-71768406D01*
X155712774Y-71817586D01*
X155698645Y-71825743D01*
X155624012Y-71856658D01*
X155608252Y-71860881D01*
X155524064Y-71871965D01*
X155515906Y-71872500D01*
X151524094Y-71872500D01*
X151515936Y-71871965D01*
X151431746Y-71860880D01*
X151415988Y-71856658D01*
X151366026Y-71835963D01*
X151341354Y-71825743D01*
X151327225Y-71817586D01*
X151263131Y-71768406D01*
X151251593Y-71756868D01*
X151202413Y-71692774D01*
X151194256Y-71678645D01*
X151186764Y-71660558D01*
X151163339Y-71604006D01*
X151159119Y-71588256D01*
X151149779Y-71517307D01*
X151148035Y-71504062D01*
X151147500Y-71495905D01*
X151147500Y-71093720D01*
X151682500Y-71093720D01*
X151682500Y-71206279D01*
X151682501Y-71206287D01*
X151711632Y-71315008D01*
X151711633Y-71315011D01*
X151767914Y-71412490D01*
X151767919Y-71412496D01*
X151847503Y-71492080D01*
X151847509Y-71492085D01*
X151944988Y-71548366D01*
X151944991Y-71548367D01*
X152053719Y-71577500D01*
X152053720Y-71577500D01*
X152166280Y-71577500D01*
X152166281Y-71577500D01*
X152275009Y-71548367D01*
X152372491Y-71492085D01*
X152452085Y-71412491D01*
X152508367Y-71315009D01*
X152537500Y-71206281D01*
X152537500Y-71093719D01*
X152508367Y-70984991D01*
X152508366Y-70984988D01*
X152452085Y-70887509D01*
X152452080Y-70887503D01*
X152372496Y-70807919D01*
X152372490Y-70807914D01*
X152275011Y-70751633D01*
X152275008Y-70751632D01*
X152166287Y-70722501D01*
X152166282Y-70722500D01*
X152166281Y-70722500D01*
X152053719Y-70722500D01*
X152053718Y-70722500D01*
X152053712Y-70722501D01*
X151944991Y-70751632D01*
X151944988Y-70751633D01*
X151847509Y-70807914D01*
X151847503Y-70807919D01*
X151767919Y-70887503D01*
X151767914Y-70887509D01*
X151711633Y-70984988D01*
X151711632Y-70984991D01*
X151682501Y-71093712D01*
X151682500Y-71093720D01*
X151147500Y-71093720D01*
X151147500Y-70293720D01*
X154432500Y-70293720D01*
X154432500Y-70406279D01*
X154432501Y-70406287D01*
X154461632Y-70515008D01*
X154461633Y-70515011D01*
X154517914Y-70612490D01*
X154517919Y-70612496D01*
X154597503Y-70692080D01*
X154597509Y-70692085D01*
X154694988Y-70748366D01*
X154694991Y-70748367D01*
X154803719Y-70777500D01*
X154803720Y-70777500D01*
X154916280Y-70777500D01*
X154916281Y-70777500D01*
X155025009Y-70748367D01*
X155122491Y-70692085D01*
X155202085Y-70612491D01*
X155258367Y-70515009D01*
X155287500Y-70406281D01*
X155287500Y-70293719D01*
X155258367Y-70184991D01*
X155258366Y-70184988D01*
X155202085Y-70087509D01*
X155202080Y-70087503D01*
X155122496Y-70007919D01*
X155122490Y-70007914D01*
X155025011Y-69951633D01*
X155025008Y-69951632D01*
X154916287Y-69922501D01*
X154916282Y-69922500D01*
X154916281Y-69922500D01*
X154803719Y-69922500D01*
X154803718Y-69922500D01*
X154803712Y-69922501D01*
X154694991Y-69951632D01*
X154694988Y-69951633D01*
X154597509Y-70007914D01*
X154597503Y-70007919D01*
X154517919Y-70087503D01*
X154517914Y-70087509D01*
X154461633Y-70184988D01*
X154461632Y-70184991D01*
X154432501Y-70293712D01*
X154432500Y-70293720D01*
X151147500Y-70293720D01*
X151147500Y-69754094D01*
X151148035Y-69745937D01*
X151150839Y-69724639D01*
X151159119Y-69661741D01*
X151163338Y-69645995D01*
X151194257Y-69571352D01*
X151202413Y-69557225D01*
X151214527Y-69541438D01*
X151251596Y-69493127D01*
X151263127Y-69481596D01*
X151327225Y-69432413D01*
X151341352Y-69424257D01*
X151415995Y-69393338D01*
X151431741Y-69389119D01*
X151509393Y-69378896D01*
X151515937Y-69378035D01*
X151524094Y-69377500D01*
X151840701Y-69377500D01*
X151840702Y-69377500D01*
X151978562Y-69346035D01*
X152105963Y-69284682D01*
X152216517Y-69196517D01*
X152304682Y-69085963D01*
X152366035Y-68958562D01*
X152397500Y-68820702D01*
X152397500Y-68750000D01*
X152397500Y-68720899D01*
X152397500Y-68679298D01*
X152366035Y-68541438D01*
X152304682Y-68414037D01*
X152216517Y-68303483D01*
X152105963Y-68215318D01*
X152105960Y-68215316D01*
X152035217Y-68181248D01*
X151978562Y-68153965D01*
X151978560Y-68153964D01*
X151978559Y-68153964D01*
X151840703Y-68122500D01*
X151840702Y-68122500D01*
X151795361Y-68122500D01*
X150549101Y-68122500D01*
X150520000Y-68122500D01*
X150449298Y-68122500D01*
X150449296Y-68122500D01*
X150311440Y-68153964D01*
X150184039Y-68215316D01*
X150184036Y-68215318D01*
X150073483Y-68303483D01*
X149985318Y-68414036D01*
X149985316Y-68414039D01*
X149923964Y-68541440D01*
X149892500Y-68679296D01*
X112479703Y-68679296D01*
X112492287Y-68657500D01*
X112499772Y-68644537D01*
X112499773Y-68644536D01*
X112528364Y-68595014D01*
X112528366Y-68595011D01*
X112528367Y-68595009D01*
X112557500Y-68486281D01*
X112557500Y-68373719D01*
X112528367Y-68264991D01*
X112528366Y-68264988D01*
X112472085Y-68167509D01*
X112472080Y-68167503D01*
X112392496Y-68087919D01*
X112392490Y-68087914D01*
X112295011Y-68031633D01*
X112295008Y-68031632D01*
X112186287Y-68002501D01*
X112186282Y-68002500D01*
X112186281Y-68002500D01*
X112073719Y-68002500D01*
X112073718Y-68002500D01*
X112073712Y-68002501D01*
X111964991Y-68031632D01*
X111964988Y-68031633D01*
X111867509Y-68087914D01*
X111867503Y-68087919D01*
X111787919Y-68167503D01*
X111787914Y-68167509D01*
X111731633Y-68264988D01*
X111731632Y-68264991D01*
X111702501Y-68373712D01*
X111702500Y-68373720D01*
X106224071Y-68373720D01*
X106229504Y-68353447D01*
X106247498Y-68286287D01*
X106247500Y-68286279D01*
X106247500Y-68173720D01*
X106247498Y-68173712D01*
X106218367Y-68064991D01*
X106218366Y-68064988D01*
X106162085Y-67967509D01*
X106162080Y-67967503D01*
X106082496Y-67887919D01*
X106082490Y-67887914D01*
X105985011Y-67831633D01*
X105985008Y-67831632D01*
X105876287Y-67802501D01*
X105876282Y-67802500D01*
X105876281Y-67802500D01*
X105763719Y-67802500D01*
X105763718Y-67802500D01*
X105763712Y-67802501D01*
X105654991Y-67831632D01*
X105654988Y-67831633D01*
X105557509Y-67887914D01*
X105557503Y-67887919D01*
X105477919Y-67967503D01*
X105477914Y-67967509D01*
X105421633Y-68064988D01*
X105421632Y-68064991D01*
X105392501Y-68173712D01*
X105392500Y-68173720D01*
X100127500Y-68173720D01*
X100127500Y-67373720D01*
X145442500Y-67373720D01*
X145442500Y-67486279D01*
X145442501Y-67486287D01*
X145471632Y-67595008D01*
X145471633Y-67595011D01*
X145527914Y-67692490D01*
X145527919Y-67692496D01*
X145607503Y-67772080D01*
X145607509Y-67772085D01*
X145704988Y-67828366D01*
X145704991Y-67828367D01*
X145813719Y-67857500D01*
X145813720Y-67857500D01*
X145926280Y-67857500D01*
X145926281Y-67857500D01*
X146035009Y-67828367D01*
X146132491Y-67772085D01*
X146212085Y-67692491D01*
X146268367Y-67595009D01*
X146297500Y-67486281D01*
X146297500Y-67373719D01*
X146268367Y-67264991D01*
X146268366Y-67264988D01*
X146212085Y-67167509D01*
X146212080Y-67167503D01*
X146132496Y-67087919D01*
X146132490Y-67087914D01*
X146035011Y-67031633D01*
X146035008Y-67031632D01*
X145926287Y-67002501D01*
X145926282Y-67002500D01*
X145926281Y-67002500D01*
X145813719Y-67002500D01*
X145813718Y-67002500D01*
X145813712Y-67002501D01*
X145704991Y-67031632D01*
X145704988Y-67031633D01*
X145607509Y-67087914D01*
X145607503Y-67087919D01*
X145527919Y-67167503D01*
X145527914Y-67167509D01*
X145471633Y-67264988D01*
X145471632Y-67264991D01*
X145442501Y-67373712D01*
X145442500Y-67373720D01*
X100127500Y-67373720D01*
X100127500Y-65803720D01*
X137622500Y-65803720D01*
X137622500Y-65916279D01*
X137622501Y-65916287D01*
X137651632Y-66025008D01*
X137651633Y-66025011D01*
X137707914Y-66122490D01*
X137707919Y-66122496D01*
X137787503Y-66202080D01*
X137787509Y-66202085D01*
X137884988Y-66258366D01*
X137884991Y-66258367D01*
X137993719Y-66287500D01*
X137993720Y-66287500D01*
X138106280Y-66287500D01*
X138106281Y-66287500D01*
X138215009Y-66258367D01*
X138312491Y-66202085D01*
X138392085Y-66122491D01*
X138448367Y-66025009D01*
X138477500Y-65916281D01*
X138477500Y-65803719D01*
X138448367Y-65694991D01*
X138448366Y-65694988D01*
X138392085Y-65597509D01*
X138392080Y-65597503D01*
X138312496Y-65517919D01*
X138312490Y-65517914D01*
X138215011Y-65461633D01*
X138215008Y-65461632D01*
X138106287Y-65432501D01*
X138106282Y-65432500D01*
X138106281Y-65432500D01*
X137993719Y-65432500D01*
X137993718Y-65432500D01*
X137993712Y-65432501D01*
X137884991Y-65461632D01*
X137884988Y-65461633D01*
X137787509Y-65517914D01*
X137787503Y-65517919D01*
X137707919Y-65597503D01*
X137707914Y-65597509D01*
X137651633Y-65694988D01*
X137651632Y-65694991D01*
X137622501Y-65803712D01*
X137622500Y-65803720D01*
X100127500Y-65803720D01*
X100127500Y-62203720D01*
X103582500Y-62203720D01*
X103582500Y-62316279D01*
X103582501Y-62316287D01*
X103611632Y-62425008D01*
X103611633Y-62425011D01*
X103667914Y-62522490D01*
X103667919Y-62522496D01*
X103747503Y-62602080D01*
X103747509Y-62602085D01*
X103844988Y-62658366D01*
X103844991Y-62658367D01*
X103953719Y-62687500D01*
X103953720Y-62687500D01*
X104066280Y-62687500D01*
X104066281Y-62687500D01*
X104175009Y-62658367D01*
X104272491Y-62602085D01*
X104352085Y-62522491D01*
X104408367Y-62425009D01*
X104437500Y-62316281D01*
X104437500Y-62203719D01*
X104408367Y-62094991D01*
X104408366Y-62094988D01*
X104352085Y-61997509D01*
X104352080Y-61997503D01*
X104272496Y-61917919D01*
X104272490Y-61917914D01*
X104175011Y-61861633D01*
X104175008Y-61861632D01*
X104066287Y-61832501D01*
X104066282Y-61832500D01*
X104066281Y-61832500D01*
X103953719Y-61832500D01*
X103953718Y-61832500D01*
X103953712Y-61832501D01*
X103844991Y-61861632D01*
X103844988Y-61861633D01*
X103747509Y-61917914D01*
X103747503Y-61917919D01*
X103667919Y-61997503D01*
X103667914Y-61997509D01*
X103611633Y-62094988D01*
X103611632Y-62094991D01*
X103582501Y-62203712D01*
X103582500Y-62203720D01*
X100127500Y-62203720D01*
X100127500Y-60643720D01*
X103122500Y-60643720D01*
X103122500Y-60756279D01*
X103122501Y-60756287D01*
X103151632Y-60865008D01*
X103151633Y-60865011D01*
X103207914Y-60962490D01*
X103207919Y-60962496D01*
X103287503Y-61042080D01*
X103287509Y-61042085D01*
X103384988Y-61098366D01*
X103384991Y-61098367D01*
X103493719Y-61127500D01*
X103493720Y-61127500D01*
X103606280Y-61127500D01*
X103606281Y-61127500D01*
X103715009Y-61098367D01*
X103812491Y-61042085D01*
X103892085Y-60962491D01*
X103948367Y-60865009D01*
X103975507Y-60763720D01*
X115602500Y-60763720D01*
X115602500Y-60876279D01*
X115602501Y-60876287D01*
X115631632Y-60985008D01*
X115631633Y-60985011D01*
X115687914Y-61082490D01*
X115687919Y-61082496D01*
X115767503Y-61162080D01*
X115767509Y-61162085D01*
X115864988Y-61218366D01*
X115864991Y-61218367D01*
X115973719Y-61247500D01*
X115973720Y-61247500D01*
X116086280Y-61247500D01*
X116086281Y-61247500D01*
X116195009Y-61218367D01*
X116292491Y-61162085D01*
X116372085Y-61082491D01*
X116428367Y-60985009D01*
X116457500Y-60876281D01*
X116457500Y-60763719D01*
X116455509Y-60756287D01*
X116455378Y-60755797D01*
X116455378Y-60755795D01*
X116452142Y-60743720D01*
X141532500Y-60743720D01*
X141532500Y-60856279D01*
X141532501Y-60856287D01*
X141561632Y-60965008D01*
X141561633Y-60965011D01*
X141617914Y-61062490D01*
X141617919Y-61062496D01*
X141697503Y-61142080D01*
X141697509Y-61142085D01*
X141794988Y-61198366D01*
X141794991Y-61198367D01*
X141903719Y-61227500D01*
X141903720Y-61227500D01*
X142016280Y-61227500D01*
X142016281Y-61227500D01*
X142125009Y-61198367D01*
X142222491Y-61142085D01*
X142302085Y-61062491D01*
X142358367Y-60965009D01*
X142387500Y-60856281D01*
X142387500Y-60743719D01*
X142358367Y-60634991D01*
X142358366Y-60634988D01*
X142302085Y-60537509D01*
X142302080Y-60537503D01*
X142222496Y-60457919D01*
X142222490Y-60457914D01*
X142163315Y-60423749D01*
X142125011Y-60401633D01*
X142125008Y-60401632D01*
X142020836Y-60373720D01*
X142972500Y-60373720D01*
X142972500Y-60486279D01*
X142972501Y-60486287D01*
X143001632Y-60595008D01*
X143001633Y-60595011D01*
X143057914Y-60692490D01*
X143057919Y-60692496D01*
X143137503Y-60772080D01*
X143137509Y-60772085D01*
X143234988Y-60828366D01*
X143234991Y-60828367D01*
X143343719Y-60857500D01*
X143343720Y-60857500D01*
X143456280Y-60857500D01*
X143456281Y-60857500D01*
X143565009Y-60828367D01*
X143662491Y-60772085D01*
X143742085Y-60692491D01*
X143798367Y-60595009D01*
X143827500Y-60486281D01*
X143827500Y-60373719D01*
X143798367Y-60264991D01*
X143798364Y-60264985D01*
X143790219Y-60250877D01*
X143790217Y-60250874D01*
X143774539Y-60223720D01*
X144272500Y-60223720D01*
X144272500Y-60336279D01*
X144272501Y-60336287D01*
X144301632Y-60445008D01*
X144301633Y-60445011D01*
X144357914Y-60542490D01*
X144357919Y-60542496D01*
X144437503Y-60622080D01*
X144437509Y-60622085D01*
X144534988Y-60678366D01*
X144534991Y-60678367D01*
X144643719Y-60707500D01*
X144643720Y-60707500D01*
X144756280Y-60707500D01*
X144756281Y-60707500D01*
X144865009Y-60678367D01*
X144962491Y-60622085D01*
X145042085Y-60542491D01*
X145098367Y-60445009D01*
X145127500Y-60336281D01*
X145127500Y-60223719D01*
X145098367Y-60114991D01*
X145098366Y-60114988D01*
X145042085Y-60017509D01*
X145042080Y-60017503D01*
X144962496Y-59937919D01*
X144962490Y-59937914D01*
X144865011Y-59881633D01*
X144865008Y-59881632D01*
X144756287Y-59852501D01*
X144756282Y-59852500D01*
X144756281Y-59852500D01*
X144643719Y-59852500D01*
X144643718Y-59852500D01*
X144643712Y-59852501D01*
X144534991Y-59881632D01*
X144534988Y-59881633D01*
X144437509Y-59937914D01*
X144437503Y-59937919D01*
X144357919Y-60017503D01*
X144357914Y-60017509D01*
X144301633Y-60114988D01*
X144301632Y-60114991D01*
X144272501Y-60223712D01*
X144272500Y-60223720D01*
X143774539Y-60223720D01*
X143742085Y-60167509D01*
X143742080Y-60167503D01*
X143662496Y-60087919D01*
X143662490Y-60087914D01*
X143565011Y-60031633D01*
X143565008Y-60031632D01*
X143456287Y-60002501D01*
X143456282Y-60002500D01*
X143456281Y-60002500D01*
X143343719Y-60002500D01*
X143343718Y-60002500D01*
X143343712Y-60002501D01*
X143234991Y-60031632D01*
X143234988Y-60031633D01*
X143137509Y-60087914D01*
X143137503Y-60087919D01*
X143057919Y-60167503D01*
X143057914Y-60167509D01*
X143001633Y-60264988D01*
X143001632Y-60264991D01*
X142972501Y-60373712D01*
X142972500Y-60373720D01*
X142020836Y-60373720D01*
X142016287Y-60372501D01*
X142016282Y-60372500D01*
X142016281Y-60372500D01*
X141903719Y-60372500D01*
X141903718Y-60372500D01*
X141903712Y-60372501D01*
X141794991Y-60401632D01*
X141794988Y-60401633D01*
X141697509Y-60457914D01*
X141697503Y-60457919D01*
X141617919Y-60537503D01*
X141617914Y-60537509D01*
X141561633Y-60634988D01*
X141561632Y-60634991D01*
X141532501Y-60743712D01*
X141532500Y-60743720D01*
X116452142Y-60743720D01*
X116428367Y-60654991D01*
X116428366Y-60654988D01*
X116372085Y-60557509D01*
X116372080Y-60557503D01*
X116292496Y-60477919D01*
X116292490Y-60477914D01*
X116195011Y-60421633D01*
X116195008Y-60421632D01*
X116086287Y-60392501D01*
X116086282Y-60392500D01*
X116086281Y-60392500D01*
X115973719Y-60392500D01*
X115973718Y-60392500D01*
X115973712Y-60392501D01*
X115864991Y-60421632D01*
X115864988Y-60421633D01*
X115767509Y-60477914D01*
X115767503Y-60477919D01*
X115687919Y-60557503D01*
X115687914Y-60557509D01*
X115631633Y-60654988D01*
X115631632Y-60654991D01*
X115602501Y-60763712D01*
X115602500Y-60763720D01*
X103975507Y-60763720D01*
X103977500Y-60756281D01*
X103977500Y-60643719D01*
X103948367Y-60534991D01*
X103948366Y-60534988D01*
X103892085Y-60437509D01*
X103892080Y-60437503D01*
X103812496Y-60357919D01*
X103812490Y-60357914D01*
X103715011Y-60301633D01*
X103715008Y-60301632D01*
X103606287Y-60272501D01*
X103606282Y-60272500D01*
X103606281Y-60272500D01*
X103493719Y-60272500D01*
X103493718Y-60272500D01*
X103493712Y-60272501D01*
X103384991Y-60301632D01*
X103384988Y-60301633D01*
X103287509Y-60357914D01*
X103287503Y-60357919D01*
X103207919Y-60437503D01*
X103207914Y-60437509D01*
X103151633Y-60534988D01*
X103151632Y-60534991D01*
X103122501Y-60643712D01*
X103122500Y-60643720D01*
X100127500Y-60643720D01*
X100127500Y-59563720D01*
X103332500Y-59563720D01*
X103332500Y-59676279D01*
X103332501Y-59676287D01*
X103361632Y-59785008D01*
X103361633Y-59785011D01*
X103417914Y-59882490D01*
X103417919Y-59882496D01*
X103497503Y-59962080D01*
X103497509Y-59962085D01*
X103594988Y-60018366D01*
X103594991Y-60018367D01*
X103703719Y-60047500D01*
X103703720Y-60047500D01*
X103816280Y-60047500D01*
X103816281Y-60047500D01*
X103830388Y-60043720D01*
X106672500Y-60043720D01*
X106672500Y-60156279D01*
X106672501Y-60156287D01*
X106701632Y-60265008D01*
X106701633Y-60265011D01*
X106757914Y-60362490D01*
X106757919Y-60362496D01*
X106837503Y-60442080D01*
X106837509Y-60442085D01*
X106934988Y-60498366D01*
X106934991Y-60498367D01*
X107043719Y-60527500D01*
X107043720Y-60527500D01*
X107156280Y-60527500D01*
X107156281Y-60527500D01*
X107265009Y-60498367D01*
X107362491Y-60442085D01*
X107442085Y-60362491D01*
X107486471Y-60285612D01*
X107498366Y-60265011D01*
X107498367Y-60265008D01*
X107498372Y-60264991D01*
X107527500Y-60156281D01*
X107527500Y-60043719D01*
X107498367Y-59934991D01*
X107498366Y-59934988D01*
X107442085Y-59837509D01*
X107442080Y-59837503D01*
X107362496Y-59757919D01*
X107362490Y-59757914D01*
X107265011Y-59701633D01*
X107265008Y-59701632D01*
X107156287Y-59672501D01*
X107156282Y-59672500D01*
X107156281Y-59672500D01*
X107043719Y-59672500D01*
X107043718Y-59672500D01*
X107043712Y-59672501D01*
X106934991Y-59701632D01*
X106934988Y-59701633D01*
X106837509Y-59757914D01*
X106837503Y-59757919D01*
X106757919Y-59837503D01*
X106757914Y-59837509D01*
X106701633Y-59934988D01*
X106701632Y-59934991D01*
X106672501Y-60043712D01*
X106672500Y-60043720D01*
X103830388Y-60043720D01*
X103925009Y-60018367D01*
X103926506Y-60017503D01*
X103981941Y-59985497D01*
X103989778Y-59980972D01*
X104022491Y-59962085D01*
X104102085Y-59882491D01*
X104158367Y-59785009D01*
X104187500Y-59676281D01*
X104187500Y-59563719D01*
X104158367Y-59454991D01*
X104158366Y-59454988D01*
X104102085Y-59357509D01*
X104102080Y-59357503D01*
X104022496Y-59277919D01*
X104022490Y-59277914D01*
X103925011Y-59221633D01*
X103925008Y-59221632D01*
X103816287Y-59192501D01*
X103816282Y-59192500D01*
X103816281Y-59192500D01*
X103703719Y-59192500D01*
X103703718Y-59192500D01*
X103703712Y-59192501D01*
X103594991Y-59221632D01*
X103594988Y-59221633D01*
X103497509Y-59277914D01*
X103497503Y-59277919D01*
X103417919Y-59357503D01*
X103417914Y-59357509D01*
X103361633Y-59454988D01*
X103361632Y-59454991D01*
X103332501Y-59563712D01*
X103332500Y-59563720D01*
X100127500Y-59563720D01*
X100127500Y-58023724D01*
X100622500Y-58023724D01*
X100622500Y-58216275D01*
X100660064Y-58405126D01*
X100660066Y-58405134D01*
X100733750Y-58583020D01*
X100733751Y-58583022D01*
X100781853Y-58655011D01*
X100840726Y-58743120D01*
X100976880Y-58879274D01*
X101136980Y-58986250D01*
X101216299Y-59019105D01*
X101314865Y-59059933D01*
X101314869Y-59059934D01*
X101314874Y-59059936D01*
X101503725Y-59097500D01*
X101696275Y-59097500D01*
X101885126Y-59059936D01*
X101885132Y-59059933D01*
X101885134Y-59059933D01*
X101927611Y-59042337D01*
X102063020Y-58986250D01*
X102096738Y-58963720D01*
X106492500Y-58963720D01*
X106492500Y-59076279D01*
X106492501Y-59076287D01*
X106521632Y-59185008D01*
X106521633Y-59185011D01*
X106577914Y-59282490D01*
X106577919Y-59282496D01*
X106657503Y-59362080D01*
X106657509Y-59362085D01*
X106754988Y-59418366D01*
X106754991Y-59418367D01*
X106863719Y-59447500D01*
X106863720Y-59447500D01*
X106976280Y-59447500D01*
X106976281Y-59447500D01*
X107085009Y-59418367D01*
X107182491Y-59362085D01*
X107260856Y-59283720D01*
X109242500Y-59283720D01*
X109242500Y-59396279D01*
X109242501Y-59396287D01*
X109271632Y-59505008D01*
X109271633Y-59505011D01*
X109327914Y-59602490D01*
X109327919Y-59602496D01*
X109407503Y-59682080D01*
X109407509Y-59682085D01*
X109504988Y-59738366D01*
X109504991Y-59738367D01*
X109613719Y-59767500D01*
X109613720Y-59767500D01*
X109726280Y-59767500D01*
X109726281Y-59767500D01*
X109835009Y-59738367D01*
X109848749Y-59730433D01*
X109896174Y-59724189D01*
X109934126Y-59753308D01*
X109941876Y-59782233D01*
X109941966Y-59782222D01*
X109942055Y-59782900D01*
X109942500Y-59784560D01*
X109942500Y-59786279D01*
X109942501Y-59786287D01*
X109971632Y-59895008D01*
X109971633Y-59895011D01*
X110027914Y-59992490D01*
X110027919Y-59992496D01*
X110107503Y-60072080D01*
X110107509Y-60072085D01*
X110204988Y-60128366D01*
X110204991Y-60128367D01*
X110313719Y-60157500D01*
X110313720Y-60157500D01*
X110426280Y-60157500D01*
X110426281Y-60157500D01*
X110535009Y-60128367D01*
X110632491Y-60072085D01*
X110712085Y-59992491D01*
X110712088Y-59992484D01*
X110714576Y-59989244D01*
X110716341Y-59990598D01*
X110748603Y-59965832D01*
X110796030Y-59972066D01*
X110818918Y-59994948D01*
X110857914Y-60062490D01*
X110857919Y-60062496D01*
X110937503Y-60142080D01*
X110937509Y-60142085D01*
X111034988Y-60198366D01*
X111034991Y-60198367D01*
X111143719Y-60227500D01*
X111143720Y-60227500D01*
X111256280Y-60227500D01*
X111256281Y-60227500D01*
X111365009Y-60198367D01*
X111462491Y-60142085D01*
X111542085Y-60062491D01*
X111598367Y-59965009D01*
X111627500Y-59856281D01*
X111627500Y-59777811D01*
X111645806Y-59733617D01*
X111690000Y-59715311D01*
X111706176Y-59717441D01*
X111731362Y-59724189D01*
X111743719Y-59727500D01*
X111743720Y-59727500D01*
X111856280Y-59727500D01*
X111856281Y-59727500D01*
X111965009Y-59698367D01*
X112062491Y-59642085D01*
X112142085Y-59562491D01*
X112198367Y-59465009D01*
X112227500Y-59356281D01*
X112227500Y-59243719D01*
X112198367Y-59134991D01*
X112198366Y-59134988D01*
X112142085Y-59037509D01*
X112142080Y-59037503D01*
X112062496Y-58957919D01*
X112062490Y-58957914D01*
X111965011Y-58901633D01*
X111965008Y-58901632D01*
X111856287Y-58872501D01*
X111856282Y-58872500D01*
X111856281Y-58872500D01*
X111743719Y-58872500D01*
X111743718Y-58872500D01*
X111743712Y-58872501D01*
X111634991Y-58901632D01*
X111634988Y-58901633D01*
X111537509Y-58957914D01*
X111537503Y-58957919D01*
X111457919Y-59037503D01*
X111457914Y-59037509D01*
X111401633Y-59134988D01*
X111401632Y-59134991D01*
X111372501Y-59243712D01*
X111372500Y-59243720D01*
X111372500Y-59322188D01*
X111354194Y-59366382D01*
X111310000Y-59384688D01*
X111293825Y-59382559D01*
X111256282Y-59372500D01*
X111256281Y-59372500D01*
X111143719Y-59372500D01*
X111143718Y-59372500D01*
X111143712Y-59372501D01*
X111034991Y-59401632D01*
X111034988Y-59401633D01*
X110937509Y-59457914D01*
X110937503Y-59457919D01*
X110857919Y-59537503D01*
X110855424Y-59540756D01*
X110853672Y-59539412D01*
X110821331Y-59564184D01*
X110773910Y-59557899D01*
X110751081Y-59535050D01*
X110712087Y-59467512D01*
X110712080Y-59467503D01*
X110632496Y-59387919D01*
X110632490Y-59387914D01*
X110535011Y-59331633D01*
X110535008Y-59331632D01*
X110426287Y-59302501D01*
X110426282Y-59302500D01*
X110426281Y-59302500D01*
X110313719Y-59302500D01*
X110313718Y-59302500D01*
X110313712Y-59302501D01*
X110204991Y-59331632D01*
X110204987Y-59331634D01*
X110191249Y-59339566D01*
X110143823Y-59345809D01*
X110105873Y-59316688D01*
X110098123Y-59287766D01*
X110098034Y-59287778D01*
X110097944Y-59287097D01*
X110097500Y-59285439D01*
X110097500Y-59283720D01*
X110097498Y-59283712D01*
X110095944Y-59277914D01*
X110068367Y-59174991D01*
X110068366Y-59174988D01*
X110012085Y-59077509D01*
X110012080Y-59077503D01*
X109932496Y-58997919D01*
X109932490Y-58997914D01*
X109835011Y-58941633D01*
X109835008Y-58941632D01*
X109726287Y-58912501D01*
X109726282Y-58912500D01*
X109726281Y-58912500D01*
X109613719Y-58912500D01*
X109613718Y-58912500D01*
X109613712Y-58912501D01*
X109504991Y-58941632D01*
X109504988Y-58941633D01*
X109407509Y-58997914D01*
X109407503Y-58997919D01*
X109327919Y-59077503D01*
X109327914Y-59077509D01*
X109271633Y-59174988D01*
X109271632Y-59174991D01*
X109242501Y-59283712D01*
X109242500Y-59283720D01*
X107260856Y-59283720D01*
X107262085Y-59282491D01*
X107297222Y-59221633D01*
X107318366Y-59185011D01*
X107318367Y-59185008D01*
X107331769Y-59134991D01*
X107347500Y-59076281D01*
X107347500Y-58963719D01*
X107318367Y-58854991D01*
X107318366Y-58854988D01*
X107262085Y-58757509D01*
X107262080Y-58757503D01*
X107182496Y-58677919D01*
X107182490Y-58677914D01*
X107085011Y-58621633D01*
X107085008Y-58621632D01*
X106976287Y-58592501D01*
X106976282Y-58592500D01*
X106976281Y-58592500D01*
X106863719Y-58592500D01*
X106863718Y-58592500D01*
X106863712Y-58592501D01*
X106754991Y-58621632D01*
X106754988Y-58621633D01*
X106657509Y-58677914D01*
X106657503Y-58677919D01*
X106577919Y-58757503D01*
X106577914Y-58757509D01*
X106521633Y-58854988D01*
X106521632Y-58854991D01*
X106492501Y-58963712D01*
X106492500Y-58963720D01*
X102096738Y-58963720D01*
X102223120Y-58879274D01*
X102359274Y-58743120D01*
X102466250Y-58583020D01*
X102528092Y-58433720D01*
X144942500Y-58433720D01*
X144942500Y-58546279D01*
X144942501Y-58546287D01*
X144971632Y-58655008D01*
X144971633Y-58655011D01*
X145027914Y-58752490D01*
X145027919Y-58752496D01*
X145107503Y-58832080D01*
X145107509Y-58832085D01*
X145204988Y-58888366D01*
X145204991Y-58888367D01*
X145313719Y-58917500D01*
X145313720Y-58917500D01*
X145426280Y-58917500D01*
X145426281Y-58917500D01*
X145535009Y-58888367D01*
X145632491Y-58832085D01*
X145712085Y-58752491D01*
X145768367Y-58655009D01*
X145797500Y-58546281D01*
X145797500Y-58433719D01*
X145768367Y-58324991D01*
X145768366Y-58324988D01*
X145712085Y-58227509D01*
X145712080Y-58227503D01*
X145632496Y-58147919D01*
X145632490Y-58147914D01*
X145535011Y-58091633D01*
X145535008Y-58091632D01*
X145426287Y-58062501D01*
X145426282Y-58062500D01*
X145426281Y-58062500D01*
X145313719Y-58062500D01*
X145313718Y-58062500D01*
X145313712Y-58062501D01*
X145204991Y-58091632D01*
X145204988Y-58091633D01*
X145107509Y-58147914D01*
X145107503Y-58147919D01*
X145027919Y-58227503D01*
X145027914Y-58227509D01*
X144971633Y-58324988D01*
X144971632Y-58324991D01*
X144942501Y-58433712D01*
X144942500Y-58433720D01*
X102528092Y-58433720D01*
X102539933Y-58405134D01*
X102539933Y-58405132D01*
X102539936Y-58405126D01*
X102577500Y-58216275D01*
X102577500Y-58023725D01*
X102555619Y-57913720D01*
X142172500Y-57913720D01*
X142172500Y-58026279D01*
X142172501Y-58026287D01*
X142201632Y-58135008D01*
X142201633Y-58135011D01*
X142257914Y-58232490D01*
X142257919Y-58232496D01*
X142337503Y-58312080D01*
X142337509Y-58312085D01*
X142434988Y-58368366D01*
X142434991Y-58368367D01*
X142543719Y-58397500D01*
X142543720Y-58397500D01*
X142656280Y-58397500D01*
X142656281Y-58397500D01*
X142765009Y-58368367D01*
X142862491Y-58312085D01*
X142942085Y-58232491D01*
X142998367Y-58135009D01*
X143027500Y-58026281D01*
X143027500Y-57913719D01*
X142998367Y-57804991D01*
X142998366Y-57804988D01*
X142942085Y-57707509D01*
X142942080Y-57707503D01*
X142862496Y-57627919D01*
X142862490Y-57627914D01*
X142765011Y-57571633D01*
X142765008Y-57571632D01*
X142656287Y-57542501D01*
X142656282Y-57542500D01*
X142656281Y-57542500D01*
X142543719Y-57542500D01*
X142543718Y-57542500D01*
X142543712Y-57542501D01*
X142434991Y-57571632D01*
X142434988Y-57571633D01*
X142337509Y-57627914D01*
X142337503Y-57627919D01*
X142257919Y-57707503D01*
X142257914Y-57707509D01*
X142201633Y-57804988D01*
X142201632Y-57804991D01*
X142172501Y-57913712D01*
X142172500Y-57913720D01*
X102555619Y-57913720D01*
X102539936Y-57834874D01*
X102539934Y-57834869D01*
X102539933Y-57834865D01*
X102473610Y-57674749D01*
X102466250Y-57656980D01*
X102359274Y-57496880D01*
X102223120Y-57360726D01*
X102096737Y-57276279D01*
X102063022Y-57253751D01*
X102063020Y-57253750D01*
X101975179Y-57217365D01*
X101885133Y-57180066D01*
X101885126Y-57180064D01*
X101802957Y-57163720D01*
X106502500Y-57163720D01*
X106502500Y-57276279D01*
X106502501Y-57276287D01*
X106531632Y-57385008D01*
X106531633Y-57385011D01*
X106587914Y-57482490D01*
X106587919Y-57482496D01*
X106667503Y-57562080D01*
X106667509Y-57562085D01*
X106764988Y-57618366D01*
X106764991Y-57618367D01*
X106873719Y-57647500D01*
X106873720Y-57647500D01*
X106986280Y-57647500D01*
X106986281Y-57647500D01*
X107095009Y-57618367D01*
X107192491Y-57562085D01*
X107272085Y-57482491D01*
X107328367Y-57385009D01*
X107357500Y-57276281D01*
X107357500Y-57163719D01*
X107328367Y-57054991D01*
X107328366Y-57054988D01*
X107272085Y-56957509D01*
X107272080Y-56957503D01*
X107192496Y-56877919D01*
X107192490Y-56877914D01*
X107095011Y-56821633D01*
X107095008Y-56821632D01*
X106986287Y-56792501D01*
X106986282Y-56792500D01*
X106986281Y-56792500D01*
X106873719Y-56792500D01*
X106873718Y-56792500D01*
X106873712Y-56792501D01*
X106764991Y-56821632D01*
X106764988Y-56821633D01*
X106667509Y-56877914D01*
X106667503Y-56877919D01*
X106587919Y-56957503D01*
X106587914Y-56957509D01*
X106531633Y-57054988D01*
X106531632Y-57054991D01*
X106502501Y-57163712D01*
X106502500Y-57163720D01*
X101802957Y-57163720D01*
X101696275Y-57142500D01*
X101503725Y-57142500D01*
X101314873Y-57180064D01*
X101314865Y-57180066D01*
X101136979Y-57253750D01*
X101136977Y-57253751D01*
X100976880Y-57360725D01*
X100840725Y-57496880D01*
X100733751Y-57656977D01*
X100733750Y-57656979D01*
X100660066Y-57834865D01*
X100660064Y-57834873D01*
X100622500Y-58023724D01*
X100127500Y-58023724D01*
X100127500Y-55483724D01*
X100622500Y-55483724D01*
X100622500Y-55676275D01*
X100660064Y-55865126D01*
X100660066Y-55865134D01*
X100733750Y-56043020D01*
X100733751Y-56043022D01*
X100840725Y-56203119D01*
X100840726Y-56203120D01*
X100976880Y-56339274D01*
X101136980Y-56446250D01*
X101216299Y-56479105D01*
X101314865Y-56519933D01*
X101314869Y-56519934D01*
X101314874Y-56519936D01*
X101503725Y-56557500D01*
X101696275Y-56557500D01*
X101885126Y-56519936D01*
X101885132Y-56519933D01*
X101885134Y-56519933D01*
X101927611Y-56502337D01*
X102063020Y-56446250D01*
X102223120Y-56339274D01*
X102359274Y-56203120D01*
X102466250Y-56043020D01*
X102523425Y-55904988D01*
X102539933Y-55865134D01*
X102539933Y-55865132D01*
X102539936Y-55865126D01*
X102577500Y-55676275D01*
X102577500Y-55593720D01*
X111832500Y-55593720D01*
X111832500Y-55706279D01*
X111832501Y-55706287D01*
X111861632Y-55815008D01*
X111861633Y-55815011D01*
X111917914Y-55912490D01*
X111917919Y-55912496D01*
X111997503Y-55992080D01*
X111997509Y-55992085D01*
X112094988Y-56048366D01*
X112094991Y-56048367D01*
X112203719Y-56077500D01*
X112203720Y-56077500D01*
X112316280Y-56077500D01*
X112316281Y-56077500D01*
X112425009Y-56048367D01*
X112522491Y-55992085D01*
X112602085Y-55912491D01*
X112652592Y-55825011D01*
X112658366Y-55815011D01*
X112659933Y-55811228D01*
X112661056Y-55811693D01*
X112687405Y-55777348D01*
X112734830Y-55771100D01*
X112772784Y-55800217D01*
X112779030Y-55815295D01*
X112781633Y-55825009D01*
X112781633Y-55825011D01*
X112837914Y-55922490D01*
X112837919Y-55922496D01*
X112917503Y-56002080D01*
X112917509Y-56002085D01*
X113014988Y-56058366D01*
X113014991Y-56058367D01*
X113123719Y-56087500D01*
X113123720Y-56087500D01*
X113236280Y-56087500D01*
X113236281Y-56087500D01*
X113345009Y-56058367D01*
X113442491Y-56002085D01*
X113522085Y-55922491D01*
X113527887Y-55912442D01*
X117322500Y-55912442D01*
X117322500Y-57637557D01*
X117329898Y-57674748D01*
X117329898Y-57674749D01*
X117358077Y-57716922D01*
X117386257Y-57735750D01*
X117400252Y-57745102D01*
X117437442Y-57752500D01*
X117437443Y-57752500D01*
X119162557Y-57752500D01*
X119162558Y-57752500D01*
X119199748Y-57745102D01*
X119241922Y-57716922D01*
X119270102Y-57674748D01*
X119277500Y-57637558D01*
X119277500Y-56013720D01*
X142352500Y-56013720D01*
X142352500Y-56126279D01*
X142352501Y-56126287D01*
X142381632Y-56235008D01*
X142381633Y-56235011D01*
X142437914Y-56332490D01*
X142437919Y-56332496D01*
X142517503Y-56412080D01*
X142517509Y-56412085D01*
X142538154Y-56424004D01*
X142567274Y-56461952D01*
X142561031Y-56509379D01*
X142551099Y-56522323D01*
X142527919Y-56545503D01*
X142527914Y-56545509D01*
X142471633Y-56642988D01*
X142471632Y-56642991D01*
X142442501Y-56751712D01*
X142442500Y-56751720D01*
X142442500Y-56864279D01*
X142442501Y-56864287D01*
X142471632Y-56973008D01*
X142471633Y-56973011D01*
X142527914Y-57070490D01*
X142527919Y-57070496D01*
X142607503Y-57150080D01*
X142607509Y-57150085D01*
X142704988Y-57206366D01*
X142704991Y-57206367D01*
X142813719Y-57235500D01*
X142813720Y-57235500D01*
X142926280Y-57235500D01*
X142926281Y-57235500D01*
X143035009Y-57206367D01*
X143132491Y-57150085D01*
X143212085Y-57070491D01*
X143268367Y-56973009D01*
X143297500Y-56864281D01*
X143297500Y-56751719D01*
X143268367Y-56642991D01*
X143268366Y-56642988D01*
X143212085Y-56545509D01*
X143212080Y-56545503D01*
X143132496Y-56465919D01*
X143132487Y-56465912D01*
X143111844Y-56453993D01*
X143082725Y-56416042D01*
X143088971Y-56368616D01*
X143098903Y-56355673D01*
X143122081Y-56332495D01*
X143122085Y-56332491D01*
X143178367Y-56235009D01*
X143207500Y-56126281D01*
X143207500Y-56013719D01*
X143178367Y-55904991D01*
X143178366Y-55904988D01*
X143122085Y-55807509D01*
X143122080Y-55807503D01*
X143042496Y-55727919D01*
X143042490Y-55727914D01*
X142945011Y-55671633D01*
X142945008Y-55671632D01*
X142836287Y-55642501D01*
X142836282Y-55642500D01*
X142836281Y-55642500D01*
X142723719Y-55642500D01*
X142723718Y-55642500D01*
X142723712Y-55642501D01*
X142614991Y-55671632D01*
X142614988Y-55671633D01*
X142517509Y-55727914D01*
X142517503Y-55727919D01*
X142437919Y-55807503D01*
X142437914Y-55807509D01*
X142381633Y-55904988D01*
X142381632Y-55904991D01*
X142352501Y-56013712D01*
X142352500Y-56013720D01*
X119277500Y-56013720D01*
X119277500Y-55912442D01*
X119270102Y-55875252D01*
X119270101Y-55875250D01*
X119241922Y-55833077D01*
X119199748Y-55804898D01*
X119176216Y-55800217D01*
X119162558Y-55797500D01*
X117437442Y-55797500D01*
X117423784Y-55800217D01*
X117400251Y-55804898D01*
X117400250Y-55804898D01*
X117358077Y-55833077D01*
X117329898Y-55875250D01*
X117329898Y-55875251D01*
X117322500Y-55912442D01*
X113527887Y-55912442D01*
X113532189Y-55904991D01*
X113547703Y-55878121D01*
X113547703Y-55878120D01*
X113578366Y-55825011D01*
X113578367Y-55825008D01*
X113581046Y-55815009D01*
X113607500Y-55716281D01*
X113607500Y-55603719D01*
X113578367Y-55494991D01*
X113578366Y-55494988D01*
X113522085Y-55397509D01*
X113522080Y-55397503D01*
X113442496Y-55317919D01*
X113442490Y-55317914D01*
X113345011Y-55261633D01*
X113345008Y-55261632D01*
X113236287Y-55232501D01*
X113236282Y-55232500D01*
X113236281Y-55232500D01*
X113123719Y-55232500D01*
X113123718Y-55232500D01*
X113123712Y-55232501D01*
X113014991Y-55261632D01*
X113014988Y-55261633D01*
X112917509Y-55317914D01*
X112917503Y-55317919D01*
X112837919Y-55397503D01*
X112837914Y-55397509D01*
X112781633Y-55494988D01*
X112780067Y-55498772D01*
X112778948Y-55498308D01*
X112752577Y-55532661D01*
X112705149Y-55538894D01*
X112667205Y-55509765D01*
X112660970Y-55494706D01*
X112658367Y-55484991D01*
X112602085Y-55387509D01*
X112602080Y-55387503D01*
X112522496Y-55307919D01*
X112522490Y-55307914D01*
X112425011Y-55251633D01*
X112425008Y-55251632D01*
X112316287Y-55222501D01*
X112316282Y-55222500D01*
X112316281Y-55222500D01*
X112203719Y-55222500D01*
X112203718Y-55222500D01*
X112203712Y-55222501D01*
X112094991Y-55251632D01*
X112094988Y-55251633D01*
X111997509Y-55307914D01*
X111997503Y-55307919D01*
X111917919Y-55387503D01*
X111917914Y-55387509D01*
X111861633Y-55484988D01*
X111861632Y-55484991D01*
X111832501Y-55593712D01*
X111832500Y-55593720D01*
X102577500Y-55593720D01*
X102577500Y-55483725D01*
X102539936Y-55294874D01*
X102539934Y-55294869D01*
X102539933Y-55294865D01*
X102466250Y-55116981D01*
X102466250Y-55116980D01*
X102390572Y-55003720D01*
X114262500Y-55003720D01*
X114262500Y-55116279D01*
X114262501Y-55116287D01*
X114291632Y-55225008D01*
X114291633Y-55225011D01*
X114347914Y-55322490D01*
X114347919Y-55322496D01*
X114427503Y-55402080D01*
X114427509Y-55402085D01*
X114524988Y-55458366D01*
X114524991Y-55458367D01*
X114633719Y-55487500D01*
X114633720Y-55487500D01*
X114746280Y-55487500D01*
X114746281Y-55487500D01*
X114855009Y-55458367D01*
X114952491Y-55402085D01*
X115032085Y-55322491D01*
X115076471Y-55245612D01*
X115088366Y-55225011D01*
X115088367Y-55225008D01*
X115089039Y-55222500D01*
X115117500Y-55116281D01*
X115117500Y-55003719D01*
X115088367Y-54894991D01*
X115088366Y-54894988D01*
X115032085Y-54797509D01*
X115032080Y-54797503D01*
X114952496Y-54717919D01*
X114952490Y-54717914D01*
X114855011Y-54661633D01*
X114855008Y-54661632D01*
X114746287Y-54632501D01*
X114746282Y-54632500D01*
X114746281Y-54632500D01*
X114633719Y-54632500D01*
X114633718Y-54632500D01*
X114633712Y-54632501D01*
X114524991Y-54661632D01*
X114524988Y-54661633D01*
X114427509Y-54717914D01*
X114427503Y-54717919D01*
X114347919Y-54797503D01*
X114347914Y-54797509D01*
X114291633Y-54894988D01*
X114291632Y-54894991D01*
X114262501Y-55003712D01*
X114262500Y-55003720D01*
X102390572Y-55003720D01*
X102359274Y-54956880D01*
X102223120Y-54820726D01*
X102223119Y-54820725D01*
X102063022Y-54713751D01*
X102063020Y-54713750D01*
X101885134Y-54640066D01*
X101885126Y-54640064D01*
X101696275Y-54602500D01*
X101503725Y-54602500D01*
X101314873Y-54640064D01*
X101314865Y-54640066D01*
X101136979Y-54713750D01*
X101136977Y-54713751D01*
X100976880Y-54820725D01*
X100840725Y-54956880D01*
X100733751Y-55116977D01*
X100733750Y-55116979D01*
X100660066Y-55294865D01*
X100660064Y-55294873D01*
X100622500Y-55483724D01*
X100127500Y-55483724D01*
X100127500Y-54138724D01*
X117322500Y-54138724D01*
X117322500Y-54331275D01*
X117360064Y-54520126D01*
X117360066Y-54520134D01*
X117433750Y-54698020D01*
X117433751Y-54698022D01*
X117540725Y-54858119D01*
X117540726Y-54858120D01*
X117676880Y-54994274D01*
X117836980Y-55101250D01*
X117910930Y-55131881D01*
X118014865Y-55174933D01*
X118014869Y-55174934D01*
X118014874Y-55174936D01*
X118203725Y-55212500D01*
X118396275Y-55212500D01*
X118490690Y-55193720D01*
X147152500Y-55193720D01*
X147152500Y-55306279D01*
X147152501Y-55306287D01*
X147181632Y-55415008D01*
X147181633Y-55415011D01*
X147237914Y-55512490D01*
X147237919Y-55512496D01*
X147317503Y-55592080D01*
X147317509Y-55592085D01*
X147414988Y-55648366D01*
X147414991Y-55648367D01*
X147523719Y-55677500D01*
X147523720Y-55677500D01*
X147636280Y-55677500D01*
X147636281Y-55677500D01*
X147745009Y-55648367D01*
X147842491Y-55592085D01*
X147922085Y-55512491D01*
X147978367Y-55415009D01*
X148007500Y-55306281D01*
X148007500Y-55193719D01*
X147978367Y-55084991D01*
X147978366Y-55084988D01*
X147922085Y-54987509D01*
X147922080Y-54987503D01*
X147842496Y-54907919D01*
X147842490Y-54907914D01*
X147745011Y-54851633D01*
X147745008Y-54851632D01*
X147636287Y-54822501D01*
X147636282Y-54822500D01*
X147636281Y-54822500D01*
X147523719Y-54822500D01*
X147523718Y-54822500D01*
X147523712Y-54822501D01*
X147414991Y-54851632D01*
X147414988Y-54851633D01*
X147317509Y-54907914D01*
X147317503Y-54907919D01*
X147237919Y-54987503D01*
X147237914Y-54987509D01*
X147181633Y-55084988D01*
X147181632Y-55084991D01*
X147152501Y-55193712D01*
X147152500Y-55193720D01*
X118490690Y-55193720D01*
X118585126Y-55174936D01*
X118585132Y-55174933D01*
X118585134Y-55174933D01*
X118689071Y-55131881D01*
X118708882Y-55123674D01*
X118763020Y-55101250D01*
X118923120Y-54994274D01*
X119059274Y-54858120D01*
X119166250Y-54698020D01*
X119222337Y-54562611D01*
X119239933Y-54520134D01*
X119239933Y-54520132D01*
X119239936Y-54520126D01*
X119277500Y-54331275D01*
X119277500Y-54138725D01*
X119266559Y-54083720D01*
X138012500Y-54083720D01*
X138012500Y-54196279D01*
X138012501Y-54196287D01*
X138041632Y-54305008D01*
X138041633Y-54305011D01*
X138097914Y-54402490D01*
X138097919Y-54402496D01*
X138177503Y-54482080D01*
X138177509Y-54482085D01*
X138274988Y-54538366D01*
X138274991Y-54538367D01*
X138383719Y-54567500D01*
X138383720Y-54567500D01*
X138496280Y-54567500D01*
X138496281Y-54567500D01*
X138605009Y-54538367D01*
X138702491Y-54482085D01*
X138782085Y-54402491D01*
X138838367Y-54305009D01*
X138867500Y-54196281D01*
X138867500Y-54083720D01*
X139912500Y-54083720D01*
X139912500Y-54196279D01*
X139912501Y-54196287D01*
X139941632Y-54305008D01*
X139941633Y-54305011D01*
X139997914Y-54402490D01*
X139997919Y-54402496D01*
X140077503Y-54482080D01*
X140077509Y-54482085D01*
X140174988Y-54538366D01*
X140174991Y-54538367D01*
X140283719Y-54567500D01*
X140283720Y-54567500D01*
X140396280Y-54567500D01*
X140396281Y-54567500D01*
X140505009Y-54538367D01*
X140602491Y-54482085D01*
X140682085Y-54402491D01*
X140738367Y-54305009D01*
X140767500Y-54196281D01*
X140767500Y-54083719D01*
X140738367Y-53974991D01*
X140738366Y-53974988D01*
X140682085Y-53877509D01*
X140682080Y-53877503D01*
X140602496Y-53797919D01*
X140602490Y-53797914D01*
X140505011Y-53741633D01*
X140505008Y-53741632D01*
X140396287Y-53712501D01*
X140396282Y-53712500D01*
X140396281Y-53712500D01*
X140283719Y-53712500D01*
X140283718Y-53712500D01*
X140283712Y-53712501D01*
X140174991Y-53741632D01*
X140174988Y-53741633D01*
X140077509Y-53797914D01*
X140077503Y-53797919D01*
X139997919Y-53877503D01*
X139997914Y-53877509D01*
X139941633Y-53974988D01*
X139941632Y-53974991D01*
X139912501Y-54083712D01*
X139912500Y-54083720D01*
X138867500Y-54083720D01*
X138867500Y-54083719D01*
X138838367Y-53974991D01*
X138838366Y-53974988D01*
X138782085Y-53877509D01*
X138782080Y-53877503D01*
X138702496Y-53797919D01*
X138702490Y-53797914D01*
X138605011Y-53741633D01*
X138605008Y-53741632D01*
X138496287Y-53712501D01*
X138496282Y-53712500D01*
X138496281Y-53712500D01*
X138383719Y-53712500D01*
X138383718Y-53712500D01*
X138383712Y-53712501D01*
X138274991Y-53741632D01*
X138274988Y-53741633D01*
X138177509Y-53797914D01*
X138177503Y-53797919D01*
X138097919Y-53877503D01*
X138097914Y-53877509D01*
X138041633Y-53974988D01*
X138041632Y-53974991D01*
X138012501Y-54083712D01*
X138012500Y-54083720D01*
X119266559Y-54083720D01*
X119239936Y-53949874D01*
X119239934Y-53949869D01*
X119239933Y-53949865D01*
X119199105Y-53851299D01*
X119166250Y-53771980D01*
X119059274Y-53611880D01*
X118923120Y-53475726D01*
X118923119Y-53475725D01*
X118763022Y-53368751D01*
X118763020Y-53368750D01*
X118687250Y-53337365D01*
X118585133Y-53295066D01*
X118585126Y-53295064D01*
X118528095Y-53283720D01*
X147272500Y-53283720D01*
X147272500Y-53396279D01*
X147272501Y-53396287D01*
X147301632Y-53505008D01*
X147301633Y-53505011D01*
X147357914Y-53602490D01*
X147357919Y-53602496D01*
X147437503Y-53682080D01*
X147437509Y-53682085D01*
X147534988Y-53738366D01*
X147534991Y-53738367D01*
X147643719Y-53767500D01*
X147643720Y-53767500D01*
X147756280Y-53767500D01*
X147756281Y-53767500D01*
X147865009Y-53738367D01*
X147962491Y-53682085D01*
X148042085Y-53602491D01*
X148098367Y-53505009D01*
X148127500Y-53396281D01*
X148127500Y-53283719D01*
X148098367Y-53174991D01*
X148098366Y-53174988D01*
X148042085Y-53077509D01*
X148042080Y-53077503D01*
X147962496Y-52997919D01*
X147962490Y-52997914D01*
X147865011Y-52941633D01*
X147865008Y-52941632D01*
X147756287Y-52912501D01*
X147756282Y-52912500D01*
X147756281Y-52912500D01*
X147643719Y-52912500D01*
X147643718Y-52912500D01*
X147643712Y-52912501D01*
X147534991Y-52941632D01*
X147534988Y-52941633D01*
X147437509Y-52997914D01*
X147437503Y-52997919D01*
X147357919Y-53077503D01*
X147357914Y-53077509D01*
X147301633Y-53174988D01*
X147301632Y-53174991D01*
X147272501Y-53283712D01*
X147272500Y-53283720D01*
X118528095Y-53283720D01*
X118396275Y-53257500D01*
X118203725Y-53257500D01*
X118014873Y-53295064D01*
X118014865Y-53295066D01*
X117836979Y-53368750D01*
X117836977Y-53368751D01*
X117676880Y-53475725D01*
X117540725Y-53611880D01*
X117433751Y-53771977D01*
X117433750Y-53771979D01*
X117360066Y-53949865D01*
X117360064Y-53949873D01*
X117322500Y-54138724D01*
X100127500Y-54138724D01*
X100127500Y-52943724D01*
X100622500Y-52943724D01*
X100622500Y-53136275D01*
X100660064Y-53325126D01*
X100660066Y-53325134D01*
X100733750Y-53503020D01*
X100733751Y-53503022D01*
X100840725Y-53663119D01*
X100840726Y-53663120D01*
X100976880Y-53799274D01*
X101136980Y-53906250D01*
X101216299Y-53939105D01*
X101314865Y-53979933D01*
X101314869Y-53979934D01*
X101314874Y-53979936D01*
X101503725Y-54017500D01*
X101696275Y-54017500D01*
X101885126Y-53979936D01*
X101885132Y-53979933D01*
X101885134Y-53979933D01*
X101957702Y-53949874D01*
X102063020Y-53906250D01*
X102223120Y-53799274D01*
X102359274Y-53663120D01*
X102466250Y-53503020D01*
X102522337Y-53367611D01*
X102539933Y-53325134D01*
X102539933Y-53325132D01*
X102539936Y-53325126D01*
X102544194Y-53303720D01*
X106422500Y-53303720D01*
X106422500Y-53416279D01*
X106422501Y-53416287D01*
X106451632Y-53525008D01*
X106451633Y-53525011D01*
X106507914Y-53622490D01*
X106507919Y-53622496D01*
X106587503Y-53702080D01*
X106587509Y-53702085D01*
X106684988Y-53758366D01*
X106684991Y-53758367D01*
X106793719Y-53787500D01*
X106793720Y-53787500D01*
X106906280Y-53787500D01*
X106906281Y-53787500D01*
X107015009Y-53758367D01*
X107112491Y-53702085D01*
X107192085Y-53622491D01*
X107248367Y-53525009D01*
X107277500Y-53416281D01*
X107277500Y-53303719D01*
X107248367Y-53194991D01*
X107248366Y-53194988D01*
X107192085Y-53097509D01*
X107192080Y-53097503D01*
X107112496Y-53017919D01*
X107112490Y-53017914D01*
X107070635Y-52993749D01*
X107015011Y-52961633D01*
X107015008Y-52961632D01*
X106948158Y-52943720D01*
X112452500Y-52943720D01*
X112452500Y-53056279D01*
X112452501Y-53056287D01*
X112481632Y-53165008D01*
X112481633Y-53165011D01*
X112537914Y-53262490D01*
X112537919Y-53262496D01*
X112617503Y-53342080D01*
X112617509Y-53342085D01*
X112714988Y-53398366D01*
X112714991Y-53398367D01*
X112823719Y-53427500D01*
X112823720Y-53427500D01*
X112936280Y-53427500D01*
X112936281Y-53427500D01*
X113045009Y-53398367D01*
X113048626Y-53396279D01*
X113065612Y-53386471D01*
X113142491Y-53342085D01*
X113222085Y-53262491D01*
X113278367Y-53165009D01*
X113307500Y-53056281D01*
X113307500Y-52943719D01*
X113278367Y-52834991D01*
X113278366Y-52834988D01*
X113222085Y-52737509D01*
X113222080Y-52737503D01*
X113142496Y-52657919D01*
X113142490Y-52657914D01*
X113045011Y-52601633D01*
X113045008Y-52601632D01*
X112936287Y-52572501D01*
X112936282Y-52572500D01*
X112936281Y-52572500D01*
X112823719Y-52572500D01*
X112823718Y-52572500D01*
X112823712Y-52572501D01*
X112714991Y-52601632D01*
X112714988Y-52601633D01*
X112617509Y-52657914D01*
X112617503Y-52657919D01*
X112537919Y-52737503D01*
X112537914Y-52737509D01*
X112481633Y-52834988D01*
X112481632Y-52834991D01*
X112452501Y-52943712D01*
X112452500Y-52943720D01*
X106948158Y-52943720D01*
X106906287Y-52932501D01*
X106906282Y-52932500D01*
X106906281Y-52932500D01*
X106793719Y-52932500D01*
X106793718Y-52932500D01*
X106793712Y-52932501D01*
X106684991Y-52961632D01*
X106684988Y-52961633D01*
X106587509Y-53017914D01*
X106587503Y-53017919D01*
X106507919Y-53097503D01*
X106507914Y-53097509D01*
X106451633Y-53194988D01*
X106451632Y-53194991D01*
X106422501Y-53303712D01*
X106422500Y-53303720D01*
X102544194Y-53303720D01*
X102577500Y-53136275D01*
X102577500Y-52943725D01*
X102539936Y-52754874D01*
X102539934Y-52754869D01*
X102539933Y-52754865D01*
X102483393Y-52618367D01*
X102466250Y-52576980D01*
X102359274Y-52416880D01*
X102223120Y-52280726D01*
X102101143Y-52199223D01*
X102063022Y-52173751D01*
X102063020Y-52173750D01*
X102038806Y-52163720D01*
X108292500Y-52163720D01*
X108292500Y-52276279D01*
X108292501Y-52276287D01*
X108321632Y-52385008D01*
X108321633Y-52385011D01*
X108377914Y-52482490D01*
X108377919Y-52482496D01*
X108457503Y-52562080D01*
X108457509Y-52562085D01*
X108554988Y-52618366D01*
X108554991Y-52618367D01*
X108663719Y-52647500D01*
X108663720Y-52647500D01*
X108776280Y-52647500D01*
X108776281Y-52647500D01*
X108885009Y-52618367D01*
X108982491Y-52562085D01*
X109062085Y-52482491D01*
X109118367Y-52385009D01*
X109147500Y-52276281D01*
X109147500Y-52163719D01*
X109118367Y-52054991D01*
X109118366Y-52054988D01*
X109062085Y-51957509D01*
X109062080Y-51957503D01*
X108982496Y-51877919D01*
X108982490Y-51877914D01*
X108885011Y-51821633D01*
X108885008Y-51821632D01*
X108776287Y-51792501D01*
X108776282Y-51792500D01*
X108776281Y-51792500D01*
X108663719Y-51792500D01*
X108663718Y-51792500D01*
X108663712Y-51792501D01*
X108554991Y-51821632D01*
X108554988Y-51821633D01*
X108457509Y-51877914D01*
X108457503Y-51877919D01*
X108377919Y-51957503D01*
X108377914Y-51957509D01*
X108321633Y-52054988D01*
X108321632Y-52054991D01*
X108292501Y-52163712D01*
X108292500Y-52163720D01*
X102038806Y-52163720D01*
X101885134Y-52100066D01*
X101885126Y-52100064D01*
X101696275Y-52062500D01*
X101503725Y-52062500D01*
X101314873Y-52100064D01*
X101314865Y-52100066D01*
X101136979Y-52173750D01*
X101136977Y-52173751D01*
X100976880Y-52280725D01*
X100840725Y-52416880D01*
X100733751Y-52576977D01*
X100733750Y-52576979D01*
X100660066Y-52754865D01*
X100660064Y-52754873D01*
X100622500Y-52943724D01*
X100127500Y-52943724D01*
X100127500Y-51424433D01*
X100145806Y-51380239D01*
X100190000Y-51361933D01*
X100234194Y-51380239D01*
X100252142Y-51417752D01*
X100256402Y-51457377D01*
X100306647Y-51592091D01*
X100306649Y-51592094D01*
X100392808Y-51707186D01*
X100392813Y-51707191D01*
X100507905Y-51793350D01*
X100507908Y-51793352D01*
X100642622Y-51843597D01*
X100702164Y-51849999D01*
X100702178Y-51850000D01*
X101350000Y-51850000D01*
X101350000Y-50933012D01*
X101407007Y-50965925D01*
X101534174Y-51000000D01*
X101665826Y-51000000D01*
X101792993Y-50965925D01*
X101850000Y-50933012D01*
X101850000Y-51850000D01*
X102497822Y-51850000D01*
X102497835Y-51849999D01*
X102557377Y-51843597D01*
X102692091Y-51793352D01*
X102692094Y-51793350D01*
X102807186Y-51707191D01*
X102807191Y-51707186D01*
X102893350Y-51592094D01*
X102893352Y-51592091D01*
X102943597Y-51457377D01*
X102949999Y-51397835D01*
X102950000Y-51397822D01*
X102950000Y-50750000D01*
X102033012Y-50750000D01*
X102053958Y-50713720D01*
X108222500Y-50713720D01*
X108222500Y-50826279D01*
X108222501Y-50826287D01*
X108251632Y-50935008D01*
X108251633Y-50935011D01*
X108307914Y-51032490D01*
X108307919Y-51032496D01*
X108387503Y-51112080D01*
X108387509Y-51112085D01*
X108484988Y-51168366D01*
X108484991Y-51168367D01*
X108593719Y-51197500D01*
X108593720Y-51197500D01*
X108706280Y-51197500D01*
X108706281Y-51197500D01*
X108815009Y-51168367D01*
X108912491Y-51112085D01*
X108992085Y-51032491D01*
X109048367Y-50935009D01*
X109077500Y-50826281D01*
X109077500Y-50713719D01*
X109075834Y-50707500D01*
X109075378Y-50705797D01*
X109075378Y-50705795D01*
X109072142Y-50693720D01*
X147032500Y-50693720D01*
X147032500Y-50806279D01*
X147032501Y-50806287D01*
X147061632Y-50915008D01*
X147061633Y-50915011D01*
X147117914Y-51012490D01*
X147117919Y-51012496D01*
X147197503Y-51092080D01*
X147197509Y-51092085D01*
X147294988Y-51148366D01*
X147294991Y-51148367D01*
X147403719Y-51177500D01*
X147403720Y-51177500D01*
X147516280Y-51177500D01*
X147516281Y-51177500D01*
X147625009Y-51148367D01*
X147722491Y-51092085D01*
X147802085Y-51012491D01*
X147858367Y-50915009D01*
X147887500Y-50806281D01*
X147887500Y-50693719D01*
X147858367Y-50584991D01*
X147858366Y-50584988D01*
X147802085Y-50487509D01*
X147802080Y-50487503D01*
X147722496Y-50407919D01*
X147722490Y-50407914D01*
X147625011Y-50351633D01*
X147625008Y-50351632D01*
X147516287Y-50322501D01*
X147516282Y-50322500D01*
X147516281Y-50322500D01*
X147403719Y-50322500D01*
X147403718Y-50322500D01*
X147403712Y-50322501D01*
X147294991Y-50351632D01*
X147294988Y-50351633D01*
X147197509Y-50407914D01*
X147197503Y-50407919D01*
X147117919Y-50487503D01*
X147117914Y-50487509D01*
X147061633Y-50584988D01*
X147061632Y-50584991D01*
X147032501Y-50693712D01*
X147032500Y-50693720D01*
X109072142Y-50693720D01*
X109048367Y-50604991D01*
X109048366Y-50604988D01*
X108992085Y-50507509D01*
X108992080Y-50507503D01*
X108912496Y-50427919D01*
X108912490Y-50427914D01*
X108815011Y-50371633D01*
X108815008Y-50371632D01*
X108706287Y-50342501D01*
X108706282Y-50342500D01*
X108706281Y-50342500D01*
X108593719Y-50342500D01*
X108593718Y-50342500D01*
X108593712Y-50342501D01*
X108484991Y-50371632D01*
X108484988Y-50371633D01*
X108387509Y-50427914D01*
X108387503Y-50427919D01*
X108307919Y-50507503D01*
X108307914Y-50507509D01*
X108251633Y-50604988D01*
X108251632Y-50604991D01*
X108222501Y-50713712D01*
X108222500Y-50713720D01*
X102053958Y-50713720D01*
X102065925Y-50692993D01*
X102100000Y-50565826D01*
X102100000Y-50434174D01*
X102065925Y-50307007D01*
X102033012Y-50250000D01*
X102950000Y-50250000D01*
X102950000Y-50223720D01*
X106772500Y-50223720D01*
X106772500Y-50336279D01*
X106772501Y-50336287D01*
X106801632Y-50445008D01*
X106801633Y-50445011D01*
X106857914Y-50542490D01*
X106857919Y-50542496D01*
X106937503Y-50622080D01*
X106937509Y-50622085D01*
X107034988Y-50678366D01*
X107034991Y-50678367D01*
X107143719Y-50707500D01*
X107143720Y-50707500D01*
X107256280Y-50707500D01*
X107256281Y-50707500D01*
X107365009Y-50678367D01*
X107365011Y-50678366D01*
X107404621Y-50655497D01*
X107424408Y-50644072D01*
X107462491Y-50622085D01*
X107542085Y-50542491D01*
X107598367Y-50445009D01*
X107627500Y-50336281D01*
X107627500Y-50223719D01*
X107598367Y-50114991D01*
X107598366Y-50114988D01*
X107542085Y-50017509D01*
X107542080Y-50017503D01*
X107462496Y-49937919D01*
X107462490Y-49937914D01*
X107365011Y-49881633D01*
X107365008Y-49881632D01*
X107256287Y-49852501D01*
X107256282Y-49852500D01*
X107256281Y-49852500D01*
X107143719Y-49852500D01*
X107143718Y-49852500D01*
X107143712Y-49852501D01*
X107034991Y-49881632D01*
X107034988Y-49881633D01*
X106937509Y-49937914D01*
X106937503Y-49937919D01*
X106857919Y-50017503D01*
X106857914Y-50017509D01*
X106801633Y-50114988D01*
X106801632Y-50114991D01*
X106772501Y-50223712D01*
X106772500Y-50223720D01*
X102950000Y-50223720D01*
X102950000Y-49602177D01*
X102949999Y-49602164D01*
X102945069Y-49556304D01*
X102944791Y-49553720D01*
X103862500Y-49553720D01*
X103862500Y-49666279D01*
X103862501Y-49666287D01*
X103891632Y-49775008D01*
X103891633Y-49775011D01*
X103947914Y-49872490D01*
X103947919Y-49872496D01*
X104027503Y-49952080D01*
X104027509Y-49952085D01*
X104124988Y-50008366D01*
X104124991Y-50008367D01*
X104233719Y-50037500D01*
X104233720Y-50037500D01*
X104346280Y-50037500D01*
X104346281Y-50037500D01*
X104455009Y-50008367D01*
X104552491Y-49952085D01*
X104632085Y-49872491D01*
X104688367Y-49775009D01*
X104717500Y-49666281D01*
X104717500Y-49553719D01*
X104688367Y-49444991D01*
X104688366Y-49444988D01*
X104645575Y-49370874D01*
X104632085Y-49347509D01*
X104632080Y-49347503D01*
X104628297Y-49343720D01*
X106132500Y-49343720D01*
X106132500Y-49456279D01*
X106132501Y-49456287D01*
X106161632Y-49565008D01*
X106161633Y-49565011D01*
X106217914Y-49662490D01*
X106217919Y-49662496D01*
X106297503Y-49742080D01*
X106297509Y-49742085D01*
X106394988Y-49798366D01*
X106394991Y-49798367D01*
X106503719Y-49827500D01*
X106503720Y-49827500D01*
X106616280Y-49827500D01*
X106616281Y-49827500D01*
X106725009Y-49798367D01*
X106822491Y-49742085D01*
X106902085Y-49662491D01*
X106947564Y-49583720D01*
X129622500Y-49583720D01*
X129622500Y-49696279D01*
X129622501Y-49696287D01*
X129651632Y-49805008D01*
X129651633Y-49805011D01*
X129707914Y-49902490D01*
X129707919Y-49902496D01*
X129787503Y-49982080D01*
X129787509Y-49982085D01*
X129884988Y-50038366D01*
X129884991Y-50038367D01*
X129993719Y-50067500D01*
X129993720Y-50067500D01*
X130106280Y-50067500D01*
X130106281Y-50067500D01*
X130215009Y-50038367D01*
X130312491Y-49982085D01*
X130392085Y-49902491D01*
X130448367Y-49805009D01*
X130477500Y-49696281D01*
X130477500Y-49583719D01*
X130448367Y-49474991D01*
X130448366Y-49474988D01*
X130392085Y-49377509D01*
X130392080Y-49377503D01*
X130312496Y-49297919D01*
X130312490Y-49297914D01*
X130215011Y-49241633D01*
X130215008Y-49241632D01*
X130106287Y-49212501D01*
X130106282Y-49212500D01*
X130106281Y-49212500D01*
X129993719Y-49212500D01*
X129993718Y-49212500D01*
X129993712Y-49212501D01*
X129884991Y-49241632D01*
X129884988Y-49241633D01*
X129787509Y-49297914D01*
X129787503Y-49297919D01*
X129707919Y-49377503D01*
X129707914Y-49377509D01*
X129651633Y-49474988D01*
X129651632Y-49474991D01*
X129622501Y-49583712D01*
X129622500Y-49583720D01*
X106947564Y-49583720D01*
X106952592Y-49575011D01*
X106958366Y-49565011D01*
X106958366Y-49565010D01*
X106958367Y-49565009D01*
X106987500Y-49456281D01*
X106987500Y-49343719D01*
X106958367Y-49234991D01*
X106958366Y-49234988D01*
X106902085Y-49137509D01*
X106902080Y-49137503D01*
X106822493Y-49057916D01*
X106822494Y-49057916D01*
X106745946Y-49013720D01*
X107322500Y-49013720D01*
X107322500Y-49126279D01*
X107322501Y-49126287D01*
X107351632Y-49235008D01*
X107351633Y-49235011D01*
X107407914Y-49332490D01*
X107407919Y-49332496D01*
X107487503Y-49412080D01*
X107487509Y-49412085D01*
X107584988Y-49468366D01*
X107584991Y-49468367D01*
X107693719Y-49497500D01*
X107693720Y-49497500D01*
X107806280Y-49497500D01*
X107806281Y-49497500D01*
X107915009Y-49468367D01*
X107918626Y-49466279D01*
X107955502Y-49444988D01*
X108012491Y-49412085D01*
X108092085Y-49332491D01*
X108148367Y-49235009D01*
X108177500Y-49126281D01*
X108177500Y-49013719D01*
X108166456Y-48972500D01*
X108161981Y-48955799D01*
X108158744Y-48943720D01*
X140252500Y-48943720D01*
X140252500Y-49056279D01*
X140252501Y-49056287D01*
X140281632Y-49165008D01*
X140281633Y-49165011D01*
X140337914Y-49262490D01*
X140337919Y-49262496D01*
X140417503Y-49342080D01*
X140417509Y-49342085D01*
X140514988Y-49398366D01*
X140514991Y-49398367D01*
X140623719Y-49427500D01*
X140623720Y-49427500D01*
X140736280Y-49427500D01*
X140736281Y-49427500D01*
X140845009Y-49398367D01*
X140922339Y-49353720D01*
X142352500Y-49353720D01*
X142352500Y-49466279D01*
X142352501Y-49466287D01*
X142381632Y-49575008D01*
X142381633Y-49575011D01*
X142437914Y-49672490D01*
X142437919Y-49672496D01*
X142517503Y-49752080D01*
X142517509Y-49752085D01*
X142614988Y-49808366D01*
X142614991Y-49808367D01*
X142723719Y-49837500D01*
X142723720Y-49837500D01*
X142836280Y-49837500D01*
X142836281Y-49837500D01*
X142945009Y-49808367D01*
X143042491Y-49752085D01*
X143122085Y-49672491D01*
X143174188Y-49582247D01*
X143178366Y-49575011D01*
X143178367Y-49575008D01*
X143181046Y-49565009D01*
X143207500Y-49466281D01*
X143207500Y-49353719D01*
X143178367Y-49244991D01*
X143178366Y-49244988D01*
X143122085Y-49147509D01*
X143122080Y-49147503D01*
X143042496Y-49067919D01*
X143042490Y-49067914D01*
X142944714Y-49011462D01*
X142915594Y-48973511D01*
X142921839Y-48926085D01*
X142952052Y-48899591D01*
X142954998Y-48898369D01*
X142955009Y-48898367D01*
X143052491Y-48842085D01*
X143132085Y-48762491D01*
X143188367Y-48665009D01*
X143192183Y-48650767D01*
X144802966Y-48650767D01*
X144802966Y-48763326D01*
X144802967Y-48763334D01*
X144832098Y-48872055D01*
X144832099Y-48872058D01*
X144888380Y-48969537D01*
X144888385Y-48969543D01*
X144967969Y-49049127D01*
X144967975Y-49049132D01*
X145065454Y-49105413D01*
X145065457Y-49105414D01*
X145174185Y-49134547D01*
X145174186Y-49134547D01*
X145286746Y-49134547D01*
X145286747Y-49134547D01*
X145395475Y-49105414D01*
X145492957Y-49049132D01*
X145572551Y-48969538D01*
X145628833Y-48872056D01*
X145657966Y-48763328D01*
X145657966Y-48650766D01*
X145628833Y-48542038D01*
X145628832Y-48542035D01*
X145572551Y-48444556D01*
X145572546Y-48444550D01*
X145492962Y-48364966D01*
X145492956Y-48364961D01*
X145395477Y-48308680D01*
X145395474Y-48308679D01*
X145286753Y-48279548D01*
X145286748Y-48279547D01*
X145286747Y-48279547D01*
X145174185Y-48279547D01*
X145174184Y-48279547D01*
X145174178Y-48279548D01*
X145065457Y-48308679D01*
X145065454Y-48308680D01*
X144967975Y-48364961D01*
X144967969Y-48364966D01*
X144888385Y-48444550D01*
X144888380Y-48444556D01*
X144832099Y-48542035D01*
X144832098Y-48542038D01*
X144802967Y-48650759D01*
X144802966Y-48650767D01*
X143192183Y-48650767D01*
X143217500Y-48556281D01*
X143217500Y-48443719D01*
X143188367Y-48334991D01*
X143188366Y-48334988D01*
X143132085Y-48237509D01*
X143132080Y-48237503D01*
X143052496Y-48157919D01*
X143052487Y-48157912D01*
X142959328Y-48104126D01*
X142930208Y-48066176D01*
X142936452Y-48018750D01*
X142959328Y-47995874D01*
X143021088Y-47960215D01*
X143052491Y-47942085D01*
X143132085Y-47862491D01*
X143188367Y-47765009D01*
X143217500Y-47656281D01*
X143217500Y-47543719D01*
X143188367Y-47434991D01*
X143188366Y-47434988D01*
X143132085Y-47337509D01*
X143132080Y-47337503D01*
X143052496Y-47257919D01*
X143052487Y-47257912D01*
X142959328Y-47204126D01*
X142930208Y-47166176D01*
X142936452Y-47118750D01*
X142959328Y-47095874D01*
X143021088Y-47060215D01*
X143052491Y-47042085D01*
X143132085Y-46962491D01*
X143188367Y-46865009D01*
X143192732Y-46848720D01*
X144757500Y-46848720D01*
X144757500Y-46961279D01*
X144757501Y-46961287D01*
X144786632Y-47070008D01*
X144786633Y-47070011D01*
X144842914Y-47167490D01*
X144842919Y-47167496D01*
X144922503Y-47247080D01*
X144922509Y-47247085D01*
X145019988Y-47303366D01*
X145019991Y-47303367D01*
X145128719Y-47332500D01*
X145128720Y-47332500D01*
X145241280Y-47332500D01*
X145241281Y-47332500D01*
X145350009Y-47303367D01*
X145447491Y-47247085D01*
X145527085Y-47167491D01*
X145583367Y-47070009D01*
X145612500Y-46961281D01*
X145612500Y-46848719D01*
X145583367Y-46739991D01*
X145583366Y-46739988D01*
X145527085Y-46642509D01*
X145527080Y-46642503D01*
X145447496Y-46562919D01*
X145447490Y-46562914D01*
X145350011Y-46506633D01*
X145350008Y-46506632D01*
X145241287Y-46477501D01*
X145241282Y-46477500D01*
X145241281Y-46477500D01*
X145128719Y-46477500D01*
X145128718Y-46477500D01*
X145128712Y-46477501D01*
X145019991Y-46506632D01*
X145019988Y-46506633D01*
X144922509Y-46562914D01*
X144922503Y-46562919D01*
X144842919Y-46642503D01*
X144842914Y-46642509D01*
X144786633Y-46739988D01*
X144786632Y-46739991D01*
X144757501Y-46848712D01*
X144757500Y-46848720D01*
X143192732Y-46848720D01*
X143217500Y-46756281D01*
X143217500Y-46643719D01*
X143188367Y-46534991D01*
X143188366Y-46534988D01*
X143132085Y-46437509D01*
X143132080Y-46437503D01*
X143052496Y-46357919D01*
X143052487Y-46357912D01*
X142959328Y-46304126D01*
X142930208Y-46266176D01*
X142936452Y-46218750D01*
X142959328Y-46195874D01*
X143049659Y-46143720D01*
X143052491Y-46142085D01*
X143132085Y-46062491D01*
X143188367Y-45965009D01*
X143217500Y-45856281D01*
X143217500Y-45743719D01*
X143188367Y-45634991D01*
X143188366Y-45634988D01*
X143132085Y-45537509D01*
X143132080Y-45537503D01*
X143052496Y-45457919D01*
X143052490Y-45457914D01*
X142955011Y-45401633D01*
X142955008Y-45401632D01*
X142846287Y-45372501D01*
X142846282Y-45372500D01*
X142846281Y-45372500D01*
X142733719Y-45372500D01*
X142733718Y-45372500D01*
X142733712Y-45372501D01*
X142624991Y-45401632D01*
X142624988Y-45401633D01*
X142527509Y-45457914D01*
X142527503Y-45457919D01*
X142447919Y-45537503D01*
X142447914Y-45537509D01*
X142391633Y-45634988D01*
X142391632Y-45634991D01*
X142362501Y-45743712D01*
X142362500Y-45743720D01*
X142362500Y-45856279D01*
X142362501Y-45856287D01*
X142391632Y-45965008D01*
X142391633Y-45965011D01*
X142447914Y-46062490D01*
X142447919Y-46062496D01*
X142527503Y-46142080D01*
X142527509Y-46142085D01*
X142620672Y-46195874D01*
X142649792Y-46233824D01*
X142643547Y-46281251D01*
X142620672Y-46304126D01*
X142527509Y-46357914D01*
X142527503Y-46357919D01*
X142447919Y-46437503D01*
X142447914Y-46437509D01*
X142391633Y-46534988D01*
X142391632Y-46534991D01*
X142362501Y-46643712D01*
X142362500Y-46643720D01*
X142362500Y-46756279D01*
X142362501Y-46756287D01*
X142391632Y-46865008D01*
X142391633Y-46865011D01*
X142447914Y-46962490D01*
X142447919Y-46962496D01*
X142527503Y-47042080D01*
X142527509Y-47042085D01*
X142620672Y-47095874D01*
X142649792Y-47133824D01*
X142643547Y-47181251D01*
X142620672Y-47204126D01*
X142527509Y-47257914D01*
X142527503Y-47257919D01*
X142447919Y-47337503D01*
X142447914Y-47337509D01*
X142391633Y-47434988D01*
X142391632Y-47434991D01*
X142362501Y-47543712D01*
X142362500Y-47543720D01*
X142362500Y-47656279D01*
X142362501Y-47656287D01*
X142391632Y-47765008D01*
X142391633Y-47765011D01*
X142447914Y-47862490D01*
X142447919Y-47862496D01*
X142527503Y-47942080D01*
X142527509Y-47942085D01*
X142620672Y-47995874D01*
X142649792Y-48033824D01*
X142643547Y-48081251D01*
X142620672Y-48104126D01*
X142527509Y-48157914D01*
X142527503Y-48157919D01*
X142447919Y-48237503D01*
X142447914Y-48237509D01*
X142391633Y-48334988D01*
X142391632Y-48334991D01*
X142362501Y-48443712D01*
X142362500Y-48443720D01*
X142362500Y-48556279D01*
X142362501Y-48556287D01*
X142391632Y-48665008D01*
X142391633Y-48665011D01*
X142447914Y-48762490D01*
X142447919Y-48762496D01*
X142527503Y-48842080D01*
X142527512Y-48842087D01*
X142625284Y-48898537D01*
X142654405Y-48936487D01*
X142648160Y-48983913D01*
X142617957Y-49010403D01*
X142614994Y-49011630D01*
X142517509Y-49067914D01*
X142517503Y-49067919D01*
X142437919Y-49147503D01*
X142437914Y-49147509D01*
X142381633Y-49244988D01*
X142381632Y-49244991D01*
X142352501Y-49353712D01*
X142352500Y-49353720D01*
X140922339Y-49353720D01*
X140942491Y-49342085D01*
X140952086Y-49332490D01*
X140979148Y-49305429D01*
X141022080Y-49262496D01*
X141022085Y-49262491D01*
X141078367Y-49165009D01*
X141107500Y-49056281D01*
X141107500Y-48943719D01*
X141078367Y-48834991D01*
X141078366Y-48834988D01*
X141022085Y-48737509D01*
X141022080Y-48737503D01*
X140942496Y-48657919D01*
X140942490Y-48657914D01*
X140845011Y-48601633D01*
X140845008Y-48601632D01*
X140736287Y-48572501D01*
X140736282Y-48572500D01*
X140736281Y-48572500D01*
X140623719Y-48572500D01*
X140623718Y-48572500D01*
X140623712Y-48572501D01*
X140514991Y-48601632D01*
X140514988Y-48601633D01*
X140417509Y-48657914D01*
X140417503Y-48657919D01*
X140337919Y-48737503D01*
X140337914Y-48737509D01*
X140281633Y-48834988D01*
X140281632Y-48834991D01*
X140252501Y-48943712D01*
X140252500Y-48943720D01*
X108158744Y-48943720D01*
X108148367Y-48904991D01*
X108148366Y-48904988D01*
X108092085Y-48807509D01*
X108092080Y-48807503D01*
X108012496Y-48727919D01*
X108012490Y-48727914D01*
X107915011Y-48671633D01*
X107915008Y-48671632D01*
X107806287Y-48642501D01*
X107806282Y-48642500D01*
X107806281Y-48642500D01*
X107693719Y-48642500D01*
X107693718Y-48642500D01*
X107693712Y-48642501D01*
X107584991Y-48671632D01*
X107584988Y-48671633D01*
X107487509Y-48727914D01*
X107487503Y-48727919D01*
X107407919Y-48807503D01*
X107407914Y-48807509D01*
X107351633Y-48904988D01*
X107351632Y-48904991D01*
X107322501Y-49013712D01*
X107322500Y-49013720D01*
X106745946Y-49013720D01*
X106725011Y-49001633D01*
X106725008Y-49001632D01*
X106616287Y-48972501D01*
X106616282Y-48972500D01*
X106616281Y-48972500D01*
X106503719Y-48972500D01*
X106503718Y-48972500D01*
X106503712Y-48972501D01*
X106394991Y-49001632D01*
X106394988Y-49001633D01*
X106297509Y-49057914D01*
X106297503Y-49057919D01*
X106217919Y-49137503D01*
X106217914Y-49137509D01*
X106161633Y-49234988D01*
X106161632Y-49234991D01*
X106132501Y-49343712D01*
X106132500Y-49343720D01*
X104628297Y-49343720D01*
X104552496Y-49267919D01*
X104552490Y-49267914D01*
X104455011Y-49211633D01*
X104455008Y-49211632D01*
X104346287Y-49182501D01*
X104346282Y-49182500D01*
X104346281Y-49182500D01*
X104233719Y-49182500D01*
X104233718Y-49182500D01*
X104233712Y-49182501D01*
X104124991Y-49211632D01*
X104124988Y-49211633D01*
X104027509Y-49267914D01*
X104027503Y-49267919D01*
X103947919Y-49347503D01*
X103947914Y-49347509D01*
X103891633Y-49444988D01*
X103891632Y-49444991D01*
X103862501Y-49553712D01*
X103862500Y-49553720D01*
X102944791Y-49553720D01*
X102943597Y-49542621D01*
X102893352Y-49407908D01*
X102893350Y-49407905D01*
X102807191Y-49292813D01*
X102807186Y-49292808D01*
X102692094Y-49206649D01*
X102692091Y-49206647D01*
X102557377Y-49156402D01*
X102497835Y-49150000D01*
X101850000Y-49150000D01*
X101850000Y-50066988D01*
X101792993Y-50034075D01*
X101665826Y-50000000D01*
X101534174Y-50000000D01*
X101407007Y-50034075D01*
X101350000Y-50066988D01*
X101350000Y-49150000D01*
X100702164Y-49150000D01*
X100642622Y-49156402D01*
X100507908Y-49206647D01*
X100507905Y-49206649D01*
X100392813Y-49292808D01*
X100392808Y-49292813D01*
X100306649Y-49407905D01*
X100306647Y-49407908D01*
X100256402Y-49542622D01*
X100252142Y-49582247D01*
X100229217Y-49624231D01*
X100183319Y-49637708D01*
X100141335Y-49614783D01*
X100127500Y-49575566D01*
X100127500Y-48608226D01*
X100129629Y-48592053D01*
X100132878Y-48579926D01*
X100149052Y-48551910D01*
X100151910Y-48549052D01*
X100160268Y-48544227D01*
X100161995Y-48541977D01*
X100164808Y-48541606D01*
X100179927Y-48532878D01*
X100189452Y-48530326D01*
X100192055Y-48529629D01*
X100208227Y-48527500D01*
X100321958Y-48527500D01*
X100321964Y-48527500D01*
X100563168Y-48491145D01*
X100563173Y-48491143D01*
X100563175Y-48491143D01*
X100602847Y-48478905D01*
X100716916Y-48443720D01*
X102632500Y-48443720D01*
X102632500Y-48556279D01*
X102632501Y-48556287D01*
X102661632Y-48665008D01*
X102661633Y-48665011D01*
X102717914Y-48762490D01*
X102717919Y-48762496D01*
X102797503Y-48842080D01*
X102797509Y-48842085D01*
X102894988Y-48898366D01*
X102894991Y-48898367D01*
X103003719Y-48927500D01*
X103003720Y-48927500D01*
X103116280Y-48927500D01*
X103116281Y-48927500D01*
X103225009Y-48898367D01*
X103322491Y-48842085D01*
X103402085Y-48762491D01*
X103458367Y-48665009D01*
X103487500Y-48556281D01*
X103487500Y-48443719D01*
X103458367Y-48334991D01*
X103458366Y-48334988D01*
X103402085Y-48237509D01*
X103402080Y-48237503D01*
X103322496Y-48157919D01*
X103322490Y-48157914D01*
X103225011Y-48101633D01*
X103225008Y-48101632D01*
X103116287Y-48072501D01*
X103116282Y-48072500D01*
X103116281Y-48072500D01*
X103003719Y-48072500D01*
X103003718Y-48072500D01*
X103003712Y-48072501D01*
X102894991Y-48101632D01*
X102894988Y-48101633D01*
X102797509Y-48157914D01*
X102797503Y-48157919D01*
X102717919Y-48237503D01*
X102717914Y-48237509D01*
X102661633Y-48334988D01*
X102661632Y-48334991D01*
X102632501Y-48443712D01*
X102632500Y-48443720D01*
X100716916Y-48443720D01*
X100796260Y-48419246D01*
X101016032Y-48313409D01*
X101217575Y-48175999D01*
X101396388Y-48010085D01*
X101497161Y-47883720D01*
X105522500Y-47883720D01*
X105522500Y-47996279D01*
X105522501Y-47996287D01*
X105551632Y-48105008D01*
X105551633Y-48105011D01*
X105607914Y-48202490D01*
X105607919Y-48202496D01*
X105687503Y-48282080D01*
X105687509Y-48282085D01*
X105784988Y-48338366D01*
X105784991Y-48338367D01*
X105893719Y-48367500D01*
X105893720Y-48367500D01*
X106006280Y-48367500D01*
X106006281Y-48367500D01*
X106115009Y-48338367D01*
X106120857Y-48334991D01*
X106158237Y-48313409D01*
X106212491Y-48282085D01*
X106292085Y-48202491D01*
X106348367Y-48105009D01*
X106348368Y-48105005D01*
X106348759Y-48104328D01*
X106386710Y-48075208D01*
X106434136Y-48081451D01*
X106457012Y-48104327D01*
X106507914Y-48192490D01*
X106507919Y-48192496D01*
X106587503Y-48272080D01*
X106587509Y-48272085D01*
X106684988Y-48328366D01*
X106684991Y-48328367D01*
X106793719Y-48357500D01*
X106793720Y-48357500D01*
X106906280Y-48357500D01*
X106906281Y-48357500D01*
X107015009Y-48328367D01*
X107112491Y-48272085D01*
X107192085Y-48192491D01*
X107226017Y-48133720D01*
X108242500Y-48133720D01*
X108242500Y-48246279D01*
X108242501Y-48246287D01*
X108271632Y-48355008D01*
X108271633Y-48355011D01*
X108327914Y-48452490D01*
X108327919Y-48452496D01*
X108407503Y-48532080D01*
X108407509Y-48532085D01*
X108504988Y-48588366D01*
X108504991Y-48588367D01*
X108613719Y-48617500D01*
X108613720Y-48617500D01*
X108726280Y-48617500D01*
X108726281Y-48617500D01*
X108835009Y-48588367D01*
X108932491Y-48532085D01*
X109012085Y-48452491D01*
X109052026Y-48383312D01*
X109060874Y-48367988D01*
X109098824Y-48338868D01*
X109146250Y-48345112D01*
X109169126Y-48367988D01*
X109217912Y-48452487D01*
X109217919Y-48452496D01*
X109297503Y-48532080D01*
X109297509Y-48532085D01*
X109394988Y-48588366D01*
X109394991Y-48588367D01*
X109503719Y-48617500D01*
X109503720Y-48617500D01*
X109616280Y-48617500D01*
X109616281Y-48617500D01*
X109725009Y-48588367D01*
X109822491Y-48532085D01*
X109902085Y-48452491D01*
X109942026Y-48383312D01*
X109950874Y-48367988D01*
X109988824Y-48338868D01*
X110036250Y-48345112D01*
X110059126Y-48367988D01*
X110107912Y-48452487D01*
X110107919Y-48452496D01*
X110187503Y-48532080D01*
X110187509Y-48532085D01*
X110284988Y-48588366D01*
X110284991Y-48588367D01*
X110393719Y-48617500D01*
X110393720Y-48617500D01*
X110506280Y-48617500D01*
X110506281Y-48617500D01*
X110615009Y-48588367D01*
X110712491Y-48532085D01*
X110792085Y-48452491D01*
X110836471Y-48375612D01*
X110848366Y-48355011D01*
X110848367Y-48355008D01*
X110852826Y-48338366D01*
X110877500Y-48246281D01*
X110877500Y-48133719D01*
X110848367Y-48024991D01*
X110848366Y-48024988D01*
X110792085Y-47927509D01*
X110792080Y-47927503D01*
X110712496Y-47847919D01*
X110712490Y-47847914D01*
X110615011Y-47791633D01*
X110615008Y-47791632D01*
X110506287Y-47762501D01*
X110506282Y-47762500D01*
X110506281Y-47762500D01*
X110393719Y-47762500D01*
X110393718Y-47762500D01*
X110393712Y-47762501D01*
X110284991Y-47791632D01*
X110284988Y-47791633D01*
X110187509Y-47847914D01*
X110187503Y-47847919D01*
X110107919Y-47927503D01*
X110107914Y-47927509D01*
X110059126Y-48012012D01*
X110021176Y-48041132D01*
X109973749Y-48034887D01*
X109950874Y-48012012D01*
X109902085Y-47927509D01*
X109902080Y-47927503D01*
X109822496Y-47847919D01*
X109822490Y-47847914D01*
X109725011Y-47791633D01*
X109725008Y-47791632D01*
X109616287Y-47762501D01*
X109616282Y-47762500D01*
X109616281Y-47762500D01*
X109503719Y-47762500D01*
X109503718Y-47762500D01*
X109503712Y-47762501D01*
X109394991Y-47791632D01*
X109394988Y-47791633D01*
X109297509Y-47847914D01*
X109297503Y-47847919D01*
X109217919Y-47927503D01*
X109217914Y-47927509D01*
X109169126Y-48012012D01*
X109131176Y-48041132D01*
X109083749Y-48034887D01*
X109060874Y-48012012D01*
X109012085Y-47927509D01*
X109012080Y-47927503D01*
X108932496Y-47847919D01*
X108932490Y-47847914D01*
X108835011Y-47791633D01*
X108835008Y-47791632D01*
X108726287Y-47762501D01*
X108726282Y-47762500D01*
X108726281Y-47762500D01*
X108613719Y-47762500D01*
X108613718Y-47762500D01*
X108613712Y-47762501D01*
X108504991Y-47791632D01*
X108504988Y-47791633D01*
X108407509Y-47847914D01*
X108407503Y-47847919D01*
X108327919Y-47927503D01*
X108327914Y-47927509D01*
X108271633Y-48024988D01*
X108271632Y-48024991D01*
X108242501Y-48133712D01*
X108242500Y-48133720D01*
X107226017Y-48133720D01*
X107246426Y-48098372D01*
X107248367Y-48095009D01*
X107248367Y-48095008D01*
X107277500Y-47986281D01*
X107277500Y-47873719D01*
X107248367Y-47764991D01*
X107248366Y-47764988D01*
X107192085Y-47667509D01*
X107192080Y-47667503D01*
X107112493Y-47587916D01*
X107112494Y-47587916D01*
X107035946Y-47543720D01*
X113462500Y-47543720D01*
X113462500Y-47656279D01*
X113462501Y-47656287D01*
X113491632Y-47765008D01*
X113491633Y-47765011D01*
X113547914Y-47862490D01*
X113547919Y-47862496D01*
X113627503Y-47942080D01*
X113627509Y-47942085D01*
X113724988Y-47998366D01*
X113724991Y-47998367D01*
X113833719Y-48027500D01*
X113833720Y-48027500D01*
X113946280Y-48027500D01*
X113946281Y-48027500D01*
X114055009Y-47998367D01*
X114058626Y-47996279D01*
X114075946Y-47986279D01*
X114152491Y-47942085D01*
X114232085Y-47862491D01*
X114288367Y-47765009D01*
X114317500Y-47656281D01*
X114317500Y-47543719D01*
X114288367Y-47434991D01*
X114288366Y-47434988D01*
X114232085Y-47337509D01*
X114232080Y-47337503D01*
X114152496Y-47257919D01*
X114152490Y-47257914D01*
X114055011Y-47201633D01*
X114055008Y-47201632D01*
X113946287Y-47172501D01*
X113946282Y-47172500D01*
X113946281Y-47172500D01*
X113833719Y-47172500D01*
X113833718Y-47172500D01*
X113833712Y-47172501D01*
X113724991Y-47201632D01*
X113724988Y-47201633D01*
X113627509Y-47257914D01*
X113627503Y-47257919D01*
X113547919Y-47337503D01*
X113547914Y-47337509D01*
X113491633Y-47434988D01*
X113491632Y-47434991D01*
X113462501Y-47543712D01*
X113462500Y-47543720D01*
X107035946Y-47543720D01*
X107015011Y-47531633D01*
X107015008Y-47531632D01*
X106906287Y-47502501D01*
X106906282Y-47502500D01*
X106906281Y-47502500D01*
X106793719Y-47502500D01*
X106793718Y-47502500D01*
X106793712Y-47502501D01*
X106684991Y-47531632D01*
X106684988Y-47531633D01*
X106587509Y-47587914D01*
X106587503Y-47587919D01*
X106507919Y-47667503D01*
X106507914Y-47667509D01*
X106451239Y-47765672D01*
X106413288Y-47794792D01*
X106365862Y-47788547D01*
X106342987Y-47765672D01*
X106292085Y-47677509D01*
X106292080Y-47677503D01*
X106212496Y-47597919D01*
X106212490Y-47597914D01*
X106115011Y-47541633D01*
X106115008Y-47541632D01*
X106006287Y-47512501D01*
X106006282Y-47512500D01*
X106006281Y-47512500D01*
X105893719Y-47512500D01*
X105893718Y-47512500D01*
X105893712Y-47512501D01*
X105784991Y-47541632D01*
X105784988Y-47541633D01*
X105687509Y-47597914D01*
X105687503Y-47597919D01*
X105607919Y-47677503D01*
X105607914Y-47677509D01*
X105551633Y-47774988D01*
X105551632Y-47774991D01*
X105522501Y-47883712D01*
X105522500Y-47883720D01*
X101497161Y-47883720D01*
X101497162Y-47883719D01*
X101531505Y-47840655D01*
X101548468Y-47819383D01*
X101548468Y-47819382D01*
X101548475Y-47819374D01*
X101670439Y-47608126D01*
X101759556Y-47381059D01*
X101813835Y-47143247D01*
X101832064Y-46900000D01*
X101813835Y-46656753D01*
X101759556Y-46418941D01*
X101670439Y-46191874D01*
X101642637Y-46143720D01*
X134452500Y-46143720D01*
X134452500Y-46256279D01*
X134452501Y-46256287D01*
X134481632Y-46365008D01*
X134481633Y-46365011D01*
X134537914Y-46462490D01*
X134537919Y-46462496D01*
X134617503Y-46542080D01*
X134617509Y-46542085D01*
X134714988Y-46598366D01*
X134714991Y-46598367D01*
X134823719Y-46627500D01*
X134823720Y-46627500D01*
X134936280Y-46627500D01*
X134936281Y-46627500D01*
X135045009Y-46598367D01*
X135142491Y-46542085D01*
X135222085Y-46462491D01*
X135278367Y-46365009D01*
X135307500Y-46256281D01*
X135307500Y-46143719D01*
X135278367Y-46034991D01*
X135278366Y-46034988D01*
X135222085Y-45937509D01*
X135222080Y-45937503D01*
X135142496Y-45857919D01*
X135142490Y-45857914D01*
X135045011Y-45801633D01*
X135045008Y-45801632D01*
X134936287Y-45772501D01*
X134936282Y-45772500D01*
X134936281Y-45772500D01*
X134823719Y-45772500D01*
X134823718Y-45772500D01*
X134823712Y-45772501D01*
X134714991Y-45801632D01*
X134714988Y-45801633D01*
X134617509Y-45857914D01*
X134617503Y-45857919D01*
X134537919Y-45937503D01*
X134537914Y-45937509D01*
X134481633Y-46034988D01*
X134481632Y-46034991D01*
X134452501Y-46143712D01*
X134452500Y-46143720D01*
X101642637Y-46143720D01*
X101548475Y-45980626D01*
X101548470Y-45980620D01*
X101548468Y-45980616D01*
X101405601Y-45801468D01*
X101392358Y-45755503D01*
X101415497Y-45713636D01*
X101454465Y-45700000D01*
X119349984Y-45700000D01*
X119350000Y-45700000D01*
X119399250Y-45697598D01*
X119490253Y-45659904D01*
X119559904Y-45590253D01*
X119597598Y-45499250D01*
X119600000Y-45450000D01*
X119600000Y-45351527D01*
X119600074Y-45348483D01*
X119601873Y-45311593D01*
X119606556Y-45290720D01*
X119635340Y-45221228D01*
X119648884Y-45200958D01*
X119700958Y-45148884D01*
X119721228Y-45135340D01*
X119790722Y-45106555D01*
X119811592Y-45101873D01*
X119838583Y-45100556D01*
X119848484Y-45100074D01*
X119851528Y-45100000D01*
X157810000Y-45100000D01*
X157854194Y-45118306D01*
G37*
%TD.AperFunction*%
%TD*%
M02*
