%TF.GenerationSoftware,KiCad,Pcbnew,8.99.0-unknown-7a4b3602b9~181~ubuntu24.04.1*%
%TF.CreationDate,2024-12-15T13:41:47-05:00*%
%TF.ProjectId,nRF54L_ePaper,6e524635-344c-45f6-9550-617065722e6b,rev?*%
%TF.SameCoordinates,Original*%
%TF.FileFunction,Other,User*%
%FSLAX46Y46*%
G04 Gerber Fmt 4.6, Leading zero omitted, Abs format (unit mm)*
G04 Created by KiCad (PCBNEW 8.99.0-unknown-7a4b3602b9~181~ubuntu24.04.1) date 2024-12-15 13:41:47*
%MOMM*%
%LPD*%
G01*
G04 APERTURE LIST*
%ADD10C,0.050000*%
G04 APERTURE END LIST*
D10*
%TO.C,R7*%
X101270000Y-60230000D02*
X103130000Y-60230000D01*
X101270000Y-61170000D02*
X101270000Y-60230000D01*
X103130000Y-60230000D02*
X103130000Y-61170000D01*
X103130000Y-61170000D02*
X101270000Y-61170000D01*
%TO.C,R9*%
X151660000Y-66830000D02*
X153520000Y-66830000D01*
X151660000Y-67770000D02*
X151660000Y-66830000D01*
X153520000Y-66830000D02*
X153520000Y-67770000D01*
X153520000Y-67770000D02*
X151660000Y-67770000D01*
%TO.C,R8*%
X100730000Y-66370000D02*
X101670000Y-66370000D01*
X100730000Y-68230000D02*
X100730000Y-66370000D01*
X101670000Y-66370000D02*
X101670000Y-68230000D01*
X101670000Y-68230000D02*
X100730000Y-68230000D01*
%TO.C,C23*%
X143065000Y-55465000D02*
X144885000Y-55465000D01*
X143065000Y-56385000D02*
X143065000Y-55465000D01*
X144885000Y-55465000D02*
X144885000Y-56385000D01*
X144885000Y-56385000D02*
X143065000Y-56385000D01*
%TO.C,D1*%
X135225000Y-45525000D02*
X137525000Y-45525000D01*
X135225000Y-50225000D02*
X135225000Y-45525000D01*
X135225000Y-50225000D02*
X137525000Y-50225000D01*
X137525000Y-45525000D02*
X137525000Y-50225000D01*
%TO.C,J2*%
X145300000Y-46600000D02*
X145300000Y-59400000D01*
X145300000Y-59400000D02*
X146800000Y-59400000D01*
X146800000Y-43700000D02*
X146800000Y-46600000D01*
X146800000Y-46600000D02*
X145300000Y-46600000D01*
X146800000Y-59400000D02*
X146800000Y-62300000D01*
X146800000Y-62300000D02*
X152200000Y-62300000D01*
X152200000Y-43700000D02*
X146800000Y-43700000D01*
X152200000Y-62300000D02*
X152200000Y-43700000D01*
%TO.C,C14*%
X143090000Y-46240000D02*
X144910000Y-46240000D01*
X143090000Y-47160000D02*
X143090000Y-46240000D01*
X144910000Y-46240000D02*
X144910000Y-47160000D01*
X144910000Y-47160000D02*
X143090000Y-47160000D01*
%TO.C,JP1*%
X119850000Y-55750000D02*
X119850000Y-52450000D01*
X119850000Y-55750000D02*
X122350000Y-55750000D01*
X122350000Y-52450000D02*
X119850000Y-52450000D01*
X122350000Y-52450000D02*
X122350000Y-55750000D01*
%TO.C,D3*%
X137600000Y-45550000D02*
X142300000Y-45550000D01*
X137600000Y-47850000D02*
X137600000Y-45550000D01*
X142300000Y-47850000D02*
X137600000Y-47850000D01*
X142300000Y-47850000D02*
X142300000Y-45550000D01*
%TO.C,C24*%
X143065000Y-56340000D02*
X144885000Y-56340000D01*
X143065000Y-57260000D02*
X143065000Y-56340000D01*
X144885000Y-56340000D02*
X144885000Y-57260000D01*
X144885000Y-57260000D02*
X143065000Y-57260000D01*
%TO.C,C20*%
X143090000Y-50740000D02*
X144910000Y-50740000D01*
X143090000Y-51660000D02*
X143090000Y-50740000D01*
X144910000Y-50740000D02*
X144910000Y-51660000D01*
X144910000Y-51660000D02*
X143090000Y-51660000D01*
%TO.C,R1*%
X144230000Y-58070000D02*
X145170000Y-58070000D01*
X144230000Y-59930000D02*
X144230000Y-58070000D01*
X145170000Y-58070000D02*
X145170000Y-59930000D01*
X145170000Y-59930000D02*
X144230000Y-59930000D01*
%TO.C,C15*%
X143090000Y-47140000D02*
X144910000Y-47140000D01*
X143090000Y-48060000D02*
X143090000Y-47140000D01*
X144910000Y-47140000D02*
X144910000Y-48060000D01*
X144910000Y-48060000D02*
X143090000Y-48060000D01*
%TO.C,R3*%
X142670000Y-57320000D02*
X144130000Y-57320000D01*
X142670000Y-60280000D02*
X142670000Y-57320000D01*
X144130000Y-57320000D02*
X144130000Y-60280000D01*
X144130000Y-60280000D02*
X142670000Y-60280000D01*
%TO.C,C22*%
X143090000Y-51940000D02*
X144910000Y-51940000D01*
X143090000Y-52860000D02*
X143090000Y-51940000D01*
X144910000Y-51940000D02*
X144910000Y-52860000D01*
X144910000Y-52860000D02*
X143090000Y-52860000D01*
%TO.C,C19*%
X143090000Y-49840000D02*
X144910000Y-49840000D01*
X143090000Y-50760000D02*
X143090000Y-49840000D01*
X144910000Y-49840000D02*
X144910000Y-50760000D01*
X144910000Y-50760000D02*
X143090000Y-50760000D01*
%TO.C,R10*%
X153560000Y-66830000D02*
X155420000Y-66830000D01*
X153560000Y-67770000D02*
X153560000Y-66830000D01*
X155420000Y-66830000D02*
X155420000Y-67770000D01*
X155420000Y-67770000D02*
X153560000Y-67770000D01*
%TO.C,BT1*%
X113050000Y-60950000D02*
X113050000Y-67050000D01*
X117950000Y-59550000D02*
X117950000Y-60950000D01*
X117950000Y-60950000D02*
X113050000Y-60950000D01*
X117950000Y-67050000D02*
X113050000Y-67050000D01*
X117950000Y-74450000D02*
X117950000Y-67050000D01*
X125000000Y-53000000D02*
X117950000Y-59550000D01*
X133000000Y-53000000D02*
X125000000Y-53000000D01*
X140050000Y-59550000D02*
X133000000Y-53000000D01*
X140050000Y-59550000D02*
X140050000Y-60950000D01*
X140050000Y-74450000D02*
X117950000Y-74450000D01*
X140050000Y-74450000D02*
X140050000Y-67050000D01*
X144950000Y-60950000D02*
X140050000Y-60950000D01*
X144950000Y-67050000D02*
X140050000Y-67050000D01*
X144950000Y-67050000D02*
X144950000Y-60950000D01*
%TO.C,D4*%
X100740000Y-68470000D02*
X103660000Y-68470000D01*
X100740000Y-73030000D02*
X100740000Y-68470000D01*
X103660000Y-68470000D02*
X103660000Y-73030000D01*
X103660000Y-73030000D02*
X100740000Y-73030000D01*
%TO.C,Q2*%
X100500000Y-61280000D02*
X100500000Y-65120000D01*
X100500000Y-65120000D02*
X103900000Y-65120000D01*
X103900000Y-61280000D02*
X100500000Y-61280000D01*
X103900000Y-65120000D02*
X103900000Y-61280000D01*
%TO.C,C18*%
X143090000Y-48940000D02*
X144910000Y-48940000D01*
X143090000Y-49860000D02*
X143090000Y-48940000D01*
X144910000Y-48940000D02*
X144910000Y-49860000D01*
X144910000Y-49860000D02*
X143090000Y-49860000D01*
%TO.C,D2*%
X137605000Y-47850000D02*
X142305000Y-47850000D01*
X137605000Y-50150000D02*
X137605000Y-47850000D01*
X142305000Y-50150000D02*
X137605000Y-50150000D01*
X142305000Y-50150000D02*
X142305000Y-47850000D01*
%TO.C,C17*%
X143090000Y-48040000D02*
X144910000Y-48040000D01*
X143090000Y-48960000D02*
X143090000Y-48040000D01*
X144910000Y-48040000D02*
X144910000Y-48960000D01*
X144910000Y-48960000D02*
X143090000Y-48960000D01*
%TO.C,SW5*%
X140900000Y-67950000D02*
X149700000Y-67950000D01*
X140900000Y-72500000D02*
X140900000Y-67950000D01*
X143650000Y-72500000D02*
X140900000Y-72500000D01*
X143650000Y-73800000D02*
X143650000Y-72500000D01*
X146950000Y-72500000D02*
X146950000Y-73800000D01*
X146950000Y-73800000D02*
X143650000Y-73800000D01*
X149700000Y-67950000D02*
X149700000Y-72500000D01*
X149700000Y-72500000D02*
X146950000Y-72500000D01*
%TO.C,C1*%
X114820000Y-52400000D02*
X116780000Y-52400000D01*
X114820000Y-55800000D02*
X114820000Y-52400000D01*
X116780000Y-52400000D02*
X116780000Y-55800000D01*
X116780000Y-55800000D02*
X114820000Y-55800000D01*
%TO.C,C21*%
X143090000Y-52840000D02*
X144910000Y-52840000D01*
X143090000Y-53760000D02*
X143090000Y-52840000D01*
X144910000Y-52840000D02*
X144910000Y-53760000D01*
X144910000Y-53760000D02*
X143090000Y-53760000D01*
%TO.C,Y2*%
X110000000Y-55875000D02*
X110000000Y-58475000D01*
X110000000Y-58475000D02*
X111800000Y-58475000D01*
X111800000Y-55875000D02*
X110000000Y-55875000D01*
X111800000Y-58475000D02*
X111800000Y-55875000D01*
%TO.C,C13*%
X143090000Y-45340000D02*
X144910000Y-45340000D01*
X143090000Y-46260000D02*
X143090000Y-45340000D01*
X144910000Y-45340000D02*
X144910000Y-46260000D01*
X144910000Y-46260000D02*
X143090000Y-46260000D01*
%TO.C,C2*%
X135650000Y-50290000D02*
X137610000Y-50290000D01*
X135650000Y-53690000D02*
X135650000Y-50290000D01*
X137610000Y-50290000D02*
X137610000Y-53690000D01*
X137610000Y-53690000D02*
X135650000Y-53690000D01*
%TO.C,Q1*%
X137687500Y-50230000D02*
X137687500Y-54070000D01*
X137687500Y-54070000D02*
X141087500Y-54070000D01*
X141087500Y-50230000D02*
X137687500Y-50230000D01*
X141087500Y-54070000D02*
X141087500Y-50230000D01*
%TO.C,U1*%
X103600000Y-55800000D02*
X114600000Y-55800000D01*
X114600000Y-39000000D01*
X103600000Y-39000000D01*
X103600000Y-55800000D01*
%TO.C,L4*%
X141350000Y-50250000D02*
X143050000Y-50250000D01*
X141350000Y-53750000D02*
X141350000Y-50250000D01*
X143050000Y-50250000D02*
X143050000Y-53750000D01*
X143050000Y-53750000D02*
X141350000Y-53750000D01*
%TD*%
M02*
