%TF.GenerationSoftware,KiCad,Pcbnew,8.99.0-unknown-7a4b3602b9~181~ubuntu24.04.1*%
%TF.CreationDate,2024-12-15T13:41:47-05:00*%
%TF.ProjectId,nRF54L_ePaper,6e524635-344c-45f6-9550-617065722e6b,rev?*%
%TF.SameCoordinates,Original*%
%TF.FileFunction,Legend,Bot*%
%TF.FilePolarity,Positive*%
%FSLAX46Y46*%
G04 Gerber Fmt 4.6, Leading zero omitted, Abs format (unit mm)*
G04 Created by KiCad (PCBNEW 8.99.0-unknown-7a4b3602b9~181~ubuntu24.04.1) date 2024-12-15 13:41:47*
%MOMM*%
%LPD*%
G01*
G04 APERTURE LIST*
%ADD10C,0.100000*%
%ADD11C,0.120000*%
%ADD12C,0.150000*%
G04 APERTURE END LIST*
D10*
X145602306Y-43762419D02*
X146173734Y-43762419D01*
X145888020Y-43762419D02*
X145888020Y-42762419D01*
X145888020Y-42762419D02*
X145983258Y-42905276D01*
X145983258Y-42905276D02*
X146078496Y-43000514D01*
X146078496Y-43000514D02*
X146173734Y-43048133D01*
D11*
%TO.C,R7*%
X102353641Y-60320000D02*
X102046359Y-60320000D01*
X102353641Y-61080000D02*
X102046359Y-61080000D01*
%TO.C,R9*%
X152743641Y-66920000D02*
X152436359Y-66920000D01*
X152743641Y-67680000D02*
X152436359Y-67680000D01*
%TO.C,R8*%
X100820000Y-67453641D02*
X100820000Y-67146359D01*
X101580000Y-67453641D02*
X101580000Y-67146359D01*
%TO.C,C23*%
X144082836Y-55565000D02*
X143867164Y-55565000D01*
X144082836Y-56285000D02*
X143867164Y-56285000D01*
%TO.C,D1*%
X135375000Y-46225000D02*
X135375000Y-50235000D01*
X135375000Y-50235000D02*
X137375000Y-50235000D01*
X137375000Y-46225000D02*
X137375000Y-50235000D01*
%TO.C,J2*%
X145800000Y-46900000D02*
X147100000Y-46900000D01*
X147100000Y-44600000D02*
X147100000Y-46900000D01*
X147100000Y-61400000D02*
X147100000Y-59100000D01*
X151180000Y-44630000D02*
X150500000Y-44630000D01*
X151180000Y-61370000D02*
X150500000Y-61370000D01*
%TO.C,C14*%
X144107836Y-46340000D02*
X143892164Y-46340000D01*
X144107836Y-47060000D02*
X143892164Y-47060000D01*
%TO.C,JP1*%
X120100000Y-54800000D02*
X120100000Y-53400000D01*
X120800000Y-52700000D02*
X121400000Y-52700000D01*
X121400000Y-55500000D02*
X120800000Y-55500000D01*
X122100000Y-53400000D02*
X122100000Y-54800000D01*
X120100000Y-53400000D02*
G75*
G02*
X120800000Y-52700000I700000J0D01*
G01*
X120800000Y-55500000D02*
G75*
G02*
X120100000Y-54800000I-1J699999D01*
G01*
X121400000Y-52700000D02*
G75*
G02*
X122100000Y-53400000I0J-700000D01*
G01*
X122100000Y-54800000D02*
G75*
G02*
X121400000Y-55500000I-699999J-1D01*
G01*
%TO.C,D3*%
X138300000Y-45700000D02*
X142310000Y-45700000D01*
X138300000Y-47700000D02*
X142310000Y-47700000D01*
X142310000Y-47700000D02*
X142310000Y-45700000D01*
%TO.C,C24*%
X144082836Y-56440000D02*
X143867164Y-56440000D01*
X144082836Y-57160000D02*
X143867164Y-57160000D01*
%TO.C,C20*%
X144107836Y-50840000D02*
X143892164Y-50840000D01*
X144107836Y-51560000D02*
X143892164Y-51560000D01*
%TO.C,R1*%
X144320000Y-59153641D02*
X144320000Y-58846359D01*
X145080000Y-59153641D02*
X145080000Y-58846359D01*
%TO.C,C15*%
X144107836Y-47240000D02*
X143892164Y-47240000D01*
X144107836Y-47960000D02*
X143892164Y-47960000D01*
%TO.C,R3*%
X142877500Y-59037258D02*
X142877500Y-58562742D01*
X143922500Y-59037258D02*
X143922500Y-58562742D01*
%TO.C,C22*%
X144107836Y-52040000D02*
X143892164Y-52040000D01*
X144107836Y-52760000D02*
X143892164Y-52760000D01*
%TO.C,C19*%
X144107836Y-49940000D02*
X143892164Y-49940000D01*
X144107836Y-50660000D02*
X143892164Y-50660000D01*
%TO.C,R10*%
X154336359Y-66920000D02*
X154643641Y-66920000D01*
X154336359Y-67680000D02*
X154643641Y-67680000D01*
%TO.C,BT1*%
X113250000Y-66800000D02*
X113250000Y-61200000D01*
X118320000Y-59750000D02*
X118320000Y-61200000D01*
X118320000Y-61200000D02*
X113250000Y-61200000D01*
X118320000Y-66800000D02*
X113250000Y-66800000D01*
X118320000Y-70280000D02*
X118320000Y-66800000D01*
X125200000Y-53370000D02*
X118320000Y-59750000D01*
X125200000Y-53370000D02*
X132800000Y-53370000D01*
X132800000Y-53370000D02*
X139680000Y-59750000D01*
X139680000Y-59750000D02*
X139680000Y-61200000D01*
X139680000Y-66800000D02*
X144750000Y-66800000D01*
X139680000Y-70350000D02*
X139680000Y-66800000D01*
X144750000Y-61200000D02*
X139680000Y-61200000D01*
X144750000Y-66800000D02*
X144750000Y-61200000D01*
X123830001Y-72330001D02*
G75*
G02*
X134306422Y-72467392I5169999J-5270000D01*
G01*
%TO.C,D4*%
X100740000Y-68465000D02*
X100740000Y-72350000D01*
X103660000Y-68465000D02*
X100740000Y-68465000D01*
X103660000Y-72350000D02*
X103660000Y-68465000D01*
%TO.C,Q2*%
X100640000Y-62550000D02*
X100640000Y-63200000D01*
X100640000Y-63850000D02*
X100640000Y-63200000D01*
X103760000Y-62550000D02*
X103760000Y-63200000D01*
X103760000Y-63850000D02*
X103760000Y-63200000D01*
X100690000Y-62037500D02*
X100360000Y-62277500D01*
X100360000Y-61797500D01*
X100690000Y-62037500D01*
G36*
X100690000Y-62037500D02*
G01*
X100360000Y-62277500D01*
X100360000Y-61797500D01*
X100690000Y-62037500D01*
G37*
%TO.C,C18*%
X144107836Y-49040000D02*
X143892164Y-49040000D01*
X144107836Y-49760000D02*
X143892164Y-49760000D01*
%TO.C,D2*%
X138305000Y-48000000D02*
X142315000Y-48000000D01*
X138305000Y-50000000D02*
X142315000Y-50000000D01*
X142315000Y-50000000D02*
X142315000Y-48000000D01*
%TO.C,C17*%
X144107836Y-48140000D02*
X143892164Y-48140000D01*
X144107836Y-48860000D02*
X143892164Y-48860000D01*
%TO.C,SW5*%
X141850000Y-70330000D02*
X141850000Y-71120000D01*
X142450000Y-72130000D02*
X148150000Y-72130000D01*
X143700000Y-69280000D02*
X143900000Y-69280000D01*
X145200000Y-69280000D02*
X146900000Y-69280000D01*
X145400000Y-72130000D02*
X145400000Y-73420000D01*
X145600000Y-73630000D02*
X145400000Y-73420000D01*
X145600000Y-73630000D02*
X146500000Y-73630000D01*
X146500000Y-73630000D02*
X146700000Y-73420000D01*
X146700000Y-73420000D02*
X146700000Y-72130000D01*
X148750000Y-71120000D02*
X148750000Y-70330000D01*
%TO.C,C1*%
X115065000Y-53838748D02*
X115065000Y-54361252D01*
X116535000Y-53838748D02*
X116535000Y-54361252D01*
%TO.C,C21*%
X144107836Y-52940000D02*
X143892164Y-52940000D01*
X144107836Y-53660000D02*
X143892164Y-53660000D01*
%TO.C,Y2*%
X110100000Y-55975000D02*
X110100000Y-58375000D01*
X110100000Y-58375000D02*
X111700000Y-58375000D01*
X111700000Y-58375000D02*
X111700000Y-55975000D01*
%TO.C,C13*%
X144107836Y-45440000D02*
X143892164Y-45440000D01*
X144107836Y-46160000D02*
X143892164Y-46160000D01*
%TO.C,C2*%
X135895000Y-51728748D02*
X135895000Y-52251252D01*
X137365000Y-51728748D02*
X137365000Y-52251252D01*
%TO.C,Q1*%
X137827500Y-51500000D02*
X137827500Y-52150000D01*
X137827500Y-52800000D02*
X137827500Y-52150000D01*
X140947500Y-51500000D02*
X140947500Y-52150000D01*
X140947500Y-52800000D02*
X140947500Y-52150000D01*
X141227500Y-53552500D02*
X140897500Y-53312500D01*
X141227500Y-53072500D01*
X141227500Y-53552500D01*
G36*
X141227500Y-53552500D02*
G01*
X140897500Y-53312500D01*
X141227500Y-53072500D01*
X141227500Y-53552500D01*
G37*
D12*
%TO.C,U1*%
X103700000Y-39100000D02*
X104700000Y-39100000D01*
X103700000Y-40100000D02*
X103700000Y-39100000D01*
X103700000Y-55700000D02*
X103700000Y-54700000D01*
X104700000Y-55700000D02*
X103700000Y-55700000D01*
X113500000Y-55700000D02*
X114500000Y-55700000D01*
X114500000Y-39100000D02*
X114500000Y-40100000D01*
X114500000Y-55700000D02*
X114500000Y-54700000D01*
D11*
%TO.C,L4*%
X141640000Y-52399622D02*
X141640000Y-51600378D01*
X142760000Y-52399622D02*
X142760000Y-51600378D01*
%TD*%
M02*
