%TF.GenerationSoftware,KiCad,Pcbnew,8.99.0-unknown-7a4b3602b9~181~ubuntu24.04.1*%
%TF.CreationDate,2024-12-15T13:41:47-05:00*%
%TF.ProjectId,nRF54L_ePaper,6e524635-344c-45f6-9550-617065722e6b,rev?*%
%TF.SameCoordinates,Original*%
%TF.FileFunction,Profile,NP*%
%FSLAX46Y46*%
G04 Gerber Fmt 4.6, Leading zero omitted, Abs format (unit mm)*
G04 Created by KiCad (PCBNEW 8.99.0-unknown-7a4b3602b9~181~ubuntu24.04.1) date 2024-12-15 13:41:47*
%MOMM*%
%LPD*%
G01*
G04 APERTURE LIST*
%TA.AperFunction,Profile*%
%ADD10C,0.200000*%
%TD*%
%TA.AperFunction,Profile*%
%ADD11C,0.050000*%
%TD*%
G04 APERTURE END LIST*
D10*
X158000000Y-73000000D02*
G75*
G02*
X157000000Y-74000000I-1000000J0D01*
G01*
D11*
X157020000Y-72500000D02*
G75*
G02*
X156520000Y-73000000I-500000J0D01*
G01*
X156020000Y-71500000D02*
G75*
G02*
X155520000Y-72000000I-500000J0D01*
G01*
D10*
X100000000Y-48600000D02*
G75*
G02*
X100200000Y-48400000I200000J0D01*
G01*
D11*
X155270000Y-69250000D02*
G75*
G02*
X154770000Y-68750000I0J500000D01*
G01*
D10*
X140312500Y-74000000D02*
G75*
G02*
X140112500Y-73800000I0J200000D01*
G01*
X116037500Y-74000000D02*
G75*
G02*
X115837500Y-73800000I0J200000D01*
G01*
D11*
X151020000Y-69750000D02*
G75*
G02*
X151520000Y-69250000I500000J0D01*
G01*
X150520000Y-68250000D02*
X151770000Y-68250000D01*
X156520000Y-68250000D02*
G75*
G02*
X157020000Y-68750000I0J-500000D01*
G01*
X155520000Y-69250000D02*
X155270000Y-69250000D01*
D10*
X100200000Y-45400000D02*
G75*
G02*
X100000000Y-45200000I0J200000D01*
G01*
D11*
X151520000Y-72000000D02*
G75*
G02*
X151020000Y-71500000I0J500000D01*
G01*
D10*
X100000000Y-45200000D02*
X100000000Y-40000000D01*
D11*
X155520000Y-69250000D02*
G75*
G02*
X156020000Y-69750000I0J-500000D01*
G01*
D10*
X157000000Y-74000000D02*
X140312500Y-74000000D01*
X100000000Y-40000000D02*
G75*
G02*
X101000000Y-39000000I1000000J0D01*
G01*
D11*
X157020000Y-68750000D02*
X157020000Y-72500000D01*
X155270000Y-68250000D02*
X156520000Y-68250000D01*
D10*
X112837500Y-73800000D02*
G75*
G02*
X112637500Y-74000000I-200000J0D01*
G01*
X112837500Y-73800000D02*
G75*
G02*
X115837500Y-73800000I1500000J0D01*
G01*
X137112500Y-73800000D02*
G75*
G02*
X136912500Y-74000000I-200000J0D01*
G01*
X157000000Y-39000000D02*
G75*
G02*
X158000000Y-40000000I0J-1000000D01*
G01*
D11*
X154770000Y-68750000D02*
G75*
G02*
X155270000Y-68250000I500000J0D01*
G01*
X150020000Y-68750000D02*
G75*
G02*
X150520000Y-68250000I500000J0D01*
G01*
X157000000Y-41000000D02*
G75*
G02*
X155000000Y-41000000I-1000000J0D01*
G01*
X155000000Y-41000000D02*
G75*
G02*
X157000000Y-41000000I1000000J0D01*
G01*
X152270000Y-68750000D02*
G75*
G02*
X151770000Y-69250000I-500000J0D01*
G01*
X155520000Y-72000000D02*
X151520000Y-72000000D01*
D10*
X101000000Y-74000000D02*
G75*
G02*
X100000000Y-73000000I0J1000000D01*
G01*
D11*
X156520000Y-73000000D02*
X150520000Y-73000000D01*
D10*
X136912500Y-74000000D02*
X116037500Y-74000000D01*
X101000000Y-39000000D02*
X157000000Y-39000000D01*
X158000000Y-40000000D02*
X158000000Y-73000000D01*
D11*
X150520000Y-73000000D02*
G75*
G02*
X150020000Y-72500000I0J500000D01*
G01*
X151020000Y-71500000D02*
X151020000Y-69750000D01*
X151770000Y-68250000D02*
G75*
G02*
X152270000Y-68750000I0J-500000D01*
G01*
X156020000Y-71500000D02*
X156020000Y-69750000D01*
X151770000Y-69250000D02*
X151520000Y-69250000D01*
D10*
X112637500Y-74000000D02*
X101000000Y-74000000D01*
X137112500Y-73800000D02*
G75*
G02*
X140112500Y-73800000I1500000J0D01*
G01*
X100200000Y-45400000D02*
G75*
G02*
X100200000Y-48400000I0J-1500000D01*
G01*
D11*
X150020000Y-72500000D02*
X150020000Y-68750000D01*
D10*
X100000000Y-48600000D02*
X100000000Y-73000000D01*
M02*
