%TF.GenerationSoftware,KiCad,Pcbnew,8.99.0-unknown-7a4b3602b9~181~ubuntu24.04.1*%
%TF.CreationDate,2024-12-15T13:41:47-05:00*%
%TF.ProjectId,nRF54L_ePaper,6e524635-344c-45f6-9550-617065722e6b,rev?*%
%TF.SameCoordinates,Original*%
%TF.FileFunction,Other,User*%
%FSLAX46Y46*%
G04 Gerber Fmt 4.6, Leading zero omitted, Abs format (unit mm)*
G04 Created by KiCad (PCBNEW 8.99.0-unknown-7a4b3602b9~181~ubuntu24.04.1) date 2024-12-15 13:41:47*
%MOMM*%
%LPD*%
G01*
G04 APERTURE LIST*
%ADD10C,0.050000*%
G04 APERTURE END LIST*
D10*
%TO.C,JP2*%
X116500000Y-52425000D02*
X116500000Y-58575000D01*
X116500000Y-58575000D02*
X120100000Y-58575000D01*
X120100000Y-52425000D02*
X116500000Y-52425000D01*
X120100000Y-58575000D02*
X120100000Y-52425000D01*
%TO.C,SW3*%
X129693750Y-68900000D02*
X135393750Y-68900000D01*
X129693750Y-72600000D02*
X129693750Y-68900000D01*
X135393750Y-68900000D02*
X135393750Y-72600000D01*
X135393750Y-72600000D02*
X129693750Y-72600000D01*
%TO.C,J1*%
X99800000Y-48700000D02*
X99800000Y-59900000D01*
X99800000Y-59900000D02*
X103400000Y-59900000D01*
X103400000Y-48700000D02*
X99800000Y-48700000D01*
X103400000Y-59900000D02*
X103400000Y-48700000D01*
%TO.C,C25*%
X152610000Y-68790000D02*
X154430000Y-68790000D01*
X152610000Y-69710000D02*
X152610000Y-68790000D01*
X154430000Y-68790000D02*
X154430000Y-69710000D01*
X154430000Y-69710000D02*
X152610000Y-69710000D01*
%TO.C,SW4*%
X141831250Y-68900000D02*
X147531250Y-68900000D01*
X141831250Y-72600000D02*
X141831250Y-68900000D01*
X147531250Y-68900000D02*
X147531250Y-72600000D01*
X147531250Y-72600000D02*
X141831250Y-72600000D01*
%TO.C,SW2*%
X117556250Y-68900000D02*
X123256250Y-68900000D01*
X117556250Y-72600000D02*
X117556250Y-68900000D01*
X123256250Y-68900000D02*
X123256250Y-72600000D01*
X123256250Y-72600000D02*
X117556250Y-72600000D01*
%TO.C,U2*%
X152320000Y-69750000D02*
X152320000Y-71750000D01*
X152320000Y-71750000D02*
X154720000Y-71750000D01*
X154720000Y-69750000D02*
X152320000Y-69750000D01*
X154720000Y-71750000D02*
X154720000Y-69750000D01*
%TO.C,SW1*%
X105418750Y-68900000D02*
X111118750Y-68900000D01*
X105418750Y-72600000D02*
X105418750Y-68900000D01*
X111118750Y-68900000D02*
X111118750Y-72600000D01*
X111118750Y-72600000D02*
X105418750Y-72600000D01*
%TO.C,J4*%
X110837500Y-68750000D02*
X117837500Y-68750000D01*
X110837500Y-72750000D02*
X110837500Y-68750000D01*
X117837500Y-68750000D02*
X117837500Y-72750000D01*
X117837500Y-72750000D02*
X110837500Y-72750000D01*
%TD*%
M02*
