%TF.GenerationSoftware,KiCad,Pcbnew,8.99.0-unknown-7a4b3602b9~181~ubuntu24.04.1*%
%TF.CreationDate,2024-12-15T13:41:47-05:00*%
%TF.ProjectId,nRF54L_ePaper,6e524635-344c-45f6-9550-617065722e6b,rev?*%
%TF.SameCoordinates,Original*%
%TF.FileFunction,Copper,L4,Bot*%
%TF.FilePolarity,Positive*%
%FSLAX46Y46*%
G04 Gerber Fmt 4.6, Leading zero omitted, Abs format (unit mm)*
G04 Created by KiCad (PCBNEW 8.99.0-unknown-7a4b3602b9~181~ubuntu24.04.1) date 2024-12-15 13:41:47*
%MOMM*%
%LPD*%
G01*
G04 APERTURE LIST*
G04 Aperture macros list*
%AMRoundRect*
0 Rectangle with rounded corners*
0 $1 Rounding radius*
0 $2 $3 $4 $5 $6 $7 $8 $9 X,Y pos of 4 corners*
0 Add a 4 corners polygon primitive as box body*
4,1,4,$2,$3,$4,$5,$6,$7,$8,$9,$2,$3,0*
0 Add four circle primitives for the rounded corners*
1,1,$1+$1,$2,$3*
1,1,$1+$1,$4,$5*
1,1,$1+$1,$6,$7*
1,1,$1+$1,$8,$9*
0 Add four rect primitives between the rounded corners*
20,1,$1+$1,$2,$3,$4,$5,0*
20,1,$1+$1,$4,$5,$6,$7,0*
20,1,$1+$1,$6,$7,$8,$9,0*
20,1,$1+$1,$8,$9,$2,$3,0*%
%AMFreePoly0*
4,1,23,0.500000,-0.750000,0.000000,-0.750000,0.000000,-0.745722,-0.065263,-0.745722,-0.191342,-0.711940,-0.304381,-0.646677,-0.396677,-0.554381,-0.461940,-0.441342,-0.495722,-0.315263,-0.495722,-0.250000,-0.500000,-0.250000,-0.500000,0.250000,-0.495722,0.250000,-0.495722,0.315263,-0.461940,0.441342,-0.396677,0.554381,-0.304381,0.646677,-0.191342,0.711940,-0.065263,0.745722,0.000000,0.745722,
0.000000,0.750000,0.500000,0.750000,0.500000,-0.750000,0.500000,-0.750000,$1*%
%AMFreePoly1*
4,1,23,0.000000,0.745722,0.065263,0.745722,0.191342,0.711940,0.304381,0.646677,0.396677,0.554381,0.461940,0.441342,0.495722,0.315263,0.495722,0.250000,0.500000,0.250000,0.500000,-0.250000,0.495722,-0.250000,0.495722,-0.315263,0.461940,-0.441342,0.396677,-0.554381,0.304381,-0.646677,0.191342,-0.711940,0.065263,-0.745722,0.000000,-0.745722,0.000000,-0.750000,-0.500000,-0.750000,
-0.500000,0.750000,0.000000,0.750000,0.000000,0.745722,0.000000,0.745722,$1*%
G04 Aperture macros list end*
%TA.AperFunction,EtchedComponent*%
%ADD10C,0.000000*%
%TD*%
%TA.AperFunction,ComponentPad*%
%ADD11R,1.700000X1.700000*%
%TD*%
%TA.AperFunction,ComponentPad*%
%ADD12O,1.700000X1.700000*%
%TD*%
%TA.AperFunction,SMDPad,CuDef*%
%ADD13RoundRect,0.135000X-0.135000X-0.185000X0.135000X-0.185000X0.135000X0.185000X-0.135000X0.185000X0*%
%TD*%
%TA.AperFunction,SMDPad,CuDef*%
%ADD14RoundRect,0.135000X-0.185000X0.135000X-0.185000X-0.135000X0.185000X-0.135000X0.185000X0.135000X0*%
%TD*%
%TA.AperFunction,SMDPad,CuDef*%
%ADD15RoundRect,0.140000X-0.140000X-0.170000X0.140000X-0.170000X0.140000X0.170000X-0.140000X0.170000X0*%
%TD*%
%TA.AperFunction,SMDPad,CuDef*%
%ADD16RoundRect,0.225000X0.375000X-0.225000X0.375000X0.225000X-0.375000X0.225000X-0.375000X-0.225000X0*%
%TD*%
%TA.AperFunction,SMDPad,CuDef*%
%ADD17R,1.300000X0.300000*%
%TD*%
%TA.AperFunction,SMDPad,CuDef*%
%ADD18R,3.000000X2.000000*%
%TD*%
%TA.AperFunction,SMDPad,CuDef*%
%ADD19FreePoly0,90.000000*%
%TD*%
%TA.AperFunction,SMDPad,CuDef*%
%ADD20FreePoly1,90.000000*%
%TD*%
%TA.AperFunction,SMDPad,CuDef*%
%ADD21RoundRect,0.225000X0.225000X0.375000X-0.225000X0.375000X-0.225000X-0.375000X0.225000X-0.375000X0*%
%TD*%
%TA.AperFunction,SMDPad,CuDef*%
%ADD22RoundRect,0.200000X-0.275000X0.200000X-0.275000X-0.200000X0.275000X-0.200000X0.275000X0.200000X0*%
%TD*%
%TA.AperFunction,SMDPad,CuDef*%
%ADD23RoundRect,0.135000X0.135000X0.185000X-0.135000X0.185000X-0.135000X-0.185000X0.135000X-0.185000X0*%
%TD*%
%TA.AperFunction,SMDPad,CuDef*%
%ADD24R,5.000000X5.000000*%
%TD*%
%TA.AperFunction,SMDPad,CuDef*%
%ADD25R,4.000000X4.000000*%
%TD*%
%TA.AperFunction,SMDPad,CuDef*%
%ADD26RoundRect,0.190000X-0.685000X0.285000X-0.685000X-0.285000X0.685000X-0.285000X0.685000X0.285000X0*%
%TD*%
%TA.AperFunction,SMDPad,CuDef*%
%ADD27RoundRect,0.150000X-0.150000X0.587500X-0.150000X-0.587500X0.150000X-0.587500X0.150000X0.587500X0*%
%TD*%
%TA.AperFunction,SMDPad,CuDef*%
%ADD28R,1.000000X0.800000*%
%TD*%
%TA.AperFunction,SMDPad,CuDef*%
%ADD29R,0.700000X1.500000*%
%TD*%
%TA.AperFunction,SMDPad,CuDef*%
%ADD30RoundRect,0.250000X0.475000X-0.250000X0.475000X0.250000X-0.475000X0.250000X-0.475000X-0.250000X0*%
%TD*%
%TA.AperFunction,SMDPad,CuDef*%
%ADD31R,1.100000X0.600000*%
%TD*%
%TA.AperFunction,SMDPad,CuDef*%
%ADD32RoundRect,0.150000X0.150000X-0.587500X0.150000X0.587500X-0.150000X0.587500X-0.150000X-0.587500X0*%
%TD*%
%TA.AperFunction,SMDPad,CuDef*%
%ADD33C,0.400000*%
%TD*%
%TA.AperFunction,SMDPad,CuDef*%
%ADD34R,0.400000X0.500000*%
%TD*%
%TA.AperFunction,SMDPad,CuDef*%
%ADD35RoundRect,0.218750X-0.381250X0.218750X-0.381250X-0.218750X0.381250X-0.218750X0.381250X0.218750X0*%
%TD*%
%TA.AperFunction,ViaPad*%
%ADD36C,0.600000*%
%TD*%
%TA.AperFunction,Conductor*%
%ADD37C,0.250000*%
%TD*%
%TA.AperFunction,Conductor*%
%ADD38C,0.500000*%
%TD*%
%TA.AperFunction,Conductor*%
%ADD39C,0.150000*%
%TD*%
%TA.AperFunction,Conductor*%
%ADD40C,0.127000*%
%TD*%
G04 APERTURE END LIST*
D10*
%TA.AperFunction,EtchedComponent*%
%TO.C,JP1*%
G36*
X121400000Y-54350000D02*
G01*
X120800000Y-54350000D01*
X120800000Y-53850000D01*
X121400000Y-53850000D01*
X121400000Y-54350000D01*
G37*
%TD.AperFunction*%
%TD*%
D11*
%TO.P,JP2,1,A*%
%TO.N,Net-(BT1-+)*%
X118300000Y-56775000D03*
D12*
%TO.P,JP2,2,B*%
%TO.N,Net-(JP1-B)*%
X118300000Y-54235000D03*
%TD*%
D11*
%TO.P,J1,1,Pin_1*%
%TO.N,VDD*%
X101600000Y-50500000D03*
D12*
%TO.P,J1,2,Pin_2*%
%TO.N,/UART_TX*%
X101600000Y-53040000D03*
%TO.P,J1,3,Pin_3*%
%TO.N,/UART_RX*%
X101600000Y-55580000D03*
%TO.P,J1,4,Pin_4*%
%TO.N,GND*%
X101600000Y-58120000D03*
%TD*%
D13*
%TO.P,R7,1*%
%TO.N,Net-(Q2-G)*%
X101690000Y-60700000D03*
%TO.P,R7,2*%
%TO.N,GND*%
X102710000Y-60700000D03*
%TD*%
%TO.P,R9,1*%
%TO.N,VDD*%
X152080000Y-67300000D03*
%TO.P,R9,2*%
%TO.N,/SCL*%
X153100000Y-67300000D03*
%TD*%
D14*
%TO.P,R8,1*%
%TO.N,VDD*%
X101200000Y-66790000D03*
%TO.P,R8,2*%
%TO.N,Net-(D4-A)*%
X101200000Y-67810000D03*
%TD*%
D15*
%TO.P,C23,1*%
%TO.N,GND*%
X143495000Y-55925000D03*
%TO.P,C23,2*%
%TO.N,/VGH*%
X144455000Y-55925000D03*
%TD*%
D16*
%TO.P,D1,1,K*%
%TO.N,Net-(D1-K)*%
X136375000Y-49525000D03*
%TO.P,D1,2,A*%
%TO.N,/PREVGL*%
X136375000Y-46225000D03*
%TD*%
D17*
%TO.P,J2,1,Pin_1*%
%TO.N,/VCOM*%
X146450000Y-47250000D03*
%TO.P,J2,2,Pin_2*%
%TO.N,/PREVGL*%
X146450000Y-47750000D03*
%TO.P,J2,3,Pin_3*%
%TO.N,/VSL*%
X146450000Y-48250000D03*
%TO.P,J2,4,Pin_4*%
%TO.N,/PREVGH*%
X146450000Y-48750000D03*
%TO.P,J2,5,Pin_5*%
%TO.N,/VSH*%
X146450000Y-49250000D03*
%TO.P,J2,6,Pin_6*%
%TO.N,/VPP*%
X146450000Y-49750000D03*
%TO.P,J2,7,Pin_7*%
%TO.N,Net-(J2-Pin_7)*%
X146450000Y-50250000D03*
%TO.P,J2,8,Pin_8*%
%TO.N,GND*%
X146450000Y-50750000D03*
%TO.P,J2,9,Pin_9*%
%TO.N,VDD*%
X146450000Y-51250000D03*
%TO.P,J2,10,Pin_10*%
X146450000Y-51750000D03*
%TO.P,J2,11,Pin_11*%
%TO.N,/EPD_DIN*%
X146450000Y-52250000D03*
%TO.P,J2,12,Pin_12*%
%TO.N,/EPD_CLK*%
X146450000Y-52750000D03*
%TO.P,J2,13,Pin_13*%
%TO.N,/EPD_CS*%
X146450000Y-53250000D03*
%TO.P,J2,14,Pin_14*%
%TO.N,/EPD_DC*%
X146450000Y-53750000D03*
%TO.P,J2,15,Pin_15*%
%TO.N,/EPD_RST*%
X146450000Y-54250000D03*
%TO.P,J2,16,Pin_16*%
%TO.N,/EPD_BUSY*%
X146450000Y-54750000D03*
%TO.P,J2,17,Pin_17*%
%TO.N,GND*%
X146450000Y-55250000D03*
%TO.P,J2,18,Pin_18*%
%TO.N,/TSDA*%
X146450000Y-55750000D03*
%TO.P,J2,19,Pin_19*%
%TO.N,/TSCL*%
X146450000Y-56250000D03*
%TO.P,J2,20,Pin_20*%
%TO.N,/VGH*%
X146450000Y-56750000D03*
%TO.P,J2,21,Pin_21*%
%TO.N,/VGL*%
X146450000Y-57250000D03*
%TO.P,J2,22,Pin_22*%
%TO.N,/RESE*%
X146450000Y-57750000D03*
%TO.P,J2,23,Pin_23*%
%TO.N,/GDR*%
X146450000Y-58250000D03*
%TO.P,J2,24,Pin_24*%
%TO.N,/HTL_CTL*%
X146450000Y-58750000D03*
D18*
%TO.P,J2,MP,MountPin*%
%TO.N,GND*%
X148800000Y-45600000D03*
X148800000Y-60400000D03*
%TD*%
D15*
%TO.P,C14,1*%
%TO.N,GND*%
X143520000Y-46700000D03*
%TO.P,C14,2*%
%TO.N,/PREVGL*%
X144480000Y-46700000D03*
%TD*%
D19*
%TO.P,JP1,1,A*%
%TO.N,Net-(BT1-+)*%
X121100000Y-54750000D03*
D20*
%TO.P,JP1,2,B*%
%TO.N,Net-(JP1-B)*%
X121100000Y-53450000D03*
%TD*%
D21*
%TO.P,D3,1,K*%
%TO.N,GND*%
X141600000Y-46700000D03*
%TO.P,D3,2,A*%
%TO.N,Net-(D1-K)*%
X138300000Y-46700000D03*
%TD*%
D15*
%TO.P,C24,1*%
%TO.N,GND*%
X143495000Y-56800000D03*
%TO.P,C24,2*%
%TO.N,/VGL*%
X144455000Y-56800000D03*
%TD*%
%TO.P,C20,1*%
%TO.N,GND*%
X143520000Y-51200000D03*
%TO.P,C20,2*%
%TO.N,Net-(J2-Pin_7)*%
X144480000Y-51200000D03*
%TD*%
D14*
%TO.P,R1,1*%
%TO.N,/GDR*%
X144700000Y-58490000D03*
%TO.P,R1,2*%
%TO.N,GND*%
X144700000Y-59510000D03*
%TD*%
D15*
%TO.P,C15,1*%
%TO.N,GND*%
X143520000Y-47600000D03*
%TO.P,C15,2*%
%TO.N,/VSL*%
X144480000Y-47600000D03*
%TD*%
D22*
%TO.P,R3,1*%
%TO.N,/RESE*%
X143400000Y-57975000D03*
%TO.P,R3,2*%
%TO.N,GND*%
X143400000Y-59625000D03*
%TD*%
D15*
%TO.P,C22,1*%
%TO.N,GND*%
X143520000Y-52400000D03*
%TO.P,C22,2*%
%TO.N,VDD*%
X144480000Y-52400000D03*
%TD*%
%TO.P,C19,1*%
%TO.N,GND*%
X143520000Y-50300000D03*
%TO.P,C19,2*%
%TO.N,/VPP*%
X144480000Y-50300000D03*
%TD*%
D23*
%TO.P,R10,1*%
%TO.N,VDD*%
X155000000Y-67300000D03*
%TO.P,R10,2*%
%TO.N,/SDA*%
X153980000Y-67300000D03*
%TD*%
D24*
%TO.P,BT1,1,+*%
%TO.N,Net-(BT1-+)*%
X116050000Y-64000000D03*
X141950000Y-64000000D03*
D25*
%TO.P,BT1,2,-*%
%TO.N,GND*%
X129000000Y-64000000D03*
%TD*%
D26*
%TO.P,D4,1,K*%
%TO.N,Net-(D4-K)*%
X102200000Y-69200000D03*
%TO.P,D4,2,A*%
%TO.N,Net-(D4-A)*%
X102200000Y-72300000D03*
%TD*%
D27*
%TO.P,Q2,1,G*%
%TO.N,Net-(Q2-G)*%
X101250000Y-62262500D03*
%TO.P,Q2,2,S*%
%TO.N,GND*%
X103150000Y-62262500D03*
%TO.P,Q2,3,D*%
%TO.N,Net-(D4-K)*%
X102200000Y-64137500D03*
%TD*%
D15*
%TO.P,C18,1*%
%TO.N,GND*%
X143520000Y-49400000D03*
%TO.P,C18,2*%
%TO.N,/VSH*%
X144480000Y-49400000D03*
%TD*%
D21*
%TO.P,D2,1,K*%
%TO.N,/PREVGH*%
X141605000Y-49000000D03*
%TO.P,D2,2,A*%
%TO.N,Net-(D2-A)*%
X138305000Y-49000000D03*
%TD*%
D15*
%TO.P,C17,1*%
%TO.N,GND*%
X143520000Y-48500000D03*
%TO.P,C17,2*%
%TO.N,/PREVGH*%
X144480000Y-48500000D03*
%TD*%
D28*
%TO.P,SW5,*%
%TO.N,*%
X148950000Y-71830000D03*
X148950000Y-69620000D03*
X141650000Y-71830000D03*
X141650000Y-69620000D03*
D29*
%TO.P,SW5,1,A*%
%TO.N,VDD*%
X147550000Y-68970000D03*
%TO.P,SW5,2,B*%
%TO.N,Net-(JP1-B)*%
X144550000Y-68970000D03*
%TO.P,SW5,3,C*%
%TO.N,unconnected-(SW5-C-Pad3)*%
X143050000Y-68970000D03*
%TD*%
D30*
%TO.P,C1,1*%
%TO.N,GND*%
X115800000Y-55050000D03*
%TO.P,C1,2*%
%TO.N,VDD*%
X115800000Y-53150000D03*
%TD*%
D15*
%TO.P,C21,1*%
%TO.N,GND*%
X143520000Y-53300000D03*
%TO.P,C21,2*%
%TO.N,VDD*%
X144480000Y-53300000D03*
%TD*%
D31*
%TO.P,Y2,1,1*%
%TO.N,Net-(U1-P1.01)*%
X110900000Y-57875000D03*
%TO.P,Y2,2,2*%
%TO.N,Net-(U1-P1.00)*%
X110900000Y-56475000D03*
%TD*%
D15*
%TO.P,C13,1*%
%TO.N,GND*%
X143520000Y-45800000D03*
%TO.P,C13,2*%
%TO.N,/VCOM*%
X144480000Y-45800000D03*
%TD*%
D30*
%TO.P,C2,1*%
%TO.N,Net-(D2-A)*%
X136630000Y-52940000D03*
%TO.P,C2,2*%
%TO.N,Net-(D1-K)*%
X136630000Y-51040000D03*
%TD*%
D32*
%TO.P,Q1,1,G*%
%TO.N,/GDR*%
X140337500Y-53087500D03*
%TO.P,Q1,2,S*%
%TO.N,/RESE*%
X138437500Y-53087500D03*
%TO.P,Q1,3,D*%
%TO.N,Net-(D2-A)*%
X139387500Y-51212500D03*
%TD*%
D33*
%TO.P,U1,A1,GND*%
%TO.N,GND*%
X113150000Y-47600000D03*
%TO.P,U1,A3,P1.09*%
%TO.N,/EPD_DC*%
X113150000Y-49400000D03*
D34*
%TO.P,U1,A9,GND*%
%TO.N,GND*%
X113150000Y-55050000D03*
D33*
X113150000Y-54800000D03*
%TO.P,U1,B1,GND*%
X112250000Y-47600000D03*
%TO.P,U1,B2,P1.10*%
%TO.N,/EPD_DIN*%
X112250000Y-48500000D03*
%TO.P,U1,B3,P1.11*%
%TO.N,/EPD_CLK*%
X112250000Y-49400000D03*
%TO.P,U1,B4,P1.12*%
%TO.N,/EPD_CS*%
X112250000Y-50300000D03*
%TO.P,U1,B5,P1.13*%
%TO.N,/EPD_RST*%
X112250000Y-51200000D03*
%TO.P,U1,B6,P1.14*%
%TO.N,/EPD_BUSY*%
X112250000Y-52100000D03*
%TO.P,U1,B7,GND*%
%TO.N,GND*%
X112250000Y-53000000D03*
%TO.P,U1,B8,VDD*%
%TO.N,VDD*%
X112250000Y-53900000D03*
D34*
%TO.P,U1,B9,GND*%
%TO.N,GND*%
X112250000Y-55050000D03*
D33*
X112250000Y-54800000D03*
%TO.P,U1,C8,VDD*%
%TO.N,VDD*%
X111350000Y-53900000D03*
D34*
%TO.P,U1,C9,P1.01*%
%TO.N,Net-(U1-P1.01)*%
X111350000Y-55050000D03*
D33*
X111350000Y-54800000D03*
%TO.P,U1,D1,GND*%
%TO.N,GND*%
X110450000Y-47600000D03*
%TO.P,U1,D8,P1.00*%
%TO.N,Net-(U1-P1.00)*%
X110450000Y-53900000D03*
D34*
%TO.P,U1,D9,P1.02*%
%TO.N,/UART_RX*%
X110450000Y-55050000D03*
D33*
X110450000Y-54800000D03*
%TO.P,U1,E1,GND*%
%TO.N,GND*%
X109550000Y-47600000D03*
%TO.P,U1,E8,P1.03*%
%TO.N,unconnected-(U1-P1.03-PadE8)*%
X109550000Y-53900000D03*
D34*
%TO.P,U1,E9,P1.04*%
%TO.N,/UART_TX*%
X109550000Y-55050000D03*
D33*
X109550000Y-54800000D03*
%TO.P,U1,F1,GND*%
%TO.N,GND*%
X108650000Y-47600000D03*
%TO.P,U1,F8,P1.05*%
%TO.N,/SW4*%
X108650000Y-53900000D03*
D34*
%TO.P,U1,F9,P1.06*%
%TO.N,/SW3*%
X108650000Y-55050000D03*
D33*
X108650000Y-54800000D03*
%TO.P,U1,G2,~{RESET}*%
%TO.N,Net-(J4-~{RESET})*%
X107750000Y-48500000D03*
%TO.P,U1,G8,P1.08*%
%TO.N,/SW2*%
X107750000Y-53900000D03*
D34*
%TO.P,U1,G9,P1.07*%
%TO.N,/SW1*%
X107750000Y-55050000D03*
D33*
X107750000Y-54800000D03*
%TO.P,U1,H2,P0.04*%
%TO.N,/SCL*%
X106850000Y-48500000D03*
%TO.P,U1,H8,GND*%
%TO.N,GND*%
X106850000Y-53900000D03*
D34*
%TO.P,U1,H9,P2.00*%
%TO.N,unconnected-(U1-P2.00-PadH9)_1*%
X106850000Y-55050000D03*
D33*
%TO.N,unconnected-(U1-P2.00-PadH9)*%
X106850000Y-54800000D03*
%TO.P,U1,J2,P0.03*%
%TO.N,/SDA*%
X105950000Y-48500000D03*
%TO.P,U1,J3,SWDIO*%
%TO.N,Net-(J4-SWDIO)*%
X105950000Y-49400000D03*
%TO.P,U1,J4,P0.00*%
%TO.N,unconnected-(U1-P0.00-PadJ4)*%
X105950000Y-50300000D03*
%TO.P,U1,J5,P2.09*%
%TO.N,unconnected-(U1-P2.09-PadJ5)*%
X105950000Y-51200000D03*
%TO.P,U1,J6,P2.07*%
%TO.N,unconnected-(U1-P2.07-PadJ6)*%
X105950000Y-52100000D03*
%TO.P,U1,J7,P2.03*%
%TO.N,unconnected-(U1-P2.03-PadJ7)*%
X105950000Y-53000000D03*
%TO.P,U1,J8,P2.02*%
%TO.N,unconnected-(U1-P2.02-PadJ8)*%
X105950000Y-53900000D03*
D34*
%TO.P,U1,J9,P2.01*%
%TO.N,unconnected-(U1-P2.01-PadJ9)*%
X105950000Y-55050000D03*
D33*
%TO.N,unconnected-(U1-P2.01-PadJ9)_1*%
X105950000Y-54800000D03*
%TO.P,U1,K2,P0.02*%
%TO.N,Net-(Q2-G)*%
X105050000Y-48500000D03*
%TO.P,U1,K3,SWDCLK*%
%TO.N,Net-(J4-SWCLK)*%
X105050000Y-49400000D03*
%TO.P,U1,K4,P0.01*%
%TO.N,unconnected-(U1-P0.01-PadK4)*%
X105050000Y-50300000D03*
%TO.P,U1,K5,P2.10*%
%TO.N,unconnected-(U1-P2.10-PadK5)*%
X105050000Y-51200000D03*
%TO.P,U1,K6,P2.08*%
%TO.N,unconnected-(U1-P2.08-PadK6)*%
X105050000Y-52100000D03*
%TO.P,U1,K7,P2.06*%
%TO.N,unconnected-(U1-P2.06-PadK7)*%
X105050000Y-53000000D03*
%TO.P,U1,K8,P2.05*%
%TO.N,unconnected-(U1-P2.05-PadK8)*%
X105050000Y-53900000D03*
D34*
%TO.P,U1,K9,P2.04*%
%TO.N,unconnected-(U1-P2.04-PadK9)_1*%
X105050000Y-55050000D03*
D33*
%TO.N,unconnected-(U1-P2.04-PadK9)*%
X105050000Y-54800000D03*
%TD*%
D35*
%TO.P,L4,1*%
%TO.N,Net-(D2-A)*%
X142200000Y-50937500D03*
%TO.P,L4,2*%
%TO.N,VDD*%
X142200000Y-53062500D03*
%TD*%
D36*
%TO.N,VDD*%
X112130000Y-72320000D03*
X151460000Y-67300000D03*
X113600000Y-53500000D03*
X147540000Y-67830000D03*
X142200000Y-53840000D03*
X153040000Y-68600000D03*
X101190000Y-66090000D03*
X145230000Y-52040000D03*
X155620000Y-67300000D03*
%TO.N,GND*%
X142790000Y-48500000D03*
X112130000Y-68430000D03*
X105820000Y-68230000D03*
X109560000Y-48190000D03*
X106850000Y-53360000D03*
X142780000Y-56070000D03*
X142790000Y-46700000D03*
X106930000Y-57220000D03*
X144700000Y-60280000D03*
X108720000Y-52220000D03*
X104010000Y-62260000D03*
X108670000Y-48190000D03*
X108650000Y-50770000D03*
X152110000Y-71150000D03*
X142790000Y-45800000D03*
X103550000Y-60700000D03*
X142870000Y-56808000D03*
X113890000Y-47600000D03*
X142790000Y-47600000D03*
X113630000Y-69320000D03*
X113180000Y-55660000D03*
X112260000Y-55650000D03*
X142780000Y-49410000D03*
X114690000Y-55060000D03*
X147460000Y-50750000D03*
X104290000Y-49610000D03*
X108330000Y-70500000D03*
X147580000Y-55250000D03*
X143400000Y-60430000D03*
X108270000Y-69650000D03*
X110450000Y-48190000D03*
X116910000Y-73020000D03*
X112880000Y-53000000D03*
%TO.N,/PREVGL*%
X145185000Y-46905000D03*
X134880000Y-46200000D03*
%TO.N,/SCL*%
X109670000Y-59340000D03*
X154860000Y-70350000D03*
X106850000Y-47930000D03*
%TO.N,/SDA*%
X155570000Y-71150000D03*
X105950000Y-47940000D03*
X110370000Y-59730000D03*
%TO.N,/PREVGH*%
X145230466Y-48707047D03*
X140680000Y-49000000D03*
%TO.N,/GDR*%
X140340000Y-54140000D03*
X145370000Y-58490000D03*
%TO.N,/RESE*%
X142600000Y-57970000D03*
X138440000Y-54140000D03*
%TO.N,/EPD_DC*%
X130050000Y-49640000D03*
X147700000Y-53340000D03*
%TO.N,Net-(Q2-G)*%
X103060000Y-48500000D03*
X103760000Y-59620000D03*
%TO.N,Net-(J4-SWDIO)*%
X106560000Y-49400000D03*
%TO.N,Net-(J4-~{RESET})*%
X107750000Y-49070000D03*
%TO.N,Net-(J4-SWCLK)*%
X107200000Y-50280000D03*
%TO.N,/SW1*%
X111220000Y-71830000D03*
%TO.N,/SW2*%
X119330000Y-71830000D03*
%TO.N,/SW3*%
X129410000Y-71820000D03*
%TO.N,/SW4*%
X147750000Y-71820000D03*
%TO.N,/UART_TX*%
X111200000Y-59800000D03*
X106920000Y-59020000D03*
%TO.N,/UART_RX*%
X107100000Y-60100000D03*
X111800000Y-59300000D03*
%TO.N,Net-(BT1-+)*%
X116030000Y-60820000D03*
X141960000Y-60800000D03*
%TO.N,Net-(JP1-B)*%
X138050000Y-65860000D03*
X145870000Y-67430000D03*
%TD*%
D37*
%TO.N,VDD*%
X142200000Y-53062500D02*
X142200000Y-53840000D01*
X144480000Y-53300000D02*
X144480000Y-52400000D01*
X152080000Y-67300000D02*
X151460000Y-67300000D01*
X146350000Y-51250000D02*
X146350000Y-51750000D01*
D38*
X147550000Y-68970000D02*
X147550000Y-67840000D01*
D37*
X144870000Y-52400000D02*
X144480000Y-52400000D01*
X155000000Y-67300000D02*
X155620000Y-67300000D01*
D38*
X113600000Y-53500000D02*
X113950000Y-53150000D01*
D37*
X145520000Y-51750000D02*
X144870000Y-52400000D01*
D38*
X113200000Y-53900000D02*
X111350000Y-53900000D01*
D37*
X101200000Y-66100000D02*
X101190000Y-66090000D01*
X101200000Y-66790000D02*
X101200000Y-66100000D01*
D38*
X113950000Y-53150000D02*
X115800000Y-53150000D01*
X113600000Y-53500000D02*
X113200000Y-53900000D01*
X147550000Y-67840000D02*
X147540000Y-67830000D01*
D37*
X146350000Y-51750000D02*
X145520000Y-51750000D01*
%TO.N,GND*%
X142900000Y-49400000D02*
X142890000Y-49410000D01*
X143520000Y-49400000D02*
X142900000Y-49400000D01*
D38*
X114700000Y-55050000D02*
X114690000Y-55060000D01*
D37*
X143520000Y-45800000D02*
X142790000Y-45800000D01*
D38*
X113150000Y-47600000D02*
X113890000Y-47600000D01*
D37*
X142878000Y-56800000D02*
X142870000Y-56808000D01*
X143400000Y-59625000D02*
X143400000Y-60430000D01*
X103150000Y-62262500D02*
X104007500Y-62262500D01*
X112250000Y-53000000D02*
X112880000Y-53000000D01*
X143520000Y-53300000D02*
X143520000Y-52400000D01*
D38*
X106850000Y-53900000D02*
X106850000Y-53360000D01*
X112250000Y-55050000D02*
X112250000Y-55640000D01*
D37*
X146350000Y-55250000D02*
X147580000Y-55250000D01*
X143520000Y-52400000D02*
X143520000Y-45800000D01*
D38*
X108650000Y-47600000D02*
X108650000Y-48170000D01*
D37*
X143510000Y-49410000D02*
X143520000Y-49400000D01*
D38*
X108650000Y-48170000D02*
X108670000Y-48190000D01*
D37*
X102710000Y-60700000D02*
X103550000Y-60700000D01*
X144700000Y-59510000D02*
X144700000Y-60280000D01*
D38*
X109550000Y-48180000D02*
X109560000Y-48190000D01*
D37*
X143495000Y-56800000D02*
X142878000Y-56800000D01*
X104007500Y-62262500D02*
X104010000Y-62260000D01*
X143520000Y-48500000D02*
X142790000Y-48500000D01*
X142925000Y-55925000D02*
X143495000Y-55925000D01*
D38*
X141600000Y-46700000D02*
X142790000Y-46700000D01*
X110450000Y-47600000D02*
X110450000Y-48190000D01*
D37*
X142780000Y-56070000D02*
X142925000Y-55925000D01*
X143520000Y-47600000D02*
X142790000Y-47600000D01*
D38*
X115800000Y-55050000D02*
X114700000Y-55050000D01*
D37*
X143520000Y-46700000D02*
X142790000Y-46700000D01*
D38*
X113150000Y-55630000D02*
X113180000Y-55660000D01*
X112250000Y-55640000D02*
X112260000Y-55650000D01*
D37*
X142780000Y-49410000D02*
X143510000Y-49410000D01*
X146350000Y-50750000D02*
X147460000Y-50750000D01*
D38*
X113150000Y-55050000D02*
X113150000Y-55630000D01*
X113150000Y-47600000D02*
X112250000Y-47600000D01*
X109550000Y-47600000D02*
X109550000Y-48180000D01*
D37*
%TO.N,/VCOM*%
X146350000Y-47250000D02*
X146350000Y-46955000D01*
X145195000Y-45800000D02*
X144480000Y-45800000D01*
X146350000Y-46955000D02*
X145195000Y-45800000D01*
%TO.N,/PREVGL*%
X146350000Y-47750000D02*
X145690000Y-47750000D01*
D38*
X134880000Y-46200000D02*
X136350000Y-46200000D01*
D37*
X145330000Y-47050000D02*
X145185000Y-46905000D01*
X145185000Y-46905000D02*
X144980000Y-46700000D01*
X144980000Y-46700000D02*
X144480000Y-46700000D01*
D38*
X136350000Y-46200000D02*
X136375000Y-46225000D01*
D37*
X145690000Y-47750000D02*
X145330000Y-47390000D01*
X145330000Y-47390000D02*
X145330000Y-47050000D01*
%TO.N,/VSL*%
X144890000Y-47600000D02*
X144480000Y-47600000D01*
X145540000Y-48250000D02*
X144890000Y-47600000D01*
X146350000Y-48250000D02*
X145540000Y-48250000D01*
D39*
%TO.N,/SCL*%
X154860000Y-70011738D02*
X153703000Y-68854738D01*
X109520000Y-60030000D02*
X109520000Y-60840000D01*
X145900000Y-65280000D02*
X151970000Y-65280000D01*
X151970000Y-65280000D02*
X153100000Y-66410000D01*
X153100000Y-66410000D02*
X153100000Y-67300000D01*
X154860000Y-70350000D02*
X154860000Y-70011738D01*
X145480000Y-65700000D02*
X145900000Y-65280000D01*
X144400000Y-67800000D02*
X145480000Y-66720000D01*
X145480000Y-66720000D02*
X145480000Y-65700000D01*
X109670000Y-59880000D02*
X109520000Y-60030000D01*
X153703000Y-68303000D02*
X153100000Y-67700000D01*
X109670000Y-59340000D02*
X109670000Y-59880000D01*
X113660000Y-67800000D02*
X144400000Y-67800000D01*
X153703000Y-68854738D02*
X153703000Y-68303000D01*
X109520000Y-60840000D02*
X112530000Y-63850000D01*
X106850000Y-48500000D02*
X106850000Y-47930000D01*
X153100000Y-67700000D02*
X153100000Y-67300000D01*
X112530000Y-63850000D02*
X112530000Y-66670000D01*
X112530000Y-66670000D02*
X113660000Y-67800000D01*
%TO.N,/EPD_DIN*%
X130460000Y-48500000D02*
X112250000Y-48500000D01*
X146350000Y-52250000D02*
X145750000Y-52250000D01*
X145000000Y-53650000D02*
X144790000Y-53860000D01*
X136602000Y-54642000D02*
X130460000Y-48500000D01*
X144790000Y-53860000D02*
X142890000Y-53860000D01*
X145750000Y-52250000D02*
X145000000Y-53000000D01*
X142890000Y-53860000D02*
X142408000Y-54342000D01*
X145000000Y-53000000D02*
X145000000Y-53650000D01*
X140708000Y-54642000D02*
X136602000Y-54642000D01*
X142408000Y-54342000D02*
X141008000Y-54342000D01*
X141008000Y-54342000D02*
X140708000Y-54642000D01*
%TO.N,/SDA*%
X145180000Y-66420000D02*
X144200000Y-67400000D01*
X112870000Y-63660000D02*
X110000000Y-60790000D01*
X153980000Y-67300000D02*
X153980000Y-66410000D01*
X110000000Y-60790000D02*
X110000000Y-60100000D01*
X145780000Y-64840000D02*
X145180000Y-65440000D01*
X110000000Y-60100000D02*
X110370000Y-59730000D01*
X113750000Y-67400000D02*
X112870000Y-66520000D01*
X155570000Y-70840000D02*
X155570000Y-71150000D01*
D40*
X105950000Y-48500000D02*
X105950000Y-47940000D01*
D39*
X144200000Y-67400000D02*
X113750000Y-67400000D01*
X153980000Y-66410000D02*
X152410000Y-64840000D01*
X153980000Y-67300000D02*
X153980000Y-68740000D01*
X145180000Y-65440000D02*
X145180000Y-66420000D01*
X154480000Y-69240000D02*
X155570000Y-70330000D01*
X155570000Y-70330000D02*
X155570000Y-70840000D01*
X152410000Y-64840000D02*
X145780000Y-64840000D01*
X153980000Y-68740000D02*
X154480000Y-69240000D01*
X112870000Y-66520000D02*
X112870000Y-63660000D01*
%TO.N,/EPD_CLK*%
X130340000Y-48810000D02*
X136449000Y-54919000D01*
X145277000Y-53764738D02*
X145277000Y-53114738D01*
X142522738Y-54619000D02*
X143004738Y-54137000D01*
X112840000Y-48810000D02*
X130340000Y-48810000D01*
X136449000Y-54919000D02*
X140822738Y-54919000D01*
X112250000Y-49400000D02*
X112840000Y-48810000D01*
X140822738Y-54919000D02*
X141122738Y-54619000D01*
X145641738Y-52750000D02*
X146350000Y-52750000D01*
X143004738Y-54137000D02*
X144904738Y-54137000D01*
X144904738Y-54137000D02*
X145277000Y-53764738D01*
X145277000Y-53114738D02*
X145641738Y-52750000D01*
X141122738Y-54619000D02*
X142522738Y-54619000D01*
%TO.N,Net-(U1-P1.01)*%
X111750000Y-57650000D02*
X111525000Y-57875000D01*
X111525000Y-57875000D02*
X110900000Y-57875000D01*
X111750000Y-56100000D02*
X111750000Y-57650000D01*
X111350000Y-55050000D02*
X111350000Y-55700000D01*
X111350000Y-55700000D02*
X111750000Y-56100000D01*
%TO.N,Net-(U1-P1.00)*%
X110900000Y-54350000D02*
X110450000Y-53900000D01*
X110900000Y-56475000D02*
X110900000Y-54350000D01*
D38*
%TO.N,Net-(D2-A)*%
X138305000Y-49000000D02*
X138305000Y-50430000D01*
X138305000Y-50430000D02*
X138305000Y-51165000D01*
X137500000Y-52940000D02*
X137640000Y-52800000D01*
X138305000Y-50710000D02*
X138305000Y-50897500D01*
X140627500Y-51212500D02*
X139387500Y-51212500D01*
X139387500Y-51212500D02*
X138620000Y-51212500D01*
X138305000Y-50430000D02*
X138305000Y-50710000D01*
X136630000Y-52940000D02*
X137500000Y-52940000D01*
X137640000Y-52800000D02*
X137640000Y-51830000D01*
X138257500Y-51212500D02*
X138620000Y-51212500D01*
X140902500Y-50937500D02*
X140627500Y-51212500D01*
X138305000Y-51165000D02*
X138257500Y-51212500D01*
X142200000Y-50937500D02*
X140902500Y-50937500D01*
X138305000Y-50897500D02*
X138620000Y-51212500D01*
X137640000Y-51830000D02*
X138257500Y-51212500D01*
%TO.N,Net-(D1-K)*%
X136630000Y-50420000D02*
X136375000Y-50165000D01*
X136630000Y-51040000D02*
X136630000Y-50420000D01*
X136375000Y-48000000D02*
X136375000Y-49525000D01*
X138300000Y-46700000D02*
X137675000Y-46700000D01*
X136375000Y-50165000D02*
X136375000Y-49525000D01*
X137675000Y-46700000D02*
X136375000Y-48000000D01*
D37*
%TO.N,/PREVGH*%
X144480000Y-48500000D02*
X145030000Y-48500000D01*
X145023419Y-48500000D02*
X145230466Y-48707047D01*
X145280000Y-48750000D02*
X146350000Y-48750000D01*
X145030000Y-48500000D02*
X145280000Y-48750000D01*
D38*
X141605000Y-49000000D02*
X140680000Y-49000000D01*
D37*
X144480000Y-48500000D02*
X145023419Y-48500000D01*
%TO.N,/VSH*%
X145330000Y-49250000D02*
X145180000Y-49400000D01*
X146350000Y-49250000D02*
X145330000Y-49250000D01*
X145180000Y-49400000D02*
X144480000Y-49400000D01*
%TO.N,/VPP*%
X144480000Y-50300000D02*
X145020000Y-50300000D01*
X145020000Y-50300000D02*
X145570000Y-49750000D01*
X145570000Y-49750000D02*
X146350000Y-49750000D01*
%TO.N,/VGH*%
X144805000Y-55925000D02*
X144455000Y-55925000D01*
X146350000Y-56750000D02*
X145630000Y-56750000D01*
X145630000Y-56750000D02*
X144805000Y-55925000D01*
%TO.N,/VGL*%
X145300000Y-57250000D02*
X146350000Y-57250000D01*
X144455000Y-56800000D02*
X144850000Y-56800000D01*
X144850000Y-56800000D02*
X145300000Y-57250000D01*
D39*
%TO.N,/EPD_BUSY*%
X143348952Y-54968000D02*
X142866952Y-55450000D01*
X145248952Y-54968000D02*
X143348952Y-54968000D01*
X141466951Y-55450000D02*
X141162951Y-55754000D01*
X135924000Y-55754000D02*
X132270000Y-52100000D01*
X145466952Y-54750000D02*
X145248952Y-54968000D01*
X141162951Y-55754000D02*
X135924000Y-55754000D01*
X132270000Y-52100000D02*
X112250000Y-52100000D01*
X142866952Y-55450000D02*
X141466951Y-55450000D01*
X146350000Y-54750000D02*
X145466952Y-54750000D01*
D37*
%TO.N,Net-(J2-Pin_7)*%
X145646000Y-50250000D02*
X146350000Y-50250000D01*
X145130000Y-50766000D02*
X145646000Y-50250000D01*
X144480000Y-51200000D02*
X144880000Y-51200000D01*
X145130000Y-50950000D02*
X145130000Y-50766000D01*
X144880000Y-51200000D02*
X145130000Y-50950000D01*
%TO.N,/GDR*%
X146350000Y-58250000D02*
X145610000Y-58250000D01*
X145610000Y-58250000D02*
X145370000Y-58490000D01*
X140337500Y-53087500D02*
X140337500Y-54137500D01*
X140337500Y-54137500D02*
X140340000Y-54140000D01*
X144700000Y-58490000D02*
X145370000Y-58490000D01*
%TO.N,/RESE*%
X144470000Y-57750000D02*
X144245000Y-57975000D01*
X138437500Y-53087500D02*
X138437500Y-54137500D01*
X146350000Y-57750000D02*
X144470000Y-57750000D01*
X143400000Y-57975000D02*
X142605000Y-57975000D01*
X142605000Y-57975000D02*
X142600000Y-57970000D01*
X138437500Y-54137500D02*
X138440000Y-54140000D01*
X144245000Y-57975000D02*
X143400000Y-57975000D01*
D39*
%TO.N,/EPD_CS*%
X140937476Y-55196000D02*
X140937475Y-55196000D01*
X145554000Y-53356000D02*
X145554000Y-53879476D01*
X145019476Y-54414000D02*
X143119476Y-54414000D01*
X145554000Y-53879476D02*
X145019476Y-54414000D01*
X140937475Y-55196000D02*
X140933475Y-55200000D01*
X146350000Y-53250000D02*
X145660000Y-53250000D01*
X141150000Y-54983475D02*
X140937476Y-55196000D01*
X142637476Y-54896000D02*
X141237475Y-54896000D01*
X145660000Y-53250000D02*
X145554000Y-53356000D01*
X136280000Y-55200000D02*
X131380000Y-50300000D01*
X141237475Y-54896000D02*
X141150000Y-54983475D01*
X131380000Y-50300000D02*
X112250000Y-50300000D01*
X140933475Y-55200000D02*
X136280000Y-55200000D01*
X143119476Y-54414000D02*
X142637476Y-54896000D01*
%TO.N,/EPD_DC*%
X147290000Y-53750000D02*
X146350000Y-53750000D01*
X147700000Y-53340000D02*
X147290000Y-53750000D01*
X113150000Y-49400000D02*
X129810000Y-49400000D01*
X129810000Y-49400000D02*
X130050000Y-49640000D01*
%TO.N,/EPD_RST*%
X145575214Y-54250000D02*
X146350000Y-54250000D01*
X141048213Y-55477000D02*
X141214476Y-55310737D01*
X145134214Y-54691000D02*
X145575214Y-54250000D01*
X112250000Y-51200000D02*
X131850000Y-51200000D01*
X136127000Y-55477000D02*
X141048213Y-55477000D01*
X143234214Y-54691000D02*
X145134214Y-54691000D01*
X131850000Y-51200000D02*
X136127000Y-55477000D01*
X142752214Y-55173000D02*
X143234214Y-54691000D01*
X141214476Y-55310737D02*
X141255212Y-55270000D01*
X141255212Y-55270000D02*
X141352212Y-55173000D01*
X141352212Y-55173000D02*
X142752214Y-55173000D01*
D37*
%TO.N,Net-(D4-K)*%
X102200000Y-64137500D02*
X102200000Y-69200000D01*
%TO.N,Net-(Q2-G)*%
X101250000Y-61540000D02*
X101250000Y-62262500D01*
D40*
X101690000Y-59940000D02*
X101690000Y-60700000D01*
X103760000Y-59620000D02*
X102010000Y-59620000D01*
X102010000Y-59620000D02*
X101690000Y-59940000D01*
D37*
X101690000Y-61100000D02*
X101250000Y-61540000D01*
D40*
X103060000Y-48500000D02*
X105050000Y-48500000D01*
D37*
X101690000Y-60700000D02*
X101690000Y-61100000D01*
%TO.N,Net-(D4-A)*%
X100930000Y-72300000D02*
X100470000Y-71840000D01*
X102200000Y-72300000D02*
X100930000Y-72300000D01*
X100470000Y-71840000D02*
X100470000Y-69110000D01*
X100470000Y-69110000D02*
X101200000Y-68380000D01*
X101200000Y-68380000D02*
X101200000Y-67810000D01*
D39*
%TO.N,Net-(J4-SWDIO)*%
X105950000Y-49400000D02*
X106560000Y-49400000D01*
%TO.N,Net-(J4-~{RESET})*%
X107750000Y-48500000D02*
X107750000Y-49070000D01*
%TO.N,Net-(J4-SWCLK)*%
X105500000Y-49850000D02*
X106164514Y-49850000D01*
X105050000Y-49400000D02*
X105500000Y-49850000D01*
X106594514Y-50280000D02*
X107200000Y-50280000D01*
X106164514Y-49850000D02*
X106594514Y-50280000D01*
%TO.N,/SW1*%
X111220000Y-67310000D02*
X110670000Y-67860000D01*
X111220000Y-64740000D02*
X111220000Y-67310000D01*
X107750000Y-61270000D02*
X111220000Y-64740000D01*
X110670000Y-67860000D02*
X110670000Y-71280000D01*
X107750000Y-55050000D02*
X107750000Y-61270000D01*
X110670000Y-71280000D02*
X111220000Y-71830000D01*
%TO.N,/SW2*%
X113290000Y-68810000D02*
X117940000Y-68810000D01*
X108248000Y-54398000D02*
X108248000Y-61328000D01*
X107750000Y-53900000D02*
X108248000Y-54398000D01*
X119330000Y-70200000D02*
X119330000Y-71830000D01*
X111560000Y-64640000D02*
X111560000Y-67080000D01*
X117940000Y-68810000D02*
X119330000Y-70200000D01*
X108248000Y-61328000D02*
X111560000Y-64640000D01*
X111560000Y-67080000D02*
X113290000Y-68810000D01*
%TO.N,/SW3*%
X118118262Y-68470000D02*
X121468262Y-71820000D01*
X121468262Y-71820000D02*
X129410000Y-71820000D01*
X108650000Y-61250000D02*
X111860000Y-64460000D01*
X111860000Y-66881738D02*
X113448262Y-68470000D01*
X113448262Y-68470000D02*
X118118262Y-68470000D01*
X108650000Y-55050000D02*
X108650000Y-61250000D01*
X111860000Y-64460000D02*
X111860000Y-66881738D01*
%TO.N,/SW4*%
X147750000Y-72360000D02*
X147750000Y-71820000D01*
X141400000Y-73100000D02*
X147010000Y-73100000D01*
X109100000Y-61210000D02*
X112190000Y-64300000D01*
X112190000Y-66800000D02*
X113550000Y-68160000D01*
X109100000Y-54350000D02*
X109100000Y-61210000D01*
X118200000Y-68160000D02*
X120500000Y-70460000D01*
X108650000Y-53900000D02*
X109100000Y-54350000D01*
X147010000Y-73100000D02*
X147750000Y-72360000D01*
X113550000Y-68160000D02*
X118200000Y-68160000D01*
X120500000Y-70460000D02*
X138760000Y-70460000D01*
X112190000Y-64300000D02*
X112190000Y-66800000D01*
X138760000Y-70460000D02*
X141400000Y-73100000D01*
%TO.N,/UART_TX*%
X104000000Y-56100000D02*
X104000000Y-53500000D01*
X110200000Y-58800000D02*
X111200000Y-59800000D01*
X106920000Y-59020000D02*
X104000000Y-56100000D01*
X109550000Y-55050000D02*
X109550000Y-58650000D01*
X109700000Y-58800000D02*
X110200000Y-58800000D01*
X103540000Y-53040000D02*
X101600000Y-53040000D01*
X109550000Y-58650000D02*
X109700000Y-58800000D01*
X104000000Y-53500000D02*
X103540000Y-53040000D01*
%TO.N,/UART_RX*%
X103280000Y-55580000D02*
X103500000Y-55800000D01*
X109900000Y-58400000D02*
X110000000Y-58500000D01*
X103500000Y-56500000D02*
X107100000Y-60100000D01*
X110000000Y-58500000D02*
X110023000Y-58523000D01*
X103500000Y-55800000D02*
X103500000Y-56500000D01*
X110450000Y-55450000D02*
X110200000Y-55700000D01*
X111023000Y-58523000D02*
X111800000Y-59300000D01*
X109900000Y-56000000D02*
X109900000Y-56600000D01*
X109900000Y-56600000D02*
X109900000Y-58400000D01*
X110450000Y-55050000D02*
X110450000Y-55450000D01*
X110023000Y-58523000D02*
X111023000Y-58523000D01*
X101600000Y-55580000D02*
X103280000Y-55580000D01*
X110200000Y-55700000D02*
X109900000Y-56000000D01*
D38*
%TO.N,Net-(BT1-+)*%
X141950000Y-60810000D02*
X141960000Y-60800000D01*
X141950000Y-64000000D02*
X141950000Y-60810000D01*
X117225000Y-56775000D02*
X118300000Y-56775000D01*
X116050000Y-64000000D02*
X116050000Y-60840000D01*
X116030000Y-60820000D02*
X116030000Y-57970000D01*
X121100000Y-56100000D02*
X121100000Y-54750000D01*
X116050000Y-60840000D02*
X116030000Y-60820000D01*
X116030000Y-57970000D02*
X117225000Y-56775000D01*
X120425000Y-56775000D02*
X121100000Y-56100000D01*
X118300000Y-56775000D02*
X120425000Y-56775000D01*
%TO.N,Net-(JP1-B)*%
X145310000Y-68970000D02*
X144550000Y-68970000D01*
X121100000Y-53450000D02*
X119085000Y-53450000D01*
X130080000Y-54550000D02*
X138060000Y-62530000D01*
X138060000Y-62530000D02*
X138060000Y-65490000D01*
X138060000Y-65850000D02*
X138050000Y-65860000D01*
X138060000Y-65490000D02*
X138060000Y-65850000D01*
X119085000Y-53450000D02*
X118300000Y-54235000D01*
X145870000Y-67430000D02*
X145870000Y-68410000D01*
X121100000Y-53450000D02*
X128980000Y-53450000D01*
X128980000Y-53450000D02*
X130080000Y-54550000D01*
X145870000Y-68410000D02*
X145310000Y-68970000D01*
%TD*%
%TA.AperFunction,Conductor*%
%TO.N,GND*%
G36*
X142898208Y-45118306D02*
G01*
X142916514Y-45162500D01*
X142898208Y-45206694D01*
X142870281Y-45234621D01*
X142870279Y-45234622D01*
X142787969Y-45373802D01*
X142787968Y-45373803D01*
X142742854Y-45529086D01*
X142742854Y-45529091D01*
X142741208Y-45549999D01*
X142741209Y-45550000D01*
X143457500Y-45550000D01*
X143501694Y-45568306D01*
X143520000Y-45612500D01*
X143520000Y-45800000D01*
X143707500Y-45800000D01*
X143751694Y-45818306D01*
X143770000Y-45862500D01*
X143770000Y-53237500D01*
X143751694Y-53281694D01*
X143707500Y-53300000D01*
X143332500Y-53300000D01*
X143288306Y-53281694D01*
X143270000Y-53237500D01*
X143270000Y-52650000D01*
X142903058Y-52650000D01*
X142858864Y-52631694D01*
X142782915Y-52555744D01*
X142672247Y-52504138D01*
X142621819Y-52497500D01*
X141778190Y-52497500D01*
X141778188Y-52497500D01*
X141778182Y-52497501D01*
X141727752Y-52504139D01*
X141727750Y-52504139D01*
X141727749Y-52504140D01*
X141617084Y-52555744D01*
X141617084Y-52555745D01*
X141530745Y-52642084D01*
X141530744Y-52642084D01*
X141479138Y-52752752D01*
X141472500Y-52803174D01*
X141472500Y-53321809D01*
X141472500Y-53321810D01*
X141472501Y-53321818D01*
X141479139Y-53372248D01*
X141479140Y-53372250D01*
X141530744Y-53482915D01*
X141617084Y-53569255D01*
X141617085Y-53569255D01*
X141617086Y-53569256D01*
X141727752Y-53620861D01*
X141742466Y-53622798D01*
X141783893Y-53646714D01*
X141796274Y-53692920D01*
X141794680Y-53700938D01*
X141772500Y-53783717D01*
X141772500Y-53896279D01*
X141772501Y-53896287D01*
X141801632Y-54005008D01*
X141801635Y-54005014D01*
X141825154Y-54045750D01*
X141831398Y-54093176D01*
X141802278Y-54131126D01*
X141771028Y-54139500D01*
X140967717Y-54139500D01*
X140893296Y-54170326D01*
X140893291Y-54170330D01*
X140874193Y-54189428D01*
X140829999Y-54207733D01*
X140785805Y-54189426D01*
X140767500Y-54145233D01*
X140767500Y-54083720D01*
X140767498Y-54083712D01*
X140738367Y-53974991D01*
X140738364Y-53974985D01*
X140704363Y-53916093D01*
X140698119Y-53868667D01*
X140714295Y-53840649D01*
X140720403Y-53834542D01*
X140762308Y-53739634D01*
X140762456Y-53738366D01*
X140764999Y-53716441D01*
X140765000Y-53716439D01*
X140765000Y-52458560D01*
X140764999Y-52458558D01*
X140762309Y-52435370D01*
X140762307Y-52435364D01*
X140720405Y-52340461D01*
X140720402Y-52340457D01*
X140647042Y-52267097D01*
X140647038Y-52267094D01*
X140552135Y-52225192D01*
X140552129Y-52225190D01*
X140528940Y-52222500D01*
X140528932Y-52222500D01*
X140146068Y-52222500D01*
X140146060Y-52222500D01*
X140122870Y-52225190D01*
X140122864Y-52225192D01*
X140027961Y-52267094D01*
X140027957Y-52267097D01*
X139954597Y-52340457D01*
X139954594Y-52340461D01*
X139912692Y-52435364D01*
X139912690Y-52435370D01*
X139910000Y-52458558D01*
X139910000Y-53716441D01*
X139912690Y-53739629D01*
X139912692Y-53739635D01*
X139954594Y-53834538D01*
X139954597Y-53834542D01*
X139963874Y-53843819D01*
X139982180Y-53888013D01*
X139973807Y-53919262D01*
X139941634Y-53974987D01*
X139941631Y-53974994D01*
X139912501Y-54083712D01*
X139912500Y-54083720D01*
X139912500Y-54196279D01*
X139912501Y-54196287D01*
X139941632Y-54305008D01*
X139941635Y-54305014D01*
X139965154Y-54345750D01*
X139971398Y-54393176D01*
X139942278Y-54431126D01*
X139911028Y-54439500D01*
X138868972Y-54439500D01*
X138824778Y-54421194D01*
X138806472Y-54377000D01*
X138814846Y-54345750D01*
X138838364Y-54305014D01*
X138838367Y-54305009D01*
X138867500Y-54196281D01*
X138867500Y-54083719D01*
X138838367Y-53974991D01*
X138838364Y-53974985D01*
X138804363Y-53916093D01*
X138798119Y-53868667D01*
X138814295Y-53840649D01*
X138820403Y-53834542D01*
X138862308Y-53739634D01*
X138862456Y-53738366D01*
X138864999Y-53716441D01*
X138865000Y-53716439D01*
X138865000Y-52458560D01*
X138864999Y-52458558D01*
X138862309Y-52435370D01*
X138862307Y-52435364D01*
X138820405Y-52340461D01*
X138820402Y-52340457D01*
X138747042Y-52267097D01*
X138747038Y-52267094D01*
X138652135Y-52225192D01*
X138652129Y-52225190D01*
X138628940Y-52222500D01*
X138628932Y-52222500D01*
X138246068Y-52222500D01*
X138246060Y-52222500D01*
X138222870Y-52225190D01*
X138222864Y-52225192D01*
X138127961Y-52267094D01*
X138127957Y-52267097D01*
X138124194Y-52270861D01*
X138080000Y-52289167D01*
X138035806Y-52270861D01*
X138017500Y-52226667D01*
X138017500Y-52012253D01*
X138035806Y-51968059D01*
X138395559Y-51608306D01*
X138439753Y-51590000D01*
X138570301Y-51590000D01*
X138897500Y-51590000D01*
X138941694Y-51608306D01*
X138960000Y-51652500D01*
X138960000Y-51841441D01*
X138962690Y-51864629D01*
X138962692Y-51864635D01*
X139004594Y-51959538D01*
X139004597Y-51959542D01*
X139077957Y-52032902D01*
X139077961Y-52032905D01*
X139132257Y-52056878D01*
X139172866Y-52074808D01*
X139172867Y-52074808D01*
X139172870Y-52074809D01*
X139196058Y-52077499D01*
X139196061Y-52077500D01*
X139196068Y-52077500D01*
X139578939Y-52077500D01*
X139578941Y-52077499D01*
X139602129Y-52074809D01*
X139602130Y-52074808D01*
X139602134Y-52074808D01*
X139692920Y-52034723D01*
X139697038Y-52032905D01*
X139697038Y-52032904D01*
X139697042Y-52032903D01*
X139770403Y-51959542D01*
X139774728Y-51949748D01*
X139797176Y-51898905D01*
X139812308Y-51864634D01*
X139814999Y-51841441D01*
X139815000Y-51841439D01*
X139815000Y-51652500D01*
X139833306Y-51608306D01*
X139877500Y-51590000D01*
X140677198Y-51590000D01*
X140677199Y-51590000D01*
X140773210Y-51564274D01*
X140775665Y-51562857D01*
X140797500Y-51550250D01*
X140859290Y-51514575D01*
X140931943Y-51441922D01*
X141040560Y-51333306D01*
X141084754Y-51315000D01*
X141470916Y-51315000D01*
X141515110Y-51333306D01*
X141527559Y-51351084D01*
X141530744Y-51357915D01*
X141617084Y-51444255D01*
X141617085Y-51444255D01*
X141617086Y-51444256D01*
X141727752Y-51495861D01*
X141778181Y-51502500D01*
X142621818Y-51502499D01*
X142672248Y-51495861D01*
X142674720Y-51494707D01*
X142676465Y-51494631D01*
X142676841Y-51494522D01*
X142676867Y-51494613D01*
X142722508Y-51492616D01*
X142757780Y-51524929D01*
X142761157Y-51533912D01*
X142787968Y-51626196D01*
X142787969Y-51626197D01*
X142871940Y-51768185D01*
X142878680Y-51815543D01*
X142871940Y-51831815D01*
X142787969Y-51973802D01*
X142787968Y-51973803D01*
X142742854Y-52129086D01*
X142742854Y-52129091D01*
X142741208Y-52149999D01*
X142741209Y-52150000D01*
X143270000Y-52150000D01*
X143270000Y-50550000D01*
X142924420Y-50550000D01*
X142880226Y-50531694D01*
X142872887Y-50521211D01*
X142872389Y-50521561D01*
X142869254Y-50517083D01*
X142782915Y-50430744D01*
X142672247Y-50379138D01*
X142621819Y-50372500D01*
X141778190Y-50372500D01*
X141778188Y-50372500D01*
X141778182Y-50372501D01*
X141727752Y-50379139D01*
X141727750Y-50379139D01*
X141727749Y-50379140D01*
X141617084Y-50430744D01*
X141617084Y-50430745D01*
X141530745Y-50517083D01*
X141530744Y-50517084D01*
X141527559Y-50523916D01*
X141492290Y-50556232D01*
X141470916Y-50560000D01*
X140952199Y-50560000D01*
X140852801Y-50560000D01*
X140852800Y-50560000D01*
X140852794Y-50560001D01*
X140756793Y-50585724D01*
X140756790Y-50585725D01*
X140670708Y-50635425D01*
X140670704Y-50635428D01*
X140489441Y-50816694D01*
X140445247Y-50835000D01*
X139877500Y-50835000D01*
X139833306Y-50816694D01*
X139815000Y-50772500D01*
X139815000Y-50583560D01*
X139814999Y-50583558D01*
X139812309Y-50560370D01*
X139812307Y-50560364D01*
X139808686Y-50552164D01*
X139796214Y-50523916D01*
X139770405Y-50465461D01*
X139770402Y-50465457D01*
X139697042Y-50392097D01*
X139697038Y-50392094D01*
X139602135Y-50350192D01*
X139602129Y-50350190D01*
X139578940Y-50347500D01*
X139578932Y-50347500D01*
X139196068Y-50347500D01*
X139196060Y-50347500D01*
X139172870Y-50350190D01*
X139172864Y-50350192D01*
X139077961Y-50392094D01*
X139077957Y-50392097D01*
X139004597Y-50465457D01*
X139004594Y-50465461D01*
X138962692Y-50560364D01*
X138962690Y-50560370D01*
X138960000Y-50583558D01*
X138960000Y-50772500D01*
X138941694Y-50816694D01*
X138897500Y-50835000D01*
X138802254Y-50835000D01*
X138758060Y-50816694D01*
X138700806Y-50759440D01*
X138682500Y-50715246D01*
X138682500Y-50049999D01*
X142741208Y-50049999D01*
X142741209Y-50050000D01*
X143270000Y-50050000D01*
X143270000Y-49650000D01*
X142741211Y-49650000D01*
X142742856Y-49670921D01*
X142789065Y-49829971D01*
X142787613Y-49830392D01*
X142788223Y-49869784D01*
X142789065Y-49870029D01*
X142788270Y-49872765D01*
X142788274Y-49873020D01*
X142788012Y-49873650D01*
X142742854Y-50029086D01*
X142742854Y-50029091D01*
X142741208Y-50049999D01*
X138682500Y-50049999D01*
X138682500Y-49731829D01*
X138700806Y-49687635D01*
X138717548Y-49675681D01*
X138737662Y-49665848D01*
X138820848Y-49582662D01*
X138872517Y-49476972D01*
X138882500Y-49408453D01*
X138882499Y-48943720D01*
X140252500Y-48943720D01*
X140252500Y-49056279D01*
X140252501Y-49056287D01*
X140281632Y-49165008D01*
X140281633Y-49165011D01*
X140337914Y-49262490D01*
X140337919Y-49262496D01*
X140417503Y-49342080D01*
X140417509Y-49342085D01*
X140514988Y-49398366D01*
X140514991Y-49398367D01*
X140623719Y-49427500D01*
X140623720Y-49427500D01*
X140736280Y-49427500D01*
X140736281Y-49427500D01*
X140845009Y-49398367D01*
X140866647Y-49385873D01*
X140897898Y-49377500D01*
X140968937Y-49377500D01*
X141013131Y-49395806D01*
X141030784Y-49430989D01*
X141037483Y-49476972D01*
X141089152Y-49582662D01*
X141172338Y-49665848D01*
X141278028Y-49717517D01*
X141346547Y-49727500D01*
X141863452Y-49727499D01*
X141931972Y-49717517D01*
X142037662Y-49665848D01*
X142120848Y-49582662D01*
X142172517Y-49476972D01*
X142182500Y-49408453D01*
X142182499Y-49149999D01*
X142741208Y-49149999D01*
X142741209Y-49150000D01*
X143270000Y-49150000D01*
X143270000Y-48750000D01*
X142741211Y-48750000D01*
X142742856Y-48770921D01*
X142789065Y-48929971D01*
X142787613Y-48930392D01*
X142788223Y-48969784D01*
X142789065Y-48970029D01*
X142788270Y-48972765D01*
X142788274Y-48973020D01*
X142788012Y-48973650D01*
X142742854Y-49129086D01*
X142742854Y-49129091D01*
X142741208Y-49149999D01*
X142182499Y-49149999D01*
X142182499Y-49000000D01*
X142182499Y-48591548D01*
X142174583Y-48537213D01*
X142172517Y-48523028D01*
X142120848Y-48417338D01*
X142037662Y-48334152D01*
X142037661Y-48334151D01*
X142037658Y-48334149D01*
X142026103Y-48328500D01*
X142026101Y-48328500D01*
X141931972Y-48282483D01*
X141931970Y-48282482D01*
X141931969Y-48282482D01*
X141867557Y-48273098D01*
X141863453Y-48272500D01*
X141863452Y-48272500D01*
X141346548Y-48272500D01*
X141278030Y-48282482D01*
X141278029Y-48282482D01*
X141278028Y-48282483D01*
X141232873Y-48304558D01*
X141172337Y-48334152D01*
X141089152Y-48417337D01*
X141037482Y-48523030D01*
X141034394Y-48544227D01*
X141032639Y-48556279D01*
X141030784Y-48569010D01*
X141020682Y-48585962D01*
X141013131Y-48604194D01*
X141008734Y-48606015D01*
X141006298Y-48610104D01*
X140968937Y-48622500D01*
X140897898Y-48622500D01*
X140866647Y-48614126D01*
X140845010Y-48601633D01*
X140845008Y-48601632D01*
X140736287Y-48572501D01*
X140736282Y-48572500D01*
X140736281Y-48572500D01*
X140623719Y-48572500D01*
X140623718Y-48572500D01*
X140623712Y-48572501D01*
X140514991Y-48601632D01*
X140514988Y-48601633D01*
X140417509Y-48657914D01*
X140417503Y-48657919D01*
X140337919Y-48737503D01*
X140337914Y-48737509D01*
X140281633Y-48834988D01*
X140281632Y-48834991D01*
X140252501Y-48943712D01*
X140252500Y-48943720D01*
X138882499Y-48943720D01*
X138882499Y-48591548D01*
X138872517Y-48523028D01*
X138820848Y-48417338D01*
X138737662Y-48334152D01*
X138631972Y-48282483D01*
X138631970Y-48282482D01*
X138631969Y-48282482D01*
X138567557Y-48273098D01*
X138563453Y-48272500D01*
X138563452Y-48272500D01*
X138046548Y-48272500D01*
X137978030Y-48282482D01*
X137978029Y-48282482D01*
X137978028Y-48282483D01*
X137932873Y-48304558D01*
X137872337Y-48334152D01*
X137789152Y-48417337D01*
X137737482Y-48523030D01*
X137727500Y-48591547D01*
X137727500Y-49408451D01*
X137737482Y-49476969D01*
X137737483Y-49476972D01*
X137789152Y-49582662D01*
X137872338Y-49665848D01*
X137892450Y-49675680D01*
X137924113Y-49711535D01*
X137927500Y-49731829D01*
X137927500Y-50982746D01*
X137909194Y-51026940D01*
X137589193Y-51346940D01*
X137544999Y-51365246D01*
X137500805Y-51346940D01*
X137482499Y-51302748D01*
X137482499Y-50754174D01*
X137471809Y-50680796D01*
X137416476Y-50567610D01*
X137327390Y-50478524D01*
X137214204Y-50423191D01*
X137214202Y-50423190D01*
X137214201Y-50423190D01*
X137155913Y-50414698D01*
X137140827Y-50412500D01*
X137140826Y-50412500D01*
X137066765Y-50412500D01*
X137022571Y-50394194D01*
X137006395Y-50366176D01*
X136981774Y-50274291D01*
X136981773Y-50274289D01*
X136971724Y-50256884D01*
X136952576Y-50223719D01*
X136932075Y-50188209D01*
X136900488Y-50156623D01*
X136897985Y-50153356D01*
X136892790Y-50133923D01*
X136885093Y-50115340D01*
X136886752Y-50111332D01*
X136885633Y-50107143D01*
X136895700Y-50089730D01*
X136903398Y-50071146D01*
X136908587Y-50067440D01*
X136909576Y-50065731D01*
X136911822Y-50065130D01*
X136920141Y-50059190D01*
X136957662Y-50040848D01*
X137040848Y-49957662D01*
X137092517Y-49851972D01*
X137102500Y-49783453D01*
X137102499Y-49266548D01*
X137092517Y-49198028D01*
X137040848Y-49092338D01*
X136957662Y-49009152D01*
X136851972Y-48957483D01*
X136828425Y-48954052D01*
X136805988Y-48950783D01*
X136764895Y-48926296D01*
X136752500Y-48888936D01*
X136752500Y-48249999D01*
X142741208Y-48249999D01*
X142741209Y-48250000D01*
X143270000Y-48250000D01*
X143270000Y-47850000D01*
X142741211Y-47850000D01*
X142742856Y-47870921D01*
X142789065Y-48029971D01*
X142787613Y-48030392D01*
X142788223Y-48069784D01*
X142789065Y-48070029D01*
X142788270Y-48072765D01*
X142788274Y-48073020D01*
X142788012Y-48073650D01*
X142742854Y-48229086D01*
X142742854Y-48229091D01*
X142741208Y-48249999D01*
X136752500Y-48249999D01*
X136752500Y-48182253D01*
X136770806Y-48138059D01*
X137172319Y-47736546D01*
X137670392Y-47238472D01*
X137714585Y-47220167D01*
X137758779Y-47238473D01*
X137770734Y-47255217D01*
X137784149Y-47282658D01*
X137784151Y-47282661D01*
X137784152Y-47282662D01*
X137867338Y-47365848D01*
X137973028Y-47417517D01*
X138041547Y-47427500D01*
X138558452Y-47427499D01*
X138626972Y-47417517D01*
X138732662Y-47365848D01*
X138815848Y-47282662D01*
X138867517Y-47176972D01*
X138875333Y-47123323D01*
X140650001Y-47123323D01*
X140660142Y-47222597D01*
X140660143Y-47222604D01*
X140713453Y-47383484D01*
X140802426Y-47527731D01*
X140922268Y-47647573D01*
X141066515Y-47736546D01*
X141227398Y-47789857D01*
X141326681Y-47799999D01*
X141349999Y-47799999D01*
X141850000Y-47799999D01*
X141873312Y-47799999D01*
X141873323Y-47799998D01*
X141972597Y-47789857D01*
X141972604Y-47789856D01*
X142133484Y-47736546D01*
X142277731Y-47647573D01*
X142397573Y-47527731D01*
X142486547Y-47383483D01*
X142496750Y-47352692D01*
X142496750Y-47352691D01*
X142497642Y-47349999D01*
X142741208Y-47349999D01*
X142741209Y-47350000D01*
X143270000Y-47350000D01*
X143270000Y-46950000D01*
X142741211Y-46950000D01*
X142742856Y-46970921D01*
X142789065Y-47129971D01*
X142787613Y-47130392D01*
X142788223Y-47169784D01*
X142789065Y-47170029D01*
X142788270Y-47172765D01*
X142788274Y-47173020D01*
X142788012Y-47173650D01*
X142742854Y-47329086D01*
X142742854Y-47329091D01*
X142741208Y-47349999D01*
X142497642Y-47349999D01*
X142539857Y-47222601D01*
X142549999Y-47123322D01*
X142550000Y-47123313D01*
X142550000Y-46950000D01*
X141850000Y-46950000D01*
X141850000Y-47799999D01*
X141349999Y-47799999D01*
X141350000Y-47799998D01*
X141350000Y-46950000D01*
X140650001Y-46950000D01*
X140650001Y-47123323D01*
X138875333Y-47123323D01*
X138877500Y-47108453D01*
X138877499Y-46690848D01*
X138877499Y-46291552D01*
X138877499Y-46291548D01*
X138875333Y-46276677D01*
X140650000Y-46276677D01*
X140650000Y-46450000D01*
X141350000Y-46450000D01*
X141850000Y-46450000D01*
X142549999Y-46450000D01*
X142549999Y-46449999D01*
X142741208Y-46449999D01*
X142741209Y-46450000D01*
X143270000Y-46450000D01*
X143270000Y-46050000D01*
X142741211Y-46050000D01*
X142742856Y-46070921D01*
X142789065Y-46229971D01*
X142787613Y-46230392D01*
X142788223Y-46269784D01*
X142789065Y-46270029D01*
X142788270Y-46272765D01*
X142788274Y-46273020D01*
X142788012Y-46273650D01*
X142742854Y-46429086D01*
X142742854Y-46429091D01*
X142741208Y-46449999D01*
X142549999Y-46449999D01*
X142549999Y-46276688D01*
X142549998Y-46276676D01*
X142539857Y-46177402D01*
X142539856Y-46177395D01*
X142486546Y-46016515D01*
X142397573Y-45872268D01*
X142277731Y-45752426D01*
X142133484Y-45663453D01*
X141972601Y-45610142D01*
X141873322Y-45600000D01*
X141850000Y-45600000D01*
X141850000Y-46450000D01*
X141350000Y-46450000D01*
X141350000Y-45600000D01*
X141326690Y-45600000D01*
X141326675Y-45600001D01*
X141227402Y-45610142D01*
X141227395Y-45610143D01*
X141066515Y-45663453D01*
X140922268Y-45752426D01*
X140802426Y-45872268D01*
X140713453Y-46016515D01*
X140660142Y-46177398D01*
X140650000Y-46276677D01*
X138875333Y-46276677D01*
X138867517Y-46223028D01*
X138815848Y-46117338D01*
X138732662Y-46034152D01*
X138626972Y-45982483D01*
X138626970Y-45982482D01*
X138626969Y-45982482D01*
X138572539Y-45974552D01*
X138558453Y-45972500D01*
X138558452Y-45972500D01*
X138041548Y-45972500D01*
X137973030Y-45982482D01*
X137973029Y-45982482D01*
X137973028Y-45982483D01*
X137944667Y-45996348D01*
X137867337Y-46034152D01*
X137784152Y-46117337D01*
X137732482Y-46223030D01*
X137731471Y-46229971D01*
X137727639Y-46256279D01*
X137725784Y-46269010D01*
X137701298Y-46310104D01*
X137663937Y-46322500D01*
X137625301Y-46322500D01*
X137625300Y-46322500D01*
X137625294Y-46322501D01*
X137529293Y-46348224D01*
X137529290Y-46348225D01*
X137443208Y-46397925D01*
X137443204Y-46397928D01*
X137169277Y-46671856D01*
X137125083Y-46690162D01*
X137080889Y-46671856D01*
X137062583Y-46627662D01*
X137068934Y-46600212D01*
X137087167Y-46562915D01*
X137092517Y-46551972D01*
X137102500Y-46483453D01*
X137102499Y-45966548D01*
X137092517Y-45898028D01*
X137040848Y-45792338D01*
X136957662Y-45709152D01*
X136851972Y-45657483D01*
X136851970Y-45657482D01*
X136851969Y-45657482D01*
X136797539Y-45649552D01*
X136783453Y-45647500D01*
X136783452Y-45647500D01*
X135966548Y-45647500D01*
X135898030Y-45657482D01*
X135898029Y-45657482D01*
X135898028Y-45657483D01*
X135845183Y-45683317D01*
X135792337Y-45709152D01*
X135709155Y-45792334D01*
X135706313Y-45796316D01*
X135665735Y-45821647D01*
X135655446Y-45822500D01*
X135097898Y-45822500D01*
X135066647Y-45814126D01*
X135045010Y-45801633D01*
X135045008Y-45801632D01*
X134936287Y-45772501D01*
X134936282Y-45772500D01*
X134936281Y-45772500D01*
X134823719Y-45772500D01*
X134823718Y-45772500D01*
X134823712Y-45772501D01*
X134714991Y-45801632D01*
X134714988Y-45801633D01*
X134617509Y-45857914D01*
X134617503Y-45857919D01*
X134537919Y-45937503D01*
X134537914Y-45937509D01*
X134481633Y-46034988D01*
X134481632Y-46034991D01*
X134452501Y-46143712D01*
X134452500Y-46143720D01*
X134452500Y-46256279D01*
X134452501Y-46256287D01*
X134481632Y-46365008D01*
X134481633Y-46365011D01*
X134537914Y-46462490D01*
X134537919Y-46462496D01*
X134617503Y-46542080D01*
X134617509Y-46542085D01*
X134714988Y-46598366D01*
X134714991Y-46598367D01*
X134823719Y-46627500D01*
X134823720Y-46627500D01*
X134936280Y-46627500D01*
X134936281Y-46627500D01*
X135045009Y-46598367D01*
X135066647Y-46585873D01*
X135097898Y-46577500D01*
X135630949Y-46577500D01*
X135675143Y-46595806D01*
X135687097Y-46612548D01*
X135688493Y-46615403D01*
X135709151Y-46657661D01*
X135709152Y-46657662D01*
X135792338Y-46740848D01*
X135898028Y-46792517D01*
X135966547Y-46802500D01*
X136783452Y-46802499D01*
X136851972Y-46792517D01*
X136900213Y-46768932D01*
X136947955Y-46765968D01*
X136983811Y-46797631D01*
X136986776Y-46845375D01*
X136971856Y-46869276D01*
X136072929Y-47768204D01*
X136072922Y-47768213D01*
X136023227Y-47854286D01*
X136021097Y-47862237D01*
X136021096Y-47862236D01*
X136021096Y-47862240D01*
X135997500Y-47950296D01*
X135997500Y-48888937D01*
X135979194Y-48933131D01*
X135944011Y-48950784D01*
X135917850Y-48954595D01*
X135898028Y-48957483D01*
X135866247Y-48973020D01*
X135792337Y-49009152D01*
X135709152Y-49092337D01*
X135657482Y-49198030D01*
X135647500Y-49266547D01*
X135647500Y-49783451D01*
X135656585Y-49845806D01*
X135657483Y-49851972D01*
X135709152Y-49957662D01*
X135792338Y-50040848D01*
X135898028Y-50092517D01*
X135944010Y-50099216D01*
X135985104Y-50123702D01*
X135997500Y-50161063D01*
X135997500Y-50214697D01*
X135997501Y-50214705D01*
X136023225Y-50310709D01*
X136023226Y-50310712D01*
X136045359Y-50349045D01*
X136051604Y-50396471D01*
X136022484Y-50434422D01*
X136018683Y-50436445D01*
X135932612Y-50478522D01*
X135932609Y-50478524D01*
X135843525Y-50567608D01*
X135788190Y-50680798D01*
X135777500Y-50754173D01*
X135777500Y-51325825D01*
X135788190Y-51399201D01*
X135788191Y-51399204D01*
X135843524Y-51512390D01*
X135932610Y-51601476D01*
X136045796Y-51656809D01*
X136119173Y-51667500D01*
X137140826Y-51667499D01*
X137204941Y-51658158D01*
X137251312Y-51669901D01*
X137275798Y-51710994D01*
X137274321Y-51736181D01*
X137262501Y-51780294D01*
X137262500Y-51780302D01*
X137262500Y-52257961D01*
X137244194Y-52302155D01*
X137200000Y-52320461D01*
X137190990Y-52319808D01*
X137140827Y-52312500D01*
X136119174Y-52312500D01*
X136045798Y-52323190D01*
X136045797Y-52323190D01*
X136045796Y-52323191D01*
X135953033Y-52368540D01*
X135932608Y-52378525D01*
X135843525Y-52467608D01*
X135843524Y-52467609D01*
X135843524Y-52467610D01*
X135816690Y-52522500D01*
X135788190Y-52580798D01*
X135777500Y-52654173D01*
X135777500Y-53225825D01*
X135788190Y-53299201D01*
X135788191Y-53299204D01*
X135843524Y-53412390D01*
X135932610Y-53501476D01*
X136045796Y-53556809D01*
X136119173Y-53567500D01*
X137140826Y-53567499D01*
X137214204Y-53556809D01*
X137327390Y-53501476D01*
X137416476Y-53412390D01*
X137445730Y-53352548D01*
X137481585Y-53320886D01*
X137501879Y-53317500D01*
X137549698Y-53317500D01*
X137549699Y-53317500D01*
X137645710Y-53291774D01*
X137659662Y-53283719D01*
X137666681Y-53279666D01*
X137731790Y-53242075D01*
X137815951Y-53157914D01*
X137903306Y-53070560D01*
X137947500Y-53052254D01*
X137991694Y-53070560D01*
X138010000Y-53114754D01*
X138010000Y-53716441D01*
X138012690Y-53739629D01*
X138012692Y-53739635D01*
X138054594Y-53834538D01*
X138054597Y-53834542D01*
X138063874Y-53843819D01*
X138082180Y-53888013D01*
X138073807Y-53919262D01*
X138041634Y-53974987D01*
X138041631Y-53974994D01*
X138012501Y-54083712D01*
X138012500Y-54083720D01*
X138012500Y-54196279D01*
X138012501Y-54196287D01*
X138041632Y-54305008D01*
X138041635Y-54305014D01*
X138065154Y-54345750D01*
X138071398Y-54393176D01*
X138042278Y-54431126D01*
X138011028Y-54439500D01*
X136711767Y-54439500D01*
X136667573Y-54421194D01*
X130574708Y-48328330D01*
X130574703Y-48328326D01*
X130500282Y-48297500D01*
X130500280Y-48297500D01*
X113546245Y-48297500D01*
X113502051Y-48279194D01*
X113483745Y-48235000D01*
X113484045Y-48228882D01*
X113485119Y-48217961D01*
X113150000Y-47882842D01*
X112814879Y-48217961D01*
X112815954Y-48228878D01*
X112815009Y-48231992D01*
X112816255Y-48235000D01*
X112808186Y-48254477D01*
X112802066Y-48274652D01*
X112799194Y-48276186D01*
X112797949Y-48279194D01*
X112778468Y-48287263D01*
X112759877Y-48297199D01*
X112753755Y-48297500D01*
X112646245Y-48297500D01*
X112602051Y-48279194D01*
X112583745Y-48235000D01*
X112584045Y-48228882D01*
X112585119Y-48217961D01*
X112250000Y-47882842D01*
X111914879Y-48217961D01*
X111918424Y-48220331D01*
X111945288Y-48231458D01*
X111979113Y-48265282D01*
X111979114Y-48313118D01*
X111975498Y-48320450D01*
X111944820Y-48373586D01*
X111944818Y-48373592D01*
X111922500Y-48456878D01*
X111922500Y-48543121D01*
X111944818Y-48626407D01*
X111944818Y-48626409D01*
X111957627Y-48648595D01*
X111987935Y-48701090D01*
X112048910Y-48762065D01*
X112123590Y-48805181D01*
X112149076Y-48812010D01*
X112206878Y-48827499D01*
X112206884Y-48827500D01*
X112293116Y-48827500D01*
X112293121Y-48827499D01*
X112317865Y-48820868D01*
X112376410Y-48805181D01*
X112395969Y-48793888D01*
X112443393Y-48787644D01*
X112481344Y-48816764D01*
X112487589Y-48864190D01*
X112471412Y-48892209D01*
X112309428Y-49054194D01*
X112265234Y-49072500D01*
X112206878Y-49072500D01*
X112123592Y-49094818D01*
X112123590Y-49094818D01*
X112086191Y-49116411D01*
X112048910Y-49137935D01*
X112048909Y-49137936D01*
X112048905Y-49137939D01*
X111987939Y-49198905D01*
X111987936Y-49198909D01*
X111987935Y-49198910D01*
X111980089Y-49212500D01*
X111944818Y-49273590D01*
X111944818Y-49273592D01*
X111922500Y-49356878D01*
X111922500Y-49443121D01*
X111944818Y-49526407D01*
X111944818Y-49526409D01*
X111956111Y-49545968D01*
X111987935Y-49601090D01*
X112048910Y-49662065D01*
X112123590Y-49705181D01*
X112147303Y-49711535D01*
X112206878Y-49727499D01*
X112206884Y-49727500D01*
X112293116Y-49727500D01*
X112293121Y-49727499D01*
X112330372Y-49717517D01*
X112376410Y-49705181D01*
X112451090Y-49662065D01*
X112512065Y-49601090D01*
X112555181Y-49526410D01*
X112573971Y-49456287D01*
X112577499Y-49443121D01*
X112577500Y-49443115D01*
X112577500Y-49384766D01*
X112595806Y-49340572D01*
X112673888Y-49262490D01*
X112757791Y-49178586D01*
X112801984Y-49160281D01*
X112846178Y-49178587D01*
X112864484Y-49222781D01*
X112856111Y-49254030D01*
X112844820Y-49273586D01*
X112844818Y-49273592D01*
X112822500Y-49356878D01*
X112822500Y-49443121D01*
X112844818Y-49526407D01*
X112844818Y-49526409D01*
X112856111Y-49545968D01*
X112887935Y-49601090D01*
X112948910Y-49662065D01*
X113023590Y-49705181D01*
X113047303Y-49711535D01*
X113106878Y-49727499D01*
X113106884Y-49727500D01*
X113193116Y-49727500D01*
X113193121Y-49727499D01*
X113230372Y-49717517D01*
X113276410Y-49705181D01*
X113351090Y-49662065D01*
X113392349Y-49620806D01*
X113436543Y-49602500D01*
X129560000Y-49602500D01*
X129604194Y-49620806D01*
X129622500Y-49665000D01*
X129622500Y-49696279D01*
X129622501Y-49696287D01*
X129651632Y-49805008D01*
X129651633Y-49805011D01*
X129707914Y-49902490D01*
X129707919Y-49902496D01*
X129787503Y-49982080D01*
X129787507Y-49982083D01*
X129787509Y-49982085D01*
X129787511Y-49982086D01*
X129790756Y-49984576D01*
X129789503Y-49986208D01*
X129814530Y-50018819D01*
X129808290Y-50066246D01*
X129770342Y-50095369D01*
X129754161Y-50097500D01*
X112536543Y-50097500D01*
X112492349Y-50079194D01*
X112451094Y-50037939D01*
X112451090Y-50037935D01*
X112376410Y-49994819D01*
X112376409Y-49994818D01*
X112376408Y-49994818D01*
X112293121Y-49972500D01*
X112293116Y-49972500D01*
X112206884Y-49972500D01*
X112206878Y-49972500D01*
X112123592Y-49994818D01*
X112123590Y-49994818D01*
X112084289Y-50017509D01*
X112048910Y-50037935D01*
X112048909Y-50037936D01*
X112048905Y-50037939D01*
X111987939Y-50098905D01*
X111987936Y-50098909D01*
X111987935Y-50098910D01*
X111978651Y-50114991D01*
X111944818Y-50173590D01*
X111944818Y-50173592D01*
X111922500Y-50256878D01*
X111922500Y-50343121D01*
X111944818Y-50426407D01*
X111944818Y-50426409D01*
X111955556Y-50445008D01*
X111987935Y-50501090D01*
X112048910Y-50562065D01*
X112123590Y-50605181D01*
X112149076Y-50612010D01*
X112206878Y-50627499D01*
X112206884Y-50627500D01*
X112293116Y-50627500D01*
X112293121Y-50627499D01*
X112317865Y-50620868D01*
X112376410Y-50605181D01*
X112451090Y-50562065D01*
X112492349Y-50520806D01*
X112536543Y-50502500D01*
X131270234Y-50502500D01*
X131314428Y-50520806D01*
X131684428Y-50890806D01*
X131702734Y-50935000D01*
X131684428Y-50979194D01*
X131640234Y-50997500D01*
X112536543Y-50997500D01*
X112492349Y-50979194D01*
X112451094Y-50937939D01*
X112451090Y-50937935D01*
X112376410Y-50894819D01*
X112376409Y-50894818D01*
X112376408Y-50894818D01*
X112293121Y-50872500D01*
X112293116Y-50872500D01*
X112206884Y-50872500D01*
X112206878Y-50872500D01*
X112123592Y-50894818D01*
X112123590Y-50894818D01*
X112071095Y-50925126D01*
X112048910Y-50937935D01*
X112048909Y-50937936D01*
X112048905Y-50937939D01*
X111987939Y-50998905D01*
X111987936Y-50998909D01*
X111987935Y-50998910D01*
X111975126Y-51021095D01*
X111944818Y-51073590D01*
X111944818Y-51073592D01*
X111922500Y-51156878D01*
X111922500Y-51243121D01*
X111944818Y-51326407D01*
X111944818Y-51326409D01*
X111944819Y-51326410D01*
X111987935Y-51401090D01*
X112048910Y-51462065D01*
X112123590Y-51505181D01*
X112134402Y-51508078D01*
X112206878Y-51527499D01*
X112206884Y-51527500D01*
X112293116Y-51527500D01*
X112293121Y-51527499D01*
X112317865Y-51520868D01*
X112376410Y-51505181D01*
X112451090Y-51462065D01*
X112492349Y-51420806D01*
X112536543Y-51402500D01*
X131740234Y-51402500D01*
X131784428Y-51420806D01*
X132154428Y-51790806D01*
X132172734Y-51835000D01*
X132154428Y-51879194D01*
X132110234Y-51897500D01*
X112536543Y-51897500D01*
X112492349Y-51879194D01*
X112451094Y-51837939D01*
X112451090Y-51837935D01*
X112376410Y-51794819D01*
X112376409Y-51794818D01*
X112376408Y-51794818D01*
X112293121Y-51772500D01*
X112293116Y-51772500D01*
X112206884Y-51772500D01*
X112206878Y-51772500D01*
X112123592Y-51794818D01*
X112123590Y-51794818D01*
X112071095Y-51825126D01*
X112048910Y-51837935D01*
X112048909Y-51837936D01*
X112048905Y-51837939D01*
X111987939Y-51898905D01*
X111987936Y-51898909D01*
X111987935Y-51898910D01*
X111975126Y-51921095D01*
X111944818Y-51973590D01*
X111944818Y-51973592D01*
X111922500Y-52056878D01*
X111922500Y-52143121D01*
X111944818Y-52226407D01*
X111944819Y-52226410D01*
X111975498Y-52279548D01*
X111981741Y-52326975D01*
X111952621Y-52364925D01*
X111945289Y-52368540D01*
X111918432Y-52379664D01*
X111918430Y-52379665D01*
X111914880Y-52382037D01*
X112250000Y-52717157D01*
X112585119Y-52382037D01*
X112584045Y-52371124D01*
X112597932Y-52325349D01*
X112640120Y-52302801D01*
X112646244Y-52302500D01*
X132160234Y-52302500D01*
X132204428Y-52320806D01*
X135752329Y-55868707D01*
X135809293Y-55925671D01*
X135809294Y-55925671D01*
X135809296Y-55925673D01*
X135883717Y-55956499D01*
X135883720Y-55956500D01*
X141203231Y-55956500D01*
X141234290Y-55943635D01*
X141277654Y-55925673D01*
X141277654Y-55925672D01*
X141277658Y-55925671D01*
X141532523Y-55670806D01*
X141576717Y-55652500D01*
X142668072Y-55652500D01*
X142712266Y-55670806D01*
X142713967Y-55672575D01*
X142716209Y-55675000D01*
X143432500Y-55675000D01*
X143476694Y-55693306D01*
X143495000Y-55737500D01*
X143495000Y-56112500D01*
X143476694Y-56156694D01*
X143432500Y-56175000D01*
X142716211Y-56175000D01*
X142717856Y-56195921D01*
X142761185Y-56345063D01*
X142761186Y-56379936D01*
X142717853Y-56529092D01*
X142716208Y-56549999D01*
X142716209Y-56550000D01*
X143432500Y-56550000D01*
X143476694Y-56568306D01*
X143495000Y-56612500D01*
X143495000Y-56987500D01*
X143476694Y-57031694D01*
X143432500Y-57050000D01*
X142716211Y-57050000D01*
X142717856Y-57070921D01*
X142762968Y-57226196D01*
X142762969Y-57226197D01*
X142845279Y-57365377D01*
X142914179Y-57434277D01*
X142932485Y-57478471D01*
X142914179Y-57522665D01*
X142862446Y-57574398D01*
X142818252Y-57592704D01*
X142787003Y-57584331D01*
X142776922Y-57578511D01*
X142765008Y-57571632D01*
X142765005Y-57571631D01*
X142656287Y-57542501D01*
X142656282Y-57542500D01*
X142656281Y-57542500D01*
X142543719Y-57542500D01*
X142543718Y-57542500D01*
X142543712Y-57542501D01*
X142434991Y-57571632D01*
X142434988Y-57571633D01*
X142337509Y-57627914D01*
X142337503Y-57627919D01*
X142257919Y-57707503D01*
X142257914Y-57707509D01*
X142201633Y-57804988D01*
X142201632Y-57804991D01*
X142172501Y-57913712D01*
X142172500Y-57913720D01*
X142172500Y-58026279D01*
X142172501Y-58026287D01*
X142201632Y-58135008D01*
X142201633Y-58135011D01*
X142257914Y-58232490D01*
X142257919Y-58232496D01*
X142337503Y-58312080D01*
X142337509Y-58312085D01*
X142434988Y-58368366D01*
X142434991Y-58368367D01*
X142543719Y-58397500D01*
X142543720Y-58397500D01*
X142656280Y-58397500D01*
X142656281Y-58397500D01*
X142765009Y-58368367D01*
X142780661Y-58359329D01*
X142828086Y-58353085D01*
X142856106Y-58369262D01*
X142934253Y-58447409D01*
X142934254Y-58447409D01*
X142934256Y-58447411D01*
X143038929Y-58496221D01*
X143086625Y-58502500D01*
X143713374Y-58502499D01*
X143761071Y-58496221D01*
X143865744Y-58447411D01*
X143947411Y-58365744D01*
X143995048Y-58263585D01*
X144030316Y-58231269D01*
X144051692Y-58227500D01*
X144194775Y-58227500D01*
X144196562Y-58227500D01*
X144240756Y-58245806D01*
X144259062Y-58290000D01*
X144257861Y-58302194D01*
X144252500Y-58329144D01*
X144252500Y-58650856D01*
X144268931Y-58733461D01*
X144265626Y-58734118D01*
X144265630Y-58742176D01*
X144268426Y-58761819D01*
X144265641Y-58765527D01*
X144265644Y-58770165D01*
X144239705Y-58800072D01*
X144147835Y-58854404D01*
X144100477Y-58861144D01*
X144083686Y-58854094D01*
X143964399Y-58781982D01*
X143802109Y-58731410D01*
X143802108Y-58731409D01*
X143731574Y-58725000D01*
X143650000Y-58725000D01*
X143650000Y-59375000D01*
X143811500Y-59375000D01*
X143811500Y-59322500D01*
X143829806Y-59278306D01*
X143874000Y-59260000D01*
X145512845Y-59260000D01*
X145512844Y-59259999D01*
X145472405Y-59120805D01*
X145472404Y-59120804D01*
X145404223Y-59005515D01*
X145397483Y-58958157D01*
X145426204Y-58919904D01*
X145441834Y-58913332D01*
X145535009Y-58888367D01*
X145578900Y-58863025D01*
X145626325Y-58856781D01*
X145664276Y-58885901D01*
X145671875Y-58909551D01*
X145671901Y-58909546D01*
X145671944Y-58909766D01*
X145672349Y-58911024D01*
X145672500Y-58912557D01*
X145672500Y-58912558D01*
X145673082Y-58915485D01*
X145679898Y-58949748D01*
X145679898Y-58949749D01*
X145708077Y-58991922D01*
X145723909Y-59002500D01*
X145750252Y-59020102D01*
X145787442Y-59027500D01*
X145787443Y-59027500D01*
X146829412Y-59027500D01*
X146873606Y-59045806D01*
X146891912Y-59090000D01*
X146879445Y-59127455D01*
X146856649Y-59157905D01*
X146856647Y-59157908D01*
X146806402Y-59292622D01*
X146800000Y-59352164D01*
X146800000Y-60150000D01*
X148550000Y-60150000D01*
X149050000Y-60150000D01*
X150800000Y-60150000D01*
X150800000Y-59352177D01*
X150799999Y-59352164D01*
X150793597Y-59292622D01*
X150743352Y-59157908D01*
X150743350Y-59157905D01*
X150657191Y-59042813D01*
X150657186Y-59042808D01*
X150542094Y-58956649D01*
X150542091Y-58956647D01*
X150407377Y-58906402D01*
X150347835Y-58900000D01*
X149050000Y-58900000D01*
X149050000Y-60150000D01*
X148550000Y-60150000D01*
X148550000Y-58900000D01*
X147290000Y-58900000D01*
X147245806Y-58881694D01*
X147227500Y-58837500D01*
X147227500Y-58587442D01*
X147226997Y-58584912D01*
X147220102Y-58550252D01*
X147209726Y-58534723D01*
X147200394Y-58487807D01*
X147209726Y-58465277D01*
X147220101Y-58449749D01*
X147220102Y-58449748D01*
X147227500Y-58412558D01*
X147227500Y-58087442D01*
X147220102Y-58050252D01*
X147217709Y-58046671D01*
X147209726Y-58034723D01*
X147200394Y-57987807D01*
X147209726Y-57965277D01*
X147220101Y-57949749D01*
X147220102Y-57949748D01*
X147227500Y-57912558D01*
X147227500Y-57587442D01*
X147220102Y-57550252D01*
X147214922Y-57542500D01*
X147209726Y-57534723D01*
X147200394Y-57487807D01*
X147209726Y-57465277D01*
X147216661Y-57454898D01*
X147220102Y-57449748D01*
X147227500Y-57412558D01*
X147227500Y-57087442D01*
X147220102Y-57050252D01*
X147209726Y-57034723D01*
X147200394Y-56987807D01*
X147209726Y-56965277D01*
X147220101Y-56949749D01*
X147220102Y-56949748D01*
X147227500Y-56912558D01*
X147227500Y-56587442D01*
X147220102Y-56550252D01*
X147209726Y-56534723D01*
X147200394Y-56487807D01*
X147209726Y-56465277D01*
X147220101Y-56449749D01*
X147220102Y-56449748D01*
X147227500Y-56412558D01*
X147227500Y-56087442D01*
X147220102Y-56050252D01*
X147219932Y-56049998D01*
X147209726Y-56034723D01*
X147200394Y-55987807D01*
X147203137Y-55978149D01*
X147205682Y-55971328D01*
X147220102Y-55949748D01*
X147227369Y-55913211D01*
X147229129Y-55908498D01*
X147242259Y-55894400D01*
X147252962Y-55878382D01*
X147261017Y-55874259D01*
X147261731Y-55873493D01*
X147262573Y-55873463D01*
X147265844Y-55871789D01*
X147342094Y-55843350D01*
X147457186Y-55757191D01*
X147457191Y-55757186D01*
X147543350Y-55642094D01*
X147543352Y-55642091D01*
X147593597Y-55507377D01*
X147599999Y-55447835D01*
X147600000Y-55447822D01*
X147600000Y-55400000D01*
X145300000Y-55400000D01*
X145300000Y-55447835D01*
X145306402Y-55507377D01*
X145356647Y-55642091D01*
X145356649Y-55642094D01*
X145442808Y-55757186D01*
X145442813Y-55757191D01*
X145557905Y-55843350D01*
X145557904Y-55843350D01*
X145634155Y-55871789D01*
X145669166Y-55904385D01*
X145670869Y-55908497D01*
X145672631Y-55913220D01*
X145679898Y-55949748D01*
X145694316Y-55971326D01*
X145696862Y-55978148D01*
X145696251Y-55995329D01*
X145699606Y-56012193D01*
X145695281Y-56022632D01*
X145695164Y-56025953D01*
X145693116Y-56027859D01*
X145690274Y-56034723D01*
X145679898Y-56050250D01*
X145679898Y-56050251D01*
X145672500Y-56087442D01*
X145672500Y-56284523D01*
X145654194Y-56328717D01*
X145610000Y-56347023D01*
X145565806Y-56328717D01*
X144948031Y-55710942D01*
X144948030Y-55710941D01*
X144946323Y-55710234D01*
X144905455Y-55693306D01*
X144880126Y-55682814D01*
X144851992Y-55654680D01*
X144850400Y-55655745D01*
X144825928Y-55619121D01*
X144787857Y-55562143D01*
X144705894Y-55507377D01*
X144699375Y-55503021D01*
X144699371Y-55503019D01*
X144621348Y-55487500D01*
X144288652Y-55487500D01*
X144274676Y-55490280D01*
X144270975Y-55491016D01*
X144224059Y-55481681D01*
X144204987Y-55461531D01*
X144144717Y-55359619D01*
X144062292Y-55277194D01*
X144043986Y-55233000D01*
X144062292Y-55188806D01*
X144106486Y-55170500D01*
X145289232Y-55170500D01*
X145337031Y-55150701D01*
X145363655Y-55139673D01*
X145363655Y-55139672D01*
X145363659Y-55139671D01*
X145385024Y-55118305D01*
X145429218Y-55100000D01*
X147600000Y-55100000D01*
X147600000Y-55052177D01*
X147599999Y-55052164D01*
X147593597Y-54992622D01*
X147543352Y-54857908D01*
X147543350Y-54857905D01*
X147457191Y-54742813D01*
X147342087Y-54656646D01*
X147265843Y-54628208D01*
X147230833Y-54595612D01*
X147229130Y-54591501D01*
X147227368Y-54586780D01*
X147220102Y-54550252D01*
X147205683Y-54528673D01*
X147203138Y-54521852D01*
X147203748Y-54504670D01*
X147200394Y-54487807D01*
X147204718Y-54477367D01*
X147204836Y-54474047D01*
X147206883Y-54472140D01*
X147209726Y-54465277D01*
X147220101Y-54449749D01*
X147220102Y-54449748D01*
X147227500Y-54412558D01*
X147227500Y-54087442D01*
X147220102Y-54050252D01*
X147219748Y-54049722D01*
X147219623Y-54049097D01*
X147217746Y-54044564D01*
X147218647Y-54044190D01*
X147210417Y-54002805D01*
X147236994Y-53963032D01*
X147271716Y-53952500D01*
X147330280Y-53952500D01*
X147357749Y-53941122D01*
X147404703Y-53921673D01*
X147404704Y-53921672D01*
X147404707Y-53921671D01*
X147551292Y-53775085D01*
X147595485Y-53756780D01*
X147611659Y-53758909D01*
X147625044Y-53762496D01*
X147643711Y-53767498D01*
X147643719Y-53767500D01*
X147643720Y-53767500D01*
X147756280Y-53767500D01*
X147756281Y-53767500D01*
X147865009Y-53738367D01*
X147962491Y-53682085D01*
X148042085Y-53602491D01*
X148098367Y-53505009D01*
X148127500Y-53396281D01*
X148127500Y-53283719D01*
X148098367Y-53174991D01*
X148098366Y-53174988D01*
X148042085Y-53077509D01*
X148042080Y-53077503D01*
X147962496Y-52997919D01*
X147962490Y-52997914D01*
X147865011Y-52941633D01*
X147865008Y-52941632D01*
X147756287Y-52912501D01*
X147756282Y-52912500D01*
X147756281Y-52912500D01*
X147643719Y-52912500D01*
X147643718Y-52912500D01*
X147643712Y-52912501D01*
X147534991Y-52941632D01*
X147534988Y-52941633D01*
X147437509Y-52997914D01*
X147437503Y-52997919D01*
X147357919Y-53077503D01*
X147357914Y-53077509D01*
X147342477Y-53104247D01*
X147304526Y-53133367D01*
X147257100Y-53127122D01*
X147229643Y-53094436D01*
X147227500Y-53088567D01*
X147227500Y-53087442D01*
X147220102Y-53050252D01*
X147205558Y-53028485D01*
X147202985Y-53021440D01*
X147203707Y-53004466D01*
X147200394Y-52987807D01*
X147204878Y-52976981D01*
X147205020Y-52973648D01*
X147207019Y-52971812D01*
X147209726Y-52965277D01*
X147215338Y-52956878D01*
X147220102Y-52949748D01*
X147227500Y-52912558D01*
X147227500Y-52587442D01*
X147220102Y-52550252D01*
X147209726Y-52534723D01*
X147200394Y-52487807D01*
X147209726Y-52465277D01*
X147220101Y-52449749D01*
X147220102Y-52449748D01*
X147227500Y-52412558D01*
X147227500Y-52087442D01*
X147220102Y-52050252D01*
X147209726Y-52034723D01*
X147200394Y-51987807D01*
X147209726Y-51965277D01*
X147220101Y-51949749D01*
X147220102Y-51949748D01*
X147227500Y-51912558D01*
X147227500Y-51587442D01*
X147220102Y-51550252D01*
X147209726Y-51534723D01*
X147200394Y-51487807D01*
X147203137Y-51478149D01*
X147205682Y-51471328D01*
X147220102Y-51449748D01*
X147227369Y-51413211D01*
X147229129Y-51408498D01*
X147242259Y-51394400D01*
X147252962Y-51378382D01*
X147261017Y-51374259D01*
X147261731Y-51373493D01*
X147262573Y-51373463D01*
X147265844Y-51371789D01*
X147342094Y-51343350D01*
X147457186Y-51257191D01*
X147457191Y-51257186D01*
X147543350Y-51142094D01*
X147543352Y-51142091D01*
X147593597Y-51007377D01*
X147599999Y-50947835D01*
X147600000Y-50947822D01*
X147600000Y-50900000D01*
X146512500Y-50900000D01*
X146468306Y-50881694D01*
X146450000Y-50837500D01*
X146450000Y-50662500D01*
X146468306Y-50618306D01*
X146512500Y-50600000D01*
X147600000Y-50600000D01*
X147600000Y-50552177D01*
X147599999Y-50552164D01*
X147593597Y-50492622D01*
X147543352Y-50357908D01*
X147543350Y-50357905D01*
X147457191Y-50242813D01*
X147342087Y-50156646D01*
X147265843Y-50128208D01*
X147230833Y-50095612D01*
X147229130Y-50091501D01*
X147227368Y-50086780D01*
X147220102Y-50050252D01*
X147205683Y-50028673D01*
X147203138Y-50021852D01*
X147203748Y-50004670D01*
X147200394Y-49987807D01*
X147204718Y-49977367D01*
X147204836Y-49974047D01*
X147206883Y-49972140D01*
X147209726Y-49965277D01*
X147220101Y-49949749D01*
X147220102Y-49949748D01*
X147227500Y-49912558D01*
X147227500Y-49587442D01*
X147220102Y-49550252D01*
X147217239Y-49545968D01*
X147209726Y-49534723D01*
X147200394Y-49487807D01*
X147209726Y-49465277D01*
X147220101Y-49449749D01*
X147220102Y-49449748D01*
X147227500Y-49412558D01*
X147227500Y-49087442D01*
X147220102Y-49050252D01*
X147215757Y-49043750D01*
X147209726Y-49034723D01*
X147200394Y-48987807D01*
X147209726Y-48965277D01*
X147214934Y-48957483D01*
X147220102Y-48949748D01*
X147227500Y-48912558D01*
X147227500Y-48587442D01*
X147220102Y-48550252D01*
X147218683Y-48548129D01*
X147209726Y-48534723D01*
X147200394Y-48487807D01*
X147209726Y-48465277D01*
X147220101Y-48449749D01*
X147220102Y-48449748D01*
X147227500Y-48412558D01*
X147227500Y-48087442D01*
X147220102Y-48050252D01*
X147211581Y-48037500D01*
X147209726Y-48034723D01*
X147200394Y-47987807D01*
X147209726Y-47965277D01*
X147220101Y-47949749D01*
X147220102Y-47949748D01*
X147227500Y-47912558D01*
X147227500Y-47587442D01*
X147220102Y-47550252D01*
X147214342Y-47541632D01*
X147209726Y-47534723D01*
X147200394Y-47487807D01*
X147209726Y-47465277D01*
X147220101Y-47449749D01*
X147220102Y-47449748D01*
X147227500Y-47412558D01*
X147227500Y-47162500D01*
X147245806Y-47118306D01*
X147290000Y-47100000D01*
X148550000Y-47100000D01*
X149050000Y-47100000D01*
X150347822Y-47100000D01*
X150347835Y-47099999D01*
X150407377Y-47093597D01*
X150542091Y-47043352D01*
X150542094Y-47043350D01*
X150657186Y-46957191D01*
X150657191Y-46957186D01*
X150743350Y-46842094D01*
X150743352Y-46842091D01*
X150793597Y-46707377D01*
X150799999Y-46647835D01*
X150800000Y-46647822D01*
X150800000Y-45850000D01*
X149050000Y-45850000D01*
X149050000Y-47100000D01*
X148550000Y-47100000D01*
X148550000Y-45850000D01*
X146800000Y-45850000D01*
X146800000Y-46647835D01*
X146806402Y-46707377D01*
X146856647Y-46842091D01*
X146856649Y-46842094D01*
X146879445Y-46872545D01*
X146891276Y-46918894D01*
X146866867Y-46960033D01*
X146829412Y-46972500D01*
X146665000Y-46972500D01*
X146620806Y-46954194D01*
X146602500Y-46910000D01*
X146602500Y-46904776D01*
X146599009Y-46896348D01*
X146564059Y-46811970D01*
X146493030Y-46740941D01*
X145338030Y-45585941D01*
X145245225Y-45547500D01*
X145245224Y-45547500D01*
X144920002Y-45547500D01*
X144875808Y-45529194D01*
X144868035Y-45519723D01*
X144854355Y-45499250D01*
X144812857Y-45437143D01*
X144754001Y-45397817D01*
X144724375Y-45378021D01*
X144724371Y-45378019D01*
X144646348Y-45362500D01*
X144313652Y-45362500D01*
X144299388Y-45365337D01*
X144295975Y-45366016D01*
X144249059Y-45356681D01*
X144229987Y-45336531D01*
X144169717Y-45234619D01*
X144141792Y-45206694D01*
X144123486Y-45162500D01*
X144141792Y-45118306D01*
X144185986Y-45100000D01*
X146737500Y-45100000D01*
X146781694Y-45118306D01*
X146800000Y-45162500D01*
X146800000Y-45350000D01*
X150800000Y-45350000D01*
X150800000Y-45162500D01*
X150818306Y-45118306D01*
X150862500Y-45100000D01*
X157810000Y-45100000D01*
X157854194Y-45118306D01*
X157872500Y-45162500D01*
X157872500Y-72996930D01*
X157872199Y-73003056D01*
X157856338Y-73164088D01*
X157853948Y-73176105D01*
X157807871Y-73328002D01*
X157803182Y-73339321D01*
X157728358Y-73479307D01*
X157721551Y-73489494D01*
X157620856Y-73612192D01*
X157612192Y-73620856D01*
X157489494Y-73721551D01*
X157479307Y-73728358D01*
X157339321Y-73803182D01*
X157328002Y-73807871D01*
X157176105Y-73853948D01*
X157164088Y-73856338D01*
X157003056Y-73872199D01*
X156996930Y-73872500D01*
X140320727Y-73872500D01*
X140304551Y-73870370D01*
X140292425Y-73867121D01*
X140264408Y-73850945D01*
X140261554Y-73848091D01*
X140256726Y-73839728D01*
X140254475Y-73838001D01*
X140254104Y-73835187D01*
X140245378Y-73820072D01*
X140242128Y-73807945D01*
X140240000Y-73791773D01*
X140240000Y-73678042D01*
X140240000Y-73678036D01*
X140203645Y-73436832D01*
X140131746Y-73203740D01*
X140025909Y-72983968D01*
X139893813Y-72790219D01*
X139888505Y-72782433D01*
X139888502Y-72782430D01*
X139888499Y-72782425D01*
X139722585Y-72603612D01*
X139722580Y-72603608D01*
X139722577Y-72603605D01*
X139531883Y-72451531D01*
X139531877Y-72451527D01*
X139531874Y-72451525D01*
X139320626Y-72329561D01*
X139093559Y-72240444D01*
X139093555Y-72240443D01*
X139093552Y-72240442D01*
X138855747Y-72186165D01*
X138612503Y-72167936D01*
X138612497Y-72167936D01*
X138369253Y-72186165D01*
X138369251Y-72186165D01*
X138131447Y-72240442D01*
X138131444Y-72240443D01*
X138131442Y-72240443D01*
X138131441Y-72240444D01*
X138087988Y-72257498D01*
X137904371Y-72329562D01*
X137693116Y-72451531D01*
X137502422Y-72603605D01*
X137502417Y-72603610D01*
X137502415Y-72603611D01*
X137502415Y-72603612D01*
X137354157Y-72763397D01*
X137336494Y-72782433D01*
X137199091Y-72983967D01*
X137093252Y-73203744D01*
X137093251Y-73203748D01*
X137021356Y-73436824D01*
X136985000Y-73678036D01*
X136985000Y-73791773D01*
X136982870Y-73807951D01*
X136979621Y-73820075D01*
X136963445Y-73848091D01*
X136960591Y-73850945D01*
X136952225Y-73855775D01*
X136950499Y-73858025D01*
X136947688Y-73858394D01*
X136932574Y-73867121D01*
X136920447Y-73870370D01*
X136904273Y-73872500D01*
X116045727Y-73872500D01*
X116029551Y-73870370D01*
X116017425Y-73867121D01*
X115989408Y-73850945D01*
X115986554Y-73848091D01*
X115981726Y-73839728D01*
X115979475Y-73838001D01*
X115979104Y-73835187D01*
X115970378Y-73820072D01*
X115967128Y-73807945D01*
X115965000Y-73791773D01*
X115965000Y-73678042D01*
X115965000Y-73678036D01*
X115928645Y-73436832D01*
X115856746Y-73203740D01*
X115750909Y-72983968D01*
X115618813Y-72790219D01*
X115613505Y-72782433D01*
X115613502Y-72782430D01*
X115613499Y-72782425D01*
X115447585Y-72603612D01*
X115447580Y-72603608D01*
X115447577Y-72603605D01*
X115256883Y-72451531D01*
X115256877Y-72451527D01*
X115256874Y-72451525D01*
X115045626Y-72329561D01*
X114818559Y-72240444D01*
X114818555Y-72240443D01*
X114818552Y-72240442D01*
X114580747Y-72186165D01*
X114337503Y-72167936D01*
X114337497Y-72167936D01*
X114094253Y-72186165D01*
X114094251Y-72186165D01*
X113856447Y-72240442D01*
X113856444Y-72240443D01*
X113856442Y-72240443D01*
X113856441Y-72240444D01*
X113812988Y-72257498D01*
X113629371Y-72329562D01*
X113418116Y-72451531D01*
X113227422Y-72603605D01*
X113227417Y-72603610D01*
X113227415Y-72603611D01*
X113227415Y-72603612D01*
X113079157Y-72763397D01*
X113061494Y-72782433D01*
X112924091Y-72983967D01*
X112818252Y-73203744D01*
X112818251Y-73203748D01*
X112746356Y-73436824D01*
X112710000Y-73678036D01*
X112710000Y-73791773D01*
X112707870Y-73807951D01*
X112704621Y-73820075D01*
X112688445Y-73848091D01*
X112685591Y-73850945D01*
X112677225Y-73855775D01*
X112675499Y-73858025D01*
X112672688Y-73858394D01*
X112657574Y-73867121D01*
X112645447Y-73870370D01*
X112629273Y-73872500D01*
X101003070Y-73872500D01*
X100996944Y-73872199D01*
X100835911Y-73856338D01*
X100823894Y-73853948D01*
X100671997Y-73807871D01*
X100660678Y-73803182D01*
X100520692Y-73728358D01*
X100510505Y-73721551D01*
X100457481Y-73678036D01*
X100387805Y-73620854D01*
X100379143Y-73612192D01*
X100347877Y-73574094D01*
X100278445Y-73489490D01*
X100271644Y-73479311D01*
X100196815Y-73339317D01*
X100192130Y-73328007D01*
X100146050Y-73176101D01*
X100143661Y-73164088D01*
X100140057Y-73127500D01*
X100127801Y-73003056D01*
X100127500Y-72996930D01*
X100127500Y-71987155D01*
X100145806Y-71942961D01*
X100190000Y-71924655D01*
X100234194Y-71942961D01*
X100247742Y-71963237D01*
X100255941Y-71983030D01*
X100715941Y-72443030D01*
X100786970Y-72514059D01*
X100879775Y-72552500D01*
X101135000Y-72552500D01*
X101179194Y-72570806D01*
X101197500Y-72615000D01*
X101197500Y-72622212D01*
X101203586Y-72668442D01*
X101250907Y-72769921D01*
X101330078Y-72849092D01*
X101330079Y-72849092D01*
X101330080Y-72849093D01*
X101431557Y-72896413D01*
X101477794Y-72902500D01*
X101477800Y-72902500D01*
X102922200Y-72902500D01*
X102922206Y-72902500D01*
X102968443Y-72896413D01*
X103069920Y-72849093D01*
X103069921Y-72849092D01*
X103069922Y-72849092D01*
X103149092Y-72769922D01*
X103149092Y-72769921D01*
X103149093Y-72769920D01*
X103196413Y-72668443D01*
X103202500Y-72622206D01*
X103202500Y-72263720D01*
X111702500Y-72263720D01*
X111702500Y-72376279D01*
X111702501Y-72376287D01*
X111731632Y-72485008D01*
X111731633Y-72485011D01*
X111787914Y-72582490D01*
X111787919Y-72582496D01*
X111867503Y-72662080D01*
X111867509Y-72662085D01*
X111964988Y-72718366D01*
X111964991Y-72718367D01*
X112073719Y-72747500D01*
X112073720Y-72747500D01*
X112186280Y-72747500D01*
X112186281Y-72747500D01*
X112295009Y-72718367D01*
X112392491Y-72662085D01*
X112472085Y-72582491D01*
X112528367Y-72485009D01*
X112557500Y-72376281D01*
X112557500Y-72263719D01*
X112528367Y-72154991D01*
X112528366Y-72154988D01*
X112472085Y-72057509D01*
X112472080Y-72057503D01*
X112392496Y-71977919D01*
X112392490Y-71977914D01*
X112295011Y-71921633D01*
X112295008Y-71921632D01*
X112186287Y-71892501D01*
X112186282Y-71892500D01*
X112186281Y-71892500D01*
X112073719Y-71892500D01*
X112073718Y-71892500D01*
X112073712Y-71892501D01*
X111964991Y-71921632D01*
X111964988Y-71921633D01*
X111867509Y-71977914D01*
X111867503Y-71977919D01*
X111787919Y-72057503D01*
X111787914Y-72057509D01*
X111731633Y-72154988D01*
X111731632Y-72154991D01*
X111702501Y-72263712D01*
X111702500Y-72263720D01*
X103202500Y-72263720D01*
X103202500Y-71977794D01*
X103196413Y-71931557D01*
X103149093Y-71830080D01*
X103149092Y-71830079D01*
X103149092Y-71830078D01*
X103069921Y-71750907D01*
X103041900Y-71737841D01*
X103009583Y-71702573D01*
X103011670Y-71654783D01*
X103033591Y-71629230D01*
X103054334Y-71615370D01*
X103154993Y-71548112D01*
X103298112Y-71404993D01*
X103410559Y-71236704D01*
X103488014Y-71049711D01*
X103527500Y-70851200D01*
X103527500Y-70648800D01*
X103488014Y-70450289D01*
X103410559Y-70263296D01*
X103298112Y-70095007D01*
X103154993Y-69951888D01*
X103154992Y-69951887D01*
X103033591Y-69870769D01*
X103007015Y-69830995D01*
X103016347Y-69784079D01*
X103041899Y-69762159D01*
X103069920Y-69749093D01*
X103094374Y-69724639D01*
X103149092Y-69669922D01*
X103149092Y-69669921D01*
X103149093Y-69669920D01*
X103196413Y-69568443D01*
X103202500Y-69522206D01*
X103202500Y-68877794D01*
X103196413Y-68831557D01*
X103149093Y-68730080D01*
X103149092Y-68730079D01*
X103149092Y-68730078D01*
X103069921Y-68650907D01*
X102968442Y-68603586D01*
X102922212Y-68597500D01*
X102922206Y-68597500D01*
X102515000Y-68597500D01*
X102470806Y-68579194D01*
X102452500Y-68535000D01*
X102452500Y-65023813D01*
X102470806Y-64979619D01*
X102489754Y-64966639D01*
X102509542Y-64957903D01*
X102582903Y-64884542D01*
X102624808Y-64789634D01*
X102627499Y-64766441D01*
X102627500Y-64766439D01*
X102627500Y-63508565D01*
X102626607Y-63500874D01*
X102639694Y-63454863D01*
X102681482Y-63431583D01*
X102720506Y-63439870D01*
X102739801Y-63451282D01*
X102897511Y-63497100D01*
X102897510Y-63497100D01*
X102900000Y-63497296D01*
X103400000Y-63497296D01*
X103402488Y-63497100D01*
X103560199Y-63451281D01*
X103560201Y-63451280D01*
X103701555Y-63367684D01*
X103701557Y-63367683D01*
X103817683Y-63251557D01*
X103817684Y-63251555D01*
X103901280Y-63110201D01*
X103901281Y-63110199D01*
X103947100Y-62952490D01*
X103947100Y-62952486D01*
X103950000Y-62915650D01*
X103950000Y-62512500D01*
X103400000Y-62512500D01*
X103400000Y-63497296D01*
X102900000Y-63497296D01*
X102900000Y-62512500D01*
X102350000Y-62512500D01*
X102350000Y-62915650D01*
X102352899Y-62952486D01*
X102352899Y-62952490D01*
X102398718Y-63110199D01*
X102398719Y-63110200D01*
X102438925Y-63178185D01*
X102445665Y-63225543D01*
X102416944Y-63263796D01*
X102385129Y-63272500D01*
X102008560Y-63272500D01*
X101985370Y-63275190D01*
X101985364Y-63275192D01*
X101890461Y-63317094D01*
X101890457Y-63317097D01*
X101817097Y-63390457D01*
X101817094Y-63390461D01*
X101775192Y-63485364D01*
X101775190Y-63485370D01*
X101772500Y-63508558D01*
X101772500Y-64766441D01*
X101775190Y-64789629D01*
X101775192Y-64789635D01*
X101817094Y-64884538D01*
X101817097Y-64884542D01*
X101890455Y-64957901D01*
X101890456Y-64957901D01*
X101890458Y-64957903D01*
X101910243Y-64966638D01*
X101943278Y-65001232D01*
X101947500Y-65023813D01*
X101947500Y-68535000D01*
X101929194Y-68579194D01*
X101885000Y-68597500D01*
X101476751Y-68597500D01*
X101432557Y-68579194D01*
X101414251Y-68535000D01*
X101419008Y-68511083D01*
X101426422Y-68493181D01*
X101452500Y-68430225D01*
X101452500Y-68329775D01*
X101452500Y-68248496D01*
X101470806Y-68204302D01*
X101482735Y-68196334D01*
X101482305Y-68195690D01*
X101574252Y-68134252D01*
X101578379Y-68128076D01*
X101632270Y-68047423D01*
X101647500Y-67970856D01*
X101647500Y-67649144D01*
X101632270Y-67572577D01*
X101628880Y-67567503D01*
X101574252Y-67485747D01*
X101487424Y-67427730D01*
X101487422Y-67427729D01*
X101410856Y-67412500D01*
X100989144Y-67412500D01*
X100912577Y-67427729D01*
X100912575Y-67427730D01*
X100825747Y-67485747D01*
X100767730Y-67572575D01*
X100767729Y-67572577D01*
X100752500Y-67649143D01*
X100752500Y-67970856D01*
X100767729Y-68047422D01*
X100767730Y-68047424D01*
X100825747Y-68134252D01*
X100917695Y-68195690D01*
X100916153Y-68197997D01*
X100917697Y-68199539D01*
X100929194Y-68204302D01*
X100933946Y-68215774D01*
X100942732Y-68224553D01*
X100947500Y-68248496D01*
X100947500Y-68249523D01*
X100929194Y-68293717D01*
X100255942Y-68966968D01*
X100255938Y-68966974D01*
X100247742Y-68986762D01*
X100213917Y-69020587D01*
X100166082Y-69020586D01*
X100132257Y-68986761D01*
X100127500Y-68962844D01*
X100127500Y-66629143D01*
X100752500Y-66629143D01*
X100752500Y-66950856D01*
X100767729Y-67027422D01*
X100767730Y-67027424D01*
X100825747Y-67114252D01*
X100912575Y-67172269D01*
X100912577Y-67172270D01*
X100989144Y-67187500D01*
X101410856Y-67187500D01*
X101487423Y-67172270D01*
X101574252Y-67114252D01*
X101632270Y-67027423D01*
X101647500Y-66950856D01*
X101647500Y-66629144D01*
X101632270Y-66552577D01*
X101630381Y-66549749D01*
X101574251Y-66465746D01*
X101544403Y-66445802D01*
X101517828Y-66406028D01*
X101527161Y-66359112D01*
X101529815Y-66355911D01*
X101529592Y-66355740D01*
X101532079Y-66352496D01*
X101532085Y-66352491D01*
X101588367Y-66255009D01*
X101617500Y-66146281D01*
X101617500Y-66033719D01*
X101588367Y-65924991D01*
X101588366Y-65924988D01*
X101532085Y-65827509D01*
X101532080Y-65827503D01*
X101452496Y-65747919D01*
X101452490Y-65747914D01*
X101355011Y-65691633D01*
X101355008Y-65691632D01*
X101246287Y-65662501D01*
X101246282Y-65662500D01*
X101246281Y-65662500D01*
X101133719Y-65662500D01*
X101133718Y-65662500D01*
X101133712Y-65662501D01*
X101024991Y-65691632D01*
X101024988Y-65691633D01*
X100927509Y-65747914D01*
X100927503Y-65747919D01*
X100847919Y-65827503D01*
X100847914Y-65827509D01*
X100791633Y-65924988D01*
X100791632Y-65924991D01*
X100762501Y-66033712D01*
X100762500Y-66033720D01*
X100762500Y-66146279D01*
X100762501Y-66146287D01*
X100791632Y-66255008D01*
X100791633Y-66255011D01*
X100847914Y-66352490D01*
X100847919Y-66352496D01*
X100853077Y-66357654D01*
X100871383Y-66401848D01*
X100853077Y-66446042D01*
X100843608Y-66453813D01*
X100835448Y-66459266D01*
X100825749Y-66465747D01*
X100767729Y-66552578D01*
X100752500Y-66629143D01*
X100127500Y-66629143D01*
X100127500Y-58246952D01*
X100145806Y-58202758D01*
X100190000Y-58184452D01*
X100234194Y-58202758D01*
X100251730Y-58237175D01*
X100283241Y-58436123D01*
X100283241Y-58436124D01*
X100348905Y-58638218D01*
X100348906Y-58638221D01*
X100445377Y-58827554D01*
X100570284Y-58999473D01*
X100720526Y-59149715D01*
X100892445Y-59274622D01*
X101081778Y-59371093D01*
X101081781Y-59371094D01*
X101283870Y-59436756D01*
X101283879Y-59436758D01*
X101349999Y-59447231D01*
X101350000Y-59447231D01*
X101350000Y-58553012D01*
X101407007Y-58585925D01*
X101534174Y-58620000D01*
X101665826Y-58620000D01*
X101792993Y-58585925D01*
X101850000Y-58553012D01*
X101850000Y-59466763D01*
X101854096Y-59474802D01*
X101839315Y-59520297D01*
X101835983Y-59523901D01*
X101581807Y-59778078D01*
X101528079Y-59831805D01*
X101528077Y-59831808D01*
X101499000Y-59902008D01*
X101499000Y-60207203D01*
X101480694Y-60251397D01*
X101457589Y-60263750D01*
X101458263Y-60265375D01*
X101452575Y-60267730D01*
X101365747Y-60325747D01*
X101307730Y-60412575D01*
X101307729Y-60412577D01*
X101292500Y-60489143D01*
X101292500Y-60910856D01*
X101307729Y-60987422D01*
X101307730Y-60987424D01*
X101334411Y-61027354D01*
X101343743Y-61074270D01*
X101326638Y-61106271D01*
X101106970Y-61325941D01*
X101038889Y-61394021D01*
X101019941Y-61407001D01*
X100940457Y-61442097D01*
X100867097Y-61515457D01*
X100867094Y-61515461D01*
X100825192Y-61610364D01*
X100825190Y-61610370D01*
X100822500Y-61633558D01*
X100822500Y-62891441D01*
X100825190Y-62914629D01*
X100825192Y-62914635D01*
X100867094Y-63009538D01*
X100867097Y-63009542D01*
X100940457Y-63082902D01*
X100940461Y-63082905D01*
X101021358Y-63118623D01*
X101035366Y-63124808D01*
X101035367Y-63124808D01*
X101035370Y-63124809D01*
X101058558Y-63127499D01*
X101058561Y-63127500D01*
X101058568Y-63127500D01*
X101441439Y-63127500D01*
X101441441Y-63127499D01*
X101464629Y-63124809D01*
X101464630Y-63124808D01*
X101464634Y-63124808D01*
X101531526Y-63095272D01*
X101559538Y-63082905D01*
X101559538Y-63082904D01*
X101559542Y-63082903D01*
X101632903Y-63009542D01*
X101674808Y-62914634D01*
X101677499Y-62891441D01*
X101677500Y-62891439D01*
X101677500Y-61633560D01*
X101677499Y-61633558D01*
X101674809Y-61610370D01*
X101674807Y-61610364D01*
X101649806Y-61553739D01*
X101648702Y-61505917D01*
X101662785Y-61484303D01*
X101904059Y-61243030D01*
X101915895Y-61214454D01*
X101949718Y-61180631D01*
X101997554Y-61180630D01*
X102027433Y-61206558D01*
X102069262Y-61277288D01*
X102182711Y-61390737D01*
X102320804Y-61472404D01*
X102324415Y-61473967D01*
X102323372Y-61476376D01*
X102354423Y-61501066D01*
X102359847Y-61548592D01*
X102359784Y-61548810D01*
X102352899Y-61572509D01*
X102352899Y-61572513D01*
X102350000Y-61609349D01*
X102350000Y-62012500D01*
X103950000Y-62012500D01*
X103950000Y-61609349D01*
X103947100Y-61572513D01*
X103947100Y-61572509D01*
X103901281Y-61414800D01*
X103901280Y-61414798D01*
X103817684Y-61273444D01*
X103701555Y-61157315D01*
X103560201Y-61073719D01*
X103560199Y-61073718D01*
X103519912Y-61062014D01*
X103482580Y-61032106D01*
X103477763Y-60988477D01*
X103476594Y-60988264D01*
X103477167Y-60985124D01*
X103479931Y-60950000D01*
X102772500Y-60950000D01*
X102728306Y-60931694D01*
X102710000Y-60887500D01*
X102710000Y-60512500D01*
X102728306Y-60468306D01*
X102772500Y-60450000D01*
X103479931Y-60450000D01*
X103477167Y-60414880D01*
X103477167Y-60414875D01*
X103432405Y-60260805D01*
X103432404Y-60260804D01*
X103350737Y-60122711D01*
X103237288Y-60009262D01*
X103098690Y-59927296D01*
X103069969Y-59889043D01*
X103076709Y-59841685D01*
X103114962Y-59812964D01*
X103130505Y-59811000D01*
X103340555Y-59811000D01*
X103384749Y-59829306D01*
X103394681Y-59842250D01*
X103417912Y-59882487D01*
X103417919Y-59882496D01*
X103497503Y-59962080D01*
X103497509Y-59962085D01*
X103594988Y-60018366D01*
X103594991Y-60018367D01*
X103703719Y-60047500D01*
X103703720Y-60047500D01*
X103816280Y-60047500D01*
X103816281Y-60047500D01*
X103925009Y-60018367D01*
X103936628Y-60011659D01*
X103969827Y-59992491D01*
X104022491Y-59962085D01*
X104102085Y-59882491D01*
X104151951Y-59796122D01*
X104158366Y-59785011D01*
X104158367Y-59785008D01*
X104160224Y-59778078D01*
X104187500Y-59676281D01*
X104187500Y-59563719D01*
X104158367Y-59454991D01*
X104158366Y-59454988D01*
X104102085Y-59357509D01*
X104102080Y-59357503D01*
X104022496Y-59277919D01*
X104022490Y-59277914D01*
X103925011Y-59221633D01*
X103925008Y-59221632D01*
X103816287Y-59192501D01*
X103816282Y-59192500D01*
X103816281Y-59192500D01*
X103703719Y-59192500D01*
X103703718Y-59192500D01*
X103703712Y-59192501D01*
X103594991Y-59221632D01*
X103594988Y-59221633D01*
X103497509Y-59277914D01*
X103497503Y-59277919D01*
X103417919Y-59357503D01*
X103417912Y-59357512D01*
X103394681Y-59397750D01*
X103356731Y-59426870D01*
X103340555Y-59429000D01*
X102264903Y-59429000D01*
X102220709Y-59410694D01*
X102202403Y-59366500D01*
X102220709Y-59322306D01*
X102236529Y-59310812D01*
X102307551Y-59274623D01*
X102479473Y-59149715D01*
X102629715Y-58999473D01*
X102754622Y-58827554D01*
X102851093Y-58638221D01*
X102851094Y-58638218D01*
X102916756Y-58436129D01*
X102916758Y-58436120D01*
X102927231Y-58370000D01*
X102033012Y-58370000D01*
X102065925Y-58312993D01*
X102100000Y-58185826D01*
X102100000Y-58054174D01*
X102065925Y-57927007D01*
X102033012Y-57870000D01*
X102927231Y-57870000D01*
X102927231Y-57869999D01*
X102916758Y-57803879D01*
X102916756Y-57803870D01*
X102851094Y-57601781D01*
X102851093Y-57601778D01*
X102754622Y-57412445D01*
X102629715Y-57240526D01*
X102479473Y-57090284D01*
X102307554Y-56965377D01*
X102118221Y-56868906D01*
X102118218Y-56868905D01*
X101916124Y-56803241D01*
X101916125Y-56803241D01*
X101850000Y-56792767D01*
X101850000Y-57686988D01*
X101792993Y-57654075D01*
X101665826Y-57620000D01*
X101534174Y-57620000D01*
X101407007Y-57654075D01*
X101350000Y-57686988D01*
X101350000Y-56792767D01*
X101349999Y-56792767D01*
X101283874Y-56803241D01*
X101081781Y-56868905D01*
X101081778Y-56868906D01*
X100892445Y-56965377D01*
X100720526Y-57090284D01*
X100570284Y-57240526D01*
X100445377Y-57412445D01*
X100348906Y-57601778D01*
X100348905Y-57601781D01*
X100283241Y-57803874D01*
X100251730Y-58002825D01*
X100226736Y-58043611D01*
X100180222Y-58054777D01*
X100139436Y-58029783D01*
X100127500Y-57993047D01*
X100127500Y-52943724D01*
X100622500Y-52943724D01*
X100622500Y-53136275D01*
X100660064Y-53325126D01*
X100660066Y-53325134D01*
X100733750Y-53503020D01*
X100733751Y-53503022D01*
X100840725Y-53663119D01*
X100840726Y-53663120D01*
X100976880Y-53799274D01*
X101136980Y-53906250D01*
X101216299Y-53939105D01*
X101314865Y-53979933D01*
X101314869Y-53979934D01*
X101314874Y-53979936D01*
X101503725Y-54017500D01*
X101696275Y-54017500D01*
X101885126Y-53979936D01*
X101885132Y-53979933D01*
X101885134Y-53979933D01*
X101951362Y-53952500D01*
X102063020Y-53906250D01*
X102223120Y-53799274D01*
X102359274Y-53663120D01*
X102466250Y-53503020D01*
X102537265Y-53331575D01*
X102539933Y-53325134D01*
X102539936Y-53325125D01*
X102541453Y-53317498D01*
X102546364Y-53292807D01*
X102572939Y-53253034D01*
X102607663Y-53242500D01*
X103430234Y-53242500D01*
X103474428Y-53260806D01*
X103779194Y-53565572D01*
X103797500Y-53609766D01*
X103797500Y-55674861D01*
X103779194Y-55719055D01*
X103735000Y-55737361D01*
X103690806Y-55719055D01*
X103677258Y-55698779D01*
X103671673Y-55685297D01*
X103671672Y-55685295D01*
X103671671Y-55685293D01*
X103614707Y-55628329D01*
X103394707Y-55408329D01*
X103394706Y-55408328D01*
X103394703Y-55408326D01*
X103320282Y-55377500D01*
X103320280Y-55377500D01*
X102607663Y-55377500D01*
X102563469Y-55359194D01*
X102546364Y-55327192D01*
X102539936Y-55294874D01*
X102539933Y-55294865D01*
X102490255Y-55174933D01*
X102466250Y-55116980D01*
X102359274Y-54956880D01*
X102223120Y-54820726D01*
X102215787Y-54815826D01*
X102063022Y-54713751D01*
X102063020Y-54713750D01*
X101885134Y-54640066D01*
X101885126Y-54640064D01*
X101696275Y-54602500D01*
X101503725Y-54602500D01*
X101314873Y-54640064D01*
X101314865Y-54640066D01*
X101136979Y-54713750D01*
X101136977Y-54713751D01*
X100976880Y-54820725D01*
X100840725Y-54956880D01*
X100733751Y-55116977D01*
X100733750Y-55116979D01*
X100660066Y-55294865D01*
X100660064Y-55294873D01*
X100622500Y-55483724D01*
X100622500Y-55676275D01*
X100660064Y-55865126D01*
X100660066Y-55865134D01*
X100733750Y-56043020D01*
X100733751Y-56043022D01*
X100838222Y-56199373D01*
X100840726Y-56203120D01*
X100976880Y-56339274D01*
X101136980Y-56446250D01*
X101201389Y-56472929D01*
X101314865Y-56519933D01*
X101314869Y-56519934D01*
X101314874Y-56519936D01*
X101503725Y-56557500D01*
X101696275Y-56557500D01*
X101885126Y-56519936D01*
X101885132Y-56519933D01*
X101885134Y-56519933D01*
X101933256Y-56500000D01*
X102063020Y-56446250D01*
X102223120Y-56339274D01*
X102359274Y-56203120D01*
X102466250Y-56043020D01*
X102536153Y-55874259D01*
X102539933Y-55865134D01*
X102539936Y-55865125D01*
X102544267Y-55843350D01*
X102546364Y-55832807D01*
X102572939Y-55793034D01*
X102607663Y-55782500D01*
X103170234Y-55782500D01*
X103214428Y-55800806D01*
X103279194Y-55865572D01*
X103297500Y-55909766D01*
X103297500Y-56540282D01*
X103328326Y-56614703D01*
X103328330Y-56614708D01*
X106664912Y-59951291D01*
X106683218Y-59995485D01*
X106681089Y-60011659D01*
X106672500Y-60043714D01*
X106672500Y-60156279D01*
X106672501Y-60156287D01*
X106701632Y-60265008D01*
X106701633Y-60265011D01*
X106757914Y-60362490D01*
X106757919Y-60362496D01*
X106837503Y-60442080D01*
X106837509Y-60442085D01*
X106934988Y-60498366D01*
X106934991Y-60498367D01*
X107043719Y-60527500D01*
X107043720Y-60527500D01*
X107156280Y-60527500D01*
X107156281Y-60527500D01*
X107265009Y-60498367D01*
X107280984Y-60489144D01*
X107317576Y-60468017D01*
X107362491Y-60442085D01*
X107396611Y-60407965D01*
X107440806Y-60363771D01*
X107485000Y-60345465D01*
X107529194Y-60363771D01*
X107547500Y-60407965D01*
X107547500Y-61310282D01*
X107578326Y-61384703D01*
X107578330Y-61384708D01*
X110999194Y-64805572D01*
X111017500Y-64849766D01*
X111017500Y-67200234D01*
X110999194Y-67244428D01*
X110498330Y-67745291D01*
X110498326Y-67745296D01*
X110467500Y-67819717D01*
X110467500Y-71320282D01*
X110498326Y-71394703D01*
X110498330Y-71394708D01*
X110784912Y-71681290D01*
X110803218Y-71725484D01*
X110801089Y-71741657D01*
X110792501Y-71773712D01*
X110792500Y-71773721D01*
X110792500Y-71886279D01*
X110792501Y-71886287D01*
X110821632Y-71995008D01*
X110821633Y-71995011D01*
X110877914Y-72092490D01*
X110877919Y-72092496D01*
X110957503Y-72172080D01*
X110957509Y-72172085D01*
X111054988Y-72228366D01*
X111054991Y-72228367D01*
X111163719Y-72257500D01*
X111163720Y-72257500D01*
X111276280Y-72257500D01*
X111276281Y-72257500D01*
X111385009Y-72228367D01*
X111385011Y-72228366D01*
X111424621Y-72205497D01*
X111444408Y-72194072D01*
X111482491Y-72172085D01*
X111562085Y-72092491D01*
X111618367Y-71995009D01*
X111647500Y-71886281D01*
X111647500Y-71773719D01*
X111628996Y-71704659D01*
X116254700Y-71704659D01*
X116254700Y-71827340D01*
X116278633Y-71947662D01*
X116325582Y-72061006D01*
X116325583Y-72061008D01*
X116393739Y-72163011D01*
X116393740Y-72163012D01*
X116480488Y-72249760D01*
X116582494Y-72317918D01*
X116695836Y-72364866D01*
X116816160Y-72388800D01*
X116938840Y-72388800D01*
X117059164Y-72364866D01*
X117172506Y-72317918D01*
X117274512Y-72249760D01*
X117361260Y-72163012D01*
X117429418Y-72061006D01*
X117476366Y-71947664D01*
X117500300Y-71827340D01*
X117500300Y-71704660D01*
X117476366Y-71584336D01*
X117429418Y-71470994D01*
X117422999Y-71461388D01*
X117361260Y-71368988D01*
X117274511Y-71282239D01*
X117172508Y-71214083D01*
X117172506Y-71214082D01*
X117059162Y-71167133D01*
X116938840Y-71143200D01*
X116816160Y-71143200D01*
X116695837Y-71167133D01*
X116582493Y-71214082D01*
X116582491Y-71214083D01*
X116480488Y-71282239D01*
X116393739Y-71368988D01*
X116325583Y-71470991D01*
X116325582Y-71470993D01*
X116278633Y-71584337D01*
X116254700Y-71704659D01*
X111628996Y-71704659D01*
X111618367Y-71664991D01*
X111618366Y-71664988D01*
X111562085Y-71567509D01*
X111562080Y-71567503D01*
X111482496Y-71487919D01*
X111482490Y-71487914D01*
X111385011Y-71431633D01*
X111385008Y-71431632D01*
X111276287Y-71402501D01*
X111276282Y-71402500D01*
X111276281Y-71402500D01*
X111163719Y-71402500D01*
X111163717Y-71402500D01*
X111163712Y-71402501D01*
X111131657Y-71411089D01*
X111084232Y-71404843D01*
X111071290Y-71394912D01*
X110890806Y-71214428D01*
X110872500Y-71170234D01*
X110872500Y-70688659D01*
X111174700Y-70688659D01*
X111174700Y-70811340D01*
X111198633Y-70931662D01*
X111245582Y-71045006D01*
X111245583Y-71045008D01*
X111311193Y-71143200D01*
X111313740Y-71147012D01*
X111400488Y-71233760D01*
X111502494Y-71301918D01*
X111615836Y-71348866D01*
X111736160Y-71372800D01*
X111858840Y-71372800D01*
X111979164Y-71348866D01*
X112092506Y-71301918D01*
X112194512Y-71233760D01*
X112281260Y-71147012D01*
X112349418Y-71045006D01*
X112396366Y-70931664D01*
X112420300Y-70811340D01*
X112420300Y-70688660D01*
X112396366Y-70568336D01*
X112349418Y-70454994D01*
X112281260Y-70352988D01*
X112194512Y-70266240D01*
X112194511Y-70266239D01*
X112092508Y-70198083D01*
X112092506Y-70198082D01*
X111979162Y-70151133D01*
X111858840Y-70127200D01*
X111736160Y-70127200D01*
X111615837Y-70151133D01*
X111502493Y-70198082D01*
X111502491Y-70198083D01*
X111400488Y-70266239D01*
X111313739Y-70352988D01*
X111245583Y-70454991D01*
X111245582Y-70454993D01*
X111198633Y-70568337D01*
X111174700Y-70688659D01*
X110872500Y-70688659D01*
X110872500Y-67969766D01*
X110890806Y-67925572D01*
X111128049Y-67688329D01*
X111391671Y-67424707D01*
X111391673Y-67424703D01*
X111422263Y-67350853D01*
X111456087Y-67317029D01*
X111503923Y-67317029D01*
X111524199Y-67330577D01*
X113118329Y-68924707D01*
X113175293Y-68981671D01*
X113175294Y-68981671D01*
X113175296Y-68981673D01*
X113249717Y-69012499D01*
X113249720Y-69012500D01*
X116678766Y-69012500D01*
X116722960Y-69030806D01*
X116741266Y-69075000D01*
X116722960Y-69119194D01*
X116698604Y-69133793D01*
X116698673Y-69133959D01*
X116697560Y-69134419D01*
X116696913Y-69134808D01*
X116695837Y-69135133D01*
X116695836Y-69135134D01*
X116695834Y-69135134D01*
X116695830Y-69135136D01*
X116582493Y-69182082D01*
X116582491Y-69182083D01*
X116480488Y-69250239D01*
X116393739Y-69336988D01*
X116325583Y-69438991D01*
X116325582Y-69438993D01*
X116278633Y-69552337D01*
X116254700Y-69672659D01*
X116254700Y-69795340D01*
X116278633Y-69915662D01*
X116325582Y-70029006D01*
X116325583Y-70029008D01*
X116391193Y-70127200D01*
X116393740Y-70131012D01*
X116480488Y-70217760D01*
X116582494Y-70285918D01*
X116695836Y-70332866D01*
X116816160Y-70356800D01*
X116938840Y-70356800D01*
X117059164Y-70332866D01*
X117172506Y-70285918D01*
X117274512Y-70217760D01*
X117361260Y-70131012D01*
X117429418Y-70029006D01*
X117476366Y-69915664D01*
X117500300Y-69795340D01*
X117500300Y-69672660D01*
X117476366Y-69552336D01*
X117429418Y-69438994D01*
X117361260Y-69336988D01*
X117274512Y-69250240D01*
X117259901Y-69240477D01*
X117172508Y-69182083D01*
X117172506Y-69182082D01*
X117059169Y-69135136D01*
X117059168Y-69135135D01*
X117059164Y-69135134D01*
X117059159Y-69135133D01*
X117058087Y-69134808D01*
X117057791Y-69134565D01*
X117056327Y-69133959D01*
X117056511Y-69133514D01*
X117021112Y-69104459D01*
X117016426Y-69056853D01*
X117046775Y-69019878D01*
X117076234Y-69012500D01*
X117830234Y-69012500D01*
X117874428Y-69030806D01*
X119109194Y-70265572D01*
X119127500Y-70309766D01*
X119127500Y-71417194D01*
X119109194Y-71461388D01*
X119096251Y-71471320D01*
X119067509Y-71487914D01*
X119067503Y-71487919D01*
X118987919Y-71567503D01*
X118987914Y-71567509D01*
X118931633Y-71664988D01*
X118931632Y-71664991D01*
X118902501Y-71773712D01*
X118902500Y-71773720D01*
X118902500Y-71886279D01*
X118902501Y-71886287D01*
X118931632Y-71995008D01*
X118931633Y-71995011D01*
X118987914Y-72092490D01*
X118987919Y-72092496D01*
X119067503Y-72172080D01*
X119067509Y-72172085D01*
X119164988Y-72228366D01*
X119164991Y-72228367D01*
X119273719Y-72257500D01*
X119273720Y-72257500D01*
X119386280Y-72257500D01*
X119386281Y-72257500D01*
X119495009Y-72228367D01*
X119592491Y-72172085D01*
X119672085Y-72092491D01*
X119728367Y-71995009D01*
X119757500Y-71886281D01*
X119757500Y-71773719D01*
X119728367Y-71664991D01*
X119728366Y-71664988D01*
X119672085Y-71567509D01*
X119672080Y-71567503D01*
X119592496Y-71487919D01*
X119592490Y-71487914D01*
X119563749Y-71471320D01*
X119534629Y-71433369D01*
X119532500Y-71417194D01*
X119532500Y-70321504D01*
X119550806Y-70277310D01*
X119595000Y-70259004D01*
X119639194Y-70277310D01*
X121296591Y-71934707D01*
X121353555Y-71991671D01*
X121353556Y-71991671D01*
X121353558Y-71991673D01*
X121427979Y-72022499D01*
X121427982Y-72022500D01*
X128997195Y-72022500D01*
X129041389Y-72040806D01*
X129051319Y-72053746D01*
X129067915Y-72082491D01*
X129067916Y-72082492D01*
X129067919Y-72082496D01*
X129147503Y-72162080D01*
X129147509Y-72162085D01*
X129244988Y-72218366D01*
X129244991Y-72218367D01*
X129353719Y-72247500D01*
X129353720Y-72247500D01*
X129466280Y-72247500D01*
X129466281Y-72247500D01*
X129575009Y-72218367D01*
X129672491Y-72162085D01*
X129752085Y-72082491D01*
X129802592Y-71995011D01*
X129808366Y-71985011D01*
X129808367Y-71985008D01*
X129808898Y-71983028D01*
X129837500Y-71876281D01*
X129837500Y-71763719D01*
X129808367Y-71654991D01*
X129808366Y-71654988D01*
X129752085Y-71557509D01*
X129752080Y-71557503D01*
X129672496Y-71477919D01*
X129672490Y-71477914D01*
X129575011Y-71421633D01*
X129575008Y-71421632D01*
X129466287Y-71392501D01*
X129466282Y-71392500D01*
X129466281Y-71392500D01*
X129353719Y-71392500D01*
X129353718Y-71392500D01*
X129353712Y-71392501D01*
X129244991Y-71421632D01*
X129244988Y-71421633D01*
X129147509Y-71477914D01*
X129147503Y-71477919D01*
X129067919Y-71557503D01*
X129067916Y-71557507D01*
X129067915Y-71557509D01*
X129051320Y-71586250D01*
X129013371Y-71615370D01*
X128997195Y-71617500D01*
X121578028Y-71617500D01*
X121533834Y-71599194D01*
X120703834Y-70769194D01*
X120685528Y-70725000D01*
X120703834Y-70680806D01*
X120748028Y-70662500D01*
X138650234Y-70662500D01*
X138694427Y-70680805D01*
X141285293Y-73271672D01*
X141336623Y-73292933D01*
X141336624Y-73292934D01*
X141354486Y-73300332D01*
X141359720Y-73302500D01*
X141359721Y-73302500D01*
X141359722Y-73302500D01*
X147050280Y-73302500D01*
X147075089Y-73292223D01*
X147124703Y-73271673D01*
X147124703Y-73271672D01*
X147124707Y-73271671D01*
X147921671Y-72474707D01*
X147923249Y-72470899D01*
X147952499Y-72400282D01*
X147952500Y-72400279D01*
X147952500Y-72232805D01*
X147970806Y-72188611D01*
X147983746Y-72178680D01*
X148012491Y-72162085D01*
X148092085Y-72082491D01*
X148142592Y-71995011D01*
X148148366Y-71985011D01*
X148148367Y-71985008D01*
X148148898Y-71983028D01*
X148177500Y-71876281D01*
X148177500Y-71763719D01*
X148148367Y-71654991D01*
X148148366Y-71654988D01*
X148092085Y-71557509D01*
X148092080Y-71557503D01*
X148012496Y-71477919D01*
X148012490Y-71477914D01*
X147996179Y-71468497D01*
X147996178Y-71468495D01*
X147915014Y-71421635D01*
X147915008Y-71421632D01*
X147899370Y-71417442D01*
X148322500Y-71417442D01*
X148322500Y-72242558D01*
X148326710Y-72263720D01*
X148329898Y-72279748D01*
X148329898Y-72279749D01*
X148358077Y-72321922D01*
X148382881Y-72338495D01*
X148400252Y-72350102D01*
X148437442Y-72357500D01*
X148437443Y-72357500D01*
X149462557Y-72357500D01*
X149462558Y-72357500D01*
X149499748Y-72350102D01*
X149541922Y-72321922D01*
X149570102Y-72279748D01*
X149577500Y-72242558D01*
X149577500Y-71417442D01*
X149570102Y-71380252D01*
X149562576Y-71368988D01*
X149541922Y-71338077D01*
X149499748Y-71309898D01*
X149487683Y-71307498D01*
X149462558Y-71302500D01*
X148437442Y-71302500D01*
X148418847Y-71306199D01*
X148400251Y-71309898D01*
X148400250Y-71309898D01*
X148358077Y-71338077D01*
X148329898Y-71380250D01*
X148329898Y-71380251D01*
X148327022Y-71394708D01*
X148322500Y-71417442D01*
X147899370Y-71417442D01*
X147806287Y-71392501D01*
X147806282Y-71392500D01*
X147806281Y-71392500D01*
X147693719Y-71392500D01*
X147693718Y-71392500D01*
X147693712Y-71392501D01*
X147584991Y-71421632D01*
X147584988Y-71421633D01*
X147487509Y-71477914D01*
X147487503Y-71477919D01*
X147407919Y-71557503D01*
X147407914Y-71557509D01*
X147351633Y-71654988D01*
X147351632Y-71654991D01*
X147322501Y-71763712D01*
X147322500Y-71763720D01*
X147322500Y-71876279D01*
X147322501Y-71876287D01*
X147351632Y-71985008D01*
X147351633Y-71985011D01*
X147407914Y-72082490D01*
X147407919Y-72082496D01*
X147487503Y-72162080D01*
X147487507Y-72162083D01*
X147487509Y-72162085D01*
X147516250Y-72178679D01*
X147521391Y-72185379D01*
X147529194Y-72188611D01*
X147535437Y-72203684D01*
X147545370Y-72216629D01*
X147547500Y-72232805D01*
X147547500Y-72250234D01*
X147529194Y-72294428D01*
X146944428Y-72879194D01*
X146900234Y-72897500D01*
X141509767Y-72897500D01*
X141465573Y-72879194D01*
X141041504Y-72455125D01*
X141023198Y-72410931D01*
X141041504Y-72366737D01*
X141085698Y-72348431D01*
X141097892Y-72349632D01*
X141100250Y-72350101D01*
X141100252Y-72350102D01*
X141137442Y-72357500D01*
X141137443Y-72357500D01*
X142162557Y-72357500D01*
X142162558Y-72357500D01*
X142199748Y-72350102D01*
X142241922Y-72321922D01*
X142270102Y-72279748D01*
X142277500Y-72242558D01*
X142277500Y-71417442D01*
X142270102Y-71380252D01*
X142262576Y-71368988D01*
X142241922Y-71338077D01*
X142199748Y-71309898D01*
X142187683Y-71307498D01*
X142162558Y-71302500D01*
X141137442Y-71302500D01*
X141118847Y-71306199D01*
X141100251Y-71309898D01*
X141100250Y-71309898D01*
X141058077Y-71338077D01*
X141029898Y-71380250D01*
X141029898Y-71380251D01*
X141022500Y-71417442D01*
X141022500Y-72242559D01*
X141030367Y-72282108D01*
X141021035Y-72329024D01*
X140981261Y-72355600D01*
X140934345Y-72346268D01*
X140924874Y-72338495D01*
X139280447Y-70694069D01*
X139240350Y-70653972D01*
X143222500Y-70653972D01*
X143222500Y-70806027D01*
X143222501Y-70806035D01*
X143261854Y-70952903D01*
X143261855Y-70952906D01*
X143261856Y-70952907D01*
X143315029Y-71045006D01*
X143337886Y-71084594D01*
X143337889Y-71084598D01*
X143445401Y-71192110D01*
X143445405Y-71192113D01*
X143445407Y-71192115D01*
X143577093Y-71268144D01*
X143577096Y-71268145D01*
X143666981Y-71292229D01*
X143723971Y-71307500D01*
X143723972Y-71307500D01*
X143876028Y-71307500D01*
X143876029Y-71307500D01*
X144022907Y-71268144D01*
X144154593Y-71192115D01*
X144262115Y-71084593D01*
X144338144Y-70952907D01*
X144377500Y-70806029D01*
X144377500Y-70653972D01*
X146222500Y-70653972D01*
X146222500Y-70806027D01*
X146222501Y-70806035D01*
X146261854Y-70952903D01*
X146261855Y-70952906D01*
X146261856Y-70952907D01*
X146315029Y-71045006D01*
X146337886Y-71084594D01*
X146337889Y-71084598D01*
X146445401Y-71192110D01*
X146445405Y-71192113D01*
X146445407Y-71192115D01*
X146577093Y-71268144D01*
X146577096Y-71268145D01*
X146666981Y-71292229D01*
X146723971Y-71307500D01*
X146723972Y-71307500D01*
X146876028Y-71307500D01*
X146876029Y-71307500D01*
X147022907Y-71268144D01*
X147154593Y-71192115D01*
X147262115Y-71084593D01*
X147338144Y-70952907D01*
X147377500Y-70806029D01*
X147377500Y-70653971D01*
X147338144Y-70507093D01*
X147262115Y-70375407D01*
X147262113Y-70375405D01*
X147262110Y-70375401D01*
X147154598Y-70267889D01*
X147154594Y-70267886D01*
X147154593Y-70267885D01*
X147063501Y-70215293D01*
X147022906Y-70191855D01*
X147022903Y-70191854D01*
X146876035Y-70152501D01*
X146876030Y-70152500D01*
X146876029Y-70152500D01*
X146723971Y-70152500D01*
X146723970Y-70152500D01*
X146723964Y-70152501D01*
X146577096Y-70191854D01*
X146577093Y-70191855D01*
X146445405Y-70267886D01*
X146445401Y-70267889D01*
X146337889Y-70375401D01*
X146337886Y-70375405D01*
X146261855Y-70507093D01*
X146261854Y-70507096D01*
X146222501Y-70653964D01*
X146222500Y-70653972D01*
X144377500Y-70653972D01*
X144377500Y-70653971D01*
X144338144Y-70507093D01*
X144262115Y-70375407D01*
X144262113Y-70375405D01*
X144262110Y-70375401D01*
X144154598Y-70267889D01*
X144154594Y-70267886D01*
X144154593Y-70267885D01*
X144063501Y-70215293D01*
X144022906Y-70191855D01*
X144022903Y-70191854D01*
X143876035Y-70152501D01*
X143876030Y-70152500D01*
X143876029Y-70152500D01*
X143723971Y-70152500D01*
X143723970Y-70152500D01*
X143723964Y-70152501D01*
X143577096Y-70191854D01*
X143577093Y-70191855D01*
X143445405Y-70267886D01*
X143445401Y-70267889D01*
X143337889Y-70375401D01*
X143337886Y-70375405D01*
X143261855Y-70507093D01*
X143261854Y-70507096D01*
X143222501Y-70653964D01*
X143222500Y-70653972D01*
X139240350Y-70653972D01*
X138874708Y-70288330D01*
X138874703Y-70288326D01*
X138800282Y-70257500D01*
X138800280Y-70257500D01*
X120609766Y-70257500D01*
X120565572Y-70239194D01*
X119533820Y-69207442D01*
X141022500Y-69207442D01*
X141022500Y-70032557D01*
X141029898Y-70069748D01*
X141029898Y-70069749D01*
X141058077Y-70111922D01*
X141080943Y-70127200D01*
X141100252Y-70140102D01*
X141137442Y-70147500D01*
X141137443Y-70147500D01*
X142162557Y-70147500D01*
X142162558Y-70147500D01*
X142199748Y-70140102D01*
X142241922Y-70111922D01*
X142270102Y-70069748D01*
X142277500Y-70032558D01*
X142277500Y-69207442D01*
X142270102Y-69170252D01*
X142270101Y-69170250D01*
X142241922Y-69128077D01*
X142199748Y-69099898D01*
X142162558Y-69092500D01*
X141137442Y-69092500D01*
X141118847Y-69096199D01*
X141100251Y-69099898D01*
X141100250Y-69099898D01*
X141058077Y-69128077D01*
X141029898Y-69170250D01*
X141029898Y-69170251D01*
X141022500Y-69207442D01*
X119533820Y-69207442D01*
X118435572Y-68109194D01*
X118417266Y-68065000D01*
X118435572Y-68020806D01*
X118479766Y-68002500D01*
X142589983Y-68002500D01*
X142634177Y-68020806D01*
X142652483Y-68065000D01*
X142634177Y-68109194D01*
X142624706Y-68116967D01*
X142608077Y-68128077D01*
X142579898Y-68170250D01*
X142579898Y-68170251D01*
X142577637Y-68181616D01*
X142572500Y-68207442D01*
X142572500Y-69732558D01*
X142575789Y-69749091D01*
X142579898Y-69769748D01*
X142579898Y-69769749D01*
X142608077Y-69811922D01*
X142636257Y-69830750D01*
X142650252Y-69840102D01*
X142687442Y-69847500D01*
X142687443Y-69847500D01*
X143412557Y-69847500D01*
X143412558Y-69847500D01*
X143449748Y-69840102D01*
X143491922Y-69811922D01*
X143520102Y-69769748D01*
X143527500Y-69732558D01*
X143527500Y-68207442D01*
X143520102Y-68170252D01*
X143516886Y-68165439D01*
X143491922Y-68128077D01*
X143475294Y-68116967D01*
X143448718Y-68077193D01*
X143458050Y-68030277D01*
X143497824Y-68003701D01*
X143510017Y-68002500D01*
X144089983Y-68002500D01*
X144134177Y-68020806D01*
X144152483Y-68065000D01*
X144134177Y-68109194D01*
X144124706Y-68116967D01*
X144108077Y-68128077D01*
X144079898Y-68170250D01*
X144079898Y-68170251D01*
X144077637Y-68181616D01*
X144072500Y-68207442D01*
X144072500Y-69732558D01*
X144075789Y-69749091D01*
X144079898Y-69769748D01*
X144079898Y-69769749D01*
X144108077Y-69811922D01*
X144136257Y-69830750D01*
X144150252Y-69840102D01*
X144187442Y-69847500D01*
X144187443Y-69847500D01*
X144912557Y-69847500D01*
X144912558Y-69847500D01*
X144949748Y-69840102D01*
X144991922Y-69811922D01*
X145020102Y-69769748D01*
X145027500Y-69732558D01*
X145027500Y-69410000D01*
X145045806Y-69365806D01*
X145090000Y-69347500D01*
X145359698Y-69347500D01*
X145359699Y-69347500D01*
X145455710Y-69321774D01*
X145541790Y-69272075D01*
X146172076Y-68641790D01*
X146221774Y-68555710D01*
X146247500Y-68459699D01*
X146247500Y-68360301D01*
X146247500Y-68207442D01*
X147072500Y-68207442D01*
X147072500Y-69732558D01*
X147075789Y-69749091D01*
X147079898Y-69769748D01*
X147079898Y-69769749D01*
X147108077Y-69811922D01*
X147136257Y-69830750D01*
X147150252Y-69840102D01*
X147187442Y-69847500D01*
X147187443Y-69847500D01*
X147912557Y-69847500D01*
X147912558Y-69847500D01*
X147949748Y-69840102D01*
X147991922Y-69811922D01*
X148020102Y-69769748D01*
X148027500Y-69732558D01*
X148027500Y-69207442D01*
X148322500Y-69207442D01*
X148322500Y-70032557D01*
X148329898Y-70069748D01*
X148329898Y-70069749D01*
X148358077Y-70111922D01*
X148380943Y-70127200D01*
X148400252Y-70140102D01*
X148437442Y-70147500D01*
X148437443Y-70147500D01*
X149462557Y-70147500D01*
X149462558Y-70147500D01*
X149499748Y-70140102D01*
X149541922Y-70111922D01*
X149570102Y-70069748D01*
X149577500Y-70032558D01*
X149577500Y-69207442D01*
X149570102Y-69170252D01*
X149570101Y-69170250D01*
X149541922Y-69128077D01*
X149499748Y-69099898D01*
X149462558Y-69092500D01*
X148437442Y-69092500D01*
X148418847Y-69096199D01*
X148400251Y-69099898D01*
X148400250Y-69099898D01*
X148358077Y-69128077D01*
X148329898Y-69170250D01*
X148329898Y-69170251D01*
X148322500Y-69207442D01*
X148027500Y-69207442D01*
X148027500Y-68207442D01*
X148020102Y-68170252D01*
X148016886Y-68165439D01*
X147991922Y-68128077D01*
X147955277Y-68103592D01*
X147951720Y-68098268D01*
X147945806Y-68095819D01*
X147938829Y-68078976D01*
X147928701Y-68063818D01*
X147927500Y-68051625D01*
X147927500Y-68030577D01*
X147935874Y-67999326D01*
X147938367Y-67995009D01*
X147967500Y-67886281D01*
X147967500Y-67773719D01*
X147938367Y-67664991D01*
X147938366Y-67664988D01*
X147882085Y-67567509D01*
X147882080Y-67567503D01*
X147802496Y-67487919D01*
X147802490Y-67487914D01*
X147705011Y-67431633D01*
X147705008Y-67431632D01*
X147596287Y-67402501D01*
X147596282Y-67402500D01*
X147596281Y-67402500D01*
X147483719Y-67402500D01*
X147483718Y-67402500D01*
X147483712Y-67402501D01*
X147374991Y-67431632D01*
X147374988Y-67431633D01*
X147277509Y-67487914D01*
X147277503Y-67487919D01*
X147197919Y-67567503D01*
X147197914Y-67567509D01*
X147141633Y-67664988D01*
X147141632Y-67664991D01*
X147112501Y-67773712D01*
X147112500Y-67773720D01*
X147112500Y-67886279D01*
X147112501Y-67886287D01*
X147141632Y-67995008D01*
X147141635Y-67995014D01*
X147158462Y-68024159D01*
X147164707Y-68071585D01*
X147139060Y-68107375D01*
X147108078Y-68128076D01*
X147079898Y-68170250D01*
X147079898Y-68170251D01*
X147077637Y-68181616D01*
X147072500Y-68207442D01*
X146247500Y-68207442D01*
X146247500Y-67647897D01*
X146255875Y-67616645D01*
X146268365Y-67595012D01*
X146268367Y-67595008D01*
X146270399Y-67587424D01*
X146297500Y-67486281D01*
X146297500Y-67373719D01*
X146268367Y-67264991D01*
X146268366Y-67264988D01*
X146256087Y-67243720D01*
X151032500Y-67243720D01*
X151032500Y-67356279D01*
X151032501Y-67356287D01*
X151061632Y-67465008D01*
X151061633Y-67465011D01*
X151117914Y-67562490D01*
X151117919Y-67562496D01*
X151197503Y-67642080D01*
X151197509Y-67642085D01*
X151294988Y-67698366D01*
X151294991Y-67698367D01*
X151403719Y-67727500D01*
X151403720Y-67727500D01*
X151516280Y-67727500D01*
X151516281Y-67727500D01*
X151625009Y-67698367D01*
X151681648Y-67665665D01*
X151729074Y-67659421D01*
X151750133Y-67671576D01*
X151750631Y-67670832D01*
X151755746Y-67674250D01*
X151755748Y-67674252D01*
X151842577Y-67732270D01*
X151919144Y-67747500D01*
X152240856Y-67747500D01*
X152317423Y-67732270D01*
X152404252Y-67674252D01*
X152462270Y-67587423D01*
X152477500Y-67510856D01*
X152477500Y-67089144D01*
X152462270Y-67012577D01*
X152462269Y-67012575D01*
X152404252Y-66925747D01*
X152317424Y-66867730D01*
X152317422Y-66867729D01*
X152240856Y-66852500D01*
X151919144Y-66852500D01*
X151842578Y-66867729D01*
X151817559Y-66884446D01*
X151755748Y-66925748D01*
X151755747Y-66925749D01*
X151750631Y-66929168D01*
X151749539Y-66927534D01*
X151712889Y-66942708D01*
X151681648Y-66934334D01*
X151625011Y-66901633D01*
X151625008Y-66901632D01*
X151516287Y-66872501D01*
X151516282Y-66872500D01*
X151516281Y-66872500D01*
X151403719Y-66872500D01*
X151403718Y-66872500D01*
X151403712Y-66872501D01*
X151294991Y-66901632D01*
X151294988Y-66901633D01*
X151197509Y-66957914D01*
X151197503Y-66957919D01*
X151117919Y-67037503D01*
X151117914Y-67037509D01*
X151061633Y-67134988D01*
X151061632Y-67134991D01*
X151032501Y-67243712D01*
X151032500Y-67243720D01*
X146256087Y-67243720D01*
X146212085Y-67167509D01*
X146212080Y-67167503D01*
X146132496Y-67087919D01*
X146132490Y-67087914D01*
X146035011Y-67031633D01*
X146035008Y-67031632D01*
X145926287Y-67002501D01*
X145926282Y-67002500D01*
X145926281Y-67002500D01*
X145813719Y-67002500D01*
X145813718Y-67002500D01*
X145813712Y-67002501D01*
X145704991Y-67031632D01*
X145704988Y-67031633D01*
X145607509Y-67087914D01*
X145607503Y-67087919D01*
X145527919Y-67167503D01*
X145527914Y-67167509D01*
X145471633Y-67264988D01*
X145471632Y-67264991D01*
X145442501Y-67373712D01*
X145442500Y-67373720D01*
X145442500Y-67486279D01*
X145442501Y-67486287D01*
X145471632Y-67595008D01*
X145471634Y-67595012D01*
X145484125Y-67616645D01*
X145492500Y-67647897D01*
X145492500Y-68227746D01*
X145474194Y-68271940D01*
X145171941Y-68574194D01*
X145127747Y-68592500D01*
X145090000Y-68592500D01*
X145045806Y-68574194D01*
X145027500Y-68530000D01*
X145027500Y-68207442D01*
X145025928Y-68199539D01*
X145020102Y-68170252D01*
X145016886Y-68165439D01*
X144991922Y-68128077D01*
X144949748Y-68099898D01*
X144941554Y-68098268D01*
X144912558Y-68092500D01*
X144537209Y-68092500D01*
X144493015Y-68074194D01*
X144474709Y-68030000D01*
X144493015Y-67985806D01*
X144513292Y-67972257D01*
X144514707Y-67971671D01*
X145651672Y-66834707D01*
X145673470Y-66782078D01*
X145682500Y-66760280D01*
X145682500Y-65809766D01*
X145700806Y-65765572D01*
X145965573Y-65500806D01*
X146009767Y-65482500D01*
X151860234Y-65482500D01*
X151904428Y-65500806D01*
X152879194Y-66475572D01*
X152897500Y-66519766D01*
X152897500Y-66811503D01*
X152879194Y-66855697D01*
X152867265Y-66863667D01*
X152867695Y-66864310D01*
X152775747Y-66925747D01*
X152717730Y-67012575D01*
X152717729Y-67012577D01*
X152702500Y-67089143D01*
X152702500Y-67510856D01*
X152717729Y-67587422D01*
X152717730Y-67587424D01*
X152775747Y-67674252D01*
X152855435Y-67727498D01*
X152862577Y-67732270D01*
X152864253Y-67732603D01*
X152865671Y-67733551D01*
X152868262Y-67734624D01*
X152868048Y-67735139D01*
X152904026Y-67759176D01*
X152909803Y-67769984D01*
X152928326Y-67814702D01*
X152928330Y-67814708D01*
X153190673Y-68077051D01*
X153208979Y-68121245D01*
X153190673Y-68165439D01*
X153146479Y-68183745D01*
X153130303Y-68181616D01*
X153096281Y-68172500D01*
X152983719Y-68172500D01*
X152983718Y-68172500D01*
X152983712Y-68172501D01*
X152874991Y-68201632D01*
X152874988Y-68201633D01*
X152777509Y-68257914D01*
X152777503Y-68257919D01*
X152697919Y-68337503D01*
X152697914Y-68337509D01*
X152641633Y-68434988D01*
X152641632Y-68434991D01*
X152612501Y-68543712D01*
X152612500Y-68543720D01*
X152612500Y-68656279D01*
X152612501Y-68656287D01*
X152641632Y-68765008D01*
X152641633Y-68765011D01*
X152697914Y-68862490D01*
X152697919Y-68862496D01*
X152777503Y-68942080D01*
X152777509Y-68942085D01*
X152874988Y-68998366D01*
X152874991Y-68998367D01*
X152983719Y-69027500D01*
X152983720Y-69027500D01*
X153096280Y-69027500D01*
X153096281Y-69027500D01*
X153205009Y-68998367D01*
X153302491Y-68942085D01*
X153382085Y-68862491D01*
X153383874Y-68859392D01*
X153421823Y-68830273D01*
X153469250Y-68836516D01*
X153498370Y-68874466D01*
X153500500Y-68890643D01*
X153500500Y-68895020D01*
X153531326Y-68969441D01*
X153531330Y-68969446D01*
X154539459Y-69977575D01*
X154557765Y-70021769D01*
X154539460Y-70065962D01*
X154517919Y-70087503D01*
X154517914Y-70087509D01*
X154461633Y-70184988D01*
X154461632Y-70184991D01*
X154432501Y-70293712D01*
X154432500Y-70293720D01*
X154432500Y-70406279D01*
X154432501Y-70406287D01*
X154461632Y-70515008D01*
X154461633Y-70515011D01*
X154517914Y-70612490D01*
X154517919Y-70612496D01*
X154597503Y-70692080D01*
X154597509Y-70692085D01*
X154694988Y-70748366D01*
X154694991Y-70748367D01*
X154803719Y-70777500D01*
X154803720Y-70777500D01*
X154916280Y-70777500D01*
X154916281Y-70777500D01*
X155025009Y-70748367D01*
X155122491Y-70692085D01*
X155202085Y-70612491D01*
X155232831Y-70559238D01*
X155250874Y-70527988D01*
X155288824Y-70498868D01*
X155336250Y-70505112D01*
X155365370Y-70543062D01*
X155367500Y-70559238D01*
X155367500Y-70737194D01*
X155349194Y-70781388D01*
X155336251Y-70791320D01*
X155307509Y-70807914D01*
X155307503Y-70807919D01*
X155227919Y-70887503D01*
X155227914Y-70887509D01*
X155171633Y-70984988D01*
X155171632Y-70984991D01*
X155142501Y-71093712D01*
X155142500Y-71093720D01*
X155142500Y-71206279D01*
X155142501Y-71206287D01*
X155171632Y-71315008D01*
X155171633Y-71315011D01*
X155227914Y-71412490D01*
X155227919Y-71412496D01*
X155307503Y-71492080D01*
X155307509Y-71492085D01*
X155404988Y-71548366D01*
X155404991Y-71548367D01*
X155513719Y-71577500D01*
X155513720Y-71577500D01*
X155626280Y-71577500D01*
X155626281Y-71577500D01*
X155735009Y-71548367D01*
X155788806Y-71517306D01*
X155808762Y-71514678D01*
X155828212Y-71509467D01*
X155831951Y-71511625D01*
X155836231Y-71511062D01*
X155852202Y-71523317D01*
X155869640Y-71533384D01*
X155870757Y-71537554D01*
X155874182Y-71540182D01*
X155882021Y-71579587D01*
X155880880Y-71588255D01*
X155876658Y-71604012D01*
X155845743Y-71678645D01*
X155837586Y-71692774D01*
X155788406Y-71756868D01*
X155776868Y-71768406D01*
X155712774Y-71817586D01*
X155698645Y-71825743D01*
X155624012Y-71856658D01*
X155608252Y-71860881D01*
X155524064Y-71871965D01*
X155515906Y-71872500D01*
X151524094Y-71872500D01*
X151515936Y-71871965D01*
X151431746Y-71860880D01*
X151415988Y-71856658D01*
X151366026Y-71835963D01*
X151341354Y-71825743D01*
X151327225Y-71817586D01*
X151263131Y-71768406D01*
X151251593Y-71756868D01*
X151202413Y-71692774D01*
X151194256Y-71678645D01*
X151184372Y-71654783D01*
X151163339Y-71604006D01*
X151159119Y-71588256D01*
X151149779Y-71517307D01*
X151148035Y-71504062D01*
X151147500Y-71495905D01*
X151147500Y-69754094D01*
X151148035Y-69745937D01*
X151156808Y-69679298D01*
X151159119Y-69661741D01*
X151163338Y-69645995D01*
X151194257Y-69571352D01*
X151202413Y-69557225D01*
X151229279Y-69522212D01*
X151251596Y-69493127D01*
X151263127Y-69481596D01*
X151327225Y-69432413D01*
X151341352Y-69424257D01*
X151415995Y-69393338D01*
X151431741Y-69389119D01*
X151509393Y-69378896D01*
X151515937Y-69378035D01*
X151524094Y-69377500D01*
X151840701Y-69377500D01*
X151840702Y-69377500D01*
X151978562Y-69346035D01*
X152105963Y-69284682D01*
X152216517Y-69196517D01*
X152304682Y-69085963D01*
X152366035Y-68958562D01*
X152397500Y-68820702D01*
X152397500Y-68750000D01*
X152397500Y-68720899D01*
X152397500Y-68679298D01*
X152366035Y-68541438D01*
X152304682Y-68414037D01*
X152216517Y-68303483D01*
X152105963Y-68215318D01*
X152105960Y-68215316D01*
X152002388Y-68165439D01*
X151978562Y-68153965D01*
X151978560Y-68153964D01*
X151978559Y-68153964D01*
X151840703Y-68122500D01*
X151840702Y-68122500D01*
X151795361Y-68122500D01*
X150549101Y-68122500D01*
X150520000Y-68122500D01*
X150449298Y-68122500D01*
X150449296Y-68122500D01*
X150311440Y-68153964D01*
X150184039Y-68215316D01*
X150184036Y-68215318D01*
X150073483Y-68303483D01*
X149985318Y-68414036D01*
X149985316Y-68414039D01*
X149923964Y-68541440D01*
X149892500Y-68679296D01*
X149892500Y-72570703D01*
X149918872Y-72686250D01*
X149923965Y-72708562D01*
X149928687Y-72718367D01*
X149985316Y-72835960D01*
X149985318Y-72835963D01*
X150073483Y-72946517D01*
X150184037Y-73034682D01*
X150311438Y-73096035D01*
X150449298Y-73127500D01*
X150449299Y-73127500D01*
X156590701Y-73127500D01*
X156590702Y-73127500D01*
X156728562Y-73096035D01*
X156855963Y-73034682D01*
X156966517Y-72946517D01*
X157054682Y-72835963D01*
X157116035Y-72708562D01*
X157147500Y-72570702D01*
X157147500Y-72500000D01*
X157147500Y-72470899D01*
X157147500Y-68724639D01*
X157147500Y-68679298D01*
X157116035Y-68541438D01*
X157054682Y-68414037D01*
X156966517Y-68303483D01*
X156855963Y-68215318D01*
X156855960Y-68215316D01*
X156752388Y-68165439D01*
X156728562Y-68153965D01*
X156728560Y-68153964D01*
X156728559Y-68153964D01*
X156590703Y-68122500D01*
X156590702Y-68122500D01*
X156545361Y-68122500D01*
X155299101Y-68122500D01*
X155270000Y-68122500D01*
X155199298Y-68122500D01*
X155199296Y-68122500D01*
X155061440Y-68153964D01*
X154934039Y-68215316D01*
X154934036Y-68215318D01*
X154823483Y-68303483D01*
X154735318Y-68414036D01*
X154735316Y-68414039D01*
X154673964Y-68541440D01*
X154642500Y-68679296D01*
X154642500Y-68820703D01*
X154668872Y-68936250D01*
X154673965Y-68958562D01*
X154689950Y-68991755D01*
X154692631Y-69039515D01*
X154660756Y-69075183D01*
X154612996Y-69077864D01*
X154589445Y-69063066D01*
X154200806Y-68674427D01*
X154182500Y-68630233D01*
X154182500Y-67788496D01*
X154200806Y-67744302D01*
X154212735Y-67736334D01*
X154212305Y-67735690D01*
X154304252Y-67674252D01*
X154321029Y-67649144D01*
X154362270Y-67587423D01*
X154377500Y-67510856D01*
X154377500Y-67089144D01*
X154377500Y-67089143D01*
X154602500Y-67089143D01*
X154602500Y-67510856D01*
X154617729Y-67587422D01*
X154617730Y-67587424D01*
X154675747Y-67674252D01*
X154762575Y-67732269D01*
X154762577Y-67732270D01*
X154839144Y-67747500D01*
X155160856Y-67747500D01*
X155237423Y-67732270D01*
X155279034Y-67704466D01*
X155329371Y-67670832D01*
X155330466Y-67672471D01*
X155367079Y-67657291D01*
X155398349Y-67665664D01*
X155454991Y-67698367D01*
X155563719Y-67727500D01*
X155563720Y-67727500D01*
X155676280Y-67727500D01*
X155676281Y-67727500D01*
X155785009Y-67698367D01*
X155882491Y-67642085D01*
X155962085Y-67562491D01*
X156018367Y-67465009D01*
X156047500Y-67356281D01*
X156047500Y-67243719D01*
X156018367Y-67134991D01*
X156018366Y-67134988D01*
X155962085Y-67037509D01*
X155962080Y-67037503D01*
X155882496Y-66957919D01*
X155882490Y-66957914D01*
X155785011Y-66901633D01*
X155785008Y-66901632D01*
X155676287Y-66872501D01*
X155676282Y-66872500D01*
X155676281Y-66872500D01*
X155563719Y-66872500D01*
X155563718Y-66872500D01*
X155563712Y-66872501D01*
X155454991Y-66901632D01*
X155454990Y-66901632D01*
X155398350Y-66934334D01*
X155350923Y-66940577D01*
X155329869Y-66928421D01*
X155329371Y-66929168D01*
X155237424Y-66867730D01*
X155237422Y-66867729D01*
X155160856Y-66852500D01*
X154839144Y-66852500D01*
X154762577Y-66867729D01*
X154762575Y-66867730D01*
X154675747Y-66925747D01*
X154617730Y-67012575D01*
X154617729Y-67012577D01*
X154602500Y-67089143D01*
X154377500Y-67089143D01*
X154362270Y-67012577D01*
X154362269Y-67012575D01*
X154304252Y-66925747D01*
X154212305Y-66864310D01*
X154213843Y-66862006D01*
X154187258Y-66835421D01*
X154182500Y-66811503D01*
X154182500Y-66369720D01*
X154182499Y-66369717D01*
X154151673Y-66295296D01*
X154151669Y-66295291D01*
X152524708Y-64668330D01*
X152524703Y-64668326D01*
X152450282Y-64637500D01*
X152450280Y-64637500D01*
X145820280Y-64637500D01*
X145739720Y-64637500D01*
X145739717Y-64637500D01*
X145665296Y-64668326D01*
X145665291Y-64668330D01*
X145008330Y-65325291D01*
X145008326Y-65325296D01*
X144977500Y-65399717D01*
X144977500Y-66310234D01*
X144959194Y-66354428D01*
X144134428Y-67179194D01*
X144090234Y-67197500D01*
X113859766Y-67197500D01*
X113815572Y-67179194D01*
X113090806Y-66454428D01*
X113072500Y-66410234D01*
X113072500Y-63619720D01*
X113072499Y-63619717D01*
X113041673Y-63545296D01*
X113041669Y-63545291D01*
X110983820Y-61487442D01*
X113422500Y-61487442D01*
X113422500Y-66512557D01*
X113429898Y-66549748D01*
X113429898Y-66549749D01*
X113458077Y-66591922D01*
X113483454Y-66608878D01*
X113500252Y-66620102D01*
X113537442Y-66627500D01*
X113537443Y-66627500D01*
X118562557Y-66627500D01*
X118562558Y-66627500D01*
X118599748Y-66620102D01*
X118641922Y-66591922D01*
X118670102Y-66549748D01*
X118677500Y-66512558D01*
X118677500Y-66047835D01*
X126500000Y-66047835D01*
X126506402Y-66107377D01*
X126556647Y-66242091D01*
X126556649Y-66242094D01*
X126642808Y-66357186D01*
X126642813Y-66357191D01*
X126757905Y-66443350D01*
X126757908Y-66443352D01*
X126892622Y-66493597D01*
X126952164Y-66499999D01*
X126952178Y-66500000D01*
X128750000Y-66500000D01*
X129250000Y-66500000D01*
X131047822Y-66500000D01*
X131047835Y-66499999D01*
X131107377Y-66493597D01*
X131242091Y-66443352D01*
X131242094Y-66443350D01*
X131357186Y-66357191D01*
X131357191Y-66357186D01*
X131443350Y-66242094D01*
X131443352Y-66242091D01*
X131493597Y-66107377D01*
X131499999Y-66047835D01*
X131500000Y-66047822D01*
X131500000Y-64250000D01*
X129250000Y-64250000D01*
X129250000Y-66500000D01*
X128750000Y-66500000D01*
X128750000Y-64250000D01*
X126500000Y-64250000D01*
X126500000Y-66047835D01*
X118677500Y-66047835D01*
X118677500Y-61952164D01*
X126500000Y-61952164D01*
X126500000Y-63750000D01*
X128750000Y-63750000D01*
X129250000Y-63750000D01*
X131500000Y-63750000D01*
X131500000Y-61952177D01*
X131499999Y-61952164D01*
X131493597Y-61892622D01*
X131443352Y-61757908D01*
X131443350Y-61757905D01*
X131357191Y-61642813D01*
X131357186Y-61642808D01*
X131242094Y-61556649D01*
X131242091Y-61556647D01*
X131107377Y-61506402D01*
X131047835Y-61500000D01*
X129250000Y-61500000D01*
X129250000Y-63750000D01*
X128750000Y-63750000D01*
X128750000Y-61500000D01*
X126952164Y-61500000D01*
X126892622Y-61506402D01*
X126757908Y-61556647D01*
X126757905Y-61556649D01*
X126642813Y-61642808D01*
X126642808Y-61642813D01*
X126556649Y-61757905D01*
X126556647Y-61757908D01*
X126506402Y-61892622D01*
X126500000Y-61952164D01*
X118677500Y-61952164D01*
X118677500Y-61487442D01*
X118670102Y-61450252D01*
X118668487Y-61447835D01*
X118641922Y-61408077D01*
X118599748Y-61379898D01*
X118562558Y-61372500D01*
X118562557Y-61372500D01*
X116490000Y-61372500D01*
X116445806Y-61354194D01*
X116427500Y-61310000D01*
X116427500Y-60996471D01*
X116429630Y-60980295D01*
X116432569Y-60969326D01*
X116457500Y-60876281D01*
X116457500Y-60763719D01*
X116428367Y-60654991D01*
X116428365Y-60654987D01*
X116415873Y-60633349D01*
X116407500Y-60602100D01*
X116407500Y-58152253D01*
X116425806Y-58108059D01*
X117215806Y-57318059D01*
X117260000Y-57299753D01*
X117304194Y-57318059D01*
X117322500Y-57362253D01*
X117322500Y-57637557D01*
X117329898Y-57674748D01*
X117329898Y-57674749D01*
X117358077Y-57716922D01*
X117386257Y-57735750D01*
X117400252Y-57745102D01*
X117437442Y-57752500D01*
X117437443Y-57752500D01*
X119162557Y-57752500D01*
X119162558Y-57752500D01*
X119199748Y-57745102D01*
X119241922Y-57716922D01*
X119270102Y-57674748D01*
X119277500Y-57637558D01*
X119277500Y-57215000D01*
X119295806Y-57170806D01*
X119340000Y-57152500D01*
X120474698Y-57152500D01*
X120474699Y-57152500D01*
X120570710Y-57126774D01*
X120656790Y-57077075D01*
X121402075Y-56331790D01*
X121404073Y-56328329D01*
X121451774Y-56245709D01*
X121477500Y-56149699D01*
X121477500Y-55418605D01*
X121495806Y-55374411D01*
X121523821Y-55358236D01*
X121577287Y-55343910D01*
X121609243Y-55330673D01*
X121723257Y-55264847D01*
X121750699Y-55243791D01*
X121843791Y-55150699D01*
X121864847Y-55123257D01*
X121930673Y-55009243D01*
X121943910Y-54977287D01*
X121977985Y-54850120D01*
X121982500Y-54815826D01*
X121982500Y-54250000D01*
X121970526Y-54194958D01*
X121921788Y-54138710D01*
X121906683Y-54093325D01*
X121928093Y-54050552D01*
X121961466Y-54021635D01*
X121961466Y-54021634D01*
X121961467Y-54021634D01*
X121961467Y-54021633D01*
X121973711Y-53979933D01*
X121982500Y-53950000D01*
X121982500Y-53890000D01*
X122000806Y-53845806D01*
X122045000Y-53827500D01*
X128797747Y-53827500D01*
X128841941Y-53845806D01*
X137664194Y-62668059D01*
X137682500Y-62712253D01*
X137682500Y-65624780D01*
X137674127Y-65656029D01*
X137651634Y-65694988D01*
X137651631Y-65694994D01*
X137622501Y-65803712D01*
X137622500Y-65803720D01*
X137622500Y-65916279D01*
X137622501Y-65916287D01*
X137651632Y-66025008D01*
X137651633Y-66025011D01*
X137707914Y-66122490D01*
X137707919Y-66122496D01*
X137787503Y-66202080D01*
X137787509Y-66202085D01*
X137884988Y-66258366D01*
X137884991Y-66258367D01*
X137993719Y-66287500D01*
X137993720Y-66287500D01*
X138106280Y-66287500D01*
X138106281Y-66287500D01*
X138215009Y-66258367D01*
X138312491Y-66202085D01*
X138392085Y-66122491D01*
X138448367Y-66025009D01*
X138477500Y-65916281D01*
X138477500Y-65803719D01*
X138448367Y-65694991D01*
X138445872Y-65690670D01*
X138437500Y-65659422D01*
X138437500Y-62480302D01*
X138437499Y-62480296D01*
X138427517Y-62443046D01*
X138411774Y-62384291D01*
X138362075Y-62298210D01*
X138291790Y-62227925D01*
X137551307Y-61487442D01*
X139322500Y-61487442D01*
X139322500Y-66512557D01*
X139329898Y-66549748D01*
X139329898Y-66549749D01*
X139358077Y-66591922D01*
X139383454Y-66608878D01*
X139400252Y-66620102D01*
X139437442Y-66627500D01*
X139437443Y-66627500D01*
X144462557Y-66627500D01*
X144462558Y-66627500D01*
X144499748Y-66620102D01*
X144541922Y-66591922D01*
X144570102Y-66549748D01*
X144577500Y-66512558D01*
X144577500Y-61487442D01*
X144570102Y-61450252D01*
X144568487Y-61447835D01*
X146800000Y-61447835D01*
X146806402Y-61507377D01*
X146856647Y-61642091D01*
X146856649Y-61642094D01*
X146942808Y-61757186D01*
X146942813Y-61757191D01*
X147057905Y-61843350D01*
X147057908Y-61843352D01*
X147192622Y-61893597D01*
X147252164Y-61899999D01*
X147252178Y-61900000D01*
X148550000Y-61900000D01*
X149050000Y-61900000D01*
X150347822Y-61900000D01*
X150347835Y-61899999D01*
X150407377Y-61893597D01*
X150542091Y-61843352D01*
X150542094Y-61843350D01*
X150657186Y-61757191D01*
X150657191Y-61757186D01*
X150743350Y-61642094D01*
X150743352Y-61642091D01*
X150793597Y-61507377D01*
X150799999Y-61447835D01*
X150800000Y-61447822D01*
X150800000Y-60650000D01*
X149050000Y-60650000D01*
X149050000Y-61900000D01*
X148550000Y-61900000D01*
X148550000Y-60650000D01*
X146800000Y-60650000D01*
X146800000Y-61447835D01*
X144568487Y-61447835D01*
X144541922Y-61408077D01*
X144499748Y-61379898D01*
X144462558Y-61372500D01*
X144462557Y-61372500D01*
X142390000Y-61372500D01*
X142345806Y-61354194D01*
X142327500Y-61310000D01*
X142327500Y-61035218D01*
X142335874Y-61003967D01*
X142345426Y-60987423D01*
X142358367Y-60965009D01*
X142387500Y-60856281D01*
X142387500Y-60743719D01*
X142358367Y-60634991D01*
X142302085Y-60537509D01*
X142302080Y-60537503D01*
X142222496Y-60457919D01*
X142222490Y-60457914D01*
X142125011Y-60401633D01*
X142125008Y-60401632D01*
X142016287Y-60372501D01*
X142016282Y-60372500D01*
X142016281Y-60372500D01*
X141903719Y-60372500D01*
X141903718Y-60372500D01*
X141903712Y-60372501D01*
X141794991Y-60401632D01*
X141794988Y-60401633D01*
X141697509Y-60457914D01*
X141697503Y-60457919D01*
X141617919Y-60537503D01*
X141617914Y-60537509D01*
X141561633Y-60634988D01*
X141561632Y-60634991D01*
X141532501Y-60743712D01*
X141532500Y-60743720D01*
X141532500Y-60856279D01*
X141532501Y-60856287D01*
X141561632Y-60965006D01*
X141561633Y-60965009D01*
X141561634Y-60965010D01*
X141564126Y-60969326D01*
X141572500Y-61000577D01*
X141572500Y-61310000D01*
X141554194Y-61354194D01*
X141510000Y-61372500D01*
X139437442Y-61372500D01*
X139418847Y-61376199D01*
X139400251Y-61379898D01*
X139400250Y-61379898D01*
X139358077Y-61408077D01*
X139329898Y-61450250D01*
X139329898Y-61450251D01*
X139322500Y-61487442D01*
X137551307Y-61487442D01*
X135945436Y-59881571D01*
X142425001Y-59881571D01*
X142431410Y-59952107D01*
X142431410Y-59952108D01*
X142481982Y-60114399D01*
X142569925Y-60259874D01*
X142690125Y-60380074D01*
X142835600Y-60468017D01*
X142997890Y-60518589D01*
X142997891Y-60518590D01*
X143068427Y-60524999D01*
X143149999Y-60524999D01*
X143150000Y-60524998D01*
X143150000Y-59875000D01*
X143650000Y-59875000D01*
X143650000Y-60524999D01*
X143731572Y-60524999D01*
X143802107Y-60518589D01*
X143802108Y-60518589D01*
X143964399Y-60468017D01*
X144109874Y-60380074D01*
X144232142Y-60257807D01*
X144276336Y-60239501D01*
X144293773Y-60241983D01*
X144414877Y-60277167D01*
X144450000Y-60279931D01*
X144450000Y-60279930D01*
X144950000Y-60279930D01*
X144985119Y-60277167D01*
X144985124Y-60277167D01*
X145139194Y-60232405D01*
X145139195Y-60232404D01*
X145277288Y-60150737D01*
X145277290Y-60150736D01*
X145390736Y-60037290D01*
X145390737Y-60037288D01*
X145472404Y-59899195D01*
X145472405Y-59899194D01*
X145512845Y-59760000D01*
X144950000Y-59760000D01*
X144950000Y-60279930D01*
X144450000Y-60279930D01*
X144450000Y-59760000D01*
X144443500Y-59760000D01*
X144443500Y-59812500D01*
X144425194Y-59856694D01*
X144381000Y-59875000D01*
X143650000Y-59875000D01*
X143150000Y-59875000D01*
X142425001Y-59875000D01*
X142425001Y-59881571D01*
X135945436Y-59881571D01*
X135432291Y-59368426D01*
X142425000Y-59368426D01*
X142425000Y-59375000D01*
X143150000Y-59375000D01*
X143150000Y-58725000D01*
X143068428Y-58725000D01*
X142997892Y-58731410D01*
X142997891Y-58731410D01*
X142835600Y-58781982D01*
X142690125Y-58869925D01*
X142569925Y-58990125D01*
X142481982Y-59135600D01*
X142431410Y-59297890D01*
X142431409Y-59297891D01*
X142425000Y-59368426D01*
X135432291Y-59368426D01*
X130311790Y-54247925D01*
X129762770Y-53698905D01*
X129211795Y-53147929D01*
X129211789Y-53147924D01*
X129125712Y-53098226D01*
X129125709Y-53098225D01*
X129029705Y-53072501D01*
X129029700Y-53072500D01*
X129029699Y-53072500D01*
X129029698Y-53072500D01*
X121892414Y-53072500D01*
X121848220Y-53054194D01*
X121845223Y-53050776D01*
X121845145Y-53050845D01*
X121843788Y-53049298D01*
X121750701Y-52956211D01*
X121750695Y-52956206D01*
X121723255Y-52935151D01*
X121609249Y-52869330D01*
X121609245Y-52869328D01*
X121609243Y-52869327D01*
X121577287Y-52856090D01*
X121577284Y-52856089D01*
X121577279Y-52856087D01*
X121450131Y-52822017D01*
X121450121Y-52822015D01*
X121450120Y-52822015D01*
X121450115Y-52822014D01*
X121450113Y-52822014D01*
X121415830Y-52817500D01*
X121415826Y-52817500D01*
X120784174Y-52817500D01*
X120784169Y-52817500D01*
X120749886Y-52822014D01*
X120749868Y-52822017D01*
X120622720Y-52856087D01*
X120590757Y-52869327D01*
X120590750Y-52869330D01*
X120476744Y-52935151D01*
X120449304Y-52956206D01*
X120449298Y-52956211D01*
X120356211Y-53049298D01*
X120354855Y-53050845D01*
X120353846Y-53049960D01*
X120315759Y-53071963D01*
X120307586Y-53072500D01*
X119134699Y-53072500D01*
X119035301Y-53072500D01*
X119035300Y-53072500D01*
X119035294Y-53072501D01*
X118939293Y-53098224D01*
X118939290Y-53098225D01*
X118853208Y-53147925D01*
X118700175Y-53300957D01*
X118655981Y-53319263D01*
X118632063Y-53314505D01*
X118585134Y-53295066D01*
X118585126Y-53295064D01*
X118396275Y-53257500D01*
X118203725Y-53257500D01*
X118014873Y-53295064D01*
X118014865Y-53295066D01*
X117836979Y-53368750D01*
X117836977Y-53368751D01*
X117676880Y-53475725D01*
X117540725Y-53611880D01*
X117433751Y-53771977D01*
X117433750Y-53771979D01*
X117360066Y-53949865D01*
X117360064Y-53949873D01*
X117322500Y-54138724D01*
X117322500Y-54331275D01*
X117360064Y-54520126D01*
X117360066Y-54520134D01*
X117433750Y-54698020D01*
X117433751Y-54698022D01*
X117535388Y-54850131D01*
X117540726Y-54858120D01*
X117676880Y-54994274D01*
X117836980Y-55101250D01*
X117890105Y-55123255D01*
X118014865Y-55174933D01*
X118014869Y-55174934D01*
X118014874Y-55174936D01*
X118203725Y-55212500D01*
X118396275Y-55212500D01*
X118585126Y-55174936D01*
X118585132Y-55174933D01*
X118585134Y-55174933D01*
X118627611Y-55157337D01*
X118763020Y-55101250D01*
X118923120Y-54994274D01*
X119059274Y-54858120D01*
X119166250Y-54698020D01*
X119222337Y-54562611D01*
X119239933Y-54520134D01*
X119239933Y-54520132D01*
X119239936Y-54520126D01*
X119277500Y-54331275D01*
X119277500Y-54138725D01*
X119239936Y-53949874D01*
X119225041Y-53913916D01*
X119225041Y-53866083D01*
X119258866Y-53832258D01*
X119282784Y-53827500D01*
X120155000Y-53827500D01*
X120199194Y-53845806D01*
X120217500Y-53890000D01*
X120217500Y-53950000D01*
X120229474Y-54005042D01*
X120278210Y-54061287D01*
X120293316Y-54106674D01*
X120271904Y-54149449D01*
X120238533Y-54178364D01*
X120238532Y-54178366D01*
X120217500Y-54249997D01*
X120217500Y-54815830D01*
X120222014Y-54850113D01*
X120222017Y-54850131D01*
X120256087Y-54977279D01*
X120256089Y-54977284D01*
X120256090Y-54977287D01*
X120263126Y-54994274D01*
X120269327Y-55009242D01*
X120269330Y-55009249D01*
X120335151Y-55123255D01*
X120335153Y-55123257D01*
X120356209Y-55150699D01*
X120449301Y-55243791D01*
X120449304Y-55243793D01*
X120476744Y-55264848D01*
X120559379Y-55312557D01*
X120590757Y-55330673D01*
X120622713Y-55343910D01*
X120676177Y-55358235D01*
X120714126Y-55387354D01*
X120722500Y-55418605D01*
X120722500Y-55917747D01*
X120704194Y-55961941D01*
X120286941Y-56379194D01*
X120242747Y-56397500D01*
X119340000Y-56397500D01*
X119295806Y-56379194D01*
X119277500Y-56335000D01*
X119277500Y-55912442D01*
X119273911Y-55894400D01*
X119270102Y-55875252D01*
X119270101Y-55875250D01*
X119241922Y-55833077D01*
X119199748Y-55804898D01*
X119179177Y-55800806D01*
X119162558Y-55797500D01*
X117437442Y-55797500D01*
X117420823Y-55800806D01*
X117400251Y-55804898D01*
X117400250Y-55804898D01*
X117358077Y-55833077D01*
X117329898Y-55875250D01*
X117329898Y-55875251D01*
X117322500Y-55912442D01*
X117322500Y-56335000D01*
X117304194Y-56379194D01*
X117260000Y-56397500D01*
X117175296Y-56397500D01*
X117079290Y-56423226D01*
X117079285Y-56423228D01*
X117033354Y-56449747D01*
X116993213Y-56472922D01*
X116993204Y-56472929D01*
X115727929Y-57738204D01*
X115727924Y-57738210D01*
X115678226Y-57824287D01*
X115678225Y-57824290D01*
X115659807Y-57893030D01*
X115659807Y-57893031D01*
X115652500Y-57920296D01*
X115652500Y-60602100D01*
X115644127Y-60633349D01*
X115631634Y-60654987D01*
X115631631Y-60654994D01*
X115602501Y-60763712D01*
X115602500Y-60763720D01*
X115602500Y-60876279D01*
X115602501Y-60876287D01*
X115631632Y-60985008D01*
X115631633Y-60985010D01*
X115664126Y-61041287D01*
X115672500Y-61072538D01*
X115672500Y-61310000D01*
X115654194Y-61354194D01*
X115610000Y-61372500D01*
X113537442Y-61372500D01*
X113518847Y-61376199D01*
X113500251Y-61379898D01*
X113500250Y-61379898D01*
X113458077Y-61408077D01*
X113429898Y-61450250D01*
X113429898Y-61450251D01*
X113422500Y-61487442D01*
X110983820Y-61487442D01*
X110220806Y-60724428D01*
X110202500Y-60680234D01*
X110202500Y-60209766D01*
X110220759Y-60165618D01*
X110221247Y-60165129D01*
X110265421Y-60146780D01*
X110281658Y-60148909D01*
X110309162Y-60156279D01*
X110313711Y-60157498D01*
X110313719Y-60157500D01*
X110313720Y-60157500D01*
X110426280Y-60157500D01*
X110426281Y-60157500D01*
X110535009Y-60128367D01*
X110632491Y-60072085D01*
X110712085Y-59992491D01*
X110712088Y-59992484D01*
X110714576Y-59989244D01*
X110716341Y-59990598D01*
X110748603Y-59965832D01*
X110796030Y-59972066D01*
X110818918Y-59994948D01*
X110857914Y-60062490D01*
X110857919Y-60062496D01*
X110937503Y-60142080D01*
X110937509Y-60142085D01*
X111034988Y-60198366D01*
X111034991Y-60198367D01*
X111143719Y-60227500D01*
X111143720Y-60227500D01*
X111256280Y-60227500D01*
X111256281Y-60227500D01*
X111365009Y-60198367D01*
X111462491Y-60142085D01*
X111542085Y-60062491D01*
X111598367Y-59965009D01*
X111627500Y-59856281D01*
X111627500Y-59777811D01*
X111645806Y-59733617D01*
X111690000Y-59715311D01*
X111706176Y-59717441D01*
X111735076Y-59725184D01*
X111743719Y-59727500D01*
X111743720Y-59727500D01*
X111856280Y-59727500D01*
X111856281Y-59727500D01*
X111965009Y-59698367D01*
X112062491Y-59642085D01*
X112142085Y-59562491D01*
X112198367Y-59465009D01*
X112227500Y-59356281D01*
X112227500Y-59243719D01*
X112198367Y-59134991D01*
X112198366Y-59134988D01*
X112142085Y-59037509D01*
X112142080Y-59037503D01*
X112062496Y-58957919D01*
X112062490Y-58957914D01*
X111965011Y-58901633D01*
X111965008Y-58901632D01*
X111856287Y-58872501D01*
X111856282Y-58872500D01*
X111856281Y-58872500D01*
X111743719Y-58872500D01*
X111743717Y-58872500D01*
X111743712Y-58872501D01*
X111711657Y-58881089D01*
X111664232Y-58874843D01*
X111651290Y-58864912D01*
X111195572Y-58409194D01*
X111177266Y-58365000D01*
X111195572Y-58320806D01*
X111239766Y-58302500D01*
X111462557Y-58302500D01*
X111462558Y-58302500D01*
X111499748Y-58295102D01*
X111541922Y-58266922D01*
X111570102Y-58224748D01*
X111577500Y-58187558D01*
X111577500Y-58114199D01*
X111595806Y-58070005D01*
X111616081Y-58056457D01*
X111639707Y-58046671D01*
X111921671Y-57764707D01*
X111926728Y-57752500D01*
X111945366Y-57707503D01*
X111952500Y-57690280D01*
X111952500Y-57609720D01*
X111952500Y-56059720D01*
X111948578Y-56050251D01*
X111921673Y-55985296D01*
X111921669Y-55985291D01*
X111806640Y-55870262D01*
X111788334Y-55826068D01*
X111806640Y-55781874D01*
X111850834Y-55763568D01*
X111872676Y-55767509D01*
X111942622Y-55793597D01*
X112002164Y-55799999D01*
X112002178Y-55800000D01*
X112050000Y-55800000D01*
X112450000Y-55800000D01*
X112497822Y-55800000D01*
X112497835Y-55799999D01*
X112557377Y-55793597D01*
X112678158Y-55748549D01*
X112721842Y-55748549D01*
X112842622Y-55793597D01*
X112902164Y-55799999D01*
X112902178Y-55800000D01*
X112950000Y-55800000D01*
X113350000Y-55800000D01*
X113397822Y-55800000D01*
X113397835Y-55799999D01*
X113457377Y-55793597D01*
X113592091Y-55743352D01*
X113592094Y-55743350D01*
X113707186Y-55657191D01*
X113707191Y-55657186D01*
X113793350Y-55542094D01*
X113793352Y-55542091D01*
X113843597Y-55407377D01*
X113849768Y-55349987D01*
X114575001Y-55349987D01*
X114585492Y-55452687D01*
X114585493Y-55452694D01*
X114640641Y-55619121D01*
X114732682Y-55768343D01*
X114856656Y-55892317D01*
X115005878Y-55984358D01*
X115172308Y-56039507D01*
X115275018Y-56049999D01*
X115549999Y-56049999D01*
X116050000Y-56049999D01*
X116324976Y-56049999D01*
X116324987Y-56049998D01*
X116427687Y-56039507D01*
X116427694Y-56039506D01*
X116594121Y-55984358D01*
X116743343Y-55892317D01*
X116867317Y-55768343D01*
X116959358Y-55619121D01*
X117014507Y-55452691D01*
X117024999Y-55349986D01*
X117025000Y-55349977D01*
X117025000Y-55300000D01*
X116050000Y-55300000D01*
X116050000Y-56049999D01*
X115549999Y-56049999D01*
X115550000Y-56049998D01*
X115550000Y-55300000D01*
X114575001Y-55300000D01*
X114575001Y-55349987D01*
X113849768Y-55349987D01*
X113849999Y-55347835D01*
X113850000Y-55347822D01*
X113850000Y-55250000D01*
X113350000Y-55250000D01*
X113350000Y-55800000D01*
X112950000Y-55800000D01*
X112950000Y-55282842D01*
X112949998Y-55282842D01*
X112792203Y-55440638D01*
X112748009Y-55458944D01*
X112651990Y-55458944D01*
X112651989Y-55458943D01*
X112651989Y-55458944D01*
X112607796Y-55440638D01*
X112450000Y-55282841D01*
X112450000Y-55800000D01*
X112050000Y-55800000D01*
X112050000Y-55112500D01*
X112068306Y-55068306D01*
X112112500Y-55050000D01*
X112217158Y-55050000D01*
X112217158Y-55049999D01*
X112152773Y-54985614D01*
X112134467Y-54941420D01*
X112152773Y-54897226D01*
X112249998Y-54800000D01*
X112532842Y-54800000D01*
X112582842Y-54850000D01*
X112817157Y-54850000D01*
X112817158Y-54849999D01*
X113382841Y-54849999D01*
X113382842Y-54850000D01*
X113850000Y-54850000D01*
X113850000Y-54751803D01*
X113849806Y-54750013D01*
X114575000Y-54750013D01*
X114575000Y-54800000D01*
X115550000Y-54800000D01*
X116050000Y-54800000D01*
X117024999Y-54800000D01*
X117024999Y-54750024D01*
X117024998Y-54750012D01*
X117014507Y-54647312D01*
X117014506Y-54647305D01*
X116959358Y-54480878D01*
X116867317Y-54331656D01*
X116743343Y-54207682D01*
X116594121Y-54115641D01*
X116427691Y-54060492D01*
X116324986Y-54050000D01*
X116050000Y-54050000D01*
X116050000Y-54800000D01*
X115550000Y-54800000D01*
X115550000Y-54050000D01*
X115275024Y-54050000D01*
X115275012Y-54050001D01*
X115172312Y-54060492D01*
X115172305Y-54060493D01*
X115005878Y-54115641D01*
X114856656Y-54207682D01*
X114732682Y-54331656D01*
X114640641Y-54480878D01*
X114585492Y-54647308D01*
X114575000Y-54750013D01*
X113849806Y-54750013D01*
X113844765Y-54703491D01*
X113844766Y-54703486D01*
X113844758Y-54703433D01*
X113843596Y-54692619D01*
X113842691Y-54690191D01*
X113839953Y-54680547D01*
X113823098Y-54595814D01*
X113770333Y-54468428D01*
X113770331Y-54468425D01*
X113767961Y-54464879D01*
X113382841Y-54849999D01*
X112817158Y-54849999D01*
X112867157Y-54799999D01*
X112700000Y-54632842D01*
X112532842Y-54800000D01*
X112249998Y-54800000D01*
X112249999Y-54799999D01*
X112152772Y-54702772D01*
X112134466Y-54658578D01*
X112152772Y-54614384D01*
X112471351Y-54295806D01*
X112515545Y-54277500D01*
X112884455Y-54277500D01*
X112928649Y-54295806D01*
X113150000Y-54517157D01*
X113485118Y-54182038D01*
X113485031Y-54181147D01*
X113498917Y-54135371D01*
X113503016Y-54130848D01*
X113712856Y-53921008D01*
X113740870Y-53904834D01*
X113765009Y-53898367D01*
X113862491Y-53842085D01*
X113942085Y-53762491D01*
X113998367Y-53665009D01*
X114004834Y-53640868D01*
X114021007Y-53612857D01*
X114088060Y-53545804D01*
X114092472Y-53543977D01*
X114132253Y-53527500D01*
X114928121Y-53527500D01*
X114972315Y-53545806D01*
X114984267Y-53562545D01*
X115013524Y-53622390D01*
X115102610Y-53711476D01*
X115215796Y-53766809D01*
X115289173Y-53777500D01*
X116310826Y-53777499D01*
X116384204Y-53766809D01*
X116497390Y-53711476D01*
X116586476Y-53622390D01*
X116641809Y-53509204D01*
X116652500Y-53435827D01*
X116652499Y-52864174D01*
X116641809Y-52790796D01*
X116586476Y-52677610D01*
X116497390Y-52588524D01*
X116384204Y-52533191D01*
X116384202Y-52533190D01*
X116384201Y-52533190D01*
X116325913Y-52524698D01*
X116310827Y-52522500D01*
X116310826Y-52522500D01*
X115289174Y-52522500D01*
X115215798Y-52533190D01*
X115215797Y-52533190D01*
X115215796Y-52533191D01*
X115169663Y-52555744D01*
X115102608Y-52588525D01*
X115013525Y-52677608D01*
X115013524Y-52677609D01*
X115013524Y-52677610D01*
X114984269Y-52737451D01*
X114948415Y-52769114D01*
X114928121Y-52772500D01*
X113999699Y-52772500D01*
X113900301Y-52772500D01*
X113900300Y-52772500D01*
X113900294Y-52772501D01*
X113804290Y-52798225D01*
X113804287Y-52798226D01*
X113718210Y-52847924D01*
X113718204Y-52847929D01*
X113487144Y-53078989D01*
X113459127Y-53095165D01*
X113434992Y-53101632D01*
X113434988Y-53101633D01*
X113337509Y-53157914D01*
X113337503Y-53157919D01*
X113257919Y-53237503D01*
X113257914Y-53237509D01*
X113201633Y-53334988D01*
X113201632Y-53334990D01*
X113195165Y-53359127D01*
X113178989Y-53387143D01*
X113061939Y-53504194D01*
X113017748Y-53522500D01*
X112859689Y-53522500D01*
X112815495Y-53504194D01*
X112797189Y-53460000D01*
X112807722Y-53425277D01*
X112870330Y-53331575D01*
X112923099Y-53204180D01*
X112949999Y-53068944D01*
X112950000Y-53068944D01*
X112950000Y-52931056D01*
X112949999Y-52931055D01*
X112923098Y-52795814D01*
X112870333Y-52668428D01*
X112870331Y-52668425D01*
X112867961Y-52664879D01*
X112435614Y-53097226D01*
X112391420Y-53115532D01*
X112347226Y-53097226D01*
X112250000Y-53000000D01*
X112152772Y-53097227D01*
X112108578Y-53115533D01*
X112064384Y-53097227D01*
X111632037Y-52664880D01*
X111629666Y-52668429D01*
X111576901Y-52795814D01*
X111550000Y-52931055D01*
X111550000Y-53068944D01*
X111576900Y-53204180D01*
X111629669Y-53331575D01*
X111692278Y-53425277D01*
X111701610Y-53472193D01*
X111675034Y-53511967D01*
X111640311Y-53522500D01*
X111300296Y-53522500D01*
X111204293Y-53548225D01*
X111204291Y-53548225D01*
X111118208Y-53597926D01*
X111118204Y-53597929D01*
X111047929Y-53668204D01*
X111047926Y-53668208D01*
X110998225Y-53754291D01*
X110998225Y-53754293D01*
X110972500Y-53850296D01*
X110972500Y-53850301D01*
X110972500Y-53949699D01*
X110972547Y-53949873D01*
X110980365Y-53979052D01*
X110979262Y-53987426D01*
X110982494Y-53995228D01*
X110976250Y-54010301D01*
X110974120Y-54026479D01*
X110967419Y-54031620D01*
X110964188Y-54039422D01*
X110949116Y-54045664D01*
X110936170Y-54055599D01*
X110927795Y-54054496D01*
X110919994Y-54057728D01*
X110904920Y-54051484D01*
X110888743Y-54049354D01*
X110875800Y-54039422D01*
X110795806Y-53959428D01*
X110777500Y-53915234D01*
X110777500Y-53856884D01*
X110777499Y-53856878D01*
X110757895Y-53783719D01*
X110755181Y-53773590D01*
X110712065Y-53698910D01*
X110651090Y-53637935D01*
X110576410Y-53594819D01*
X110576409Y-53594818D01*
X110576408Y-53594818D01*
X110493121Y-53572500D01*
X110493116Y-53572500D01*
X110406884Y-53572500D01*
X110406878Y-53572500D01*
X110323592Y-53594818D01*
X110323590Y-53594818D01*
X110284899Y-53617157D01*
X110248910Y-53637935D01*
X110248909Y-53637936D01*
X110248905Y-53637939D01*
X110187939Y-53698905D01*
X110187936Y-53698909D01*
X110187935Y-53698910D01*
X110180681Y-53711474D01*
X110144818Y-53773590D01*
X110144818Y-53773592D01*
X110122500Y-53856878D01*
X110122500Y-53943121D01*
X110144818Y-54026407D01*
X110144818Y-54026409D01*
X110147827Y-54031620D01*
X110187935Y-54101090D01*
X110248910Y-54162065D01*
X110323590Y-54205181D01*
X110349076Y-54212010D01*
X110406878Y-54227499D01*
X110406884Y-54227500D01*
X110465234Y-54227500D01*
X110509428Y-54245806D01*
X110671412Y-54407790D01*
X110689718Y-54451984D01*
X110671412Y-54496178D01*
X110627218Y-54514484D01*
X110595969Y-54506111D01*
X110576410Y-54494819D01*
X110576407Y-54494818D01*
X110493121Y-54472500D01*
X110493116Y-54472500D01*
X110406884Y-54472500D01*
X110406878Y-54472500D01*
X110323592Y-54494818D01*
X110323590Y-54494818D01*
X110279398Y-54520333D01*
X110248910Y-54537935D01*
X110248909Y-54537936D01*
X110248905Y-54537939D01*
X110187939Y-54598905D01*
X110187936Y-54598909D01*
X110187935Y-54598910D01*
X110184495Y-54604869D01*
X110144818Y-54673590D01*
X110144818Y-54673592D01*
X110122500Y-54756878D01*
X110122500Y-55312557D01*
X110129898Y-55349748D01*
X110129898Y-55349749D01*
X110155064Y-55387412D01*
X110158620Y-55405292D01*
X110165597Y-55422134D01*
X110163147Y-55428048D01*
X110164396Y-55434328D01*
X110147292Y-55466328D01*
X110085294Y-55528328D01*
X109859194Y-55754428D01*
X109815000Y-55772734D01*
X109770806Y-55754428D01*
X109752500Y-55710234D01*
X109752500Y-55480792D01*
X109770806Y-55436598D01*
X109794642Y-55423859D01*
X109794062Y-55422457D01*
X109799745Y-55420102D01*
X109799748Y-55420102D01*
X109841922Y-55391922D01*
X109870102Y-55349748D01*
X109877500Y-55312558D01*
X109877500Y-54787442D01*
X109877500Y-54756884D01*
X109877499Y-54756878D01*
X109863192Y-54703486D01*
X109855181Y-54673590D01*
X109812065Y-54598910D01*
X109751090Y-54537935D01*
X109676410Y-54494819D01*
X109676409Y-54494818D01*
X109676408Y-54494818D01*
X109593121Y-54472500D01*
X109593116Y-54472500D01*
X109506884Y-54472500D01*
X109506878Y-54472500D01*
X109423592Y-54494818D01*
X109423590Y-54494818D01*
X109414006Y-54500352D01*
X109396249Y-54510604D01*
X109348824Y-54516847D01*
X109310873Y-54487727D01*
X109302500Y-54456477D01*
X109302500Y-54309720D01*
X109302499Y-54309718D01*
X109300548Y-54305009D01*
X109277987Y-54250541D01*
X109277986Y-54202706D01*
X109311811Y-54168881D01*
X109359646Y-54168880D01*
X109366966Y-54172490D01*
X109423590Y-54205181D01*
X109449076Y-54212010D01*
X109506878Y-54227499D01*
X109506884Y-54227500D01*
X109593116Y-54227500D01*
X109593121Y-54227499D01*
X109617865Y-54220868D01*
X109676410Y-54205181D01*
X109751090Y-54162065D01*
X109812065Y-54101090D01*
X109855181Y-54026410D01*
X109875655Y-53950001D01*
X109877499Y-53943121D01*
X109877500Y-53943115D01*
X109877500Y-53856884D01*
X109877499Y-53856878D01*
X109857895Y-53783719D01*
X109855181Y-53773590D01*
X109812065Y-53698910D01*
X109751090Y-53637935D01*
X109676410Y-53594819D01*
X109676409Y-53594818D01*
X109676408Y-53594818D01*
X109593121Y-53572500D01*
X109593116Y-53572500D01*
X109506884Y-53572500D01*
X109506878Y-53572500D01*
X109423592Y-53594818D01*
X109423590Y-53594818D01*
X109384899Y-53617157D01*
X109348910Y-53637935D01*
X109348909Y-53637936D01*
X109348905Y-53637939D01*
X109287939Y-53698905D01*
X109287936Y-53698909D01*
X109287935Y-53698910D01*
X109280681Y-53711474D01*
X109244818Y-53773590D01*
X109244818Y-53773592D01*
X109222500Y-53856878D01*
X109222500Y-53943121D01*
X109244818Y-54026407D01*
X109244819Y-54026410D01*
X109255300Y-54044564D01*
X109256111Y-54045968D01*
X109262354Y-54093395D01*
X109233234Y-54131345D01*
X109185807Y-54137588D01*
X109157790Y-54121412D01*
X108995806Y-53959428D01*
X108977500Y-53915234D01*
X108977500Y-53856884D01*
X108977499Y-53856878D01*
X108957895Y-53783719D01*
X108955181Y-53773590D01*
X108912065Y-53698910D01*
X108851090Y-53637935D01*
X108776410Y-53594819D01*
X108776409Y-53594818D01*
X108776408Y-53594818D01*
X108693121Y-53572500D01*
X108693116Y-53572500D01*
X108606884Y-53572500D01*
X108606878Y-53572500D01*
X108523592Y-53594818D01*
X108523590Y-53594818D01*
X108484899Y-53617157D01*
X108448910Y-53637935D01*
X108448909Y-53637936D01*
X108448905Y-53637939D01*
X108387939Y-53698905D01*
X108387936Y-53698909D01*
X108387935Y-53698910D01*
X108380681Y-53711474D01*
X108344818Y-53773590D01*
X108344818Y-53773592D01*
X108322500Y-53856878D01*
X108322500Y-53943121D01*
X108344818Y-54026407D01*
X108344819Y-54026410D01*
X108355300Y-54044564D01*
X108356111Y-54045968D01*
X108362354Y-54093395D01*
X108333234Y-54131345D01*
X108285807Y-54137588D01*
X108257790Y-54121412D01*
X108095806Y-53959428D01*
X108077500Y-53915234D01*
X108077500Y-53856884D01*
X108077499Y-53856878D01*
X108057895Y-53783719D01*
X108055181Y-53773590D01*
X108012065Y-53698910D01*
X107951090Y-53637935D01*
X107876410Y-53594819D01*
X107876409Y-53594818D01*
X107876408Y-53594818D01*
X107793121Y-53572500D01*
X107793116Y-53572500D01*
X107706884Y-53572500D01*
X107706878Y-53572500D01*
X107623592Y-53594818D01*
X107623586Y-53594820D01*
X107570450Y-53625498D01*
X107523024Y-53631741D01*
X107485074Y-53602620D01*
X107481458Y-53595288D01*
X107470331Y-53568424D01*
X107467961Y-53564879D01*
X107132842Y-53899999D01*
X107467961Y-54235118D01*
X107470333Y-54231570D01*
X107481458Y-54204711D01*
X107515281Y-54170885D01*
X107563117Y-54170884D01*
X107570438Y-54174494D01*
X107623590Y-54205181D01*
X107662619Y-54215639D01*
X107706878Y-54227499D01*
X107706884Y-54227500D01*
X107765234Y-54227500D01*
X107809428Y-54245806D01*
X107971412Y-54407790D01*
X107989718Y-54451984D01*
X107971412Y-54496178D01*
X107927218Y-54514484D01*
X107895969Y-54506111D01*
X107876410Y-54494819D01*
X107876407Y-54494818D01*
X107793121Y-54472500D01*
X107793116Y-54472500D01*
X107706884Y-54472500D01*
X107706878Y-54472500D01*
X107623592Y-54494818D01*
X107623590Y-54494818D01*
X107579398Y-54520333D01*
X107548910Y-54537935D01*
X107548909Y-54537936D01*
X107548905Y-54537939D01*
X107487939Y-54598905D01*
X107487936Y-54598909D01*
X107487935Y-54598910D01*
X107484495Y-54604869D01*
X107444818Y-54673590D01*
X107444818Y-54673592D01*
X107422500Y-54756878D01*
X107422500Y-55312557D01*
X107429898Y-55349748D01*
X107429898Y-55349749D01*
X107458077Y-55391922D01*
X107500250Y-55420101D01*
X107505938Y-55422457D01*
X107505002Y-55424714D01*
X107536961Y-55446059D01*
X107547500Y-55480792D01*
X107547500Y-59792035D01*
X107529194Y-59836229D01*
X107485000Y-59854535D01*
X107440806Y-59836229D01*
X107362496Y-59757919D01*
X107362490Y-59757914D01*
X107265011Y-59701633D01*
X107265008Y-59701632D01*
X107156287Y-59672501D01*
X107156282Y-59672500D01*
X107156281Y-59672500D01*
X107043719Y-59672500D01*
X107043714Y-59672500D01*
X107011659Y-59681089D01*
X106964233Y-59674844D01*
X106951291Y-59664912D01*
X106840573Y-59554194D01*
X106822267Y-59510000D01*
X106840573Y-59465806D01*
X106884767Y-59447500D01*
X106976280Y-59447500D01*
X106976281Y-59447500D01*
X107085009Y-59418367D01*
X107182491Y-59362085D01*
X107262085Y-59282491D01*
X107312319Y-59195484D01*
X107318366Y-59185011D01*
X107318367Y-59185008D01*
X107321053Y-59174985D01*
X107347500Y-59076281D01*
X107347500Y-58963719D01*
X107318367Y-58854991D01*
X107318366Y-58854988D01*
X107262085Y-58757509D01*
X107262080Y-58757503D01*
X107182496Y-58677919D01*
X107182490Y-58677914D01*
X107085011Y-58621633D01*
X107085008Y-58621632D01*
X106976287Y-58592501D01*
X106976282Y-58592500D01*
X106976281Y-58592500D01*
X106863719Y-58592500D01*
X106863714Y-58592500D01*
X106831659Y-58601089D01*
X106784233Y-58594844D01*
X106771291Y-58584912D01*
X104220806Y-56034427D01*
X104202500Y-55990233D01*
X104202500Y-54756878D01*
X104722500Y-54756878D01*
X104722500Y-55312557D01*
X104729898Y-55349748D01*
X104729898Y-55349749D01*
X104758077Y-55391922D01*
X104782634Y-55408330D01*
X104800252Y-55420102D01*
X104837442Y-55427500D01*
X104837443Y-55427500D01*
X105262557Y-55427500D01*
X105262558Y-55427500D01*
X105299748Y-55420102D01*
X105341922Y-55391922D01*
X105370102Y-55349748D01*
X105377500Y-55312558D01*
X105377500Y-54787442D01*
X105377500Y-54756884D01*
X105377499Y-54756878D01*
X105622500Y-54756878D01*
X105622500Y-55312557D01*
X105629898Y-55349748D01*
X105629898Y-55349749D01*
X105658077Y-55391922D01*
X105682634Y-55408330D01*
X105700252Y-55420102D01*
X105737442Y-55427500D01*
X105737443Y-55427500D01*
X106162557Y-55427500D01*
X106162558Y-55427500D01*
X106199748Y-55420102D01*
X106241922Y-55391922D01*
X106270102Y-55349748D01*
X106277500Y-55312558D01*
X106277500Y-54787442D01*
X106277500Y-54756884D01*
X106277499Y-54756878D01*
X106522500Y-54756878D01*
X106522500Y-55312557D01*
X106529898Y-55349748D01*
X106529898Y-55349749D01*
X106558077Y-55391922D01*
X106582634Y-55408330D01*
X106600252Y-55420102D01*
X106637442Y-55427500D01*
X106637443Y-55427500D01*
X107062557Y-55427500D01*
X107062558Y-55427500D01*
X107099748Y-55420102D01*
X107141922Y-55391922D01*
X107170102Y-55349748D01*
X107177500Y-55312558D01*
X107177500Y-54787442D01*
X107177500Y-54756884D01*
X107177499Y-54756878D01*
X107163192Y-54703486D01*
X107155181Y-54673590D01*
X107124500Y-54620449D01*
X107118256Y-54573025D01*
X107147376Y-54535075D01*
X107154711Y-54531458D01*
X107181570Y-54520333D01*
X107185119Y-54517961D01*
X106850000Y-54182842D01*
X106532488Y-54500352D01*
X106571197Y-54551470D01*
X106573280Y-54559450D01*
X106579113Y-54565282D01*
X106579113Y-54581785D01*
X106583283Y-54597753D01*
X106579113Y-54604869D01*
X106579114Y-54613118D01*
X106575498Y-54620450D01*
X106544820Y-54673586D01*
X106544818Y-54673592D01*
X106522500Y-54756878D01*
X106277499Y-54756878D01*
X106263192Y-54703486D01*
X106255181Y-54673590D01*
X106212065Y-54598910D01*
X106151090Y-54537935D01*
X106076410Y-54494819D01*
X106076409Y-54494818D01*
X106076408Y-54494818D01*
X105993121Y-54472500D01*
X105993116Y-54472500D01*
X105906884Y-54472500D01*
X105906878Y-54472500D01*
X105823592Y-54494818D01*
X105823590Y-54494818D01*
X105779398Y-54520333D01*
X105748910Y-54537935D01*
X105748909Y-54537936D01*
X105748905Y-54537939D01*
X105687939Y-54598905D01*
X105687936Y-54598909D01*
X105687935Y-54598910D01*
X105684495Y-54604869D01*
X105644818Y-54673590D01*
X105644818Y-54673592D01*
X105622500Y-54756878D01*
X105377499Y-54756878D01*
X105363192Y-54703486D01*
X105355181Y-54673590D01*
X105312065Y-54598910D01*
X105251090Y-54537935D01*
X105176410Y-54494819D01*
X105176409Y-54494818D01*
X105176408Y-54494818D01*
X105093121Y-54472500D01*
X105093116Y-54472500D01*
X105006884Y-54472500D01*
X105006878Y-54472500D01*
X104923592Y-54494818D01*
X104923590Y-54494818D01*
X104879398Y-54520333D01*
X104848910Y-54537935D01*
X104848909Y-54537936D01*
X104848905Y-54537939D01*
X104787939Y-54598905D01*
X104787936Y-54598909D01*
X104787935Y-54598910D01*
X104784495Y-54604869D01*
X104744818Y-54673590D01*
X104744818Y-54673592D01*
X104722500Y-54756878D01*
X104202500Y-54756878D01*
X104202500Y-53856878D01*
X104722500Y-53856878D01*
X104722500Y-53943121D01*
X104744818Y-54026407D01*
X104744818Y-54026409D01*
X104747827Y-54031620D01*
X104787935Y-54101090D01*
X104848910Y-54162065D01*
X104923590Y-54205181D01*
X104949076Y-54212010D01*
X105006878Y-54227499D01*
X105006884Y-54227500D01*
X105093116Y-54227500D01*
X105093121Y-54227499D01*
X105117865Y-54220868D01*
X105176410Y-54205181D01*
X105251090Y-54162065D01*
X105312065Y-54101090D01*
X105355181Y-54026410D01*
X105375655Y-53950001D01*
X105377499Y-53943121D01*
X105377500Y-53943115D01*
X105377500Y-53856884D01*
X105377499Y-53856878D01*
X105622500Y-53856878D01*
X105622500Y-53943121D01*
X105644818Y-54026407D01*
X105644818Y-54026409D01*
X105647827Y-54031620D01*
X105687935Y-54101090D01*
X105748910Y-54162065D01*
X105823590Y-54205181D01*
X105849076Y-54212010D01*
X105906878Y-54227499D01*
X105906884Y-54227500D01*
X105993116Y-54227500D01*
X105993121Y-54227499D01*
X106017865Y-54220868D01*
X106076410Y-54205181D01*
X106129548Y-54174501D01*
X106176974Y-54168258D01*
X106214924Y-54197378D01*
X106218540Y-54204710D01*
X106229667Y-54231573D01*
X106232037Y-54235119D01*
X106567157Y-53900000D01*
X106232037Y-53564880D01*
X106229665Y-53568430D01*
X106229664Y-53568432D01*
X106218540Y-53595289D01*
X106184715Y-53629114D01*
X106136880Y-53629113D01*
X106129548Y-53625498D01*
X106128159Y-53624696D01*
X106076410Y-53594819D01*
X106076407Y-53594818D01*
X105993121Y-53572500D01*
X105993116Y-53572500D01*
X105906884Y-53572500D01*
X105906878Y-53572500D01*
X105823592Y-53594818D01*
X105823590Y-53594818D01*
X105784899Y-53617157D01*
X105748910Y-53637935D01*
X105748909Y-53637936D01*
X105748905Y-53637939D01*
X105687939Y-53698905D01*
X105687936Y-53698909D01*
X105687935Y-53698910D01*
X105680681Y-53711474D01*
X105644818Y-53773590D01*
X105644818Y-53773592D01*
X105622500Y-53856878D01*
X105377499Y-53856878D01*
X105357895Y-53783719D01*
X105355181Y-53773590D01*
X105312065Y-53698910D01*
X105251090Y-53637935D01*
X105176410Y-53594819D01*
X105176409Y-53594818D01*
X105176408Y-53594818D01*
X105093121Y-53572500D01*
X105093116Y-53572500D01*
X105006884Y-53572500D01*
X105006878Y-53572500D01*
X104923592Y-53594818D01*
X104923590Y-53594818D01*
X104884899Y-53617157D01*
X104848910Y-53637935D01*
X104848909Y-53637936D01*
X104848905Y-53637939D01*
X104787939Y-53698905D01*
X104787936Y-53698909D01*
X104787935Y-53698910D01*
X104780681Y-53711474D01*
X104744818Y-53773590D01*
X104744818Y-53773592D01*
X104722500Y-53856878D01*
X104202500Y-53856878D01*
X104202500Y-53459720D01*
X104202499Y-53459717D01*
X104171673Y-53385296D01*
X104171669Y-53385291D01*
X103743256Y-52956878D01*
X104722500Y-52956878D01*
X104722500Y-53043121D01*
X104744818Y-53126407D01*
X104744818Y-53126409D01*
X104750514Y-53136275D01*
X104787935Y-53201090D01*
X104848910Y-53262065D01*
X104923590Y-53305181D01*
X104949076Y-53312010D01*
X105006878Y-53327499D01*
X105006884Y-53327500D01*
X105093116Y-53327500D01*
X105093121Y-53327499D01*
X105123856Y-53319263D01*
X105176410Y-53305181D01*
X105251090Y-53262065D01*
X105312065Y-53201090D01*
X105355181Y-53126410D01*
X105374532Y-53054194D01*
X105377499Y-53043121D01*
X105377500Y-53043115D01*
X105377500Y-52956884D01*
X105377499Y-52956878D01*
X105622500Y-52956878D01*
X105622500Y-53043121D01*
X105644818Y-53126407D01*
X105644818Y-53126409D01*
X105650514Y-53136275D01*
X105687935Y-53201090D01*
X105748910Y-53262065D01*
X105823590Y-53305181D01*
X105849076Y-53312010D01*
X105906878Y-53327499D01*
X105906884Y-53327500D01*
X105993116Y-53327500D01*
X105993121Y-53327499D01*
X106023856Y-53319263D01*
X106076410Y-53305181D01*
X106116497Y-53282037D01*
X106514880Y-53282037D01*
X106850000Y-53617157D01*
X107185119Y-53282037D01*
X107181572Y-53279667D01*
X107181573Y-53279667D01*
X107054185Y-53226901D01*
X106918944Y-53200000D01*
X106781056Y-53200000D01*
X106645814Y-53226901D01*
X106518429Y-53279666D01*
X106514880Y-53282037D01*
X106116497Y-53282037D01*
X106151090Y-53262065D01*
X106212065Y-53201090D01*
X106255181Y-53126410D01*
X106274532Y-53054194D01*
X106277499Y-53043121D01*
X106277500Y-53043115D01*
X106277500Y-52956884D01*
X106277499Y-52956878D01*
X106265607Y-52912500D01*
X106255181Y-52873590D01*
X106212065Y-52798910D01*
X106151090Y-52737935D01*
X106076410Y-52694819D01*
X106076409Y-52694818D01*
X106076408Y-52694818D01*
X105993121Y-52672500D01*
X105993116Y-52672500D01*
X105906884Y-52672500D01*
X105906878Y-52672500D01*
X105823592Y-52694818D01*
X105823590Y-52694818D01*
X105784899Y-52717157D01*
X105748910Y-52737935D01*
X105748909Y-52737936D01*
X105748905Y-52737939D01*
X105687939Y-52798905D01*
X105687936Y-52798909D01*
X105687935Y-52798910D01*
X105685469Y-52803182D01*
X105644818Y-52873590D01*
X105644818Y-52873592D01*
X105622500Y-52956878D01*
X105377499Y-52956878D01*
X105365607Y-52912500D01*
X105355181Y-52873590D01*
X105312065Y-52798910D01*
X105251090Y-52737935D01*
X105176410Y-52694819D01*
X105176409Y-52694818D01*
X105176408Y-52694818D01*
X105093121Y-52672500D01*
X105093116Y-52672500D01*
X105006884Y-52672500D01*
X105006878Y-52672500D01*
X104923592Y-52694818D01*
X104923590Y-52694818D01*
X104884899Y-52717157D01*
X104848910Y-52737935D01*
X104848909Y-52737936D01*
X104848905Y-52737939D01*
X104787939Y-52798905D01*
X104787936Y-52798909D01*
X104787935Y-52798910D01*
X104785469Y-52803182D01*
X104744818Y-52873590D01*
X104744818Y-52873592D01*
X104722500Y-52956878D01*
X103743256Y-52956878D01*
X103654708Y-52868330D01*
X103654703Y-52868326D01*
X103580282Y-52837500D01*
X103580280Y-52837500D01*
X102607663Y-52837500D01*
X102563469Y-52819194D01*
X102546364Y-52787192D01*
X102539936Y-52754874D01*
X102539933Y-52754865D01*
X102488913Y-52631694D01*
X102466250Y-52576980D01*
X102359274Y-52416880D01*
X102223120Y-52280726D01*
X102223119Y-52280725D01*
X102063022Y-52173751D01*
X102063020Y-52173750D01*
X101910392Y-52110529D01*
X101885133Y-52100066D01*
X101885126Y-52100064D01*
X101696275Y-52062500D01*
X101503725Y-52062500D01*
X101314873Y-52100064D01*
X101314865Y-52100066D01*
X101136979Y-52173750D01*
X101136977Y-52173751D01*
X100976880Y-52280725D01*
X100840725Y-52416880D01*
X100733751Y-52576977D01*
X100733750Y-52576979D01*
X100660066Y-52754865D01*
X100660064Y-52754873D01*
X100622500Y-52943724D01*
X100127500Y-52943724D01*
X100127500Y-52056878D01*
X104722500Y-52056878D01*
X104722500Y-52143121D01*
X104744818Y-52226407D01*
X104744818Y-52226409D01*
X104744819Y-52226410D01*
X104787935Y-52301090D01*
X104848910Y-52362065D01*
X104923590Y-52405181D01*
X104949076Y-52412010D01*
X105006878Y-52427499D01*
X105006884Y-52427500D01*
X105093116Y-52427500D01*
X105093121Y-52427499D01*
X105117865Y-52420868D01*
X105176410Y-52405181D01*
X105251090Y-52362065D01*
X105312065Y-52301090D01*
X105355181Y-52226410D01*
X105370868Y-52167865D01*
X105377499Y-52143121D01*
X105377500Y-52143115D01*
X105377500Y-52056884D01*
X105377499Y-52056878D01*
X105622500Y-52056878D01*
X105622500Y-52143121D01*
X105644818Y-52226407D01*
X105644818Y-52226409D01*
X105644819Y-52226410D01*
X105687935Y-52301090D01*
X105748910Y-52362065D01*
X105823590Y-52405181D01*
X105849076Y-52412010D01*
X105906878Y-52427499D01*
X105906884Y-52427500D01*
X105993116Y-52427500D01*
X105993121Y-52427499D01*
X106017865Y-52420868D01*
X106076410Y-52405181D01*
X106151090Y-52362065D01*
X106212065Y-52301090D01*
X106255181Y-52226410D01*
X106270868Y-52167865D01*
X106277499Y-52143121D01*
X106277500Y-52143115D01*
X106277500Y-52056884D01*
X106277499Y-52056878D01*
X106264422Y-52008078D01*
X106255181Y-51973590D01*
X106212065Y-51898910D01*
X106151090Y-51837935D01*
X106076410Y-51794819D01*
X106076409Y-51794818D01*
X106076408Y-51794818D01*
X105993121Y-51772500D01*
X105993116Y-51772500D01*
X105906884Y-51772500D01*
X105906878Y-51772500D01*
X105823592Y-51794818D01*
X105823590Y-51794818D01*
X105771095Y-51825126D01*
X105748910Y-51837935D01*
X105748909Y-51837936D01*
X105748905Y-51837939D01*
X105687939Y-51898905D01*
X105687936Y-51898909D01*
X105687935Y-51898910D01*
X105675126Y-51921095D01*
X105644818Y-51973590D01*
X105644818Y-51973592D01*
X105622500Y-52056878D01*
X105377499Y-52056878D01*
X105364422Y-52008078D01*
X105355181Y-51973590D01*
X105312065Y-51898910D01*
X105251090Y-51837935D01*
X105176410Y-51794819D01*
X105176409Y-51794818D01*
X105176408Y-51794818D01*
X105093121Y-51772500D01*
X105093116Y-51772500D01*
X105006884Y-51772500D01*
X105006878Y-51772500D01*
X104923592Y-51794818D01*
X104923590Y-51794818D01*
X104871095Y-51825126D01*
X104848910Y-51837935D01*
X104848909Y-51837936D01*
X104848905Y-51837939D01*
X104787939Y-51898905D01*
X104787936Y-51898909D01*
X104787935Y-51898910D01*
X104775126Y-51921095D01*
X104744818Y-51973590D01*
X104744818Y-51973592D01*
X104722500Y-52056878D01*
X100127500Y-52056878D01*
X100127500Y-49637442D01*
X100622500Y-49637442D01*
X100622500Y-51362557D01*
X100629898Y-51399748D01*
X100629898Y-51399749D01*
X100658077Y-51441922D01*
X100669790Y-51449748D01*
X100700252Y-51470102D01*
X100737442Y-51477500D01*
X100737443Y-51477500D01*
X102462557Y-51477500D01*
X102462558Y-51477500D01*
X102499748Y-51470102D01*
X102541922Y-51441922D01*
X102570102Y-51399748D01*
X102577500Y-51362558D01*
X102577500Y-51156878D01*
X104722500Y-51156878D01*
X104722500Y-51243121D01*
X104744818Y-51326407D01*
X104744818Y-51326409D01*
X104744819Y-51326410D01*
X104787935Y-51401090D01*
X104848910Y-51462065D01*
X104923590Y-51505181D01*
X104934402Y-51508078D01*
X105006878Y-51527499D01*
X105006884Y-51527500D01*
X105093116Y-51527500D01*
X105093121Y-51527499D01*
X105117865Y-51520868D01*
X105176410Y-51505181D01*
X105251090Y-51462065D01*
X105312065Y-51401090D01*
X105355181Y-51326410D01*
X105377500Y-51243116D01*
X105377500Y-51156884D01*
X105377499Y-51156878D01*
X105622500Y-51156878D01*
X105622500Y-51243121D01*
X105644818Y-51326407D01*
X105644818Y-51326409D01*
X105644819Y-51326410D01*
X105687935Y-51401090D01*
X105748910Y-51462065D01*
X105823590Y-51505181D01*
X105834402Y-51508078D01*
X105906878Y-51527499D01*
X105906884Y-51527500D01*
X105993116Y-51527500D01*
X105993121Y-51527499D01*
X106017865Y-51520868D01*
X106076410Y-51505181D01*
X106151090Y-51462065D01*
X106212065Y-51401090D01*
X106255181Y-51326410D01*
X106277500Y-51243116D01*
X106277500Y-51156884D01*
X106277499Y-51156878D01*
X106260390Y-51093030D01*
X106255181Y-51073590D01*
X106212065Y-50998910D01*
X106151090Y-50937935D01*
X106076410Y-50894819D01*
X106076409Y-50894818D01*
X106076408Y-50894818D01*
X105993121Y-50872500D01*
X105993116Y-50872500D01*
X105906884Y-50872500D01*
X105906878Y-50872500D01*
X105823592Y-50894818D01*
X105823590Y-50894818D01*
X105771095Y-50925126D01*
X105748910Y-50937935D01*
X105748909Y-50937936D01*
X105748905Y-50937939D01*
X105687939Y-50998905D01*
X105687936Y-50998909D01*
X105687935Y-50998910D01*
X105675126Y-51021095D01*
X105644818Y-51073590D01*
X105644818Y-51073592D01*
X105622500Y-51156878D01*
X105377499Y-51156878D01*
X105360390Y-51093030D01*
X105355181Y-51073590D01*
X105312065Y-50998910D01*
X105251090Y-50937935D01*
X105176410Y-50894819D01*
X105176409Y-50894818D01*
X105176408Y-50894818D01*
X105093121Y-50872500D01*
X105093116Y-50872500D01*
X105006884Y-50872500D01*
X105006878Y-50872500D01*
X104923592Y-50894818D01*
X104923590Y-50894818D01*
X104871095Y-50925126D01*
X104848910Y-50937935D01*
X104848909Y-50937936D01*
X104848905Y-50937939D01*
X104787939Y-50998905D01*
X104787936Y-50998909D01*
X104787935Y-50998910D01*
X104775126Y-51021095D01*
X104744818Y-51073590D01*
X104744818Y-51073592D01*
X104722500Y-51156878D01*
X102577500Y-51156878D01*
X102577500Y-49637442D01*
X102570102Y-49600252D01*
X102570101Y-49600250D01*
X102541922Y-49558077D01*
X102499748Y-49529898D01*
X102462558Y-49522500D01*
X100737442Y-49522500D01*
X100718847Y-49526199D01*
X100700251Y-49529898D01*
X100700250Y-49529898D01*
X100658077Y-49558077D01*
X100629898Y-49600250D01*
X100629898Y-49600251D01*
X100622500Y-49637442D01*
X100127500Y-49637442D01*
X100127500Y-49356878D01*
X104722500Y-49356878D01*
X104722500Y-49443121D01*
X104744818Y-49526407D01*
X104744818Y-49526409D01*
X104756111Y-49545968D01*
X104787935Y-49601090D01*
X104848910Y-49662065D01*
X104923590Y-49705181D01*
X104947303Y-49711535D01*
X105006878Y-49727499D01*
X105006884Y-49727500D01*
X105065234Y-49727500D01*
X105109428Y-49745806D01*
X105271412Y-49907790D01*
X105289718Y-49951984D01*
X105271412Y-49996178D01*
X105227218Y-50014484D01*
X105195969Y-50006111D01*
X105176410Y-49994819D01*
X105176407Y-49994818D01*
X105093121Y-49972500D01*
X105093116Y-49972500D01*
X105006884Y-49972500D01*
X105006878Y-49972500D01*
X104923592Y-49994818D01*
X104923590Y-49994818D01*
X104884289Y-50017509D01*
X104848910Y-50037935D01*
X104848909Y-50037936D01*
X104848905Y-50037939D01*
X104787939Y-50098905D01*
X104787936Y-50098909D01*
X104787935Y-50098910D01*
X104778651Y-50114991D01*
X104744818Y-50173590D01*
X104744818Y-50173592D01*
X104722500Y-50256878D01*
X104722500Y-50343121D01*
X104744818Y-50426407D01*
X104744818Y-50426409D01*
X104755556Y-50445008D01*
X104787935Y-50501090D01*
X104848910Y-50562065D01*
X104923590Y-50605181D01*
X104949076Y-50612010D01*
X105006878Y-50627499D01*
X105006884Y-50627500D01*
X105093116Y-50627500D01*
X105093121Y-50627499D01*
X105117865Y-50620868D01*
X105176410Y-50605181D01*
X105251090Y-50562065D01*
X105312065Y-50501090D01*
X105355181Y-50426410D01*
X105371321Y-50366176D01*
X105377499Y-50343121D01*
X105377500Y-50343115D01*
X105377500Y-50256884D01*
X105377499Y-50256878D01*
X105359098Y-50188209D01*
X105355181Y-50173590D01*
X105322495Y-50116976D01*
X105316253Y-50069553D01*
X105345373Y-50031602D01*
X105392799Y-50025359D01*
X105400541Y-50027987D01*
X105459720Y-50052500D01*
X105540280Y-50052500D01*
X105606477Y-50052500D01*
X105650671Y-50070806D01*
X105668977Y-50115000D01*
X105660604Y-50146250D01*
X105644818Y-50173590D01*
X105644818Y-50173592D01*
X105622500Y-50256878D01*
X105622500Y-50343121D01*
X105644818Y-50426407D01*
X105644818Y-50426409D01*
X105655556Y-50445008D01*
X105687935Y-50501090D01*
X105748910Y-50562065D01*
X105823590Y-50605181D01*
X105849076Y-50612010D01*
X105906878Y-50627499D01*
X105906884Y-50627500D01*
X105993116Y-50627500D01*
X105993121Y-50627499D01*
X106017865Y-50620868D01*
X106076410Y-50605181D01*
X106151090Y-50562065D01*
X106212065Y-50501090D01*
X106255181Y-50426410D01*
X106267847Y-50379140D01*
X106269294Y-50373741D01*
X106298414Y-50335790D01*
X106345840Y-50329547D01*
X106373858Y-50345723D01*
X106479807Y-50451672D01*
X106554234Y-50482500D01*
X106634794Y-50482500D01*
X106787195Y-50482500D01*
X106831389Y-50500806D01*
X106841319Y-50513746D01*
X106857915Y-50542491D01*
X106857916Y-50542492D01*
X106857919Y-50542496D01*
X106937503Y-50622080D01*
X106937509Y-50622085D01*
X107034988Y-50678366D01*
X107034991Y-50678367D01*
X107143719Y-50707500D01*
X107143720Y-50707500D01*
X107256280Y-50707500D01*
X107256281Y-50707500D01*
X107365009Y-50678367D01*
X107365330Y-50678182D01*
X107392491Y-50662500D01*
X107462491Y-50622085D01*
X107542085Y-50542491D01*
X107598367Y-50445009D01*
X107627500Y-50336281D01*
X107627500Y-50223719D01*
X107627500Y-50223717D01*
X107627498Y-50223712D01*
X107625082Y-50214697D01*
X107598367Y-50114991D01*
X107598366Y-50114988D01*
X107542085Y-50017509D01*
X107542080Y-50017503D01*
X107462496Y-49937919D01*
X107462490Y-49937914D01*
X107365011Y-49881633D01*
X107365008Y-49881632D01*
X107256287Y-49852501D01*
X107256282Y-49852500D01*
X107256281Y-49852500D01*
X107143719Y-49852500D01*
X107143718Y-49852500D01*
X107143712Y-49852501D01*
X107034991Y-49881632D01*
X107034988Y-49881633D01*
X106937509Y-49937914D01*
X106937503Y-49937919D01*
X106857919Y-50017503D01*
X106857916Y-50017507D01*
X106857915Y-50017509D01*
X106841320Y-50046250D01*
X106834620Y-50051391D01*
X106831389Y-50059194D01*
X106816315Y-50065437D01*
X106803371Y-50075370D01*
X106787195Y-50077500D01*
X106704281Y-50077500D01*
X106660087Y-50059194D01*
X106600893Y-50000000D01*
X106535085Y-49934193D01*
X106516780Y-49890000D01*
X106535086Y-49845806D01*
X106579280Y-49827500D01*
X106616280Y-49827500D01*
X106616281Y-49827500D01*
X106725009Y-49798367D01*
X106725588Y-49798033D01*
X106786515Y-49762856D01*
X106822491Y-49742085D01*
X106902085Y-49662491D01*
X106958367Y-49565009D01*
X106987500Y-49456281D01*
X106987500Y-49343719D01*
X106958367Y-49234991D01*
X106958366Y-49234988D01*
X106902085Y-49137509D01*
X106902080Y-49137503D01*
X106822493Y-49057916D01*
X106822494Y-49057916D01*
X106745946Y-49013720D01*
X107322500Y-49013720D01*
X107322500Y-49126279D01*
X107322501Y-49126287D01*
X107351632Y-49235008D01*
X107351633Y-49235011D01*
X107407914Y-49332490D01*
X107407919Y-49332496D01*
X107487503Y-49412080D01*
X107487509Y-49412085D01*
X107584988Y-49468366D01*
X107584991Y-49468367D01*
X107693719Y-49497500D01*
X107693720Y-49497500D01*
X107806280Y-49497500D01*
X107806281Y-49497500D01*
X107915009Y-49468367D01*
X108012491Y-49412085D01*
X108092085Y-49332491D01*
X108148367Y-49235009D01*
X108177500Y-49126281D01*
X108177500Y-49013719D01*
X108148367Y-48904991D01*
X108148366Y-48904988D01*
X108092085Y-48807509D01*
X108092080Y-48807503D01*
X108036313Y-48751736D01*
X108018007Y-48707542D01*
X108026379Y-48676295D01*
X108055181Y-48626410D01*
X108073971Y-48556287D01*
X108077499Y-48543121D01*
X108077500Y-48543115D01*
X108077500Y-48456884D01*
X108077499Y-48456878D01*
X108057786Y-48383312D01*
X108055181Y-48373590D01*
X108012065Y-48298910D01*
X107951090Y-48237935D01*
X107916494Y-48217961D01*
X108314879Y-48217961D01*
X108318425Y-48220331D01*
X108318428Y-48220333D01*
X108445814Y-48273098D01*
X108581055Y-48299999D01*
X108581056Y-48300000D01*
X108718944Y-48300000D01*
X108718944Y-48299999D01*
X108854185Y-48273098D01*
X108981569Y-48220334D01*
X108985118Y-48217961D01*
X109214879Y-48217961D01*
X109218425Y-48220331D01*
X109218428Y-48220333D01*
X109345814Y-48273098D01*
X109481055Y-48299999D01*
X109481056Y-48300000D01*
X109618944Y-48300000D01*
X109618944Y-48299999D01*
X109754185Y-48273098D01*
X109881569Y-48220334D01*
X109885118Y-48217961D01*
X110114879Y-48217961D01*
X110118425Y-48220331D01*
X110118428Y-48220333D01*
X110245814Y-48273098D01*
X110381055Y-48299999D01*
X110381056Y-48300000D01*
X110518944Y-48300000D01*
X110518944Y-48299999D01*
X110654185Y-48273098D01*
X110781569Y-48220334D01*
X110785119Y-48217961D01*
X110450000Y-47882842D01*
X110114879Y-48217961D01*
X109885118Y-48217961D01*
X109550000Y-47882842D01*
X109214879Y-48217961D01*
X108985118Y-48217961D01*
X108650000Y-47882842D01*
X108314879Y-48217961D01*
X107916494Y-48217961D01*
X107876410Y-48194819D01*
X107876409Y-48194818D01*
X107876408Y-48194818D01*
X107793121Y-48172500D01*
X107793116Y-48172500D01*
X107706884Y-48172500D01*
X107706878Y-48172500D01*
X107623592Y-48194818D01*
X107623590Y-48194818D01*
X107583506Y-48217961D01*
X107548910Y-48237935D01*
X107548909Y-48237936D01*
X107548905Y-48237939D01*
X107487939Y-48298905D01*
X107487936Y-48298909D01*
X107487935Y-48298910D01*
X107484674Y-48304558D01*
X107444818Y-48373590D01*
X107444818Y-48373592D01*
X107422500Y-48456878D01*
X107422500Y-48543121D01*
X107444818Y-48626407D01*
X107444818Y-48626409D01*
X107459934Y-48652591D01*
X107473617Y-48676291D01*
X107473619Y-48676293D01*
X107479862Y-48723720D01*
X107463686Y-48751737D01*
X107407919Y-48807503D01*
X107407914Y-48807509D01*
X107351633Y-48904988D01*
X107351632Y-48904991D01*
X107322501Y-49013712D01*
X107322500Y-49013720D01*
X106745946Y-49013720D01*
X106725011Y-49001633D01*
X106725008Y-49001632D01*
X106616287Y-48972501D01*
X106616282Y-48972500D01*
X106616281Y-48972500D01*
X106503719Y-48972500D01*
X106503718Y-48972500D01*
X106503712Y-48972501D01*
X106394991Y-49001632D01*
X106394988Y-49001633D01*
X106297509Y-49057914D01*
X106297503Y-49057919D01*
X106227095Y-49128327D01*
X106182901Y-49146633D01*
X106151651Y-49138260D01*
X106151092Y-49137937D01*
X106151090Y-49137935D01*
X106076410Y-49094819D01*
X106076409Y-49094818D01*
X106076408Y-49094818D01*
X105993121Y-49072500D01*
X105993116Y-49072500D01*
X105906884Y-49072500D01*
X105906878Y-49072500D01*
X105823592Y-49094818D01*
X105823590Y-49094818D01*
X105786191Y-49116411D01*
X105748910Y-49137935D01*
X105748909Y-49137936D01*
X105748905Y-49137939D01*
X105687939Y-49198905D01*
X105687936Y-49198909D01*
X105687935Y-49198910D01*
X105680089Y-49212500D01*
X105644818Y-49273590D01*
X105644818Y-49273592D01*
X105622500Y-49356878D01*
X105622500Y-49443121D01*
X105643771Y-49522500D01*
X105644819Y-49526410D01*
X105650322Y-49535941D01*
X105656111Y-49545968D01*
X105662354Y-49593395D01*
X105633234Y-49631345D01*
X105585807Y-49637588D01*
X105557790Y-49621412D01*
X105395806Y-49459428D01*
X105377500Y-49415234D01*
X105377500Y-49356884D01*
X105377499Y-49356878D01*
X105361699Y-49297914D01*
X105355181Y-49273590D01*
X105312065Y-49198910D01*
X105251090Y-49137935D01*
X105176410Y-49094819D01*
X105176409Y-49094818D01*
X105176408Y-49094818D01*
X105093121Y-49072500D01*
X105093116Y-49072500D01*
X105006884Y-49072500D01*
X105006878Y-49072500D01*
X104923592Y-49094818D01*
X104923590Y-49094818D01*
X104886191Y-49116411D01*
X104848910Y-49137935D01*
X104848909Y-49137936D01*
X104848905Y-49137939D01*
X104787939Y-49198905D01*
X104787936Y-49198909D01*
X104787935Y-49198910D01*
X104780089Y-49212500D01*
X104744818Y-49273590D01*
X104744818Y-49273592D01*
X104722500Y-49356878D01*
X100127500Y-49356878D01*
X100127500Y-48608226D01*
X100129629Y-48592053D01*
X100132878Y-48579926D01*
X100149052Y-48551910D01*
X100151910Y-48549052D01*
X100160268Y-48544227D01*
X100161995Y-48541977D01*
X100164808Y-48541606D01*
X100179927Y-48532878D01*
X100189452Y-48530326D01*
X100192055Y-48529629D01*
X100208227Y-48527500D01*
X100321958Y-48527500D01*
X100321964Y-48527500D01*
X100563168Y-48491145D01*
X100563173Y-48491143D01*
X100563175Y-48491143D01*
X100647030Y-48465277D01*
X100716917Y-48443720D01*
X102632500Y-48443720D01*
X102632500Y-48556279D01*
X102632501Y-48556287D01*
X102661632Y-48665008D01*
X102661633Y-48665011D01*
X102717914Y-48762490D01*
X102717919Y-48762496D01*
X102797503Y-48842080D01*
X102797509Y-48842085D01*
X102894988Y-48898366D01*
X102894991Y-48898367D01*
X103003719Y-48927500D01*
X103003720Y-48927500D01*
X103116280Y-48927500D01*
X103116281Y-48927500D01*
X103225009Y-48898367D01*
X103322491Y-48842085D01*
X103402085Y-48762491D01*
X103425319Y-48722250D01*
X103463269Y-48693130D01*
X103479445Y-48691000D01*
X104751957Y-48691000D01*
X104796151Y-48709306D01*
X104848910Y-48762065D01*
X104923590Y-48805181D01*
X104949076Y-48812010D01*
X105006878Y-48827499D01*
X105006884Y-48827500D01*
X105093116Y-48827500D01*
X105093121Y-48827499D01*
X105117865Y-48820868D01*
X105176410Y-48805181D01*
X105251090Y-48762065D01*
X105312065Y-48701090D01*
X105355181Y-48626410D01*
X105373971Y-48556287D01*
X105377499Y-48543121D01*
X105377500Y-48543115D01*
X105377500Y-48456884D01*
X105377499Y-48456878D01*
X105357786Y-48383312D01*
X105355181Y-48373590D01*
X105312065Y-48298910D01*
X105251090Y-48237935D01*
X105176410Y-48194819D01*
X105176409Y-48194818D01*
X105176408Y-48194818D01*
X105093121Y-48172500D01*
X105093116Y-48172500D01*
X105006884Y-48172500D01*
X105006878Y-48172500D01*
X104923592Y-48194818D01*
X104923590Y-48194818D01*
X104883506Y-48217961D01*
X104848910Y-48237935D01*
X104848909Y-48237936D01*
X104848905Y-48237939D01*
X104796151Y-48290694D01*
X104751957Y-48309000D01*
X103479445Y-48309000D01*
X103435251Y-48290694D01*
X103425319Y-48277750D01*
X103402087Y-48237512D01*
X103402080Y-48237503D01*
X103322496Y-48157919D01*
X103322490Y-48157914D01*
X103225011Y-48101633D01*
X103225008Y-48101632D01*
X103116287Y-48072501D01*
X103116282Y-48072500D01*
X103116281Y-48072500D01*
X103003719Y-48072500D01*
X103003718Y-48072500D01*
X103003712Y-48072501D01*
X102894991Y-48101632D01*
X102894988Y-48101633D01*
X102797509Y-48157914D01*
X102797503Y-48157919D01*
X102717919Y-48237503D01*
X102717914Y-48237509D01*
X102661633Y-48334988D01*
X102661632Y-48334991D01*
X102632501Y-48443712D01*
X102632500Y-48443720D01*
X100716917Y-48443720D01*
X100796260Y-48419246D01*
X101016032Y-48313409D01*
X101217575Y-48175999D01*
X101396388Y-48010085D01*
X101446466Y-47947289D01*
X101497161Y-47883720D01*
X105522500Y-47883720D01*
X105522500Y-47996279D01*
X105522501Y-47996287D01*
X105551632Y-48105008D01*
X105551633Y-48105011D01*
X105607914Y-48202490D01*
X105607919Y-48202496D01*
X105660025Y-48254602D01*
X105678331Y-48298796D01*
X105669958Y-48330045D01*
X105644820Y-48373586D01*
X105644818Y-48373592D01*
X105622500Y-48456878D01*
X105622500Y-48543121D01*
X105644818Y-48626407D01*
X105644818Y-48626409D01*
X105657627Y-48648595D01*
X105687935Y-48701090D01*
X105748910Y-48762065D01*
X105823590Y-48805181D01*
X105849076Y-48812010D01*
X105906878Y-48827499D01*
X105906884Y-48827500D01*
X105993116Y-48827500D01*
X105993121Y-48827499D01*
X106017865Y-48820868D01*
X106076410Y-48805181D01*
X106151090Y-48762065D01*
X106212065Y-48701090D01*
X106255181Y-48626410D01*
X106273971Y-48556287D01*
X106277499Y-48543121D01*
X106277500Y-48543115D01*
X106277500Y-48456884D01*
X106277499Y-48456878D01*
X106257786Y-48383312D01*
X106255181Y-48373590D01*
X106230040Y-48330045D01*
X106223797Y-48282620D01*
X106239972Y-48254603D01*
X106292085Y-48202491D01*
X106348367Y-48105009D01*
X106348368Y-48105005D01*
X106348759Y-48104328D01*
X106386710Y-48075208D01*
X106434136Y-48081451D01*
X106457012Y-48104327D01*
X106502004Y-48182253D01*
X106507915Y-48192491D01*
X106563686Y-48248262D01*
X106581992Y-48292455D01*
X106573619Y-48323705D01*
X106544820Y-48373586D01*
X106544818Y-48373592D01*
X106522500Y-48456878D01*
X106522500Y-48543121D01*
X106544818Y-48626407D01*
X106544818Y-48626409D01*
X106557627Y-48648595D01*
X106587935Y-48701090D01*
X106648910Y-48762065D01*
X106723590Y-48805181D01*
X106749076Y-48812010D01*
X106806878Y-48827499D01*
X106806884Y-48827500D01*
X106893116Y-48827500D01*
X106893121Y-48827499D01*
X106917865Y-48820868D01*
X106976410Y-48805181D01*
X107051090Y-48762065D01*
X107112065Y-48701090D01*
X107155181Y-48626410D01*
X107173971Y-48556287D01*
X107177499Y-48543121D01*
X107177500Y-48543115D01*
X107177500Y-48456884D01*
X107177499Y-48456878D01*
X107157786Y-48383312D01*
X107155181Y-48373590D01*
X107126379Y-48323704D01*
X107120137Y-48276280D01*
X107136312Y-48248263D01*
X107192085Y-48192491D01*
X107242592Y-48105011D01*
X107248366Y-48095011D01*
X107248367Y-48095008D01*
X107277500Y-47986281D01*
X107277500Y-47873719D01*
X107248367Y-47764991D01*
X107248366Y-47764988D01*
X107192085Y-47667509D01*
X107192080Y-47667503D01*
X107112496Y-47587919D01*
X107112490Y-47587914D01*
X107102440Y-47582112D01*
X107015011Y-47531633D01*
X107015008Y-47531632D01*
X107012855Y-47531055D01*
X107950000Y-47531055D01*
X107950000Y-47668944D01*
X107976901Y-47804185D01*
X108029667Y-47931573D01*
X108032037Y-47935119D01*
X108367157Y-47600000D01*
X108367156Y-47599999D01*
X108932842Y-47599999D01*
X109099999Y-47767157D01*
X109267157Y-47600000D01*
X109267157Y-47599999D01*
X109832842Y-47599999D01*
X109999999Y-47767157D01*
X110167157Y-47600000D01*
X110167157Y-47599999D01*
X110732842Y-47599999D01*
X111067961Y-47935118D01*
X111070334Y-47931569D01*
X111123098Y-47804185D01*
X111149999Y-47668944D01*
X111150000Y-47668944D01*
X111150000Y-47531056D01*
X111149999Y-47531055D01*
X111550000Y-47531055D01*
X111550000Y-47668944D01*
X111576901Y-47804185D01*
X111629667Y-47931573D01*
X111632037Y-47935119D01*
X111967157Y-47600000D01*
X111967156Y-47599999D01*
X112532842Y-47599999D01*
X112699999Y-47767157D01*
X112867157Y-47600000D01*
X112867157Y-47599999D01*
X113432842Y-47599999D01*
X113767961Y-47935118D01*
X113770334Y-47931569D01*
X113823098Y-47804185D01*
X113849999Y-47668944D01*
X113850000Y-47668944D01*
X113850000Y-47531056D01*
X113849999Y-47531055D01*
X113823098Y-47395814D01*
X113770333Y-47268428D01*
X113770331Y-47268425D01*
X113767961Y-47264879D01*
X113432842Y-47599999D01*
X112867157Y-47599999D01*
X112700000Y-47432842D01*
X112532842Y-47599999D01*
X111967156Y-47599999D01*
X111632037Y-47264880D01*
X111629666Y-47268429D01*
X111576901Y-47395814D01*
X111550000Y-47531055D01*
X111149999Y-47531055D01*
X111123098Y-47395814D01*
X111070333Y-47268428D01*
X111070331Y-47268425D01*
X111067961Y-47264879D01*
X110732842Y-47599999D01*
X110167157Y-47599999D01*
X110000000Y-47432842D01*
X109832842Y-47599999D01*
X109267157Y-47599999D01*
X109100000Y-47432842D01*
X108932842Y-47599999D01*
X108367156Y-47599999D01*
X108032037Y-47264880D01*
X108029666Y-47268429D01*
X107976901Y-47395814D01*
X107950000Y-47531055D01*
X107012855Y-47531055D01*
X106906287Y-47502501D01*
X106906282Y-47502500D01*
X106906281Y-47502500D01*
X106793719Y-47502500D01*
X106793718Y-47502500D01*
X106793712Y-47502501D01*
X106684991Y-47531632D01*
X106684988Y-47531633D01*
X106587509Y-47587914D01*
X106587503Y-47587919D01*
X106507919Y-47667503D01*
X106507914Y-47667509D01*
X106451239Y-47765672D01*
X106413288Y-47794792D01*
X106365862Y-47788547D01*
X106342987Y-47765672D01*
X106292085Y-47677509D01*
X106292080Y-47677503D01*
X106212496Y-47597919D01*
X106212490Y-47597914D01*
X106115011Y-47541633D01*
X106115008Y-47541632D01*
X106006287Y-47512501D01*
X106006282Y-47512500D01*
X106006281Y-47512500D01*
X105893719Y-47512500D01*
X105893718Y-47512500D01*
X105893712Y-47512501D01*
X105784991Y-47541632D01*
X105784988Y-47541633D01*
X105687509Y-47597914D01*
X105687503Y-47597919D01*
X105607919Y-47677503D01*
X105607914Y-47677509D01*
X105551633Y-47774988D01*
X105551632Y-47774991D01*
X105522501Y-47883712D01*
X105522500Y-47883720D01*
X101497161Y-47883720D01*
X101531505Y-47840655D01*
X101548468Y-47819383D01*
X101548468Y-47819382D01*
X101548475Y-47819374D01*
X101670439Y-47608126D01*
X101759556Y-47381059D01*
X101813835Y-47143247D01*
X101825340Y-46989734D01*
X101825917Y-46982037D01*
X108314880Y-46982037D01*
X108650000Y-47317157D01*
X108985119Y-46982037D01*
X109214880Y-46982037D01*
X109550000Y-47317157D01*
X109885119Y-46982037D01*
X110114880Y-46982037D01*
X110450000Y-47317157D01*
X110785119Y-46982037D01*
X111914880Y-46982037D01*
X112250000Y-47317157D01*
X112585119Y-46982037D01*
X112814880Y-46982037D01*
X113150000Y-47317157D01*
X113485119Y-46982037D01*
X113481572Y-46979667D01*
X113481573Y-46979667D01*
X113354185Y-46926901D01*
X113218944Y-46900000D01*
X113081056Y-46900000D01*
X112945814Y-46926901D01*
X112818429Y-46979666D01*
X112814880Y-46982037D01*
X112585119Y-46982037D01*
X112581572Y-46979667D01*
X112581573Y-46979667D01*
X112454185Y-46926901D01*
X112318944Y-46900000D01*
X112181056Y-46900000D01*
X112045814Y-46926901D01*
X111918429Y-46979666D01*
X111914880Y-46982037D01*
X110785119Y-46982037D01*
X110781572Y-46979667D01*
X110781573Y-46979667D01*
X110654185Y-46926901D01*
X110518944Y-46900000D01*
X110381056Y-46900000D01*
X110245814Y-46926901D01*
X110118429Y-46979666D01*
X110114880Y-46982037D01*
X109885119Y-46982037D01*
X109881572Y-46979667D01*
X109881573Y-46979667D01*
X109754185Y-46926901D01*
X109618944Y-46900000D01*
X109481056Y-46900000D01*
X109345814Y-46926901D01*
X109218429Y-46979666D01*
X109214880Y-46982037D01*
X108985119Y-46982037D01*
X108981572Y-46979667D01*
X108981573Y-46979667D01*
X108854185Y-46926901D01*
X108718944Y-46900000D01*
X108581056Y-46900000D01*
X108445814Y-46926901D01*
X108318429Y-46979666D01*
X108314880Y-46982037D01*
X101825917Y-46982037D01*
X101832064Y-46900000D01*
X101832064Y-46899996D01*
X101827859Y-46843897D01*
X101813835Y-46656753D01*
X101759556Y-46418941D01*
X101670439Y-46191874D01*
X101548475Y-45980626D01*
X101548470Y-45980620D01*
X101548468Y-45980616D01*
X101405601Y-45801468D01*
X101392358Y-45755503D01*
X101415497Y-45713636D01*
X101454465Y-45700000D01*
X119349984Y-45700000D01*
X119350000Y-45700000D01*
X119399250Y-45697598D01*
X119490253Y-45659904D01*
X119559904Y-45590253D01*
X119597598Y-45499250D01*
X119600000Y-45450000D01*
X119600000Y-45351527D01*
X119600074Y-45348483D01*
X119601873Y-45311593D01*
X119606556Y-45290720D01*
X119635340Y-45221228D01*
X119648884Y-45200958D01*
X119700958Y-45148884D01*
X119721228Y-45135340D01*
X119790722Y-45106555D01*
X119811592Y-45101873D01*
X119838583Y-45100556D01*
X119848484Y-45100074D01*
X119851528Y-45100000D01*
X142854014Y-45100000D01*
X142898208Y-45118306D01*
G37*
%TD.AperFunction*%
%TD*%
M02*
