%TF.GenerationSoftware,KiCad,Pcbnew,8.99.0-unknown-77b1d367df~178~ubuntu23.10.1*%
%TF.CreationDate,2024-11-07T11:46:47-05:00*%
%TF.ProjectId,nRF54L_ePaper,6e524635-344c-45f6-9550-617065722e6b,rev?*%
%TF.SameCoordinates,Original*%
%TF.FileFunction,Paste,Bot*%
%TF.FilePolarity,Positive*%
%FSLAX46Y46*%
G04 Gerber Fmt 4.6, Leading zero omitted, Abs format (unit mm)*
G04 Created by KiCad (PCBNEW 8.99.0-unknown-77b1d367df~178~ubuntu23.10.1) date 2024-11-07 11:46:47*
%MOMM*%
%LPD*%
G01*
G04 APERTURE LIST*
G04 Aperture macros list*
%AMRoundRect*
0 Rectangle with rounded corners*
0 $1 Rounding radius*
0 $2 $3 $4 $5 $6 $7 $8 $9 X,Y pos of 4 corners*
0 Add a 4 corners polygon primitive as box body*
4,1,4,$2,$3,$4,$5,$6,$7,$8,$9,$2,$3,0*
0 Add four circle primitives for the rounded corners*
1,1,$1+$1,$2,$3*
1,1,$1+$1,$4,$5*
1,1,$1+$1,$6,$7*
1,1,$1+$1,$8,$9*
0 Add four rect primitives between the rounded corners*
20,1,$1+$1,$2,$3,$4,$5,0*
20,1,$1+$1,$4,$5,$6,$7,0*
20,1,$1+$1,$6,$7,$8,$9,0*
20,1,$1+$1,$8,$9,$2,$3,0*%
G04 Aperture macros list end*
%ADD10RoundRect,0.135000X-0.135000X-0.185000X0.135000X-0.185000X0.135000X0.185000X-0.135000X0.185000X0*%
%ADD11RoundRect,0.135000X-0.185000X0.135000X-0.185000X-0.135000X0.185000X-0.135000X0.185000X0.135000X0*%
%ADD12RoundRect,0.140000X-0.140000X-0.170000X0.140000X-0.170000X0.140000X0.170000X-0.140000X0.170000X0*%
%ADD13RoundRect,0.225000X0.375000X-0.225000X0.375000X0.225000X-0.375000X0.225000X-0.375000X-0.225000X0*%
%ADD14R,1.300000X0.300000*%
%ADD15R,3.000000X2.000000*%
%ADD16RoundRect,0.225000X0.225000X0.375000X-0.225000X0.375000X-0.225000X-0.375000X0.225000X-0.375000X0*%
%ADD17RoundRect,0.200000X-0.275000X0.200000X-0.275000X-0.200000X0.275000X-0.200000X0.275000X0.200000X0*%
%ADD18RoundRect,0.135000X0.135000X0.185000X-0.135000X0.185000X-0.135000X-0.185000X0.135000X-0.185000X0*%
%ADD19R,5.000000X5.000000*%
%ADD20R,4.000000X4.000000*%
%ADD21RoundRect,0.190000X-0.685000X0.285000X-0.685000X-0.285000X0.685000X-0.285000X0.685000X0.285000X0*%
%ADD22RoundRect,0.150000X-0.150000X0.587500X-0.150000X-0.587500X0.150000X-0.587500X0.150000X0.587500X0*%
%ADD23RoundRect,0.250000X0.475000X-0.250000X0.475000X0.250000X-0.475000X0.250000X-0.475000X-0.250000X0*%
%ADD24R,1.100000X0.600000*%
%ADD25RoundRect,0.150000X0.150000X-0.587500X0.150000X0.587500X-0.150000X0.587500X-0.150000X-0.587500X0*%
%ADD26C,0.400000*%
%ADD27R,0.400000X0.500000*%
%ADD28RoundRect,0.218750X-0.381250X0.218750X-0.381250X-0.218750X0.381250X-0.218750X0.381250X0.218750X0*%
G04 APERTURE END LIST*
D10*
%TO.C,R7*%
X101690000Y-60700000D03*
X102710000Y-60700000D03*
%TD*%
%TO.C,R9*%
X152080000Y-67300000D03*
X153100000Y-67300000D03*
%TD*%
D11*
%TO.C,R8*%
X101200000Y-66790000D03*
X101200000Y-67810000D03*
%TD*%
D12*
%TO.C,C23*%
X143495000Y-55925000D03*
X144455000Y-55925000D03*
%TD*%
D13*
%TO.C,D1*%
X136375000Y-49525000D03*
X136375000Y-46225000D03*
%TD*%
D14*
%TO.C,J2*%
X146450000Y-47250000D03*
X146450000Y-47750000D03*
X146450000Y-48250000D03*
X146450000Y-48750000D03*
X146450000Y-49250000D03*
X146450000Y-49750000D03*
X146450000Y-50250000D03*
X146450000Y-50750000D03*
X146450000Y-51250000D03*
X146450000Y-51750000D03*
X146450000Y-52250000D03*
X146450000Y-52750000D03*
X146450000Y-53250000D03*
X146450000Y-53750000D03*
X146450000Y-54250000D03*
X146450000Y-54750000D03*
X146450000Y-55250000D03*
X146450000Y-55750000D03*
X146450000Y-56250000D03*
X146450000Y-56750000D03*
X146450000Y-57250000D03*
X146450000Y-57750000D03*
X146450000Y-58250000D03*
X146450000Y-58750000D03*
D15*
X148800000Y-45600000D03*
X148800000Y-60400000D03*
%TD*%
D12*
%TO.C,C14*%
X143520000Y-46700000D03*
X144480000Y-46700000D03*
%TD*%
D16*
%TO.C,D3*%
X141600000Y-46700000D03*
X138300000Y-46700000D03*
%TD*%
D12*
%TO.C,C24*%
X143495000Y-56800000D03*
X144455000Y-56800000D03*
%TD*%
%TO.C,C20*%
X143520000Y-51200000D03*
X144480000Y-51200000D03*
%TD*%
D11*
%TO.C,R1*%
X144700000Y-58490000D03*
X144700000Y-59510000D03*
%TD*%
D12*
%TO.C,C15*%
X143520000Y-47600000D03*
X144480000Y-47600000D03*
%TD*%
D17*
%TO.C,R3*%
X143400000Y-57975000D03*
X143400000Y-59625000D03*
%TD*%
D12*
%TO.C,C22*%
X143520000Y-52400000D03*
X144480000Y-52400000D03*
%TD*%
%TO.C,C19*%
X143520000Y-50300000D03*
X144480000Y-50300000D03*
%TD*%
D18*
%TO.C,R10*%
X155000000Y-67300000D03*
X153980000Y-67300000D03*
%TD*%
D19*
%TO.C,BT1*%
X116050000Y-64000000D03*
X141950000Y-64000000D03*
D20*
X129000000Y-64000000D03*
%TD*%
D21*
%TO.C,D4*%
X102200000Y-69200000D03*
X102200000Y-72300000D03*
%TD*%
D22*
%TO.C,Q2*%
X101250000Y-62262500D03*
X103150000Y-62262500D03*
X102200000Y-64137500D03*
%TD*%
D12*
%TO.C,C18*%
X143520000Y-49400000D03*
X144480000Y-49400000D03*
%TD*%
D16*
%TO.C,D2*%
X141605000Y-49000000D03*
X138305000Y-49000000D03*
%TD*%
D12*
%TO.C,C17*%
X143520000Y-48500000D03*
X144480000Y-48500000D03*
%TD*%
D23*
%TO.C,C1*%
X115800000Y-55050000D03*
X115800000Y-53150000D03*
%TD*%
D12*
%TO.C,C21*%
X143520000Y-53300000D03*
X144480000Y-53300000D03*
%TD*%
D24*
%TO.C,Y2*%
X110900000Y-57875000D03*
X110900000Y-56475000D03*
%TD*%
D12*
%TO.C,C13*%
X143520000Y-45800000D03*
X144480000Y-45800000D03*
%TD*%
D23*
%TO.C,C2*%
X136630000Y-52940000D03*
X136630000Y-51040000D03*
%TD*%
D25*
%TO.C,Q1*%
X140337500Y-53087500D03*
X138437500Y-53087500D03*
X139387500Y-51212500D03*
%TD*%
D26*
%TO.C,U1*%
X113150000Y-47600000D03*
X113150000Y-49400000D03*
D27*
X113150000Y-55050000D03*
D26*
X113150000Y-54800000D03*
X112250000Y-47600000D03*
X112250000Y-48500000D03*
X112250000Y-49400000D03*
X112250000Y-50300000D03*
X112250000Y-51200000D03*
X112250000Y-52100000D03*
X112250000Y-53000000D03*
X112250000Y-53900000D03*
D27*
X112250000Y-55050000D03*
D26*
X112250000Y-54800000D03*
X111350000Y-53900000D03*
D27*
X111350000Y-55050000D03*
D26*
X111350000Y-54800000D03*
X110450000Y-47600000D03*
X110450000Y-53900000D03*
D27*
X110450000Y-55050000D03*
D26*
X110450000Y-54800000D03*
X109550000Y-47600000D03*
X109550000Y-53900000D03*
D27*
X109550000Y-55050000D03*
D26*
X109550000Y-54800000D03*
X108650000Y-47600000D03*
X108650000Y-53900000D03*
D27*
X108650000Y-55050000D03*
D26*
X108650000Y-54800000D03*
X107750000Y-48500000D03*
X107750000Y-53900000D03*
D27*
X107750000Y-55050000D03*
D26*
X107750000Y-54800000D03*
X106850000Y-48500000D03*
X106850000Y-53900000D03*
D27*
X106850000Y-55050000D03*
D26*
X106850000Y-54800000D03*
X105950000Y-48500000D03*
X105950000Y-49400000D03*
X105950000Y-50300000D03*
X105950000Y-51200000D03*
X105950000Y-52100000D03*
X105950000Y-53000000D03*
X105950000Y-53900000D03*
D27*
X105950000Y-55050000D03*
D26*
X105950000Y-54800000D03*
X105050000Y-48500000D03*
X105050000Y-49400000D03*
X105050000Y-50300000D03*
X105050000Y-51200000D03*
X105050000Y-52100000D03*
X105050000Y-53000000D03*
X105050000Y-53900000D03*
D27*
X105050000Y-55050000D03*
D26*
X105050000Y-54800000D03*
%TD*%
D28*
%TO.C,L4*%
X142200000Y-50937500D03*
X142200000Y-53062500D03*
%TD*%
M02*
