M48
; DRILL file {KiCad 8.99.0-unknown-77b1d367df~178~ubuntu23.10.1} date 2024-11-07T11:46:47-0500
; FORMAT={-:-/ absolute / inch / decimal}
; #@! TF.CreationDate,2024-11-07T11:46:47-05:00
; #@! TF.GenerationSoftware,Kicad,Pcbnew,8.99.0-unknown-77b1d367df~178~ubuntu23.10.1
; #@! TF.FileFunction,Plated,1,4,PTH
FMAT,2
INCH
; #@! TA.AperFunction,Plated,PTH,ViaDrill
T1C0.0118
; #@! TA.AperFunction,Plated,PTH,ComponentDrill
T2C0.0394
%
G90
G05
T1
X3.9839Y-2.602
X4.0768Y-2.3898
X4.085Y-2.3472
X4.0874Y-1.9098
X4.0949Y-2.4512
X4.1118Y-1.9449
X4.1713Y-1.8874
X4.1772Y-2.7244
X4.1953Y-1.9449
X4.2067Y-1.887
X4.2067Y-2.1008
X4.2094Y-2.3236
X4.2165Y-2.3661
X4.2283Y-2.8504
X4.2421Y-1.9319
X4.252Y-2.6614
X4.2783Y-1.8972
X4.2795Y-2.8504
X4.3071Y-2.7244
X4.3134Y-1.8972
X4.3177Y-2.3362
X4.3453Y-2.3516
X4.3484Y-1.8972
X4.378Y-2.3543
X4.4016Y-2.3346
X4.4197Y-2.1909
X4.4441Y-2.0866
X4.4559Y-2.1913
X4.4724Y-2.1063
X4.4839Y-1.874
X4.5154Y-2.1677
X4.5681Y-2.3945
X4.6059Y-2.8272
X4.6063Y-2.7433
X5.0Y-2.828
X5.002Y-2.7433
X5.1201Y-1.9543
X5.3102Y-1.8189
X5.3929Y-2.8276
X5.3965Y-2.7429
X5.4504Y-2.1315
X5.5252Y-2.1315
X5.5386Y-1.9291
X5.589Y-2.3937
X5.5984Y-2.1197
X5.6142Y-2.2823
X5.6213Y-1.9453
X5.6213Y-2.2075
X5.6217Y-1.8031
X5.6217Y-1.8386
X5.6217Y-1.874
X5.6217Y-1.9094
X5.6248Y-2.2365
X5.6457Y-2.3791
X5.6969Y-2.3732
X5.7159Y-1.8467
X5.7177Y-2.0488
X5.7177Y-1.9176
X5.7232Y-2.3028
X5.7917Y-2.828
X5.7925Y-2.7429
X5.8055Y-1.998
X5.8102Y-2.1752
X5.815Y-2.1
X5.963Y-2.6496
X5.9886Y-2.8012
X6.0252Y-2.7008
X6.0969Y-2.7697
X6.1248Y-2.8012
X6.1268Y-2.6496
T2
X4.0Y-1.9882
X4.0Y-2.0882
X4.0Y-2.1882
X4.0Y-2.2882
X4.6575Y-2.1352
X4.6575Y-2.2352
M30
