%TF.GenerationSoftware,KiCad,Pcbnew,8.99.0-unknown-77b1d367df~178~ubuntu23.10.1*%
%TF.CreationDate,2024-11-07T11:46:47-05:00*%
%TF.ProjectId,nRF54L_ePaper,6e524635-344c-45f6-9550-617065722e6b,rev?*%
%TF.SameCoordinates,Original*%
%TF.FileFunction,Copper,L2,Inr*%
%TF.FilePolarity,Positive*%
%FSLAX46Y46*%
G04 Gerber Fmt 4.6, Leading zero omitted, Abs format (unit mm)*
G04 Created by KiCad (PCBNEW 8.99.0-unknown-77b1d367df~178~ubuntu23.10.1) date 2024-11-07 11:46:47*
%MOMM*%
%LPD*%
G01*
G04 APERTURE LIST*
%TA.AperFunction,ComponentPad*%
%ADD10R,1.700000X1.700000*%
%TD*%
%TA.AperFunction,ComponentPad*%
%ADD11O,1.700000X1.700000*%
%TD*%
%TA.AperFunction,ViaPad*%
%ADD12C,0.600000*%
%TD*%
%TA.AperFunction,Conductor*%
%ADD13C,0.127000*%
%TD*%
%TA.AperFunction,Conductor*%
%ADD14C,0.150000*%
%TD*%
G04 APERTURE END LIST*
D10*
%TO.N,Net-(BT1-+)*%
%TO.C,JP2*%
X118300000Y-56775000D03*
D11*
%TO.N,VDD*%
X118300000Y-54235000D03*
%TD*%
D10*
%TO.N,VDD*%
%TO.C,J1*%
X101600000Y-50500000D03*
D11*
%TO.N,/UART_TX*%
X101600000Y-53040000D03*
%TO.N,/UART_RX*%
X101600000Y-55580000D03*
%TO.N,GND*%
X101600000Y-58120000D03*
%TD*%
D12*
%TO.N,VDD*%
X109400000Y-69200000D03*
X151460000Y-67300000D03*
X113600000Y-53500000D03*
X142200000Y-53840000D03*
X153040000Y-68600000D03*
X101190000Y-66090000D03*
X145230000Y-52040000D03*
X155620000Y-67300000D03*
%TO.N,GND*%
X137070000Y-69670000D03*
X142790000Y-48500000D03*
X109560000Y-48190000D03*
X106850000Y-53360000D03*
X142780000Y-56070000D03*
X142790000Y-46700000D03*
X117000000Y-69680000D03*
X144700000Y-60280000D03*
X104010000Y-62260000D03*
X108670000Y-48190000D03*
X152110000Y-71150000D03*
X142790000Y-45800000D03*
X103550000Y-60700000D03*
X142870000Y-56808000D03*
X113890000Y-47600000D03*
X142790000Y-47600000D03*
X113180000Y-55660000D03*
X112260000Y-55650000D03*
X142780000Y-49410000D03*
X114690000Y-55060000D03*
X147460000Y-50750000D03*
X147130000Y-69670000D03*
X127050000Y-69680000D03*
X147580000Y-55250000D03*
X143400000Y-60430000D03*
X106100000Y-69200000D03*
X110450000Y-48190000D03*
X112880000Y-53000000D03*
%TO.N,/PREVGL*%
X145185000Y-46905000D03*
X134880000Y-46200000D03*
%TO.N,/SCL*%
X109670000Y-59340000D03*
X154860000Y-70350000D03*
X106850000Y-47930000D03*
%TO.N,/SDA*%
X155570000Y-71150000D03*
X105950000Y-47940000D03*
X110370000Y-59730000D03*
%TO.N,/PREVGH*%
X145230466Y-48707047D03*
X140680000Y-49000000D03*
%TO.N,/GDR*%
X140340000Y-54140000D03*
X145370000Y-58490000D03*
%TO.N,/RESE*%
X142600000Y-57970000D03*
X138440000Y-54140000D03*
%TO.N,/EPD_DC*%
X130050000Y-49640000D03*
X147700000Y-53340000D03*
%TO.N,Net-(Q2-G)*%
X103820000Y-48510000D03*
X103760000Y-59620000D03*
%TO.N,Net-(J4-SWDIO)*%
X108700000Y-72400000D03*
X106560000Y-49400000D03*
%TO.N,Net-(J4-~{RESET})*%
X107750000Y-49070000D03*
X108000000Y-67600000D03*
%TO.N,Net-(J4-SWCLK)*%
X104440000Y-49400000D03*
X107400000Y-72400000D03*
%TO.N,/SW1*%
X116990000Y-71810000D03*
%TO.N,/SW2*%
X127000000Y-71830000D03*
%TO.N,/SW3*%
X136980000Y-71820000D03*
%TO.N,/SW4*%
X147110000Y-71830000D03*
%TO.N,/UART_TX*%
X111200000Y-59800000D03*
X106920000Y-59020000D03*
%TO.N,/UART_RX*%
X107100000Y-60100000D03*
X111800000Y-59300000D03*
%TO.N,Net-(BT1-+)*%
X116030000Y-60820000D03*
X141960000Y-60800000D03*
%TD*%
D13*
%TO.N,Net-(J4-SWDIO)*%
X108700000Y-69140000D02*
X105410000Y-65850000D01*
X105410000Y-65850000D02*
X105410000Y-61750000D01*
D14*
X105410000Y-50550000D02*
X106560000Y-49400000D01*
X105410000Y-61750000D02*
X105410000Y-50550000D01*
D13*
X108700000Y-72400000D02*
X108700000Y-69140000D01*
D14*
%TO.N,Net-(J4-~{RESET})*%
X106300000Y-66100000D02*
X106000000Y-65800000D01*
X106300000Y-66100000D02*
X107800000Y-67600000D01*
X106000000Y-50820000D02*
X107750000Y-49070000D01*
X106000000Y-65800000D02*
X106000000Y-50820000D01*
X107800000Y-67600000D02*
X108000000Y-67600000D01*
%TO.N,Net-(J4-SWCLK)*%
X105080000Y-62430000D02*
X105080000Y-62670000D01*
D13*
X105080000Y-66080000D02*
X105080000Y-62670000D01*
X107400000Y-68400000D02*
X105080000Y-66080000D01*
X107400000Y-72400000D02*
X107400000Y-68400000D01*
D14*
X104440000Y-49400000D02*
X104440000Y-61790000D01*
X104440000Y-61790000D02*
X105080000Y-62430000D01*
%TD*%
%TA.AperFunction,Conductor*%
%TO.N,VDD*%
G36*
X157854194Y-45118306D02*
G01*
X157872500Y-45162500D01*
X157872500Y-72996930D01*
X157872199Y-73003056D01*
X157856338Y-73164088D01*
X157853948Y-73176105D01*
X157807871Y-73328002D01*
X157803182Y-73339321D01*
X157728358Y-73479307D01*
X157721551Y-73489494D01*
X157620856Y-73612192D01*
X157612192Y-73620856D01*
X157489494Y-73721551D01*
X157479307Y-73728358D01*
X157339321Y-73803182D01*
X157328002Y-73807871D01*
X157176105Y-73853948D01*
X157164088Y-73856338D01*
X157003056Y-73872199D01*
X156996930Y-73872500D01*
X140758227Y-73872500D01*
X140742051Y-73870370D01*
X140729925Y-73867121D01*
X140701908Y-73850945D01*
X140699054Y-73848091D01*
X140682878Y-73820072D01*
X140679628Y-73807945D01*
X140677500Y-73791773D01*
X140677500Y-73678042D01*
X140677500Y-73678036D01*
X140641145Y-73436832D01*
X140569246Y-73203740D01*
X140463409Y-72983968D01*
X140353386Y-72822594D01*
X140326005Y-72782433D01*
X140326002Y-72782430D01*
X140325999Y-72782425D01*
X140160085Y-72603612D01*
X140160080Y-72603608D01*
X140160077Y-72603605D01*
X139969383Y-72451531D01*
X139969377Y-72451527D01*
X139969374Y-72451525D01*
X139758126Y-72329561D01*
X139531059Y-72240444D01*
X139531055Y-72240443D01*
X139531052Y-72240442D01*
X139293247Y-72186165D01*
X139050003Y-72167936D01*
X139049997Y-72167936D01*
X138806753Y-72186165D01*
X138806751Y-72186165D01*
X138568947Y-72240442D01*
X138568944Y-72240443D01*
X138341871Y-72329562D01*
X138219870Y-72400000D01*
X138152667Y-72438800D01*
X138130616Y-72451531D01*
X137939922Y-72603605D01*
X137939917Y-72603610D01*
X137939915Y-72603611D01*
X137939915Y-72603612D01*
X137791657Y-72763397D01*
X137773994Y-72782433D01*
X137636591Y-72983967D01*
X137530752Y-73203744D01*
X137530751Y-73203748D01*
X137458856Y-73436824D01*
X137422500Y-73678036D01*
X137422500Y-73791773D01*
X137420370Y-73807951D01*
X137417121Y-73820075D01*
X137400945Y-73848091D01*
X137398091Y-73850945D01*
X137370074Y-73867121D01*
X137357947Y-73870370D01*
X137341773Y-73872500D01*
X120658227Y-73872500D01*
X120642051Y-73870370D01*
X120629925Y-73867121D01*
X120601908Y-73850945D01*
X120599054Y-73848091D01*
X120582878Y-73820072D01*
X120579628Y-73807945D01*
X120577500Y-73791773D01*
X120577500Y-73678042D01*
X120577500Y-73678036D01*
X120541145Y-73436832D01*
X120469246Y-73203740D01*
X120363409Y-72983968D01*
X120253386Y-72822594D01*
X120226005Y-72782433D01*
X120226002Y-72782430D01*
X120225999Y-72782425D01*
X120060085Y-72603612D01*
X120060080Y-72603608D01*
X120060077Y-72603605D01*
X119869383Y-72451531D01*
X119869377Y-72451527D01*
X119869374Y-72451525D01*
X119658126Y-72329561D01*
X119431059Y-72240444D01*
X119431055Y-72240443D01*
X119431052Y-72240442D01*
X119193247Y-72186165D01*
X118950003Y-72167936D01*
X118949997Y-72167936D01*
X118706753Y-72186165D01*
X118706751Y-72186165D01*
X118468947Y-72240442D01*
X118468944Y-72240443D01*
X118241871Y-72329562D01*
X118119870Y-72400000D01*
X118052667Y-72438800D01*
X118030616Y-72451531D01*
X117839922Y-72603605D01*
X117839917Y-72603610D01*
X117839915Y-72603611D01*
X117839915Y-72603612D01*
X117691657Y-72763397D01*
X117673994Y-72782433D01*
X117536591Y-72983967D01*
X117430752Y-73203744D01*
X117430751Y-73203748D01*
X117358856Y-73436824D01*
X117322500Y-73678036D01*
X117322500Y-73791773D01*
X117320370Y-73807951D01*
X117317121Y-73820075D01*
X117300945Y-73848091D01*
X117298091Y-73850945D01*
X117270074Y-73867121D01*
X117257947Y-73870370D01*
X117241773Y-73872500D01*
X101003070Y-73872500D01*
X100996944Y-73872199D01*
X100835911Y-73856338D01*
X100823894Y-73853948D01*
X100671997Y-73807871D01*
X100660678Y-73803182D01*
X100520692Y-73728358D01*
X100510505Y-73721551D01*
X100457481Y-73678036D01*
X100387805Y-73620854D01*
X100379143Y-73612192D01*
X100347877Y-73574094D01*
X100278445Y-73489490D01*
X100271644Y-73479311D01*
X100196815Y-73339317D01*
X100192130Y-73328007D01*
X100146050Y-73176101D01*
X100143661Y-73164088D01*
X100140057Y-73127500D01*
X100127801Y-73003056D01*
X100127500Y-72996930D01*
X100127500Y-70648799D01*
X100872500Y-70648799D01*
X100872500Y-70851200D01*
X100911985Y-71049709D01*
X100911985Y-71049710D01*
X100989441Y-71236704D01*
X100989442Y-71236706D01*
X101087531Y-71383506D01*
X101101888Y-71404993D01*
X101245007Y-71548112D01*
X101413296Y-71660559D01*
X101600289Y-71738014D01*
X101798800Y-71777500D01*
X102601200Y-71777500D01*
X102716030Y-71754659D01*
X104237200Y-71754659D01*
X104237200Y-71877340D01*
X104261133Y-71997662D01*
X104308082Y-72111006D01*
X104308083Y-72111008D01*
X104369461Y-72202867D01*
X104376240Y-72213012D01*
X104462988Y-72299760D01*
X104564994Y-72367918D01*
X104678336Y-72414866D01*
X104798660Y-72438800D01*
X104921340Y-72438800D01*
X105041664Y-72414866D01*
X105155006Y-72367918D01*
X105257012Y-72299760D01*
X105343760Y-72213012D01*
X105411918Y-72111006D01*
X105458866Y-71997664D01*
X105482800Y-71877340D01*
X105482800Y-71754660D01*
X105458866Y-71634336D01*
X105411918Y-71520994D01*
X105343760Y-71418988D01*
X105257012Y-71332240D01*
X105257011Y-71332239D01*
X105155008Y-71264083D01*
X105155006Y-71264082D01*
X105041662Y-71217133D01*
X104921340Y-71193200D01*
X104798660Y-71193200D01*
X104678337Y-71217133D01*
X104564993Y-71264082D01*
X104564991Y-71264083D01*
X104462988Y-71332239D01*
X104376239Y-71418988D01*
X104308083Y-71520991D01*
X104308082Y-71520993D01*
X104261133Y-71634337D01*
X104237200Y-71754659D01*
X102716030Y-71754659D01*
X102799711Y-71738014D01*
X102986704Y-71660559D01*
X103154993Y-71548112D01*
X103298112Y-71404993D01*
X103410559Y-71236704D01*
X103488014Y-71049711D01*
X103527500Y-70851200D01*
X103527500Y-70648800D01*
X103488014Y-70450289D01*
X103410559Y-70263296D01*
X103298112Y-70095007D01*
X103154993Y-69951888D01*
X103111011Y-69922500D01*
X102986706Y-69839442D01*
X102986704Y-69839441D01*
X102799709Y-69761985D01*
X102601999Y-69722659D01*
X104237200Y-69722659D01*
X104237200Y-69845340D01*
X104261133Y-69965662D01*
X104285130Y-70023595D01*
X104308082Y-70079006D01*
X104376240Y-70181012D01*
X104462988Y-70267760D01*
X104564994Y-70335918D01*
X104678336Y-70382866D01*
X104798660Y-70406800D01*
X104921340Y-70406800D01*
X105041664Y-70382866D01*
X105155006Y-70335918D01*
X105257012Y-70267760D01*
X105343760Y-70181012D01*
X105411918Y-70079006D01*
X105458866Y-69965664D01*
X105482800Y-69845340D01*
X105482800Y-69722660D01*
X105458866Y-69602336D01*
X105411918Y-69488994D01*
X105343760Y-69386988D01*
X105257012Y-69300240D01*
X105257011Y-69300239D01*
X105155008Y-69232083D01*
X105155006Y-69232082D01*
X105077554Y-69200000D01*
X105668104Y-69200000D01*
X105685598Y-69321677D01*
X105685599Y-69321680D01*
X105736665Y-69433500D01*
X105736669Y-69433506D01*
X105817166Y-69526403D01*
X105817168Y-69526405D01*
X105920584Y-69592866D01*
X105920586Y-69592866D01*
X105920587Y-69592867D01*
X106038534Y-69627500D01*
X106038535Y-69627500D01*
X106161465Y-69627500D01*
X106279416Y-69592866D01*
X106382832Y-69526405D01*
X106452071Y-69446499D01*
X106463330Y-69433506D01*
X106463331Y-69433504D01*
X106463334Y-69433501D01*
X106514401Y-69321679D01*
X106531896Y-69200000D01*
X106514401Y-69078321D01*
X106463334Y-68966499D01*
X106463330Y-68966493D01*
X106382833Y-68873596D01*
X106382832Y-68873595D01*
X106279416Y-68807134D01*
X106279414Y-68807133D01*
X106279412Y-68807132D01*
X106161466Y-68772500D01*
X106161465Y-68772500D01*
X106038535Y-68772500D01*
X106038534Y-68772500D01*
X105920587Y-68807132D01*
X105817166Y-68873596D01*
X105736669Y-68966493D01*
X105736665Y-68966499D01*
X105685599Y-69078319D01*
X105685598Y-69078322D01*
X105668104Y-69200000D01*
X105077554Y-69200000D01*
X105041662Y-69185133D01*
X104921340Y-69161200D01*
X104798660Y-69161200D01*
X104678337Y-69185133D01*
X104564993Y-69232082D01*
X104564991Y-69232083D01*
X104462988Y-69300239D01*
X104376239Y-69386988D01*
X104308083Y-69488991D01*
X104308082Y-69488993D01*
X104261133Y-69602337D01*
X104237200Y-69722659D01*
X102601999Y-69722659D01*
X102601200Y-69722500D01*
X101798800Y-69722500D01*
X101600290Y-69761985D01*
X101600289Y-69761985D01*
X101413295Y-69839441D01*
X101413293Y-69839442D01*
X101245007Y-69951887D01*
X101101887Y-70095007D01*
X100989442Y-70263293D01*
X100989441Y-70263295D01*
X100911985Y-70450289D01*
X100911985Y-70450290D01*
X100872500Y-70648799D01*
X100127500Y-70648799D01*
X100127500Y-60700000D01*
X103118104Y-60700000D01*
X103135598Y-60821677D01*
X103135599Y-60821680D01*
X103186665Y-60933500D01*
X103186669Y-60933506D01*
X103267166Y-61026403D01*
X103267168Y-61026405D01*
X103370584Y-61092866D01*
X103370586Y-61092866D01*
X103370587Y-61092867D01*
X103488534Y-61127500D01*
X103488535Y-61127500D01*
X103611465Y-61127500D01*
X103729416Y-61092866D01*
X103832832Y-61026405D01*
X103906248Y-60941679D01*
X103913330Y-60933506D01*
X103913331Y-60933504D01*
X103913334Y-60933501D01*
X103964401Y-60821679D01*
X103981896Y-60700000D01*
X103964401Y-60578321D01*
X103913334Y-60466499D01*
X103913330Y-60466493D01*
X103832833Y-60373596D01*
X103832832Y-60373595D01*
X103729416Y-60307134D01*
X103729414Y-60307133D01*
X103729412Y-60307132D01*
X103611466Y-60272500D01*
X103611465Y-60272500D01*
X103488535Y-60272500D01*
X103488534Y-60272500D01*
X103370587Y-60307132D01*
X103267166Y-60373596D01*
X103186669Y-60466493D01*
X103186665Y-60466499D01*
X103135599Y-60578319D01*
X103135598Y-60578322D01*
X103118104Y-60700000D01*
X100127500Y-60700000D01*
X100127500Y-59620000D01*
X103328104Y-59620000D01*
X103345598Y-59741677D01*
X103345599Y-59741680D01*
X103396665Y-59853500D01*
X103396669Y-59853506D01*
X103477166Y-59946403D01*
X103477168Y-59946405D01*
X103580584Y-60012866D01*
X103580586Y-60012866D01*
X103580587Y-60012867D01*
X103698534Y-60047500D01*
X103698535Y-60047500D01*
X103821465Y-60047500D01*
X103939416Y-60012866D01*
X104042832Y-59946405D01*
X104079427Y-59904171D01*
X104126262Y-59850123D01*
X104127629Y-59851307D01*
X104161706Y-59827641D01*
X104208783Y-59836128D01*
X104236070Y-59875417D01*
X104237500Y-59888711D01*
X104237500Y-61797762D01*
X104219194Y-61841956D01*
X104175000Y-61860262D01*
X104157392Y-61857730D01*
X104071467Y-61832500D01*
X104071465Y-61832500D01*
X103948535Y-61832500D01*
X103948534Y-61832500D01*
X103830587Y-61867132D01*
X103727166Y-61933596D01*
X103646669Y-62026493D01*
X103646665Y-62026499D01*
X103595599Y-62138319D01*
X103595598Y-62138322D01*
X103578104Y-62260000D01*
X103595598Y-62381677D01*
X103595599Y-62381680D01*
X103646665Y-62493500D01*
X103646669Y-62493506D01*
X103727166Y-62586403D01*
X103727168Y-62586405D01*
X103830584Y-62652866D01*
X103830586Y-62652866D01*
X103830587Y-62652867D01*
X103948534Y-62687500D01*
X103948535Y-62687500D01*
X104071465Y-62687500D01*
X104189416Y-62652866D01*
X104292832Y-62586405D01*
X104355677Y-62513878D01*
X104373330Y-62493506D01*
X104373331Y-62493504D01*
X104373334Y-62493501D01*
X104424401Y-62381679D01*
X104441896Y-62260000D01*
X104438104Y-62233628D01*
X104449934Y-62187279D01*
X104491073Y-62162870D01*
X104537423Y-62174700D01*
X104544162Y-62180540D01*
X104859194Y-62495572D01*
X104877500Y-62539766D01*
X104877500Y-62710279D01*
X104877499Y-62710279D01*
X104880935Y-62718574D01*
X104884242Y-62726557D01*
X104889000Y-62750474D01*
X104889000Y-66117991D01*
X104918077Y-66188191D01*
X104918079Y-66188194D01*
X107190694Y-68460808D01*
X107209000Y-68505002D01*
X107209000Y-71980450D01*
X107190694Y-72024644D01*
X107180290Y-72033028D01*
X107117169Y-72073592D01*
X107036669Y-72166493D01*
X107036665Y-72166499D01*
X106985599Y-72278319D01*
X106985598Y-72278322D01*
X106968104Y-72400000D01*
X106985598Y-72521677D01*
X106985599Y-72521680D01*
X107036665Y-72633500D01*
X107036669Y-72633506D01*
X107117166Y-72726403D01*
X107117168Y-72726405D01*
X107220584Y-72792866D01*
X107220586Y-72792866D01*
X107220587Y-72792867D01*
X107338534Y-72827500D01*
X107338535Y-72827500D01*
X107461465Y-72827500D01*
X107579416Y-72792866D01*
X107682832Y-72726405D01*
X107763334Y-72633501D01*
X107814401Y-72521679D01*
X107831896Y-72400000D01*
X107814401Y-72278321D01*
X107763334Y-72166499D01*
X107763330Y-72166493D01*
X107682830Y-72073592D01*
X107619710Y-72033028D01*
X107592428Y-71993735D01*
X107591000Y-71980450D01*
X107591000Y-68452003D01*
X107609306Y-68407809D01*
X107653500Y-68389503D01*
X107697694Y-68407809D01*
X108490694Y-69200809D01*
X108509000Y-69245003D01*
X108509000Y-71980450D01*
X108490694Y-72024644D01*
X108480290Y-72033028D01*
X108417169Y-72073592D01*
X108336669Y-72166493D01*
X108336665Y-72166499D01*
X108285599Y-72278319D01*
X108285598Y-72278322D01*
X108268104Y-72400000D01*
X108285598Y-72521677D01*
X108285599Y-72521680D01*
X108336665Y-72633500D01*
X108336669Y-72633506D01*
X108417166Y-72726403D01*
X108417168Y-72726405D01*
X108520584Y-72792866D01*
X108520586Y-72792866D01*
X108520587Y-72792867D01*
X108638534Y-72827500D01*
X108638535Y-72827500D01*
X108761465Y-72827500D01*
X108879416Y-72792866D01*
X108982832Y-72726405D01*
X109063334Y-72633501D01*
X109114401Y-72521679D01*
X109131896Y-72400000D01*
X109114401Y-72278321D01*
X109063334Y-72166499D01*
X109063330Y-72166493D01*
X108982830Y-72073592D01*
X108919710Y-72033028D01*
X108892428Y-71993735D01*
X108891000Y-71980450D01*
X108891000Y-71810000D01*
X116558104Y-71810000D01*
X116575598Y-71931677D01*
X116575599Y-71931680D01*
X116626665Y-72043500D01*
X116626669Y-72043506D01*
X116707166Y-72136403D01*
X116707168Y-72136405D01*
X116810584Y-72202866D01*
X116810586Y-72202866D01*
X116810587Y-72202867D01*
X116928534Y-72237500D01*
X116928535Y-72237500D01*
X117051465Y-72237500D01*
X117169416Y-72202866D01*
X117272832Y-72136405D01*
X117353334Y-72043501D01*
X117404401Y-71931679D01*
X117419020Y-71830000D01*
X126568104Y-71830000D01*
X126585598Y-71951677D01*
X126585599Y-71951680D01*
X126636665Y-72063500D01*
X126636669Y-72063506D01*
X126708501Y-72146403D01*
X126717168Y-72156405D01*
X126820584Y-72222866D01*
X126820586Y-72222866D01*
X126820587Y-72222867D01*
X126938534Y-72257500D01*
X126938535Y-72257500D01*
X127061465Y-72257500D01*
X127179416Y-72222866D01*
X127282832Y-72156405D01*
X127338208Y-72092497D01*
X127363330Y-72063506D01*
X127363331Y-72063504D01*
X127363334Y-72063501D01*
X127414401Y-71951679D01*
X127431896Y-71830000D01*
X127430458Y-71820000D01*
X136548104Y-71820000D01*
X136565598Y-71941677D01*
X136565599Y-71941680D01*
X136616665Y-72053500D01*
X136616669Y-72053506D01*
X136688501Y-72136403D01*
X136697168Y-72146405D01*
X136800584Y-72212866D01*
X136800586Y-72212866D01*
X136800587Y-72212867D01*
X136918534Y-72247500D01*
X136918535Y-72247500D01*
X137041465Y-72247500D01*
X137159416Y-72212866D01*
X137262832Y-72146405D01*
X137318208Y-72082497D01*
X137343330Y-72053506D01*
X137343331Y-72053504D01*
X137343334Y-72053501D01*
X137394401Y-71941679D01*
X137410458Y-71830000D01*
X146678104Y-71830000D01*
X146695598Y-71951677D01*
X146695599Y-71951680D01*
X146746665Y-72063500D01*
X146746669Y-72063506D01*
X146818501Y-72146403D01*
X146827168Y-72156405D01*
X146930584Y-72222866D01*
X146930586Y-72222866D01*
X146930587Y-72222867D01*
X147048534Y-72257500D01*
X147048535Y-72257500D01*
X147171465Y-72257500D01*
X147289416Y-72222866D01*
X147392832Y-72156405D01*
X147448208Y-72092497D01*
X147473330Y-72063506D01*
X147473331Y-72063504D01*
X147473334Y-72063501D01*
X147524401Y-71951679D01*
X147541896Y-71830000D01*
X147524401Y-71708321D01*
X147473334Y-71596499D01*
X147473330Y-71596493D01*
X147392833Y-71503596D01*
X147392832Y-71503595D01*
X147289416Y-71437134D01*
X147289414Y-71437133D01*
X147289412Y-71437132D01*
X147171466Y-71402500D01*
X147171465Y-71402500D01*
X147048535Y-71402500D01*
X147048534Y-71402500D01*
X146930587Y-71437132D01*
X146827166Y-71503596D01*
X146746669Y-71596493D01*
X146746665Y-71596499D01*
X146695599Y-71708319D01*
X146695598Y-71708322D01*
X146678104Y-71830000D01*
X137410458Y-71830000D01*
X137411896Y-71820000D01*
X137394401Y-71698321D01*
X137343334Y-71586499D01*
X137343330Y-71586493D01*
X137262833Y-71493596D01*
X137262832Y-71493595D01*
X137159416Y-71427134D01*
X137159414Y-71427133D01*
X137159412Y-71427132D01*
X137041466Y-71392500D01*
X137041465Y-71392500D01*
X136918535Y-71392500D01*
X136918534Y-71392500D01*
X136800587Y-71427132D01*
X136697166Y-71493596D01*
X136616669Y-71586493D01*
X136616665Y-71586499D01*
X136565599Y-71698319D01*
X136565598Y-71698322D01*
X136548104Y-71820000D01*
X127430458Y-71820000D01*
X127414401Y-71708321D01*
X127363334Y-71596499D01*
X127363330Y-71596493D01*
X127282833Y-71503596D01*
X127282832Y-71503595D01*
X127179416Y-71437134D01*
X127179414Y-71437133D01*
X127179412Y-71437132D01*
X127061466Y-71402500D01*
X127061465Y-71402500D01*
X126938535Y-71402500D01*
X126938534Y-71402500D01*
X126820587Y-71437132D01*
X126717166Y-71503596D01*
X126636669Y-71596493D01*
X126636665Y-71596499D01*
X126585599Y-71708319D01*
X126585598Y-71708322D01*
X126568104Y-71830000D01*
X117419020Y-71830000D01*
X117421896Y-71810000D01*
X117404401Y-71688321D01*
X117353334Y-71576499D01*
X117353330Y-71576493D01*
X117272833Y-71483596D01*
X117272832Y-71483595D01*
X117169416Y-71417134D01*
X117169414Y-71417133D01*
X117169412Y-71417132D01*
X117051466Y-71382500D01*
X117051465Y-71382500D01*
X116928535Y-71382500D01*
X116928534Y-71382500D01*
X116810587Y-71417132D01*
X116707166Y-71483596D01*
X116626669Y-71576493D01*
X116626665Y-71576499D01*
X116575599Y-71688319D01*
X116575598Y-71688322D01*
X116558104Y-71810000D01*
X108891000Y-71810000D01*
X108891000Y-70738659D01*
X109317200Y-70738659D01*
X109317200Y-70861340D01*
X109341133Y-70981662D01*
X109388082Y-71095006D01*
X109388083Y-71095008D01*
X109453693Y-71193200D01*
X109456240Y-71197012D01*
X109542988Y-71283760D01*
X109644994Y-71351918D01*
X109758336Y-71398866D01*
X109878660Y-71422800D01*
X110001340Y-71422800D01*
X110121664Y-71398866D01*
X110235006Y-71351918D01*
X110337012Y-71283760D01*
X110423760Y-71197012D01*
X110491918Y-71095006D01*
X110538866Y-70981664D01*
X110562800Y-70861340D01*
X110562800Y-70738660D01*
X110538866Y-70618336D01*
X110491918Y-70504994D01*
X110423760Y-70402988D01*
X110337012Y-70316240D01*
X110337011Y-70316239D01*
X110235008Y-70248083D01*
X110235006Y-70248082D01*
X110121662Y-70201133D01*
X110001340Y-70177200D01*
X109878660Y-70177200D01*
X109758337Y-70201133D01*
X109644993Y-70248082D01*
X109644991Y-70248083D01*
X109542988Y-70316239D01*
X109456239Y-70402988D01*
X109388083Y-70504991D01*
X109388082Y-70504993D01*
X109341133Y-70618337D01*
X109317200Y-70738659D01*
X108891000Y-70738659D01*
X108891000Y-69680000D01*
X116568104Y-69680000D01*
X116585598Y-69801677D01*
X116585599Y-69801680D01*
X116636665Y-69913500D01*
X116636669Y-69913506D01*
X116708501Y-69996403D01*
X116717168Y-70006405D01*
X116820584Y-70072866D01*
X116820586Y-70072866D01*
X116820587Y-70072867D01*
X116938534Y-70107500D01*
X116938535Y-70107500D01*
X117061465Y-70107500D01*
X117179416Y-70072866D01*
X117282832Y-70006405D01*
X117338208Y-69942497D01*
X117363330Y-69913506D01*
X117363331Y-69913504D01*
X117363334Y-69913501D01*
X117414401Y-69801679D01*
X117431896Y-69680000D01*
X126618104Y-69680000D01*
X126635598Y-69801677D01*
X126635599Y-69801680D01*
X126686665Y-69913500D01*
X126686669Y-69913506D01*
X126758501Y-69996403D01*
X126767168Y-70006405D01*
X126870584Y-70072866D01*
X126870586Y-70072866D01*
X126870587Y-70072867D01*
X126988534Y-70107500D01*
X126988535Y-70107500D01*
X127111465Y-70107500D01*
X127229416Y-70072866D01*
X127332832Y-70006405D01*
X127388208Y-69942497D01*
X127413330Y-69913506D01*
X127413331Y-69913504D01*
X127413334Y-69913501D01*
X127464401Y-69801679D01*
X127481896Y-69680000D01*
X127480458Y-69670000D01*
X136638104Y-69670000D01*
X136655598Y-69791677D01*
X136655599Y-69791680D01*
X136706665Y-69903500D01*
X136706669Y-69903506D01*
X136787166Y-69996403D01*
X136787168Y-69996405D01*
X136890584Y-70062866D01*
X136890586Y-70062866D01*
X136890587Y-70062867D01*
X137008534Y-70097500D01*
X137008535Y-70097500D01*
X137131465Y-70097500D01*
X137249416Y-70062866D01*
X137352832Y-69996405D01*
X137433334Y-69903501D01*
X137484401Y-69791679D01*
X137501896Y-69670000D01*
X146698104Y-69670000D01*
X146715598Y-69791677D01*
X146715599Y-69791680D01*
X146766665Y-69903500D01*
X146766669Y-69903506D01*
X146847166Y-69996403D01*
X146847168Y-69996405D01*
X146950584Y-70062866D01*
X146950586Y-70062866D01*
X146950587Y-70062867D01*
X147068534Y-70097500D01*
X147068535Y-70097500D01*
X147191465Y-70097500D01*
X147309416Y-70062866D01*
X147412832Y-69996405D01*
X147493334Y-69903501D01*
X147544401Y-69791679D01*
X147561896Y-69670000D01*
X147544401Y-69548321D01*
X147493334Y-69436499D01*
X147493330Y-69436493D01*
X147412833Y-69343596D01*
X147412832Y-69343595D01*
X147309416Y-69277134D01*
X147309414Y-69277133D01*
X147309412Y-69277132D01*
X147191466Y-69242500D01*
X147191465Y-69242500D01*
X147068535Y-69242500D01*
X147068534Y-69242500D01*
X146950587Y-69277132D01*
X146847166Y-69343596D01*
X146766669Y-69436493D01*
X146766665Y-69436499D01*
X146715599Y-69548319D01*
X146715598Y-69548322D01*
X146698104Y-69670000D01*
X137501896Y-69670000D01*
X137484401Y-69548321D01*
X137433334Y-69436499D01*
X137433330Y-69436493D01*
X137352833Y-69343596D01*
X137352832Y-69343595D01*
X137249416Y-69277134D01*
X137249414Y-69277133D01*
X137249412Y-69277132D01*
X137131466Y-69242500D01*
X137131465Y-69242500D01*
X137008535Y-69242500D01*
X137008534Y-69242500D01*
X136890587Y-69277132D01*
X136787166Y-69343596D01*
X136706669Y-69436493D01*
X136706665Y-69436499D01*
X136655599Y-69548319D01*
X136655598Y-69548322D01*
X136638104Y-69670000D01*
X127480458Y-69670000D01*
X127464401Y-69558321D01*
X127413334Y-69446499D01*
X127413330Y-69446493D01*
X127332833Y-69353596D01*
X127332832Y-69353595D01*
X127229416Y-69287134D01*
X127229414Y-69287133D01*
X127229412Y-69287132D01*
X127111466Y-69252500D01*
X127111465Y-69252500D01*
X126988535Y-69252500D01*
X126988534Y-69252500D01*
X126870587Y-69287132D01*
X126767166Y-69353596D01*
X126686669Y-69446493D01*
X126686665Y-69446499D01*
X126635599Y-69558319D01*
X126635598Y-69558322D01*
X126618104Y-69680000D01*
X117431896Y-69680000D01*
X117414401Y-69558321D01*
X117363334Y-69446499D01*
X117363330Y-69446493D01*
X117282833Y-69353596D01*
X117282832Y-69353595D01*
X117179416Y-69287134D01*
X117179414Y-69287133D01*
X117179412Y-69287132D01*
X117061466Y-69252500D01*
X117061465Y-69252500D01*
X116938535Y-69252500D01*
X116938534Y-69252500D01*
X116820587Y-69287132D01*
X116717166Y-69353596D01*
X116636669Y-69446493D01*
X116636665Y-69446499D01*
X116585599Y-69558319D01*
X116585598Y-69558322D01*
X116568104Y-69680000D01*
X108891000Y-69680000D01*
X108891000Y-69102010D01*
X108891000Y-69102008D01*
X108861922Y-69031807D01*
X108808193Y-68978078D01*
X108509411Y-68679296D01*
X149892500Y-68679296D01*
X149892500Y-72570703D01*
X149923964Y-72708559D01*
X149985316Y-72835960D01*
X149985318Y-72835963D01*
X150073483Y-72946517D01*
X150184037Y-73034682D01*
X150311438Y-73096035D01*
X150449298Y-73127500D01*
X150449299Y-73127500D01*
X156590701Y-73127500D01*
X156590702Y-73127500D01*
X156728562Y-73096035D01*
X156855963Y-73034682D01*
X156966517Y-72946517D01*
X157054682Y-72835963D01*
X157116035Y-72708562D01*
X157147500Y-72570702D01*
X157147500Y-72500000D01*
X157147500Y-72470899D01*
X157147500Y-68724639D01*
X157147500Y-68679298D01*
X157116035Y-68541438D01*
X157054682Y-68414037D01*
X156966517Y-68303483D01*
X156855963Y-68215318D01*
X156855960Y-68215316D01*
X156785217Y-68181248D01*
X156728562Y-68153965D01*
X156728560Y-68153964D01*
X156728559Y-68153964D01*
X156590703Y-68122500D01*
X156590702Y-68122500D01*
X156545361Y-68122500D01*
X155299101Y-68122500D01*
X155270000Y-68122500D01*
X155199298Y-68122500D01*
X155199296Y-68122500D01*
X155061440Y-68153964D01*
X154934039Y-68215316D01*
X154934036Y-68215318D01*
X154823483Y-68303483D01*
X154735318Y-68414036D01*
X154735316Y-68414039D01*
X154673964Y-68541440D01*
X154642500Y-68679296D01*
X154642500Y-68820703D01*
X154668872Y-68936250D01*
X154673965Y-68958562D01*
X154700372Y-69013397D01*
X154735316Y-69085960D01*
X154735318Y-69085963D01*
X154823483Y-69196517D01*
X154934037Y-69284682D01*
X155061438Y-69346035D01*
X155199298Y-69377500D01*
X155244639Y-69377500D01*
X155490899Y-69377500D01*
X155515906Y-69377500D01*
X155524063Y-69378035D01*
X155531569Y-69379023D01*
X155608256Y-69389119D01*
X155624006Y-69393339D01*
X155690931Y-69421060D01*
X155698645Y-69424256D01*
X155712774Y-69432413D01*
X155776868Y-69481593D01*
X155788406Y-69493131D01*
X155837586Y-69557225D01*
X155845743Y-69571354D01*
X155876658Y-69645987D01*
X155880880Y-69661746D01*
X155888900Y-69722659D01*
X155891965Y-69745936D01*
X155892500Y-69754094D01*
X155892500Y-70734628D01*
X155874194Y-70778822D01*
X155830000Y-70797128D01*
X155796211Y-70787207D01*
X155749416Y-70757134D01*
X155749414Y-70757133D01*
X155749412Y-70757132D01*
X155631466Y-70722500D01*
X155631465Y-70722500D01*
X155508535Y-70722500D01*
X155508534Y-70722500D01*
X155390587Y-70757132D01*
X155287166Y-70823596D01*
X155206669Y-70916493D01*
X155206665Y-70916499D01*
X155155599Y-71028319D01*
X155155598Y-71028322D01*
X155138104Y-71150000D01*
X155155598Y-71271677D01*
X155155599Y-71271680D01*
X155206665Y-71383500D01*
X155206669Y-71383506D01*
X155253139Y-71437134D01*
X155287168Y-71476405D01*
X155390584Y-71542866D01*
X155390586Y-71542866D01*
X155390587Y-71542867D01*
X155508534Y-71577500D01*
X155508535Y-71577500D01*
X155631465Y-71577500D01*
X155749416Y-71542866D01*
X155786220Y-71519213D01*
X155833293Y-71510720D01*
X155872586Y-71538001D01*
X155881974Y-71579943D01*
X155880882Y-71588245D01*
X155876658Y-71604012D01*
X155845743Y-71678645D01*
X155837586Y-71692774D01*
X155788406Y-71756868D01*
X155776868Y-71768406D01*
X155712774Y-71817586D01*
X155698645Y-71825743D01*
X155624012Y-71856658D01*
X155608252Y-71860881D01*
X155524064Y-71871965D01*
X155515906Y-71872500D01*
X151524094Y-71872500D01*
X151515936Y-71871965D01*
X151431746Y-71860880D01*
X151415988Y-71856658D01*
X151366026Y-71835963D01*
X151341354Y-71825743D01*
X151327225Y-71817586D01*
X151263131Y-71768406D01*
X151251593Y-71756868D01*
X151202413Y-71692774D01*
X151194256Y-71678645D01*
X151186764Y-71660558D01*
X151163339Y-71604006D01*
X151159119Y-71588256D01*
X151148035Y-71504062D01*
X151147500Y-71495905D01*
X151147500Y-71150000D01*
X151678104Y-71150000D01*
X151695598Y-71271677D01*
X151695599Y-71271680D01*
X151746665Y-71383500D01*
X151746669Y-71383506D01*
X151793139Y-71437134D01*
X151827168Y-71476405D01*
X151930584Y-71542866D01*
X151930586Y-71542866D01*
X151930587Y-71542867D01*
X152048534Y-71577500D01*
X152048535Y-71577500D01*
X152171465Y-71577500D01*
X152289416Y-71542866D01*
X152392832Y-71476405D01*
X152460020Y-71398866D01*
X152473330Y-71383506D01*
X152473331Y-71383504D01*
X152473334Y-71383501D01*
X152524401Y-71271679D01*
X152541896Y-71150000D01*
X152524401Y-71028321D01*
X152473334Y-70916499D01*
X152473330Y-70916493D01*
X152392833Y-70823596D01*
X152392832Y-70823595D01*
X152289416Y-70757134D01*
X152289414Y-70757133D01*
X152289412Y-70757132D01*
X152171466Y-70722500D01*
X152171465Y-70722500D01*
X152048535Y-70722500D01*
X152048534Y-70722500D01*
X151930587Y-70757132D01*
X151827166Y-70823596D01*
X151746669Y-70916493D01*
X151746665Y-70916499D01*
X151695599Y-71028319D01*
X151695598Y-71028322D01*
X151678104Y-71150000D01*
X151147500Y-71150000D01*
X151147500Y-70350000D01*
X154428104Y-70350000D01*
X154445598Y-70471677D01*
X154445599Y-70471680D01*
X154496665Y-70583500D01*
X154496669Y-70583506D01*
X154577166Y-70676403D01*
X154577168Y-70676405D01*
X154680584Y-70742866D01*
X154680586Y-70742866D01*
X154680587Y-70742867D01*
X154798534Y-70777500D01*
X154798535Y-70777500D01*
X154921465Y-70777500D01*
X155039416Y-70742866D01*
X155142832Y-70676405D01*
X155223334Y-70583501D01*
X155274401Y-70471679D01*
X155291896Y-70350000D01*
X155274401Y-70228321D01*
X155223334Y-70116499D01*
X155223330Y-70116493D01*
X155142833Y-70023596D01*
X155142832Y-70023595D01*
X155039416Y-69957134D01*
X155039414Y-69957133D01*
X155039412Y-69957132D01*
X154921466Y-69922500D01*
X154921465Y-69922500D01*
X154798535Y-69922500D01*
X154798534Y-69922500D01*
X154680587Y-69957132D01*
X154577166Y-70023596D01*
X154496669Y-70116493D01*
X154496665Y-70116499D01*
X154445599Y-70228319D01*
X154445598Y-70228322D01*
X154428104Y-70350000D01*
X151147500Y-70350000D01*
X151147500Y-69754094D01*
X151148035Y-69745937D01*
X151151099Y-69722660D01*
X151159119Y-69661741D01*
X151163338Y-69645995D01*
X151194257Y-69571352D01*
X151202413Y-69557225D01*
X151226063Y-69526403D01*
X151251596Y-69493127D01*
X151263127Y-69481596D01*
X151321908Y-69436493D01*
X151327225Y-69432413D01*
X151341352Y-69424257D01*
X151415995Y-69393338D01*
X151431741Y-69389119D01*
X151509393Y-69378896D01*
X151515937Y-69378035D01*
X151524094Y-69377500D01*
X151840701Y-69377500D01*
X151840702Y-69377500D01*
X151978562Y-69346035D01*
X152105963Y-69284682D01*
X152216517Y-69196517D01*
X152304682Y-69085963D01*
X152366035Y-68958562D01*
X152397500Y-68820702D01*
X152397500Y-68750000D01*
X152397500Y-68720899D01*
X152397500Y-68679298D01*
X152366035Y-68541438D01*
X152304682Y-68414037D01*
X152216517Y-68303483D01*
X152105963Y-68215318D01*
X152105960Y-68215316D01*
X152035217Y-68181248D01*
X151978562Y-68153965D01*
X151978560Y-68153964D01*
X151978559Y-68153964D01*
X151840703Y-68122500D01*
X151840702Y-68122500D01*
X151795361Y-68122500D01*
X150549101Y-68122500D01*
X150520000Y-68122500D01*
X150449298Y-68122500D01*
X150449296Y-68122500D01*
X150311440Y-68153964D01*
X150184039Y-68215316D01*
X150184036Y-68215318D01*
X150073483Y-68303483D01*
X149985318Y-68414036D01*
X149985316Y-68414039D01*
X149923964Y-68541440D01*
X149892500Y-68679296D01*
X108509411Y-68679296D01*
X107964309Y-68134194D01*
X107946003Y-68090000D01*
X107964309Y-68045806D01*
X108008503Y-68027500D01*
X108061465Y-68027500D01*
X108179416Y-67992866D01*
X108282832Y-67926405D01*
X108363334Y-67833501D01*
X108414401Y-67721679D01*
X108431896Y-67600000D01*
X108414401Y-67478321D01*
X108363334Y-67366499D01*
X108363330Y-67366493D01*
X108282833Y-67273596D01*
X108282832Y-67273595D01*
X108179416Y-67207134D01*
X108179414Y-67207133D01*
X108179412Y-67207132D01*
X108061466Y-67172500D01*
X108061465Y-67172500D01*
X107938535Y-67172500D01*
X107938534Y-67172500D01*
X107820585Y-67207133D01*
X107785595Y-67229619D01*
X107738519Y-67238111D01*
X107707612Y-67221234D01*
X106220806Y-65734428D01*
X106202500Y-65690234D01*
X106202500Y-60820000D01*
X115598104Y-60820000D01*
X115615598Y-60941677D01*
X115615599Y-60941680D01*
X115666665Y-61053500D01*
X115666669Y-61053506D01*
X115747166Y-61146403D01*
X115747168Y-61146405D01*
X115850584Y-61212866D01*
X115850586Y-61212866D01*
X115850587Y-61212867D01*
X115968534Y-61247500D01*
X115968535Y-61247500D01*
X116091465Y-61247500D01*
X116209416Y-61212866D01*
X116312832Y-61146405D01*
X116393334Y-61053501D01*
X116444401Y-60941679D01*
X116461896Y-60820000D01*
X116459020Y-60800000D01*
X141528104Y-60800000D01*
X141545598Y-60921677D01*
X141545599Y-60921680D01*
X141596665Y-61033500D01*
X141596669Y-61033506D01*
X141677166Y-61126403D01*
X141677168Y-61126405D01*
X141780584Y-61192866D01*
X141780586Y-61192866D01*
X141780587Y-61192867D01*
X141898534Y-61227500D01*
X141898535Y-61227500D01*
X142021465Y-61227500D01*
X142139416Y-61192866D01*
X142242832Y-61126405D01*
X142323334Y-61033501D01*
X142374401Y-60921679D01*
X142391896Y-60800000D01*
X142374401Y-60678321D01*
X142323334Y-60566499D01*
X142323330Y-60566493D01*
X142242833Y-60473596D01*
X142242832Y-60473595D01*
X142174996Y-60430000D01*
X142968104Y-60430000D01*
X142985598Y-60551677D01*
X142985599Y-60551680D01*
X143036665Y-60663500D01*
X143036669Y-60663506D01*
X143074791Y-60707500D01*
X143117168Y-60756405D01*
X143220584Y-60822866D01*
X143220586Y-60822866D01*
X143220587Y-60822867D01*
X143338534Y-60857500D01*
X143338535Y-60857500D01*
X143461465Y-60857500D01*
X143579416Y-60822866D01*
X143682832Y-60756405D01*
X143738208Y-60692497D01*
X143763330Y-60663506D01*
X143763331Y-60663504D01*
X143763334Y-60663501D01*
X143814401Y-60551679D01*
X143831896Y-60430000D01*
X143814401Y-60308321D01*
X143801467Y-60280000D01*
X144268104Y-60280000D01*
X144285598Y-60401677D01*
X144285599Y-60401680D01*
X144336665Y-60513500D01*
X144336669Y-60513506D01*
X144399914Y-60586493D01*
X144417168Y-60606405D01*
X144520584Y-60672866D01*
X144520586Y-60672866D01*
X144520587Y-60672867D01*
X144638534Y-60707500D01*
X144638535Y-60707500D01*
X144761465Y-60707500D01*
X144879416Y-60672866D01*
X144982832Y-60606405D01*
X145063334Y-60513501D01*
X145114401Y-60401679D01*
X145131896Y-60280000D01*
X145114401Y-60158321D01*
X145063334Y-60046499D01*
X145063330Y-60046493D01*
X144982833Y-59953596D01*
X144982832Y-59953595D01*
X144879416Y-59887134D01*
X144879414Y-59887133D01*
X144879412Y-59887132D01*
X144761466Y-59852500D01*
X144761465Y-59852500D01*
X144638535Y-59852500D01*
X144638534Y-59852500D01*
X144520587Y-59887132D01*
X144417166Y-59953596D01*
X144336669Y-60046493D01*
X144336665Y-60046499D01*
X144285599Y-60158319D01*
X144285598Y-60158322D01*
X144268104Y-60280000D01*
X143801467Y-60280000D01*
X143763334Y-60196499D01*
X143763330Y-60196493D01*
X143682833Y-60103596D01*
X143682832Y-60103595D01*
X143579416Y-60037134D01*
X143579414Y-60037133D01*
X143579412Y-60037132D01*
X143461466Y-60002500D01*
X143461465Y-60002500D01*
X143338535Y-60002500D01*
X143338534Y-60002500D01*
X143220587Y-60037132D01*
X143117166Y-60103596D01*
X143036669Y-60196493D01*
X143036665Y-60196499D01*
X142985599Y-60308319D01*
X142985598Y-60308322D01*
X142968104Y-60430000D01*
X142174996Y-60430000D01*
X142139416Y-60407134D01*
X142139414Y-60407133D01*
X142139412Y-60407132D01*
X142021466Y-60372500D01*
X142021465Y-60372500D01*
X141898535Y-60372500D01*
X141898534Y-60372500D01*
X141780587Y-60407132D01*
X141677166Y-60473596D01*
X141596669Y-60566493D01*
X141596665Y-60566499D01*
X141545599Y-60678319D01*
X141545598Y-60678322D01*
X141528104Y-60800000D01*
X116459020Y-60800000D01*
X116444401Y-60698321D01*
X116393334Y-60586499D01*
X116393330Y-60586493D01*
X116312833Y-60493596D01*
X116312832Y-60493595D01*
X116209416Y-60427134D01*
X116209414Y-60427133D01*
X116209412Y-60427132D01*
X116091466Y-60392500D01*
X116091465Y-60392500D01*
X115968535Y-60392500D01*
X115968534Y-60392500D01*
X115850587Y-60427132D01*
X115747166Y-60493596D01*
X115666669Y-60586493D01*
X115666665Y-60586499D01*
X115615599Y-60698319D01*
X115615598Y-60698322D01*
X115598104Y-60820000D01*
X106202500Y-60820000D01*
X106202500Y-60100000D01*
X106668104Y-60100000D01*
X106685598Y-60221677D01*
X106685599Y-60221680D01*
X106736665Y-60333500D01*
X106736669Y-60333506D01*
X106817166Y-60426403D01*
X106817168Y-60426405D01*
X106920584Y-60492866D01*
X106920586Y-60492866D01*
X106920587Y-60492867D01*
X107038534Y-60527500D01*
X107038535Y-60527500D01*
X107161465Y-60527500D01*
X107279416Y-60492866D01*
X107382832Y-60426405D01*
X107463334Y-60333501D01*
X107514401Y-60221679D01*
X107531896Y-60100000D01*
X107514401Y-59978321D01*
X107463334Y-59866499D01*
X107463330Y-59866493D01*
X107382833Y-59773596D01*
X107382832Y-59773595D01*
X107279416Y-59707134D01*
X107279414Y-59707133D01*
X107279412Y-59707132D01*
X107161466Y-59672500D01*
X107161465Y-59672500D01*
X107038535Y-59672500D01*
X107038534Y-59672500D01*
X106920587Y-59707132D01*
X106817166Y-59773596D01*
X106736669Y-59866493D01*
X106736665Y-59866499D01*
X106685599Y-59978319D01*
X106685598Y-59978322D01*
X106668104Y-60100000D01*
X106202500Y-60100000D01*
X106202500Y-59020000D01*
X106488104Y-59020000D01*
X106505598Y-59141677D01*
X106505599Y-59141680D01*
X106556665Y-59253500D01*
X106556669Y-59253506D01*
X106637166Y-59346403D01*
X106637168Y-59346405D01*
X106740584Y-59412866D01*
X106740586Y-59412866D01*
X106740587Y-59412867D01*
X106858534Y-59447500D01*
X106858535Y-59447500D01*
X106981465Y-59447500D01*
X107099416Y-59412866D01*
X107202832Y-59346405D01*
X107208382Y-59340000D01*
X109238104Y-59340000D01*
X109255598Y-59461677D01*
X109255599Y-59461680D01*
X109306665Y-59573500D01*
X109306669Y-59573506D01*
X109387166Y-59666403D01*
X109387168Y-59666405D01*
X109490584Y-59732866D01*
X109490586Y-59732866D01*
X109490587Y-59732867D01*
X109608534Y-59767500D01*
X109608535Y-59767500D01*
X109731465Y-59767500D01*
X109849416Y-59732866D01*
X109849423Y-59732861D01*
X109853484Y-59731008D01*
X109854007Y-59732153D01*
X109896238Y-59724533D01*
X109935533Y-59751812D01*
X109944820Y-59776710D01*
X109955598Y-59851677D01*
X109955599Y-59851680D01*
X110006665Y-59963500D01*
X110006669Y-59963506D01*
X110087166Y-60056403D01*
X110087168Y-60056405D01*
X110190584Y-60122866D01*
X110190586Y-60122866D01*
X110190587Y-60122867D01*
X110308534Y-60157500D01*
X110308535Y-60157500D01*
X110431465Y-60157500D01*
X110549416Y-60122866D01*
X110652832Y-60056405D01*
X110716382Y-59983063D01*
X110759156Y-59961653D01*
X110804544Y-59976759D01*
X110820467Y-59998030D01*
X110836666Y-60033501D01*
X110836667Y-60033502D01*
X110836669Y-60033506D01*
X110914101Y-60122866D01*
X110917168Y-60126405D01*
X111020584Y-60192866D01*
X111020586Y-60192866D01*
X111020587Y-60192867D01*
X111138534Y-60227500D01*
X111138535Y-60227500D01*
X111261465Y-60227500D01*
X111379416Y-60192866D01*
X111482832Y-60126405D01*
X111552071Y-60046499D01*
X111563330Y-60033506D01*
X111563333Y-60033502D01*
X111563334Y-60033501D01*
X111614401Y-59921679D01*
X111631896Y-59800000D01*
X111630152Y-59787873D01*
X111641981Y-59741525D01*
X111683120Y-59717115D01*
X111709625Y-59719011D01*
X111738534Y-59727500D01*
X111738535Y-59727500D01*
X111861465Y-59727500D01*
X111979416Y-59692866D01*
X112082832Y-59626405D01*
X112163334Y-59533501D01*
X112214401Y-59421679D01*
X112231896Y-59300000D01*
X112214401Y-59178321D01*
X112163334Y-59066499D01*
X112163330Y-59066493D01*
X112082833Y-58973596D01*
X112082832Y-58973595D01*
X111979416Y-58907134D01*
X111979414Y-58907133D01*
X111979412Y-58907132D01*
X111861466Y-58872500D01*
X111861465Y-58872500D01*
X111738535Y-58872500D01*
X111738534Y-58872500D01*
X111620587Y-58907132D01*
X111517166Y-58973596D01*
X111436669Y-59066493D01*
X111436665Y-59066499D01*
X111385599Y-59178319D01*
X111385598Y-59178322D01*
X111368104Y-59300001D01*
X111369847Y-59312127D01*
X111358016Y-59358476D01*
X111316876Y-59382884D01*
X111290375Y-59380988D01*
X111261467Y-59372500D01*
X111261465Y-59372500D01*
X111138535Y-59372500D01*
X111138534Y-59372500D01*
X111020587Y-59407132D01*
X110917166Y-59473596D01*
X110853618Y-59546934D01*
X110810842Y-59568346D01*
X110765455Y-59553239D01*
X110749532Y-59531968D01*
X110733334Y-59496499D01*
X110733330Y-59496493D01*
X110652833Y-59403596D01*
X110652832Y-59403595D01*
X110549416Y-59337134D01*
X110549414Y-59337133D01*
X110549412Y-59337132D01*
X110431466Y-59302500D01*
X110431465Y-59302500D01*
X110308535Y-59302500D01*
X110308534Y-59302500D01*
X110190584Y-59337133D01*
X110186520Y-59338990D01*
X110185998Y-59337849D01*
X110143745Y-59345464D01*
X110104458Y-59318174D01*
X110095180Y-59293292D01*
X110084401Y-59218321D01*
X110033334Y-59106499D01*
X110033330Y-59106493D01*
X109952833Y-59013596D01*
X109952832Y-59013595D01*
X109849416Y-58947134D01*
X109849414Y-58947133D01*
X109849412Y-58947132D01*
X109731466Y-58912500D01*
X109731465Y-58912500D01*
X109608535Y-58912500D01*
X109608534Y-58912500D01*
X109490587Y-58947132D01*
X109387166Y-59013596D01*
X109306669Y-59106493D01*
X109306665Y-59106499D01*
X109255599Y-59218319D01*
X109255598Y-59218322D01*
X109238104Y-59340000D01*
X107208382Y-59340000D01*
X107283334Y-59253501D01*
X107334401Y-59141679D01*
X107351896Y-59020000D01*
X107334401Y-58898321D01*
X107283334Y-58786499D01*
X107283330Y-58786493D01*
X107202833Y-58693596D01*
X107202832Y-58693595D01*
X107099416Y-58627134D01*
X107099414Y-58627133D01*
X107099412Y-58627132D01*
X106981466Y-58592500D01*
X106981465Y-58592500D01*
X106858535Y-58592500D01*
X106858534Y-58592500D01*
X106740587Y-58627132D01*
X106637166Y-58693596D01*
X106556669Y-58786493D01*
X106556665Y-58786499D01*
X106505599Y-58898319D01*
X106505598Y-58898322D01*
X106488104Y-59020000D01*
X106202500Y-59020000D01*
X106202500Y-58490000D01*
X144938104Y-58490000D01*
X144955598Y-58611677D01*
X144955599Y-58611680D01*
X145006665Y-58723500D01*
X145006669Y-58723506D01*
X145061254Y-58786499D01*
X145087168Y-58816405D01*
X145190584Y-58882866D01*
X145190586Y-58882866D01*
X145190587Y-58882867D01*
X145308534Y-58917500D01*
X145308535Y-58917500D01*
X145431465Y-58917500D01*
X145549416Y-58882866D01*
X145652832Y-58816405D01*
X145733334Y-58723501D01*
X145784401Y-58611679D01*
X145801896Y-58490000D01*
X145784401Y-58368321D01*
X145733334Y-58256499D01*
X145733330Y-58256493D01*
X145652833Y-58163596D01*
X145652832Y-58163595D01*
X145549416Y-58097134D01*
X145549414Y-58097133D01*
X145549412Y-58097132D01*
X145431466Y-58062500D01*
X145431465Y-58062500D01*
X145308535Y-58062500D01*
X145308534Y-58062500D01*
X145190587Y-58097132D01*
X145087166Y-58163596D01*
X145006669Y-58256493D01*
X145006665Y-58256499D01*
X144955599Y-58368319D01*
X144955598Y-58368322D01*
X144938104Y-58490000D01*
X106202500Y-58490000D01*
X106202500Y-57970000D01*
X142168104Y-57970000D01*
X142185598Y-58091677D01*
X142185599Y-58091680D01*
X142236665Y-58203500D01*
X142236669Y-58203506D01*
X142317166Y-58296403D01*
X142317168Y-58296405D01*
X142420584Y-58362866D01*
X142420586Y-58362866D01*
X142420587Y-58362867D01*
X142538534Y-58397500D01*
X142538535Y-58397500D01*
X142661465Y-58397500D01*
X142779416Y-58362866D01*
X142882832Y-58296405D01*
X142963334Y-58203501D01*
X143014401Y-58091679D01*
X143031896Y-57970000D01*
X143014401Y-57848321D01*
X142963334Y-57736499D01*
X142963330Y-57736493D01*
X142882833Y-57643596D01*
X142882832Y-57643595D01*
X142779416Y-57577134D01*
X142779414Y-57577133D01*
X142779412Y-57577132D01*
X142661466Y-57542500D01*
X142661465Y-57542500D01*
X142538535Y-57542500D01*
X142538534Y-57542500D01*
X142420587Y-57577132D01*
X142317166Y-57643596D01*
X142236669Y-57736493D01*
X142236665Y-57736499D01*
X142185599Y-57848319D01*
X142185598Y-57848322D01*
X142168104Y-57970000D01*
X106202500Y-57970000D01*
X106202500Y-55650000D01*
X111828104Y-55650000D01*
X111845598Y-55771677D01*
X111845599Y-55771680D01*
X111896665Y-55883500D01*
X111896669Y-55883506D01*
X111959386Y-55955884D01*
X111977168Y-55976405D01*
X112080584Y-56042866D01*
X112080586Y-56042866D01*
X112080587Y-56042867D01*
X112198534Y-56077500D01*
X112198535Y-56077500D01*
X112321465Y-56077500D01*
X112439416Y-56042866D01*
X112542832Y-55976405D01*
X112623334Y-55883501D01*
X112660865Y-55801317D01*
X112695874Y-55768723D01*
X112743679Y-55770430D01*
X112774568Y-55801319D01*
X112816665Y-55893500D01*
X112816669Y-55893506D01*
X112870720Y-55955883D01*
X112897168Y-55986405D01*
X113000584Y-56052866D01*
X113000586Y-56052866D01*
X113000587Y-56052867D01*
X113118534Y-56087500D01*
X113118535Y-56087500D01*
X113241465Y-56087500D01*
X113359416Y-56052866D01*
X113462832Y-55986405D01*
X113518208Y-55922497D01*
X113526921Y-55912442D01*
X117322500Y-55912442D01*
X117322500Y-57637557D01*
X117329898Y-57674748D01*
X117329898Y-57674749D01*
X117358077Y-57716922D01*
X117386257Y-57735750D01*
X117400252Y-57745102D01*
X117437442Y-57752500D01*
X117437443Y-57752500D01*
X119162557Y-57752500D01*
X119162558Y-57752500D01*
X119199748Y-57745102D01*
X119241922Y-57716922D01*
X119270102Y-57674748D01*
X119277500Y-57637558D01*
X119277500Y-56070000D01*
X142348104Y-56070000D01*
X142365598Y-56191677D01*
X142365599Y-56191680D01*
X142416665Y-56303500D01*
X142416669Y-56303506D01*
X142497166Y-56396403D01*
X142497168Y-56396405D01*
X142541712Y-56425031D01*
X142568993Y-56464323D01*
X142560500Y-56511399D01*
X142555156Y-56518538D01*
X142506667Y-56574497D01*
X142506665Y-56574499D01*
X142455599Y-56686319D01*
X142455598Y-56686322D01*
X142438104Y-56808000D01*
X142455598Y-56929677D01*
X142455599Y-56929680D01*
X142506665Y-57041500D01*
X142506669Y-57041506D01*
X142587166Y-57134403D01*
X142587168Y-57134405D01*
X142690584Y-57200866D01*
X142690586Y-57200866D01*
X142690587Y-57200867D01*
X142808534Y-57235500D01*
X142808535Y-57235500D01*
X142931465Y-57235500D01*
X143049416Y-57200866D01*
X143152832Y-57134405D01*
X143233334Y-57041501D01*
X143284401Y-56929679D01*
X143301896Y-56808000D01*
X143284401Y-56686321D01*
X143233334Y-56574499D01*
X143233330Y-56574493D01*
X143152832Y-56481595D01*
X143152830Y-56481593D01*
X143108288Y-56452968D01*
X143081006Y-56413675D01*
X143089500Y-56366600D01*
X143094844Y-56359461D01*
X143143330Y-56303506D01*
X143143331Y-56303504D01*
X143143334Y-56303501D01*
X143194401Y-56191679D01*
X143211896Y-56070000D01*
X143194401Y-55948321D01*
X143143334Y-55836499D01*
X143143332Y-55836497D01*
X143143330Y-55836493D01*
X143062833Y-55743596D01*
X143062832Y-55743595D01*
X142959416Y-55677134D01*
X142959414Y-55677133D01*
X142959412Y-55677132D01*
X142841466Y-55642500D01*
X142841465Y-55642500D01*
X142718535Y-55642500D01*
X142718534Y-55642500D01*
X142600587Y-55677132D01*
X142497166Y-55743596D01*
X142416669Y-55836493D01*
X142416667Y-55836497D01*
X142416666Y-55836499D01*
X142398969Y-55875250D01*
X142365599Y-55948319D01*
X142365598Y-55948322D01*
X142348104Y-56070000D01*
X119277500Y-56070000D01*
X119277500Y-55912442D01*
X119270102Y-55875252D01*
X119244208Y-55836499D01*
X119241922Y-55833077D01*
X119199748Y-55804898D01*
X119181756Y-55801319D01*
X119162558Y-55797500D01*
X117437442Y-55797500D01*
X117418847Y-55801199D01*
X117400251Y-55804898D01*
X117400250Y-55804898D01*
X117358077Y-55833077D01*
X117329898Y-55875250D01*
X117329898Y-55875251D01*
X117322500Y-55912442D01*
X113526921Y-55912442D01*
X113543330Y-55893506D01*
X113543331Y-55893504D01*
X113543334Y-55893501D01*
X113594401Y-55781679D01*
X113611896Y-55660000D01*
X113594401Y-55538321D01*
X113543334Y-55426499D01*
X113543330Y-55426493D01*
X113462833Y-55333596D01*
X113462832Y-55333595D01*
X113359416Y-55267134D01*
X113359414Y-55267133D01*
X113359412Y-55267132D01*
X113241466Y-55232500D01*
X113241465Y-55232500D01*
X113118535Y-55232500D01*
X113118534Y-55232500D01*
X113000587Y-55267132D01*
X112897166Y-55333596D01*
X112816669Y-55426493D01*
X112816667Y-55426497D01*
X112779135Y-55508681D01*
X112744124Y-55541276D01*
X112696319Y-55539569D01*
X112665431Y-55508680D01*
X112653932Y-55483501D01*
X112623334Y-55416499D01*
X112623330Y-55416493D01*
X112542833Y-55323596D01*
X112542832Y-55323595D01*
X112439416Y-55257134D01*
X112439414Y-55257133D01*
X112439412Y-55257132D01*
X112321466Y-55222500D01*
X112321465Y-55222500D01*
X112198535Y-55222500D01*
X112198534Y-55222500D01*
X112080587Y-55257132D01*
X111977166Y-55323596D01*
X111896669Y-55416493D01*
X111896665Y-55416499D01*
X111845599Y-55528319D01*
X111845598Y-55528322D01*
X111828104Y-55650000D01*
X106202500Y-55650000D01*
X106202500Y-55060000D01*
X114258104Y-55060000D01*
X114275598Y-55181677D01*
X114275599Y-55181680D01*
X114326665Y-55293500D01*
X114326669Y-55293506D01*
X114407166Y-55386403D01*
X114407168Y-55386405D01*
X114510584Y-55452866D01*
X114510586Y-55452866D01*
X114510587Y-55452867D01*
X114628534Y-55487500D01*
X114628535Y-55487500D01*
X114751465Y-55487500D01*
X114869416Y-55452866D01*
X114972832Y-55386405D01*
X115053334Y-55293501D01*
X115104401Y-55181679D01*
X115121896Y-55060000D01*
X115104401Y-54938321D01*
X115053334Y-54826499D01*
X115053330Y-54826493D01*
X114972833Y-54733596D01*
X114972832Y-54733595D01*
X114869416Y-54667134D01*
X114869414Y-54667133D01*
X114869412Y-54667132D01*
X114751466Y-54632500D01*
X114751465Y-54632500D01*
X114628535Y-54632500D01*
X114628534Y-54632500D01*
X114510587Y-54667132D01*
X114407166Y-54733596D01*
X114326669Y-54826493D01*
X114326665Y-54826499D01*
X114275599Y-54938319D01*
X114275598Y-54938322D01*
X114258104Y-55060000D01*
X106202500Y-55060000D01*
X106202500Y-53984998D01*
X116969363Y-53984998D01*
X116969364Y-53985000D01*
X117866988Y-53985000D01*
X117834075Y-54042007D01*
X117800000Y-54169174D01*
X117800000Y-54300826D01*
X117834075Y-54427993D01*
X117866988Y-54485000D01*
X116969364Y-54485000D01*
X116969363Y-54485001D01*
X117026567Y-54698487D01*
X117026568Y-54698489D01*
X117126398Y-54912575D01*
X117261892Y-55106081D01*
X117428918Y-55273107D01*
X117622426Y-55408603D01*
X117836503Y-55508428D01*
X117836519Y-55508434D01*
X118049998Y-55565635D01*
X118050000Y-55565634D01*
X118050000Y-54668012D01*
X118107007Y-54700925D01*
X118234174Y-54735000D01*
X118365826Y-54735000D01*
X118492993Y-54700925D01*
X118550000Y-54668012D01*
X118550000Y-55565634D01*
X118550001Y-55565635D01*
X118763480Y-55508434D01*
X118763496Y-55508428D01*
X118977573Y-55408603D01*
X119171081Y-55273107D01*
X119194188Y-55250000D01*
X147148104Y-55250000D01*
X147165598Y-55371677D01*
X147165599Y-55371680D01*
X147216665Y-55483500D01*
X147216669Y-55483506D01*
X147297166Y-55576403D01*
X147297168Y-55576405D01*
X147400584Y-55642866D01*
X147400586Y-55642866D01*
X147400587Y-55642867D01*
X147518534Y-55677500D01*
X147518535Y-55677500D01*
X147641465Y-55677500D01*
X147759416Y-55642866D01*
X147862832Y-55576405D01*
X147943334Y-55483501D01*
X147994401Y-55371679D01*
X148011896Y-55250000D01*
X147994401Y-55128321D01*
X147943334Y-55016499D01*
X147943330Y-55016493D01*
X147862833Y-54923596D01*
X147862832Y-54923595D01*
X147759416Y-54857134D01*
X147759414Y-54857133D01*
X147759412Y-54857132D01*
X147641466Y-54822500D01*
X147641465Y-54822500D01*
X147518535Y-54822500D01*
X147518534Y-54822500D01*
X147400587Y-54857132D01*
X147297166Y-54923596D01*
X147216669Y-55016493D01*
X147216665Y-55016499D01*
X147165599Y-55128319D01*
X147165598Y-55128322D01*
X147148104Y-55250000D01*
X119194188Y-55250000D01*
X119338107Y-55106081D01*
X119473601Y-54912575D01*
X119573431Y-54698489D01*
X119573432Y-54698487D01*
X119630636Y-54485001D01*
X119630636Y-54485000D01*
X118733012Y-54485000D01*
X118765925Y-54427993D01*
X118800000Y-54300826D01*
X118800000Y-54169174D01*
X118792183Y-54140000D01*
X138008104Y-54140000D01*
X138025598Y-54261677D01*
X138025599Y-54261680D01*
X138076665Y-54373500D01*
X138076669Y-54373506D01*
X138157166Y-54466403D01*
X138157168Y-54466405D01*
X138260584Y-54532866D01*
X138260586Y-54532866D01*
X138260587Y-54532867D01*
X138378534Y-54567500D01*
X138378535Y-54567500D01*
X138501465Y-54567500D01*
X138619416Y-54532866D01*
X138722832Y-54466405D01*
X138803334Y-54373501D01*
X138854401Y-54261679D01*
X138871896Y-54140000D01*
X139908104Y-54140000D01*
X139925598Y-54261677D01*
X139925599Y-54261680D01*
X139976665Y-54373500D01*
X139976669Y-54373506D01*
X140057166Y-54466403D01*
X140057168Y-54466405D01*
X140160584Y-54532866D01*
X140160586Y-54532866D01*
X140160587Y-54532867D01*
X140278534Y-54567500D01*
X140278535Y-54567500D01*
X140401465Y-54567500D01*
X140519416Y-54532866D01*
X140622832Y-54466405D01*
X140703334Y-54373501D01*
X140754401Y-54261679D01*
X140771896Y-54140000D01*
X140754401Y-54018321D01*
X140703334Y-53906499D01*
X140703330Y-53906493D01*
X140622833Y-53813596D01*
X140622832Y-53813595D01*
X140519416Y-53747134D01*
X140519414Y-53747133D01*
X140519412Y-53747132D01*
X140401466Y-53712500D01*
X140401465Y-53712500D01*
X140278535Y-53712500D01*
X140278534Y-53712500D01*
X140160587Y-53747132D01*
X140057166Y-53813596D01*
X139976669Y-53906493D01*
X139976665Y-53906499D01*
X139925599Y-54018319D01*
X139925598Y-54018322D01*
X139908104Y-54140000D01*
X138871896Y-54140000D01*
X138854401Y-54018321D01*
X138803334Y-53906499D01*
X138803330Y-53906493D01*
X138722833Y-53813596D01*
X138722832Y-53813595D01*
X138619416Y-53747134D01*
X138619414Y-53747133D01*
X138619412Y-53747132D01*
X138501466Y-53712500D01*
X138501465Y-53712500D01*
X138378535Y-53712500D01*
X138378534Y-53712500D01*
X138260587Y-53747132D01*
X138157166Y-53813596D01*
X138076669Y-53906493D01*
X138076665Y-53906499D01*
X138025599Y-54018319D01*
X138025598Y-54018322D01*
X138008104Y-54140000D01*
X118792183Y-54140000D01*
X118765925Y-54042007D01*
X118733012Y-53985000D01*
X119630636Y-53985000D01*
X119630636Y-53984998D01*
X119573432Y-53771512D01*
X119573431Y-53771510D01*
X119473600Y-53557422D01*
X119338109Y-53363920D01*
X119314189Y-53340000D01*
X147268104Y-53340000D01*
X147285598Y-53461677D01*
X147285599Y-53461680D01*
X147336665Y-53573500D01*
X147336669Y-53573506D01*
X147417166Y-53666403D01*
X147417168Y-53666405D01*
X147520584Y-53732866D01*
X147520586Y-53732866D01*
X147520587Y-53732867D01*
X147638534Y-53767500D01*
X147638535Y-53767500D01*
X147761465Y-53767500D01*
X147879416Y-53732866D01*
X147982832Y-53666405D01*
X148052765Y-53585698D01*
X148063330Y-53573506D01*
X148063331Y-53573504D01*
X148063334Y-53573501D01*
X148114401Y-53461679D01*
X148131896Y-53340000D01*
X148114401Y-53218321D01*
X148063334Y-53106499D01*
X148063330Y-53106493D01*
X147982833Y-53013596D01*
X147982832Y-53013595D01*
X147879416Y-52947134D01*
X147879414Y-52947133D01*
X147879412Y-52947132D01*
X147761466Y-52912500D01*
X147761465Y-52912500D01*
X147638535Y-52912500D01*
X147638534Y-52912500D01*
X147520587Y-52947132D01*
X147417166Y-53013596D01*
X147336669Y-53106493D01*
X147336665Y-53106499D01*
X147285599Y-53218319D01*
X147285598Y-53218322D01*
X147268104Y-53340000D01*
X119314189Y-53340000D01*
X119171081Y-53196892D01*
X118977575Y-53061398D01*
X118763489Y-52961568D01*
X118763487Y-52961567D01*
X118550001Y-52904363D01*
X118550000Y-52904364D01*
X118550000Y-53801988D01*
X118492993Y-53769075D01*
X118365826Y-53735000D01*
X118234174Y-53735000D01*
X118107007Y-53769075D01*
X118050000Y-53801988D01*
X118050000Y-52904364D01*
X118049998Y-52904363D01*
X117836512Y-52961567D01*
X117836510Y-52961568D01*
X117622422Y-53061399D01*
X117428920Y-53196890D01*
X117261890Y-53363920D01*
X117126399Y-53557422D01*
X117026568Y-53771510D01*
X117026567Y-53771512D01*
X116969363Y-53984998D01*
X106202500Y-53984998D01*
X106202500Y-53360000D01*
X106418104Y-53360000D01*
X106435598Y-53481677D01*
X106435599Y-53481680D01*
X106486665Y-53593500D01*
X106486669Y-53593506D01*
X106567166Y-53686403D01*
X106567168Y-53686405D01*
X106670584Y-53752866D01*
X106670586Y-53752866D01*
X106670587Y-53752867D01*
X106788534Y-53787500D01*
X106788535Y-53787500D01*
X106911465Y-53787500D01*
X107029416Y-53752866D01*
X107132832Y-53686405D01*
X107213334Y-53593501D01*
X107264401Y-53481679D01*
X107281896Y-53360000D01*
X107264401Y-53238321D01*
X107213334Y-53126499D01*
X107213330Y-53126493D01*
X107132833Y-53033596D01*
X107132832Y-53033595D01*
X107080557Y-53000000D01*
X112448104Y-53000000D01*
X112465598Y-53121677D01*
X112465599Y-53121680D01*
X112516665Y-53233500D01*
X112516669Y-53233506D01*
X112597166Y-53326403D01*
X112597168Y-53326405D01*
X112700584Y-53392866D01*
X112700586Y-53392866D01*
X112700587Y-53392867D01*
X112818534Y-53427500D01*
X112818535Y-53427500D01*
X112941465Y-53427500D01*
X113059416Y-53392866D01*
X113162832Y-53326405D01*
X113239157Y-53238322D01*
X113243330Y-53233506D01*
X113243331Y-53233504D01*
X113243334Y-53233501D01*
X113294401Y-53121679D01*
X113311896Y-53000000D01*
X113294401Y-52878321D01*
X113243334Y-52766499D01*
X113243330Y-52766493D01*
X113162833Y-52673596D01*
X113162832Y-52673595D01*
X113059416Y-52607134D01*
X113059414Y-52607133D01*
X113059412Y-52607132D01*
X112941466Y-52572500D01*
X112941465Y-52572500D01*
X112818535Y-52572500D01*
X112818534Y-52572500D01*
X112700587Y-52607132D01*
X112597166Y-52673596D01*
X112516669Y-52766493D01*
X112516665Y-52766499D01*
X112465599Y-52878319D01*
X112465598Y-52878322D01*
X112448104Y-53000000D01*
X107080557Y-53000000D01*
X107029416Y-52967134D01*
X107029414Y-52967133D01*
X107029412Y-52967132D01*
X106911466Y-52932500D01*
X106911465Y-52932500D01*
X106788535Y-52932500D01*
X106788534Y-52932500D01*
X106670587Y-52967132D01*
X106567166Y-53033596D01*
X106486669Y-53126493D01*
X106486665Y-53126499D01*
X106435599Y-53238319D01*
X106435598Y-53238322D01*
X106418104Y-53360000D01*
X106202500Y-53360000D01*
X106202500Y-50929766D01*
X106220806Y-50885572D01*
X106356378Y-50750000D01*
X147028104Y-50750000D01*
X147045598Y-50871677D01*
X147045599Y-50871680D01*
X147096665Y-50983500D01*
X147096669Y-50983506D01*
X147177166Y-51076403D01*
X147177168Y-51076405D01*
X147280584Y-51142866D01*
X147280586Y-51142866D01*
X147280587Y-51142867D01*
X147398534Y-51177500D01*
X147398535Y-51177500D01*
X147521465Y-51177500D01*
X147639416Y-51142866D01*
X147742832Y-51076405D01*
X147798208Y-51012497D01*
X147823330Y-50983506D01*
X147823331Y-50983504D01*
X147823334Y-50983501D01*
X147874401Y-50871679D01*
X147891896Y-50750000D01*
X147874401Y-50628321D01*
X147823334Y-50516499D01*
X147823330Y-50516493D01*
X147742833Y-50423596D01*
X147742832Y-50423595D01*
X147639416Y-50357134D01*
X147639414Y-50357133D01*
X147639412Y-50357132D01*
X147521466Y-50322500D01*
X147521465Y-50322500D01*
X147398535Y-50322500D01*
X147398534Y-50322500D01*
X147280587Y-50357132D01*
X147177166Y-50423596D01*
X147096669Y-50516493D01*
X147096665Y-50516499D01*
X147045599Y-50628319D01*
X147045598Y-50628322D01*
X147028104Y-50750000D01*
X106356378Y-50750000D01*
X106856378Y-50250000D01*
X107466377Y-49640000D01*
X129618104Y-49640000D01*
X129635598Y-49761677D01*
X129635599Y-49761680D01*
X129686665Y-49873500D01*
X129686669Y-49873506D01*
X129767166Y-49966403D01*
X129767168Y-49966405D01*
X129870584Y-50032866D01*
X129870586Y-50032866D01*
X129870587Y-50032867D01*
X129988534Y-50067500D01*
X129988535Y-50067500D01*
X130111465Y-50067500D01*
X130229416Y-50032866D01*
X130332832Y-49966405D01*
X130388208Y-49902497D01*
X130413330Y-49873506D01*
X130413331Y-49873504D01*
X130413334Y-49873501D01*
X130464401Y-49761679D01*
X130481896Y-49640000D01*
X130464401Y-49518321D01*
X130413334Y-49406499D01*
X130413330Y-49406493D01*
X130332833Y-49313596D01*
X130332832Y-49313595D01*
X130229416Y-49247134D01*
X130229414Y-49247133D01*
X130229412Y-49247132D01*
X130111466Y-49212500D01*
X130111465Y-49212500D01*
X129988535Y-49212500D01*
X129988534Y-49212500D01*
X129870587Y-49247132D01*
X129767166Y-49313596D01*
X129686669Y-49406493D01*
X129686665Y-49406499D01*
X129635599Y-49518319D01*
X129635598Y-49518322D01*
X129618104Y-49640000D01*
X107466377Y-49640000D01*
X107600737Y-49505640D01*
X107644930Y-49487335D01*
X107662539Y-49489867D01*
X107688533Y-49497500D01*
X107688535Y-49497500D01*
X107811465Y-49497500D01*
X107929416Y-49462866D01*
X108032832Y-49396405D01*
X108104587Y-49313596D01*
X108113330Y-49303506D01*
X108113331Y-49303504D01*
X108113334Y-49303501D01*
X108164401Y-49191679D01*
X108181896Y-49070000D01*
X108171831Y-49000000D01*
X140248104Y-49000000D01*
X140265598Y-49121677D01*
X140265599Y-49121680D01*
X140316665Y-49233500D01*
X140316669Y-49233506D01*
X140397166Y-49326403D01*
X140397168Y-49326405D01*
X140500584Y-49392866D01*
X140500586Y-49392866D01*
X140500587Y-49392867D01*
X140618534Y-49427500D01*
X140618535Y-49427500D01*
X140741465Y-49427500D01*
X140801064Y-49410000D01*
X142348104Y-49410000D01*
X142365598Y-49531677D01*
X142365599Y-49531680D01*
X142416665Y-49643500D01*
X142416669Y-49643506D01*
X142488502Y-49726404D01*
X142497168Y-49736405D01*
X142600584Y-49802866D01*
X142600586Y-49802866D01*
X142600587Y-49802867D01*
X142718534Y-49837500D01*
X142718535Y-49837500D01*
X142841465Y-49837500D01*
X142959416Y-49802866D01*
X143062832Y-49736405D01*
X143143334Y-49643501D01*
X143194401Y-49531679D01*
X143211896Y-49410000D01*
X143194401Y-49288321D01*
X143143334Y-49176499D01*
X143143330Y-49176493D01*
X143062833Y-49083596D01*
X143062832Y-49083595D01*
X142959416Y-49017134D01*
X142959414Y-49017133D01*
X142959412Y-49017132D01*
X142957040Y-49016436D01*
X142955930Y-49015542D01*
X142955348Y-49015276D01*
X142955415Y-49015127D01*
X142919793Y-48986421D01*
X142914680Y-48938860D01*
X142944695Y-48901613D01*
X142957035Y-48896501D01*
X142969416Y-48892866D01*
X143072832Y-48826405D01*
X143144587Y-48743596D01*
X143153330Y-48733506D01*
X143153331Y-48733504D01*
X143153334Y-48733501D01*
X143165415Y-48707047D01*
X144798570Y-48707047D01*
X144816064Y-48828724D01*
X144816065Y-48828727D01*
X144867131Y-48940547D01*
X144867135Y-48940553D01*
X144933494Y-49017134D01*
X144947634Y-49033452D01*
X145051050Y-49099913D01*
X145051052Y-49099913D01*
X145051053Y-49099914D01*
X145169000Y-49134547D01*
X145169001Y-49134547D01*
X145291931Y-49134547D01*
X145409882Y-49099913D01*
X145513298Y-49033452D01*
X145587065Y-48948321D01*
X145593796Y-48940553D01*
X145593797Y-48940551D01*
X145593800Y-48940548D01*
X145644867Y-48828726D01*
X145662362Y-48707047D01*
X145644867Y-48585368D01*
X145593800Y-48473546D01*
X145593796Y-48473540D01*
X145513299Y-48380643D01*
X145513298Y-48380642D01*
X145409882Y-48314181D01*
X145409880Y-48314180D01*
X145409878Y-48314179D01*
X145291932Y-48279547D01*
X145291931Y-48279547D01*
X145169001Y-48279547D01*
X145169000Y-48279547D01*
X145051053Y-48314179D01*
X144947632Y-48380643D01*
X144867135Y-48473540D01*
X144867131Y-48473546D01*
X144816065Y-48585366D01*
X144816064Y-48585369D01*
X144798570Y-48707047D01*
X143165415Y-48707047D01*
X143204401Y-48621679D01*
X143221896Y-48500000D01*
X143204401Y-48378321D01*
X143153334Y-48266499D01*
X143153330Y-48266493D01*
X143072833Y-48173596D01*
X143072832Y-48173595D01*
X142969416Y-48107134D01*
X142969410Y-48107132D01*
X142968799Y-48106853D01*
X142968533Y-48106567D01*
X142965655Y-48104718D01*
X142966127Y-48103983D01*
X142936202Y-48071843D01*
X142937908Y-48024038D01*
X142966049Y-47995896D01*
X142965655Y-47995282D01*
X142968478Y-47993467D01*
X142968799Y-47993147D01*
X142969404Y-47992869D01*
X142969416Y-47992866D01*
X143072832Y-47926405D01*
X143153334Y-47833501D01*
X143204401Y-47721679D01*
X143221896Y-47600000D01*
X143204401Y-47478321D01*
X143153334Y-47366499D01*
X143153330Y-47366493D01*
X143072833Y-47273596D01*
X143072832Y-47273595D01*
X142969416Y-47207134D01*
X142969410Y-47207132D01*
X142968799Y-47206853D01*
X142968533Y-47206567D01*
X142965655Y-47204718D01*
X142966127Y-47203983D01*
X142936202Y-47171843D01*
X142937908Y-47124038D01*
X142966049Y-47095896D01*
X142965655Y-47095282D01*
X142968478Y-47093467D01*
X142968799Y-47093147D01*
X142969404Y-47092869D01*
X142969416Y-47092866D01*
X143072832Y-47026405D01*
X143153334Y-46933501D01*
X143166350Y-46905000D01*
X144753104Y-46905000D01*
X144770598Y-47026677D01*
X144770599Y-47026680D01*
X144821665Y-47138500D01*
X144821669Y-47138506D01*
X144902166Y-47231403D01*
X144902168Y-47231405D01*
X145005584Y-47297866D01*
X145005586Y-47297866D01*
X145005587Y-47297867D01*
X145123534Y-47332500D01*
X145123535Y-47332500D01*
X145246465Y-47332500D01*
X145364416Y-47297866D01*
X145467832Y-47231405D01*
X145544222Y-47143247D01*
X145548330Y-47138506D01*
X145548331Y-47138504D01*
X145548334Y-47138501D01*
X145599401Y-47026679D01*
X145616896Y-46905000D01*
X145599401Y-46783321D01*
X145548334Y-46671499D01*
X145548330Y-46671493D01*
X145467833Y-46578596D01*
X145467832Y-46578595D01*
X145364416Y-46512134D01*
X145364414Y-46512133D01*
X145364412Y-46512132D01*
X145246466Y-46477500D01*
X145246465Y-46477500D01*
X145123535Y-46477500D01*
X145123534Y-46477500D01*
X145005587Y-46512132D01*
X144902166Y-46578596D01*
X144821669Y-46671493D01*
X144821665Y-46671499D01*
X144770599Y-46783319D01*
X144770598Y-46783322D01*
X144753104Y-46905000D01*
X143166350Y-46905000D01*
X143204401Y-46821679D01*
X143221896Y-46700000D01*
X143204401Y-46578321D01*
X143153334Y-46466499D01*
X143153330Y-46466493D01*
X143072833Y-46373596D01*
X143072832Y-46373595D01*
X142969416Y-46307134D01*
X142969410Y-46307132D01*
X142968799Y-46306853D01*
X142968533Y-46306567D01*
X142965655Y-46304718D01*
X142966127Y-46303983D01*
X142936202Y-46271843D01*
X142937908Y-46224038D01*
X142966049Y-46195896D01*
X142965655Y-46195282D01*
X142968478Y-46193467D01*
X142968799Y-46193147D01*
X142969404Y-46192869D01*
X142969416Y-46192866D01*
X143072832Y-46126405D01*
X143153334Y-46033501D01*
X143204401Y-45921679D01*
X143221896Y-45800000D01*
X143204401Y-45678321D01*
X143153334Y-45566499D01*
X143153330Y-45566493D01*
X143072833Y-45473596D01*
X143072832Y-45473595D01*
X142969416Y-45407134D01*
X142969414Y-45407133D01*
X142969412Y-45407132D01*
X142851466Y-45372500D01*
X142851465Y-45372500D01*
X142728535Y-45372500D01*
X142728534Y-45372500D01*
X142610587Y-45407132D01*
X142507166Y-45473596D01*
X142426669Y-45566493D01*
X142426665Y-45566499D01*
X142375599Y-45678319D01*
X142375598Y-45678322D01*
X142358104Y-45800000D01*
X142375598Y-45921677D01*
X142375599Y-45921680D01*
X142426665Y-46033500D01*
X142426669Y-46033506D01*
X142507166Y-46126403D01*
X142507168Y-46126405D01*
X142610584Y-46192866D01*
X142610588Y-46192867D01*
X142610591Y-46192869D01*
X142611205Y-46193150D01*
X142611469Y-46193433D01*
X142614345Y-46195282D01*
X142613873Y-46196016D01*
X142643799Y-46228162D01*
X142642088Y-46275967D01*
X142613950Y-46304104D01*
X142614345Y-46304718D01*
X142611524Y-46306530D01*
X142611205Y-46306850D01*
X142610591Y-46307130D01*
X142610585Y-46307133D01*
X142610584Y-46307134D01*
X142587950Y-46321680D01*
X142507166Y-46373596D01*
X142426669Y-46466493D01*
X142426665Y-46466499D01*
X142375599Y-46578319D01*
X142375598Y-46578322D01*
X142358104Y-46700000D01*
X142375598Y-46821677D01*
X142375599Y-46821680D01*
X142426665Y-46933500D01*
X142426669Y-46933506D01*
X142495847Y-47013340D01*
X142507168Y-47026405D01*
X142610584Y-47092866D01*
X142610588Y-47092867D01*
X142610591Y-47092869D01*
X142611205Y-47093150D01*
X142611469Y-47093433D01*
X142614345Y-47095282D01*
X142613873Y-47096016D01*
X142643799Y-47128162D01*
X142642088Y-47175967D01*
X142613950Y-47204104D01*
X142614345Y-47204718D01*
X142611524Y-47206530D01*
X142611205Y-47206850D01*
X142610591Y-47207130D01*
X142610585Y-47207133D01*
X142610584Y-47207134D01*
X142564222Y-47236929D01*
X142507166Y-47273596D01*
X142426669Y-47366493D01*
X142426665Y-47366499D01*
X142375599Y-47478319D01*
X142375598Y-47478322D01*
X142358104Y-47600000D01*
X142375598Y-47721677D01*
X142375599Y-47721680D01*
X142426665Y-47833500D01*
X142426669Y-47833506D01*
X142507166Y-47926403D01*
X142507168Y-47926405D01*
X142610584Y-47992866D01*
X142610588Y-47992867D01*
X142610591Y-47992869D01*
X142611205Y-47993150D01*
X142611469Y-47993433D01*
X142614345Y-47995282D01*
X142613873Y-47996016D01*
X142643799Y-48028162D01*
X142642088Y-48075967D01*
X142613950Y-48104104D01*
X142614345Y-48104718D01*
X142611524Y-48106530D01*
X142611205Y-48106850D01*
X142610591Y-48107130D01*
X142610585Y-48107133D01*
X142610584Y-48107134D01*
X142595027Y-48117132D01*
X142507166Y-48173596D01*
X142426669Y-48266493D01*
X142426665Y-48266499D01*
X142375599Y-48378319D01*
X142375598Y-48378322D01*
X142358104Y-48500000D01*
X142375598Y-48621677D01*
X142375599Y-48621680D01*
X142426665Y-48733500D01*
X142426669Y-48733506D01*
X142507166Y-48826403D01*
X142507168Y-48826405D01*
X142610584Y-48892866D01*
X142612954Y-48893561D01*
X142614062Y-48894454D01*
X142614652Y-48894724D01*
X142614583Y-48894874D01*
X142650203Y-48923572D01*
X142655321Y-48971133D01*
X142625310Y-49008383D01*
X142612963Y-49013498D01*
X142600588Y-49017132D01*
X142600585Y-49017133D01*
X142600584Y-49017134D01*
X142575196Y-49033450D01*
X142497166Y-49083596D01*
X142416669Y-49176493D01*
X142416665Y-49176499D01*
X142365599Y-49288319D01*
X142365598Y-49288322D01*
X142348104Y-49410000D01*
X140801064Y-49410000D01*
X140859416Y-49392866D01*
X140962832Y-49326405D01*
X141043334Y-49233501D01*
X141094401Y-49121679D01*
X141111896Y-49000000D01*
X141094401Y-48878321D01*
X141043334Y-48766499D01*
X141043330Y-48766493D01*
X140962833Y-48673596D01*
X140962832Y-48673595D01*
X140859416Y-48607134D01*
X140859414Y-48607133D01*
X140859412Y-48607132D01*
X140741466Y-48572500D01*
X140741465Y-48572500D01*
X140618535Y-48572500D01*
X140618534Y-48572500D01*
X140500587Y-48607132D01*
X140397166Y-48673596D01*
X140316669Y-48766493D01*
X140316665Y-48766499D01*
X140265599Y-48878319D01*
X140265598Y-48878322D01*
X140248104Y-49000000D01*
X108171831Y-49000000D01*
X108164401Y-48948321D01*
X108113334Y-48836499D01*
X108113330Y-48836493D01*
X108032833Y-48743596D01*
X108032832Y-48743595D01*
X107929416Y-48677134D01*
X107929414Y-48677133D01*
X107929412Y-48677132D01*
X107811466Y-48642500D01*
X107811465Y-48642500D01*
X107688535Y-48642500D01*
X107688534Y-48642500D01*
X107570587Y-48677132D01*
X107467166Y-48743596D01*
X107386669Y-48836493D01*
X107386665Y-48836499D01*
X107335599Y-48948319D01*
X107335598Y-48948322D01*
X107318104Y-49070000D01*
X107331943Y-49166258D01*
X107320113Y-49212607D01*
X107314273Y-49219346D01*
X107097999Y-49435620D01*
X107053805Y-49453926D01*
X107009611Y-49435620D01*
X106991941Y-49400320D01*
X106991895Y-49400003D01*
X106991896Y-49400000D01*
X106974401Y-49278321D01*
X106923334Y-49166499D01*
X106923330Y-49166493D01*
X106842833Y-49073596D01*
X106842832Y-49073595D01*
X106739416Y-49007134D01*
X106739414Y-49007133D01*
X106739412Y-49007132D01*
X106621466Y-48972500D01*
X106621465Y-48972500D01*
X106498535Y-48972500D01*
X106498534Y-48972500D01*
X106380587Y-49007132D01*
X106277166Y-49073596D01*
X106196669Y-49166493D01*
X106196665Y-49166499D01*
X106145599Y-49278319D01*
X106145598Y-49278322D01*
X106128104Y-49400000D01*
X106141943Y-49496258D01*
X106130113Y-49542607D01*
X106124273Y-49549346D01*
X105295293Y-50378329D01*
X105238330Y-50435291D01*
X105238326Y-50435296D01*
X105207500Y-50509717D01*
X105207500Y-61790279D01*
X105207499Y-61790279D01*
X105210599Y-61797762D01*
X105214242Y-61806557D01*
X105219000Y-61830474D01*
X105219000Y-62131733D01*
X105200694Y-62175927D01*
X105156500Y-62194233D01*
X105112306Y-62175927D01*
X104660806Y-61724427D01*
X104642500Y-61680233D01*
X104642500Y-49812158D01*
X104660806Y-49767964D01*
X104671211Y-49759579D01*
X104722832Y-49726405D01*
X104803334Y-49633501D01*
X104854401Y-49521679D01*
X104871896Y-49400000D01*
X104854401Y-49278321D01*
X104803334Y-49166499D01*
X104803330Y-49166493D01*
X104722833Y-49073596D01*
X104722832Y-49073595D01*
X104619416Y-49007134D01*
X104619414Y-49007133D01*
X104619412Y-49007132D01*
X104501466Y-48972500D01*
X104501465Y-48972500D01*
X104378535Y-48972500D01*
X104378534Y-48972500D01*
X104260587Y-49007132D01*
X104157166Y-49073596D01*
X104076669Y-49166493D01*
X104076665Y-49166499D01*
X104025599Y-49278319D01*
X104025598Y-49278322D01*
X104008104Y-49400000D01*
X104025598Y-49521677D01*
X104025599Y-49521680D01*
X104076665Y-49633500D01*
X104076669Y-49633506D01*
X104157167Y-49726404D01*
X104157168Y-49726405D01*
X104172726Y-49736403D01*
X104208789Y-49759579D01*
X104236072Y-49798872D01*
X104237500Y-49812158D01*
X104237500Y-59351288D01*
X104219194Y-59395482D01*
X104175000Y-59413788D01*
X104130806Y-59395482D01*
X104126277Y-59389863D01*
X104126262Y-59389877D01*
X104042833Y-59293596D01*
X104042832Y-59293595D01*
X103939416Y-59227134D01*
X103939414Y-59227133D01*
X103939412Y-59227132D01*
X103821466Y-59192500D01*
X103821465Y-59192500D01*
X103698535Y-59192500D01*
X103698534Y-59192500D01*
X103580587Y-59227132D01*
X103477166Y-59293596D01*
X103396669Y-59386493D01*
X103396665Y-59386499D01*
X103345599Y-59498319D01*
X103345598Y-59498322D01*
X103328104Y-59620000D01*
X100127500Y-59620000D01*
X100127500Y-58119999D01*
X100617770Y-58119999D01*
X100617770Y-58120000D01*
X100636642Y-58311622D01*
X100653841Y-58368319D01*
X100692538Y-58495883D01*
X100692539Y-58495884D01*
X100783302Y-58665692D01*
X100783306Y-58665698D01*
X100905459Y-58814541D01*
X101054302Y-58936694D01*
X101054304Y-58936695D01*
X101054307Y-58936697D01*
X101073830Y-58947132D01*
X101224117Y-59027462D01*
X101408376Y-59083357D01*
X101600000Y-59102230D01*
X101791624Y-59083357D01*
X101975883Y-59027462D01*
X102145698Y-58936694D01*
X102294541Y-58814541D01*
X102416694Y-58665698D01*
X102507462Y-58495883D01*
X102563357Y-58311624D01*
X102582230Y-58120000D01*
X102579440Y-58091677D01*
X102572793Y-58024188D01*
X102563357Y-57928376D01*
X102507462Y-57744117D01*
X102416694Y-57574302D01*
X102294541Y-57425459D01*
X102145698Y-57303306D01*
X102145692Y-57303302D01*
X102018842Y-57235500D01*
X101975883Y-57212538D01*
X101858111Y-57176811D01*
X101791622Y-57156642D01*
X101600000Y-57137770D01*
X101408377Y-57156642D01*
X101290604Y-57192369D01*
X101224117Y-57212538D01*
X101224115Y-57212538D01*
X101224115Y-57212539D01*
X101054307Y-57303302D01*
X101054301Y-57303306D01*
X100905459Y-57425459D01*
X100783306Y-57574301D01*
X100783302Y-57574307D01*
X100707074Y-57716922D01*
X100692538Y-57744117D01*
X100689995Y-57752500D01*
X100636642Y-57928377D01*
X100617770Y-58119999D01*
X100127500Y-58119999D01*
X100127500Y-55579999D01*
X100617770Y-55579999D01*
X100617770Y-55580000D01*
X100636642Y-55771622D01*
X100655285Y-55833077D01*
X100692538Y-55955883D01*
X100726112Y-56018695D01*
X100783302Y-56125692D01*
X100783306Y-56125698D01*
X100905459Y-56274541D01*
X101054302Y-56396694D01*
X101054304Y-56396695D01*
X101054307Y-56396697D01*
X101082870Y-56411964D01*
X101224117Y-56487462D01*
X101408376Y-56543357D01*
X101600000Y-56562230D01*
X101791624Y-56543357D01*
X101975883Y-56487462D01*
X102145698Y-56396694D01*
X102294541Y-56274541D01*
X102416694Y-56125698D01*
X102507462Y-55955883D01*
X102563357Y-55771624D01*
X102582230Y-55580000D01*
X102575181Y-55508434D01*
X102567112Y-55426499D01*
X102563357Y-55388376D01*
X102507462Y-55204117D01*
X102416694Y-55034302D01*
X102294541Y-54885459D01*
X102145698Y-54763306D01*
X102145692Y-54763302D01*
X102024430Y-54698487D01*
X101975883Y-54672538D01*
X101843897Y-54632500D01*
X101791622Y-54616642D01*
X101600000Y-54597770D01*
X101408377Y-54616642D01*
X101290604Y-54652369D01*
X101224117Y-54672538D01*
X101224115Y-54672538D01*
X101224115Y-54672539D01*
X101054307Y-54763302D01*
X101054301Y-54763306D01*
X100905459Y-54885459D01*
X100783306Y-55034301D01*
X100783302Y-55034307D01*
X100733051Y-55128322D01*
X100692538Y-55204117D01*
X100676456Y-55257132D01*
X100636642Y-55388377D01*
X100617770Y-55579999D01*
X100127500Y-55579999D01*
X100127500Y-53039999D01*
X100617770Y-53039999D01*
X100617770Y-53040000D01*
X100636642Y-53231622D01*
X100656811Y-53298111D01*
X100692538Y-53415883D01*
X100717017Y-53461680D01*
X100783302Y-53585692D01*
X100783306Y-53585698D01*
X100905459Y-53734541D01*
X101054302Y-53856694D01*
X101054304Y-53856695D01*
X101054307Y-53856697D01*
X101098491Y-53880313D01*
X101224117Y-53947462D01*
X101408376Y-54003357D01*
X101600000Y-54022230D01*
X101791624Y-54003357D01*
X101975883Y-53947462D01*
X102145698Y-53856694D01*
X102294541Y-53734541D01*
X102416694Y-53585698D01*
X102507462Y-53415883D01*
X102563357Y-53231624D01*
X102582230Y-53040000D01*
X102579629Y-53013596D01*
X102563357Y-52848377D01*
X102563357Y-52848376D01*
X102507462Y-52664117D01*
X102416694Y-52494302D01*
X102294541Y-52345459D01*
X102145698Y-52223306D01*
X102145692Y-52223302D01*
X102038695Y-52166112D01*
X101975883Y-52132538D01*
X101858111Y-52096811D01*
X101791622Y-52076642D01*
X101600000Y-52057770D01*
X101408377Y-52076642D01*
X101290604Y-52112369D01*
X101224117Y-52132538D01*
X101224115Y-52132538D01*
X101224115Y-52132539D01*
X101054307Y-52223302D01*
X101054301Y-52223306D01*
X100905459Y-52345459D01*
X100783306Y-52494301D01*
X100783302Y-52494307D01*
X100692539Y-52664115D01*
X100636642Y-52848377D01*
X100617770Y-53039999D01*
X100127500Y-53039999D01*
X100127500Y-51424433D01*
X100145806Y-51380239D01*
X100190000Y-51361933D01*
X100234194Y-51380239D01*
X100252142Y-51417752D01*
X100256402Y-51457377D01*
X100306647Y-51592091D01*
X100306649Y-51592094D01*
X100392808Y-51707186D01*
X100392813Y-51707191D01*
X100507905Y-51793350D01*
X100507908Y-51793352D01*
X100642622Y-51843597D01*
X100702164Y-51849999D01*
X100702178Y-51850000D01*
X101350000Y-51850000D01*
X101350000Y-50933012D01*
X101407007Y-50965925D01*
X101534174Y-51000000D01*
X101665826Y-51000000D01*
X101792993Y-50965925D01*
X101850000Y-50933012D01*
X101850000Y-51850000D01*
X102497822Y-51850000D01*
X102497835Y-51849999D01*
X102557377Y-51843597D01*
X102692091Y-51793352D01*
X102692094Y-51793350D01*
X102807186Y-51707191D01*
X102807191Y-51707186D01*
X102893350Y-51592094D01*
X102893352Y-51592091D01*
X102943597Y-51457377D01*
X102949999Y-51397835D01*
X102950000Y-51397822D01*
X102950000Y-50750000D01*
X102033012Y-50750000D01*
X102065925Y-50692993D01*
X102100000Y-50565826D01*
X102100000Y-50434174D01*
X102065925Y-50307007D01*
X102033012Y-50250000D01*
X102950000Y-50250000D01*
X102950000Y-49602177D01*
X102949999Y-49602164D01*
X102943597Y-49542622D01*
X102893352Y-49407908D01*
X102893350Y-49407905D01*
X102807191Y-49292813D01*
X102807186Y-49292808D01*
X102692094Y-49206649D01*
X102692091Y-49206647D01*
X102557377Y-49156402D01*
X102497835Y-49150000D01*
X101850000Y-49150000D01*
X101850000Y-50066988D01*
X101792993Y-50034075D01*
X101665826Y-50000000D01*
X101534174Y-50000000D01*
X101407007Y-50034075D01*
X101350000Y-50066988D01*
X101350000Y-49150000D01*
X100702164Y-49150000D01*
X100642622Y-49156402D01*
X100507908Y-49206647D01*
X100507905Y-49206649D01*
X100392813Y-49292808D01*
X100392808Y-49292813D01*
X100306649Y-49407905D01*
X100306647Y-49407908D01*
X100256402Y-49542622D01*
X100252142Y-49582247D01*
X100229217Y-49624231D01*
X100183319Y-49637708D01*
X100141335Y-49614783D01*
X100127500Y-49575566D01*
X100127500Y-48608226D01*
X100129629Y-48592053D01*
X100131420Y-48585369D01*
X100132878Y-48579926D01*
X100149052Y-48551910D01*
X100151910Y-48549052D01*
X100179927Y-48532878D01*
X100189452Y-48530326D01*
X100192055Y-48529629D01*
X100208227Y-48527500D01*
X100321958Y-48527500D01*
X100321964Y-48527500D01*
X100438071Y-48510000D01*
X103388104Y-48510000D01*
X103405598Y-48631677D01*
X103405599Y-48631680D01*
X103456665Y-48743500D01*
X103456669Y-48743506D01*
X103528501Y-48826403D01*
X103537168Y-48836405D01*
X103640584Y-48902866D01*
X103640586Y-48902866D01*
X103640587Y-48902867D01*
X103758534Y-48937500D01*
X103758535Y-48937500D01*
X103881465Y-48937500D01*
X103999416Y-48902866D01*
X104102832Y-48836405D01*
X104183334Y-48743501D01*
X104234401Y-48631679D01*
X104251896Y-48510000D01*
X104234401Y-48388321D01*
X104183334Y-48276499D01*
X104183330Y-48276493D01*
X104102833Y-48183596D01*
X104102832Y-48183595D01*
X103999416Y-48117134D01*
X103999414Y-48117133D01*
X103999412Y-48117132D01*
X103881466Y-48082500D01*
X103881465Y-48082500D01*
X103758535Y-48082500D01*
X103758534Y-48082500D01*
X103640587Y-48117132D01*
X103537166Y-48183596D01*
X103456669Y-48276493D01*
X103456665Y-48276499D01*
X103405599Y-48388319D01*
X103405598Y-48388322D01*
X103388104Y-48510000D01*
X100438071Y-48510000D01*
X100563168Y-48491145D01*
X100563173Y-48491143D01*
X100563175Y-48491143D01*
X100620242Y-48473540D01*
X100796260Y-48419246D01*
X101016032Y-48313409D01*
X101217575Y-48175999D01*
X101396388Y-48010085D01*
X101452279Y-47940000D01*
X105518104Y-47940000D01*
X105535598Y-48061677D01*
X105535599Y-48061680D01*
X105586665Y-48173500D01*
X105586669Y-48173506D01*
X105656229Y-48253781D01*
X105667168Y-48266405D01*
X105770584Y-48332866D01*
X105770586Y-48332866D01*
X105770587Y-48332867D01*
X105888534Y-48367500D01*
X105888535Y-48367500D01*
X106011465Y-48367500D01*
X106129416Y-48332866D01*
X106232832Y-48266405D01*
X106291989Y-48198134D01*
X106313330Y-48173506D01*
X106313331Y-48173504D01*
X106313334Y-48173501D01*
X106345432Y-48103214D01*
X106380441Y-48070620D01*
X106428246Y-48072327D01*
X106459135Y-48103216D01*
X106486665Y-48163500D01*
X106486669Y-48163506D01*
X106564894Y-48253781D01*
X106567168Y-48256405D01*
X106670584Y-48322866D01*
X106670586Y-48322866D01*
X106670587Y-48322867D01*
X106788534Y-48357500D01*
X106788535Y-48357500D01*
X106911465Y-48357500D01*
X107029416Y-48322866D01*
X107132832Y-48256405D01*
X107190373Y-48190000D01*
X108238104Y-48190000D01*
X108255598Y-48311677D01*
X108255599Y-48311680D01*
X108306665Y-48423500D01*
X108306669Y-48423506D01*
X108381618Y-48510000D01*
X108387168Y-48516405D01*
X108490584Y-48582866D01*
X108490586Y-48582866D01*
X108490587Y-48582867D01*
X108608534Y-48617500D01*
X108608535Y-48617500D01*
X108731465Y-48617500D01*
X108849416Y-48582866D01*
X108952832Y-48516405D01*
X109033334Y-48423501D01*
X109058148Y-48369164D01*
X109093158Y-48336569D01*
X109140963Y-48338276D01*
X109171852Y-48369165D01*
X109196665Y-48423500D01*
X109196669Y-48423506D01*
X109271618Y-48510000D01*
X109277168Y-48516405D01*
X109380584Y-48582866D01*
X109380586Y-48582866D01*
X109380587Y-48582867D01*
X109498534Y-48617500D01*
X109498535Y-48617500D01*
X109621465Y-48617500D01*
X109739416Y-48582866D01*
X109842832Y-48516405D01*
X109923334Y-48423501D01*
X109948148Y-48369164D01*
X109983158Y-48336569D01*
X110030963Y-48338276D01*
X110061852Y-48369165D01*
X110086665Y-48423500D01*
X110086669Y-48423506D01*
X110161618Y-48510000D01*
X110167168Y-48516405D01*
X110270584Y-48582866D01*
X110270586Y-48582866D01*
X110270587Y-48582867D01*
X110388534Y-48617500D01*
X110388535Y-48617500D01*
X110511465Y-48617500D01*
X110629416Y-48582866D01*
X110732832Y-48516405D01*
X110813334Y-48423501D01*
X110864401Y-48311679D01*
X110881896Y-48190000D01*
X110864401Y-48068321D01*
X110813334Y-47956499D01*
X110813330Y-47956493D01*
X110732833Y-47863596D01*
X110732832Y-47863595D01*
X110629416Y-47797134D01*
X110629414Y-47797133D01*
X110629412Y-47797132D01*
X110511466Y-47762500D01*
X110511465Y-47762500D01*
X110388535Y-47762500D01*
X110388534Y-47762500D01*
X110270587Y-47797132D01*
X110167166Y-47863596D01*
X110086669Y-47956493D01*
X110086667Y-47956497D01*
X110086666Y-47956498D01*
X110086666Y-47956499D01*
X110062195Y-48010085D01*
X110061852Y-48010835D01*
X110026841Y-48043430D01*
X109979036Y-48041723D01*
X109948148Y-48010835D01*
X109923334Y-47956499D01*
X109923331Y-47956496D01*
X109923330Y-47956493D01*
X109842833Y-47863596D01*
X109842832Y-47863595D01*
X109739416Y-47797134D01*
X109739414Y-47797133D01*
X109739412Y-47797132D01*
X109621466Y-47762500D01*
X109621465Y-47762500D01*
X109498535Y-47762500D01*
X109498534Y-47762500D01*
X109380587Y-47797132D01*
X109277166Y-47863596D01*
X109196669Y-47956493D01*
X109196667Y-47956497D01*
X109196666Y-47956498D01*
X109196666Y-47956499D01*
X109172195Y-48010085D01*
X109171852Y-48010835D01*
X109136841Y-48043430D01*
X109089036Y-48041723D01*
X109058148Y-48010835D01*
X109033334Y-47956499D01*
X109033331Y-47956496D01*
X109033330Y-47956493D01*
X108952833Y-47863596D01*
X108952832Y-47863595D01*
X108849416Y-47797134D01*
X108849414Y-47797133D01*
X108849412Y-47797132D01*
X108731466Y-47762500D01*
X108731465Y-47762500D01*
X108608535Y-47762500D01*
X108608534Y-47762500D01*
X108490587Y-47797132D01*
X108387166Y-47863596D01*
X108306669Y-47956493D01*
X108306665Y-47956499D01*
X108255599Y-48068319D01*
X108255598Y-48068322D01*
X108238104Y-48190000D01*
X107190373Y-48190000D01*
X107195922Y-48183596D01*
X107213330Y-48163506D01*
X107213331Y-48163504D01*
X107213334Y-48163501D01*
X107264401Y-48051679D01*
X107281896Y-47930000D01*
X107264401Y-47808321D01*
X107213334Y-47696499D01*
X107213330Y-47696493D01*
X107132833Y-47603596D01*
X107132832Y-47603595D01*
X107127238Y-47600000D01*
X113458104Y-47600000D01*
X113475598Y-47721677D01*
X113475599Y-47721680D01*
X113526665Y-47833500D01*
X113526669Y-47833506D01*
X113607166Y-47926403D01*
X113607168Y-47926405D01*
X113710584Y-47992866D01*
X113710586Y-47992866D01*
X113710587Y-47992867D01*
X113828534Y-48027500D01*
X113828535Y-48027500D01*
X113951465Y-48027500D01*
X114069416Y-47992866D01*
X114172832Y-47926405D01*
X114253334Y-47833501D01*
X114304401Y-47721679D01*
X114321896Y-47600000D01*
X114304401Y-47478321D01*
X114253334Y-47366499D01*
X114253330Y-47366493D01*
X114172833Y-47273596D01*
X114172832Y-47273595D01*
X114069416Y-47207134D01*
X114069414Y-47207133D01*
X114069412Y-47207132D01*
X113951466Y-47172500D01*
X113951465Y-47172500D01*
X113828535Y-47172500D01*
X113828534Y-47172500D01*
X113710587Y-47207132D01*
X113607166Y-47273596D01*
X113526669Y-47366493D01*
X113526665Y-47366499D01*
X113475599Y-47478319D01*
X113475598Y-47478322D01*
X113458104Y-47600000D01*
X107127238Y-47600000D01*
X107029416Y-47537134D01*
X107029414Y-47537133D01*
X107029412Y-47537132D01*
X106911466Y-47502500D01*
X106911465Y-47502500D01*
X106788535Y-47502500D01*
X106788534Y-47502500D01*
X106670587Y-47537132D01*
X106567166Y-47603596D01*
X106486669Y-47696493D01*
X106486667Y-47696497D01*
X106454568Y-47766784D01*
X106419557Y-47799379D01*
X106371752Y-47797672D01*
X106340865Y-47766784D01*
X106313334Y-47706499D01*
X106313330Y-47706493D01*
X106232833Y-47613596D01*
X106232832Y-47613595D01*
X106129416Y-47547134D01*
X106129414Y-47547133D01*
X106129412Y-47547132D01*
X106011466Y-47512500D01*
X106011465Y-47512500D01*
X105888535Y-47512500D01*
X105888534Y-47512500D01*
X105770587Y-47547132D01*
X105667166Y-47613596D01*
X105586669Y-47706493D01*
X105586665Y-47706499D01*
X105535599Y-47818319D01*
X105535598Y-47818322D01*
X105518104Y-47940000D01*
X101452279Y-47940000D01*
X101548475Y-47819374D01*
X101670439Y-47608126D01*
X101759556Y-47381059D01*
X101813835Y-47143247D01*
X101832064Y-46900000D01*
X101813835Y-46656753D01*
X101759556Y-46418941D01*
X101673628Y-46200000D01*
X134448104Y-46200000D01*
X134465598Y-46321677D01*
X134465599Y-46321680D01*
X134516665Y-46433500D01*
X134516669Y-46433506D01*
X134554791Y-46477500D01*
X134597168Y-46526405D01*
X134700584Y-46592866D01*
X134700586Y-46592866D01*
X134700587Y-46592867D01*
X134818534Y-46627500D01*
X134818535Y-46627500D01*
X134941465Y-46627500D01*
X135059416Y-46592866D01*
X135162832Y-46526405D01*
X135243334Y-46433501D01*
X135294401Y-46321679D01*
X135311896Y-46200000D01*
X135294401Y-46078321D01*
X135243334Y-45966499D01*
X135243330Y-45966493D01*
X135162833Y-45873596D01*
X135162832Y-45873595D01*
X135059416Y-45807134D01*
X135059414Y-45807133D01*
X135059412Y-45807132D01*
X134941466Y-45772500D01*
X134941465Y-45772500D01*
X134818535Y-45772500D01*
X134818534Y-45772500D01*
X134700587Y-45807132D01*
X134597166Y-45873596D01*
X134516669Y-45966493D01*
X134516665Y-45966499D01*
X134465599Y-46078319D01*
X134465598Y-46078322D01*
X134448104Y-46200000D01*
X101673628Y-46200000D01*
X101670439Y-46191874D01*
X101548475Y-45980626D01*
X101548470Y-45980620D01*
X101548468Y-45980616D01*
X101405601Y-45801468D01*
X101392358Y-45755503D01*
X101415497Y-45713636D01*
X101454465Y-45700000D01*
X119349984Y-45700000D01*
X119350000Y-45700000D01*
X119399250Y-45697598D01*
X119490253Y-45659904D01*
X119559904Y-45590253D01*
X119597598Y-45499250D01*
X119600000Y-45450000D01*
X119600000Y-45351527D01*
X119600074Y-45348483D01*
X119601873Y-45311593D01*
X119606556Y-45290720D01*
X119635340Y-45221228D01*
X119648884Y-45200958D01*
X119700958Y-45148884D01*
X119721228Y-45135340D01*
X119790722Y-45106555D01*
X119811592Y-45101873D01*
X119838583Y-45100556D01*
X119848484Y-45100074D01*
X119851528Y-45100000D01*
X157810000Y-45100000D01*
X157854194Y-45118306D01*
G37*
%TD.AperFunction*%
%TD*%
M02*
