%TF.GenerationSoftware,KiCad,Pcbnew,8.99.0-unknown-77b1d367df~178~ubuntu23.10.1*%
%TF.CreationDate,2024-11-07T11:46:47-05:00*%
%TF.ProjectId,nRF54L_ePaper,6e524635-344c-45f6-9550-617065722e6b,rev?*%
%TF.SameCoordinates,Original*%
%TF.FileFunction,Legend,Top*%
%TF.FilePolarity,Positive*%
%FSLAX46Y46*%
G04 Gerber Fmt 4.6, Leading zero omitted, Abs format (unit mm)*
G04 Created by KiCad (PCBNEW 8.99.0-unknown-77b1d367df~178~ubuntu23.10.1) date 2024-11-07 11:46:47*
%MOMM*%
%LPD*%
G01*
G04 APERTURE LIST*
G04 Aperture macros list*
%AMRoundRect*
0 Rectangle with rounded corners*
0 $1 Rounding radius*
0 $2 $3 $4 $5 $6 $7 $8 $9 X,Y pos of 4 corners*
0 Add a 4 corners polygon primitive as box body*
4,1,4,$2,$3,$4,$5,$6,$7,$8,$9,$2,$3,0*
0 Add four circle primitives for the rounded corners*
1,1,$1+$1,$2,$3*
1,1,$1+$1,$4,$5*
1,1,$1+$1,$6,$7*
1,1,$1+$1,$8,$9*
0 Add four rect primitives between the rounded corners*
20,1,$1+$1,$2,$3,$4,$5,0*
20,1,$1+$1,$4,$5,$6,$7,0*
20,1,$1+$1,$6,$7,$8,$9,0*
20,1,$1+$1,$8,$9,$2,$3,0*%
G04 Aperture macros list end*
%ADD10C,0.120000*%
%ADD11R,1.050000X0.650000*%
%ADD12RoundRect,0.140000X-0.140000X-0.170000X0.140000X-0.170000X0.140000X0.170000X-0.140000X0.170000X0*%
%ADD13R,0.500000X0.300000*%
%ADD14C,0.990600*%
%ADD15C,0.787400*%
%ADD16O,2.400000X1.800000*%
G04 APERTURE END LIST*
D10*
%TO.C,JP2*%
X116970000Y-55505000D02*
X116970000Y-52905000D01*
X119630000Y-52905000D02*
X116970000Y-52905000D01*
X119630000Y-55505000D02*
X116970000Y-55505000D01*
X119630000Y-55505000D02*
X119630000Y-52905000D01*
X119630000Y-56775000D02*
X119630000Y-58105000D01*
X119630000Y-58105000D02*
X118300000Y-58105000D01*
%TO.C,SW3*%
X131800000Y-70800000D02*
X131800000Y-70700000D01*
X131800000Y-72500000D02*
X136200000Y-72500000D01*
X136200000Y-69000000D02*
X131800000Y-69000000D01*
X136200000Y-70800000D02*
X136200000Y-70700000D01*
%TO.C,J1*%
X100270000Y-49170000D02*
X101600000Y-49170000D01*
X100270000Y-50500000D02*
X100270000Y-49170000D01*
X100270000Y-51770000D02*
X100270000Y-59450000D01*
X100270000Y-51770000D02*
X102930000Y-51770000D01*
X100270000Y-59450000D02*
X102930000Y-59450000D01*
X102930000Y-51770000D02*
X102930000Y-59450000D01*
%TO.C,C25*%
X153412164Y-68890000D02*
X153627836Y-68890000D01*
X153412164Y-69610000D02*
X153627836Y-69610000D01*
%TO.C,SW4*%
X141800000Y-70800000D02*
X141800000Y-70700000D01*
X141800000Y-72500000D02*
X146200000Y-72500000D01*
X146200000Y-69000000D02*
X141800000Y-69000000D01*
X146200000Y-70800000D02*
X146200000Y-70700000D01*
%TO.C,SW2*%
X121800000Y-70800000D02*
X121800000Y-70700000D01*
X121800000Y-72500000D02*
X126200000Y-72500000D01*
X126200000Y-69000000D02*
X121800000Y-69000000D01*
X126200000Y-70800000D02*
X126200000Y-70700000D01*
%TO.C,U2*%
X154270000Y-69890000D02*
X152770000Y-69890000D01*
X154270000Y-71610000D02*
X152770000Y-71610000D01*
X154720000Y-71630000D02*
X154720000Y-71350000D01*
X155000000Y-71350000D01*
X154720000Y-71630000D01*
G36*
X154720000Y-71630000D02*
G01*
X154720000Y-71350000D01*
X155000000Y-71350000D01*
X154720000Y-71630000D01*
G37*
%TO.C,SW1*%
X111800000Y-70800000D02*
X111800000Y-70700000D01*
X111800000Y-72500000D02*
X116200000Y-72500000D01*
X116200000Y-69000000D02*
X111800000Y-69000000D01*
X116200000Y-70800000D02*
X116200000Y-70700000D01*
%TO.C,J4*%
X108670000Y-69530000D02*
X109305000Y-69530000D01*
X109305000Y-69530000D02*
X109305000Y-70165000D01*
%TD*%
%LPC*%
D11*
%TO.C,SW3*%
X131925000Y-69675000D03*
X136075000Y-69675000D03*
X131925000Y-71825000D03*
X136050000Y-71825000D03*
%TD*%
D12*
%TO.C,C25*%
X153040000Y-69250000D03*
X154000000Y-69250000D03*
%TD*%
D11*
%TO.C,SW4*%
X141925000Y-69675000D03*
X146075000Y-69675000D03*
X141925000Y-71825000D03*
X146050000Y-71825000D03*
%TD*%
%TO.C,SW2*%
X121925000Y-69675000D03*
X126075000Y-69675000D03*
X121925000Y-71825000D03*
X126050000Y-71825000D03*
%TD*%
D13*
%TO.C,U2*%
X154220000Y-71150000D03*
X154220000Y-70350000D03*
X152820000Y-70350000D03*
X152820000Y-71150000D03*
%TD*%
D11*
%TO.C,SW1*%
X111925000Y-69675000D03*
X116075000Y-69675000D03*
X111925000Y-71825000D03*
X116050000Y-71825000D03*
%TD*%
D14*
%TO.C,J4*%
X109940000Y-70800000D03*
X104860000Y-71816000D03*
X104860000Y-69784000D03*
D15*
X108670000Y-70165000D03*
X108670000Y-71435000D03*
X107400000Y-70165000D03*
X107400000Y-71435000D03*
X106130000Y-70165000D03*
X106130000Y-71435000D03*
%TD*%
D16*
%TO.C,D4*%
X102200000Y-70750000D03*
%TD*%
%LPD*%
M02*
