%TF.GenerationSoftware,KiCad,Pcbnew,8.99.0-unknown-77b1d367df~178~ubuntu23.10.1*%
%TF.CreationDate,2024-11-07T11:46:47-05:00*%
%TF.ProjectId,nRF54L_ePaper,6e524635-344c-45f6-9550-617065722e6b,rev?*%
%TF.SameCoordinates,Original*%
%TF.FileFunction,Copper,L4,Bot*%
%TF.FilePolarity,Positive*%
%FSLAX46Y46*%
G04 Gerber Fmt 4.6, Leading zero omitted, Abs format (unit mm)*
G04 Created by KiCad (PCBNEW 8.99.0-unknown-77b1d367df~178~ubuntu23.10.1) date 2024-11-07 11:46:47*
%MOMM*%
%LPD*%
G01*
G04 APERTURE LIST*
G04 Aperture macros list*
%AMRoundRect*
0 Rectangle with rounded corners*
0 $1 Rounding radius*
0 $2 $3 $4 $5 $6 $7 $8 $9 X,Y pos of 4 corners*
0 Add a 4 corners polygon primitive as box body*
4,1,4,$2,$3,$4,$5,$6,$7,$8,$9,$2,$3,0*
0 Add four circle primitives for the rounded corners*
1,1,$1+$1,$2,$3*
1,1,$1+$1,$4,$5*
1,1,$1+$1,$6,$7*
1,1,$1+$1,$8,$9*
0 Add four rect primitives between the rounded corners*
20,1,$1+$1,$2,$3,$4,$5,0*
20,1,$1+$1,$4,$5,$6,$7,0*
20,1,$1+$1,$6,$7,$8,$9,0*
20,1,$1+$1,$8,$9,$2,$3,0*%
%AMFreePoly0*
4,1,19,0.500000,-0.750000,0.000000,-0.750000,0.000000,-0.744911,-0.071157,-0.744911,-0.207708,-0.704816,-0.327430,-0.627875,-0.420627,-0.520320,-0.479746,-0.390866,-0.500000,-0.250000,-0.500000,0.250000,-0.479746,0.390866,-0.420627,0.520320,-0.327430,0.627875,-0.207708,0.704816,-0.071157,0.744911,0.000000,0.744911,0.000000,0.750000,0.500000,0.750000,0.500000,-0.750000,0.500000,-0.750000,
$1*%
%AMFreePoly1*
4,1,19,0.000000,0.744911,0.071157,0.744911,0.207708,0.704816,0.327430,0.627875,0.420627,0.520320,0.479746,0.390866,0.500000,0.250000,0.500000,-0.250000,0.479746,-0.390866,0.420627,-0.520320,0.327430,-0.627875,0.207708,-0.704816,0.071157,-0.744911,0.000000,-0.744911,0.000000,-0.750000,-0.500000,-0.750000,-0.500000,0.750000,0.000000,0.750000,0.000000,0.744911,0.000000,0.744911,
$1*%
G04 Aperture macros list end*
%TA.AperFunction,EtchedComponent*%
%ADD10C,0.000000*%
%TD*%
%TA.AperFunction,ComponentPad*%
%ADD11R,1.700000X1.700000*%
%TD*%
%TA.AperFunction,ComponentPad*%
%ADD12O,1.700000X1.700000*%
%TD*%
%TA.AperFunction,SMDPad,CuDef*%
%ADD13RoundRect,0.135000X-0.135000X-0.185000X0.135000X-0.185000X0.135000X0.185000X-0.135000X0.185000X0*%
%TD*%
%TA.AperFunction,SMDPad,CuDef*%
%ADD14RoundRect,0.135000X-0.185000X0.135000X-0.185000X-0.135000X0.185000X-0.135000X0.185000X0.135000X0*%
%TD*%
%TA.AperFunction,SMDPad,CuDef*%
%ADD15RoundRect,0.140000X-0.140000X-0.170000X0.140000X-0.170000X0.140000X0.170000X-0.140000X0.170000X0*%
%TD*%
%TA.AperFunction,SMDPad,CuDef*%
%ADD16RoundRect,0.225000X0.375000X-0.225000X0.375000X0.225000X-0.375000X0.225000X-0.375000X-0.225000X0*%
%TD*%
%TA.AperFunction,SMDPad,CuDef*%
%ADD17R,1.300000X0.300000*%
%TD*%
%TA.AperFunction,SMDPad,CuDef*%
%ADD18R,3.000000X2.000000*%
%TD*%
%TA.AperFunction,SMDPad,CuDef*%
%ADD19FreePoly0,90.000000*%
%TD*%
%TA.AperFunction,SMDPad,CuDef*%
%ADD20FreePoly1,90.000000*%
%TD*%
%TA.AperFunction,SMDPad,CuDef*%
%ADD21RoundRect,0.225000X0.225000X0.375000X-0.225000X0.375000X-0.225000X-0.375000X0.225000X-0.375000X0*%
%TD*%
%TA.AperFunction,SMDPad,CuDef*%
%ADD22RoundRect,0.200000X-0.275000X0.200000X-0.275000X-0.200000X0.275000X-0.200000X0.275000X0.200000X0*%
%TD*%
%TA.AperFunction,SMDPad,CuDef*%
%ADD23RoundRect,0.135000X0.135000X0.185000X-0.135000X0.185000X-0.135000X-0.185000X0.135000X-0.185000X0*%
%TD*%
%TA.AperFunction,SMDPad,CuDef*%
%ADD24R,5.000000X5.000000*%
%TD*%
%TA.AperFunction,SMDPad,CuDef*%
%ADD25R,4.000000X4.000000*%
%TD*%
%TA.AperFunction,SMDPad,CuDef*%
%ADD26RoundRect,0.190000X-0.685000X0.285000X-0.685000X-0.285000X0.685000X-0.285000X0.685000X0.285000X0*%
%TD*%
%TA.AperFunction,SMDPad,CuDef*%
%ADD27RoundRect,0.150000X-0.150000X0.587500X-0.150000X-0.587500X0.150000X-0.587500X0.150000X0.587500X0*%
%TD*%
%TA.AperFunction,SMDPad,CuDef*%
%ADD28RoundRect,0.250000X0.475000X-0.250000X0.475000X0.250000X-0.475000X0.250000X-0.475000X-0.250000X0*%
%TD*%
%TA.AperFunction,SMDPad,CuDef*%
%ADD29R,1.100000X0.600000*%
%TD*%
%TA.AperFunction,SMDPad,CuDef*%
%ADD30RoundRect,0.150000X0.150000X-0.587500X0.150000X0.587500X-0.150000X0.587500X-0.150000X-0.587500X0*%
%TD*%
%TA.AperFunction,SMDPad,CuDef*%
%ADD31C,0.400000*%
%TD*%
%TA.AperFunction,SMDPad,CuDef*%
%ADD32R,0.400000X0.500000*%
%TD*%
%TA.AperFunction,SMDPad,CuDef*%
%ADD33RoundRect,0.218750X-0.381250X0.218750X-0.381250X-0.218750X0.381250X-0.218750X0.381250X0.218750X0*%
%TD*%
%TA.AperFunction,ViaPad*%
%ADD34C,0.600000*%
%TD*%
%TA.AperFunction,Conductor*%
%ADD35C,0.250000*%
%TD*%
%TA.AperFunction,Conductor*%
%ADD36C,0.500000*%
%TD*%
%TA.AperFunction,Conductor*%
%ADD37C,0.150000*%
%TD*%
%TA.AperFunction,Conductor*%
%ADD38C,0.127000*%
%TD*%
G04 APERTURE END LIST*
D10*
%TA.AperFunction,EtchedComponent*%
%TO.C,JP1*%
G36*
X121400000Y-54350000D02*
G01*
X120800000Y-54350000D01*
X120800000Y-53850000D01*
X121400000Y-53850000D01*
X121400000Y-54350000D01*
G37*
%TD.AperFunction*%
%TD*%
D11*
%TO.P,JP2,1,A*%
%TO.N,Net-(BT1-+)*%
X118300000Y-56775000D03*
D12*
%TO.P,JP2,2,B*%
%TO.N,VDD*%
X118300000Y-54235000D03*
%TD*%
D11*
%TO.P,J1,1,Pin_1*%
%TO.N,VDD*%
X101600000Y-50500000D03*
D12*
%TO.P,J1,2,Pin_2*%
%TO.N,/UART_TX*%
X101600000Y-53040000D03*
%TO.P,J1,3,Pin_3*%
%TO.N,/UART_RX*%
X101600000Y-55580000D03*
%TO.P,J1,4,Pin_4*%
%TO.N,GND*%
X101600000Y-58120000D03*
%TD*%
D13*
%TO.P,R7,1*%
%TO.N,Net-(Q2-G)*%
X101690000Y-60700000D03*
%TO.P,R7,2*%
%TO.N,GND*%
X102710000Y-60700000D03*
%TD*%
%TO.P,R9,1*%
%TO.N,VDD*%
X152080000Y-67300000D03*
%TO.P,R9,2*%
%TO.N,/SCL*%
X153100000Y-67300000D03*
%TD*%
D14*
%TO.P,R8,1*%
%TO.N,VDD*%
X101200000Y-66790000D03*
%TO.P,R8,2*%
%TO.N,Net-(D4-A)*%
X101200000Y-67810000D03*
%TD*%
D15*
%TO.P,C23,1*%
%TO.N,GND*%
X143495000Y-55925000D03*
%TO.P,C23,2*%
%TO.N,/VGH*%
X144455000Y-55925000D03*
%TD*%
D16*
%TO.P,D1,1,K*%
%TO.N,Net-(D1-K)*%
X136375000Y-49525000D03*
%TO.P,D1,2,A*%
%TO.N,/PREVGL*%
X136375000Y-46225000D03*
%TD*%
D17*
%TO.P,J2,1,Pin_1*%
%TO.N,/VCOM*%
X146450000Y-47250000D03*
%TO.P,J2,2,Pin_2*%
%TO.N,/PREVGL*%
X146450000Y-47750000D03*
%TO.P,J2,3,Pin_3*%
%TO.N,/VSL*%
X146450000Y-48250000D03*
%TO.P,J2,4,Pin_4*%
%TO.N,/PREVGH*%
X146450000Y-48750000D03*
%TO.P,J2,5,Pin_5*%
%TO.N,/VSH*%
X146450000Y-49250000D03*
%TO.P,J2,6,Pin_6*%
%TO.N,/VPP*%
X146450000Y-49750000D03*
%TO.P,J2,7,Pin_7*%
%TO.N,Net-(J2-Pin_7)*%
X146450000Y-50250000D03*
%TO.P,J2,8,Pin_8*%
%TO.N,GND*%
X146450000Y-50750000D03*
%TO.P,J2,9,Pin_9*%
%TO.N,VDD*%
X146450000Y-51250000D03*
%TO.P,J2,10,Pin_10*%
X146450000Y-51750000D03*
%TO.P,J2,11,Pin_11*%
%TO.N,/EPD_DIN*%
X146450000Y-52250000D03*
%TO.P,J2,12,Pin_12*%
%TO.N,/EPD_CLK*%
X146450000Y-52750000D03*
%TO.P,J2,13,Pin_13*%
%TO.N,/EPD_CS*%
X146450000Y-53250000D03*
%TO.P,J2,14,Pin_14*%
%TO.N,/EPD_DC*%
X146450000Y-53750000D03*
%TO.P,J2,15,Pin_15*%
%TO.N,/EPD_RST*%
X146450000Y-54250000D03*
%TO.P,J2,16,Pin_16*%
%TO.N,/EPD_BUSY*%
X146450000Y-54750000D03*
%TO.P,J2,17,Pin_17*%
%TO.N,GND*%
X146450000Y-55250000D03*
%TO.P,J2,18,Pin_18*%
%TO.N,/TSDA*%
X146450000Y-55750000D03*
%TO.P,J2,19,Pin_19*%
%TO.N,/TSCL*%
X146450000Y-56250000D03*
%TO.P,J2,20,Pin_20*%
%TO.N,/VGH*%
X146450000Y-56750000D03*
%TO.P,J2,21,Pin_21*%
%TO.N,/VGL*%
X146450000Y-57250000D03*
%TO.P,J2,22,Pin_22*%
%TO.N,/RESE*%
X146450000Y-57750000D03*
%TO.P,J2,23,Pin_23*%
%TO.N,/GDR*%
X146450000Y-58250000D03*
%TO.P,J2,24,Pin_24*%
%TO.N,/HTL_CTL*%
X146450000Y-58750000D03*
D18*
%TO.P,J2,MP,MountPin*%
%TO.N,GND*%
X148800000Y-45600000D03*
X148800000Y-60400000D03*
%TD*%
D15*
%TO.P,C14,1*%
%TO.N,GND*%
X143520000Y-46700000D03*
%TO.P,C14,2*%
%TO.N,/PREVGL*%
X144480000Y-46700000D03*
%TD*%
D19*
%TO.P,JP1,1,A*%
%TO.N,Net-(BT1-+)*%
X121100000Y-54750000D03*
D20*
%TO.P,JP1,2,B*%
%TO.N,VDD*%
X121100000Y-53450000D03*
%TD*%
D21*
%TO.P,D3,1,K*%
%TO.N,GND*%
X141600000Y-46700000D03*
%TO.P,D3,2,A*%
%TO.N,Net-(D1-K)*%
X138300000Y-46700000D03*
%TD*%
D15*
%TO.P,C24,1*%
%TO.N,GND*%
X143495000Y-56800000D03*
%TO.P,C24,2*%
%TO.N,/VGL*%
X144455000Y-56800000D03*
%TD*%
%TO.P,C20,1*%
%TO.N,GND*%
X143520000Y-51200000D03*
%TO.P,C20,2*%
%TO.N,Net-(J2-Pin_7)*%
X144480000Y-51200000D03*
%TD*%
D14*
%TO.P,R1,1*%
%TO.N,/GDR*%
X144700000Y-58490000D03*
%TO.P,R1,2*%
%TO.N,GND*%
X144700000Y-59510000D03*
%TD*%
D15*
%TO.P,C15,1*%
%TO.N,GND*%
X143520000Y-47600000D03*
%TO.P,C15,2*%
%TO.N,/VSL*%
X144480000Y-47600000D03*
%TD*%
D22*
%TO.P,R3,1*%
%TO.N,/RESE*%
X143400000Y-57975000D03*
%TO.P,R3,2*%
%TO.N,GND*%
X143400000Y-59625000D03*
%TD*%
D15*
%TO.P,C22,1*%
%TO.N,GND*%
X143520000Y-52400000D03*
%TO.P,C22,2*%
%TO.N,VDD*%
X144480000Y-52400000D03*
%TD*%
%TO.P,C19,1*%
%TO.N,GND*%
X143520000Y-50300000D03*
%TO.P,C19,2*%
%TO.N,/VPP*%
X144480000Y-50300000D03*
%TD*%
D23*
%TO.P,R10,1*%
%TO.N,VDD*%
X155000000Y-67300000D03*
%TO.P,R10,2*%
%TO.N,/SDA*%
X153980000Y-67300000D03*
%TD*%
D24*
%TO.P,BT1,1,+*%
%TO.N,Net-(BT1-+)*%
X116050000Y-64000000D03*
X141950000Y-64000000D03*
D25*
%TO.P,BT1,2,-*%
%TO.N,GND*%
X129000000Y-64000000D03*
%TD*%
D26*
%TO.P,D4,1,K*%
%TO.N,Net-(D4-K)*%
X102200000Y-69200000D03*
%TO.P,D4,2,A*%
%TO.N,Net-(D4-A)*%
X102200000Y-72300000D03*
%TD*%
D27*
%TO.P,Q2,1,G*%
%TO.N,Net-(Q2-G)*%
X101250000Y-62262500D03*
%TO.P,Q2,2,S*%
%TO.N,GND*%
X103150000Y-62262500D03*
%TO.P,Q2,3,D*%
%TO.N,Net-(D4-K)*%
X102200000Y-64137500D03*
%TD*%
D15*
%TO.P,C18,1*%
%TO.N,GND*%
X143520000Y-49400000D03*
%TO.P,C18,2*%
%TO.N,/VSH*%
X144480000Y-49400000D03*
%TD*%
D21*
%TO.P,D2,1,K*%
%TO.N,/PREVGH*%
X141605000Y-49000000D03*
%TO.P,D2,2,A*%
%TO.N,Net-(D2-A)*%
X138305000Y-49000000D03*
%TD*%
D15*
%TO.P,C17,1*%
%TO.N,GND*%
X143520000Y-48500000D03*
%TO.P,C17,2*%
%TO.N,/PREVGH*%
X144480000Y-48500000D03*
%TD*%
D28*
%TO.P,C1,1*%
%TO.N,GND*%
X115800000Y-55050000D03*
%TO.P,C1,2*%
%TO.N,VDD*%
X115800000Y-53150000D03*
%TD*%
D15*
%TO.P,C21,1*%
%TO.N,GND*%
X143520000Y-53300000D03*
%TO.P,C21,2*%
%TO.N,VDD*%
X144480000Y-53300000D03*
%TD*%
D29*
%TO.P,Y2,1,1*%
%TO.N,Net-(U1-P1.01)*%
X110900000Y-57875000D03*
%TO.P,Y2,2,2*%
%TO.N,Net-(U1-P1.00)*%
X110900000Y-56475000D03*
%TD*%
D15*
%TO.P,C13,1*%
%TO.N,GND*%
X143520000Y-45800000D03*
%TO.P,C13,2*%
%TO.N,/VCOM*%
X144480000Y-45800000D03*
%TD*%
D28*
%TO.P,C2,1*%
%TO.N,Net-(D2-A)*%
X136630000Y-52940000D03*
%TO.P,C2,2*%
%TO.N,Net-(D1-K)*%
X136630000Y-51040000D03*
%TD*%
D30*
%TO.P,Q1,1,G*%
%TO.N,/GDR*%
X140337500Y-53087500D03*
%TO.P,Q1,2,S*%
%TO.N,/RESE*%
X138437500Y-53087500D03*
%TO.P,Q1,3,D*%
%TO.N,Net-(D2-A)*%
X139387500Y-51212500D03*
%TD*%
D31*
%TO.P,U1,A1,GND*%
%TO.N,GND*%
X113150000Y-47600000D03*
%TO.P,U1,A3,P1.09*%
%TO.N,/EPD_DC*%
X113150000Y-49400000D03*
D32*
%TO.P,U1,A9,GND*%
%TO.N,GND*%
X113150000Y-55050000D03*
D31*
X113150000Y-54800000D03*
%TO.P,U1,B1,GND*%
X112250000Y-47600000D03*
%TO.P,U1,B2,P1.10*%
%TO.N,/EPD_DIN*%
X112250000Y-48500000D03*
%TO.P,U1,B3,P1.11*%
%TO.N,/EPD_CLK*%
X112250000Y-49400000D03*
%TO.P,U1,B4,P1.12*%
%TO.N,/EPD_CS*%
X112250000Y-50300000D03*
%TO.P,U1,B5,P1.13*%
%TO.N,/EPD_RST*%
X112250000Y-51200000D03*
%TO.P,U1,B6,P1.14*%
%TO.N,/EPD_BUSY*%
X112250000Y-52100000D03*
%TO.P,U1,B7,GND*%
%TO.N,GND*%
X112250000Y-53000000D03*
%TO.P,U1,B8,VDD*%
%TO.N,VDD*%
X112250000Y-53900000D03*
D32*
%TO.P,U1,B9,GND*%
%TO.N,GND*%
X112250000Y-55050000D03*
D31*
X112250000Y-54800000D03*
%TO.P,U1,C8,VDD*%
%TO.N,VDD*%
X111350000Y-53900000D03*
D32*
%TO.P,U1,C9,P1.01*%
%TO.N,Net-(U1-P1.01)*%
X111350000Y-55050000D03*
D31*
X111350000Y-54800000D03*
%TO.P,U1,D1,GND*%
%TO.N,GND*%
X110450000Y-47600000D03*
%TO.P,U1,D8,P1.00*%
%TO.N,Net-(U1-P1.00)*%
X110450000Y-53900000D03*
D32*
%TO.P,U1,D9,P1.02*%
%TO.N,/UART_RX*%
X110450000Y-55050000D03*
D31*
X110450000Y-54800000D03*
%TO.P,U1,E1,GND*%
%TO.N,GND*%
X109550000Y-47600000D03*
%TO.P,U1,E8,P1.03*%
%TO.N,unconnected-(U1-P1.03-PadE8)*%
X109550000Y-53900000D03*
D32*
%TO.P,U1,E9,P1.04*%
%TO.N,/UART_TX*%
X109550000Y-55050000D03*
D31*
X109550000Y-54800000D03*
%TO.P,U1,F1,GND*%
%TO.N,GND*%
X108650000Y-47600000D03*
%TO.P,U1,F8,P1.05*%
%TO.N,/SW4*%
X108650000Y-53900000D03*
D32*
%TO.P,U1,F9,P1.06*%
%TO.N,/SW3*%
X108650000Y-55050000D03*
D31*
X108650000Y-54800000D03*
%TO.P,U1,G2,~{RESET}*%
%TO.N,Net-(J4-~{RESET})*%
X107750000Y-48500000D03*
%TO.P,U1,G8,P1.08*%
%TO.N,/SW2*%
X107750000Y-53900000D03*
D32*
%TO.P,U1,G9,P1.07*%
%TO.N,/SW1*%
X107750000Y-55050000D03*
D31*
X107750000Y-54800000D03*
%TO.P,U1,H2,P0.04*%
%TO.N,/SCL*%
X106850000Y-48500000D03*
%TO.P,U1,H8,GND*%
%TO.N,GND*%
X106850000Y-53900000D03*
D32*
%TO.P,U1,H9,P2.00*%
%TO.N,unconnected-(U1-P2.00-PadH9)_1*%
X106850000Y-55050000D03*
D31*
%TO.N,unconnected-(U1-P2.00-PadH9)*%
X106850000Y-54800000D03*
%TO.P,U1,J2,P0.03*%
%TO.N,/SDA*%
X105950000Y-48500000D03*
%TO.P,U1,J3,SWDIO*%
%TO.N,Net-(J4-SWDIO)*%
X105950000Y-49400000D03*
%TO.P,U1,J4,P0.00*%
%TO.N,unconnected-(U1-P0.00-PadJ4)*%
X105950000Y-50300000D03*
%TO.P,U1,J5,P2.09*%
%TO.N,unconnected-(U1-P2.09-PadJ5)*%
X105950000Y-51200000D03*
%TO.P,U1,J6,P2.07*%
%TO.N,unconnected-(U1-P2.07-PadJ6)*%
X105950000Y-52100000D03*
%TO.P,U1,J7,P2.03*%
%TO.N,unconnected-(U1-P2.03-PadJ7)*%
X105950000Y-53000000D03*
%TO.P,U1,J8,P2.02*%
%TO.N,unconnected-(U1-P2.02-PadJ8)*%
X105950000Y-53900000D03*
D32*
%TO.P,U1,J9,P2.01*%
%TO.N,unconnected-(U1-P2.01-PadJ9)*%
X105950000Y-55050000D03*
D31*
%TO.N,unconnected-(U1-P2.01-PadJ9)_1*%
X105950000Y-54800000D03*
%TO.P,U1,K2,P0.02*%
%TO.N,Net-(Q2-G)*%
X105050000Y-48500000D03*
%TO.P,U1,K3,SWDCLK*%
%TO.N,Net-(J4-SWCLK)*%
X105050000Y-49400000D03*
%TO.P,U1,K4,P0.01*%
%TO.N,unconnected-(U1-P0.01-PadK4)*%
X105050000Y-50300000D03*
%TO.P,U1,K5,P2.10*%
%TO.N,unconnected-(U1-P2.10-PadK5)*%
X105050000Y-51200000D03*
%TO.P,U1,K6,P2.08*%
%TO.N,unconnected-(U1-P2.08-PadK6)*%
X105050000Y-52100000D03*
%TO.P,U1,K7,P2.06*%
%TO.N,unconnected-(U1-P2.06-PadK7)*%
X105050000Y-53000000D03*
%TO.P,U1,K8,P2.05*%
%TO.N,unconnected-(U1-P2.05-PadK8)*%
X105050000Y-53900000D03*
D32*
%TO.P,U1,K9,P2.04*%
%TO.N,unconnected-(U1-P2.04-PadK9)_1*%
X105050000Y-55050000D03*
D31*
%TO.N,unconnected-(U1-P2.04-PadK9)*%
X105050000Y-54800000D03*
%TD*%
D33*
%TO.P,L4,1*%
%TO.N,Net-(D2-A)*%
X142200000Y-50937500D03*
%TO.P,L4,2*%
%TO.N,VDD*%
X142200000Y-53062500D03*
%TD*%
D34*
%TO.N,VDD*%
X109400000Y-69200000D03*
X151460000Y-67300000D03*
X113600000Y-53500000D03*
X142200000Y-53840000D03*
X153040000Y-68600000D03*
X101190000Y-66090000D03*
X145230000Y-52040000D03*
X155620000Y-67300000D03*
%TO.N,GND*%
X137070000Y-69670000D03*
X142790000Y-48500000D03*
X109560000Y-48190000D03*
X106850000Y-53360000D03*
X142780000Y-56070000D03*
X142790000Y-46700000D03*
X117000000Y-69680000D03*
X144700000Y-60280000D03*
X104010000Y-62260000D03*
X108670000Y-48190000D03*
X152110000Y-71150000D03*
X142790000Y-45800000D03*
X103550000Y-60700000D03*
X142870000Y-56808000D03*
X113890000Y-47600000D03*
X142790000Y-47600000D03*
X113180000Y-55660000D03*
X112260000Y-55650000D03*
X142780000Y-49410000D03*
X114690000Y-55060000D03*
X147460000Y-50750000D03*
X147130000Y-69670000D03*
X127050000Y-69680000D03*
X147580000Y-55250000D03*
X143400000Y-60430000D03*
X106100000Y-69200000D03*
X110450000Y-48190000D03*
X112880000Y-53000000D03*
%TO.N,/PREVGL*%
X145185000Y-46905000D03*
X134880000Y-46200000D03*
%TO.N,/SCL*%
X109670000Y-59340000D03*
X154860000Y-70350000D03*
X106850000Y-47930000D03*
%TO.N,/SDA*%
X155570000Y-71150000D03*
X105950000Y-47940000D03*
X110370000Y-59730000D03*
%TO.N,/PREVGH*%
X145230466Y-48707047D03*
X140680000Y-49000000D03*
%TO.N,/GDR*%
X140340000Y-54140000D03*
X145370000Y-58490000D03*
%TO.N,/RESE*%
X142600000Y-57970000D03*
X138440000Y-54140000D03*
%TO.N,/EPD_DC*%
X130050000Y-49640000D03*
X147700000Y-53340000D03*
%TO.N,Net-(Q2-G)*%
X103820000Y-48510000D03*
X103760000Y-59620000D03*
%TO.N,Net-(J4-SWDIO)*%
X108700000Y-72400000D03*
X106560000Y-49400000D03*
%TO.N,Net-(J4-~{RESET})*%
X107750000Y-49070000D03*
X108000000Y-67600000D03*
%TO.N,Net-(J4-SWCLK)*%
X104440000Y-49400000D03*
X107400000Y-72400000D03*
%TO.N,/SW1*%
X116990000Y-71810000D03*
%TO.N,/SW2*%
X127000000Y-71830000D03*
%TO.N,/SW3*%
X136980000Y-71820000D03*
%TO.N,/SW4*%
X147110000Y-71830000D03*
%TO.N,/UART_TX*%
X111200000Y-59800000D03*
X106920000Y-59020000D03*
%TO.N,/UART_RX*%
X107100000Y-60100000D03*
X111800000Y-59300000D03*
%TO.N,Net-(BT1-+)*%
X116030000Y-60820000D03*
X141960000Y-60800000D03*
%TD*%
D35*
%TO.N,VDD*%
X142200000Y-53062500D02*
X142200000Y-53840000D01*
X144480000Y-53300000D02*
X144480000Y-52400000D01*
D36*
X121100000Y-53450000D02*
X119085000Y-53450000D01*
D35*
X152080000Y-67300000D02*
X151460000Y-67300000D01*
X146350000Y-51250000D02*
X146350000Y-51750000D01*
X144870000Y-52400000D02*
X144480000Y-52400000D01*
X155000000Y-67300000D02*
X155620000Y-67300000D01*
D36*
X113600000Y-53500000D02*
X113950000Y-53150000D01*
D35*
X145520000Y-51750000D02*
X144870000Y-52400000D01*
D36*
X113200000Y-53900000D02*
X111350000Y-53900000D01*
D35*
X101200000Y-66100000D02*
X101190000Y-66090000D01*
D36*
X119085000Y-53450000D02*
X118300000Y-54235000D01*
D35*
X101200000Y-66790000D02*
X101200000Y-66100000D01*
D36*
X113950000Y-53150000D02*
X115800000Y-53150000D01*
X113600000Y-53500000D02*
X113200000Y-53900000D01*
D35*
X146350000Y-51750000D02*
X145520000Y-51750000D01*
%TO.N,GND*%
X142900000Y-49400000D02*
X142890000Y-49410000D01*
X143520000Y-49400000D02*
X142900000Y-49400000D01*
D36*
X114700000Y-55050000D02*
X114690000Y-55060000D01*
D35*
X143520000Y-45800000D02*
X142790000Y-45800000D01*
D36*
X113150000Y-47600000D02*
X113890000Y-47600000D01*
D35*
X142878000Y-56800000D02*
X142870000Y-56808000D01*
X143400000Y-59625000D02*
X143400000Y-60430000D01*
X103150000Y-62262500D02*
X104007500Y-62262500D01*
X112250000Y-53000000D02*
X112880000Y-53000000D01*
X143520000Y-53300000D02*
X143520000Y-52400000D01*
D36*
X106850000Y-53900000D02*
X106850000Y-53360000D01*
X112250000Y-55050000D02*
X112250000Y-55640000D01*
D35*
X146350000Y-55250000D02*
X147580000Y-55250000D01*
X143520000Y-52400000D02*
X143520000Y-45800000D01*
D36*
X108650000Y-47600000D02*
X108650000Y-48170000D01*
D35*
X143510000Y-49410000D02*
X143520000Y-49400000D01*
D36*
X108650000Y-48170000D02*
X108670000Y-48190000D01*
D35*
X102710000Y-60700000D02*
X103550000Y-60700000D01*
X144700000Y-59510000D02*
X144700000Y-60280000D01*
D36*
X109550000Y-48180000D02*
X109560000Y-48190000D01*
D35*
X143495000Y-56800000D02*
X142878000Y-56800000D01*
X104007500Y-62262500D02*
X104010000Y-62260000D01*
X143520000Y-48500000D02*
X142790000Y-48500000D01*
X142925000Y-55925000D02*
X143495000Y-55925000D01*
D36*
X141600000Y-46700000D02*
X142790000Y-46700000D01*
X110450000Y-47600000D02*
X110450000Y-48190000D01*
D35*
X142780000Y-56070000D02*
X142925000Y-55925000D01*
X143520000Y-47600000D02*
X142790000Y-47600000D01*
D36*
X115800000Y-55050000D02*
X114700000Y-55050000D01*
D35*
X143520000Y-46700000D02*
X142790000Y-46700000D01*
D36*
X113150000Y-55630000D02*
X113180000Y-55660000D01*
X112250000Y-55640000D02*
X112260000Y-55650000D01*
D35*
X142780000Y-49410000D02*
X143510000Y-49410000D01*
X146350000Y-50750000D02*
X147460000Y-50750000D01*
D36*
X113150000Y-55050000D02*
X113150000Y-55630000D01*
X113150000Y-47600000D02*
X112250000Y-47600000D01*
X109550000Y-47600000D02*
X109550000Y-48180000D01*
D35*
%TO.N,/VCOM*%
X146350000Y-47250000D02*
X146350000Y-46955000D01*
X145195000Y-45800000D02*
X144480000Y-45800000D01*
X146350000Y-46955000D02*
X145195000Y-45800000D01*
%TO.N,/PREVGL*%
X146350000Y-47750000D02*
X145690000Y-47750000D01*
D36*
X134880000Y-46200000D02*
X136350000Y-46200000D01*
D35*
X145330000Y-47050000D02*
X145185000Y-46905000D01*
X145185000Y-46905000D02*
X144980000Y-46700000D01*
X144980000Y-46700000D02*
X144480000Y-46700000D01*
D36*
X136350000Y-46200000D02*
X136375000Y-46225000D01*
D35*
X145690000Y-47750000D02*
X145330000Y-47390000D01*
X145330000Y-47390000D02*
X145330000Y-47050000D01*
%TO.N,/VSL*%
X144890000Y-47600000D02*
X144480000Y-47600000D01*
X145540000Y-48250000D02*
X144890000Y-47600000D01*
X146350000Y-48250000D02*
X145540000Y-48250000D01*
D37*
%TO.N,/SCL*%
X109670000Y-59880000D02*
X109520000Y-60030000D01*
X154860000Y-70011738D02*
X153703000Y-68854738D01*
X109670000Y-59340000D02*
X109670000Y-59880000D01*
X109520000Y-60840000D02*
X112530000Y-63850000D01*
X112530000Y-63850000D02*
X112530000Y-66820000D01*
X154860000Y-70350000D02*
X154860000Y-70011738D01*
X143630000Y-69000000D02*
X145480000Y-67150000D01*
X153100000Y-66410000D02*
X153100000Y-67300000D01*
X151970000Y-65280000D02*
X153100000Y-66410000D01*
X109520000Y-60030000D02*
X109520000Y-60840000D01*
X153703000Y-68303000D02*
X153100000Y-67700000D01*
X145480000Y-65700000D02*
X145900000Y-65280000D01*
X112530000Y-66820000D02*
X114710000Y-69000000D01*
X145480000Y-67150000D02*
X145480000Y-65700000D01*
X145900000Y-65280000D02*
X151970000Y-65280000D01*
X153703000Y-68854738D02*
X153703000Y-68303000D01*
X106850000Y-48500000D02*
X106850000Y-47930000D01*
X114710000Y-69000000D02*
X143630000Y-69000000D01*
X153100000Y-67700000D02*
X153100000Y-67300000D01*
%TO.N,/EPD_DIN*%
X130460000Y-48500000D02*
X112250000Y-48500000D01*
X146350000Y-52250000D02*
X145750000Y-52250000D01*
X145000000Y-53650000D02*
X144790000Y-53860000D01*
X136602000Y-54642000D02*
X130460000Y-48500000D01*
X144790000Y-53860000D02*
X142890000Y-53860000D01*
X145750000Y-52250000D02*
X145000000Y-53000000D01*
X142890000Y-53860000D02*
X142408000Y-54342000D01*
X145000000Y-53000000D02*
X145000000Y-53650000D01*
X140708000Y-54642000D02*
X136602000Y-54642000D01*
X142408000Y-54342000D02*
X141008000Y-54342000D01*
X141008000Y-54342000D02*
X140708000Y-54642000D01*
%TO.N,/SDA*%
X112870000Y-63660000D02*
X110000000Y-60790000D01*
X155570000Y-70840000D02*
X155570000Y-71150000D01*
X145180000Y-66970000D02*
X143500000Y-68650000D01*
D38*
X105950000Y-48500000D02*
X105950000Y-47940000D01*
D37*
X112870000Y-66660000D02*
X112870000Y-63660000D01*
X153980000Y-67300000D02*
X153980000Y-68740000D01*
X153980000Y-67300000D02*
X153980000Y-66410000D01*
X145780000Y-64840000D02*
X145180000Y-65440000D01*
X154480000Y-69240000D02*
X155570000Y-70330000D01*
X155570000Y-70330000D02*
X155570000Y-70840000D01*
X153980000Y-68740000D02*
X154480000Y-69240000D01*
X110000000Y-60790000D02*
X110000000Y-60100000D01*
X152410000Y-64840000D02*
X145780000Y-64840000D01*
X143500000Y-68650000D02*
X114860000Y-68650000D01*
X145180000Y-65440000D02*
X145180000Y-66970000D01*
X110000000Y-60100000D02*
X110370000Y-59730000D01*
X153980000Y-66410000D02*
X152410000Y-64840000D01*
X114860000Y-68650000D02*
X112870000Y-66660000D01*
%TO.N,/EPD_CLK*%
X130340000Y-48810000D02*
X136449000Y-54919000D01*
X145277000Y-53764738D02*
X145277000Y-53114738D01*
X142522738Y-54619000D02*
X143004738Y-54137000D01*
X112840000Y-48810000D02*
X130340000Y-48810000D01*
X136449000Y-54919000D02*
X140822738Y-54919000D01*
X112250000Y-49400000D02*
X112840000Y-48810000D01*
X140822738Y-54919000D02*
X141122738Y-54619000D01*
X145641738Y-52750000D02*
X146350000Y-52750000D01*
X143004738Y-54137000D02*
X144904738Y-54137000D01*
X144904738Y-54137000D02*
X145277000Y-53764738D01*
X145277000Y-53114738D02*
X145641738Y-52750000D01*
X141122738Y-54619000D02*
X142522738Y-54619000D01*
%TO.N,Net-(U1-P1.01)*%
X111750000Y-57650000D02*
X111525000Y-57875000D01*
X111525000Y-57875000D02*
X110900000Y-57875000D01*
X111750000Y-56100000D02*
X111750000Y-57650000D01*
X111350000Y-55050000D02*
X111350000Y-55700000D01*
X111350000Y-55700000D02*
X111750000Y-56100000D01*
%TO.N,Net-(U1-P1.00)*%
X110900000Y-54350000D02*
X110450000Y-53900000D01*
X110900000Y-56475000D02*
X110900000Y-54350000D01*
D36*
%TO.N,Net-(D2-A)*%
X138305000Y-49000000D02*
X138305000Y-50430000D01*
X138305000Y-50430000D02*
X138305000Y-51165000D01*
X137500000Y-52940000D02*
X137640000Y-52800000D01*
X138305000Y-50710000D02*
X138305000Y-50897500D01*
X140627500Y-51212500D02*
X139387500Y-51212500D01*
X139387500Y-51212500D02*
X138620000Y-51212500D01*
X138305000Y-50430000D02*
X138305000Y-50710000D01*
X136630000Y-52940000D02*
X137500000Y-52940000D01*
X137640000Y-52800000D02*
X137640000Y-51830000D01*
X138257500Y-51212500D02*
X138620000Y-51212500D01*
X140902500Y-50937500D02*
X140627500Y-51212500D01*
X138305000Y-51165000D02*
X138257500Y-51212500D01*
X142200000Y-50937500D02*
X140902500Y-50937500D01*
X138305000Y-50897500D02*
X138620000Y-51212500D01*
X137640000Y-51830000D02*
X138257500Y-51212500D01*
%TO.N,Net-(D1-K)*%
X136630000Y-50420000D02*
X136375000Y-50165000D01*
X136630000Y-51040000D02*
X136630000Y-50420000D01*
X136375000Y-48000000D02*
X136375000Y-49525000D01*
X138300000Y-46700000D02*
X137675000Y-46700000D01*
X136375000Y-50165000D02*
X136375000Y-49525000D01*
X137675000Y-46700000D02*
X136375000Y-48000000D01*
D35*
%TO.N,/PREVGH*%
X144480000Y-48500000D02*
X145030000Y-48500000D01*
X145023419Y-48500000D02*
X145230466Y-48707047D01*
X145280000Y-48750000D02*
X146350000Y-48750000D01*
X145030000Y-48500000D02*
X145280000Y-48750000D01*
D36*
X141605000Y-49000000D02*
X140680000Y-49000000D01*
D35*
X144480000Y-48500000D02*
X145023419Y-48500000D01*
%TO.N,/VSH*%
X145330000Y-49250000D02*
X145180000Y-49400000D01*
X146350000Y-49250000D02*
X145330000Y-49250000D01*
X145180000Y-49400000D02*
X144480000Y-49400000D01*
%TO.N,/VPP*%
X144480000Y-50300000D02*
X145020000Y-50300000D01*
X145020000Y-50300000D02*
X145570000Y-49750000D01*
X145570000Y-49750000D02*
X146350000Y-49750000D01*
%TO.N,/VGH*%
X144805000Y-55925000D02*
X144455000Y-55925000D01*
X146350000Y-56750000D02*
X145630000Y-56750000D01*
X145630000Y-56750000D02*
X144805000Y-55925000D01*
%TO.N,/VGL*%
X145300000Y-57250000D02*
X146350000Y-57250000D01*
X144455000Y-56800000D02*
X144850000Y-56800000D01*
X144850000Y-56800000D02*
X145300000Y-57250000D01*
D37*
%TO.N,/EPD_BUSY*%
X143348952Y-54968000D02*
X142866952Y-55450000D01*
X145248952Y-54968000D02*
X143348952Y-54968000D01*
X141466951Y-55450000D02*
X141162951Y-55754000D01*
X135924000Y-55754000D02*
X132270000Y-52100000D01*
X145466952Y-54750000D02*
X145248952Y-54968000D01*
X141162951Y-55754000D02*
X135924000Y-55754000D01*
X132270000Y-52100000D02*
X112250000Y-52100000D01*
X142866952Y-55450000D02*
X141466951Y-55450000D01*
X146350000Y-54750000D02*
X145466952Y-54750000D01*
D35*
%TO.N,Net-(J2-Pin_7)*%
X145646000Y-50250000D02*
X146350000Y-50250000D01*
X145130000Y-50766000D02*
X145646000Y-50250000D01*
X144480000Y-51200000D02*
X144880000Y-51200000D01*
X145130000Y-50950000D02*
X145130000Y-50766000D01*
X144880000Y-51200000D02*
X145130000Y-50950000D01*
%TO.N,/GDR*%
X146350000Y-58250000D02*
X145610000Y-58250000D01*
X145610000Y-58250000D02*
X145370000Y-58490000D01*
X140337500Y-53087500D02*
X140337500Y-54137500D01*
X140337500Y-54137500D02*
X140340000Y-54140000D01*
X144700000Y-58490000D02*
X145370000Y-58490000D01*
%TO.N,/RESE*%
X144470000Y-57750000D02*
X144245000Y-57975000D01*
X138437500Y-53087500D02*
X138437500Y-54137500D01*
X146350000Y-57750000D02*
X144470000Y-57750000D01*
X143400000Y-57975000D02*
X142605000Y-57975000D01*
X142605000Y-57975000D02*
X142600000Y-57970000D01*
X138437500Y-54137500D02*
X138440000Y-54140000D01*
X144245000Y-57975000D02*
X143400000Y-57975000D01*
D37*
%TO.N,/EPD_CS*%
X140937476Y-55196000D02*
X140937475Y-55196000D01*
X145554000Y-53356000D02*
X145554000Y-53879476D01*
X145019476Y-54414000D02*
X143119476Y-54414000D01*
X145554000Y-53879476D02*
X145019476Y-54414000D01*
X140937475Y-55196000D02*
X140933475Y-55200000D01*
X146350000Y-53250000D02*
X145660000Y-53250000D01*
X141150000Y-54983475D02*
X140937476Y-55196000D01*
X142637476Y-54896000D02*
X141237475Y-54896000D01*
X145660000Y-53250000D02*
X145554000Y-53356000D01*
X136280000Y-55200000D02*
X131380000Y-50300000D01*
X141237475Y-54896000D02*
X141150000Y-54983475D01*
X131380000Y-50300000D02*
X112250000Y-50300000D01*
X140933475Y-55200000D02*
X136280000Y-55200000D01*
X143119476Y-54414000D02*
X142637476Y-54896000D01*
%TO.N,/EPD_DC*%
X147290000Y-53750000D02*
X146350000Y-53750000D01*
X147700000Y-53340000D02*
X147290000Y-53750000D01*
X113150000Y-49400000D02*
X129810000Y-49400000D01*
X129810000Y-49400000D02*
X130050000Y-49640000D01*
%TO.N,/EPD_RST*%
X145575214Y-54250000D02*
X146350000Y-54250000D01*
X141048213Y-55477000D02*
X141214476Y-55310737D01*
X145134214Y-54691000D02*
X145575214Y-54250000D01*
X112250000Y-51200000D02*
X131850000Y-51200000D01*
X136127000Y-55477000D02*
X141048213Y-55477000D01*
X143234214Y-54691000D02*
X145134214Y-54691000D01*
X131850000Y-51200000D02*
X136127000Y-55477000D01*
X142752214Y-55173000D02*
X143234214Y-54691000D01*
X141214476Y-55310737D02*
X141255212Y-55270000D01*
X141255212Y-55270000D02*
X141352212Y-55173000D01*
X141352212Y-55173000D02*
X142752214Y-55173000D01*
D35*
%TO.N,Net-(D4-K)*%
X102200000Y-64137500D02*
X102200000Y-69200000D01*
%TO.N,Net-(Q2-G)*%
X101250000Y-61540000D02*
X101250000Y-62262500D01*
D38*
X105050000Y-48500000D02*
X103830000Y-48500000D01*
X101690000Y-59940000D02*
X101690000Y-60700000D01*
X103830000Y-48500000D02*
X103820000Y-48510000D01*
X103760000Y-59620000D02*
X102010000Y-59620000D01*
X102010000Y-59620000D02*
X101690000Y-59940000D01*
D35*
X101690000Y-61100000D02*
X101250000Y-61540000D01*
X101690000Y-60700000D02*
X101690000Y-61100000D01*
%TO.N,Net-(D4-A)*%
X100930000Y-72300000D02*
X100470000Y-71840000D01*
X102200000Y-72300000D02*
X100930000Y-72300000D01*
X100470000Y-71840000D02*
X100470000Y-69110000D01*
X100470000Y-69110000D02*
X101200000Y-68380000D01*
X101200000Y-68380000D02*
X101200000Y-67810000D01*
D37*
%TO.N,Net-(J4-SWDIO)*%
X105950000Y-49400000D02*
X106560000Y-49400000D01*
%TO.N,Net-(J4-~{RESET})*%
X107750000Y-48500000D02*
X107750000Y-49070000D01*
%TO.N,Net-(J4-SWCLK)*%
X105050000Y-49400000D02*
X104440000Y-49400000D01*
%TO.N,/SW1*%
X111220000Y-64740000D02*
X111220000Y-67390000D01*
X107750000Y-61270000D02*
X108110000Y-61630000D01*
X115640000Y-71810000D02*
X116990000Y-71810000D01*
X108110000Y-61630000D02*
X111220000Y-64740000D01*
X111220000Y-67390000D02*
X115640000Y-71810000D01*
X107750000Y-55050000D02*
X107750000Y-61270000D01*
%TO.N,/SW2*%
X108248000Y-54398000D02*
X108248000Y-61328000D01*
X108550000Y-61630000D02*
X111560000Y-64640000D01*
X111560000Y-67260000D02*
X115450000Y-71150000D01*
X108248000Y-61328000D02*
X108550000Y-61630000D01*
X115450000Y-71150000D02*
X126320000Y-71150000D01*
X126320000Y-71150000D02*
X127000000Y-71830000D01*
X111560000Y-64640000D02*
X111560000Y-67260000D01*
X107750000Y-53900000D02*
X108248000Y-54398000D01*
%TO.N,/SW3*%
X111860000Y-67050000D02*
X115620000Y-70810000D01*
X108650000Y-61250000D02*
X108975000Y-61575000D01*
X108650000Y-55050000D02*
X108650000Y-61250000D01*
X108975000Y-61575000D02*
X111860000Y-64460000D01*
X135970000Y-70810000D02*
X136980000Y-71820000D01*
X115620000Y-70810000D02*
X135970000Y-70810000D01*
X111860000Y-64460000D02*
X111860000Y-67050000D01*
%TO.N,/SW4*%
X109100000Y-61210000D02*
X109150000Y-61260000D01*
X112190000Y-66980000D02*
X115670000Y-70460000D01*
X109100000Y-54350000D02*
X109100000Y-61210000D01*
X115670000Y-70460000D02*
X145740000Y-70460000D01*
X145740000Y-70460000D02*
X147110000Y-71830000D01*
X109150000Y-61260000D02*
X112190000Y-64300000D01*
X112190000Y-64300000D02*
X112190000Y-66980000D01*
X108650000Y-53900000D02*
X109100000Y-54350000D01*
%TO.N,/UART_TX*%
X104000000Y-56100000D02*
X104000000Y-53500000D01*
X110200000Y-58800000D02*
X111200000Y-59800000D01*
X106920000Y-59020000D02*
X104000000Y-56100000D01*
X109550000Y-55050000D02*
X109550000Y-58650000D01*
X109700000Y-58800000D02*
X110200000Y-58800000D01*
X103540000Y-53040000D02*
X101600000Y-53040000D01*
X109550000Y-58650000D02*
X109700000Y-58800000D01*
X104000000Y-53500000D02*
X103540000Y-53040000D01*
%TO.N,/UART_RX*%
X103280000Y-55580000D02*
X103500000Y-55800000D01*
X109900000Y-58400000D02*
X110000000Y-58500000D01*
X103500000Y-56500000D02*
X107100000Y-60100000D01*
X110000000Y-58500000D02*
X110023000Y-58523000D01*
X103500000Y-55800000D02*
X103500000Y-56500000D01*
X110450000Y-55450000D02*
X110200000Y-55700000D01*
X111023000Y-58523000D02*
X111800000Y-59300000D01*
X109900000Y-56000000D02*
X109900000Y-56600000D01*
X109900000Y-56600000D02*
X109900000Y-58400000D01*
X110450000Y-55050000D02*
X110450000Y-55450000D01*
X110023000Y-58523000D02*
X111023000Y-58523000D01*
X101600000Y-55580000D02*
X103280000Y-55580000D01*
X110200000Y-55700000D02*
X109900000Y-56000000D01*
D36*
%TO.N,Net-(BT1-+)*%
X141950000Y-60810000D02*
X141960000Y-60800000D01*
X141950000Y-64000000D02*
X141950000Y-60810000D01*
X117225000Y-56775000D02*
X118300000Y-56775000D01*
X116050000Y-64000000D02*
X116050000Y-60840000D01*
X116030000Y-60820000D02*
X116030000Y-57970000D01*
X121100000Y-56100000D02*
X121100000Y-54750000D01*
X116050000Y-60840000D02*
X116030000Y-60820000D01*
X116030000Y-57970000D02*
X117225000Y-56775000D01*
X120425000Y-56775000D02*
X121100000Y-56100000D01*
X118300000Y-56775000D02*
X120425000Y-56775000D01*
%TD*%
%TA.AperFunction,Conductor*%
%TO.N,GND*%
G36*
X142898208Y-45118306D02*
G01*
X142916514Y-45162500D01*
X142898208Y-45206694D01*
X142870281Y-45234621D01*
X142870279Y-45234622D01*
X142787969Y-45373802D01*
X142787968Y-45373803D01*
X142742854Y-45529086D01*
X142742854Y-45529091D01*
X142741208Y-45549999D01*
X142741209Y-45550000D01*
X143457500Y-45550000D01*
X143501694Y-45568306D01*
X143520000Y-45612500D01*
X143520000Y-45800000D01*
X143707500Y-45800000D01*
X143751694Y-45818306D01*
X143770000Y-45862500D01*
X143770000Y-53237500D01*
X143751694Y-53281694D01*
X143707500Y-53300000D01*
X143332500Y-53300000D01*
X143288306Y-53281694D01*
X143270000Y-53237500D01*
X143270000Y-52650000D01*
X142903058Y-52650000D01*
X142858864Y-52631694D01*
X142782915Y-52555744D01*
X142672247Y-52504138D01*
X142621819Y-52497500D01*
X141778190Y-52497500D01*
X141778188Y-52497500D01*
X141778182Y-52497501D01*
X141727752Y-52504139D01*
X141727750Y-52504139D01*
X141727749Y-52504140D01*
X141617084Y-52555744D01*
X141617084Y-52555745D01*
X141530745Y-52642084D01*
X141530744Y-52642084D01*
X141479138Y-52752752D01*
X141472500Y-52803174D01*
X141472500Y-53321809D01*
X141472500Y-53321810D01*
X141472501Y-53321818D01*
X141479139Y-53372248D01*
X141479140Y-53372250D01*
X141530744Y-53482915D01*
X141617084Y-53569255D01*
X141617085Y-53569255D01*
X141617086Y-53569256D01*
X141661033Y-53589749D01*
X141727752Y-53620861D01*
X141740490Y-53622538D01*
X141781917Y-53646455D01*
X141794298Y-53692660D01*
X141789187Y-53710462D01*
X141785599Y-53718318D01*
X141785598Y-53718322D01*
X141768104Y-53839999D01*
X141785598Y-53961677D01*
X141785599Y-53961680D01*
X141826407Y-54051037D01*
X141828114Y-54098842D01*
X141795518Y-54133852D01*
X141769555Y-54139500D01*
X140967717Y-54139500D01*
X140893296Y-54170326D01*
X140893291Y-54170330D01*
X140878589Y-54185032D01*
X140834394Y-54203337D01*
X140790201Y-54185030D01*
X140773334Y-54144309D01*
X140772532Y-54144425D01*
X140772079Y-54141281D01*
X140771896Y-54140837D01*
X140771896Y-54140001D01*
X140770883Y-54132952D01*
X140754401Y-54018321D01*
X140704151Y-53908290D01*
X140702445Y-53860487D01*
X140716811Y-53838133D01*
X140720403Y-53834542D01*
X140762308Y-53739634D01*
X140763094Y-53732866D01*
X140764999Y-53716441D01*
X140765000Y-53716439D01*
X140765000Y-52458560D01*
X140764999Y-52458558D01*
X140762309Y-52435370D01*
X140762307Y-52435364D01*
X140720405Y-52340461D01*
X140720402Y-52340457D01*
X140647042Y-52267097D01*
X140647038Y-52267094D01*
X140552135Y-52225192D01*
X140552129Y-52225190D01*
X140528940Y-52222500D01*
X140528932Y-52222500D01*
X140146068Y-52222500D01*
X140146060Y-52222500D01*
X140122870Y-52225190D01*
X140122864Y-52225192D01*
X140027961Y-52267094D01*
X140027957Y-52267097D01*
X139954597Y-52340457D01*
X139954594Y-52340461D01*
X139912692Y-52435364D01*
X139912690Y-52435370D01*
X139910000Y-52458558D01*
X139910000Y-53716441D01*
X139912690Y-53739629D01*
X139912692Y-53739635D01*
X139954594Y-53834538D01*
X139954597Y-53834542D01*
X139961621Y-53841566D01*
X139979927Y-53885760D01*
X139974279Y-53911723D01*
X139925599Y-54018319D01*
X139925598Y-54018322D01*
X139908104Y-54140000D01*
X139925598Y-54261677D01*
X139925599Y-54261680D01*
X139966407Y-54351037D01*
X139968114Y-54398842D01*
X139935518Y-54433852D01*
X139909555Y-54439500D01*
X138870445Y-54439500D01*
X138826251Y-54421194D01*
X138807945Y-54377000D01*
X138813593Y-54351037D01*
X138822444Y-54331656D01*
X138854401Y-54261679D01*
X138871896Y-54140000D01*
X138854401Y-54018321D01*
X138804151Y-53908290D01*
X138802445Y-53860487D01*
X138816811Y-53838133D01*
X138820403Y-53834542D01*
X138862308Y-53739634D01*
X138863094Y-53732866D01*
X138864999Y-53716441D01*
X138865000Y-53716439D01*
X138865000Y-52458560D01*
X138864999Y-52458558D01*
X138862309Y-52435370D01*
X138862307Y-52435364D01*
X138820405Y-52340461D01*
X138820402Y-52340457D01*
X138747042Y-52267097D01*
X138747038Y-52267094D01*
X138652135Y-52225192D01*
X138652129Y-52225190D01*
X138628940Y-52222500D01*
X138628932Y-52222500D01*
X138246068Y-52222500D01*
X138246060Y-52222500D01*
X138222870Y-52225190D01*
X138222864Y-52225192D01*
X138127961Y-52267094D01*
X138127957Y-52267097D01*
X138124194Y-52270861D01*
X138080000Y-52289167D01*
X138035806Y-52270861D01*
X138017500Y-52226667D01*
X138017500Y-52012253D01*
X138035806Y-51968059D01*
X138395559Y-51608306D01*
X138439753Y-51590000D01*
X138570301Y-51590000D01*
X138897500Y-51590000D01*
X138941694Y-51608306D01*
X138960000Y-51652500D01*
X138960000Y-51841441D01*
X138962690Y-51864629D01*
X138962692Y-51864635D01*
X139004594Y-51959538D01*
X139004597Y-51959542D01*
X139077957Y-52032902D01*
X139077961Y-52032905D01*
X139140945Y-52060714D01*
X139172866Y-52074808D01*
X139172867Y-52074808D01*
X139172870Y-52074809D01*
X139196058Y-52077499D01*
X139196061Y-52077500D01*
X139196068Y-52077500D01*
X139578939Y-52077500D01*
X139578941Y-52077499D01*
X139602129Y-52074809D01*
X139602130Y-52074808D01*
X139602134Y-52074808D01*
X139669026Y-52045272D01*
X139697038Y-52032905D01*
X139697038Y-52032904D01*
X139697042Y-52032903D01*
X139770403Y-51959542D01*
X139774728Y-51949748D01*
X139791148Y-51912557D01*
X139812308Y-51864634D01*
X139814999Y-51841441D01*
X139815000Y-51841439D01*
X139815000Y-51652500D01*
X139833306Y-51608306D01*
X139877500Y-51590000D01*
X140677198Y-51590000D01*
X140677199Y-51590000D01*
X140773210Y-51564274D01*
X140775665Y-51562857D01*
X140797500Y-51550250D01*
X140859290Y-51514575D01*
X140931943Y-51441922D01*
X141040560Y-51333306D01*
X141084754Y-51315000D01*
X141470916Y-51315000D01*
X141515110Y-51333306D01*
X141527559Y-51351084D01*
X141530744Y-51357915D01*
X141617084Y-51444255D01*
X141617085Y-51444255D01*
X141617086Y-51444256D01*
X141727752Y-51495861D01*
X141778181Y-51502500D01*
X142621818Y-51502499D01*
X142672248Y-51495861D01*
X142674720Y-51494707D01*
X142676465Y-51494631D01*
X142676841Y-51494522D01*
X142676867Y-51494613D01*
X142722508Y-51492616D01*
X142757780Y-51524929D01*
X142761157Y-51533912D01*
X142787968Y-51626196D01*
X142787969Y-51626197D01*
X142871940Y-51768185D01*
X142878680Y-51815543D01*
X142871940Y-51831815D01*
X142787969Y-51973802D01*
X142787968Y-51973803D01*
X142742854Y-52129086D01*
X142742854Y-52129091D01*
X142741208Y-52149999D01*
X142741209Y-52150000D01*
X143270000Y-52150000D01*
X143270000Y-50550000D01*
X142924420Y-50550000D01*
X142880226Y-50531694D01*
X142872887Y-50521211D01*
X142872389Y-50521561D01*
X142869254Y-50517083D01*
X142782915Y-50430744D01*
X142672247Y-50379138D01*
X142621819Y-50372500D01*
X141778190Y-50372500D01*
X141778188Y-50372500D01*
X141778182Y-50372501D01*
X141727752Y-50379139D01*
X141727750Y-50379139D01*
X141727749Y-50379140D01*
X141617084Y-50430744D01*
X141617084Y-50430745D01*
X141530745Y-50517083D01*
X141530744Y-50517084D01*
X141527559Y-50523916D01*
X141492290Y-50556232D01*
X141470916Y-50560000D01*
X140952199Y-50560000D01*
X140852801Y-50560000D01*
X140852800Y-50560000D01*
X140852794Y-50560001D01*
X140756793Y-50585724D01*
X140756790Y-50585725D01*
X140670708Y-50635425D01*
X140670704Y-50635428D01*
X140489441Y-50816694D01*
X140445247Y-50835000D01*
X139877500Y-50835000D01*
X139833306Y-50816694D01*
X139815000Y-50772500D01*
X139815000Y-50583560D01*
X139814999Y-50583558D01*
X139812309Y-50560370D01*
X139812307Y-50560364D01*
X139808686Y-50552164D01*
X139796214Y-50523916D01*
X139770405Y-50465461D01*
X139770402Y-50465457D01*
X139697042Y-50392097D01*
X139697038Y-50392094D01*
X139602135Y-50350192D01*
X139602129Y-50350190D01*
X139578940Y-50347500D01*
X139578932Y-50347500D01*
X139196068Y-50347500D01*
X139196060Y-50347500D01*
X139172870Y-50350190D01*
X139172864Y-50350192D01*
X139077961Y-50392094D01*
X139077957Y-50392097D01*
X139004597Y-50465457D01*
X139004594Y-50465461D01*
X138962692Y-50560364D01*
X138962690Y-50560370D01*
X138960000Y-50583558D01*
X138960000Y-50772500D01*
X138941694Y-50816694D01*
X138897500Y-50835000D01*
X138802254Y-50835000D01*
X138758060Y-50816694D01*
X138700806Y-50759440D01*
X138682500Y-50715246D01*
X138682500Y-50049999D01*
X142741208Y-50049999D01*
X142741209Y-50050000D01*
X143270000Y-50050000D01*
X143270000Y-49650000D01*
X142741211Y-49650000D01*
X142742856Y-49670921D01*
X142789065Y-49829971D01*
X142787613Y-49830392D01*
X142788223Y-49869784D01*
X142789065Y-49870029D01*
X142788270Y-49872765D01*
X142788274Y-49873020D01*
X142788012Y-49873650D01*
X142742854Y-50029086D01*
X142742854Y-50029091D01*
X142741208Y-50049999D01*
X138682500Y-50049999D01*
X138682500Y-49731829D01*
X138700806Y-49687635D01*
X138717548Y-49675681D01*
X138737662Y-49665848D01*
X138820848Y-49582662D01*
X138872517Y-49476972D01*
X138882500Y-49408453D01*
X138882499Y-49000000D01*
X140248104Y-49000000D01*
X140265598Y-49121677D01*
X140265599Y-49121680D01*
X140316665Y-49233500D01*
X140316669Y-49233506D01*
X140397166Y-49326403D01*
X140397168Y-49326405D01*
X140500584Y-49392866D01*
X140500586Y-49392866D01*
X140500587Y-49392867D01*
X140618534Y-49427500D01*
X140618535Y-49427500D01*
X140741465Y-49427500D01*
X140859416Y-49392866D01*
X140862900Y-49390626D01*
X140867888Y-49387422D01*
X140901678Y-49377500D01*
X140968937Y-49377500D01*
X141013131Y-49395806D01*
X141030784Y-49430989D01*
X141037483Y-49476972D01*
X141089152Y-49582662D01*
X141172338Y-49665848D01*
X141278028Y-49717517D01*
X141346547Y-49727500D01*
X141863452Y-49727499D01*
X141931972Y-49717517D01*
X142037662Y-49665848D01*
X142120848Y-49582662D01*
X142172517Y-49476972D01*
X142182500Y-49408453D01*
X142182500Y-49149999D01*
X142741208Y-49149999D01*
X142741209Y-49150000D01*
X143270000Y-49150000D01*
X143270000Y-48750000D01*
X142741211Y-48750000D01*
X142742856Y-48770921D01*
X142789065Y-48929971D01*
X142787613Y-48930392D01*
X142788223Y-48969784D01*
X142789065Y-48970029D01*
X142788270Y-48972765D01*
X142788274Y-48973020D01*
X142788012Y-48973650D01*
X142742854Y-49129086D01*
X142742854Y-49129091D01*
X142741208Y-49149999D01*
X142182500Y-49149999D01*
X142182499Y-48591548D01*
X142172517Y-48523028D01*
X142120848Y-48417338D01*
X142037662Y-48334152D01*
X141931972Y-48282483D01*
X141931970Y-48282482D01*
X141931969Y-48282482D01*
X141877539Y-48274552D01*
X141863453Y-48272500D01*
X141863452Y-48272500D01*
X141346548Y-48272500D01*
X141278030Y-48282482D01*
X141278029Y-48282482D01*
X141278028Y-48282483D01*
X141232873Y-48304558D01*
X141172337Y-48334152D01*
X141089152Y-48417337D01*
X141037482Y-48523030D01*
X141030784Y-48569010D01*
X141006298Y-48610104D01*
X140968937Y-48622500D01*
X140901678Y-48622500D01*
X140867888Y-48612578D01*
X140859420Y-48607136D01*
X140859417Y-48607134D01*
X140859416Y-48607134D01*
X140859413Y-48607133D01*
X140741466Y-48572500D01*
X140741465Y-48572500D01*
X140618535Y-48572500D01*
X140618534Y-48572500D01*
X140500587Y-48607132D01*
X140397166Y-48673596D01*
X140316669Y-48766493D01*
X140316665Y-48766499D01*
X140265599Y-48878319D01*
X140265598Y-48878322D01*
X140248104Y-49000000D01*
X138882499Y-49000000D01*
X138882499Y-48591548D01*
X138872517Y-48523028D01*
X138820848Y-48417338D01*
X138737662Y-48334152D01*
X138631972Y-48282483D01*
X138631970Y-48282482D01*
X138631969Y-48282482D01*
X138577539Y-48274552D01*
X138563453Y-48272500D01*
X138563452Y-48272500D01*
X138046548Y-48272500D01*
X137978030Y-48282482D01*
X137978029Y-48282482D01*
X137978028Y-48282483D01*
X137932873Y-48304558D01*
X137872337Y-48334152D01*
X137789152Y-48417337D01*
X137737482Y-48523030D01*
X137727500Y-48591547D01*
X137727500Y-49408451D01*
X137737482Y-49476969D01*
X137737483Y-49476972D01*
X137789152Y-49582662D01*
X137872338Y-49665848D01*
X137892450Y-49675680D01*
X137924113Y-49711535D01*
X137927500Y-49731829D01*
X137927500Y-50982746D01*
X137909194Y-51026940D01*
X137589193Y-51346940D01*
X137544999Y-51365246D01*
X137500805Y-51346940D01*
X137482499Y-51302748D01*
X137482499Y-50754174D01*
X137471809Y-50680796D01*
X137416476Y-50567610D01*
X137327390Y-50478524D01*
X137214204Y-50423191D01*
X137214202Y-50423190D01*
X137214201Y-50423190D01*
X137155913Y-50414698D01*
X137140827Y-50412500D01*
X137140826Y-50412500D01*
X137066765Y-50412500D01*
X137022571Y-50394194D01*
X137006395Y-50366176D01*
X136981774Y-50274291D01*
X136981773Y-50274289D01*
X136977333Y-50266600D01*
X136960768Y-50237908D01*
X136932075Y-50188209D01*
X136932072Y-50188205D01*
X136903400Y-50159534D01*
X136885093Y-50115340D01*
X136903398Y-50071146D01*
X136920141Y-50059190D01*
X136957662Y-50040848D01*
X137040848Y-49957662D01*
X137092517Y-49851972D01*
X137102500Y-49783453D01*
X137102499Y-49266548D01*
X137092517Y-49198028D01*
X137040848Y-49092338D01*
X136957662Y-49009152D01*
X136851972Y-48957483D01*
X136828425Y-48954052D01*
X136805988Y-48950783D01*
X136764895Y-48926296D01*
X136752500Y-48888936D01*
X136752500Y-48249999D01*
X142741208Y-48249999D01*
X142741209Y-48250000D01*
X143270000Y-48250000D01*
X143270000Y-47850000D01*
X142741211Y-47850000D01*
X142742856Y-47870921D01*
X142789065Y-48029971D01*
X142787613Y-48030392D01*
X142788223Y-48069784D01*
X142789065Y-48070029D01*
X142788270Y-48072765D01*
X142788274Y-48073020D01*
X142788012Y-48073650D01*
X142742854Y-48229086D01*
X142742854Y-48229091D01*
X142741208Y-48249999D01*
X136752500Y-48249999D01*
X136752500Y-48182253D01*
X136770806Y-48138059D01*
X137212372Y-47696493D01*
X137670392Y-47238472D01*
X137714585Y-47220167D01*
X137758779Y-47238473D01*
X137770734Y-47255217D01*
X137784149Y-47282658D01*
X137784151Y-47282661D01*
X137784152Y-47282662D01*
X137867338Y-47365848D01*
X137973028Y-47417517D01*
X138041547Y-47427500D01*
X138558452Y-47427499D01*
X138626972Y-47417517D01*
X138732662Y-47365848D01*
X138815848Y-47282662D01*
X138867517Y-47176972D01*
X138875333Y-47123323D01*
X140650001Y-47123323D01*
X140660142Y-47222597D01*
X140660143Y-47222604D01*
X140713453Y-47383484D01*
X140802426Y-47527731D01*
X140922268Y-47647573D01*
X141066515Y-47736546D01*
X141227398Y-47789857D01*
X141326681Y-47799999D01*
X141349999Y-47799999D01*
X141850000Y-47799999D01*
X141873312Y-47799999D01*
X141873323Y-47799998D01*
X141972597Y-47789857D01*
X141972604Y-47789856D01*
X142133484Y-47736546D01*
X142277731Y-47647573D01*
X142397573Y-47527731D01*
X142486546Y-47383484D01*
X142497642Y-47349999D01*
X142741208Y-47349999D01*
X142741209Y-47350000D01*
X143270000Y-47350000D01*
X143270000Y-46950000D01*
X142741211Y-46950000D01*
X142742856Y-46970921D01*
X142789065Y-47129971D01*
X142787613Y-47130392D01*
X142788223Y-47169784D01*
X142789065Y-47170029D01*
X142788270Y-47172765D01*
X142788274Y-47173020D01*
X142788012Y-47173650D01*
X142742854Y-47329086D01*
X142742854Y-47329091D01*
X142741208Y-47349999D01*
X142497642Y-47349999D01*
X142539857Y-47222601D01*
X142549999Y-47123322D01*
X142550000Y-47123313D01*
X142550000Y-46950000D01*
X141850000Y-46950000D01*
X141850000Y-47799999D01*
X141349999Y-47799999D01*
X141350000Y-47799998D01*
X141350000Y-46950000D01*
X140650001Y-46950000D01*
X140650001Y-47123323D01*
X138875333Y-47123323D01*
X138877500Y-47108453D01*
X138877499Y-46291548D01*
X138875333Y-46276677D01*
X140650000Y-46276677D01*
X140650000Y-46450000D01*
X141350000Y-46450000D01*
X141850000Y-46450000D01*
X142549999Y-46450000D01*
X142549999Y-46449999D01*
X142741208Y-46449999D01*
X142741209Y-46450000D01*
X143270000Y-46450000D01*
X143270000Y-46050000D01*
X142741211Y-46050000D01*
X142742856Y-46070921D01*
X142789065Y-46229971D01*
X142787613Y-46230392D01*
X142788223Y-46269784D01*
X142789065Y-46270029D01*
X142788270Y-46272765D01*
X142788274Y-46273020D01*
X142788012Y-46273650D01*
X142742854Y-46429086D01*
X142742854Y-46429091D01*
X142741208Y-46449999D01*
X142549999Y-46449999D01*
X142549999Y-46276688D01*
X142549998Y-46276676D01*
X142539857Y-46177402D01*
X142539856Y-46177395D01*
X142486546Y-46016515D01*
X142397573Y-45872268D01*
X142277731Y-45752426D01*
X142133484Y-45663453D01*
X141972601Y-45610142D01*
X141873322Y-45600000D01*
X141850000Y-45600000D01*
X141850000Y-46450000D01*
X141350000Y-46450000D01*
X141350000Y-45600000D01*
X141326690Y-45600000D01*
X141326675Y-45600001D01*
X141227402Y-45610142D01*
X141227395Y-45610143D01*
X141066515Y-45663453D01*
X140922268Y-45752426D01*
X140802426Y-45872268D01*
X140713453Y-46016515D01*
X140660142Y-46177398D01*
X140650000Y-46276677D01*
X138875333Y-46276677D01*
X138867517Y-46223028D01*
X138815848Y-46117338D01*
X138732662Y-46034152D01*
X138626972Y-45982483D01*
X138626970Y-45982482D01*
X138626969Y-45982482D01*
X138572539Y-45974552D01*
X138558453Y-45972500D01*
X138558452Y-45972500D01*
X138041548Y-45972500D01*
X137973030Y-45982482D01*
X137973029Y-45982482D01*
X137973028Y-45982483D01*
X137944667Y-45996348D01*
X137867337Y-46034152D01*
X137784152Y-46117337D01*
X137732482Y-46223030D01*
X137725784Y-46269010D01*
X137701298Y-46310104D01*
X137663937Y-46322500D01*
X137625301Y-46322500D01*
X137625300Y-46322500D01*
X137625294Y-46322501D01*
X137529293Y-46348224D01*
X137529290Y-46348225D01*
X137443208Y-46397925D01*
X137443204Y-46397928D01*
X137169277Y-46671856D01*
X137125083Y-46690162D01*
X137080889Y-46671856D01*
X137062583Y-46627662D01*
X137068934Y-46600212D01*
X137087091Y-46563071D01*
X137092517Y-46551972D01*
X137102500Y-46483453D01*
X137102499Y-45966548D01*
X137092517Y-45898028D01*
X137040848Y-45792338D01*
X136957662Y-45709152D01*
X136851972Y-45657483D01*
X136851970Y-45657482D01*
X136851969Y-45657482D01*
X136797539Y-45649552D01*
X136783453Y-45647500D01*
X136783452Y-45647500D01*
X135966548Y-45647500D01*
X135898030Y-45657482D01*
X135898029Y-45657482D01*
X135898028Y-45657483D01*
X135845183Y-45683317D01*
X135792337Y-45709152D01*
X135709155Y-45792334D01*
X135706313Y-45796316D01*
X135665735Y-45821647D01*
X135655446Y-45822500D01*
X135101678Y-45822500D01*
X135067888Y-45812578D01*
X135059420Y-45807136D01*
X135059417Y-45807134D01*
X135059416Y-45807134D01*
X135059413Y-45807133D01*
X134941466Y-45772500D01*
X134941465Y-45772500D01*
X134818535Y-45772500D01*
X134818534Y-45772500D01*
X134700587Y-45807132D01*
X134597166Y-45873596D01*
X134516669Y-45966493D01*
X134516665Y-45966499D01*
X134465599Y-46078319D01*
X134465598Y-46078322D01*
X134448104Y-46200000D01*
X134465598Y-46321677D01*
X134465599Y-46321680D01*
X134516665Y-46433500D01*
X134516669Y-46433506D01*
X134577452Y-46503652D01*
X134597168Y-46526405D01*
X134700584Y-46592866D01*
X134700586Y-46592866D01*
X134700587Y-46592867D01*
X134818534Y-46627500D01*
X134818535Y-46627500D01*
X134941465Y-46627500D01*
X135059416Y-46592866D01*
X135062900Y-46590626D01*
X135067888Y-46587422D01*
X135101678Y-46577500D01*
X135630949Y-46577500D01*
X135675143Y-46595806D01*
X135687097Y-46612548D01*
X135694407Y-46627500D01*
X135709151Y-46657661D01*
X135709152Y-46657662D01*
X135792338Y-46740848D01*
X135898028Y-46792517D01*
X135966547Y-46802500D01*
X136783452Y-46802499D01*
X136851972Y-46792517D01*
X136900213Y-46768932D01*
X136947955Y-46765968D01*
X136983811Y-46797631D01*
X136986776Y-46845375D01*
X136971856Y-46869276D01*
X136072929Y-47768204D01*
X136072922Y-47768213D01*
X136023227Y-47854286D01*
X136021097Y-47862237D01*
X136021096Y-47862236D01*
X136021096Y-47862240D01*
X135997500Y-47950296D01*
X135997500Y-48888937D01*
X135979194Y-48933131D01*
X135944011Y-48950784D01*
X135917850Y-48954595D01*
X135898028Y-48957483D01*
X135866247Y-48973020D01*
X135792337Y-49009152D01*
X135709152Y-49092337D01*
X135657482Y-49198030D01*
X135647500Y-49266547D01*
X135647500Y-49783451D01*
X135657482Y-49851969D01*
X135657483Y-49851972D01*
X135709152Y-49957662D01*
X135792338Y-50040848D01*
X135898028Y-50092517D01*
X135944010Y-50099216D01*
X135985104Y-50123702D01*
X135997500Y-50161063D01*
X135997500Y-50214697D01*
X135997501Y-50214705D01*
X136023225Y-50310709D01*
X136023226Y-50310712D01*
X136045359Y-50349045D01*
X136051604Y-50396471D01*
X136022484Y-50434422D01*
X136018683Y-50436445D01*
X135932612Y-50478522D01*
X135932609Y-50478524D01*
X135843525Y-50567608D01*
X135788190Y-50680798D01*
X135777500Y-50754173D01*
X135777500Y-51325825D01*
X135788190Y-51399201D01*
X135788191Y-51399204D01*
X135843524Y-51512390D01*
X135932610Y-51601476D01*
X136045796Y-51656809D01*
X136119173Y-51667500D01*
X137140826Y-51667499D01*
X137204941Y-51658158D01*
X137251312Y-51669901D01*
X137275798Y-51710994D01*
X137274321Y-51736181D01*
X137262501Y-51780294D01*
X137262500Y-51780302D01*
X137262500Y-52257961D01*
X137244194Y-52302155D01*
X137200000Y-52320461D01*
X137190990Y-52319808D01*
X137140827Y-52312500D01*
X136119174Y-52312500D01*
X136045798Y-52323190D01*
X136045797Y-52323190D01*
X136045796Y-52323191D01*
X135957095Y-52366554D01*
X135932608Y-52378525D01*
X135843525Y-52467608D01*
X135843524Y-52467609D01*
X135843524Y-52467610D01*
X135816690Y-52522500D01*
X135788190Y-52580798D01*
X135777500Y-52654173D01*
X135777500Y-53225825D01*
X135788190Y-53299201D01*
X135788191Y-53299204D01*
X135843524Y-53412390D01*
X135932610Y-53501476D01*
X136045796Y-53556809D01*
X136119173Y-53567500D01*
X137140826Y-53567499D01*
X137214204Y-53556809D01*
X137327390Y-53501476D01*
X137416476Y-53412390D01*
X137445730Y-53352548D01*
X137481585Y-53320886D01*
X137501879Y-53317500D01*
X137549698Y-53317500D01*
X137549699Y-53317500D01*
X137645710Y-53291774D01*
X137654227Y-53286857D01*
X137699347Y-53260806D01*
X137731790Y-53242075D01*
X137805344Y-53168521D01*
X137903306Y-53070560D01*
X137947500Y-53052254D01*
X137991694Y-53070560D01*
X138010000Y-53114754D01*
X138010000Y-53716441D01*
X138012690Y-53739629D01*
X138012692Y-53739635D01*
X138054594Y-53834538D01*
X138054597Y-53834542D01*
X138061621Y-53841566D01*
X138079927Y-53885760D01*
X138074279Y-53911723D01*
X138025599Y-54018319D01*
X138025598Y-54018322D01*
X138008104Y-54140000D01*
X138025598Y-54261677D01*
X138025599Y-54261680D01*
X138066407Y-54351037D01*
X138068114Y-54398842D01*
X138035518Y-54433852D01*
X138009555Y-54439500D01*
X136711767Y-54439500D01*
X136667573Y-54421194D01*
X130574708Y-48328330D01*
X130574703Y-48328326D01*
X130500282Y-48297500D01*
X130500280Y-48297500D01*
X113543257Y-48297500D01*
X113499063Y-48279194D01*
X113480757Y-48235000D01*
X113481468Y-48225597D01*
X113482958Y-48215801D01*
X113150000Y-47882842D01*
X112817040Y-48215801D01*
X112818531Y-48225595D01*
X112807084Y-48272041D01*
X112766148Y-48296788D01*
X112756743Y-48297500D01*
X112643257Y-48297500D01*
X112599063Y-48279194D01*
X112580757Y-48235000D01*
X112581468Y-48225597D01*
X112582958Y-48215801D01*
X112250000Y-47882842D01*
X111917040Y-48215801D01*
X111950656Y-48233444D01*
X111981281Y-48270190D01*
X111976952Y-48317830D01*
X111975738Y-48320034D01*
X111937503Y-48386259D01*
X111919598Y-48487807D01*
X111917448Y-48500000D01*
X111937503Y-48613739D01*
X111995250Y-48713760D01*
X112083724Y-48787998D01*
X112192253Y-48827500D01*
X112192256Y-48827500D01*
X112307744Y-48827500D01*
X112307747Y-48827500D01*
X112401893Y-48793233D01*
X112449682Y-48795320D01*
X112482000Y-48830587D01*
X112479913Y-48878377D01*
X112467463Y-48896158D01*
X112309428Y-49054194D01*
X112265234Y-49072500D01*
X112192250Y-49072500D01*
X112083724Y-49112001D01*
X111995250Y-49186239D01*
X111937503Y-49286260D01*
X111917448Y-49400000D01*
X111937503Y-49513739D01*
X111995250Y-49613760D01*
X112083724Y-49687998D01*
X112189244Y-49726405D01*
X112192253Y-49727500D01*
X112192256Y-49727500D01*
X112307744Y-49727500D01*
X112307747Y-49727500D01*
X112416276Y-49687998D01*
X112504750Y-49613760D01*
X112562497Y-49513739D01*
X112582552Y-49400000D01*
X112581280Y-49392789D01*
X112591631Y-49346089D01*
X112598630Y-49337746D01*
X112757791Y-49178585D01*
X112801983Y-49160281D01*
X112846177Y-49178587D01*
X112864483Y-49222781D01*
X112856110Y-49254030D01*
X112837503Y-49286258D01*
X112817448Y-49400000D01*
X112837503Y-49513739D01*
X112895250Y-49613760D01*
X112983724Y-49687998D01*
X113089244Y-49726405D01*
X113092253Y-49727500D01*
X113092256Y-49727500D01*
X113207744Y-49727500D01*
X113207747Y-49727500D01*
X113316276Y-49687998D01*
X113400743Y-49617121D01*
X113440917Y-49602500D01*
X129558556Y-49602500D01*
X129602750Y-49620806D01*
X129620419Y-49656105D01*
X129622533Y-49670806D01*
X129635598Y-49761677D01*
X129635599Y-49761680D01*
X129686665Y-49873500D01*
X129686669Y-49873506D01*
X129767167Y-49966404D01*
X129767168Y-49966405D01*
X129792090Y-49982421D01*
X129819373Y-50021714D01*
X129810880Y-50068789D01*
X129771587Y-50096072D01*
X129758301Y-50097500D01*
X112540917Y-50097500D01*
X112500743Y-50082878D01*
X112486761Y-50071146D01*
X112441141Y-50032866D01*
X112416275Y-50012001D01*
X112307749Y-49972500D01*
X112307747Y-49972500D01*
X112192253Y-49972500D01*
X112192250Y-49972500D01*
X112083724Y-50012001D01*
X111995250Y-50086239D01*
X111937503Y-50186260D01*
X111928396Y-50237908D01*
X111917448Y-50300000D01*
X111937503Y-50413739D01*
X111995250Y-50513760D01*
X112083724Y-50587998D01*
X112192253Y-50627500D01*
X112192256Y-50627500D01*
X112307744Y-50627500D01*
X112307747Y-50627500D01*
X112416276Y-50587998D01*
X112500743Y-50517121D01*
X112540917Y-50502500D01*
X131270234Y-50502500D01*
X131314428Y-50520806D01*
X131684428Y-50890806D01*
X131702734Y-50935000D01*
X131684428Y-50979194D01*
X131640234Y-50997500D01*
X112540917Y-50997500D01*
X112500743Y-50982878D01*
X112416275Y-50912001D01*
X112307749Y-50872500D01*
X112307747Y-50872500D01*
X112192253Y-50872500D01*
X112192250Y-50872500D01*
X112083724Y-50912001D01*
X111995250Y-50986239D01*
X111937503Y-51086260D01*
X111923694Y-51164574D01*
X111917448Y-51200000D01*
X111937503Y-51313739D01*
X111995250Y-51413760D01*
X112083724Y-51487998D01*
X112192253Y-51527500D01*
X112192256Y-51527500D01*
X112307744Y-51527500D01*
X112307747Y-51527500D01*
X112416276Y-51487998D01*
X112500743Y-51417121D01*
X112540917Y-51402500D01*
X131740234Y-51402500D01*
X131784428Y-51420806D01*
X132154428Y-51790806D01*
X132172734Y-51835000D01*
X132154428Y-51879194D01*
X132110234Y-51897500D01*
X112540917Y-51897500D01*
X112500743Y-51882878D01*
X112416275Y-51812001D01*
X112307749Y-51772500D01*
X112307747Y-51772500D01*
X112192253Y-51772500D01*
X112192250Y-51772500D01*
X112083724Y-51812001D01*
X111995250Y-51886239D01*
X111937503Y-51986260D01*
X111917448Y-52100000D01*
X111937503Y-52213739D01*
X111975737Y-52279963D01*
X111981980Y-52327390D01*
X111952860Y-52365340D01*
X111950655Y-52366554D01*
X111917039Y-52384196D01*
X111917039Y-52384197D01*
X112249999Y-52717157D01*
X112582958Y-52384197D01*
X112581468Y-52374404D01*
X112592917Y-52327958D01*
X112633853Y-52303211D01*
X112643257Y-52302500D01*
X132160234Y-52302500D01*
X132204428Y-52320806D01*
X135752329Y-55868707D01*
X135809293Y-55925671D01*
X135809294Y-55925671D01*
X135809296Y-55925673D01*
X135883717Y-55956499D01*
X135883720Y-55956500D01*
X141203231Y-55956500D01*
X141234290Y-55943635D01*
X141277654Y-55925673D01*
X141277654Y-55925672D01*
X141277658Y-55925671D01*
X141532523Y-55670806D01*
X141576717Y-55652500D01*
X142668072Y-55652500D01*
X142712266Y-55670806D01*
X142713967Y-55672575D01*
X142716209Y-55675000D01*
X143432500Y-55675000D01*
X143476694Y-55693306D01*
X143495000Y-55737500D01*
X143495000Y-56112500D01*
X143476694Y-56156694D01*
X143432500Y-56175000D01*
X142716211Y-56175000D01*
X142717856Y-56195921D01*
X142761185Y-56345063D01*
X142761186Y-56379936D01*
X142717853Y-56529092D01*
X142716208Y-56549999D01*
X142716209Y-56550000D01*
X143432500Y-56550000D01*
X143476694Y-56568306D01*
X143495000Y-56612500D01*
X143495000Y-56987500D01*
X143476694Y-57031694D01*
X143432500Y-57050000D01*
X142716211Y-57050000D01*
X142717856Y-57070921D01*
X142762968Y-57226196D01*
X142762969Y-57226197D01*
X142845279Y-57365377D01*
X142914179Y-57434277D01*
X142932485Y-57478471D01*
X142914179Y-57522665D01*
X142914179Y-57522666D01*
X142863910Y-57572934D01*
X142819715Y-57591239D01*
X142785929Y-57581319D01*
X142779416Y-57577134D01*
X142779415Y-57577133D01*
X142661466Y-57542500D01*
X142661465Y-57542500D01*
X142538535Y-57542500D01*
X142538534Y-57542500D01*
X142420587Y-57577132D01*
X142317166Y-57643596D01*
X142236669Y-57736493D01*
X142236665Y-57736499D01*
X142185599Y-57848319D01*
X142185599Y-57848320D01*
X142168104Y-57970000D01*
X142185598Y-58091677D01*
X142185599Y-58091680D01*
X142236665Y-58203500D01*
X142236669Y-58203506D01*
X142311618Y-58290000D01*
X142317168Y-58296405D01*
X142420584Y-58362866D01*
X142420586Y-58362866D01*
X142420587Y-58362867D01*
X142538534Y-58397500D01*
X142538535Y-58397500D01*
X142661466Y-58397500D01*
X142661466Y-58397499D01*
X142769615Y-58365744D01*
X142779413Y-58362867D01*
X142779413Y-58362866D01*
X142779416Y-58362866D01*
X142779827Y-58362601D01*
X142780105Y-58362551D01*
X142783481Y-58361010D01*
X142783874Y-58361870D01*
X142826899Y-58354097D01*
X142857822Y-58370978D01*
X142934253Y-58447409D01*
X142934254Y-58447409D01*
X142934256Y-58447411D01*
X143038929Y-58496221D01*
X143086625Y-58502500D01*
X143713374Y-58502499D01*
X143761071Y-58496221D01*
X143865744Y-58447411D01*
X143947411Y-58365744D01*
X143995048Y-58263585D01*
X144030316Y-58231269D01*
X144051692Y-58227500D01*
X144194775Y-58227500D01*
X144196562Y-58227500D01*
X144240756Y-58245806D01*
X144259062Y-58290000D01*
X144257861Y-58302194D01*
X144252500Y-58329144D01*
X144252500Y-58650856D01*
X144268931Y-58733461D01*
X144265626Y-58734118D01*
X144265644Y-58770165D01*
X144239705Y-58800072D01*
X144147835Y-58854404D01*
X144100477Y-58861144D01*
X144083686Y-58854094D01*
X143964399Y-58781982D01*
X143802109Y-58731410D01*
X143802108Y-58731409D01*
X143731574Y-58725000D01*
X143650000Y-58725000D01*
X143650000Y-59375000D01*
X143811500Y-59375000D01*
X143811500Y-59322500D01*
X143829806Y-59278306D01*
X143874000Y-59260000D01*
X145512845Y-59260000D01*
X145512844Y-59259999D01*
X145472405Y-59120805D01*
X145472404Y-59120804D01*
X145404798Y-59006487D01*
X145398058Y-58959129D01*
X145426779Y-58920876D01*
X145440983Y-58914705D01*
X145549416Y-58882866D01*
X145576450Y-58865491D01*
X145623525Y-58856998D01*
X145662818Y-58884280D01*
X145671625Y-58909600D01*
X145671901Y-58909546D01*
X145672293Y-58911520D01*
X145672438Y-58911935D01*
X145672498Y-58912550D01*
X145679898Y-58949748D01*
X145679898Y-58949749D01*
X145708077Y-58991922D01*
X145723909Y-59002500D01*
X145750252Y-59020102D01*
X145787442Y-59027500D01*
X145787443Y-59027500D01*
X146829412Y-59027500D01*
X146873606Y-59045806D01*
X146891912Y-59090000D01*
X146879445Y-59127455D01*
X146856649Y-59157905D01*
X146856647Y-59157908D01*
X146806402Y-59292622D01*
X146800000Y-59352164D01*
X146800000Y-60150000D01*
X148550000Y-60150000D01*
X149050000Y-60150000D01*
X150800000Y-60150000D01*
X150800000Y-59352177D01*
X150799999Y-59352164D01*
X150793597Y-59292622D01*
X150743352Y-59157908D01*
X150743350Y-59157905D01*
X150657191Y-59042813D01*
X150657186Y-59042808D01*
X150542094Y-58956649D01*
X150542091Y-58956647D01*
X150407377Y-58906402D01*
X150347835Y-58900000D01*
X149050000Y-58900000D01*
X149050000Y-60150000D01*
X148550000Y-60150000D01*
X148550000Y-58900000D01*
X147290000Y-58900000D01*
X147245806Y-58881694D01*
X147227500Y-58837500D01*
X147227500Y-58587442D01*
X147227198Y-58585925D01*
X147220102Y-58550252D01*
X147209726Y-58534723D01*
X147200394Y-58487807D01*
X147209726Y-58465277D01*
X147220101Y-58449749D01*
X147220102Y-58449748D01*
X147227500Y-58412558D01*
X147227500Y-58087442D01*
X147220102Y-58050252D01*
X147217709Y-58046671D01*
X147209726Y-58034723D01*
X147200394Y-57987807D01*
X147209726Y-57965277D01*
X147220101Y-57949749D01*
X147220102Y-57949748D01*
X147227500Y-57912558D01*
X147227500Y-57587442D01*
X147220102Y-57550252D01*
X147214922Y-57542500D01*
X147209726Y-57534723D01*
X147200394Y-57487807D01*
X147209726Y-57465277D01*
X147216661Y-57454898D01*
X147220102Y-57449748D01*
X147227500Y-57412558D01*
X147227500Y-57087442D01*
X147220102Y-57050252D01*
X147209726Y-57034723D01*
X147200394Y-56987807D01*
X147209726Y-56965277D01*
X147220101Y-56949749D01*
X147220102Y-56949748D01*
X147227500Y-56912558D01*
X147227500Y-56587442D01*
X147220102Y-56550252D01*
X147209726Y-56534723D01*
X147200394Y-56487807D01*
X147209726Y-56465277D01*
X147220101Y-56449749D01*
X147220102Y-56449748D01*
X147227500Y-56412558D01*
X147227500Y-56087442D01*
X147220102Y-56050252D01*
X147219932Y-56049998D01*
X147209726Y-56034723D01*
X147200394Y-55987807D01*
X147209726Y-55965277D01*
X147220101Y-55949749D01*
X147220102Y-55949748D01*
X147226387Y-55918154D01*
X147252962Y-55878382D01*
X147265844Y-55871789D01*
X147342094Y-55843350D01*
X147457186Y-55757191D01*
X147457191Y-55757186D01*
X147543350Y-55642094D01*
X147543352Y-55642091D01*
X147593597Y-55507377D01*
X147599999Y-55447835D01*
X147600000Y-55447822D01*
X147600000Y-55400000D01*
X145300000Y-55400000D01*
X145300000Y-55447835D01*
X145306402Y-55507377D01*
X145356647Y-55642091D01*
X145356649Y-55642094D01*
X145442808Y-55757186D01*
X145442813Y-55757191D01*
X145557905Y-55843350D01*
X145557904Y-55843350D01*
X145634155Y-55871789D01*
X145669166Y-55904385D01*
X145673613Y-55918154D01*
X145679898Y-55949748D01*
X145679898Y-55949749D01*
X145690274Y-55965277D01*
X145699606Y-56012193D01*
X145690274Y-56034723D01*
X145679898Y-56050250D01*
X145679898Y-56050251D01*
X145672500Y-56087442D01*
X145672500Y-56284523D01*
X145654194Y-56328717D01*
X145610000Y-56347023D01*
X145565806Y-56328717D01*
X144948031Y-55710942D01*
X144948030Y-55710941D01*
X144946323Y-55710234D01*
X144905455Y-55693306D01*
X144880126Y-55682814D01*
X144851992Y-55654680D01*
X144850400Y-55655745D01*
X144825928Y-55619121D01*
X144787857Y-55562143D01*
X144705894Y-55507377D01*
X144699375Y-55503021D01*
X144699371Y-55503019D01*
X144621348Y-55487500D01*
X144288652Y-55487500D01*
X144274676Y-55490280D01*
X144270975Y-55491016D01*
X144224059Y-55481681D01*
X144204987Y-55461531D01*
X144144717Y-55359619D01*
X144062292Y-55277194D01*
X144043986Y-55233000D01*
X144062292Y-55188806D01*
X144106486Y-55170500D01*
X145289232Y-55170500D01*
X145332859Y-55152429D01*
X145363655Y-55139673D01*
X145363655Y-55139672D01*
X145363659Y-55139671D01*
X145385024Y-55118305D01*
X145429218Y-55100000D01*
X147600000Y-55100000D01*
X147600000Y-55052177D01*
X147599999Y-55052164D01*
X147593597Y-54992622D01*
X147543352Y-54857908D01*
X147543350Y-54857905D01*
X147457191Y-54742813D01*
X147342087Y-54656646D01*
X147265843Y-54628208D01*
X147230833Y-54595612D01*
X147226386Y-54581843D01*
X147220102Y-54550252D01*
X147209726Y-54534723D01*
X147200394Y-54487807D01*
X147209726Y-54465277D01*
X147220101Y-54449749D01*
X147220102Y-54449748D01*
X147227500Y-54412558D01*
X147227500Y-54087442D01*
X147220102Y-54050252D01*
X147219748Y-54049722D01*
X147219623Y-54049097D01*
X147217746Y-54044564D01*
X147218647Y-54044190D01*
X147210417Y-54002805D01*
X147236994Y-53963032D01*
X147271716Y-53952500D01*
X147330280Y-53952500D01*
X147404707Y-53921671D01*
X147550736Y-53775640D01*
X147594930Y-53757335D01*
X147612539Y-53759867D01*
X147638533Y-53767500D01*
X147638535Y-53767500D01*
X147761465Y-53767500D01*
X147879416Y-53732866D01*
X147982832Y-53666405D01*
X148052765Y-53585698D01*
X148063330Y-53573506D01*
X148063331Y-53573504D01*
X148063334Y-53573501D01*
X148114401Y-53461679D01*
X148131896Y-53340000D01*
X148114401Y-53218321D01*
X148063334Y-53106499D01*
X148063330Y-53106493D01*
X147982833Y-53013596D01*
X147982832Y-53013595D01*
X147879416Y-52947134D01*
X147879414Y-52947133D01*
X147879412Y-52947132D01*
X147761466Y-52912500D01*
X147761465Y-52912500D01*
X147638535Y-52912500D01*
X147638534Y-52912500D01*
X147520587Y-52947132D01*
X147417166Y-53013596D01*
X147334585Y-53108899D01*
X147291809Y-53130311D01*
X147246422Y-53115204D01*
X147226052Y-53080164D01*
X147220102Y-53050252D01*
X147218303Y-53047560D01*
X147209726Y-53034723D01*
X147200394Y-52987807D01*
X147209726Y-52965277D01*
X147220101Y-52949749D01*
X147220102Y-52949748D01*
X147227500Y-52912558D01*
X147227500Y-52587442D01*
X147220102Y-52550252D01*
X147209726Y-52534723D01*
X147200394Y-52487807D01*
X147209726Y-52465277D01*
X147220101Y-52449749D01*
X147220102Y-52449748D01*
X147227500Y-52412558D01*
X147227500Y-52087442D01*
X147220102Y-52050252D01*
X147209726Y-52034723D01*
X147200394Y-51987807D01*
X147209726Y-51965277D01*
X147220101Y-51949749D01*
X147220102Y-51949748D01*
X147227500Y-51912558D01*
X147227500Y-51587442D01*
X147220102Y-51550252D01*
X147209726Y-51534723D01*
X147200394Y-51487807D01*
X147209726Y-51465277D01*
X147213998Y-51458883D01*
X147220102Y-51449748D01*
X147221195Y-51444256D01*
X147226386Y-51418156D01*
X147252962Y-51378382D01*
X147265844Y-51371789D01*
X147342094Y-51343350D01*
X147457186Y-51257191D01*
X147457191Y-51257186D01*
X147543350Y-51142094D01*
X147543352Y-51142091D01*
X147593597Y-51007377D01*
X147599999Y-50947835D01*
X147600000Y-50947822D01*
X147600000Y-50900000D01*
X146512500Y-50900000D01*
X146468306Y-50881694D01*
X146450000Y-50837500D01*
X146450000Y-50662500D01*
X146468306Y-50618306D01*
X146512500Y-50600000D01*
X147600000Y-50600000D01*
X147600000Y-50552177D01*
X147599999Y-50552164D01*
X147593597Y-50492622D01*
X147543352Y-50357908D01*
X147543350Y-50357905D01*
X147457191Y-50242813D01*
X147342087Y-50156646D01*
X147265843Y-50128208D01*
X147230833Y-50095612D01*
X147226386Y-50081843D01*
X147223533Y-50067500D01*
X147220102Y-50050252D01*
X147213818Y-50040848D01*
X147209726Y-50034723D01*
X147200394Y-49987807D01*
X147209726Y-49965277D01*
X147220101Y-49949749D01*
X147220102Y-49949748D01*
X147227500Y-49912558D01*
X147227500Y-49587442D01*
X147220102Y-49550252D01*
X147209726Y-49534723D01*
X147200394Y-49487807D01*
X147209726Y-49465277D01*
X147220101Y-49449749D01*
X147220102Y-49449748D01*
X147227500Y-49412558D01*
X147227500Y-49087442D01*
X147220102Y-49050252D01*
X147209726Y-49034723D01*
X147200394Y-48987807D01*
X147209726Y-48965277D01*
X147214934Y-48957483D01*
X147220102Y-48949748D01*
X147227500Y-48912558D01*
X147227500Y-48587442D01*
X147220102Y-48550252D01*
X147218683Y-48548129D01*
X147209726Y-48534723D01*
X147200394Y-48487807D01*
X147209726Y-48465277D01*
X147220101Y-48449749D01*
X147220102Y-48449748D01*
X147227500Y-48412558D01*
X147227500Y-48087442D01*
X147220102Y-48050252D01*
X147211581Y-48037500D01*
X147209726Y-48034723D01*
X147200394Y-47987807D01*
X147209726Y-47965277D01*
X147220101Y-47949749D01*
X147220102Y-47949748D01*
X147227500Y-47912558D01*
X147227500Y-47587442D01*
X147220102Y-47550252D01*
X147218017Y-47547132D01*
X147209726Y-47534723D01*
X147200394Y-47487807D01*
X147209726Y-47465277D01*
X147220101Y-47449749D01*
X147220102Y-47449748D01*
X147227500Y-47412558D01*
X147227500Y-47162500D01*
X147245806Y-47118306D01*
X147290000Y-47100000D01*
X148550000Y-47100000D01*
X149050000Y-47100000D01*
X150347822Y-47100000D01*
X150347835Y-47099999D01*
X150407377Y-47093597D01*
X150542091Y-47043352D01*
X150542094Y-47043350D01*
X150657186Y-46957191D01*
X150657191Y-46957186D01*
X150743350Y-46842094D01*
X150743352Y-46842091D01*
X150793597Y-46707377D01*
X150799999Y-46647835D01*
X150800000Y-46647822D01*
X150800000Y-45850000D01*
X149050000Y-45850000D01*
X149050000Y-47100000D01*
X148550000Y-47100000D01*
X148550000Y-45850000D01*
X146800000Y-45850000D01*
X146800000Y-46647835D01*
X146806402Y-46707377D01*
X146856647Y-46842091D01*
X146856649Y-46842094D01*
X146879445Y-46872545D01*
X146891276Y-46918894D01*
X146866867Y-46960033D01*
X146829412Y-46972500D01*
X146665000Y-46972500D01*
X146620806Y-46954194D01*
X146602500Y-46910000D01*
X146602500Y-46904776D01*
X146599009Y-46896348D01*
X146564059Y-46811970D01*
X146493030Y-46740941D01*
X145338030Y-45585941D01*
X145245225Y-45547500D01*
X145245224Y-45547500D01*
X144920002Y-45547500D01*
X144875808Y-45529194D01*
X144868035Y-45519723D01*
X144854355Y-45499250D01*
X144812857Y-45437143D01*
X144754001Y-45397817D01*
X144724375Y-45378021D01*
X144724371Y-45378019D01*
X144646348Y-45362500D01*
X144313652Y-45362500D01*
X144299388Y-45365337D01*
X144295975Y-45366016D01*
X144249059Y-45356681D01*
X144229987Y-45336531D01*
X144169717Y-45234619D01*
X144141792Y-45206694D01*
X144123486Y-45162500D01*
X144141792Y-45118306D01*
X144185986Y-45100000D01*
X146737500Y-45100000D01*
X146781694Y-45118306D01*
X146800000Y-45162500D01*
X146800000Y-45350000D01*
X150800000Y-45350000D01*
X150800000Y-45162500D01*
X150818306Y-45118306D01*
X150862500Y-45100000D01*
X157810000Y-45100000D01*
X157854194Y-45118306D01*
X157872500Y-45162500D01*
X157872500Y-72996930D01*
X157872199Y-73003056D01*
X157856338Y-73164088D01*
X157853948Y-73176105D01*
X157807871Y-73328002D01*
X157803182Y-73339321D01*
X157728358Y-73479307D01*
X157721551Y-73489494D01*
X157620856Y-73612192D01*
X157612192Y-73620856D01*
X157489494Y-73721551D01*
X157479307Y-73728358D01*
X157339321Y-73803182D01*
X157328002Y-73807871D01*
X157176105Y-73853948D01*
X157164088Y-73856338D01*
X157003056Y-73872199D01*
X156996930Y-73872500D01*
X140758227Y-73872500D01*
X140742051Y-73870370D01*
X140729925Y-73867121D01*
X140701908Y-73850945D01*
X140699054Y-73848091D01*
X140682878Y-73820072D01*
X140679628Y-73807945D01*
X140677500Y-73791773D01*
X140677500Y-73678042D01*
X140677500Y-73678036D01*
X140641145Y-73436832D01*
X140569246Y-73203740D01*
X140463409Y-72983968D01*
X140353386Y-72822594D01*
X140326005Y-72782433D01*
X140326002Y-72782430D01*
X140325999Y-72782425D01*
X140160085Y-72603612D01*
X140160080Y-72603608D01*
X140160077Y-72603605D01*
X139969383Y-72451531D01*
X139969377Y-72451527D01*
X139969374Y-72451525D01*
X139758126Y-72329561D01*
X139531059Y-72240444D01*
X139531055Y-72240443D01*
X139531052Y-72240442D01*
X139293247Y-72186165D01*
X139050003Y-72167936D01*
X139049997Y-72167936D01*
X138806753Y-72186165D01*
X138806751Y-72186165D01*
X138568947Y-72240442D01*
X138568944Y-72240443D01*
X138341871Y-72329562D01*
X138219870Y-72400000D01*
X138152667Y-72438800D01*
X138130616Y-72451531D01*
X137939922Y-72603605D01*
X137939917Y-72603610D01*
X137939915Y-72603611D01*
X137939915Y-72603612D01*
X137791657Y-72763397D01*
X137773994Y-72782433D01*
X137636591Y-72983967D01*
X137530752Y-73203744D01*
X137530751Y-73203748D01*
X137458856Y-73436824D01*
X137422500Y-73678036D01*
X137422500Y-73791773D01*
X137420370Y-73807951D01*
X137417121Y-73820075D01*
X137400945Y-73848091D01*
X137398091Y-73850945D01*
X137370074Y-73867121D01*
X137357947Y-73870370D01*
X137341773Y-73872500D01*
X120658227Y-73872500D01*
X120642051Y-73870370D01*
X120629925Y-73867121D01*
X120601908Y-73850945D01*
X120599054Y-73848091D01*
X120582878Y-73820072D01*
X120579628Y-73807945D01*
X120577500Y-73791773D01*
X120577500Y-73678042D01*
X120577500Y-73678036D01*
X120541145Y-73436832D01*
X120469246Y-73203740D01*
X120363409Y-72983968D01*
X120253386Y-72822594D01*
X120226005Y-72782433D01*
X120226002Y-72782430D01*
X120225999Y-72782425D01*
X120060085Y-72603612D01*
X120060080Y-72603608D01*
X120060077Y-72603605D01*
X119869383Y-72451531D01*
X119869377Y-72451527D01*
X119869374Y-72451525D01*
X119658126Y-72329561D01*
X119431059Y-72240444D01*
X119431055Y-72240443D01*
X119431052Y-72240442D01*
X119193247Y-72186165D01*
X118950003Y-72167936D01*
X118949997Y-72167936D01*
X118706753Y-72186165D01*
X118706751Y-72186165D01*
X118468947Y-72240442D01*
X118468944Y-72240443D01*
X118241871Y-72329562D01*
X118119870Y-72400000D01*
X118052667Y-72438800D01*
X118030616Y-72451531D01*
X117839922Y-72603605D01*
X117839917Y-72603610D01*
X117839915Y-72603611D01*
X117839915Y-72603612D01*
X117691657Y-72763397D01*
X117673994Y-72782433D01*
X117536591Y-72983967D01*
X117430752Y-73203744D01*
X117430751Y-73203748D01*
X117358856Y-73436824D01*
X117322500Y-73678036D01*
X117322500Y-73791773D01*
X117320370Y-73807951D01*
X117317121Y-73820075D01*
X117300945Y-73848091D01*
X117298091Y-73850945D01*
X117270074Y-73867121D01*
X117257947Y-73870370D01*
X117241773Y-73872500D01*
X101003070Y-73872500D01*
X100996944Y-73872199D01*
X100835911Y-73856338D01*
X100823894Y-73853948D01*
X100671997Y-73807871D01*
X100660678Y-73803182D01*
X100520692Y-73728358D01*
X100510505Y-73721551D01*
X100457481Y-73678036D01*
X100387805Y-73620854D01*
X100379143Y-73612192D01*
X100347877Y-73574094D01*
X100278445Y-73489490D01*
X100271644Y-73479311D01*
X100196815Y-73339317D01*
X100192130Y-73328007D01*
X100146050Y-73176101D01*
X100143661Y-73164088D01*
X100140057Y-73127500D01*
X100127801Y-73003056D01*
X100127500Y-72996930D01*
X100127500Y-71987155D01*
X100145806Y-71942961D01*
X100190000Y-71924655D01*
X100234194Y-71942961D01*
X100247742Y-71963237D01*
X100255941Y-71983030D01*
X100715941Y-72443030D01*
X100786970Y-72514059D01*
X100879775Y-72552500D01*
X101135000Y-72552500D01*
X101179194Y-72570806D01*
X101197500Y-72615000D01*
X101197500Y-72622212D01*
X101203586Y-72668442D01*
X101250907Y-72769921D01*
X101330078Y-72849092D01*
X101330079Y-72849092D01*
X101330080Y-72849093D01*
X101431557Y-72896413D01*
X101477794Y-72902500D01*
X101477800Y-72902500D01*
X102922200Y-72902500D01*
X102922206Y-72902500D01*
X102968443Y-72896413D01*
X103069920Y-72849093D01*
X103069921Y-72849092D01*
X103069922Y-72849092D01*
X103149092Y-72769922D01*
X103149092Y-72769921D01*
X103149093Y-72769920D01*
X103196413Y-72668443D01*
X103202500Y-72622206D01*
X103202500Y-71977794D01*
X103196413Y-71931557D01*
X103149093Y-71830080D01*
X103149092Y-71830079D01*
X103149092Y-71830078D01*
X103073673Y-71754659D01*
X104237200Y-71754659D01*
X104237200Y-71877340D01*
X104261133Y-71997662D01*
X104308082Y-72111006D01*
X104308083Y-72111008D01*
X104369461Y-72202867D01*
X104376240Y-72213012D01*
X104462988Y-72299760D01*
X104564994Y-72367918D01*
X104678336Y-72414866D01*
X104798660Y-72438800D01*
X104921340Y-72438800D01*
X105041664Y-72414866D01*
X105077554Y-72400000D01*
X106968104Y-72400000D01*
X106985598Y-72521677D01*
X106985599Y-72521680D01*
X107036665Y-72633500D01*
X107036669Y-72633506D01*
X107117166Y-72726403D01*
X107117168Y-72726405D01*
X107220584Y-72792866D01*
X107220586Y-72792866D01*
X107220587Y-72792867D01*
X107338534Y-72827500D01*
X107338535Y-72827500D01*
X107461465Y-72827500D01*
X107579416Y-72792866D01*
X107682832Y-72726405D01*
X107763334Y-72633501D01*
X107814401Y-72521679D01*
X107831896Y-72400000D01*
X108268104Y-72400000D01*
X108285598Y-72521677D01*
X108285599Y-72521680D01*
X108336665Y-72633500D01*
X108336669Y-72633506D01*
X108417166Y-72726403D01*
X108417168Y-72726405D01*
X108520584Y-72792866D01*
X108520586Y-72792866D01*
X108520587Y-72792867D01*
X108638534Y-72827500D01*
X108638535Y-72827500D01*
X108761465Y-72827500D01*
X108879416Y-72792866D01*
X108982832Y-72726405D01*
X109063334Y-72633501D01*
X109114401Y-72521679D01*
X109131896Y-72400000D01*
X109114401Y-72278321D01*
X109063334Y-72166499D01*
X109063330Y-72166493D01*
X108982833Y-72073596D01*
X108982832Y-72073595D01*
X108879416Y-72007134D01*
X108879414Y-72007133D01*
X108879412Y-72007132D01*
X108761466Y-71972500D01*
X108761465Y-71972500D01*
X108638535Y-71972500D01*
X108638534Y-71972500D01*
X108520587Y-72007132D01*
X108417166Y-72073596D01*
X108336669Y-72166493D01*
X108336665Y-72166499D01*
X108285599Y-72278319D01*
X108285598Y-72278322D01*
X108268104Y-72400000D01*
X107831896Y-72400000D01*
X107814401Y-72278321D01*
X107763334Y-72166499D01*
X107763330Y-72166493D01*
X107682833Y-72073596D01*
X107682832Y-72073595D01*
X107579416Y-72007134D01*
X107579414Y-72007133D01*
X107579412Y-72007132D01*
X107461466Y-71972500D01*
X107461465Y-71972500D01*
X107338535Y-71972500D01*
X107338534Y-71972500D01*
X107220587Y-72007132D01*
X107117166Y-72073596D01*
X107036669Y-72166493D01*
X107036665Y-72166499D01*
X106985599Y-72278319D01*
X106985598Y-72278322D01*
X106968104Y-72400000D01*
X105077554Y-72400000D01*
X105155006Y-72367918D01*
X105257012Y-72299760D01*
X105343760Y-72213012D01*
X105411918Y-72111006D01*
X105458866Y-71997664D01*
X105482800Y-71877340D01*
X105482800Y-71754660D01*
X105458866Y-71634336D01*
X105411918Y-71520994D01*
X105343760Y-71418988D01*
X105257012Y-71332240D01*
X105257011Y-71332239D01*
X105155008Y-71264083D01*
X105155006Y-71264082D01*
X105041662Y-71217133D01*
X104921340Y-71193200D01*
X104798660Y-71193200D01*
X104678337Y-71217133D01*
X104564993Y-71264082D01*
X104564991Y-71264083D01*
X104462988Y-71332239D01*
X104376239Y-71418988D01*
X104308083Y-71520991D01*
X104308082Y-71520993D01*
X104261133Y-71634337D01*
X104237200Y-71754659D01*
X103073673Y-71754659D01*
X103069921Y-71750907D01*
X103041900Y-71737841D01*
X103009583Y-71702573D01*
X103011670Y-71654783D01*
X103033591Y-71629230D01*
X103068251Y-71606071D01*
X103154993Y-71548112D01*
X103298112Y-71404993D01*
X103410559Y-71236704D01*
X103488014Y-71049711D01*
X103527500Y-70851200D01*
X103527500Y-70738659D01*
X109317200Y-70738659D01*
X109317200Y-70861340D01*
X109341133Y-70981662D01*
X109388082Y-71095006D01*
X109388083Y-71095008D01*
X109453693Y-71193200D01*
X109456240Y-71197012D01*
X109542988Y-71283760D01*
X109644994Y-71351918D01*
X109758336Y-71398866D01*
X109878660Y-71422800D01*
X110001340Y-71422800D01*
X110121664Y-71398866D01*
X110235006Y-71351918D01*
X110337012Y-71283760D01*
X110423760Y-71197012D01*
X110491918Y-71095006D01*
X110538866Y-70981664D01*
X110562800Y-70861340D01*
X110562800Y-70738660D01*
X110538866Y-70618336D01*
X110491918Y-70504994D01*
X110423760Y-70402988D01*
X110337012Y-70316240D01*
X110337011Y-70316239D01*
X110235007Y-70248082D01*
X110121662Y-70201133D01*
X110001340Y-70177200D01*
X109878660Y-70177200D01*
X109758337Y-70201133D01*
X109644992Y-70248082D01*
X109542988Y-70316239D01*
X109456239Y-70402988D01*
X109388083Y-70504991D01*
X109388082Y-70504993D01*
X109341133Y-70618337D01*
X109317200Y-70738659D01*
X103527500Y-70738659D01*
X103527500Y-70648800D01*
X103488014Y-70450289D01*
X103410559Y-70263296D01*
X103298112Y-70095007D01*
X103154993Y-69951888D01*
X103154992Y-69951887D01*
X103033591Y-69870769D01*
X103007015Y-69830995D01*
X103016347Y-69784079D01*
X103041899Y-69762159D01*
X103069920Y-69749093D01*
X103096354Y-69722659D01*
X104237200Y-69722659D01*
X104237200Y-69845340D01*
X104261133Y-69965662D01*
X104285130Y-70023595D01*
X104308082Y-70079006D01*
X104376240Y-70181012D01*
X104462988Y-70267760D01*
X104564994Y-70335918D01*
X104678336Y-70382866D01*
X104798660Y-70406800D01*
X104921340Y-70406800D01*
X105041664Y-70382866D01*
X105155006Y-70335918D01*
X105257012Y-70267760D01*
X105343760Y-70181012D01*
X105411918Y-70079006D01*
X105458866Y-69965664D01*
X105482800Y-69845340D01*
X105482800Y-69722660D01*
X105458866Y-69602336D01*
X105411918Y-69488994D01*
X105343760Y-69386988D01*
X105257012Y-69300240D01*
X105257011Y-69300239D01*
X105155008Y-69232083D01*
X105155006Y-69232082D01*
X105077554Y-69200000D01*
X108968104Y-69200000D01*
X108985598Y-69321677D01*
X108985599Y-69321680D01*
X109036665Y-69433500D01*
X109036669Y-69433506D01*
X109117166Y-69526403D01*
X109117168Y-69526405D01*
X109220584Y-69592866D01*
X109220586Y-69592866D01*
X109220587Y-69592867D01*
X109338534Y-69627500D01*
X109338535Y-69627500D01*
X109461465Y-69627500D01*
X109579416Y-69592866D01*
X109682832Y-69526405D01*
X109763334Y-69433501D01*
X109814401Y-69321679D01*
X109831896Y-69200000D01*
X109814401Y-69078321D01*
X109763334Y-68966499D01*
X109763330Y-68966493D01*
X109682833Y-68873596D01*
X109682832Y-68873595D01*
X109579416Y-68807134D01*
X109579414Y-68807133D01*
X109579412Y-68807132D01*
X109461466Y-68772500D01*
X109461465Y-68772500D01*
X109338535Y-68772500D01*
X109338534Y-68772500D01*
X109220587Y-68807132D01*
X109117166Y-68873596D01*
X109036669Y-68966493D01*
X109036665Y-68966499D01*
X108985599Y-69078319D01*
X108985598Y-69078322D01*
X108968104Y-69200000D01*
X105077554Y-69200000D01*
X105041662Y-69185133D01*
X104921340Y-69161200D01*
X104798660Y-69161200D01*
X104678337Y-69185133D01*
X104564993Y-69232082D01*
X104564991Y-69232083D01*
X104462988Y-69300239D01*
X104376239Y-69386988D01*
X104308083Y-69488991D01*
X104308082Y-69488993D01*
X104261133Y-69602337D01*
X104237200Y-69722659D01*
X103096354Y-69722659D01*
X103149092Y-69669922D01*
X103149092Y-69669921D01*
X103149093Y-69669920D01*
X103196413Y-69568443D01*
X103202500Y-69522206D01*
X103202500Y-68877794D01*
X103196413Y-68831557D01*
X103149093Y-68730080D01*
X103149092Y-68730079D01*
X103149092Y-68730078D01*
X103069921Y-68650907D01*
X102968442Y-68603586D01*
X102922212Y-68597500D01*
X102922206Y-68597500D01*
X102515000Y-68597500D01*
X102470806Y-68579194D01*
X102452500Y-68535000D01*
X102452500Y-67600000D01*
X107568104Y-67600000D01*
X107585598Y-67721677D01*
X107585599Y-67721680D01*
X107636665Y-67833500D01*
X107636669Y-67833506D01*
X107717166Y-67926403D01*
X107717168Y-67926405D01*
X107820584Y-67992866D01*
X107820586Y-67992866D01*
X107820587Y-67992867D01*
X107938534Y-68027500D01*
X107938535Y-68027500D01*
X108061465Y-68027500D01*
X108179416Y-67992866D01*
X108282832Y-67926405D01*
X108363334Y-67833501D01*
X108414401Y-67721679D01*
X108431896Y-67600000D01*
X108414401Y-67478321D01*
X108363334Y-67366499D01*
X108363330Y-67366493D01*
X108282833Y-67273596D01*
X108282832Y-67273595D01*
X108179416Y-67207134D01*
X108179414Y-67207133D01*
X108179412Y-67207132D01*
X108061466Y-67172500D01*
X108061465Y-67172500D01*
X107938535Y-67172500D01*
X107938534Y-67172500D01*
X107820587Y-67207132D01*
X107717166Y-67273596D01*
X107636669Y-67366493D01*
X107636665Y-67366499D01*
X107585599Y-67478319D01*
X107585598Y-67478322D01*
X107568104Y-67600000D01*
X102452500Y-67600000D01*
X102452500Y-65023813D01*
X102470806Y-64979619D01*
X102489754Y-64966639D01*
X102509542Y-64957903D01*
X102582903Y-64884542D01*
X102624808Y-64789634D01*
X102627499Y-64766441D01*
X102627500Y-64766439D01*
X102627500Y-63508565D01*
X102626607Y-63500874D01*
X102639694Y-63454863D01*
X102681482Y-63431583D01*
X102720506Y-63439870D01*
X102739801Y-63451282D01*
X102897511Y-63497100D01*
X102897510Y-63497100D01*
X102900000Y-63497296D01*
X103400000Y-63497296D01*
X103402488Y-63497100D01*
X103560199Y-63451281D01*
X103560201Y-63451280D01*
X103701555Y-63367684D01*
X103701557Y-63367683D01*
X103817683Y-63251557D01*
X103817684Y-63251555D01*
X103901280Y-63110201D01*
X103901281Y-63110199D01*
X103947100Y-62952490D01*
X103947100Y-62952486D01*
X103950000Y-62915650D01*
X103950000Y-62512500D01*
X103400000Y-62512500D01*
X103400000Y-63497296D01*
X102900000Y-63497296D01*
X102900000Y-62512500D01*
X102350000Y-62512500D01*
X102350000Y-62915650D01*
X102352899Y-62952486D01*
X102352899Y-62952490D01*
X102398718Y-63110199D01*
X102398719Y-63110200D01*
X102438925Y-63178185D01*
X102445665Y-63225543D01*
X102416944Y-63263796D01*
X102385129Y-63272500D01*
X102008560Y-63272500D01*
X101985370Y-63275190D01*
X101985364Y-63275192D01*
X101890461Y-63317094D01*
X101890457Y-63317097D01*
X101817097Y-63390457D01*
X101817094Y-63390461D01*
X101775192Y-63485364D01*
X101775190Y-63485370D01*
X101772500Y-63508558D01*
X101772500Y-64766441D01*
X101775190Y-64789629D01*
X101775192Y-64789635D01*
X101817094Y-64884538D01*
X101817097Y-64884542D01*
X101890455Y-64957901D01*
X101890456Y-64957901D01*
X101890458Y-64957903D01*
X101910243Y-64966638D01*
X101943278Y-65001232D01*
X101947500Y-65023813D01*
X101947500Y-68535000D01*
X101929194Y-68579194D01*
X101885000Y-68597500D01*
X101476751Y-68597500D01*
X101432557Y-68579194D01*
X101414251Y-68535000D01*
X101419008Y-68511083D01*
X101426422Y-68493181D01*
X101452500Y-68430225D01*
X101452500Y-68329775D01*
X101452500Y-68248496D01*
X101470806Y-68204302D01*
X101482735Y-68196334D01*
X101482305Y-68195690D01*
X101574252Y-68134252D01*
X101632270Y-68047423D01*
X101647500Y-67970856D01*
X101647500Y-67649144D01*
X101632270Y-67572577D01*
X101632269Y-67572575D01*
X101574252Y-67485747D01*
X101487424Y-67427730D01*
X101487422Y-67427729D01*
X101410856Y-67412500D01*
X100989144Y-67412500D01*
X100912577Y-67427729D01*
X100912575Y-67427730D01*
X100825747Y-67485747D01*
X100767730Y-67572575D01*
X100767729Y-67572577D01*
X100752500Y-67649143D01*
X100752500Y-67970856D01*
X100767729Y-68047422D01*
X100767730Y-68047424D01*
X100825747Y-68134252D01*
X100917695Y-68195690D01*
X100916153Y-68197997D01*
X100942732Y-68224553D01*
X100947500Y-68248496D01*
X100947500Y-68249523D01*
X100929194Y-68293717D01*
X100255942Y-68966968D01*
X100255938Y-68966974D01*
X100247742Y-68986762D01*
X100213917Y-69020587D01*
X100166082Y-69020586D01*
X100132257Y-68986761D01*
X100127500Y-68962844D01*
X100127500Y-66629143D01*
X100752500Y-66629143D01*
X100752500Y-66950856D01*
X100767729Y-67027422D01*
X100767730Y-67027424D01*
X100825747Y-67114252D01*
X100912575Y-67172269D01*
X100912577Y-67172270D01*
X100989144Y-67187500D01*
X101410856Y-67187500D01*
X101487423Y-67172270D01*
X101574252Y-67114252D01*
X101632270Y-67027423D01*
X101647500Y-66950856D01*
X101647500Y-66629144D01*
X101632270Y-66552577D01*
X101632269Y-66552575D01*
X101574252Y-66465747D01*
X101541844Y-66444093D01*
X101515268Y-66404319D01*
X101524600Y-66357403D01*
X101529316Y-66351218D01*
X101553334Y-66323501D01*
X101604401Y-66211679D01*
X101621896Y-66090000D01*
X101604401Y-65968321D01*
X101553334Y-65856499D01*
X101553330Y-65856493D01*
X101472833Y-65763596D01*
X101472832Y-65763595D01*
X101369416Y-65697134D01*
X101369414Y-65697133D01*
X101369412Y-65697132D01*
X101251466Y-65662500D01*
X101251465Y-65662500D01*
X101128535Y-65662500D01*
X101128534Y-65662500D01*
X101010587Y-65697132D01*
X100907166Y-65763596D01*
X100826669Y-65856493D01*
X100826665Y-65856499D01*
X100775599Y-65968319D01*
X100775598Y-65968322D01*
X100758104Y-66090000D01*
X100775598Y-66211677D01*
X100775599Y-66211680D01*
X100826665Y-66323500D01*
X100826666Y-66323501D01*
X100857999Y-66359661D01*
X100873106Y-66405048D01*
X100851695Y-66447824D01*
X100845491Y-66452555D01*
X100825749Y-66465747D01*
X100767729Y-66552578D01*
X100752500Y-66629143D01*
X100127500Y-66629143D01*
X100127500Y-58210247D01*
X100145806Y-58166053D01*
X100190000Y-58147747D01*
X100234194Y-58166053D01*
X100252262Y-58204800D01*
X100265430Y-58355317D01*
X100265433Y-58355333D01*
X100326567Y-58583487D01*
X100326568Y-58583489D01*
X100426398Y-58797575D01*
X100561892Y-58991081D01*
X100728918Y-59158107D01*
X100922426Y-59293603D01*
X101136503Y-59393428D01*
X101136519Y-59393434D01*
X101349998Y-59450635D01*
X101350000Y-59450634D01*
X101350000Y-58553012D01*
X101407007Y-58585925D01*
X101534174Y-58620000D01*
X101665826Y-58620000D01*
X101792993Y-58585925D01*
X101850000Y-58553012D01*
X101850000Y-59472825D01*
X101850900Y-59474383D01*
X101850000Y-59477745D01*
X101850000Y-59481457D01*
X101849007Y-59481457D01*
X101838532Y-59520592D01*
X101833131Y-59526753D01*
X101581807Y-59778078D01*
X101528079Y-59831805D01*
X101528077Y-59831808D01*
X101499000Y-59902008D01*
X101499000Y-60207203D01*
X101480694Y-60251397D01*
X101457589Y-60263750D01*
X101458263Y-60265375D01*
X101452575Y-60267730D01*
X101365747Y-60325747D01*
X101307730Y-60412575D01*
X101307729Y-60412577D01*
X101292500Y-60489143D01*
X101292500Y-60910856D01*
X101307729Y-60987422D01*
X101307730Y-60987424D01*
X101334411Y-61027354D01*
X101343743Y-61074270D01*
X101326638Y-61106271D01*
X101106970Y-61325941D01*
X101038889Y-61394021D01*
X101019941Y-61407001D01*
X100940457Y-61442097D01*
X100867097Y-61515457D01*
X100867094Y-61515461D01*
X100825192Y-61610364D01*
X100825190Y-61610370D01*
X100822500Y-61633558D01*
X100822500Y-62891441D01*
X100825190Y-62914629D01*
X100825192Y-62914635D01*
X100867094Y-63009538D01*
X100867097Y-63009542D01*
X100940457Y-63082902D01*
X100940461Y-63082905D01*
X101021358Y-63118623D01*
X101035366Y-63124808D01*
X101035367Y-63124808D01*
X101035370Y-63124809D01*
X101058558Y-63127499D01*
X101058561Y-63127500D01*
X101058568Y-63127500D01*
X101441439Y-63127500D01*
X101441441Y-63127499D01*
X101464629Y-63124809D01*
X101464630Y-63124808D01*
X101464634Y-63124808D01*
X101531526Y-63095272D01*
X101559538Y-63082905D01*
X101559538Y-63082904D01*
X101559542Y-63082903D01*
X101632903Y-63009542D01*
X101674808Y-62914634D01*
X101677499Y-62891441D01*
X101677500Y-62891439D01*
X101677500Y-61633560D01*
X101677499Y-61633558D01*
X101674809Y-61610370D01*
X101674807Y-61610364D01*
X101649806Y-61553739D01*
X101648702Y-61505917D01*
X101662785Y-61484303D01*
X101904059Y-61243030D01*
X101915895Y-61214454D01*
X101949718Y-61180631D01*
X101997554Y-61180630D01*
X102027433Y-61206558D01*
X102069262Y-61277288D01*
X102182711Y-61390737D01*
X102320804Y-61472404D01*
X102324415Y-61473967D01*
X102323372Y-61476376D01*
X102354423Y-61501066D01*
X102359847Y-61548592D01*
X102359784Y-61548810D01*
X102352899Y-61572509D01*
X102352899Y-61572513D01*
X102350000Y-61609349D01*
X102350000Y-62012500D01*
X103950000Y-62012500D01*
X103950000Y-61609349D01*
X103947100Y-61572513D01*
X103947100Y-61572509D01*
X103901281Y-61414800D01*
X103901280Y-61414798D01*
X103817684Y-61273444D01*
X103701555Y-61157315D01*
X103560201Y-61073719D01*
X103560199Y-61073718D01*
X103519912Y-61062014D01*
X103482580Y-61032106D01*
X103477763Y-60988477D01*
X103476594Y-60988264D01*
X103477167Y-60985124D01*
X103479931Y-60950000D01*
X102772500Y-60950000D01*
X102728306Y-60931694D01*
X102710000Y-60887500D01*
X102710000Y-60512500D01*
X102728306Y-60468306D01*
X102772500Y-60450000D01*
X103479931Y-60450000D01*
X103477167Y-60414880D01*
X103477167Y-60414875D01*
X103432405Y-60260805D01*
X103432404Y-60260804D01*
X103350737Y-60122711D01*
X103237288Y-60009262D01*
X103098690Y-59927296D01*
X103069969Y-59889043D01*
X103076709Y-59841685D01*
X103114962Y-59812964D01*
X103130505Y-59811000D01*
X103337091Y-59811000D01*
X103381285Y-59829306D01*
X103393942Y-59847536D01*
X103396666Y-59853501D01*
X103407882Y-59866445D01*
X103455743Y-59921680D01*
X103477168Y-59946405D01*
X103580584Y-60012866D01*
X103580586Y-60012866D01*
X103580587Y-60012867D01*
X103698534Y-60047500D01*
X103698535Y-60047500D01*
X103821465Y-60047500D01*
X103939416Y-60012866D01*
X104042832Y-59946405D01*
X104119151Y-59858329D01*
X104123330Y-59853506D01*
X104123332Y-59853503D01*
X104123334Y-59853501D01*
X104174401Y-59741679D01*
X104191896Y-59620000D01*
X104174401Y-59498321D01*
X104123334Y-59386499D01*
X104123330Y-59386493D01*
X104042833Y-59293596D01*
X104042832Y-59293595D01*
X103939416Y-59227134D01*
X103939414Y-59227133D01*
X103939412Y-59227132D01*
X103821466Y-59192500D01*
X103821465Y-59192500D01*
X103698535Y-59192500D01*
X103698534Y-59192500D01*
X103580587Y-59227132D01*
X103477166Y-59293596D01*
X103396668Y-59386496D01*
X103396666Y-59386499D01*
X103393942Y-59392462D01*
X103358935Y-59425058D01*
X103337091Y-59429000D01*
X102269132Y-59429000D01*
X102224938Y-59410694D01*
X102206632Y-59366500D01*
X102224938Y-59322306D01*
X102242719Y-59309856D01*
X102277573Y-59293603D01*
X102471081Y-59158107D01*
X102638107Y-58991081D01*
X102773601Y-58797575D01*
X102873431Y-58583489D01*
X102873432Y-58583487D01*
X102930636Y-58370001D01*
X102930636Y-58370000D01*
X102033012Y-58370000D01*
X102065925Y-58312993D01*
X102100000Y-58185826D01*
X102100000Y-58054174D01*
X102065925Y-57927007D01*
X102033012Y-57870000D01*
X102930636Y-57870000D01*
X102930636Y-57869998D01*
X102873432Y-57656512D01*
X102873431Y-57656510D01*
X102773600Y-57442422D01*
X102638109Y-57248920D01*
X102471081Y-57081892D01*
X102277575Y-56946398D01*
X102063489Y-56846568D01*
X102063487Y-56846567D01*
X101850001Y-56789363D01*
X101850000Y-56789364D01*
X101850000Y-57686988D01*
X101792993Y-57654075D01*
X101665826Y-57620000D01*
X101534174Y-57620000D01*
X101407007Y-57654075D01*
X101350000Y-57686988D01*
X101350000Y-56789364D01*
X101349998Y-56789363D01*
X101136512Y-56846567D01*
X101136510Y-56846568D01*
X100922422Y-56946399D01*
X100728920Y-57081890D01*
X100561890Y-57248920D01*
X100426399Y-57442422D01*
X100326568Y-57656510D01*
X100326567Y-57656512D01*
X100265433Y-57884666D01*
X100265430Y-57884682D01*
X100252262Y-58035199D01*
X100230174Y-58077630D01*
X100184553Y-58092014D01*
X100142122Y-58069926D01*
X100127500Y-58029752D01*
X100127500Y-53039999D01*
X100617770Y-53039999D01*
X100617770Y-53040000D01*
X100636642Y-53231622D01*
X100656811Y-53298111D01*
X100692538Y-53415883D01*
X100717017Y-53461680D01*
X100783302Y-53585692D01*
X100783306Y-53585698D01*
X100905459Y-53734541D01*
X101054302Y-53856694D01*
X101054304Y-53856695D01*
X101054307Y-53856697D01*
X101092464Y-53877092D01*
X101224117Y-53947462D01*
X101408376Y-54003357D01*
X101600000Y-54022230D01*
X101791624Y-54003357D01*
X101975883Y-53947462D01*
X102145698Y-53856694D01*
X102294541Y-53734541D01*
X102416694Y-53585698D01*
X102507462Y-53415883D01*
X102546602Y-53286856D01*
X102576949Y-53249880D01*
X102606411Y-53242500D01*
X103430234Y-53242500D01*
X103474428Y-53260806D01*
X103779194Y-53565572D01*
X103797500Y-53609766D01*
X103797500Y-55674861D01*
X103779194Y-55719055D01*
X103735000Y-55737361D01*
X103690806Y-55719055D01*
X103677258Y-55698779D01*
X103671673Y-55685297D01*
X103671672Y-55685295D01*
X103671671Y-55685293D01*
X103614707Y-55628329D01*
X103394707Y-55408329D01*
X103394706Y-55408328D01*
X103394703Y-55408326D01*
X103320282Y-55377500D01*
X103320280Y-55377500D01*
X102606411Y-55377500D01*
X102562217Y-55359194D01*
X102546602Y-55333143D01*
X102507462Y-55204117D01*
X102434870Y-55068306D01*
X102416697Y-55034307D01*
X102416693Y-55034301D01*
X102414374Y-55031475D01*
X102294541Y-54885459D01*
X102145698Y-54763306D01*
X102145692Y-54763302D01*
X102032447Y-54702772D01*
X101975883Y-54672538D01*
X101858111Y-54636811D01*
X101791622Y-54616642D01*
X101600000Y-54597770D01*
X101408377Y-54616642D01*
X101307298Y-54647305D01*
X101224117Y-54672538D01*
X101224115Y-54672538D01*
X101224115Y-54672539D01*
X101054307Y-54763302D01*
X101054301Y-54763306D01*
X100905459Y-54885459D01*
X100783306Y-55034301D01*
X100783302Y-55034307D01*
X100704929Y-55180935D01*
X100692538Y-55204117D01*
X100672369Y-55270604D01*
X100636642Y-55388377D01*
X100617770Y-55579999D01*
X100617770Y-55580000D01*
X100636642Y-55771622D01*
X100649712Y-55814707D01*
X100692538Y-55955883D01*
X100711801Y-55991922D01*
X100783302Y-56125692D01*
X100783306Y-56125698D01*
X100905459Y-56274541D01*
X101054302Y-56396694D01*
X101054304Y-56396695D01*
X101054307Y-56396697D01*
X101083981Y-56412558D01*
X101224117Y-56487462D01*
X101408376Y-56543357D01*
X101600000Y-56562230D01*
X101791624Y-56543357D01*
X101975883Y-56487462D01*
X102145698Y-56396694D01*
X102294541Y-56274541D01*
X102416694Y-56125698D01*
X102507462Y-55955883D01*
X102546602Y-55826856D01*
X102576949Y-55789880D01*
X102606411Y-55782500D01*
X103170234Y-55782500D01*
X103214428Y-55800806D01*
X103279194Y-55865572D01*
X103297500Y-55909766D01*
X103297500Y-56540282D01*
X103328326Y-56614703D01*
X103328330Y-56614708D01*
X106664274Y-59950653D01*
X106682580Y-59994847D01*
X106681944Y-60003742D01*
X106668104Y-60100000D01*
X106685598Y-60221677D01*
X106685599Y-60221680D01*
X106736665Y-60333500D01*
X106736669Y-60333506D01*
X106817166Y-60426403D01*
X106817168Y-60426405D01*
X106920584Y-60492866D01*
X106920586Y-60492866D01*
X106920587Y-60492867D01*
X107038534Y-60527500D01*
X107038535Y-60527500D01*
X107161465Y-60527500D01*
X107279416Y-60492866D01*
X107382832Y-60426405D01*
X107437766Y-60363008D01*
X107480541Y-60341596D01*
X107525929Y-60356703D01*
X107547341Y-60399478D01*
X107547500Y-60403937D01*
X107547500Y-61310282D01*
X107578326Y-61384703D01*
X107578330Y-61384708D01*
X110999194Y-64805572D01*
X111017500Y-64849766D01*
X111017500Y-67430282D01*
X111048326Y-67504703D01*
X111048328Y-67504706D01*
X111048329Y-67504707D01*
X115525293Y-71981671D01*
X115525294Y-71981671D01*
X115525296Y-71981673D01*
X115599717Y-72012499D01*
X115599720Y-72012500D01*
X115680280Y-72012500D01*
X116572615Y-72012500D01*
X116616809Y-72030806D01*
X116625195Y-72041212D01*
X116626668Y-72043504D01*
X116707166Y-72136403D01*
X116707168Y-72136405D01*
X116810584Y-72202866D01*
X116810586Y-72202866D01*
X116810587Y-72202867D01*
X116928534Y-72237500D01*
X116928535Y-72237500D01*
X117051465Y-72237500D01*
X117169416Y-72202866D01*
X117272832Y-72136405D01*
X117353334Y-72043501D01*
X117404401Y-71931679D01*
X117421896Y-71810000D01*
X117404401Y-71688321D01*
X117353334Y-71576499D01*
X117353331Y-71576495D01*
X117353330Y-71576493D01*
X117272832Y-71483595D01*
X117261641Y-71476403D01*
X117247909Y-71467578D01*
X117220627Y-71428286D01*
X117229120Y-71381211D01*
X117268413Y-71353928D01*
X117281699Y-71352500D01*
X126210234Y-71352500D01*
X126254428Y-71370806D01*
X126564274Y-71680652D01*
X126582580Y-71724846D01*
X126581944Y-71733741D01*
X126568104Y-71829999D01*
X126585598Y-71951677D01*
X126585599Y-71951680D01*
X126636665Y-72063500D01*
X126636669Y-72063506D01*
X126708501Y-72146403D01*
X126717168Y-72156405D01*
X126820584Y-72222866D01*
X126820586Y-72222866D01*
X126820587Y-72222867D01*
X126938534Y-72257500D01*
X126938535Y-72257500D01*
X127061465Y-72257500D01*
X127179416Y-72222866D01*
X127282832Y-72156405D01*
X127354587Y-72073596D01*
X127363330Y-72063506D01*
X127363331Y-72063504D01*
X127363334Y-72063501D01*
X127414401Y-71951679D01*
X127431896Y-71830000D01*
X127414401Y-71708321D01*
X127363334Y-71596499D01*
X127363330Y-71596493D01*
X127282833Y-71503596D01*
X127282832Y-71503595D01*
X127179416Y-71437134D01*
X127179414Y-71437133D01*
X127179412Y-71437132D01*
X127061466Y-71402500D01*
X127061465Y-71402500D01*
X126938535Y-71402500D01*
X126912537Y-71410133D01*
X126864976Y-71405018D01*
X126850736Y-71394358D01*
X126575572Y-71119194D01*
X126557266Y-71075000D01*
X126575572Y-71030806D01*
X126619766Y-71012500D01*
X135860234Y-71012500D01*
X135904428Y-71030806D01*
X136544274Y-71670653D01*
X136562580Y-71714847D01*
X136561944Y-71723742D01*
X136548104Y-71820000D01*
X136565598Y-71941677D01*
X136565599Y-71941680D01*
X136616665Y-72053500D01*
X136616669Y-72053506D01*
X136688501Y-72136403D01*
X136697168Y-72146405D01*
X136800584Y-72212866D01*
X136800586Y-72212866D01*
X136800587Y-72212867D01*
X136918534Y-72247500D01*
X136918535Y-72247500D01*
X137041465Y-72247500D01*
X137159416Y-72212866D01*
X137262832Y-72146405D01*
X137325922Y-72073596D01*
X137343330Y-72053506D01*
X137343331Y-72053504D01*
X137343334Y-72053501D01*
X137394401Y-71941679D01*
X137411896Y-71820000D01*
X137394401Y-71698321D01*
X137343334Y-71586499D01*
X137343330Y-71586493D01*
X137262833Y-71493596D01*
X137262832Y-71493595D01*
X137159416Y-71427134D01*
X137159414Y-71427133D01*
X137159412Y-71427132D01*
X137041466Y-71392500D01*
X137041465Y-71392500D01*
X136918535Y-71392500D01*
X136892538Y-71400133D01*
X136844977Y-71395019D01*
X136830737Y-71384358D01*
X136541385Y-71095006D01*
X136215571Y-70769193D01*
X136197266Y-70725000D01*
X136215572Y-70680806D01*
X136259766Y-70662500D01*
X145630234Y-70662500D01*
X145674428Y-70680806D01*
X146674274Y-71680653D01*
X146692580Y-71724847D01*
X146691944Y-71733742D01*
X146678104Y-71830000D01*
X146695598Y-71951677D01*
X146695599Y-71951680D01*
X146746665Y-72063500D01*
X146746669Y-72063506D01*
X146818501Y-72146403D01*
X146827168Y-72156405D01*
X146930584Y-72222866D01*
X146930586Y-72222866D01*
X146930587Y-72222867D01*
X147048534Y-72257500D01*
X147048535Y-72257500D01*
X147171465Y-72257500D01*
X147289416Y-72222866D01*
X147392832Y-72156405D01*
X147464587Y-72073596D01*
X147473330Y-72063506D01*
X147473331Y-72063504D01*
X147473334Y-72063501D01*
X147524401Y-71951679D01*
X147541896Y-71830000D01*
X147524401Y-71708321D01*
X147473334Y-71596499D01*
X147473330Y-71596493D01*
X147392833Y-71503596D01*
X147392832Y-71503595D01*
X147289416Y-71437134D01*
X147289414Y-71437133D01*
X147289412Y-71437132D01*
X147171466Y-71402500D01*
X147171465Y-71402500D01*
X147048535Y-71402500D01*
X147022538Y-71410133D01*
X146974977Y-71405019D01*
X146960737Y-71394358D01*
X145854708Y-70288330D01*
X145854703Y-70288326D01*
X145780282Y-70257500D01*
X145780280Y-70257500D01*
X115779766Y-70257500D01*
X115735572Y-70239194D01*
X114805572Y-69309194D01*
X114787266Y-69265000D01*
X114805572Y-69220806D01*
X114849766Y-69202500D01*
X143670280Y-69202500D01*
X143712207Y-69185133D01*
X143744703Y-69171673D01*
X143744703Y-69171672D01*
X143744707Y-69171671D01*
X145616378Y-67300000D01*
X151028104Y-67300000D01*
X151045598Y-67421677D01*
X151045599Y-67421680D01*
X151096665Y-67533500D01*
X151096669Y-67533506D01*
X151177166Y-67626403D01*
X151177168Y-67626405D01*
X151280584Y-67692866D01*
X151280586Y-67692866D01*
X151280587Y-67692867D01*
X151398534Y-67727500D01*
X151398535Y-67727500D01*
X151521466Y-67727500D01*
X151521466Y-67727499D01*
X151616023Y-67699735D01*
X151639414Y-67692867D01*
X151639416Y-67692866D01*
X151679196Y-67667300D01*
X151726268Y-67658806D01*
X151750004Y-67671766D01*
X151750629Y-67670832D01*
X151842575Y-67732269D01*
X151842577Y-67732270D01*
X151919144Y-67747500D01*
X152240856Y-67747500D01*
X152317423Y-67732270D01*
X152404252Y-67674252D01*
X152462270Y-67587423D01*
X152477500Y-67510856D01*
X152477500Y-67089144D01*
X152462270Y-67012577D01*
X152462269Y-67012575D01*
X152404252Y-66925747D01*
X152317424Y-66867730D01*
X152317422Y-66867729D01*
X152240856Y-66852500D01*
X151919144Y-66852500D01*
X151842578Y-66867729D01*
X151842577Y-66867730D01*
X151755748Y-66925748D01*
X151755747Y-66925749D01*
X151750631Y-66929168D01*
X151749512Y-66927494D01*
X151712975Y-66942621D01*
X151679196Y-66932699D01*
X151659356Y-66919949D01*
X151639417Y-66907134D01*
X151639413Y-66907133D01*
X151521466Y-66872500D01*
X151521465Y-66872500D01*
X151398535Y-66872500D01*
X151398534Y-66872500D01*
X151280587Y-66907132D01*
X151177166Y-66973596D01*
X151096669Y-67066493D01*
X151096665Y-67066499D01*
X151045599Y-67178319D01*
X151045598Y-67178322D01*
X151028104Y-67300000D01*
X145616378Y-67300000D01*
X145651671Y-67264707D01*
X145682500Y-67190280D01*
X145682500Y-67109720D01*
X145682500Y-65809766D01*
X145700806Y-65765572D01*
X145965573Y-65500806D01*
X146009767Y-65482500D01*
X151860234Y-65482500D01*
X151904428Y-65500806D01*
X152879194Y-66475572D01*
X152897500Y-66519766D01*
X152897500Y-66811503D01*
X152879194Y-66855697D01*
X152867265Y-66863667D01*
X152867695Y-66864310D01*
X152775747Y-66925747D01*
X152717730Y-67012575D01*
X152717729Y-67012577D01*
X152702500Y-67089143D01*
X152702500Y-67510856D01*
X152717729Y-67587422D01*
X152717730Y-67587424D01*
X152775747Y-67674252D01*
X152846728Y-67721680D01*
X152862577Y-67732270D01*
X152864253Y-67732603D01*
X152865671Y-67733551D01*
X152868262Y-67734624D01*
X152868048Y-67735139D01*
X152904026Y-67759176D01*
X152909803Y-67769984D01*
X152928326Y-67814702D01*
X152928330Y-67814708D01*
X153189729Y-68076107D01*
X153208035Y-68120301D01*
X153189729Y-68164495D01*
X153145535Y-68182801D01*
X153127927Y-68180269D01*
X153101467Y-68172500D01*
X153101465Y-68172500D01*
X152978535Y-68172500D01*
X152978534Y-68172500D01*
X152860587Y-68207132D01*
X152757166Y-68273596D01*
X152676669Y-68366493D01*
X152676665Y-68366499D01*
X152625599Y-68478319D01*
X152625598Y-68478322D01*
X152608104Y-68600000D01*
X152625598Y-68721677D01*
X152625599Y-68721680D01*
X152676665Y-68833500D01*
X152676669Y-68833506D01*
X152757166Y-68926403D01*
X152757168Y-68926405D01*
X152860584Y-68992866D01*
X152860586Y-68992866D01*
X152860587Y-68992867D01*
X152978534Y-69027500D01*
X152978535Y-69027500D01*
X153101465Y-69027500D01*
X153219416Y-68992866D01*
X153322832Y-68926405D01*
X153364960Y-68877787D01*
X153390766Y-68848006D01*
X153433542Y-68826594D01*
X153478929Y-68841701D01*
X153500341Y-68884477D01*
X153500500Y-68888935D01*
X153500500Y-68895020D01*
X153531326Y-68969441D01*
X153531330Y-68969446D01*
X154539879Y-69977995D01*
X154558185Y-70022189D01*
X154542920Y-70063117D01*
X154496669Y-70116493D01*
X154496665Y-70116499D01*
X154445599Y-70228319D01*
X154445598Y-70228322D01*
X154428104Y-70350000D01*
X154445598Y-70471677D01*
X154445599Y-70471680D01*
X154496665Y-70583500D01*
X154496669Y-70583506D01*
X154565119Y-70662500D01*
X154577168Y-70676405D01*
X154680584Y-70742866D01*
X154680586Y-70742866D01*
X154680587Y-70742867D01*
X154798534Y-70777500D01*
X154798535Y-70777500D01*
X154921465Y-70777500D01*
X155039416Y-70742866D01*
X155142832Y-70676405D01*
X155223334Y-70583501D01*
X155248148Y-70529164D01*
X155283158Y-70496569D01*
X155330963Y-70498276D01*
X155363559Y-70533286D01*
X155367500Y-70555128D01*
X155367500Y-70737841D01*
X155349194Y-70782035D01*
X155338790Y-70790419D01*
X155287169Y-70823593D01*
X155287167Y-70823595D01*
X155206669Y-70916493D01*
X155206665Y-70916499D01*
X155155599Y-71028319D01*
X155155598Y-71028322D01*
X155138104Y-71150000D01*
X155155598Y-71271677D01*
X155155599Y-71271680D01*
X155206665Y-71383500D01*
X155206669Y-71383506D01*
X155279520Y-71467579D01*
X155287168Y-71476405D01*
X155390584Y-71542866D01*
X155390586Y-71542866D01*
X155390587Y-71542867D01*
X155508534Y-71577500D01*
X155508535Y-71577500D01*
X155631465Y-71577500D01*
X155749416Y-71542866D01*
X155786220Y-71519213D01*
X155833293Y-71510720D01*
X155872586Y-71538001D01*
X155881974Y-71579943D01*
X155880882Y-71588245D01*
X155876658Y-71604012D01*
X155845743Y-71678645D01*
X155837586Y-71692774D01*
X155788406Y-71756868D01*
X155776868Y-71768406D01*
X155712774Y-71817586D01*
X155698645Y-71825743D01*
X155624012Y-71856658D01*
X155608252Y-71860881D01*
X155524064Y-71871965D01*
X155515906Y-71872500D01*
X151524094Y-71872500D01*
X151515936Y-71871965D01*
X151431746Y-71860880D01*
X151415988Y-71856658D01*
X151366026Y-71835963D01*
X151341354Y-71825743D01*
X151327225Y-71817586D01*
X151263131Y-71768406D01*
X151251593Y-71756868D01*
X151202413Y-71692774D01*
X151194256Y-71678645D01*
X151191060Y-71670931D01*
X151163339Y-71604006D01*
X151159119Y-71588256D01*
X151148035Y-71504062D01*
X151147500Y-71495905D01*
X151147500Y-69754094D01*
X151148035Y-69745937D01*
X151151099Y-69722660D01*
X151159119Y-69661741D01*
X151163338Y-69645995D01*
X151194257Y-69571352D01*
X151202413Y-69557225D01*
X151229279Y-69522212D01*
X151251596Y-69493127D01*
X151263127Y-69481596D01*
X151315955Y-69441060D01*
X151327225Y-69432413D01*
X151341352Y-69424257D01*
X151415995Y-69393338D01*
X151431741Y-69389119D01*
X151509393Y-69378896D01*
X151515937Y-69378035D01*
X151524094Y-69377500D01*
X151840701Y-69377500D01*
X151840702Y-69377500D01*
X151978562Y-69346035D01*
X152105963Y-69284682D01*
X152216517Y-69196517D01*
X152304682Y-69085963D01*
X152366035Y-68958562D01*
X152397500Y-68820702D01*
X152397500Y-68750000D01*
X152397500Y-68720899D01*
X152397500Y-68679298D01*
X152366035Y-68541438D01*
X152304682Y-68414037D01*
X152216517Y-68303483D01*
X152105963Y-68215318D01*
X152105960Y-68215316D01*
X152017050Y-68172500D01*
X151978562Y-68153965D01*
X151978560Y-68153964D01*
X151978559Y-68153964D01*
X151840703Y-68122500D01*
X151840702Y-68122500D01*
X151795361Y-68122500D01*
X150549101Y-68122500D01*
X150520000Y-68122500D01*
X150449298Y-68122500D01*
X150449296Y-68122500D01*
X150311440Y-68153964D01*
X150184039Y-68215316D01*
X150184036Y-68215318D01*
X150073483Y-68303483D01*
X149985318Y-68414036D01*
X149985316Y-68414039D01*
X149923964Y-68541440D01*
X149892500Y-68679296D01*
X149892500Y-72570703D01*
X149923964Y-72708559D01*
X149985316Y-72835960D01*
X149985318Y-72835963D01*
X150073483Y-72946517D01*
X150184037Y-73034682D01*
X150311438Y-73096035D01*
X150449298Y-73127500D01*
X150449299Y-73127500D01*
X156590701Y-73127500D01*
X156590702Y-73127500D01*
X156728562Y-73096035D01*
X156855963Y-73034682D01*
X156966517Y-72946517D01*
X157054682Y-72835963D01*
X157116035Y-72708562D01*
X157147500Y-72570702D01*
X157147500Y-72500000D01*
X157147500Y-72470899D01*
X157147500Y-68724639D01*
X157147500Y-68679298D01*
X157116035Y-68541438D01*
X157054682Y-68414037D01*
X156966517Y-68303483D01*
X156855963Y-68215318D01*
X156855960Y-68215316D01*
X156767050Y-68172500D01*
X156728562Y-68153965D01*
X156728560Y-68153964D01*
X156728559Y-68153964D01*
X156590703Y-68122500D01*
X156590702Y-68122500D01*
X156545361Y-68122500D01*
X155299101Y-68122500D01*
X155270000Y-68122500D01*
X155199298Y-68122500D01*
X155199296Y-68122500D01*
X155061440Y-68153964D01*
X154934039Y-68215316D01*
X154934036Y-68215318D01*
X154823483Y-68303483D01*
X154735318Y-68414036D01*
X154735316Y-68414039D01*
X154673964Y-68541440D01*
X154642500Y-68679296D01*
X154642500Y-68820703D01*
X154668872Y-68936250D01*
X154673965Y-68958562D01*
X154689950Y-68991755D01*
X154692631Y-69039515D01*
X154660756Y-69075183D01*
X154612996Y-69077864D01*
X154589445Y-69063066D01*
X154200806Y-68674427D01*
X154182500Y-68630233D01*
X154182500Y-67788496D01*
X154200806Y-67744302D01*
X154212735Y-67736334D01*
X154212305Y-67735690D01*
X154304252Y-67674252D01*
X154321029Y-67649144D01*
X154362270Y-67587423D01*
X154377500Y-67510856D01*
X154377500Y-67089144D01*
X154377500Y-67089143D01*
X154602500Y-67089143D01*
X154602500Y-67510856D01*
X154617729Y-67587422D01*
X154617730Y-67587424D01*
X154675747Y-67674252D01*
X154762575Y-67732269D01*
X154762577Y-67732270D01*
X154839144Y-67747500D01*
X155160856Y-67747500D01*
X155237423Y-67732270D01*
X155279034Y-67704466D01*
X155329371Y-67670832D01*
X155330492Y-67672511D01*
X155366992Y-67657378D01*
X155400801Y-67667299D01*
X155440584Y-67692866D01*
X155519218Y-67715955D01*
X155558534Y-67727500D01*
X155558535Y-67727500D01*
X155681465Y-67727500D01*
X155799416Y-67692866D01*
X155902832Y-67626405D01*
X155983334Y-67533501D01*
X156034401Y-67421679D01*
X156051896Y-67300000D01*
X156034401Y-67178321D01*
X155983334Y-67066499D01*
X155983330Y-67066493D01*
X155902833Y-66973596D01*
X155902832Y-66973595D01*
X155799416Y-66907134D01*
X155799414Y-66907133D01*
X155799412Y-66907132D01*
X155681466Y-66872500D01*
X155681465Y-66872500D01*
X155558535Y-66872500D01*
X155558534Y-66872500D01*
X155440585Y-66907133D01*
X155400802Y-66932699D01*
X155353726Y-66941191D01*
X155329995Y-66928232D01*
X155329371Y-66929168D01*
X155237424Y-66867730D01*
X155237422Y-66867729D01*
X155160856Y-66852500D01*
X154839144Y-66852500D01*
X154762577Y-66867729D01*
X154762575Y-66867730D01*
X154675747Y-66925747D01*
X154617730Y-67012575D01*
X154617729Y-67012577D01*
X154602500Y-67089143D01*
X154377500Y-67089143D01*
X154362270Y-67012577D01*
X154362269Y-67012575D01*
X154304252Y-66925747D01*
X154212305Y-66864310D01*
X154213843Y-66862006D01*
X154187258Y-66835421D01*
X154182500Y-66811503D01*
X154182500Y-66369720D01*
X154182499Y-66369717D01*
X154151673Y-66295296D01*
X154151669Y-66295291D01*
X152524708Y-64668330D01*
X152524703Y-64668326D01*
X152450282Y-64637500D01*
X152450280Y-64637500D01*
X145820280Y-64637500D01*
X145739720Y-64637500D01*
X145739717Y-64637500D01*
X145665296Y-64668326D01*
X145665291Y-64668330D01*
X145008330Y-65325291D01*
X145008326Y-65325296D01*
X144977500Y-65399717D01*
X144977500Y-66860233D01*
X144959194Y-66904427D01*
X143434428Y-68429194D01*
X143390234Y-68447500D01*
X114969766Y-68447500D01*
X114925572Y-68429194D01*
X113090806Y-66594428D01*
X113072500Y-66550234D01*
X113072500Y-63619720D01*
X113072499Y-63619717D01*
X113041673Y-63545296D01*
X113041669Y-63545291D01*
X110983820Y-61487442D01*
X113422500Y-61487442D01*
X113422500Y-66512557D01*
X113429898Y-66549748D01*
X113429898Y-66549749D01*
X113458077Y-66591922D01*
X113461828Y-66594428D01*
X113500252Y-66620102D01*
X113537442Y-66627500D01*
X113537443Y-66627500D01*
X118562557Y-66627500D01*
X118562558Y-66627500D01*
X118599748Y-66620102D01*
X118641922Y-66591922D01*
X118670102Y-66549748D01*
X118677500Y-66512558D01*
X118677500Y-66047835D01*
X126500000Y-66047835D01*
X126506402Y-66107377D01*
X126556647Y-66242091D01*
X126556649Y-66242094D01*
X126642808Y-66357186D01*
X126642813Y-66357191D01*
X126757905Y-66443350D01*
X126757908Y-66443352D01*
X126892622Y-66493597D01*
X126952164Y-66499999D01*
X126952178Y-66500000D01*
X128750000Y-66500000D01*
X129250000Y-66500000D01*
X131047822Y-66500000D01*
X131047835Y-66499999D01*
X131107377Y-66493597D01*
X131242091Y-66443352D01*
X131242094Y-66443350D01*
X131357186Y-66357191D01*
X131357191Y-66357186D01*
X131443350Y-66242094D01*
X131443352Y-66242091D01*
X131493597Y-66107377D01*
X131499999Y-66047835D01*
X131500000Y-66047822D01*
X131500000Y-64250000D01*
X129250000Y-64250000D01*
X129250000Y-66500000D01*
X128750000Y-66500000D01*
X128750000Y-64250000D01*
X126500000Y-64250000D01*
X126500000Y-66047835D01*
X118677500Y-66047835D01*
X118677500Y-61952164D01*
X126500000Y-61952164D01*
X126500000Y-63750000D01*
X128750000Y-63750000D01*
X129250000Y-63750000D01*
X131500000Y-63750000D01*
X131500000Y-61952177D01*
X131499999Y-61952164D01*
X131493597Y-61892622D01*
X131443352Y-61757908D01*
X131443350Y-61757905D01*
X131357191Y-61642813D01*
X131357186Y-61642808D01*
X131242094Y-61556649D01*
X131242091Y-61556647D01*
X131107377Y-61506402D01*
X131047835Y-61500000D01*
X129250000Y-61500000D01*
X129250000Y-63750000D01*
X128750000Y-63750000D01*
X128750000Y-61500000D01*
X126952164Y-61500000D01*
X126892622Y-61506402D01*
X126757908Y-61556647D01*
X126757905Y-61556649D01*
X126642813Y-61642808D01*
X126642808Y-61642813D01*
X126556649Y-61757905D01*
X126556647Y-61757908D01*
X126506402Y-61892622D01*
X126500000Y-61952164D01*
X118677500Y-61952164D01*
X118677500Y-61487442D01*
X139322500Y-61487442D01*
X139322500Y-66512557D01*
X139329898Y-66549748D01*
X139329898Y-66549749D01*
X139358077Y-66591922D01*
X139361828Y-66594428D01*
X139400252Y-66620102D01*
X139437442Y-66627500D01*
X139437443Y-66627500D01*
X144462557Y-66627500D01*
X144462558Y-66627500D01*
X144499748Y-66620102D01*
X144541922Y-66591922D01*
X144570102Y-66549748D01*
X144577500Y-66512558D01*
X144577500Y-61487442D01*
X144570102Y-61450252D01*
X144568487Y-61447835D01*
X146800000Y-61447835D01*
X146806402Y-61507377D01*
X146856647Y-61642091D01*
X146856649Y-61642094D01*
X146942808Y-61757186D01*
X146942813Y-61757191D01*
X147057905Y-61843350D01*
X147057908Y-61843352D01*
X147192622Y-61893597D01*
X147252164Y-61899999D01*
X147252178Y-61900000D01*
X148550000Y-61900000D01*
X149050000Y-61900000D01*
X150347822Y-61900000D01*
X150347835Y-61899999D01*
X150407377Y-61893597D01*
X150542091Y-61843352D01*
X150542094Y-61843350D01*
X150657186Y-61757191D01*
X150657191Y-61757186D01*
X150743350Y-61642094D01*
X150743352Y-61642091D01*
X150793597Y-61507377D01*
X150799999Y-61447835D01*
X150800000Y-61447822D01*
X150800000Y-60650000D01*
X149050000Y-60650000D01*
X149050000Y-61900000D01*
X148550000Y-61900000D01*
X148550000Y-60650000D01*
X146800000Y-60650000D01*
X146800000Y-61447835D01*
X144568487Y-61447835D01*
X144541922Y-61408077D01*
X144499748Y-61379898D01*
X144462558Y-61372500D01*
X144462557Y-61372500D01*
X142390000Y-61372500D01*
X142345806Y-61354194D01*
X142327500Y-61310000D01*
X142327500Y-61037973D01*
X142333147Y-61012012D01*
X142374401Y-60921679D01*
X142391896Y-60800000D01*
X142374401Y-60678321D01*
X142323334Y-60566499D01*
X142323330Y-60566493D01*
X142242833Y-60473596D01*
X142242832Y-60473595D01*
X142139416Y-60407134D01*
X142139414Y-60407133D01*
X142139412Y-60407132D01*
X142021466Y-60372500D01*
X142021465Y-60372500D01*
X141898535Y-60372500D01*
X141898534Y-60372500D01*
X141780587Y-60407132D01*
X141677166Y-60473596D01*
X141596669Y-60566493D01*
X141596665Y-60566499D01*
X141545599Y-60678319D01*
X141545598Y-60678322D01*
X141528104Y-60800000D01*
X141545598Y-60921677D01*
X141545599Y-60921679D01*
X141566852Y-60968218D01*
X141572500Y-60994179D01*
X141572500Y-61310000D01*
X141554194Y-61354194D01*
X141510000Y-61372500D01*
X139437442Y-61372500D01*
X139418847Y-61376199D01*
X139400251Y-61379898D01*
X139400250Y-61379898D01*
X139358077Y-61408077D01*
X139329898Y-61450250D01*
X139329898Y-61450251D01*
X139322500Y-61487442D01*
X118677500Y-61487442D01*
X118670102Y-61450252D01*
X118668487Y-61447835D01*
X118641922Y-61408077D01*
X118599748Y-61379898D01*
X118562558Y-61372500D01*
X118562557Y-61372500D01*
X116490000Y-61372500D01*
X116445806Y-61354194D01*
X116427500Y-61310000D01*
X116427500Y-60992282D01*
X116433147Y-60966321D01*
X116444401Y-60941679D01*
X116461896Y-60820000D01*
X116444401Y-60698321D01*
X116413148Y-60629885D01*
X116407500Y-60603922D01*
X116407500Y-59881571D01*
X142425001Y-59881571D01*
X142431410Y-59952107D01*
X142431410Y-59952108D01*
X142481982Y-60114399D01*
X142569925Y-60259874D01*
X142690125Y-60380074D01*
X142835600Y-60468017D01*
X142997890Y-60518589D01*
X142997891Y-60518590D01*
X143068427Y-60524999D01*
X143149999Y-60524999D01*
X143150000Y-60524998D01*
X143150000Y-59875000D01*
X143650000Y-59875000D01*
X143650000Y-60524999D01*
X143731572Y-60524999D01*
X143802107Y-60518589D01*
X143802108Y-60518589D01*
X143964399Y-60468017D01*
X144109874Y-60380074D01*
X144232142Y-60257807D01*
X144276336Y-60239501D01*
X144293773Y-60241983D01*
X144414877Y-60277167D01*
X144450000Y-60279931D01*
X144450000Y-60279930D01*
X144950000Y-60279930D01*
X144985119Y-60277167D01*
X144985124Y-60277167D01*
X145139194Y-60232405D01*
X145139195Y-60232404D01*
X145277288Y-60150737D01*
X145277290Y-60150736D01*
X145390736Y-60037290D01*
X145390737Y-60037288D01*
X145472404Y-59899195D01*
X145472405Y-59899194D01*
X145512845Y-59760000D01*
X144950000Y-59760000D01*
X144950000Y-60279930D01*
X144450000Y-60279930D01*
X144450000Y-59760000D01*
X144443500Y-59760000D01*
X144443500Y-59812500D01*
X144425194Y-59856694D01*
X144381000Y-59875000D01*
X143650000Y-59875000D01*
X143150000Y-59875000D01*
X142425001Y-59875000D01*
X142425001Y-59881571D01*
X116407500Y-59881571D01*
X116407500Y-59368426D01*
X142425000Y-59368426D01*
X142425000Y-59375000D01*
X143150000Y-59375000D01*
X143150000Y-58725000D01*
X143068428Y-58725000D01*
X142997892Y-58731410D01*
X142997891Y-58731410D01*
X142835600Y-58781982D01*
X142690125Y-58869925D01*
X142569925Y-58990125D01*
X142481982Y-59135600D01*
X142431410Y-59297890D01*
X142431409Y-59297891D01*
X142425000Y-59368426D01*
X116407500Y-59368426D01*
X116407500Y-58152253D01*
X116425806Y-58108059D01*
X117215806Y-57318059D01*
X117260000Y-57299753D01*
X117304194Y-57318059D01*
X117322500Y-57362253D01*
X117322500Y-57637558D01*
X117329898Y-57674748D01*
X117329898Y-57674749D01*
X117358077Y-57716922D01*
X117386257Y-57735750D01*
X117400252Y-57745102D01*
X117437442Y-57752500D01*
X117437443Y-57752500D01*
X119162557Y-57752500D01*
X119162558Y-57752500D01*
X119199748Y-57745102D01*
X119241922Y-57716922D01*
X119270102Y-57674748D01*
X119277500Y-57637558D01*
X119277500Y-57215000D01*
X119295806Y-57170806D01*
X119340000Y-57152500D01*
X120474698Y-57152500D01*
X120474699Y-57152500D01*
X120570710Y-57126774D01*
X120656790Y-57077075D01*
X121402075Y-56331790D01*
X121404073Y-56328329D01*
X121451774Y-56245709D01*
X121477500Y-56149699D01*
X121477500Y-55422504D01*
X121495806Y-55378310D01*
X121522388Y-55362537D01*
X121547358Y-55355206D01*
X121678143Y-55295478D01*
X121709868Y-55275089D01*
X121818529Y-55180935D01*
X121843227Y-55152433D01*
X121920959Y-55031479D01*
X121936626Y-54997173D01*
X121977133Y-54859218D01*
X121982500Y-54821889D01*
X121982500Y-54250000D01*
X121970526Y-54194958D01*
X121921788Y-54138710D01*
X121906683Y-54093325D01*
X121928093Y-54050552D01*
X121961466Y-54021635D01*
X121961466Y-54021634D01*
X121961467Y-54021634D01*
X121961467Y-54021633D01*
X121971983Y-53985817D01*
X121982500Y-53950000D01*
X121982500Y-53378111D01*
X121977133Y-53340782D01*
X121936626Y-53202827D01*
X121929371Y-53186941D01*
X121920961Y-53168524D01*
X121920959Y-53168521D01*
X121843229Y-53047570D01*
X121843221Y-53047560D01*
X121832097Y-53034723D01*
X121818529Y-53019065D01*
X121709868Y-52924911D01*
X121709865Y-52924909D01*
X121678149Y-52904525D01*
X121678134Y-52904517D01*
X121589794Y-52864174D01*
X121547358Y-52844794D01*
X121535296Y-52841252D01*
X121511174Y-52834169D01*
X121368859Y-52813707D01*
X121368857Y-52813707D01*
X121331144Y-52813707D01*
X121331142Y-52813707D01*
X121309186Y-52816864D01*
X121300291Y-52817500D01*
X120899709Y-52817500D01*
X120890814Y-52816864D01*
X120868858Y-52813707D01*
X120868856Y-52813707D01*
X120831143Y-52813707D01*
X120831141Y-52813707D01*
X120688825Y-52834169D01*
X120652642Y-52844794D01*
X120521865Y-52904517D01*
X120521850Y-52904525D01*
X120490134Y-52924909D01*
X120476015Y-52937143D01*
X120381471Y-53019065D01*
X120381469Y-53019067D01*
X120381467Y-53019069D01*
X120355310Y-53049255D01*
X120354706Y-53048731D01*
X120315715Y-53071864D01*
X120306823Y-53072500D01*
X119134699Y-53072500D01*
X119035301Y-53072500D01*
X119035300Y-53072500D01*
X119035294Y-53072501D01*
X118939293Y-53098224D01*
X118939290Y-53098225D01*
X118853208Y-53147925D01*
X118700617Y-53300515D01*
X118656423Y-53318821D01*
X118638281Y-53316130D01*
X118491624Y-53271643D01*
X118300000Y-53252770D01*
X118108377Y-53271642D01*
X117990604Y-53307369D01*
X117924117Y-53327538D01*
X117924115Y-53327538D01*
X117924115Y-53327539D01*
X117754307Y-53418302D01*
X117754301Y-53418306D01*
X117605459Y-53540459D01*
X117483306Y-53689301D01*
X117483302Y-53689307D01*
X117392539Y-53859115D01*
X117392538Y-53859117D01*
X117377666Y-53908143D01*
X117336642Y-54043377D01*
X117317770Y-54234999D01*
X117317770Y-54235000D01*
X117336642Y-54426622D01*
X117343658Y-54449749D01*
X117392538Y-54610883D01*
X117412006Y-54647305D01*
X117483302Y-54780692D01*
X117483306Y-54780698D01*
X117605459Y-54929541D01*
X117754302Y-55051694D01*
X117754304Y-55051695D01*
X117754307Y-55051697D01*
X117785381Y-55068306D01*
X117924117Y-55142462D01*
X118108376Y-55198357D01*
X118300000Y-55217230D01*
X118491624Y-55198357D01*
X118675883Y-55142462D01*
X118845698Y-55051694D01*
X118994541Y-54929541D01*
X119116694Y-54780698D01*
X119207462Y-54610883D01*
X119263357Y-54426624D01*
X119282230Y-54235000D01*
X119281510Y-54227694D01*
X119264561Y-54055599D01*
X119263357Y-54043376D01*
X119222334Y-53908143D01*
X119227023Y-53860538D01*
X119264000Y-53830191D01*
X119282143Y-53827500D01*
X120155000Y-53827500D01*
X120199194Y-53845806D01*
X120217500Y-53890000D01*
X120217500Y-53950000D01*
X120229474Y-54005042D01*
X120278210Y-54061287D01*
X120293316Y-54106674D01*
X120271904Y-54149449D01*
X120238533Y-54178364D01*
X120238532Y-54178366D01*
X120217500Y-54249997D01*
X120217500Y-54821890D01*
X120222867Y-54859220D01*
X120263374Y-54997172D01*
X120263374Y-54997173D01*
X120279038Y-55031475D01*
X120279040Y-55031478D01*
X120350363Y-55142460D01*
X120356773Y-55152433D01*
X120381471Y-55180935D01*
X120490132Y-55275089D01*
X120501676Y-55282508D01*
X120521850Y-55295474D01*
X120521865Y-55295482D01*
X120559254Y-55312557D01*
X120652642Y-55355206D01*
X120677609Y-55362536D01*
X120714854Y-55392550D01*
X120722500Y-55422504D01*
X120722500Y-55917747D01*
X120704194Y-55961941D01*
X120286941Y-56379194D01*
X120242747Y-56397500D01*
X119340000Y-56397500D01*
X119295806Y-56379194D01*
X119277500Y-56335000D01*
X119277500Y-55912442D01*
X119275897Y-55904385D01*
X119270102Y-55875252D01*
X119248786Y-55843350D01*
X119241922Y-55833077D01*
X119199748Y-55804898D01*
X119179177Y-55800806D01*
X119162558Y-55797500D01*
X117437442Y-55797500D01*
X117420823Y-55800806D01*
X117400251Y-55804898D01*
X117400250Y-55804898D01*
X117358077Y-55833077D01*
X117329898Y-55875250D01*
X117329898Y-55875251D01*
X117322500Y-55912442D01*
X117322500Y-56335000D01*
X117304194Y-56379194D01*
X117260000Y-56397500D01*
X117175296Y-56397500D01*
X117079290Y-56423226D01*
X117079285Y-56423228D01*
X117033354Y-56449747D01*
X116993213Y-56472922D01*
X116993204Y-56472929D01*
X115727929Y-57738204D01*
X115727924Y-57738210D01*
X115678227Y-57824286D01*
X115678226Y-57824290D01*
X115671787Y-57848321D01*
X115671787Y-57848322D01*
X115652500Y-57920296D01*
X115652500Y-60603922D01*
X115646852Y-60629885D01*
X115615599Y-60698319D01*
X115615598Y-60698322D01*
X115598104Y-60820000D01*
X115615598Y-60941677D01*
X115615599Y-60941680D01*
X115666852Y-61053908D01*
X115672500Y-61079871D01*
X115672500Y-61310000D01*
X115654194Y-61354194D01*
X115610000Y-61372500D01*
X113537442Y-61372500D01*
X113518847Y-61376199D01*
X113500251Y-61379898D01*
X113500250Y-61379898D01*
X113458077Y-61408077D01*
X113429898Y-61450250D01*
X113429898Y-61450251D01*
X113422500Y-61487442D01*
X110983820Y-61487442D01*
X110220806Y-60724428D01*
X110202500Y-60680234D01*
X110202500Y-60209855D01*
X110220806Y-60165661D01*
X110265000Y-60147355D01*
X110282606Y-60149886D01*
X110299830Y-60154944D01*
X110308534Y-60157500D01*
X110308535Y-60157500D01*
X110431465Y-60157500D01*
X110549416Y-60122866D01*
X110652832Y-60056405D01*
X110716382Y-59983063D01*
X110759156Y-59961653D01*
X110804544Y-59976759D01*
X110820467Y-59998030D01*
X110836666Y-60033501D01*
X110836667Y-60033502D01*
X110836669Y-60033506D01*
X110913966Y-60122710D01*
X110917168Y-60126405D01*
X111020584Y-60192866D01*
X111020586Y-60192866D01*
X111020587Y-60192867D01*
X111138534Y-60227500D01*
X111138535Y-60227500D01*
X111261465Y-60227500D01*
X111379416Y-60192866D01*
X111482832Y-60126405D01*
X111551204Y-60047500D01*
X111563330Y-60033506D01*
X111563333Y-60033502D01*
X111563334Y-60033501D01*
X111614401Y-59921679D01*
X111631896Y-59800000D01*
X111630152Y-59787873D01*
X111641981Y-59741525D01*
X111683120Y-59717115D01*
X111709625Y-59719011D01*
X111738534Y-59727500D01*
X111738535Y-59727500D01*
X111861465Y-59727500D01*
X111979416Y-59692866D01*
X112082832Y-59626405D01*
X112163334Y-59533501D01*
X112214401Y-59421679D01*
X112231896Y-59300000D01*
X112214401Y-59178321D01*
X112163334Y-59066499D01*
X112163330Y-59066493D01*
X112082833Y-58973596D01*
X112082832Y-58973595D01*
X111979416Y-58907134D01*
X111979414Y-58907133D01*
X111979412Y-58907132D01*
X111861466Y-58872500D01*
X111861465Y-58872500D01*
X111738535Y-58872500D01*
X111712537Y-58880133D01*
X111664976Y-58875018D01*
X111650736Y-58864358D01*
X111195572Y-58409194D01*
X111177266Y-58365000D01*
X111195572Y-58320806D01*
X111239766Y-58302500D01*
X111462557Y-58302500D01*
X111462558Y-58302500D01*
X111499748Y-58295102D01*
X111541922Y-58266922D01*
X111570102Y-58224748D01*
X111577500Y-58187558D01*
X111577500Y-58114199D01*
X111595806Y-58070005D01*
X111616081Y-58056457D01*
X111639707Y-58046671D01*
X111921671Y-57764707D01*
X111926728Y-57752500D01*
X111942223Y-57715089D01*
X111952500Y-57690280D01*
X111952500Y-57609720D01*
X111952500Y-56059720D01*
X111948578Y-56050251D01*
X111921673Y-55985296D01*
X111921669Y-55985291D01*
X111806640Y-55870262D01*
X111788334Y-55826068D01*
X111806640Y-55781874D01*
X111850834Y-55763568D01*
X111872676Y-55767509D01*
X111942622Y-55793597D01*
X112002164Y-55799999D01*
X112002178Y-55800000D01*
X112050000Y-55800000D01*
X112050000Y-55282841D01*
X112450000Y-55282841D01*
X112450000Y-55800000D01*
X112497822Y-55800000D01*
X112497835Y-55799999D01*
X112557377Y-55793597D01*
X112678158Y-55748549D01*
X112721842Y-55748549D01*
X112842622Y-55793597D01*
X112902164Y-55799999D01*
X112902178Y-55800000D01*
X112950000Y-55800000D01*
X113350000Y-55800000D01*
X113397822Y-55800000D01*
X113397835Y-55799999D01*
X113457377Y-55793597D01*
X113592091Y-55743352D01*
X113592094Y-55743350D01*
X113707186Y-55657191D01*
X113707191Y-55657186D01*
X113793350Y-55542094D01*
X113793352Y-55542091D01*
X113843597Y-55407377D01*
X113849768Y-55349987D01*
X114575001Y-55349987D01*
X114585492Y-55452687D01*
X114585493Y-55452694D01*
X114640641Y-55619121D01*
X114732682Y-55768343D01*
X114856656Y-55892317D01*
X115005878Y-55984358D01*
X115172308Y-56039507D01*
X115275018Y-56049999D01*
X115549999Y-56049999D01*
X116050000Y-56049999D01*
X116324976Y-56049999D01*
X116324987Y-56049998D01*
X116427687Y-56039507D01*
X116427694Y-56039506D01*
X116594121Y-55984358D01*
X116743343Y-55892317D01*
X116867317Y-55768343D01*
X116959358Y-55619121D01*
X117014507Y-55452691D01*
X117024999Y-55349986D01*
X117025000Y-55349977D01*
X117025000Y-55300000D01*
X116050000Y-55300000D01*
X116050000Y-56049999D01*
X115549999Y-56049999D01*
X115550000Y-56049998D01*
X115550000Y-55300000D01*
X114575001Y-55300000D01*
X114575001Y-55349987D01*
X113849768Y-55349987D01*
X113849999Y-55347835D01*
X113850000Y-55347822D01*
X113850000Y-55250000D01*
X113350000Y-55250000D01*
X113350000Y-55800000D01*
X112950000Y-55800000D01*
X112950000Y-55282841D01*
X112949999Y-55282841D01*
X112792203Y-55440638D01*
X112748009Y-55458944D01*
X112703815Y-55440638D01*
X112700000Y-55436823D01*
X112699999Y-55436823D01*
X112696183Y-55440639D01*
X112651989Y-55458944D01*
X112607796Y-55440638D01*
X112450000Y-55282841D01*
X112050000Y-55282841D01*
X112050000Y-55112500D01*
X112068306Y-55068306D01*
X112112500Y-55050000D01*
X112217158Y-55050000D01*
X112217158Y-55049999D01*
X112152773Y-54985614D01*
X112134467Y-54941420D01*
X112152773Y-54897226D01*
X112249998Y-54800000D01*
X112532842Y-54800000D01*
X112582842Y-54850000D01*
X112817157Y-54850000D01*
X113382842Y-54850000D01*
X113850000Y-54850000D01*
X113850000Y-54846118D01*
X113850456Y-54838584D01*
X113855141Y-54800000D01*
X113855141Y-54799998D01*
X113850456Y-54761415D01*
X113850000Y-54753881D01*
X113850000Y-54752177D01*
X113849999Y-54752164D01*
X113849768Y-54750013D01*
X114575000Y-54750013D01*
X114575000Y-54800000D01*
X115550000Y-54800000D01*
X116050000Y-54800000D01*
X117024999Y-54800000D01*
X117024999Y-54750024D01*
X117024998Y-54750012D01*
X117014507Y-54647312D01*
X117014506Y-54647305D01*
X116959358Y-54480878D01*
X116867317Y-54331656D01*
X116743343Y-54207682D01*
X116594121Y-54115641D01*
X116427691Y-54060492D01*
X116324986Y-54050000D01*
X116050000Y-54050000D01*
X116050000Y-54800000D01*
X115550000Y-54800000D01*
X115550000Y-54050000D01*
X115275024Y-54050000D01*
X115275012Y-54050001D01*
X115172312Y-54060492D01*
X115172305Y-54060493D01*
X115005878Y-54115641D01*
X114856656Y-54207682D01*
X114732682Y-54331656D01*
X114640641Y-54480878D01*
X114585492Y-54647308D01*
X114575000Y-54750013D01*
X113849768Y-54750013D01*
X113843597Y-54692620D01*
X113842699Y-54688818D01*
X113842795Y-54688795D01*
X113840487Y-54679315D01*
X113834652Y-54631252D01*
X113834651Y-54631248D01*
X113774374Y-54472313D01*
X113774369Y-54472304D01*
X113768720Y-54464120D01*
X113382842Y-54850000D01*
X112817157Y-54850000D01*
X112867156Y-54799999D01*
X112700000Y-54632842D01*
X112532842Y-54800000D01*
X112249998Y-54800000D01*
X112249999Y-54799999D01*
X112152772Y-54702772D01*
X112134466Y-54658578D01*
X112152772Y-54614384D01*
X112471351Y-54295806D01*
X112515545Y-54277500D01*
X112884455Y-54277500D01*
X112928649Y-54295806D01*
X113149999Y-54517156D01*
X113484203Y-54182952D01*
X113494764Y-54140105D01*
X113500898Y-54132966D01*
X113713752Y-53920112D01*
X113740331Y-53904341D01*
X113779416Y-53892866D01*
X113882832Y-53826405D01*
X113958020Y-53739634D01*
X113963330Y-53733506D01*
X113963331Y-53733504D01*
X113963334Y-53733501D01*
X114011581Y-53627853D01*
X114024234Y-53609629D01*
X114088060Y-53545805D01*
X114132253Y-53527500D01*
X114928121Y-53527500D01*
X114972315Y-53545806D01*
X114984267Y-53562545D01*
X115013524Y-53622390D01*
X115102610Y-53711476D01*
X115215796Y-53766809D01*
X115289173Y-53777500D01*
X116310826Y-53777499D01*
X116384204Y-53766809D01*
X116497390Y-53711476D01*
X116586476Y-53622390D01*
X116641809Y-53509204D01*
X116652500Y-53435827D01*
X116652499Y-52864174D01*
X116641809Y-52790796D01*
X116586476Y-52677610D01*
X116497390Y-52588524D01*
X116384204Y-52533191D01*
X116384202Y-52533190D01*
X116384201Y-52533190D01*
X116325913Y-52524698D01*
X116310827Y-52522500D01*
X116310826Y-52522500D01*
X115289174Y-52522500D01*
X115215798Y-52533190D01*
X115215797Y-52533190D01*
X115215796Y-52533191D01*
X115169663Y-52555744D01*
X115102608Y-52588525D01*
X115013525Y-52677608D01*
X115013524Y-52677609D01*
X115013524Y-52677610D01*
X114984269Y-52737451D01*
X114948415Y-52769114D01*
X114928121Y-52772500D01*
X113999699Y-52772500D01*
X113900301Y-52772500D01*
X113900300Y-52772500D01*
X113900294Y-52772501D01*
X113804290Y-52798225D01*
X113804287Y-52798226D01*
X113718210Y-52847924D01*
X113718204Y-52847929D01*
X113486249Y-53079884D01*
X113459664Y-53095658D01*
X113420583Y-53107133D01*
X113317169Y-53173593D01*
X113317167Y-53173595D01*
X113236669Y-53266493D01*
X113236667Y-53266497D01*
X113188421Y-53372140D01*
X113175763Y-53390370D01*
X113061940Y-53504194D01*
X113017748Y-53522500D01*
X112858991Y-53522500D01*
X112814797Y-53504194D01*
X112796491Y-53460000D01*
X112807554Y-53424496D01*
X112874372Y-53327691D01*
X112934650Y-53168754D01*
X112934652Y-53168743D01*
X112955141Y-53000000D01*
X112955141Y-52999996D01*
X112934652Y-52831256D01*
X112934650Y-52831245D01*
X112874374Y-52672313D01*
X112874369Y-52672304D01*
X112868720Y-52664120D01*
X112435614Y-53097226D01*
X112391420Y-53115532D01*
X112347226Y-53097226D01*
X112250000Y-53000000D01*
X112152773Y-53097227D01*
X112108579Y-53115533D01*
X112064385Y-53097227D01*
X111631278Y-52664120D01*
X111625627Y-52672309D01*
X111565349Y-52831245D01*
X111565347Y-52831256D01*
X111544859Y-52999996D01*
X111544859Y-53000000D01*
X111565347Y-53168743D01*
X111565349Y-53168754D01*
X111625627Y-53327691D01*
X111692446Y-53424496D01*
X111702485Y-53471266D01*
X111676513Y-53511437D01*
X111641009Y-53522500D01*
X111300296Y-53522500D01*
X111204293Y-53548225D01*
X111204291Y-53548225D01*
X111118208Y-53597926D01*
X111118204Y-53597929D01*
X111047929Y-53668204D01*
X111047926Y-53668208D01*
X110998225Y-53754291D01*
X110998225Y-53754293D01*
X110972500Y-53850296D01*
X110972500Y-53949698D01*
X110980365Y-53979052D01*
X110974120Y-54026479D01*
X110936170Y-54055599D01*
X110888743Y-54049354D01*
X110875800Y-54039422D01*
X110798636Y-53962258D01*
X110780330Y-53918064D01*
X110781278Y-53907220D01*
X110782552Y-53900000D01*
X110762497Y-53786261D01*
X110704750Y-53686240D01*
X110683256Y-53668204D01*
X110616275Y-53612001D01*
X110507749Y-53572500D01*
X110507747Y-53572500D01*
X110392253Y-53572500D01*
X110392250Y-53572500D01*
X110283724Y-53612001D01*
X110195250Y-53686239D01*
X110137503Y-53786260D01*
X110117448Y-53900000D01*
X110137503Y-54013739D01*
X110195250Y-54113760D01*
X110283724Y-54187998D01*
X110335463Y-54206830D01*
X110392253Y-54227500D01*
X110465234Y-54227500D01*
X110509428Y-54245806D01*
X110667463Y-54403841D01*
X110685769Y-54448035D01*
X110667463Y-54492229D01*
X110623269Y-54510535D01*
X110601893Y-54506766D01*
X110507749Y-54472500D01*
X110507747Y-54472500D01*
X110392253Y-54472500D01*
X110392250Y-54472500D01*
X110283724Y-54512001D01*
X110195250Y-54586239D01*
X110137503Y-54686260D01*
X110137503Y-54686261D01*
X110117449Y-54799998D01*
X110117448Y-54800001D01*
X110121550Y-54823262D01*
X110122500Y-54834116D01*
X110122500Y-55312557D01*
X110129898Y-55349748D01*
X110129898Y-55349749D01*
X110155064Y-55387412D01*
X110164396Y-55434328D01*
X110147292Y-55466328D01*
X110085294Y-55528328D01*
X109859194Y-55754428D01*
X109815000Y-55772734D01*
X109770806Y-55754428D01*
X109752500Y-55710234D01*
X109752500Y-55480792D01*
X109770806Y-55436598D01*
X109794642Y-55423859D01*
X109794062Y-55422457D01*
X109799745Y-55420102D01*
X109799748Y-55420102D01*
X109841922Y-55391922D01*
X109870102Y-55349748D01*
X109877500Y-55312558D01*
X109877500Y-54834116D01*
X109878450Y-54823262D01*
X109878692Y-54821889D01*
X109882552Y-54800000D01*
X109862497Y-54686261D01*
X109804750Y-54586240D01*
X109797500Y-54580156D01*
X109716275Y-54512001D01*
X109607749Y-54472500D01*
X109607747Y-54472500D01*
X109492253Y-54472500D01*
X109492250Y-54472500D01*
X109386376Y-54511036D01*
X109338586Y-54508949D01*
X109306269Y-54473681D01*
X109302500Y-54452305D01*
X109302500Y-54309720D01*
X109302499Y-54309718D01*
X109299950Y-54303564D01*
X109279694Y-54254664D01*
X109279694Y-54206830D01*
X109313519Y-54173005D01*
X109361354Y-54173004D01*
X109377610Y-54182868D01*
X109383724Y-54187998D01*
X109435463Y-54206830D01*
X109492253Y-54227500D01*
X109492256Y-54227500D01*
X109607744Y-54227500D01*
X109607747Y-54227500D01*
X109716276Y-54187998D01*
X109804750Y-54113760D01*
X109862497Y-54013739D01*
X109882552Y-53900000D01*
X109862497Y-53786261D01*
X109804750Y-53686240D01*
X109783256Y-53668204D01*
X109716275Y-53612001D01*
X109607749Y-53572500D01*
X109607747Y-53572500D01*
X109492253Y-53572500D01*
X109492250Y-53572500D01*
X109383724Y-53612001D01*
X109295250Y-53686239D01*
X109237503Y-53786260D01*
X109228990Y-53834542D01*
X109217448Y-53900000D01*
X109237503Y-54013739D01*
X109254614Y-54043377D01*
X109256110Y-54045967D01*
X109262353Y-54093393D01*
X109233233Y-54131344D01*
X109185807Y-54137587D01*
X109157789Y-54121411D01*
X108998636Y-53962258D01*
X108980330Y-53918064D01*
X108981278Y-53907220D01*
X108982552Y-53900000D01*
X108962497Y-53786261D01*
X108904750Y-53686240D01*
X108883256Y-53668204D01*
X108816275Y-53612001D01*
X108707749Y-53572500D01*
X108707747Y-53572500D01*
X108592253Y-53572500D01*
X108592250Y-53572500D01*
X108483724Y-53612001D01*
X108395250Y-53686239D01*
X108337503Y-53786260D01*
X108328990Y-53834542D01*
X108317448Y-53900000D01*
X108337503Y-54013739D01*
X108354614Y-54043377D01*
X108356110Y-54045967D01*
X108362353Y-54093393D01*
X108333233Y-54131344D01*
X108285807Y-54137587D01*
X108257789Y-54121411D01*
X108098636Y-53962258D01*
X108080330Y-53918064D01*
X108081278Y-53907220D01*
X108082552Y-53900000D01*
X108062497Y-53786261D01*
X108004750Y-53686240D01*
X107983256Y-53668204D01*
X107916275Y-53612001D01*
X107807749Y-53572500D01*
X107807747Y-53572500D01*
X107692253Y-53572500D01*
X107692250Y-53572500D01*
X107583722Y-53612001D01*
X107579594Y-53615466D01*
X107533972Y-53629847D01*
X107491543Y-53607755D01*
X107480985Y-53589746D01*
X107474373Y-53572310D01*
X107474369Y-53572304D01*
X107468720Y-53564120D01*
X107132842Y-53899999D01*
X107132842Y-53900000D01*
X107468720Y-54235879D01*
X107468720Y-54235878D01*
X107474369Y-54227696D01*
X107474371Y-54227692D01*
X107480985Y-54210253D01*
X107513772Y-54175421D01*
X107561585Y-54173975D01*
X107579598Y-54184536D01*
X107583722Y-54187996D01*
X107583724Y-54187998D01*
X107692253Y-54227500D01*
X107765234Y-54227500D01*
X107809428Y-54245806D01*
X107967463Y-54403841D01*
X107985769Y-54448035D01*
X107967463Y-54492229D01*
X107923269Y-54510535D01*
X107901893Y-54506766D01*
X107807749Y-54472500D01*
X107807747Y-54472500D01*
X107692253Y-54472500D01*
X107692250Y-54472500D01*
X107583724Y-54512001D01*
X107495250Y-54586239D01*
X107437503Y-54686260D01*
X107437503Y-54686261D01*
X107417449Y-54799998D01*
X107417448Y-54800001D01*
X107421550Y-54823262D01*
X107422500Y-54834116D01*
X107422500Y-55312557D01*
X107429898Y-55349748D01*
X107429898Y-55349749D01*
X107458077Y-55391922D01*
X107500250Y-55420101D01*
X107505938Y-55422457D01*
X107505002Y-55424714D01*
X107536961Y-55446059D01*
X107547500Y-55480792D01*
X107547500Y-59796062D01*
X107529194Y-59840256D01*
X107485000Y-59858562D01*
X107440806Y-59840256D01*
X107437766Y-59836991D01*
X107382833Y-59773596D01*
X107382832Y-59773595D01*
X107279416Y-59707134D01*
X107279414Y-59707133D01*
X107279412Y-59707132D01*
X107161466Y-59672500D01*
X107161465Y-59672500D01*
X107038535Y-59672500D01*
X107012538Y-59680133D01*
X106964977Y-59675019D01*
X106950737Y-59664358D01*
X106840573Y-59554194D01*
X106822267Y-59510000D01*
X106840573Y-59465806D01*
X106884767Y-59447500D01*
X106981465Y-59447500D01*
X107099416Y-59412866D01*
X107202832Y-59346405D01*
X107277703Y-59260000D01*
X107283330Y-59253506D01*
X107283331Y-59253504D01*
X107283334Y-59253501D01*
X107334401Y-59141679D01*
X107351896Y-59020000D01*
X107334401Y-58898321D01*
X107283334Y-58786499D01*
X107283330Y-58786493D01*
X107202833Y-58693596D01*
X107202832Y-58693595D01*
X107099416Y-58627134D01*
X107099414Y-58627133D01*
X107099412Y-58627132D01*
X106981466Y-58592500D01*
X106981465Y-58592500D01*
X106858535Y-58592500D01*
X106832538Y-58600133D01*
X106784977Y-58595019D01*
X106770737Y-58584358D01*
X104220806Y-56034427D01*
X104202500Y-55990233D01*
X104202500Y-54800001D01*
X104717448Y-54800001D01*
X104721550Y-54823262D01*
X104722500Y-54834116D01*
X104722500Y-55312557D01*
X104729898Y-55349748D01*
X104729898Y-55349749D01*
X104758077Y-55391922D01*
X104782634Y-55408330D01*
X104800252Y-55420102D01*
X104837442Y-55427500D01*
X104837443Y-55427500D01*
X105262557Y-55427500D01*
X105262558Y-55427500D01*
X105299748Y-55420102D01*
X105341922Y-55391922D01*
X105370102Y-55349748D01*
X105377500Y-55312558D01*
X105377500Y-54834116D01*
X105378450Y-54823262D01*
X105378692Y-54821889D01*
X105382552Y-54800001D01*
X105617448Y-54800001D01*
X105621550Y-54823262D01*
X105622500Y-54834116D01*
X105622500Y-55312557D01*
X105629898Y-55349748D01*
X105629898Y-55349749D01*
X105658077Y-55391922D01*
X105682634Y-55408330D01*
X105700252Y-55420102D01*
X105737442Y-55427500D01*
X105737443Y-55427500D01*
X106162557Y-55427500D01*
X106162558Y-55427500D01*
X106199748Y-55420102D01*
X106241922Y-55391922D01*
X106270102Y-55349748D01*
X106277500Y-55312558D01*
X106277500Y-54834116D01*
X106278450Y-54823262D01*
X106278692Y-54821889D01*
X106282552Y-54800000D01*
X106262497Y-54686261D01*
X106204750Y-54586240D01*
X106197500Y-54580156D01*
X106120804Y-54515801D01*
X106517040Y-54515801D01*
X106550656Y-54533444D01*
X106581281Y-54570190D01*
X106576952Y-54617830D01*
X106575738Y-54620034D01*
X106537503Y-54686259D01*
X106527531Y-54742813D01*
X106517449Y-54799998D01*
X106517448Y-54800001D01*
X106521550Y-54823262D01*
X106522500Y-54834116D01*
X106522500Y-55312557D01*
X106529898Y-55349748D01*
X106529898Y-55349749D01*
X106558077Y-55391922D01*
X106582634Y-55408330D01*
X106600252Y-55420102D01*
X106637442Y-55427500D01*
X106637443Y-55427500D01*
X107062557Y-55427500D01*
X107062558Y-55427500D01*
X107099748Y-55420102D01*
X107141922Y-55391922D01*
X107170102Y-55349748D01*
X107177500Y-55312558D01*
X107177500Y-54834116D01*
X107178450Y-54823262D01*
X107178692Y-54821889D01*
X107182552Y-54800000D01*
X107162497Y-54686261D01*
X107124260Y-54620033D01*
X107118018Y-54572609D01*
X107147138Y-54534658D01*
X107149344Y-54533444D01*
X107182958Y-54515802D01*
X107182958Y-54515801D01*
X106850000Y-54182842D01*
X106517040Y-54515801D01*
X106120804Y-54515801D01*
X106116275Y-54512001D01*
X106007749Y-54472500D01*
X106007747Y-54472500D01*
X105892253Y-54472500D01*
X105892250Y-54472500D01*
X105783724Y-54512001D01*
X105695250Y-54586239D01*
X105637503Y-54686260D01*
X105637503Y-54686261D01*
X105617449Y-54799998D01*
X105617448Y-54800001D01*
X105382552Y-54800001D01*
X105382552Y-54800000D01*
X105362497Y-54686261D01*
X105304750Y-54586240D01*
X105297500Y-54580156D01*
X105216275Y-54512001D01*
X105107749Y-54472500D01*
X105107747Y-54472500D01*
X104992253Y-54472500D01*
X104992250Y-54472500D01*
X104883724Y-54512001D01*
X104795250Y-54586239D01*
X104737503Y-54686260D01*
X104737503Y-54686261D01*
X104717449Y-54799998D01*
X104717448Y-54800001D01*
X104202500Y-54800001D01*
X104202500Y-53900000D01*
X104717448Y-53900000D01*
X104737503Y-54013739D01*
X104795250Y-54113760D01*
X104883724Y-54187998D01*
X104935463Y-54206830D01*
X104992253Y-54227500D01*
X104992256Y-54227500D01*
X105107744Y-54227500D01*
X105107747Y-54227500D01*
X105216276Y-54187998D01*
X105304750Y-54113760D01*
X105362497Y-54013739D01*
X105382552Y-53900000D01*
X105617448Y-53900000D01*
X105637503Y-54013739D01*
X105695250Y-54113760D01*
X105783724Y-54187998D01*
X105835463Y-54206830D01*
X105892253Y-54227500D01*
X105892256Y-54227500D01*
X106007744Y-54227500D01*
X106007747Y-54227500D01*
X106116276Y-54187998D01*
X106120398Y-54184538D01*
X106166015Y-54170151D01*
X106208448Y-54192235D01*
X106219012Y-54210249D01*
X106225628Y-54227694D01*
X106231278Y-54235879D01*
X106567157Y-53900000D01*
X106567157Y-53899999D01*
X106231278Y-53564120D01*
X106225627Y-53572308D01*
X106219013Y-53589749D01*
X106186225Y-53624579D01*
X106138411Y-53626023D01*
X106120402Y-53615464D01*
X106116275Y-53612001D01*
X106007749Y-53572500D01*
X106007747Y-53572500D01*
X105892253Y-53572500D01*
X105892250Y-53572500D01*
X105783724Y-53612001D01*
X105695250Y-53686239D01*
X105637503Y-53786260D01*
X105617448Y-53900000D01*
X105382552Y-53900000D01*
X105362497Y-53786261D01*
X105304750Y-53686240D01*
X105283256Y-53668204D01*
X105216275Y-53612001D01*
X105107749Y-53572500D01*
X105107747Y-53572500D01*
X104992253Y-53572500D01*
X104992250Y-53572500D01*
X104883724Y-53612001D01*
X104795250Y-53686239D01*
X104737503Y-53786260D01*
X104717448Y-53900000D01*
X104202500Y-53900000D01*
X104202500Y-53459720D01*
X104202499Y-53459717D01*
X104171673Y-53385296D01*
X104171669Y-53385291D01*
X103786378Y-53000000D01*
X104717448Y-53000000D01*
X104737503Y-53113739D01*
X104795250Y-53213760D01*
X104883724Y-53287998D01*
X104992253Y-53327500D01*
X104992256Y-53327500D01*
X105107744Y-53327500D01*
X105107747Y-53327500D01*
X105216276Y-53287998D01*
X105304750Y-53213760D01*
X105362497Y-53113739D01*
X105382552Y-53000000D01*
X105617448Y-53000000D01*
X105637503Y-53113739D01*
X105695250Y-53213760D01*
X105783724Y-53287998D01*
X105892253Y-53327500D01*
X105892256Y-53327500D01*
X106007744Y-53327500D01*
X106007747Y-53327500D01*
X106116276Y-53287998D01*
X106120806Y-53284197D01*
X106517039Y-53284197D01*
X106849999Y-53617157D01*
X107182959Y-53284196D01*
X107100048Y-53240683D01*
X106934996Y-53200000D01*
X106765003Y-53200000D01*
X106599954Y-53240682D01*
X106517039Y-53284197D01*
X106120806Y-53284197D01*
X106204750Y-53213760D01*
X106262497Y-53113739D01*
X106282552Y-53000000D01*
X106262497Y-52886261D01*
X106204750Y-52786240D01*
X106188377Y-52772501D01*
X106116275Y-52712001D01*
X106007749Y-52672500D01*
X106007747Y-52672500D01*
X105892253Y-52672500D01*
X105892250Y-52672500D01*
X105783724Y-52712001D01*
X105695250Y-52786239D01*
X105637503Y-52886260D01*
X105621186Y-52978803D01*
X105617448Y-53000000D01*
X105382552Y-53000000D01*
X105362497Y-52886261D01*
X105304750Y-52786240D01*
X105288377Y-52772501D01*
X105216275Y-52712001D01*
X105107749Y-52672500D01*
X105107747Y-52672500D01*
X104992253Y-52672500D01*
X104992250Y-52672500D01*
X104883724Y-52712001D01*
X104795250Y-52786239D01*
X104737503Y-52886260D01*
X104721186Y-52978803D01*
X104717448Y-53000000D01*
X103786378Y-53000000D01*
X103654708Y-52868330D01*
X103654703Y-52868326D01*
X103580282Y-52837500D01*
X103580280Y-52837500D01*
X102606411Y-52837500D01*
X102562217Y-52819194D01*
X102546602Y-52793143D01*
X102545891Y-52790798D01*
X102507462Y-52664117D01*
X102440313Y-52538491D01*
X102416697Y-52494307D01*
X102416693Y-52494301D01*
X102414741Y-52491922D01*
X102294541Y-52345459D01*
X102145698Y-52223306D01*
X102145692Y-52223302D01*
X102008550Y-52149999D01*
X101975883Y-52132538D01*
X101868623Y-52100000D01*
X104717448Y-52100000D01*
X104737503Y-52213739D01*
X104795250Y-52313760D01*
X104883724Y-52387998D01*
X104992253Y-52427500D01*
X104992256Y-52427500D01*
X105107744Y-52427500D01*
X105107747Y-52427500D01*
X105216276Y-52387998D01*
X105304750Y-52313760D01*
X105362497Y-52213739D01*
X105382552Y-52100000D01*
X105617448Y-52100000D01*
X105637503Y-52213739D01*
X105695250Y-52313760D01*
X105783724Y-52387998D01*
X105892253Y-52427500D01*
X105892256Y-52427500D01*
X106007744Y-52427500D01*
X106007747Y-52427500D01*
X106116276Y-52387998D01*
X106204750Y-52313760D01*
X106262497Y-52213739D01*
X106282552Y-52100000D01*
X106262497Y-51986261D01*
X106204750Y-51886240D01*
X106139889Y-51831815D01*
X106116275Y-51812001D01*
X106007749Y-51772500D01*
X106007747Y-51772500D01*
X105892253Y-51772500D01*
X105892250Y-51772500D01*
X105783724Y-51812001D01*
X105695250Y-51886239D01*
X105637503Y-51986260D01*
X105628958Y-52034723D01*
X105617448Y-52100000D01*
X105382552Y-52100000D01*
X105362497Y-51986261D01*
X105304750Y-51886240D01*
X105239889Y-51831815D01*
X105216275Y-51812001D01*
X105107749Y-51772500D01*
X105107747Y-51772500D01*
X104992253Y-51772500D01*
X104992250Y-51772500D01*
X104883724Y-51812001D01*
X104795250Y-51886239D01*
X104737503Y-51986260D01*
X104728958Y-52034723D01*
X104717448Y-52100000D01*
X101868623Y-52100000D01*
X101858111Y-52096811D01*
X101791622Y-52076642D01*
X101600000Y-52057770D01*
X101408377Y-52076642D01*
X101290604Y-52112369D01*
X101224117Y-52132538D01*
X101224115Y-52132538D01*
X101224115Y-52132539D01*
X101054307Y-52223302D01*
X101054301Y-52223306D01*
X100905459Y-52345459D01*
X100783306Y-52494301D01*
X100783302Y-52494307D01*
X100709868Y-52631694D01*
X100692538Y-52664117D01*
X100690053Y-52672309D01*
X100636642Y-52848377D01*
X100617770Y-53039999D01*
X100127500Y-53039999D01*
X100127500Y-49637442D01*
X100622500Y-49637442D01*
X100622500Y-51362557D01*
X100629898Y-51399748D01*
X100629898Y-51399749D01*
X100658077Y-51441922D01*
X100673909Y-51452500D01*
X100700252Y-51470102D01*
X100737442Y-51477500D01*
X100737443Y-51477500D01*
X102462557Y-51477500D01*
X102462558Y-51477500D01*
X102499748Y-51470102D01*
X102541922Y-51441922D01*
X102570102Y-51399748D01*
X102577500Y-51362558D01*
X102577500Y-51200000D01*
X104717448Y-51200000D01*
X104737503Y-51313739D01*
X104795250Y-51413760D01*
X104883724Y-51487998D01*
X104992253Y-51527500D01*
X104992256Y-51527500D01*
X105107744Y-51527500D01*
X105107747Y-51527500D01*
X105216276Y-51487998D01*
X105304750Y-51413760D01*
X105362497Y-51313739D01*
X105382552Y-51200000D01*
X105617448Y-51200000D01*
X105637503Y-51313739D01*
X105695250Y-51413760D01*
X105783724Y-51487998D01*
X105892253Y-51527500D01*
X105892256Y-51527500D01*
X106007744Y-51527500D01*
X106007747Y-51527500D01*
X106116276Y-51487998D01*
X106204750Y-51413760D01*
X106262497Y-51313739D01*
X106282552Y-51200000D01*
X106262497Y-51086261D01*
X106204750Y-50986240D01*
X106158981Y-50947835D01*
X106116275Y-50912001D01*
X106007749Y-50872500D01*
X106007747Y-50872500D01*
X105892253Y-50872500D01*
X105892250Y-50872500D01*
X105783724Y-50912001D01*
X105695250Y-50986239D01*
X105637503Y-51086260D01*
X105623694Y-51164574D01*
X105617448Y-51200000D01*
X105382552Y-51200000D01*
X105362497Y-51086261D01*
X105304750Y-50986240D01*
X105258981Y-50947835D01*
X105216275Y-50912001D01*
X105107749Y-50872500D01*
X105107747Y-50872500D01*
X104992253Y-50872500D01*
X104992250Y-50872500D01*
X104883724Y-50912001D01*
X104795250Y-50986239D01*
X104737503Y-51086260D01*
X104723694Y-51164574D01*
X104717448Y-51200000D01*
X102577500Y-51200000D01*
X102577500Y-50300000D01*
X104717448Y-50300000D01*
X104737503Y-50413739D01*
X104795250Y-50513760D01*
X104883724Y-50587998D01*
X104992253Y-50627500D01*
X104992256Y-50627500D01*
X105107744Y-50627500D01*
X105107747Y-50627500D01*
X105216276Y-50587998D01*
X105304750Y-50513760D01*
X105362497Y-50413739D01*
X105382552Y-50300000D01*
X105617448Y-50300000D01*
X105637503Y-50413739D01*
X105695250Y-50513760D01*
X105783724Y-50587998D01*
X105892253Y-50627500D01*
X105892256Y-50627500D01*
X106007744Y-50627500D01*
X106007747Y-50627500D01*
X106116276Y-50587998D01*
X106204750Y-50513760D01*
X106262497Y-50413739D01*
X106282552Y-50300000D01*
X106262497Y-50186261D01*
X106204750Y-50086240D01*
X106182417Y-50067500D01*
X106116275Y-50012001D01*
X106007749Y-49972500D01*
X106007747Y-49972500D01*
X105892253Y-49972500D01*
X105892250Y-49972500D01*
X105783724Y-50012001D01*
X105695250Y-50086239D01*
X105637503Y-50186260D01*
X105628396Y-50237908D01*
X105617448Y-50300000D01*
X105382552Y-50300000D01*
X105362497Y-50186261D01*
X105304750Y-50086240D01*
X105282417Y-50067500D01*
X105216275Y-50012001D01*
X105107749Y-49972500D01*
X105107747Y-49972500D01*
X104992253Y-49972500D01*
X104992250Y-49972500D01*
X104883724Y-50012001D01*
X104795250Y-50086239D01*
X104737503Y-50186260D01*
X104728396Y-50237908D01*
X104717448Y-50300000D01*
X102577500Y-50300000D01*
X102577500Y-49637442D01*
X102570102Y-49600252D01*
X102570101Y-49600250D01*
X102541922Y-49558077D01*
X102499748Y-49529898D01*
X102462558Y-49522500D01*
X100737442Y-49522500D01*
X100718847Y-49526199D01*
X100700251Y-49529898D01*
X100700250Y-49529898D01*
X100658077Y-49558077D01*
X100629898Y-49600250D01*
X100629898Y-49600251D01*
X100622500Y-49637442D01*
X100127500Y-49637442D01*
X100127500Y-49400000D01*
X104008104Y-49400000D01*
X104025598Y-49521677D01*
X104025599Y-49521680D01*
X104076665Y-49633500D01*
X104076669Y-49633506D01*
X104149466Y-49717517D01*
X104157168Y-49726405D01*
X104260584Y-49792866D01*
X104260586Y-49792866D01*
X104260587Y-49792867D01*
X104378534Y-49827500D01*
X104378535Y-49827500D01*
X104501465Y-49827500D01*
X104619416Y-49792866D01*
X104722832Y-49726405D01*
X104769551Y-49672487D01*
X104812324Y-49651076D01*
X104856958Y-49665539D01*
X104883724Y-49687998D01*
X104989244Y-49726405D01*
X104992253Y-49727500D01*
X104992256Y-49727500D01*
X105107744Y-49727500D01*
X105107747Y-49727500D01*
X105216276Y-49687998D01*
X105304750Y-49613760D01*
X105362497Y-49513739D01*
X105382552Y-49400000D01*
X105617448Y-49400000D01*
X105637503Y-49513739D01*
X105695250Y-49613760D01*
X105783724Y-49687998D01*
X105889244Y-49726405D01*
X105892253Y-49727500D01*
X105892256Y-49727500D01*
X106007744Y-49727500D01*
X106007747Y-49727500D01*
X106116276Y-49687998D01*
X106143041Y-49665539D01*
X106188660Y-49651155D01*
X106230448Y-49672488D01*
X106269466Y-49717517D01*
X106277168Y-49726405D01*
X106380584Y-49792866D01*
X106380586Y-49792866D01*
X106380587Y-49792867D01*
X106498534Y-49827500D01*
X106498535Y-49827500D01*
X106621465Y-49827500D01*
X106739416Y-49792866D01*
X106842832Y-49726405D01*
X106908105Y-49651076D01*
X106923330Y-49633506D01*
X106923331Y-49633504D01*
X106923334Y-49633501D01*
X106974401Y-49521679D01*
X106991896Y-49400000D01*
X106974401Y-49278321D01*
X106923334Y-49166499D01*
X106923330Y-49166493D01*
X106842833Y-49073596D01*
X106842832Y-49073595D01*
X106837238Y-49070000D01*
X107318104Y-49070000D01*
X107335598Y-49191677D01*
X107335599Y-49191680D01*
X107386665Y-49303500D01*
X107386669Y-49303506D01*
X107459384Y-49387422D01*
X107467168Y-49396405D01*
X107570584Y-49462866D01*
X107570586Y-49462866D01*
X107570587Y-49462867D01*
X107688534Y-49497500D01*
X107688535Y-49497500D01*
X107811465Y-49497500D01*
X107929416Y-49462866D01*
X108032832Y-49396405D01*
X108104587Y-49313596D01*
X108113330Y-49303506D01*
X108113331Y-49303504D01*
X108113334Y-49303501D01*
X108164401Y-49191679D01*
X108181896Y-49070000D01*
X108164401Y-48948321D01*
X108113334Y-48836499D01*
X108113330Y-48836493D01*
X108034787Y-48745851D01*
X108019680Y-48700464D01*
X108027895Y-48673672D01*
X108062496Y-48613741D01*
X108062496Y-48613740D01*
X108062497Y-48613739D01*
X108082552Y-48500000D01*
X108062497Y-48386261D01*
X108004750Y-48286240D01*
X108000272Y-48282482D01*
X107920804Y-48215801D01*
X108317040Y-48215801D01*
X108399953Y-48259317D01*
X108565003Y-48299999D01*
X108565005Y-48300000D01*
X108734995Y-48300000D01*
X108734996Y-48299999D01*
X108900048Y-48259316D01*
X108982958Y-48215802D01*
X108982958Y-48215801D01*
X109217040Y-48215801D01*
X109299953Y-48259317D01*
X109465003Y-48299999D01*
X109465005Y-48300000D01*
X109634995Y-48300000D01*
X109634996Y-48299999D01*
X109800048Y-48259316D01*
X109882958Y-48215802D01*
X109882958Y-48215801D01*
X110117040Y-48215801D01*
X110199953Y-48259317D01*
X110365003Y-48299999D01*
X110365005Y-48300000D01*
X110534995Y-48300000D01*
X110534996Y-48299999D01*
X110700048Y-48259316D01*
X110782958Y-48215802D01*
X110782958Y-48215801D01*
X110450000Y-47882842D01*
X110117040Y-48215801D01*
X109882958Y-48215801D01*
X109550000Y-47882842D01*
X109217040Y-48215801D01*
X108982958Y-48215801D01*
X108650000Y-47882842D01*
X108317040Y-48215801D01*
X107920804Y-48215801D01*
X107916275Y-48212001D01*
X107807749Y-48172500D01*
X107807747Y-48172500D01*
X107692253Y-48172500D01*
X107692250Y-48172500D01*
X107583724Y-48212001D01*
X107495250Y-48286239D01*
X107437503Y-48386260D01*
X107417448Y-48500000D01*
X107437503Y-48613739D01*
X107472105Y-48673672D01*
X107478348Y-48721099D01*
X107465212Y-48745851D01*
X107386669Y-48836493D01*
X107386665Y-48836499D01*
X107335599Y-48948319D01*
X107335598Y-48948322D01*
X107318104Y-49070000D01*
X106837238Y-49070000D01*
X106739416Y-49007134D01*
X106739414Y-49007133D01*
X106739412Y-49007132D01*
X106621466Y-48972500D01*
X106621465Y-48972500D01*
X106498535Y-48972500D01*
X106498534Y-48972500D01*
X106380587Y-49007132D01*
X106277166Y-49073596D01*
X106230449Y-49127511D01*
X106187673Y-49148923D01*
X106143041Y-49134460D01*
X106116275Y-49112001D01*
X106007749Y-49072500D01*
X106007747Y-49072500D01*
X105892253Y-49072500D01*
X105892250Y-49072500D01*
X105783724Y-49112001D01*
X105695250Y-49186239D01*
X105637503Y-49286260D01*
X105617448Y-49400000D01*
X105382552Y-49400000D01*
X105362497Y-49286261D01*
X105304750Y-49186240D01*
X105295630Y-49178587D01*
X105216275Y-49112001D01*
X105107749Y-49072500D01*
X105107747Y-49072500D01*
X104992253Y-49072500D01*
X104992250Y-49072500D01*
X104883724Y-49112001D01*
X104856957Y-49134461D01*
X104811335Y-49148844D01*
X104769551Y-49127512D01*
X104722832Y-49073595D01*
X104722831Y-49073594D01*
X104662506Y-49034826D01*
X104619416Y-49007134D01*
X104619414Y-49007133D01*
X104619412Y-49007132D01*
X104501466Y-48972500D01*
X104501465Y-48972500D01*
X104378535Y-48972500D01*
X104378534Y-48972500D01*
X104260587Y-49007132D01*
X104157166Y-49073596D01*
X104076669Y-49166493D01*
X104076665Y-49166499D01*
X104025599Y-49278319D01*
X104025598Y-49278322D01*
X104008104Y-49400000D01*
X100127500Y-49400000D01*
X100127500Y-48608226D01*
X100129629Y-48592053D01*
X100132878Y-48579926D01*
X100149052Y-48551910D01*
X100151910Y-48549052D01*
X100179927Y-48532878D01*
X100189452Y-48530326D01*
X100192055Y-48529629D01*
X100208227Y-48527500D01*
X100321958Y-48527500D01*
X100321964Y-48527500D01*
X100438071Y-48510000D01*
X103388104Y-48510000D01*
X103405598Y-48631677D01*
X103405599Y-48631680D01*
X103456665Y-48743500D01*
X103456669Y-48743506D01*
X103537166Y-48836403D01*
X103537168Y-48836405D01*
X103640584Y-48902866D01*
X103640586Y-48902866D01*
X103640587Y-48902867D01*
X103758534Y-48937500D01*
X103758535Y-48937500D01*
X103881465Y-48937500D01*
X103999416Y-48902866D01*
X104102832Y-48836405D01*
X104183334Y-48743501D01*
X104190624Y-48727536D01*
X104225634Y-48694941D01*
X104247476Y-48691000D01*
X104747008Y-48691000D01*
X104791202Y-48709306D01*
X104794887Y-48713327D01*
X104795250Y-48713760D01*
X104883724Y-48787998D01*
X104992253Y-48827500D01*
X104992256Y-48827500D01*
X105107744Y-48827500D01*
X105107747Y-48827500D01*
X105216276Y-48787998D01*
X105304750Y-48713760D01*
X105362497Y-48613739D01*
X105382552Y-48500000D01*
X105362497Y-48386261D01*
X105304750Y-48286240D01*
X105300272Y-48282482D01*
X105216275Y-48212001D01*
X105107749Y-48172500D01*
X105107747Y-48172500D01*
X104992253Y-48172500D01*
X104992250Y-48172500D01*
X104883724Y-48212001D01*
X104795250Y-48286239D01*
X104794887Y-48286673D01*
X104794483Y-48286882D01*
X104791061Y-48289755D01*
X104790424Y-48288996D01*
X104752456Y-48308762D01*
X104747008Y-48309000D01*
X104238343Y-48309000D01*
X104194149Y-48290694D01*
X104186569Y-48279729D01*
X104185749Y-48280257D01*
X104183331Y-48276495D01*
X104102833Y-48183596D01*
X104102832Y-48183595D01*
X103999416Y-48117134D01*
X103999414Y-48117133D01*
X103999412Y-48117132D01*
X103881466Y-48082500D01*
X103881465Y-48082500D01*
X103758535Y-48082500D01*
X103758534Y-48082500D01*
X103640587Y-48117132D01*
X103537166Y-48183596D01*
X103456669Y-48276493D01*
X103456665Y-48276499D01*
X103405599Y-48388319D01*
X103405598Y-48388322D01*
X103388104Y-48510000D01*
X100438071Y-48510000D01*
X100563168Y-48491145D01*
X100563173Y-48491143D01*
X100563175Y-48491143D01*
X100647030Y-48465277D01*
X100796260Y-48419246D01*
X101016032Y-48313409D01*
X101217575Y-48175999D01*
X101396388Y-48010085D01*
X101452279Y-47940000D01*
X105518104Y-47940000D01*
X105535598Y-48061677D01*
X105535599Y-48061680D01*
X105586665Y-48173500D01*
X105586669Y-48173506D01*
X105661747Y-48260150D01*
X105676854Y-48305538D01*
X105668640Y-48332328D01*
X105637503Y-48386258D01*
X105619598Y-48487807D01*
X105617448Y-48500000D01*
X105637503Y-48613739D01*
X105695250Y-48713760D01*
X105783724Y-48787998D01*
X105892253Y-48827500D01*
X105892256Y-48827500D01*
X106007744Y-48827500D01*
X106007747Y-48827500D01*
X106116276Y-48787998D01*
X106204750Y-48713760D01*
X106262497Y-48613739D01*
X106282552Y-48500000D01*
X106262497Y-48386261D01*
X106231358Y-48332327D01*
X106225114Y-48284904D01*
X106238249Y-48260152D01*
X106304587Y-48183596D01*
X106313330Y-48173506D01*
X106313331Y-48173504D01*
X106313334Y-48173501D01*
X106345432Y-48103214D01*
X106380441Y-48070620D01*
X106428246Y-48072327D01*
X106459135Y-48103216D01*
X106486665Y-48163500D01*
X106486669Y-48163506D01*
X106565212Y-48254148D01*
X106580319Y-48299535D01*
X106572105Y-48326326D01*
X106537503Y-48386258D01*
X106519598Y-48487807D01*
X106517448Y-48500000D01*
X106537503Y-48613739D01*
X106595250Y-48713760D01*
X106683724Y-48787998D01*
X106792253Y-48827500D01*
X106792256Y-48827500D01*
X106907744Y-48827500D01*
X106907747Y-48827500D01*
X107016276Y-48787998D01*
X107104750Y-48713760D01*
X107162497Y-48613739D01*
X107182552Y-48500000D01*
X107162497Y-48386261D01*
X107127893Y-48326326D01*
X107121651Y-48278901D01*
X107134785Y-48254150D01*
X107195922Y-48183596D01*
X107213330Y-48163506D01*
X107213331Y-48163504D01*
X107213334Y-48163501D01*
X107264401Y-48051679D01*
X107281896Y-47930000D01*
X107264401Y-47808321D01*
X107213334Y-47696499D01*
X107213330Y-47696493D01*
X107132833Y-47603596D01*
X107132832Y-47603595D01*
X107127232Y-47599996D01*
X107944859Y-47599996D01*
X107944859Y-47600003D01*
X107965347Y-47768743D01*
X107965349Y-47768754D01*
X108025627Y-47927692D01*
X108031278Y-47935879D01*
X108367157Y-47600000D01*
X108367157Y-47599999D01*
X108932842Y-47599999D01*
X109099999Y-47767157D01*
X109267157Y-47600000D01*
X109267157Y-47599999D01*
X109832842Y-47599999D01*
X109999999Y-47767157D01*
X110167157Y-47600000D01*
X110167157Y-47599999D01*
X110732842Y-47599999D01*
X110732842Y-47600000D01*
X111068720Y-47935879D01*
X111068720Y-47935878D01*
X111074369Y-47927696D01*
X111074373Y-47927689D01*
X111134650Y-47768754D01*
X111134652Y-47768743D01*
X111155141Y-47600003D01*
X111155141Y-47599996D01*
X111544859Y-47599996D01*
X111544859Y-47600003D01*
X111565347Y-47768743D01*
X111565349Y-47768754D01*
X111625627Y-47927692D01*
X111631278Y-47935879D01*
X111967157Y-47600000D01*
X111967157Y-47599999D01*
X112532842Y-47599999D01*
X112699999Y-47767157D01*
X112867157Y-47600000D01*
X112867157Y-47599999D01*
X113432842Y-47599999D01*
X113432842Y-47600000D01*
X113768720Y-47935879D01*
X113768720Y-47935878D01*
X113774369Y-47927696D01*
X113774373Y-47927689D01*
X113834650Y-47768754D01*
X113834652Y-47768743D01*
X113855141Y-47600003D01*
X113855141Y-47599996D01*
X113834652Y-47431256D01*
X113834650Y-47431245D01*
X113774374Y-47272313D01*
X113774369Y-47272304D01*
X113768720Y-47264120D01*
X113432842Y-47599999D01*
X112867157Y-47599999D01*
X112700000Y-47432842D01*
X112532842Y-47599999D01*
X111967157Y-47599999D01*
X111631278Y-47264120D01*
X111625627Y-47272309D01*
X111565349Y-47431245D01*
X111565347Y-47431256D01*
X111544859Y-47599996D01*
X111155141Y-47599996D01*
X111134652Y-47431256D01*
X111134650Y-47431245D01*
X111074374Y-47272313D01*
X111074369Y-47272304D01*
X111068720Y-47264120D01*
X110732842Y-47599999D01*
X110167157Y-47599999D01*
X110000000Y-47432842D01*
X109832842Y-47599999D01*
X109267157Y-47599999D01*
X109100000Y-47432842D01*
X108932842Y-47599999D01*
X108367157Y-47599999D01*
X108031278Y-47264120D01*
X108025627Y-47272309D01*
X107965349Y-47431245D01*
X107965347Y-47431256D01*
X107944859Y-47599996D01*
X107127232Y-47599996D01*
X107029416Y-47537134D01*
X107029414Y-47537133D01*
X107029412Y-47537132D01*
X106911466Y-47502500D01*
X106911465Y-47502500D01*
X106788535Y-47502500D01*
X106788534Y-47502500D01*
X106670587Y-47537132D01*
X106567166Y-47603596D01*
X106486669Y-47696493D01*
X106486667Y-47696497D01*
X106454568Y-47766784D01*
X106419557Y-47799379D01*
X106371752Y-47797672D01*
X106340865Y-47766784D01*
X106313334Y-47706499D01*
X106313330Y-47706493D01*
X106232833Y-47613596D01*
X106232832Y-47613595D01*
X106129416Y-47547134D01*
X106129414Y-47547133D01*
X106129412Y-47547132D01*
X106011466Y-47512500D01*
X106011465Y-47512500D01*
X105888535Y-47512500D01*
X105888534Y-47512500D01*
X105770587Y-47547132D01*
X105667166Y-47613596D01*
X105586669Y-47706493D01*
X105586665Y-47706499D01*
X105535599Y-47818319D01*
X105535598Y-47818322D01*
X105518104Y-47940000D01*
X101452279Y-47940000D01*
X101507368Y-47870921D01*
X101548468Y-47819383D01*
X101548468Y-47819382D01*
X101548475Y-47819374D01*
X101670439Y-47608126D01*
X101759556Y-47381059D01*
X101813835Y-47143247D01*
X101825754Y-46984197D01*
X108317039Y-46984197D01*
X108649999Y-47317157D01*
X108982958Y-46984197D01*
X109217039Y-46984197D01*
X109549999Y-47317157D01*
X109882958Y-46984197D01*
X110117039Y-46984197D01*
X110449999Y-47317157D01*
X110782958Y-46984197D01*
X111917039Y-46984197D01*
X112249999Y-47317157D01*
X112582958Y-46984197D01*
X112817039Y-46984197D01*
X113149999Y-47317157D01*
X113482959Y-46984196D01*
X113400048Y-46940683D01*
X113234996Y-46900000D01*
X113065003Y-46900000D01*
X112899954Y-46940682D01*
X112817039Y-46984197D01*
X112582958Y-46984197D01*
X112582959Y-46984196D01*
X112500048Y-46940683D01*
X112334996Y-46900000D01*
X112165003Y-46900000D01*
X111999954Y-46940682D01*
X111917039Y-46984197D01*
X110782958Y-46984197D01*
X110782959Y-46984196D01*
X110700048Y-46940683D01*
X110534996Y-46900000D01*
X110365003Y-46900000D01*
X110199954Y-46940682D01*
X110117039Y-46984197D01*
X109882958Y-46984197D01*
X109882959Y-46984196D01*
X109800048Y-46940683D01*
X109634996Y-46900000D01*
X109465003Y-46900000D01*
X109299954Y-46940682D01*
X109217039Y-46984197D01*
X108982958Y-46984197D01*
X108982959Y-46984196D01*
X108900048Y-46940683D01*
X108734996Y-46900000D01*
X108565003Y-46900000D01*
X108399954Y-46940682D01*
X108317039Y-46984197D01*
X101825754Y-46984197D01*
X101832064Y-46900000D01*
X101831790Y-46896348D01*
X101827859Y-46843897D01*
X101813835Y-46656753D01*
X101759556Y-46418941D01*
X101670439Y-46191874D01*
X101548475Y-45980626D01*
X101548470Y-45980620D01*
X101548468Y-45980616D01*
X101405601Y-45801468D01*
X101392358Y-45755503D01*
X101415497Y-45713636D01*
X101454465Y-45700000D01*
X119349984Y-45700000D01*
X119350000Y-45700000D01*
X119399250Y-45697598D01*
X119490253Y-45659904D01*
X119559904Y-45590253D01*
X119597598Y-45499250D01*
X119600000Y-45450000D01*
X119600000Y-45351527D01*
X119600074Y-45348483D01*
X119601873Y-45311593D01*
X119606556Y-45290720D01*
X119635340Y-45221228D01*
X119648884Y-45200958D01*
X119700958Y-45148884D01*
X119721228Y-45135340D01*
X119790722Y-45106555D01*
X119811592Y-45101873D01*
X119838583Y-45100556D01*
X119848484Y-45100074D01*
X119851528Y-45100000D01*
X142854014Y-45100000D01*
X142898208Y-45118306D01*
G37*
%TD.AperFunction*%
%TD*%
M02*
