%TF.GenerationSoftware,KiCad,Pcbnew,8.99.0-unknown-7a4b3602b9~181~ubuntu24.04.1*%
%TF.CreationDate,2024-12-15T13:41:54-05:00*%
%TF.ProjectId,nRF54L_ePaper,6e524635-344c-45f6-9550-617065722e6b,rev?*%
%TF.SameCoordinates,Original*%
%TF.FileFunction,Other,Comment*%
%FSLAX46Y46*%
G04 Gerber Fmt 4.6, Leading zero omitted, Abs format (unit mm)*
G04 Created by KiCad (PCBNEW 8.99.0-unknown-7a4b3602b9~181~ubuntu24.04.1) date 2024-12-15 13:41:54*
%MOMM*%
%LPD*%
G01*
G04 APERTURE LIST*
%ADD10C,0.070000*%
%ADD11C,0.125000*%
G04 APERTURE END LIST*
D10*
X113099404Y-70931407D02*
X113099404Y-70531407D01*
X113327975Y-70931407D02*
X113156546Y-70702836D01*
X113327975Y-70531407D02*
X113099404Y-70759979D01*
X113499404Y-70721883D02*
X113632737Y-70721883D01*
X113689880Y-70931407D02*
X113499404Y-70931407D01*
X113499404Y-70931407D02*
X113499404Y-70531407D01*
X113499404Y-70531407D02*
X113689880Y-70531407D01*
X113861309Y-70721883D02*
X113994642Y-70721883D01*
X114051785Y-70931407D02*
X113861309Y-70931407D01*
X113861309Y-70931407D02*
X113861309Y-70531407D01*
X113861309Y-70531407D02*
X114051785Y-70531407D01*
X114223214Y-70931407D02*
X114223214Y-70531407D01*
X114223214Y-70531407D02*
X114375595Y-70531407D01*
X114375595Y-70531407D02*
X114413690Y-70550455D01*
X114413690Y-70550455D02*
X114432737Y-70569502D01*
X114432737Y-70569502D02*
X114451785Y-70607598D01*
X114451785Y-70607598D02*
X114451785Y-70664740D01*
X114451785Y-70664740D02*
X114432737Y-70702836D01*
X114432737Y-70702836D02*
X114413690Y-70721883D01*
X114413690Y-70721883D02*
X114375595Y-70740931D01*
X114375595Y-70740931D02*
X114223214Y-70740931D01*
X114699404Y-70531407D02*
X114775595Y-70531407D01*
X114775595Y-70531407D02*
X114813690Y-70550455D01*
X114813690Y-70550455D02*
X114851785Y-70588550D01*
X114851785Y-70588550D02*
X114870833Y-70664740D01*
X114870833Y-70664740D02*
X114870833Y-70798074D01*
X114870833Y-70798074D02*
X114851785Y-70874264D01*
X114851785Y-70874264D02*
X114813690Y-70912360D01*
X114813690Y-70912360D02*
X114775595Y-70931407D01*
X114775595Y-70931407D02*
X114699404Y-70931407D01*
X114699404Y-70931407D02*
X114661309Y-70912360D01*
X114661309Y-70912360D02*
X114623214Y-70874264D01*
X114623214Y-70874264D02*
X114604166Y-70798074D01*
X114604166Y-70798074D02*
X114604166Y-70664740D01*
X114604166Y-70664740D02*
X114623214Y-70588550D01*
X114623214Y-70588550D02*
X114661309Y-70550455D01*
X114661309Y-70550455D02*
X114699404Y-70531407D01*
X115042262Y-70531407D02*
X115042262Y-70855217D01*
X115042262Y-70855217D02*
X115061309Y-70893312D01*
X115061309Y-70893312D02*
X115080357Y-70912360D01*
X115080357Y-70912360D02*
X115118452Y-70931407D01*
X115118452Y-70931407D02*
X115194643Y-70931407D01*
X115194643Y-70931407D02*
X115232738Y-70912360D01*
X115232738Y-70912360D02*
X115251785Y-70893312D01*
X115251785Y-70893312D02*
X115270833Y-70855217D01*
X115270833Y-70855217D02*
X115270833Y-70531407D01*
X115404167Y-70531407D02*
X115632738Y-70531407D01*
X115518452Y-70931407D02*
X115518452Y-70531407D01*
D11*
X106028573Y-42181952D02*
X106266668Y-42181952D01*
X105980954Y-42324809D02*
X106147620Y-41824809D01*
X106147620Y-41824809D02*
X106314287Y-42324809D01*
X106480953Y-41991476D02*
X106480953Y-42324809D01*
X106480953Y-42039095D02*
X106504763Y-42015285D01*
X106504763Y-42015285D02*
X106552382Y-41991476D01*
X106552382Y-41991476D02*
X106623810Y-41991476D01*
X106623810Y-41991476D02*
X106671429Y-42015285D01*
X106671429Y-42015285D02*
X106695239Y-42062904D01*
X106695239Y-42062904D02*
X106695239Y-42324809D01*
X106861906Y-41991476D02*
X107052382Y-41991476D01*
X106933334Y-41824809D02*
X106933334Y-42253380D01*
X106933334Y-42253380D02*
X106957144Y-42301000D01*
X106957144Y-42301000D02*
X107004763Y-42324809D01*
X107004763Y-42324809D02*
X107052382Y-42324809D01*
X107409524Y-42301000D02*
X107361905Y-42324809D01*
X107361905Y-42324809D02*
X107266667Y-42324809D01*
X107266667Y-42324809D02*
X107219048Y-42301000D01*
X107219048Y-42301000D02*
X107195239Y-42253380D01*
X107195239Y-42253380D02*
X107195239Y-42062904D01*
X107195239Y-42062904D02*
X107219048Y-42015285D01*
X107219048Y-42015285D02*
X107266667Y-41991476D01*
X107266667Y-41991476D02*
X107361905Y-41991476D01*
X107361905Y-41991476D02*
X107409524Y-42015285D01*
X107409524Y-42015285D02*
X107433334Y-42062904D01*
X107433334Y-42062904D02*
X107433334Y-42110523D01*
X107433334Y-42110523D02*
X107195239Y-42158142D01*
X107647619Y-41991476D02*
X107647619Y-42324809D01*
X107647619Y-42039095D02*
X107671429Y-42015285D01*
X107671429Y-42015285D02*
X107719048Y-41991476D01*
X107719048Y-41991476D02*
X107790476Y-41991476D01*
X107790476Y-41991476D02*
X107838095Y-42015285D01*
X107838095Y-42015285D02*
X107861905Y-42062904D01*
X107861905Y-42062904D02*
X107861905Y-42324809D01*
X108100000Y-41991476D02*
X108100000Y-42324809D01*
X108100000Y-42039095D02*
X108123810Y-42015285D01*
X108123810Y-42015285D02*
X108171429Y-41991476D01*
X108171429Y-41991476D02*
X108242857Y-41991476D01*
X108242857Y-41991476D02*
X108290476Y-42015285D01*
X108290476Y-42015285D02*
X108314286Y-42062904D01*
X108314286Y-42062904D02*
X108314286Y-42324809D01*
X108766667Y-42324809D02*
X108766667Y-42062904D01*
X108766667Y-42062904D02*
X108742857Y-42015285D01*
X108742857Y-42015285D02*
X108695238Y-41991476D01*
X108695238Y-41991476D02*
X108600000Y-41991476D01*
X108600000Y-41991476D02*
X108552381Y-42015285D01*
X108766667Y-42301000D02*
X108719048Y-42324809D01*
X108719048Y-42324809D02*
X108600000Y-42324809D01*
X108600000Y-42324809D02*
X108552381Y-42301000D01*
X108552381Y-42301000D02*
X108528572Y-42253380D01*
X108528572Y-42253380D02*
X108528572Y-42205761D01*
X108528572Y-42205761D02*
X108552381Y-42158142D01*
X108552381Y-42158142D02*
X108600000Y-42134333D01*
X108600000Y-42134333D02*
X108719048Y-42134333D01*
X108719048Y-42134333D02*
X108766667Y-42110523D01*
X109385714Y-42324809D02*
X109385714Y-41824809D01*
X109671428Y-42324809D02*
X109457143Y-42039095D01*
X109671428Y-41824809D02*
X109385714Y-42110523D01*
X110076190Y-42301000D02*
X110028571Y-42324809D01*
X110028571Y-42324809D02*
X109933333Y-42324809D01*
X109933333Y-42324809D02*
X109885714Y-42301000D01*
X109885714Y-42301000D02*
X109861905Y-42253380D01*
X109861905Y-42253380D02*
X109861905Y-42062904D01*
X109861905Y-42062904D02*
X109885714Y-42015285D01*
X109885714Y-42015285D02*
X109933333Y-41991476D01*
X109933333Y-41991476D02*
X110028571Y-41991476D01*
X110028571Y-41991476D02*
X110076190Y-42015285D01*
X110076190Y-42015285D02*
X110100000Y-42062904D01*
X110100000Y-42062904D02*
X110100000Y-42110523D01*
X110100000Y-42110523D02*
X109861905Y-42158142D01*
X110504761Y-42301000D02*
X110457142Y-42324809D01*
X110457142Y-42324809D02*
X110361904Y-42324809D01*
X110361904Y-42324809D02*
X110314285Y-42301000D01*
X110314285Y-42301000D02*
X110290476Y-42253380D01*
X110290476Y-42253380D02*
X110290476Y-42062904D01*
X110290476Y-42062904D02*
X110314285Y-42015285D01*
X110314285Y-42015285D02*
X110361904Y-41991476D01*
X110361904Y-41991476D02*
X110457142Y-41991476D01*
X110457142Y-41991476D02*
X110504761Y-42015285D01*
X110504761Y-42015285D02*
X110528571Y-42062904D01*
X110528571Y-42062904D02*
X110528571Y-42110523D01*
X110528571Y-42110523D02*
X110290476Y-42158142D01*
X110742856Y-41991476D02*
X110742856Y-42491476D01*
X110742856Y-42015285D02*
X110790475Y-41991476D01*
X110790475Y-41991476D02*
X110885713Y-41991476D01*
X110885713Y-41991476D02*
X110933332Y-42015285D01*
X110933332Y-42015285D02*
X110957142Y-42039095D01*
X110957142Y-42039095D02*
X110980951Y-42086714D01*
X110980951Y-42086714D02*
X110980951Y-42229571D01*
X110980951Y-42229571D02*
X110957142Y-42277190D01*
X110957142Y-42277190D02*
X110933332Y-42301000D01*
X110933332Y-42301000D02*
X110885713Y-42324809D01*
X110885713Y-42324809D02*
X110790475Y-42324809D01*
X110790475Y-42324809D02*
X110742856Y-42301000D01*
X111266666Y-42324809D02*
X111219047Y-42301000D01*
X111219047Y-42301000D02*
X111195237Y-42277190D01*
X111195237Y-42277190D02*
X111171428Y-42229571D01*
X111171428Y-42229571D02*
X111171428Y-42086714D01*
X111171428Y-42086714D02*
X111195237Y-42039095D01*
X111195237Y-42039095D02*
X111219047Y-42015285D01*
X111219047Y-42015285D02*
X111266666Y-41991476D01*
X111266666Y-41991476D02*
X111338094Y-41991476D01*
X111338094Y-41991476D02*
X111385713Y-42015285D01*
X111385713Y-42015285D02*
X111409523Y-42039095D01*
X111409523Y-42039095D02*
X111433332Y-42086714D01*
X111433332Y-42086714D02*
X111433332Y-42229571D01*
X111433332Y-42229571D02*
X111409523Y-42277190D01*
X111409523Y-42277190D02*
X111385713Y-42301000D01*
X111385713Y-42301000D02*
X111338094Y-42324809D01*
X111338094Y-42324809D02*
X111266666Y-42324809D01*
X111861904Y-41991476D02*
X111861904Y-42324809D01*
X111647618Y-41991476D02*
X111647618Y-42253380D01*
X111647618Y-42253380D02*
X111671428Y-42301000D01*
X111671428Y-42301000D02*
X111719047Y-42324809D01*
X111719047Y-42324809D02*
X111790475Y-42324809D01*
X111790475Y-42324809D02*
X111838094Y-42301000D01*
X111838094Y-42301000D02*
X111861904Y-42277190D01*
X112028571Y-41991476D02*
X112219047Y-41991476D01*
X112099999Y-41824809D02*
X112099999Y-42253380D01*
X112099999Y-42253380D02*
X112123809Y-42301000D01*
X112123809Y-42301000D02*
X112171428Y-42324809D01*
X112171428Y-42324809D02*
X112219047Y-42324809D01*
M02*
