%TF.GenerationSoftware,KiCad,Pcbnew,8.99.0-unknown-7a4b3602b9~181~ubuntu24.04.1*%
%TF.CreationDate,2024-12-15T13:41:54-05:00*%
%TF.ProjectId,nRF54L_ePaper,6e524635-344c-45f6-9550-617065722e6b,rev?*%
%TF.SameCoordinates,Original*%
%TF.FileFunction,Legend,Top*%
%TF.FilePolarity,Positive*%
%FSLAX46Y46*%
G04 Gerber Fmt 4.6, Leading zero omitted, Abs format (unit mm)*
G04 Created by KiCad (PCBNEW 8.99.0-unknown-7a4b3602b9~181~ubuntu24.04.1) date 2024-12-15 13:41:54*
%MOMM*%
%LPD*%
G01*
G04 APERTURE LIST*
G04 Aperture macros list*
%AMRoundRect*
0 Rectangle with rounded corners*
0 $1 Rounding radius*
0 $2 $3 $4 $5 $6 $7 $8 $9 X,Y pos of 4 corners*
0 Add a 4 corners polygon primitive as box body*
4,1,4,$2,$3,$4,$5,$6,$7,$8,$9,$2,$3,0*
0 Add four circle primitives for the rounded corners*
1,1,$1+$1,$2,$3*
1,1,$1+$1,$4,$5*
1,1,$1+$1,$6,$7*
1,1,$1+$1,$8,$9*
0 Add four rect primitives between the rounded corners*
20,1,$1+$1,$2,$3,$4,$5,0*
20,1,$1+$1,$4,$5,$6,$7,0*
20,1,$1+$1,$6,$7,$8,$9,0*
20,1,$1+$1,$8,$9,$2,$3,0*%
G04 Aperture macros list end*
%ADD10C,0.120000*%
%ADD11R,1.050000X0.650000*%
%ADD12RoundRect,0.140000X-0.140000X-0.170000X0.140000X-0.170000X0.140000X0.170000X-0.140000X0.170000X0*%
%ADD13R,0.500000X0.300000*%
%ADD14C,0.990600*%
%ADD15C,0.787400*%
%ADD16O,2.400000X1.800000*%
%ADD17C,0.900000*%
G04 APERTURE END LIST*
D10*
%TO.C,JP2*%
X116970000Y-55505000D02*
X116970000Y-52905000D01*
X119630000Y-52905000D02*
X116970000Y-52905000D01*
X119630000Y-55505000D02*
X116970000Y-55505000D01*
X119630000Y-55505000D02*
X119630000Y-52905000D01*
X119630000Y-56775000D02*
X119630000Y-58105000D01*
X119630000Y-58105000D02*
X118300000Y-58105000D01*
%TO.C,SW3*%
X130343750Y-70800000D02*
X130343750Y-70700000D01*
X130343750Y-72500000D02*
X134743750Y-72500000D01*
X134743750Y-69000000D02*
X130343750Y-69000000D01*
X134743750Y-70800000D02*
X134743750Y-70700000D01*
%TO.C,J1*%
X100270000Y-49170000D02*
X101600000Y-49170000D01*
X100270000Y-50500000D02*
X100270000Y-49170000D01*
X100270000Y-51770000D02*
X100270000Y-59450000D01*
X100270000Y-51770000D02*
X102930000Y-51770000D01*
X100270000Y-59450000D02*
X102930000Y-59450000D01*
X102930000Y-51770000D02*
X102930000Y-59450000D01*
%TO.C,C25*%
X153412164Y-68890000D02*
X153627836Y-68890000D01*
X153412164Y-69610000D02*
X153627836Y-69610000D01*
%TO.C,SW4*%
X142481250Y-70800000D02*
X142481250Y-70700000D01*
X142481250Y-72500000D02*
X146881250Y-72500000D01*
X146881250Y-69000000D02*
X142481250Y-69000000D01*
X146881250Y-70800000D02*
X146881250Y-70700000D01*
%TO.C,SW2*%
X118206250Y-70800000D02*
X118206250Y-70700000D01*
X118206250Y-72500000D02*
X122606250Y-72500000D01*
X122606250Y-69000000D02*
X118206250Y-69000000D01*
X122606250Y-70800000D02*
X122606250Y-70700000D01*
%TO.C,U2*%
X154270000Y-69890000D02*
X152770000Y-69890000D01*
X154270000Y-71610000D02*
X152770000Y-71610000D01*
X154720000Y-71630000D02*
X154720000Y-71350000D01*
X155000000Y-71350000D01*
X154720000Y-71630000D01*
G36*
X154720000Y-71630000D02*
G01*
X154720000Y-71350000D01*
X155000000Y-71350000D01*
X154720000Y-71630000D01*
G37*
%TO.C,SW1*%
X106068750Y-70800000D02*
X106068750Y-70700000D01*
X106068750Y-72500000D02*
X110468750Y-72500000D01*
X110468750Y-69000000D02*
X106068750Y-69000000D01*
X110468750Y-70800000D02*
X110468750Y-70700000D01*
%TO.C,J4*%
X112432500Y-72020000D02*
X112432500Y-71385000D01*
X113067500Y-72020000D02*
X112432500Y-72020000D01*
%TD*%
%LPC*%
D11*
%TO.C,SW3*%
X130468750Y-69675000D03*
X134618750Y-69675000D03*
X130468750Y-71825000D03*
X134593750Y-71825000D03*
%TD*%
D12*
%TO.C,C25*%
X153040000Y-69250000D03*
X154000000Y-69250000D03*
%TD*%
D11*
%TO.C,SW4*%
X142606250Y-69675000D03*
X146756250Y-69675000D03*
X142606250Y-71825000D03*
X146731250Y-71825000D03*
%TD*%
%TO.C,SW2*%
X118331250Y-69675000D03*
X122481250Y-69675000D03*
X118331250Y-71825000D03*
X122456250Y-71825000D03*
%TD*%
D13*
%TO.C,U2*%
X154220000Y-71150000D03*
X154220000Y-70350000D03*
X152820000Y-70350000D03*
X152820000Y-71150000D03*
%TD*%
D11*
%TO.C,SW1*%
X106193750Y-69675000D03*
X110343750Y-69675000D03*
X106193750Y-71825000D03*
X110318750Y-71825000D03*
%TD*%
D14*
%TO.C,J4*%
X111797500Y-70750000D03*
X116877500Y-69734000D03*
X116877500Y-71766000D03*
D15*
X113067500Y-71385000D03*
X113067500Y-70115000D03*
X114337500Y-71385000D03*
X114337500Y-70115000D03*
X115607500Y-71385000D03*
X115607500Y-70115000D03*
%TD*%
D16*
%TO.C,D4*%
X102200000Y-70750000D03*
%TD*%
D17*
%TO.C,SW5*%
X146800000Y-70730000D03*
X143800000Y-70730000D03*
%TD*%
%LPD*%
M02*
